<?xml version="1.0" encoding="utf-8"?>
<!-- Generator: Adobe Illustrator 18.0.0, SVG Export Plug-In . SVG Version: 6.00 Build 0)  -->
<!DOCTYPE svg PUBLIC "-//W3C//DTD SVG 1.1//EN" "http://www.w3.org/Graphics/SVG/1.1/DTD/svg11.dtd">
<svg version="1.1" id="Layer_1" xmlns="http://www.w3.org/2000/svg" xmlns:xlink="http://www.w3.org/1999/xlink" x="0px" y="0px"
	 viewBox="0 0 919.6 1013" enable-background="new 0 0 919.6 1013" xml:space="preserve">
<g>
	<g opacity="0.5">
		<path fill="#C2D3D1" d="M402.4,561.3c-0.3-47.5,30.1-78.9,77.6-78.9c39.4,0,70.5,23.6,70.5,65.3c0,30.4-14.2,41.7-28.4,53.7
			c-16.5,13.9-28.4,23.6-28.4,54.6h-34.9c0-37.8,8.1-50.8,25.2-65.6c13.9-12,26.2-19.7,26.2-41.4c0-26.2-20-35.9-31.7-35.9
			c-26.5,0-39.1,19.1-39.1,48.2H402.4z M453.8,678.3h43.3v40.4h-43.3V678.3z"/>
	</g>
	<g>
		<polyline fill="#8FA3AD" points="544.7,298.9 469.8,256.3 469.8,171 544.7,128.4 619.6,171 		"/>
		<line fill="#8FA3AD" stroke="#C2D3D1" stroke-miterlimit="10" x1="48.7" y1="376.8" x2="27.1" y2="519.5"/>
		<line fill="#8FA3AD" stroke="#C2D3D1" stroke-miterlimit="10" x1="906.3" y1="413.3" x2="919" y2="519.5"/>
		<path fill="#8FA3AD" stroke="#C2D3D1" stroke-miterlimit="10" d="M837.8,668.9"/>
		<path fill="#8FA3AD" stroke="#C2D3D1" stroke-miterlimit="10" d="M164.1,713.1"/>
		<path fill="#8FA3AD" stroke="#C2D3D1" stroke-miterlimit="10" d="M388.7,663.3"/>
		<polygon fill="#8FA3AD" points="164.3,810.5 164.3,810.5 89.3,660.5 27.1,519.5 89.3,560.9 164.1,710.8 164.1,710.9 239.1,860.3 
					"/>
		<path fill="#8FA3AD" stroke="#C2D3D1" stroke-miterlimit="10" d="M538.4,962.7"/>
		<path fill="#8FA3AD" stroke="#C2D3D1" stroke-miterlimit="10" d="M762.9,716.5"/>
		<path fill="#8FA3AD" stroke="#C2D3D1" stroke-miterlimit="10" d="M388.7,962.7"/>
		<path fill="#8FA3AD" stroke="#C2D3D1" stroke-miterlimit="10" d="M238.9,863.1"/>
		<path fill="#8FA3AD" stroke="#C2D3D1" stroke-miterlimit="10" d="M463.5,813.3"/>
		<path fill="#8FA3AD" stroke="#C2D3D1" stroke-miterlimit="10" d="M388.7,962.7"/>
		<path fill="#8FA3AD" stroke="#C2D3D1" stroke-miterlimit="10" d="M238.9,863.1"/>
		<polygon fill="#8FA3AD" points="164.1,710.8 164.1,710.9 164.1,710.8 		"/>
		<line fill="#8FA3AD" stroke="#C2D3D1" stroke-miterlimit="10" x1="762.9" y1="718.8" x2="724.2" y2="800"/>
		<line fill="#8FA3AD" stroke="#C2D3D1" stroke-miterlimit="10" x1="658.2" y1="807" x2="638.6" y2="897.9"/>
		<line fill="#8FA3AD" stroke="#C2D3D1" stroke-miterlimit="10" x1="638.6" y1="897.9" x2="538.4" y2="962.7"/>
		<path fill="#8FA3AD" stroke="#C2D3D1" stroke-miterlimit="10" d="M50.1,687.1"/>
		<line fill="#8FA3AD" stroke="#C2D3D1" stroke-miterlimit="10" x1="919.1" y1="519.5" x2="847.3" y2="662.9"/>
		<line fill="#8FA3AD" stroke="#C2D3D1" stroke-miterlimit="10" x1="724.2" y1="800" x2="658.2" y2="807"/>
		<line fill="#8FA3AD" stroke="#C2D3D1" stroke-miterlimit="10" x1="388.7" y1="962.7" x2="238.9" y2="860.3"/>
		<path fill="#8FA3AD" stroke="#C2D3D1" stroke-miterlimit="10" d="M463.5,813.3"/>
		<line fill="#8FA3AD" stroke="#C2D3D1" stroke-miterlimit="10" x1="538.4" y1="962.7" x2="463.5" y2="1012.6"/>
		<line fill="#8FA3AD" stroke="#C2D3D1" stroke-miterlimit="10" x1="463.5" y1="1012.6" x2="388.7" y2="962.7"/>
		<line fill="#8FA3AD" stroke="#C2D3D1" stroke-miterlimit="10" x1="762.9" y1="718.8" x2="848.5" y2="660.5"/>
		<path fill="#8FA3AD" stroke="#C2D3D1" stroke-miterlimit="10" d="M313.8,813.3"/>
		<path fill="#8FA3AD" stroke="#C2D3D1" stroke-miterlimit="10" d="M538.4,569.3"/>
		<path fill="#8FA3AD" stroke="#C2D3D1" stroke-miterlimit="10" d="M538.4,962.7"/>
		<path fill="#8FA3AD" stroke="#C2D3D1" stroke-miterlimit="10" d="M463.5,813.3"/>
		<path fill="#8FA3AD" stroke="#C2D3D1" stroke-miterlimit="10" d="M313.8,813.3"/>
		<path fill="#8FA3AD" stroke="#C2D3D1" stroke-miterlimit="10" d="M463.5,813.3"/>
		<polyline opacity="0.5" fill="#8FA3AD" points="245.3,376.8 245.3,294.5 320.1,251.9 		"/>
		<polyline opacity="0.5" fill="#8FA3AD" points="469.8,256.5 469.8,338.6 398,376.8 		"/>
		<polyline opacity="0.5" fill="#8FA3AD" points="694.4,375.5 694.4,299.4 769.3,256.7 		"/>
		<path fill="#8FA3AD" stroke="#C2D3D1" stroke-miterlimit="10" d="M544.7,299.4"/>
		<path fill="#8FA3AD" stroke="#C2D3D1" stroke-miterlimit="10" d="M170.4,253.9"/>
		<path fill="#8FA3AD" stroke="#C2D3D1" stroke-miterlimit="10" d="M544.7,43.1"/>
		<path fill="#8FA3AD" stroke="#C2D3D1" stroke-miterlimit="10" d="M694.4,128.4"/>
		<polygon fill="#8FA3AD" points="844.3,299.4 844.3,376.5 769.3,256.7 694.5,128.4 769.4,171 		"/>
		<line fill="#8FA3AD" stroke="#C2D3D1" stroke-miterlimit="10" x1="469.8" y1="256.3" x2="469.8" y2="171"/>
		<path fill="#8FA3AD" stroke="#C2D3D1" stroke-miterlimit="10" d="M544.7,43.1"/>
		<path fill="#8FA3AD" stroke="#C2D3D1" stroke-miterlimit="10" d="M694.4,128.4"/>
		<line fill="#8FA3AD" stroke="#C2D3D1" stroke-miterlimit="10" x1="170.4" y1="251.9" x2="209.2" y2="182.4"/>
		<line fill="#8FA3AD" stroke="#C2D3D1" stroke-miterlimit="10" x1="275.1" y1="176.4" x2="294.8" y2="98.6"/>
		<line fill="#8FA3AD" stroke="#C2D3D1" stroke-miterlimit="10" x1="294.8" y1="98.6" x2="395" y2="43.1"/>
		<path fill="#8FA3AD" stroke="#C2D3D1" stroke-miterlimit="10" d="M883.3,279"/>
		<line fill="#8FA3AD" stroke="#C2D3D1" stroke-miterlimit="10" x1="48.7" y1="376.8" x2="95.6" y2="294.5"/>
		<path fill="#8FA3AD" stroke="#C2D3D1" stroke-miterlimit="10" d="M0,358.5"/>
		<line fill="#8FA3AD" stroke="#C2D3D1" stroke-miterlimit="10" x1="209.2" y1="182.4" x2="275.1" y2="176.4"/>
		<line fill="#8FA3AD" stroke="#C2D3D1" stroke-miterlimit="10" x1="544.7" y1="43.1" x2="694.4" y2="128.4"/>
		<path fill="#8FA3AD" stroke="#C2D3D1" stroke-miterlimit="10" d="M469.8,171"/>
		<line opacity="0.5" fill="#8FA3AD" stroke="#C2D3D1" stroke-miterlimit="10" x1="544.7" y1="298.9" x2="544.7" y2="376.8"/>
		<line fill="#8FA3AD" stroke="#C2D3D1" stroke-miterlimit="10" x1="906.3" y1="413.3" x2="844.1" y2="376.5"/>
		<line fill="#8FA3AD" stroke="#C2D3D1" stroke-miterlimit="10" x1="48.7" y1="376.8" x2="844.1" y2="376.8"/>
		<line fill="#8FA3AD" stroke="#C2D3D1" stroke-miterlimit="10" x1="395" y1="43.1" x2="469.8" y2="0.4"/>
		<line fill="#8FA3AD" stroke="#C2D3D1" stroke-miterlimit="10" x1="469.8" y1="0.4" x2="544.7" y2="43.1"/>
		<line fill="#8FA3AD" stroke="#C2D3D1" stroke-miterlimit="10" x1="170.4" y1="251.9" x2="95.6" y2="294.5"/>
		<line opacity="0.5" fill="#8FA3AD" stroke="#C2D3D1" stroke-miterlimit="10" x1="320.1" y1="251.9" x2="395" y2="128.4"/>
		<line opacity="0.5" fill="#8FA3AD" stroke="#C2D3D1" stroke-miterlimit="10" x1="694.4" y1="299.4" x2="619.6" y2="171"/>
		<path fill="#8FA3AD" stroke="#C2D3D1" stroke-miterlimit="10" d="M395,422.5"/>
		<path fill="#8FA3AD" stroke="#C2D3D1" stroke-miterlimit="10" d="M395,379.8"/>
		<polyline fill="#8FA3AD" points="469.8,171 395,128.4 395,43.1 		"/>
		<line fill="#8FA3AD" stroke="#C2D3D1" stroke-miterlimit="10" x1="469.8" y1="256.3" x2="544.7" y2="298.9"/>
	</g>
</g>
<g>
</g>
<g>
</g>
<g>
</g>
<g>
</g>
<g>
</g>
<g>
</g>
<g>
</g>
<g>
</g>
<g>
</g>
<g>
</g>
<g>
</g>
<g>
</g>
<g>
</g>
<g>
</g>
<g>
</g>
</svg>
