<?xml version="1.0" encoding="utf-8"?>
<!-- Generator: Adobe Illustrator 18.0.0, SVG Export Plug-In . SVG Version: 6.00 Build 0)  -->
<!DOCTYPE svg PUBLIC "-//W3C//DTD SVG 1.1//EN" "http://www.w3.org/Graphics/SVG/1.1/DTD/svg11.dtd">
<svg version="1.1" id="Layer_1" xmlns="http://www.w3.org/2000/svg" xmlns:xlink="http://www.w3.org/1999/xlink" x="0px" y="0px"
	 viewBox="0 0 1859.6 1538.9" enable-background="new 0 0 1859.6 1538.9" xml:space="preserve">
<rect x="74.1" y="1006.9" opacity="5.000000e-02" fill="#959595" width="1705.8" height="532.1"/>
<rect x="74.1" y="127.3" opacity="5.000000e-02" fill="#959595" width="1706.8" height="132.2"/>
<g>
	<path fill="#959595" d="M1201.2,182.5h10.8c4.4,0,7.3,1.4,7.3,5.7c0,2.2-1.1,3.8-3.1,4.8c2.8,0.8,4.2,2.9,4.2,5.8
		c0,4.6-3.9,6.6-8.1,6.6h-11.1V182.5z M1206.2,191.8h5.1c1.8,0,3.1-0.8,3.1-2.7c0-2.2-1.7-2.6-3.5-2.6h-4.7V191.8z M1206.2,201.5
		h5.4c2,0,3.7-0.6,3.7-3c0-2.3-1.5-3.3-3.6-3.3h-5.5V201.5z"/>
	<path fill="#959595" d="M1223.7,182.5h5v22.8h-5V182.5z"/>
	<path fill="#959595" d="M1238.2,186.8h-6.8v-4.2h18.7v4.2h-6.8v18.6h-5V186.8z"/>
	<path fill="#959595" d="M1268,190.2c-0.3-2.3-2.5-4-5-4c-4.5,0-6.2,3.8-6.2,7.8c0,3.8,1.7,7.6,6.2,7.6c3.1,0,4.8-2.1,5.2-5.1h4.9
		c-0.5,5.7-4.4,9.3-10,9.3c-7.1,0-11.2-5.3-11.2-11.9c0-6.8,4.2-12.1,11.2-12.1c5,0,9.2,2.9,9.9,8.2H1268z"/>
	<path fill="#959595" d="M1286.7,182c7.1,0,11.2,5.3,11.2,12.1c0,6.6-4.2,11.9-11.2,11.9c-7.1,0-11.2-5.3-11.2-11.9
		C1275.4,187.3,1279.6,182,1286.7,182z M1286.7,201.7c4.5,0,6.2-3.8,6.2-7.6c0-4-1.7-7.8-6.2-7.8s-6.2,3.8-6.2,7.8
		C1280.5,197.9,1282.2,201.7,1286.7,201.7z"/>
	<path fill="#959595" d="M1301.3,182.5h5v22.8h-5V182.5z"/>
	<path fill="#959595" d="M1310.8,182.5h5l9.5,15.3h0.1v-15.3h4.7v22.8h-5l-9.5-15.3h-0.1v15.3h-4.7V182.5z"/>
	<path fill="#959595" d="M1358.6,190.2c-0.3-2.3-2.5-4-5-4c-4.5,0-6.2,3.8-6.2,7.8c0,3.8,1.7,7.6,6.2,7.6c3.1,0,4.8-2.1,5.2-5.1h4.9
		c-0.5,5.7-4.4,9.3-10,9.3c-7.1,0-11.2-5.3-11.2-11.9c0-6.8,4.2-12.1,11.2-12.1c5,0,9.2,2.9,9.9,8.2H1358.6z"/>
	<path fill="#959595" d="M1377.3,182c7.1,0,11.2,5.3,11.2,12.1c0,6.6-4.2,11.9-11.2,11.9c-7.1,0-11.2-5.3-11.2-11.9
		C1366.1,187.3,1370.3,182,1377.3,182z M1377.3,201.7c4.5,0,6.2-3.8,6.2-7.6c0-4-1.7-7.8-6.2-7.8s-6.2,3.8-6.2,7.8
		C1371.1,197.9,1372.8,201.7,1377.3,201.7z"/>
	<path fill="#959595" d="M1392,182.5h7.1l5.3,15.7h0.1l5.1-15.7h7.1v22.8h-4.7v-16.2h-0.1l-5.6,16.2h-3.9l-5.6-16h-0.1v16h-4.7
		V182.5z"/>
	<path fill="#959595" d="M1421,182.5h10.3c5.7,0,7.9,3.6,7.9,7.3c0,3.7-2.2,7.3-7.9,7.3h-5.3v8.2h-5V182.5z M1426,193.3h3.9
		c2.3,0,4.4-0.5,4.4-3.4c0-2.9-2.1-3.4-4.4-3.4h-3.9V193.3z"/>
	<path fill="#959595" d="M1437.9,200.5h5v4.9h-5V200.5z"/>
	<path fill="#959595" d="M1456,182.5h12.3c4.1,0,6.7,2.8,6.7,6.3c0,2.7-1.1,4.7-3.6,5.7v0.1c2.5,0.6,3.2,3,3.3,5.3
		c0.1,1.4,0.1,4.1,1,5.4h-5c-0.6-1.4-0.5-3.6-0.8-5.5c-0.4-2.4-1.3-3.5-3.8-3.5h-5v8.9h-5V182.5z M1461,192.9h5.5
		c2.2,0,3.5-1,3.5-3.3c0-2.2-1.2-3.2-3.5-3.2h-5.5V192.9z"/>
	<path fill="#959595" d="M1479.1,182.5h5v22.8h-5V182.5z"/>
	<path fill="#959595" d="M1492,197.8c0,3,2.4,4.2,5.1,4.2c1.8,0,4.4-0.5,4.4-2.8c0-2.5-3.4-2.9-6.8-3.8c-3.4-0.9-6.8-2.2-6.8-6.5
		c0-4.7,4.4-6.9,8.5-6.9c4.8,0,9.2,2.1,9.2,7.4h-4.9c-0.2-2.8-2.1-3.5-4.5-3.5c-1.6,0-3.5,0.7-3.5,2.6c0,1.8,1.1,2,6.8,3.5
		c1.7,0.4,6.8,1.5,6.8,6.7c0,4.2-3.3,7.3-9.5,7.3c-5.1,0-9.8-2.5-9.7-8.1H1492z"/>
	<path fill="#959595" d="M1509.3,182.5h5v9.5l8.9-9.5h6.3l-8.9,9l9.8,13.8h-6.3l-6.9-10.3l-2.9,2.9v7.4h-5V182.5z"/>
	<path fill="#959595" d="M1541.3,182.5h5v22.8h-5V182.5z"/>
	<path fill="#959595" d="M1550.8,182.5h5l9.5,15.3h0.1v-15.3h4.7v22.8h-5l-9.5-15.3h-0.1v15.3h-4.7V182.5z"/>
	<path fill="#959595" d="M1574.5,182.5h9.9c5.9,0,10.4,3.7,10.4,11.3c0,6.6-3.4,11.6-10.4,11.6h-9.9V182.5z M1579.5,201.2h4.5
		c2.9,0,5.7-1.8,5.7-6.8c0-4.6-1.6-7.6-6.6-7.6h-3.6V201.2z"/>
	<path fill="#959595" d="M1598.2,182.5h17.1v4.2h-12.1v4.9h11.1v3.9h-11.1v5.6h12.3v4.2h-17.3V182.5z"/>
	<path fill="#959595" d="M1624.5,193.4l-7.4-10.9h5.8l4.5,7.3l4.6-7.3h5.5l-7.3,10.9l8,11.9h-6l-5-7.9l-5.1,7.9h-5.7L1624.5,193.4z"
		/>
	<path fill="#959595" d="M1656.7,182c-2.4,4.5-3.5,9.5-3.5,14.5c0,5.1,1.1,10.1,3.5,14.7h-3.8c-2.6-4.4-4.2-9.4-4.2-14.4
		c0-4.8,1.4-10.8,4.2-14.8H1656.7z"/>
	<path fill="#959595" d="M1658.6,182.5h10.8c4.4,0,7.3,1.4,7.3,5.7c0,2.2-1.1,3.8-3.1,4.8c2.8,0.8,4.2,2.9,4.2,5.8
		c0,4.6-3.9,6.6-8.1,6.6h-11.1V182.5z M1663.7,191.8h5.1c1.8,0,3.1-0.8,3.1-2.7c0-2.2-1.7-2.6-3.5-2.6h-4.7V191.8z M1663.7,201.5
		h5.4c2,0,3.7-0.6,3.7-3c0-2.3-1.5-3.3-3.6-3.3h-5.5V201.5z"/>
	<path fill="#959595" d="M1696.4,190.2c-0.3-2.3-2.5-4-5-4c-4.5,0-6.2,3.8-6.2,7.8c0,3.8,1.7,7.6,6.2,7.6c3.1,0,4.8-2.1,5.2-5.1h4.9
		c-0.5,5.7-4.4,9.3-10,9.3c-7.1,0-11.2-5.3-11.2-11.9c0-6.8,4.2-12.1,11.2-12.1c5,0,9.2,2.9,9.9,8.2H1696.4z"/>
	<path fill="#959595" d="M1704.9,182.5h12.3c4.1,0,6.7,2.8,6.7,6.3c0,2.7-1.1,4.7-3.6,5.7v0.1c2.5,0.6,3.2,3,3.3,5.3
		c0.1,1.4,0.1,4.1,1,5.4h-5c-0.6-1.4-0.5-3.6-0.8-5.5c-0.4-2.4-1.3-3.5-3.8-3.5h-5v8.9h-5V182.5z M1709.9,192.9h5.5
		c2.2,0,3.5-1,3.5-3.3c0-2.2-1.2-3.2-3.5-3.2h-5.5V192.9z"/>
	<path fill="#959595" d="M1728,182.5h5v22.8h-5V182.5z"/>
	<path fill="#959595" d="M1735,211.2c2.4-4.5,3.5-9.5,3.5-14.5c0-5.1-1.1-10.1-3.5-14.8h3.8c2.6,4.4,4.2,9.4,4.2,14.4
		c0,4.8-1.4,10.8-4.2,14.8H1735z"/>
</g>
<g>
	<path fill="#141B1E" stroke="#000000" stroke-miterlimit="10" d="M83.5,37.3c0,5.9,4.6,8.2,9.8,8.2c3.4,0,8.6-1,8.6-5.5
		c0-4.8-6.6-5.6-13.1-7.3c-6.6-1.7-13.2-4.3-13.2-12.6c0-9.1,8.6-13.4,16.6-13.4c9.2,0,17.7,4,17.7,14.3h-9.4
		c-0.3-5.3-4.1-6.7-8.7-6.7c-3.1,0-6.7,1.3-6.7,5c0,3.4,2.1,3.8,13.2,6.7c3.2,0.8,13.1,2.9,13.1,12.9c0,8.1-6.4,14.2-18.4,14.2
		c-9.8,0-19-4.8-18.8-15.7H83.5z"/>
	<path fill="#141B1E" stroke="#000000" stroke-miterlimit="10" d="M127.3,19.9h6.4v5.9h-6.4v15.9c0,3,0.7,3.7,3.7,3.7
		c0.9,0,1.8-0.1,2.7-0.2V52c-1.5,0.2-3.4,0.3-5.1,0.3c-5.4,0-10.1-1.2-10.1-7.6V25.8h-5.3v-5.9h5.3v-9.6h8.8V19.9z"/>
	<path fill="#141B1E" stroke="#000000" stroke-miterlimit="10" d="M138,19.9h8.4v6h0.1c1.6-4,6-6.8,10.2-6.8c0.6,0,1.4,0.1,1.9,0.3
		v8.2c-0.8-0.2-2.1-0.3-3.2-0.3c-6.4,0-8.7,4.6-8.7,10.3V52H138V19.9z"/>
	<path fill="#141B1E" stroke="#000000" stroke-miterlimit="10" d="M168.2,38.1c0.2,5.6,3,8.1,7.9,8.1c3.5,0,6.4-2.2,6.9-4.2h7.7
		c-2.5,7.6-7.7,10.8-15,10.8c-10.1,0-16.4-6.9-16.4-16.9c0-9.6,6.6-16.9,16.4-16.9c10.9,0,16.2,9.2,15.6,19H168.2z M182.5,32.5
		c-0.8-4.5-2.7-6.8-7-6.8c-5.6,0-7.2,4.3-7.3,6.8H182.5z"/>
	<path fill="#141B1E" stroke="#000000" stroke-miterlimit="10" d="M196.2,29.8c0.5-8.2,7.9-10.7,15.1-10.7c6.4,0,14.1,1.4,14.1,9.1
		v16.7c0,2.9,0.3,5.8,1.1,7.1h-8.9c-0.3-1-0.6-2-0.6-3.1c-2.8,2.9-6.9,4-10.8,4c-6.1,0-10.9-3-10.9-9.6c0-7.3,5.5-9,10.9-9.7
		c5.4-0.8,10.4-0.6,10.4-4.2c0-3.8-2.6-4.3-5.7-4.3c-3.3,0-5.5,1.4-5.8,4.8H196.2z M216.5,36.3c-1.5,1.3-4.6,1.4-7.3,1.9
		c-2.7,0.6-5.2,1.5-5.2,4.7c0,3.3,2.5,4.1,5.4,4.1c6.9,0,7.1-5.5,7.1-7.4V36.3z"/>
	<path fill="#141B1E" stroke="#000000" stroke-miterlimit="10" d="M232.4,19.9h8.3v4.3h0.1c2.3-3.3,5.6-5.2,9.8-5.2
		c4,0,7.6,1.5,9.4,5.3c1.9-2.8,5.2-5.3,9.7-5.3c6.8,0,11.7,3.2,11.7,11.5V52h-8.8V33.8c0-4.3-0.4-7.8-5.4-7.8c-5,0-5.9,4.1-5.9,8.1
		V52h-8.8V34c0-3.7,0.2-8-5.3-8c-1.7,0-6,1.1-6,7.4V52h-8.8V19.9z"/>
	<path fill="#141B1E" stroke="#000000" stroke-miterlimit="10" d="M297.4,14.9h-8.8V7.7h8.8V14.9z M288.5,19.9h8.8V52h-8.8V19.9z"/>
	<path fill="#141B1E" stroke="#000000" stroke-miterlimit="10" d="M304.3,19.9h8.4v4.5h0.2c2.2-3.6,6.1-5.3,9.8-5.3
		c9.4,0,11.7,5.3,11.7,13.2V52h-8.8V33.9c0-5.3-1.5-7.9-5.6-7.9c-4.8,0-6.8,2.7-6.8,9.2V52h-8.8V19.9z"/>
	<path fill="#141B1E" stroke="#000000" stroke-miterlimit="10" d="M371.9,49.9c0,5.3-1.9,14.2-16.6,14.2c-6.3,0-13.7-3-14.1-10.3
		h8.7c0.8,3.3,3.5,4.4,6.6,4.4c4.9,0,7.1-3.3,7.1-7.9v-4.2h-0.1c-1.9,3.3-5.8,5-9.6,5c-9.6,0-13.7-7.3-13.7-16.1
		c0-8.3,4.8-15.9,13.8-15.9c4.2,0,7.4,1.4,9.5,5.1h0.1v-4.3h8.4V49.9z M363.5,35.5c0-5.2-1.8-9.9-7.5-9.9c-5,0-7.1,4.3-7.1,9.1
		c0,4.6,1.7,9.6,7.1,9.6C361,44.4,363.5,40.1,363.5,35.5z"/>
	<path fill="#141B1E" stroke="#000000" stroke-miterlimit="10" d="M429.7,21.1c-1.5-6.8-7.1-10.7-13.6-10.7
		c-11.7,0-16.7,9.8-16.7,19.5c0,9.7,5,19.5,16.7,19.5c8.2,0,13.4-6.3,14.2-14.2h4.2c-1.2,10.8-8.1,17.8-18.4,17.8
		c-13.9,0-20.9-11-20.9-23.1c0-12.1,6.9-23.1,20.9-23.1c8.4,0,16.7,5,17.8,14.3H429.7z"/>
	<path fill="#141B1E" stroke="#000000" stroke-miterlimit="10" d="M440.1,7.7h3.9v17.8h0.1c1.4-3.8,5.7-6.4,10.2-6.4
		c9,0,11.7,4.7,11.7,12.3V52h-3.9V32c0-5.5-1.8-9.7-8.1-9.7c-6.2,0-9.9,4.7-10,11V52h-3.9V7.7z"/>
	<path fill="#141B1E" stroke="#000000" stroke-miterlimit="10" d="M473.1,29.8c0.4-7.5,5.6-10.7,13-10.7c5.6,0,11.8,1.7,11.8,10.3
		v17c0,1.5,0.7,2.4,2.3,2.4c0.4,0,0.9-0.1,1.2-0.2v3.3c-0.9,0.2-1.5,0.2-2.5,0.2c-4,0-4.6-2.2-4.6-5.6h-0.1
		c-2.7,4.2-5.5,6.5-11.7,6.5c-5.9,0-10.7-2.9-10.7-9.4c0-9,8.7-9.3,17.2-10.3c3.2-0.4,5-0.8,5-4.3c0-5.3-3.8-6.6-8.4-6.6
		c-4.8,0-8.4,2.2-8.6,7.4H473.1z M494,34.5h-0.1c-0.5,0.9-2.2,1.2-3.3,1.4c-6.6,1.2-14.9,1.1-14.9,7.4c0,3.9,3.5,6.3,7.1,6.3
		c6,0,11.2-3.8,11.2-10V34.5z"/>
	<path fill="#141B1E" stroke="#000000" stroke-miterlimit="10" d="M505.7,20h3.6v7.5h0.1c2-5.1,6.3-8.2,12.1-7.9v3.9
		c-7.1-0.4-11.9,4.8-11.9,11.5v17h-3.9V20z"/>
	<path fill="#141B1E" stroke="#000000" stroke-miterlimit="10" d="M531.4,20h6.5v3.3h-6.5v21.6c0,2.5,0.4,4,3.2,4.2
		c1.1,0,2.2-0.1,3.3-0.2v3.3c-1.2,0-2.3,0.1-3.5,0.1c-5.2,0-7-1.7-6.9-7.2V23.3h-5.6V20h5.6v-9.6h3.9V20z"/>
	<path fill="#141B1E" stroke="#000000" stroke-miterlimit="10" d="M562.7,29.3c-0.2-4.8-3.9-7-8.4-7c-3.5,0-7.6,1.4-7.6,5.5
		c0,3.5,4,4.7,6.6,5.4l5.2,1.2c4.5,0.7,9.1,3.3,9.1,8.9c0,6.9-6.9,9.6-12.8,9.6c-7.4,0-12.5-3.5-13.1-11.3h3.9c0.3,5.3,4.2,8,9.4,8
		c3.7,0,8.7-1.6,8.7-6.1c0-3.7-3.5-5-7-5.8l-5-1.1c-5.1-1.4-8.9-3.1-8.9-8.6c0-6.5,6.4-9,12-9c6.4,0,11.5,3.3,11.7,10.3H562.7z"/>
</g>
<g>
	<g>
		<path fill="#37474F" d="M3.1,754.9c3.5-0.1,5.7-0.2,6.3-4.3H11V773H9v-16.6H3.1V754.9z"/>
		<path fill="#37474F" d="M21,766.6c0.1,3.1,2.4,5.2,5.5,5.2c3.5,0,5.6-2.8,5.6-6.1c0-3.3-2.4-5.8-5.7-5.8c-2,0-3.9,1-5,2.7h-1.7
			l2.2-11.6H33v1.9h-9.8l-1.4,7.4l0.1,0.1c1.1-1.3,3-2.1,4.7-2.1c4.6,0,7.5,3.2,7.5,7.7c0,4.4-3.5,7.6-7.8,7.6
			c-4.2,0-7.3-2.6-7.4-6.9H21z"/>
		<path fill="#37474F" d="M52.3,761.9c0,5.2-1.3,11.6-7.8,11.6c-6.5,0-7.8-6.3-7.8-11.5c0-5.2,1.3-11.6,7.8-11.6
			C51,750.4,52.3,756.7,52.3,761.9z M38.7,761.9c0,3.9,0.7,9.9,5.8,9.9s5.8-6,5.8-9.9c0-3.9-0.7-9.8-5.8-9.8S38.7,758,38.7,761.9z"
			/>
	</g>
</g>
<g>
	<g>
		<path fill="#37474F" d="M3.1,996.9c3.5-0.1,5.7-0.2,6.3-4.3H11v22.4H9v-16.6H3.1V996.9z"/>
		<path fill="#37474F" d="M34.5,1003.9c0,5.2-1.3,11.6-7.8,11.6c-6.5,0-7.8-6.3-7.8-11.5c0-5.2,1.3-11.6,7.8-11.6
			C33.2,992.4,34.5,998.7,34.5,1003.9z M20.9,1003.9c0,3.9,0.7,9.9,5.8,9.9s5.8-6,5.8-9.9c0-3.9-0.7-9.8-5.8-9.8
			S20.9,1000,20.9,1003.9z"/>
		<path fill="#37474F" d="M52.3,1003.9c0,5.2-1.3,11.6-7.8,11.6c-6.5,0-7.8-6.3-7.8-11.5c0-5.2,1.3-11.6,7.8-11.6
			C51,992.4,52.3,998.7,52.3,1003.9z M38.7,1003.9c0,3.9,0.7,9.9,5.8,9.9s5.8-6,5.8-9.9c0-3.9-0.7-9.8-5.8-9.8
			S38.7,1000,38.7,1003.9z"/>
	</g>
</g>
<g>
	<g>
		<path fill="#959595" d="M104.4,1041.6h2.2v16.5c0,4.6-1.7,6.8-6.7,6.8c-5.2,0-6.4-3.8-6.4-7.8h2.2c0.1,2-0.1,6,4.4,6
			c3.4,0,4.3-1.7,4.3-5.9V1041.6z"/>
		<path fill="#959595" d="M110.6,1053c0.2-3.9,2.9-5.5,6.7-5.5c2.9,0,6.1,0.9,6.1,5.3v8.8c0,0.8,0.4,1.2,1.2,1.2
			c0.2,0,0.5-0.1,0.6-0.1v1.7c-0.4,0.1-0.8,0.1-1.3,0.1c-2,0-2.4-1.2-2.4-2.9h-0.1c-1.4,2.1-2.8,3.4-6,3.4c-3,0-5.5-1.5-5.5-4.8
			c0-4.6,4.5-4.8,8.9-5.3c1.7-0.2,2.6-0.4,2.6-2.2c0-2.7-2-3.4-4.3-3.4c-2.5,0-4.4,1.2-4.4,3.8H110.6z M121.4,1055.4L121.4,1055.4
			c-0.3,0.5-1.2,0.6-1.8,0.7c-3.4,0.6-7.7,0.6-7.7,3.8c0,2,1.8,3.3,3.7,3.3c3.1,0,5.8-2,5.8-5.2V1055.4z"/>
		<path fill="#959595" d="M127.4,1047.9h2v2.8h0.1c0.7-2,2.9-3.3,5.3-3.3c4.6,0,6,2.4,6,6.4v10.6h-2v-10.3c0-2.8-0.9-5-4.2-5
			c-3.2,0-5.1,2.4-5.2,5.7v9.6h-2V1047.9z"/>
	</g>
</g>
<g>
	<g>
		<path fill="#37474F" d="M1809.3,813.6c3.5-0.1,5.7-0.2,6.3-4.3h1.6v22.4h-2v-16.6h-5.9V813.6z"/>
		<path fill="#37474F" d="M1827,824.6c-0.1,3.6,2,5.9,5.6,5.9c2.9,0,5.7-1.8,5.7-5c0-3.2-2.4-4.7-5.4-4.7h-1.7v-1.7h1.7
			c2.1,0,4.5-1.2,4.5-4.1c0-2.9-2.2-4.2-4.9-4.2c-3.4,0-5.2,2.3-5.1,5.7h-2c0-4.2,2.7-7.4,7.1-7.4c3.5,0,6.9,1.7,6.9,5.7
			c0,2.4-1.4,4.4-3.8,5v0.1c2.9,0.5,4.6,2.6,4.6,5.5c0,4.4-3.6,6.8-7.7,6.8c-4.6,0-8-2.8-7.6-7.6H1827z"/>
		<path fill="#37474F" d="M1844.8,824.6c-0.1,3.6,2,5.9,5.6,5.9c2.9,0,5.7-1.8,5.7-5c0-3.2-2.4-4.7-5.4-4.7h-1.7v-1.7h1.7
			c2.1,0,4.5-1.2,4.5-4.1c0-2.9-2.2-4.2-4.9-4.2c-3.4,0-5.2,2.3-5.1,5.7h-2c0-4.2,2.7-7.4,7.1-7.4c3.5,0,6.9,1.7,6.9,5.7
			c0,2.4-1.4,4.4-3.8,5v0.1c2.9,0.5,4.6,2.6,4.6,5.5c0,4.4-3.6,6.8-7.7,6.8c-4.6,0-8-2.8-7.6-7.6H1844.8z"/>
	</g>
</g>
<g>
	<g>
		<path fill="#37474F" d="M1822.1,502h-14.8c0.2-6.7,7-8.3,10.8-12.1c1.2-1.2,1.9-2.4,1.9-4.2c0-2.9-2.3-4.6-5-4.6
			c-3.7,0-5.1,2.9-5.1,6.2h-2c-0.1-4.6,2.3-7.9,7.2-7.9c3.9,0,6.9,2.1,6.9,6.3c0,3.7-2.7,6.1-5.6,8c-2.2,1.5-6.2,3.5-6.7,6.5h12.4
			V502z"/>
		<path fill="#37474F" d="M1840.7,490.9c0,5.2-1.3,11.6-7.8,11.6s-7.8-6.3-7.8-11.5c0-5.2,1.3-11.6,7.8-11.6
			S1840.7,485.7,1840.7,490.9z M1827.1,490.9c0,3.9,0.7,9.9,5.8,9.9s5.8-6,5.8-9.9c0-3.9-0.7-9.8-5.8-9.8S1827.1,487,1827.1,490.9z"
			/>
		<path fill="#37474F" d="M1844.9,495.6c0.1,3.1,2.4,5.2,5.5,5.2c3.5,0,5.6-2.8,5.6-6.1c0-3.3-2.4-5.8-5.7-5.8c-2,0-3.9,1-5,2.7
			h-1.7l2.2-11.6h11.2v1.9h-9.8l-1.4,7.4l0.1,0.1c1.1-1.3,3-2.1,4.7-2.1c4.6,0,7.5,3.2,7.5,7.7c0,4.4-3.5,7.6-7.8,7.6
			c-4.2,0-7.3-2.6-7.4-6.9H1844.9z"/>
	</g>
</g>
<g>
	<g>
		<path fill="#37474F" d="M15.9,521H1.2c0.2-6.7,7-8.3,10.8-12.1c1.2-1.2,1.9-2.4,1.9-4.2c0-2.9-2.3-4.6-5-4.6
			c-3.7,0-5.1,2.9-5.1,6.2h-2c-0.1-4.6,2.3-7.9,7.2-7.9c3.9,0,6.9,2.1,6.9,6.3c0,3.7-2.7,6.1-5.6,8c-2.2,1.5-6.2,3.5-6.7,6.5h12.4
			V521z"/>
		<path fill="#37474F" d="M34.5,509.9c0,5.2-1.3,11.6-7.8,11.6c-6.5,0-7.8-6.3-7.8-11.5c0-5.2,1.3-11.6,7.8-11.6
			C33.2,498.4,34.5,504.7,34.5,509.9z M20.9,509.9c0,3.9,0.7,9.9,5.8,9.9s5.8-6,5.8-9.9c0-3.9-0.7-9.8-5.8-9.8S20.9,506,20.9,509.9z
			"/>
		<path fill="#37474F" d="M52.3,509.9c0,5.2-1.3,11.6-7.8,11.6c-6.5,0-7.8-6.3-7.8-11.5c0-5.2,1.3-11.6,7.8-11.6
			C51,498.4,52.3,504.7,52.3,509.9z M38.7,509.9c0,3.9,0.7,9.9,5.8,9.9s5.8-6,5.8-9.9c0-3.9-0.7-9.8-5.8-9.8S38.7,506,38.7,509.9z"
			/>
	</g>
</g>
<g>
	<g>
		<path fill="#37474F" d="M15.9,273H1.2c0.2-6.7,7-8.3,10.8-12.1c1.2-1.2,1.9-2.4,1.9-4.2c0-2.9-2.3-4.6-5-4.6
			c-3.7,0-5.1,2.9-5.1,6.2h-2c-0.1-4.6,2.3-7.9,7.2-7.9c3.9,0,6.9,2.1,6.9,6.3c0,3.7-2.7,6.1-5.6,8c-2.2,1.5-6.2,3.5-6.7,6.5h12.4
			V273z"/>
		<path fill="#37474F" d="M21,266.6c0.1,3.1,2.4,5.2,5.5,5.2c3.5,0,5.6-2.8,5.6-6.1c0-3.3-2.4-5.8-5.7-5.8c-2,0-3.9,1-5,2.7h-1.7
			l2.2-11.6H33v1.9h-9.8l-1.4,7.4l0.1,0.1c1.1-1.3,3-2.1,4.7-2.1c4.6,0,7.5,3.2,7.5,7.7c0,4.4-3.5,7.6-7.8,7.6
			c-4.2,0-7.3-2.6-7.4-6.9H21z"/>
		<path fill="#37474F" d="M52.3,261.9c0,5.2-1.3,11.6-7.8,11.6c-6.5,0-7.8-6.3-7.8-11.5c0-5.2,1.3-11.6,7.8-11.6
			C51,250.4,52.3,256.7,52.3,261.9z M38.7,261.9c0,3.9,0.7,9.9,5.8,9.9s5.8-6,5.8-9.9c0-3.9-0.7-9.8-5.8-9.8S38.7,258,38.7,261.9z"
			/>
	</g>
</g>
<g>
	<rect x="61.7" y="1042.9" fill="none" width="2023" height="69"/>
	<path fill="#959595" d="M404.9,1047.6c3.5-0.1,5.7-0.2,6.3-4.3h1.6v22.4h-2v-16.6h-5.9V1047.6z"/>
	<path fill="#959595" d="M431.6,1053.7L431.6,1053.7c2.9,0.6,4.6,2.8,4.6,5.8c0,4.5-3.5,6.8-7.7,6.8c-4.2,0-7.7-2.2-7.7-6.8
		c0.1-2.9,1.8-5.2,4.5-5.7v-0.1c-2.3-0.7-3.6-2.5-3.6-4.9c0-3.8,3.5-5.6,6.8-5.6c3.3,0,6.8,1.8,6.8,5.6
		C435.3,1051.2,433.9,1053,431.6,1053.7z M434.2,1059.4c0-3.2-2.7-4.9-5.7-4.9c-3.1-0.1-5.7,1.6-5.7,4.9c0,3.4,2.6,5.1,5.7,5.1
		S434.2,1062.9,434.2,1059.4z M433.3,1048.7c0-2.6-2.1-3.9-4.8-3.9c-2.5,0-4.8,1.3-4.8,3.9c0,3,2.4,4.2,4.8,4.2
		C431,1053,433.3,1051.6,433.3,1048.7z"/>
	<path fill="#959595" d="M745.1,1047.6c3.5-0.1,5.7-0.2,6.3-4.3h1.6v22.4h-2v-16.6h-5.9V1047.6z"/>
	<path fill="#959595" d="M763.4,1060.3c0.4,2.5,2.1,4.2,4.7,4.2c5.2,0,6.2-6,6.2-10h-0.1c-1.1,2.2-3.4,3.7-6,3.7
		c-4.5,0-7.4-3.1-7.4-7.5c0-4.4,3.2-7.6,7.6-7.6c5.4,0,7.8,3.2,7.8,11.9c0,2.7-0.7,11.2-8,11.2c-3.9,0-6.4-2-6.9-5.9H763.4z
		 M773.8,1050.6c0-3.2-1.7-5.8-5.6-5.8c-3.2,0-5.4,2.7-5.4,5.8c0,3.3,2,5.9,5.4,5.9C771.8,1056.5,773.8,1053.9,773.8,1050.6z"/>
	<path fill="#959595" d="M1098,1065.7h-14.8c0.2-6.7,7-8.3,10.8-12.1c1.2-1.2,1.9-2.4,1.9-4.2c0-2.9-2.3-4.6-5-4.6
		c-3.7,0-5.1,2.9-5.1,6.2h-2c-0.1-4.6,2.3-7.9,7.2-7.9c3.9,0,6.9,2.1,6.9,6.3c0,3.7-2.7,6.1-5.6,8c-2.2,1.5-6.2,3.5-6.7,6.5h12.4
		V1065.7z"/>
	<path fill="#959595" d="M1116.6,1054.6c0,5.2-1.3,11.6-7.8,11.6s-7.8-6.3-7.8-11.5c0-5.2,1.3-11.6,7.8-11.6
		S1116.6,1049.4,1116.6,1054.6z M1103,1054.6c0,3.9,0.7,9.9,5.8,9.9c5.1,0,5.8-6,5.8-9.9c0-3.9-0.7-9.8-5.8-9.8
		C1103.7,1044.8,1103,1050.8,1103,1054.6z"/>
	<path fill="#959595" d="M1438.2,1065.7h-14.8c0.2-6.7,7-8.3,10.8-12.1c1.2-1.2,1.9-2.4,1.9-4.2c0-2.9-2.3-4.6-5-4.6
		c-3.7,0-5.1,2.9-5.1,6.2h-2c-0.1-4.6,2.3-7.9,7.2-7.9c3.9,0,6.9,2.1,6.9,6.3c0,3.7-2.7,6.1-5.6,8c-2.2,1.5-6.2,3.5-6.7,6.5h12.4
		V1065.7z"/>
	<path fill="#959595" d="M1443.2,1047.6c3.5-0.1,5.7-0.2,6.3-4.3h1.6v22.4h-2v-16.6h-5.9V1047.6z"/>
</g>
<g>
	<g>
		<path fill="#8FA3AD" d="M1780.7,260v746H73.7V260H1780.7 M1781.7,259h-0.5H74.1h-1.4v0.5v746v1.5h1.4h1707.1h0.5v-1.5v-746V259
			L1781.7,259z"/>
	</g>
	<line opacity="0.55" fill="none" stroke="#8FA3AD" stroke-miterlimit="10" x1="418.2" y1="258" x2="418.2" y2="1026"/>
	<line opacity="0.55" fill="none" stroke="#8FA3AD" stroke-miterlimit="10" x1="757.2" y1="258" x2="757.2" y2="1026"/>
	<line opacity="0.55" fill="none" stroke="#8FA3AD" stroke-miterlimit="10" x1="1099.2" y1="258" x2="1099.2" y2="1026"/>
	<line opacity="0.55" fill="none" stroke="#8FA3AD" stroke-miterlimit="10" x1="1440.2" y1="258" x2="1440.2" y2="1026"/>
	<line opacity="0.5" fill="none" stroke="#8FA3AD" stroke-miterlimit="10" x1="1785.7" y1="1005.5" x2="79.7" y2="1005.5"/>
	<line opacity="0.35" fill="none" stroke="#8FA3AD" stroke-miterlimit="10" x1="1785.7" y1="954.5" x2="79.7" y2="954.5"/>
	<line opacity="0.35" fill="none" stroke="#8FA3AD" stroke-miterlimit="10" x1="1785.7" y1="905.5" x2="79.7" y2="905.5"/>
	<line opacity="0.35" fill="none" stroke="#8FA3AD" stroke-miterlimit="10" x1="1785.7" y1="855.5" x2="79.7" y2="855.5"/>
	<line opacity="0.35" fill="none" stroke="#8FA3AD" stroke-miterlimit="10" x1="1785.7" y1="806.5" x2="79.7" y2="806.5"/>
	<line opacity="0.35" fill="none" stroke="#8FA3AD" stroke-miterlimit="10" x1="1785.7" y1="756.5" x2="79.7" y2="756.5"/>
	<line opacity="0.35" fill="none" stroke="#8FA3AD" stroke-miterlimit="10" x1="1785.7" y1="706.5" x2="79.7" y2="706.5"/>
	<line opacity="0.35" fill="none" stroke="#8FA3AD" stroke-miterlimit="10" x1="1785.7" y1="657.5" x2="79.7" y2="657.5"/>
	<line opacity="0.35" fill="none" stroke="#8FA3AD" stroke-miterlimit="10" x1="1785.7" y1="607.5" x2="79.7" y2="607.5"/>
	<line opacity="0.35" fill="none" stroke="#8FA3AD" stroke-miterlimit="10" x1="1785.7" y1="557.5" x2="79.7" y2="557.5"/>
	<line opacity="0.35" fill="none" stroke="#8FA3AD" stroke-miterlimit="10" x1="1785.7" y1="506.5" x2="79.7" y2="506.5"/>
	<line opacity="0.35" fill="none" stroke="#8FA3AD" stroke-miterlimit="10" x1="1785.7" y1="457.5" x2="79.7" y2="457.5"/>
	<line opacity="0.35" fill="none" stroke="#8FA3AD" stroke-miterlimit="10" x1="1785.7" y1="407.5" x2="79.7" y2="407.5"/>
	<line opacity="0.35" fill="none" stroke="#8FA3AD" stroke-miterlimit="10" x1="1785.7" y1="358.5" x2="79.7" y2="358.5"/>
	<line opacity="0.35" fill="none" stroke="#8FA3AD" stroke-miterlimit="10" x1="1785.7" y1="308.5" x2="79.7" y2="308.5"/>
</g>
<g>
	<path fill="#343F3F" d="M690.8,27.4c-1-4.5-4.8-7.2-9.1-7.2c-7.8,0-11.1,6.5-11.1,13s3.3,13,11.1,13c5.5,0,8.9-4.2,9.5-9.5h2.8
		c-0.8,7.2-5.4,11.9-12.3,11.9c-9.3,0-13.9-7.3-13.9-15.4s4.6-15.4,13.9-15.4c5.6,0,11.1,3.3,11.9,9.5H690.8z"/>
	<path fill="#343F3F" d="M715.1,48h-2.4v-3.8h-0.1c-1.4,2.9-4.2,4.5-7.4,4.5c-5.4,0-7.5-3.1-7.5-8.1V26.6h2.6v13.9
		c0.1,3.8,1.6,5.9,5.7,5.9c4.5,0,6.4-4.2,6.4-8.6V26.6h2.6V48z"/>
	<path fill="#343F3F" d="M732.8,32.9c-0.1-3.2-2.6-4.7-5.6-4.7c-2.3,0-5,0.9-5,3.7c0,2.3,2.6,3.1,4.4,3.6l3.5,0.8
		c3,0.5,6.1,2.2,6.1,5.9c0,4.6-4.6,6.4-8.6,6.4c-5,0-8.3-2.3-8.8-7.5h2.6c0.2,3.5,2.8,5.3,6.3,5.3c2.4,0,5.8-1.1,5.8-4.1
		c0-2.5-2.3-3.3-4.7-3.9l-3.3-0.7c-3.4-0.9-6-2.1-6-5.7c0-4.3,4.3-6,8-6c4.3,0,7.6,2.2,7.8,6.9H732.8z"/>
	<path fill="#343F3F" d="M744,26.6h4.3v2.2H744v14.4c0,1.7,0.2,2.7,2.1,2.8c0.7,0,1.5,0,2.2-0.1v2.2c-0.8,0-1.5,0.1-2.3,0.1
		c-3.5,0-4.7-1.2-4.6-4.8V28.8h-3.7v-2.2h3.7v-6.4h2.6V26.6z"/>
	<path fill="#343F3F" d="M771.2,37.3c0,6.1-3.6,11.3-10.1,11.3c-6.5,0-10.1-5.2-10.1-11.3c0-6.1,3.6-11.3,10.1-11.3
		C767.7,26,771.2,31.2,771.2,37.3z M753.7,37.3c0,4.5,2.5,9.1,7.5,9.1c5,0,7.5-4.5,7.5-9.1s-2.5-9.1-7.5-9.1
		C756.2,28.2,753.7,32.7,753.7,37.3z"/>
	<path fill="#343F3F" d="M775.1,26.6h2.4v3.6h0.1c1.4-2.6,3.6-4.2,7-4.2c2.8,0,5.3,1.4,6.1,4.2c1.3-2.8,4-4.2,6.8-4.2
		c4.7,0,7.1,2.4,7.1,7.5V48H802V33.6c0-3.5-1.3-5.4-5-5.4c-4.5,0-5.8,3.7-5.8,7.7V48h-2.6V33.5c0-2.9-1.2-5.3-4.5-5.3
		c-4.5,0-6.3,3.4-6.4,7.9V48h-2.6V26.6z"/>
	<path fill="#343F3F" d="M809.6,18.4h2.6v4.2h-2.6V18.4z M809.6,26.6h2.6V48h-2.6V26.6z"/>
	<path fill="#343F3F" d="M818.5,45.8h14.7V48h-17.8v-2.1l13.9-17h-13v-2.2h16.3v1.9L818.5,45.8z"/>
	<path fill="#343F3F" d="M837.9,38c0,3.8,2,8.4,7,8.4c3.8,0,5.9-2.2,6.7-5.5h2.6c-1.1,4.8-3.9,7.6-9.3,7.6c-6.8,0-9.6-5.2-9.6-11.3
		c0-5.6,2.9-11.3,9.6-11.3c6.9,0,9.6,6,9.4,12H837.9z M851.7,35.8c-0.1-3.9-2.6-7.6-6.8-7.6c-4.3,0-6.6,3.7-7,7.6H851.7z"/>
	<path fill="#343F3F" d="M869.3,26.6h2.4v4.1h0.1c1.2-2.9,4.2-4.7,7.6-4.7c6.5,0,9.6,5.2,9.6,11.3s-3.1,11.3-9.6,11.3
		c-3.2,0-6.3-1.6-7.4-4.7h-0.1v11.9h-2.6V26.6z M879.4,28.2c-5.7,0-7.5,4.3-7.5,9.1c0,4.4,1.9,9.1,7.5,9.1c5,0,7-4.7,7-9.1
		S884.3,28.2,879.4,28.2z"/>
	<path fill="#343F3F" d="M893.1,18.4h2.6V48h-2.6V18.4z"/>
	<path fill="#343F3F" d="M919.8,37.3c0,6.1-3.6,11.3-10.1,11.3c-6.5,0-10.1-5.2-10.1-11.3c0-6.1,3.6-11.3,10.1-11.3
		C916.2,26,919.8,31.2,919.8,37.3z M902.2,37.3c0,4.5,2.5,9.1,7.5,9.1c5,0,7.5-4.5,7.5-9.1s-2.5-9.1-7.5-9.1
		C904.7,28.2,902.2,32.7,902.2,37.3z"/>
	<path fill="#343F3F" d="M927.8,26.6h4.3v2.2h-4.3v14.4c0,1.7,0.2,2.7,2.1,2.8c0.7,0,1.5,0,2.2-0.1v2.2c-0.8,0-1.5,0.1-2.3,0.1
		c-3.5,0-4.7-1.2-4.6-4.8V28.8h-3.7v-2.2h3.7v-6.4h2.6V26.6z"/>
	<path fill="#343F3F" d="M948.7,32.9c-0.1-3.2-2.6-4.7-5.6-4.7c-2.3,0-5,0.9-5,3.7c0,2.3,2.6,3.1,4.4,3.6l3.5,0.8
		c3,0.5,6.1,2.2,6.1,5.9c0,4.6-4.6,6.4-8.6,6.4c-5,0-8.3-2.3-8.8-7.5h2.6c0.2,3.5,2.8,5.3,6.3,5.3c2.4,0,5.8-1.1,5.8-4.1
		c0-2.5-2.3-3.3-4.7-3.9l-3.3-0.7c-3.4-0.9-6-2.1-6-5.7c0-4.3,4.3-6,8-6c4.3,0,7.6,2.2,7.8,6.9H948.7z"/>
	<path fill="#343F3F" d="M971.4,26.6h4.3v2.2h-4.3v14.4c0,1.7,0.2,2.7,2.1,2.8c0.7,0,1.5,0,2.2-0.1v2.2c-0.8,0-1.5,0.1-2.3,0.1
		c-3.5,0-4.7-1.2-4.6-4.8V28.8h-3.7v-2.2h3.7v-6.4h2.6V26.6z"/>
	<path fill="#343F3F" d="M998.6,37.3c0,6.1-3.6,11.3-10.1,11.3c-6.5,0-10.1-5.2-10.1-11.3c0-6.1,3.6-11.3,10.1-11.3
		C995.1,26,998.6,31.2,998.6,37.3z M981,37.3c0,4.5,2.5,9.1,7.5,9.1c5,0,7.5-4.5,7.5-9.1s-2.5-9.1-7.5-9.1
		C983.5,28.2,981,32.7,981,37.3z"/>
	<path fill="#343F3F" d="M1011.6,26.6h2.8l7,18.2l6.6-18.2h2.6l-9.3,24.6c-1.5,3.6-2.4,4.6-5.6,4.6c-1,0-1.6,0-2-0.2v-2.2
		c0.6,0.1,1.2,0.2,1.8,0.2c2.3,0,2.9-1.4,3.7-3.3l0.9-2.4L1011.6,26.6z"/>
	<path fill="#343F3F" d="M1052.2,37.3c0,6.1-3.6,11.3-10.1,11.3c-6.5,0-10.1-5.2-10.1-11.3c0-6.1,3.6-11.3,10.1-11.3
		C1048.7,26,1052.2,31.2,1052.2,37.3z M1034.7,37.3c0,4.5,2.5,9.1,7.5,9.1c5,0,7.5-4.5,7.5-9.1s-2.5-9.1-7.5-9.1
		C1037.1,28.2,1034.7,32.7,1034.7,37.3z"/>
	<path fill="#343F3F" d="M1073.4,48h-2.4v-3.8h-0.1c-1.4,2.9-4.2,4.5-7.4,4.5c-5.4,0-7.5-3.1-7.5-8.1V26.6h2.6v13.9
		c0.1,3.8,1.6,5.9,5.7,5.9c4.5,0,6.4-4.2,6.4-8.6V26.6h2.6V48z"/>
	<path fill="#343F3F" d="M1078.3,26.6h2.4v5h0.1c1.3-3.4,4.2-5.5,8.1-5.3v2.6c-4.7-0.2-7.9,3.2-7.9,7.6V48h-2.6V26.6z"/>
	<path fill="#343F3F" d="M1102.8,26.6h2.4v4.1h0.1c1.2-2.9,4.2-4.7,7.6-4.7c6.5,0,9.6,5.2,9.6,11.3s-3.1,11.3-9.6,11.3
		c-3.2,0-6.3-1.6-7.4-4.7h-0.1v11.9h-2.6V26.6z M1112.9,28.2c-5.7,0-7.5,4.3-7.5,9.1c0,4.4,1.9,9.1,7.5,9.1c5,0,7-4.7,7-9.1
		S1117.9,28.2,1112.9,28.2z"/>
	<path fill="#343F3F" d="M1126.5,26.6h2.4v5h0.1c1.3-3.4,4.2-5.5,8.1-5.3v2.6c-4.7-0.2-7.9,3.2-7.9,7.6V48h-2.6V26.6z"/>
	<path fill="#343F3F" d="M1140.4,38c0,3.8,2,8.4,7,8.4c3.8,0,5.9-2.2,6.7-5.5h2.6c-1.1,4.8-3.9,7.6-9.3,7.6c-6.8,0-9.6-5.2-9.6-11.3
		c0-5.6,2.9-11.3,9.6-11.3c6.9,0,9.6,6,9.4,12H1140.4z M1154.2,35.8c-0.1-3.9-2.6-7.6-6.8-7.6c-4.3,0-6.6,3.7-7,7.6H1154.2z"/>
	<path fill="#343F3F" d="M1168.5,28.8h-4.2V48h-2.6V28.8h-3.6v-2.2h3.6v-1.9c0-3.7,1-6.2,5.2-6.2c0.7,0,1.4,0,2.2,0.2v2.2
		c-0.7-0.1-1.3-0.2-1.9-0.2c-2.9,0-2.8,1.8-2.9,4.1v1.9h4.2V28.8z"/>
	<path fill="#343F3F" d="M1172.5,38c0,3.8,2,8.4,7,8.4c3.8,0,5.9-2.2,6.7-5.5h2.6c-1.1,4.8-3.9,7.6-9.3,7.6c-6.8,0-9.6-5.2-9.6-11.3
		c0-5.6,2.9-11.3,9.6-11.3c6.9,0,9.6,6,9.4,12H1172.5z M1186.3,35.8c-0.1-3.9-2.6-7.6-6.8-7.6c-4.3,0-6.6,3.7-7,7.6H1186.3z"/>
	<path fill="#343F3F" d="M1192.4,26.6h2.4v5h0.1c1.3-3.4,4.2-5.5,8.1-5.3v2.6c-4.7-0.2-7.9,3.2-7.9,7.6V48h-2.6V26.6z"/>
	<path fill="#343F3F" d="M1206.3,38c0,3.8,2,8.4,7,8.4c3.8,0,5.9-2.2,6.7-5.5h2.6c-1.1,4.8-3.9,7.6-9.3,7.6c-6.8,0-9.6-5.2-9.6-11.3
		c0-5.6,2.9-11.3,9.6-11.3c6.9,0,9.6,6,9.4,12H1206.3z M1220.1,35.8c-0.1-3.9-2.6-7.6-6.8-7.6c-4.3,0-6.6,3.7-7,7.6H1220.1z"/>
	<path fill="#343F3F" d="M1226.1,26.6h2.6v3.7h0.1c1-2.6,3.8-4.3,6.8-4.3c6,0,7.8,3.1,7.8,8.2V48h-2.6V34.6c0-3.7-1.2-6.4-5.4-6.4
		c-4.1,0-6.6,3.1-6.7,7.3V48h-2.6V26.6z"/>
	<path fill="#343F3F" d="M1263.4,33.3c-0.7-3.2-2.6-5.1-6-5.1c-5,0-7.5,4.5-7.5,9.1s2.5,9.1,7.5,9.1c3.2,0,5.9-2.5,6.2-6.1h2.6
		c-0.7,5.1-4.1,8.3-8.8,8.3c-6.5,0-10.1-5.2-10.1-11.3c0-6.1,3.6-11.3,10.1-11.3c4.5,0,8.1,2.4,8.6,7.3H1263.4z"/>
	<path fill="#343F3F" d="M1271.4,38c0,3.8,2,8.4,7,8.4c3.8,0,5.9-2.2,6.7-5.5h2.6c-1.1,4.8-3.9,7.6-9.3,7.6c-6.8,0-9.6-5.2-9.6-11.3
		c0-5.6,2.9-11.3,9.6-11.3c6.9,0,9.6,6,9.4,12H1271.4z M1285.2,35.8c-0.1-3.9-2.6-7.6-6.8-7.6c-4.3,0-6.6,3.7-7,7.6H1285.2z"/>
	<path fill="#343F3F" d="M1321.9,37.3c0,6.1-3.6,11.3-10.1,11.3s-10.1-5.2-10.1-11.3c0-6.1,3.6-11.3,10.1-11.3
		S1321.9,31.2,1321.9,37.3z M1304.3,37.3c0,4.5,2.5,9.1,7.5,9.1s7.5-4.5,7.5-9.1s-2.5-9.1-7.5-9.1S1304.3,32.7,1304.3,37.3z"/>
	<path fill="#343F3F" d="M1325.8,26.6h2.4v5h0.1c1.3-3.4,4.2-5.5,8.1-5.3v2.6c-4.7-0.2-7.9,3.2-7.9,7.6V48h-2.6V26.6z"/>
	<path fill="#343F3F" d="M1369,48h-2.4v-4.1h-0.1c-1.1,2.8-4.5,4.7-7.6,4.7c-6.5,0-9.6-5.2-9.6-11.3s3.1-11.3,9.6-11.3
		c3.2,0,6.3,1.6,7.4,4.7h0.1V18.4h2.6V48z M1359,46.4c5.5,0,7.5-4.7,7.5-9.1s-1.9-9.1-7.5-9.1c-5,0-7,4.7-7,9.1S1354,46.4,1359,46.4
		z"/>
	<path fill="#343F3F" d="M1393.1,37.3c0,6.1-3.6,11.3-10.1,11.3c-6.5,0-10.1-5.2-10.1-11.3c0-6.1,3.6-11.3,10.1-11.3
		C1389.5,26,1393.1,31.2,1393.1,37.3z M1375.5,37.3c0,4.5,2.5,9.1,7.5,9.1c5,0,7.5-4.5,7.5-9.1s-2.5-9.1-7.5-9.1
		C1378,28.2,1375.5,32.7,1375.5,37.3z"/>
	<path fill="#343F3F" d="M1394.8,26.6h2.8l5.5,18.3h0.1l5.2-18.3h2.9l5.2,18.3h0.1l5.5-18.3h2.8l-6.9,21.3h-2.9l-5.2-17.9h-0.1
		l-5.2,17.9h-2.9L1394.8,26.6z"/>
	<path fill="#343F3F" d="M1427.6,26.6h2.6v3.7h0.1c1-2.6,3.8-4.3,6.8-4.3c6,0,7.8,3.1,7.8,8.2V48h-2.6V34.6c0-3.7-1.2-6.4-5.4-6.4
		c-4.1,0-6.6,3.1-6.7,7.3V48h-2.6V26.6z"/>
	<path fill="#343F3F" d="M1449.9,18.4h2.6V48h-2.6V18.4z"/>
	<path fill="#343F3F" d="M1476.6,37.3c0,6.1-3.6,11.3-10.1,11.3c-6.5,0-10.1-5.2-10.1-11.3c0-6.1,3.6-11.3,10.1-11.3
		C1473,26,1476.6,31.2,1476.6,37.3z M1459,37.3c0,4.5,2.5,9.1,7.5,9.1c5,0,7.5-4.5,7.5-9.1s-2.5-9.1-7.5-9.1
		C1461.5,28.2,1459,32.7,1459,37.3z"/>
	<path fill="#343F3F" d="M1480.2,33.2c0.2-5,3.8-7.2,8.6-7.2c3.8,0,7.9,1.2,7.9,6.9v11.3c0,1,0.5,1.6,1.5,1.6c0.3,0,0.6-0.1,0.8-0.2
		v2.2c-0.6,0.1-1,0.2-1.7,0.2c-2.6,0-3.1-1.5-3.1-3.7h-0.1c-1.8,2.8-3.7,4.3-7.8,4.3c-3.9,0-7.2-1.9-7.2-6.2c0-6,5.8-6.2,11.5-6.9
		c2.1-0.2,3.3-0.5,3.3-2.9c0-3.5-2.5-4.4-5.6-4.4c-3.2,0-5.6,1.5-5.7,5H1480.2z M1494.1,36.3L1494.1,36.3c-0.4,0.6-1.6,0.8-2.3,1
		c-4.4,0.8-9.9,0.7-9.9,4.9c0,2.6,2.3,4.2,4.8,4.2c4,0,7.5-2.5,7.4-6.7V36.3z"/>
	<path fill="#343F3F" d="M1520.7,48h-2.4v-4.1h-0.1c-1.1,2.8-4.5,4.7-7.6,4.7c-6.5,0-9.6-5.2-9.6-11.3s3.1-11.3,9.6-11.3
		c3.2,0,6.3,1.6,7.4,4.7h0.1V18.4h2.6V48z M1510.6,46.4c5.5,0,7.5-4.7,7.5-9.1s-1.9-9.1-7.5-9.1c-5,0-7,4.7-7,9.1
		S1505.6,46.4,1510.6,46.4z"/>
	<path fill="#343F3F" d="M1537.1,18.4h2.6v11.9h0.1c1-2.6,3.8-4.3,6.8-4.3c6,0,7.8,3.1,7.8,8.2V48h-2.6V34.6c0-3.7-1.2-6.4-5.4-6.4
		c-4.1,0-6.6,3.1-6.7,7.3V48h-2.6V18.4z"/>
	<path fill="#343F3F" d="M1559.4,18.4h2.6v4.2h-2.6V18.4z M1559.4,26.6h2.6V48h-2.6V26.6z"/>
	<path fill="#343F3F" d="M1579.7,32.9c-0.1-3.2-2.6-4.7-5.6-4.7c-2.3,0-5,0.9-5,3.7c0,2.3,2.6,3.1,4.4,3.6l3.5,0.8
		c3,0.5,6.1,2.2,6.1,5.9c0,4.6-4.6,6.4-8.6,6.4c-5,0-8.3-2.3-8.8-7.5h2.6c0.2,3.5,2.8,5.3,6.3,5.3c2.4,0,5.8-1.1,5.8-4.1
		c0-2.5-2.3-3.3-4.7-3.9l-3.3-0.7c-3.4-0.9-6-2.1-6-5.7c0-4.3,4.3-6,8-6c4.3,0,7.6,2.2,7.8,6.9H1579.7z"/>
	<path fill="#343F3F" d="M1591,26.6h4.3v2.2h-4.3v14.4c0,1.7,0.2,2.7,2.1,2.8c0.7,0,1.5,0,2.2-0.1v2.2c-0.8,0-1.5,0.1-2.3,0.1
		c-3.5,0-4.7-1.2-4.6-4.8V28.8h-3.7v-2.2h3.7v-6.4h2.6V26.6z"/>
	<path fill="#343F3F" d="M1618.2,37.3c0,6.1-3.6,11.3-10.1,11.3c-6.5,0-10.1-5.2-10.1-11.3c0-6.1,3.6-11.3,10.1-11.3
		C1614.6,26,1618.2,31.2,1618.2,37.3z M1600.6,37.3c0,4.5,2.5,9.1,7.5,9.1c5,0,7.5-4.5,7.5-9.1s-2.5-9.1-7.5-9.1
		C1603.1,28.2,1600.6,32.7,1600.6,37.3z"/>
	<path fill="#343F3F" d="M1622.1,26.6h2.4v5h0.1c1.3-3.4,4.2-5.5,8.1-5.3v2.6c-4.7-0.2-7.9,3.2-7.9,7.6V48h-2.6V26.6z"/>
	<path fill="#343F3F" d="M1635.1,18.4h2.6v4.2h-2.6V18.4z M1635.1,26.6h2.6V48h-2.6V26.6z"/>
	<path fill="#343F3F" d="M1657.8,33.3c-0.7-3.2-2.6-5.1-6-5.1c-5,0-7.5,4.5-7.5,9.1s2.5,9.1,7.5,9.1c3.2,0,5.9-2.5,6.2-6.1h2.6
		c-0.7,5.1-4.1,8.3-8.8,8.3c-6.5,0-10.1-5.2-10.1-11.3c0-6.1,3.6-11.3,10.1-11.3c4.5,0,8.1,2.4,8.6,7.3H1657.8z"/>
	<path fill="#343F3F" d="M1664,33.2c0.2-5,3.8-7.2,8.6-7.2c3.8,0,7.9,1.2,7.9,6.9v11.3c0,1,0.5,1.6,1.5,1.6c0.3,0,0.6-0.1,0.8-0.2
		v2.2c-0.6,0.1-1,0.2-1.7,0.2c-2.6,0-3.1-1.5-3.1-3.7h-0.1c-1.8,2.8-3.7,4.3-7.8,4.3c-3.9,0-7.2-1.9-7.2-6.2c0-6,5.8-6.2,11.5-6.9
		c2.1-0.2,3.3-0.5,3.3-2.9c0-3.5-2.5-4.4-5.6-4.4c-3.2,0-5.6,1.5-5.7,5H1664z M1677.8,36.3L1677.8,36.3c-0.4,0.6-1.6,0.8-2.3,1
		c-4.4,0.8-9.9,0.7-9.9,4.9c0,2.6,2.3,4.2,4.8,4.2c4,0,7.5-2.5,7.4-6.7V36.3z"/>
	<path fill="#343F3F" d="M1685.7,18.4h2.6V48h-2.6V18.4z"/>
	<path fill="#343F3F" d="M1723.6,48h-2.4v-4.1h-0.1c-1.1,2.8-4.5,4.7-7.6,4.7c-6.5,0-9.6-5.2-9.6-11.3s3.1-11.3,9.6-11.3
		c3.2,0,6.3,1.6,7.4,4.7h0.1V18.4h2.6V48z M1713.5,46.4c5.5,0,7.5-4.7,7.5-9.1s-1.9-9.1-7.5-9.1c-5,0-7,4.7-7,9.1
		S1708.5,46.4,1713.5,46.4z"/>
	<path fill="#343F3F" d="M1728.3,33.2c0.2-5,3.8-7.2,8.6-7.2c3.8,0,7.9,1.2,7.9,6.9v11.3c0,1,0.5,1.6,1.5,1.6c0.3,0,0.6-0.1,0.8-0.2
		v2.2c-0.6,0.1-1,0.2-1.7,0.2c-2.6,0-3.1-1.5-3.1-3.7h-0.1c-1.8,2.8-3.7,4.3-7.8,4.3c-3.9,0-7.2-1.9-7.2-6.2c0-6,5.8-6.2,11.4-6.9
		c2.2-0.2,3.3-0.5,3.3-2.9c0-3.5-2.5-4.4-5.6-4.4c-3.2,0-5.6,1.5-5.7,5H1728.3z M1742.2,36.3L1742.2,36.3c-0.4,0.6-1.6,0.8-2.3,1
		c-4.4,0.8-9.9,0.7-9.9,4.9c0,2.6,2.3,4.2,4.8,4.2c4,0,7.5-2.5,7.4-6.7V36.3z"/>
	<path fill="#343F3F" d="M1754.1,26.6h4.3v2.2h-4.3v14.4c0,1.7,0.2,2.7,2.1,2.8c0.7,0,1.5,0,2.2-0.1v2.2c-0.8,0-1.5,0.1-2.3,0.1
		c-3.5,0-4.7-1.2-4.6-4.8V28.8h-3.7v-2.2h3.7v-6.4h2.6V26.6z"/>
	<path fill="#343F3F" d="M1762,33.2c0.2-5,3.8-7.2,8.6-7.2c3.8,0,7.9,1.2,7.9,6.9v11.3c0,1,0.5,1.6,1.5,1.6c0.3,0,0.6-0.1,0.8-0.2
		v2.2c-0.6,0.1-1,0.2-1.7,0.2c-2.6,0-3.1-1.5-3.1-3.7h-0.1c-1.8,2.8-3.7,4.3-7.8,4.3c-3.9,0-7.2-1.9-7.2-6.2c0-6,5.8-6.2,11.5-6.9
		c2.1-0.2,3.3-0.5,3.3-2.9c0-3.5-2.5-4.4-5.6-4.4c-3.2,0-5.6,1.5-5.7,5H1762z M1775.9,36.3L1775.9,36.3c-0.4,0.6-1.6,0.8-2.3,1
		c-4.4,0.8-9.9,0.7-9.9,4.9c0,2.6,2.3,4.2,4.8,4.2c4,0,7.5-2.5,7.4-6.7V36.3z"/>
</g>
<line fill="none" stroke="#959595" stroke-width="2" stroke-miterlimit="10" stroke-dasharray="20" x1="1568.7" y1="481" x2="1785.7" y2="481"/>
<line fill="none" stroke="#959595" stroke-width="2" stroke-miterlimit="10" stroke-dasharray="20" x1="78.7" y1="833" x2="1785.7" y2="833"/>
<rect x="107" y="157.1" fill="#FFFFFF" stroke="#D2D7D8" stroke-width="2" stroke-miterlimit="10" width="883.7" height="74.9"/>
<g>
	<path fill="#37474F" d="M139.4,197.9c-0.1,4.7,3.3,6.1,7.5,6.1c2.4,0,6-1.3,6-4.6c0-2.6-2.6-3.6-4.7-4.1l-5.1-1.2
		c-2.7-0.7-5.2-2-5.2-5.5c0-2.2,1.4-6.4,7.9-6.4c4.5,0,8.5,2.4,8.4,7.1h-2.2c-0.1-3.5-3-5.2-6.2-5.2c-3,0-5.7,1.2-5.7,4.5
		c0,2.1,1.6,3,3.5,3.5l5.6,1.4c3.2,0.9,5.9,2.3,5.9,6c0,1.6-0.6,6.5-8.7,6.5c-5.4,0-9.4-2.4-9.1-8H139.4z"/>
	<path fill="#37474F" d="M159.4,197.7c0,2.9,1.6,6.5,5.4,6.5c2.9,0,4.5-1.7,5.2-4.2h2c-0.9,3.7-3,5.9-7.2,5.9c-5.2,0-7.5-4-7.5-8.7
		c0-4.4,2.2-8.7,7.5-8.7c5.3,0,7.4,4.6,7.3,9.3H159.4z M170.1,196c-0.1-3-2-5.9-5.2-5.9c-3.3,0-5.1,2.9-5.4,5.9H170.1z"/>
	<path fill="#37474F" d="M174.6,193.9c0.2-3.9,2.9-5.5,6.7-5.5c2.9,0,6.1,0.9,6.1,5.3v8.8c0,0.8,0.4,1.2,1.2,1.2
		c0.2,0,0.5-0.1,0.6-0.1v1.7c-0.4,0.1-0.8,0.1-1.3,0.1c-2,0-2.4-1.2-2.4-2.9h-0.1c-1.4,2.1-2.8,3.4-6,3.4c-3,0-5.5-1.5-5.5-4.8
		c0-4.6,4.5-4.8,8.9-5.3c1.7-0.2,2.6-0.4,2.6-2.2c0-2.7-2-3.4-4.3-3.4c-2.5,0-4.4,1.2-4.4,3.8H174.6z M185.4,196.4L185.4,196.4
		c-0.3,0.5-1.2,0.6-1.8,0.7c-3.4,0.6-7.7,0.6-7.7,3.8c0,2,1.8,3.3,3.7,3.3c3.1,0,5.8-2,5.8-5.2V196.4z"/>
	<path fill="#37474F" d="M191.4,188.9h1.9v3.9h0.1c1-2.7,3.3-4.2,6.2-4.1v2c-3.6-0.2-6.1,2.5-6.1,5.9v8.8h-2V188.9z"/>
	<path fill="#37474F" d="M212.6,194.1c-0.5-2.5-2-4-4.7-4c-3.9,0-5.8,3.5-5.8,7c0,3.5,1.9,7,5.8,7c2.5,0,4.5-2,4.8-4.7h2
		c-0.5,4-3.1,6.4-6.8,6.4c-5.1,0-7.8-4-7.8-8.7c0-4.7,2.8-8.7,7.8-8.7c3.5,0,6.2,1.9,6.7,5.7H212.6z"/>
	<path fill="#37474F" d="M217.5,182.5h2v9.2h0.1c0.7-2,2.9-3.3,5.3-3.3c4.6,0,6,2.4,6,6.4v10.6h-2v-10.3c0-2.8-0.9-5-4.2-5
		c-3.2,0-5.1,2.4-5.2,5.7v9.6h-2V182.5z"/>
	<path fill="#37474F" d="M250,190.6h-3.3v14.8h-2v-14.8h-2.8v-1.7h2.8v-1.5c0-2.8,0.8-4.8,4-4.8c0.6,0,1.1,0,1.7,0.1v1.7
		c-0.5-0.1-1-0.2-1.5-0.2c-2.2,0-2.2,1.4-2.2,3.2v1.4h3.3V190.6z"/>
	<path fill="#37474F" d="M266.7,197.1c0,4.7-2.8,8.7-7.8,8.7s-7.8-4-7.8-8.7c0-4.7,2.8-8.7,7.8-8.7S266.7,192.4,266.7,197.1z
		 M253.1,197.1c0,3.5,1.9,7,5.8,7c3.9,0,5.8-3.5,5.8-7c0-3.5-1.9-7-5.8-7C255,190.1,253.1,193.6,253.1,197.1z"/>
	<path fill="#37474F" d="M269.7,188.9h1.9v3.9h0.1c1-2.7,3.3-4.2,6.2-4.1v2c-3.6-0.2-6.1,2.5-6.1,5.9v8.8h-2V188.9z"/>
	<path fill="#37474F" d="M288.5,193.9c0.2-3.9,2.9-5.5,6.7-5.5c2.9,0,6.1,0.9,6.1,5.3v8.8c0,0.8,0.4,1.2,1.2,1.2
		c0.2,0,0.5-0.1,0.6-0.1v1.7c-0.4,0.1-0.8,0.1-1.3,0.1c-2,0-2.4-1.2-2.4-2.9h-0.1c-1.4,2.1-2.8,3.4-6,3.4c-3,0-5.5-1.5-5.5-4.8
		c0-4.6,4.5-4.8,8.9-5.3c1.7-0.2,2.6-0.4,2.6-2.2c0-2.7-2-3.4-4.3-3.4c-2.5,0-4.4,1.2-4.4,3.8H288.5z M299.2,196.4L299.2,196.4
		c-0.3,0.5-1.2,0.6-1.8,0.7c-3.4,0.6-7.7,0.6-7.7,3.8c0,2,1.8,3.3,3.7,3.3c3.1,0,5.8-2,5.8-5.2V196.4z"/>
	<path fill="#37474F" d="M312.3,188.9h2.2l5.2,14.5h0.1l5.1-14.5h2.1l-6.2,16.5h-2.1L312.3,188.9z"/>
	<path fill="#37474F" d="M328.8,193.9c0.2-3.9,2.9-5.5,6.7-5.5c2.9,0,6.1,0.9,6.1,5.3v8.8c0,0.8,0.4,1.2,1.2,1.2
		c0.2,0,0.5-0.1,0.6-0.1v1.7c-0.4,0.1-0.8,0.1-1.3,0.1c-2,0-2.4-1.2-2.4-2.9h-0.1c-1.4,2.1-2.8,3.4-6,3.4c-3,0-5.5-1.5-5.5-4.8
		c0-4.6,4.5-4.8,8.9-5.3c1.7-0.2,2.6-0.4,2.6-2.2c0-2.7-2-3.4-4.3-3.4c-2.5,0-4.4,1.2-4.4,3.8H328.8z M339.5,196.4L339.5,196.4
		c-0.3,0.5-1.2,0.6-1.8,0.7c-3.4,0.6-7.7,0.6-7.7,3.8c0,2,1.8,3.3,3.7,3.3c3.1,0,5.8-2,5.8-5.2V196.4z"/>
	<path fill="#37474F" d="M345.6,188.9h1.9v3.9h0.1c1-2.7,3.3-4.2,6.2-4.1v2c-3.6-0.2-6.1,2.5-6.1,5.9v8.8h-2V188.9z"/>
	<path fill="#37474F" d="M355.7,182.5h2v3.2h-2V182.5z M355.7,188.9h2v16.5h-2V188.9z"/>
	<path fill="#37474F" d="M361.4,193.9c0.2-3.9,2.9-5.5,6.7-5.5c2.9,0,6.1,0.9,6.1,5.3v8.8c0,0.8,0.4,1.2,1.2,1.2
		c0.2,0,0.5-0.1,0.6-0.1v1.7c-0.4,0.1-0.8,0.1-1.3,0.1c-2,0-2.4-1.2-2.4-2.9h-0.1c-1.4,2.1-2.8,3.4-6,3.4c-3,0-5.5-1.5-5.5-4.8
		c0-4.6,4.5-4.8,8.9-5.3c1.7-0.2,2.6-0.4,2.6-2.2c0-2.7-2-3.4-4.3-3.4c-2.5,0-4.4,1.2-4.4,3.8H361.4z M372.1,196.4L372.1,196.4
		c-0.3,0.5-1.2,0.6-1.8,0.7c-3.4,0.6-7.7,0.6-7.7,3.8c0,2,1.8,3.3,3.7,3.3c3.1,0,5.8-2,5.8-5.2V196.4z"/>
	<path fill="#37474F" d="M378.2,182.5h2v9.5h0.1c0.9-2.4,3.3-3.6,5.7-3.6c5,0,7.4,4.1,7.4,8.7c0,4.7-2.4,8.7-7.4,8.7
		c-2.7,0-5-1.4-5.9-3.6H380v3.1h-1.9V182.5z M386,190.1c-4.3,0-5.8,3.6-5.8,7c0,3.4,1.5,7,5.8,7c3.8,0,5.4-3.6,5.4-7
		C391.4,193.7,389.8,190.1,386,190.1z"/>
	<path fill="#37474F" d="M396.6,182.5h2v22.8h-2V182.5z"/>
	<path fill="#37474F" d="M403.7,197.7c0,2.9,1.6,6.5,5.4,6.5c2.9,0,4.5-1.7,5.2-4.2h2c-0.9,3.7-3,5.9-7.2,5.9c-5.2,0-7.5-4-7.5-8.7
		c0-4.4,2.2-8.7,7.5-8.7c5.3,0,7.4,4.6,7.3,9.3H403.7z M414.3,196c-0.1-3-2-5.9-5.2-5.9c-3.3,0-5.1,2.9-5.4,5.9H414.3z"/>
</g>
<line fill="none" stroke="#959595" stroke-width="2" stroke-miterlimit="10" x1="921.7" y1="1458.1" x2="145.5" y2="1458.1"/>
<line fill="none" stroke="#959595" stroke-width="2" stroke-miterlimit="10" x1="921.7" y1="1180.6" x2="145.5" y2="1180.6"/>
<g>
	<path fill="#959595" d="M1505,1328.5v-3.4h2.7v3.4H1505z"/>
	<path fill="#959595" d="M1510.9,1305.7h2.6l6.5,9.6l6.7-9.6h2.4l-7.8,11.1l8.3,11.7h-2.6l-6.9-10.1l-7,10.1h-2.5l8.2-11.8
		L1510.9,1305.7z"/>
	<path fill="#959595" d="M1531.4,1305.7h2.2v21h12.8v1.9h-15V1305.7z"/>
	<path fill="#959595" d="M1549.6,1321c-0.1,4.7,3.3,6.1,7.5,6.1c2.4,0,6-1.3,6-4.6c0-2.6-2.6-3.6-4.7-4.1l-5.1-1.2
		c-2.7-0.7-5.2-2-5.2-5.5c0-2.2,1.4-6.4,7.9-6.4c4.5,0,8.5,2.4,8.4,7.1h-2.2c-0.1-3.5-3-5.2-6.2-5.2c-3,0-5.7,1.2-5.7,4.5
		c0,2.1,1.6,3,3.5,3.5l5.6,1.4c3.2,0.9,5.9,2.3,5.9,6c0,1.6-0.6,6.5-8.7,6.5c-5.4,0-9.4-2.4-9.1-8H1549.6z"/>
</g>
<g>
	<path fill="#959595" d="M1499,1229v-3.4h2.7v3.4H1499z"/>
	<path fill="#959595" d="M1523.8,1213.1c-0.8-3.5-3.7-5.5-7-5.5c-6,0-8.6,5.1-8.6,10c0,5,2.6,10,8.6,10c4.2,0,6.9-3.3,7.3-7.3h2.2
		c-0.6,5.6-4.2,9.2-9.5,9.2c-7.2,0-10.8-5.7-10.8-11.9c0-6.2,3.6-11.9,10.8-11.9c4.3,0,8.6,2.6,9.2,7.4H1523.8z"/>
	<path fill="#959595" d="M1530.7,1221.5c-0.1,4.7,3.3,6.1,7.5,6.1c2.4,0,6-1.3,6-4.6c0-2.6-2.6-3.6-4.7-4.1l-5.1-1.2
		c-2.7-0.7-5.2-2-5.2-5.5c0-2.2,1.4-6.4,7.9-6.4c4.5,0,8.5,2.4,8.4,7.1h-2.2c-0.1-3.5-3-5.2-6.2-5.2c-3,0-5.7,1.2-5.7,4.5
		c0,2.1,1.6,3,3.5,3.5l5.6,1.4c3.2,0.9,5.9,2.3,5.9,6c0,1.6-0.6,6.5-8.7,6.5c-5.4,0-9.4-2.4-9.1-8H1530.7z"/>
	<path fill="#959595" d="M1547.3,1206.2h2.3l7.4,20.4h0.1l7.4-20.4h2.3l-8.5,22.8h-2.5L1547.3,1206.2z"/>
</g>
<g>
	<path fill="#959595" d="M144.9,1126h14.5v1.9h-12.3v8.3H158v1.9h-10.9v10.9h-2.2V1126z"/>
	<path fill="#959595" d="M161.7,1132.3h1.9v3.9h0.1c1-2.7,3.3-4.2,6.2-4.1v2c-3.6-0.2-6.1,2.5-6.1,5.9v8.8h-2V1132.3z"/>
	<path fill="#959595" d="M172.4,1141.1c0,2.9,1.6,6.5,5.4,6.5c2.9,0,4.5-1.7,5.2-4.2h2c-0.9,3.7-3,5.9-7.2,5.9c-5.2,0-7.5-4-7.5-8.7
		c0-4.4,2.2-8.7,7.5-8.7c5.3,0,7.4,4.6,7.3,9.3H172.4z M183.1,1139.4c-0.1-3-2-5.9-5.2-5.9c-3.3,0-5.1,2.9-5.4,5.9H183.1z"/>
	<path fill="#959595" d="M202.4,1154.9h-2v-9.2h-0.1c-0.9,2.4-3.3,3.6-5.7,3.6c-5,0-7.4-4.1-7.4-8.7s2.4-8.7,7.4-8.7
		c2.4,0,5,1.5,5.9,3.6h0.1v-3.1h1.9V1154.9z M194.5,1147.6c4.3,0,5.8-3.6,5.8-7s-1.5-7-5.8-7c-3.8,0-5.4,3.6-5.4,7
		S190.7,1147.6,194.5,1147.6z"/>
	<path fill="#959595" d="M219.6,1148.8h-1.9v-3h-0.1c-1.1,2.2-3.2,3.5-5.7,3.5c-4.2,0-5.8-2.4-5.8-6.3v-10.7h2v10.8
		c0.1,3,1.2,4.5,4.4,4.5c3.5,0,5-3.3,5-6.6v-8.7h2V1148.8z"/>
	<path fill="#959595" d="M224.6,1141.1c0,2.9,1.6,6.5,5.4,6.5c2.9,0,4.5-1.7,5.2-4.2h2c-0.9,3.7-3,5.9-7.2,5.9c-5.2,0-7.5-4-7.5-8.7
		c0-4.4,2.2-8.7,7.5-8.7c5.3,0,7.4,4.6,7.3,9.3H224.6z M235.3,1139.4c-0.1-3-2-5.9-5.2-5.9c-3.3,0-5.1,2.9-5.4,5.9H235.3z"/>
	<path fill="#959595" d="M240,1132.3h2v2.8h0.1c0.7-2,2.9-3.3,5.3-3.3c4.6,0,6,2.4,6,6.4v10.6h-2v-10.3c0-2.8-0.9-5-4.2-5
		c-3.2,0-5.1,2.4-5.2,5.7v9.6h-2V1132.3z"/>
	<path fill="#959595" d="M268.8,1137.5c-0.5-2.5-2-4-4.7-4c-3.9,0-5.8,3.5-5.8,7s1.9,7,5.8,7c2.5,0,4.5-2,4.8-4.7h2
		c-0.5,4-3.1,6.4-6.8,6.4c-5.1,0-7.8-4-7.8-8.7s2.8-8.7,7.8-8.7c3.5,0,6.2,1.9,6.7,5.7H268.8z"/>
	<path fill="#959595" d="M271.9,1132.3h2.1l5.4,14.1l5.1-14.1h2l-7.2,19c-1.2,2.8-1.8,3.6-4.4,3.6c-0.8,0-1.2,0-1.5-0.2v-1.7
		c0.5,0.1,0.9,0.2,1.4,0.2c1.8,0,2.2-1.1,2.9-2.6l0.7-1.9L271.9,1132.3z"/>
</g>
<g>
	<path fill="#959595" d="M1445.8,1126h2.2v9.9h13.6v-9.9h2.2v22.8h-2.2v-11.1H1448v11.1h-2.2V1126z"/>
	<path fill="#959595" d="M1468,1126h2v3.2h-2V1126z M1468,1132.3h2v16.5h-2V1132.3z"/>
	<path fill="#959595" d="M1483.8,1137.1c-0.1-2.5-2-3.6-4.3-3.6c-1.8,0-3.9,0.7-3.9,2.8c0,1.8,2,2.4,3.4,2.8l2.7,0.6
		c2.3,0.4,4.7,1.7,4.7,4.6c0,3.6-3.6,5-6.6,5c-3.8,0-6.5-1.8-6.8-5.8h2c0.2,2.7,2.2,4.1,4.9,4.1c1.9,0,4.5-0.8,4.5-3.1
		c0-1.9-1.8-2.6-3.6-3l-2.6-0.6c-2.6-0.7-4.6-1.6-4.6-4.4c0-3.4,3.3-4.6,6.2-4.6c3.3,0,5.9,1.7,6,5.3H1483.8z"/>
	<path fill="#959595" d="M1492.5,1132.3h3.4v1.7h-3.4v11.1c0,1.3,0.2,2.1,1.6,2.2c0.6,0,1.2,0,1.7-0.1v1.7c-0.6,0-1.2,0.1-1.8,0.1
		c-2.7,0-3.6-0.9-3.6-3.7V1134h-2.9v-1.7h2.9v-5h2V1132.3z"/>
	<path fill="#959595" d="M1513.6,1140.6c0,4.7-2.8,8.7-7.8,8.7s-7.8-4-7.8-8.7s2.8-8.7,7.8-8.7S1513.6,1135.8,1513.6,1140.6z
		 M1500,1140.6c0,3.5,1.9,7,5.8,7c3.9,0,5.8-3.5,5.8-7s-1.9-7-5.8-7C1501.9,1133.5,1500,1137.1,1500,1140.6z"/>
	<path fill="#959595" d="M1516.6,1132.3h1.9v3.9h0.1c1-2.7,3.3-4.2,6.2-4.1v2c-3.6-0.2-6.1,2.5-6.1,5.9v8.8h-2V1132.3z"/>
	<path fill="#959595" d="M1526.7,1126h2v3.2h-2V1126z M1526.7,1132.3h2v16.5h-2V1132.3z"/>
	<path fill="#959595" d="M1544.2,1137.5c-0.5-2.5-2-4-4.7-4c-3.9,0-5.8,3.5-5.8,7s1.9,7,5.8,7c2.5,0,4.5-2,4.8-4.7h2
		c-0.5,4-3.1,6.4-6.8,6.4c-5.1,0-7.8-4-7.8-8.7s2.8-8.7,7.8-8.7c3.5,0,6.2,1.9,6.7,5.7H1544.2z"/>
	<path fill="#959595" d="M1549,1137.4c0.2-3.9,2.9-5.5,6.7-5.5c2.9,0,6.1,0.9,6.1,5.3v8.8c0,0.8,0.4,1.2,1.2,1.2
		c0.2,0,0.5-0.1,0.6-0.1v1.7c-0.4,0.1-0.8,0.1-1.3,0.1c-2,0-2.4-1.2-2.4-2.9h-0.1c-1.4,2.1-2.8,3.4-6,3.4c-3,0-5.5-1.5-5.5-4.8
		c0-4.6,4.5-4.8,8.9-5.3c1.7-0.2,2.6-0.4,2.6-2.2c0-2.7-2-3.4-4.3-3.4c-2.5,0-4.4,1.2-4.4,3.8H1549z M1559.7,1139.8L1559.7,1139.8
		c-0.3,0.5-1.2,0.6-1.8,0.7c-3.4,0.6-7.7,0.6-7.7,3.8c0,2,1.8,3.3,3.7,3.3c3.1,0,5.8-2,5.8-5.2V1139.8z"/>
	<path fill="#959595" d="M1565.8,1126h2v22.8h-2V1126z"/>
	<path fill="#959595" d="M1581,1126h7.9c6.9,0.2,10.5,3.9,10.5,11.4c0,7.5-3.6,11.3-10.5,11.4h-7.9V1126z M1583.2,1147h4.6
		c6.6,0,9.4-2.8,9.4-9.6c0-6.8-2.8-9.6-9.4-9.6h-4.6V1147z"/>
	<path fill="#959595" d="M1602.3,1137.4c0.2-3.9,2.9-5.5,6.7-5.5c2.9,0,6.1,0.9,6.1,5.3v8.8c0,0.8,0.4,1.2,1.2,1.2
		c0.2,0,0.5-0.1,0.6-0.1v1.7c-0.4,0.1-0.8,0.1-1.3,0.1c-2,0-2.4-1.2-2.4-2.9h-0.1c-1.4,2.1-2.8,3.4-6,3.4c-3,0-5.5-1.5-5.5-4.8
		c0-4.6,4.5-4.8,8.9-5.3c1.7-0.2,2.6-0.4,2.6-2.2c0-2.7-2-3.4-4.3-3.4c-2.5,0-4.4,1.2-4.4,3.8H1602.3z M1613.1,1139.8L1613.1,1139.8
		c-0.3,0.5-1.2,0.6-1.8,0.7c-3.4,0.6-7.7,0.6-7.7,3.8c0,2,1.8,3.3,3.7,3.3c3.1,0,5.8-2,5.8-5.2V1139.8z"/>
	<path fill="#959595" d="M1622.3,1132.3h3.4v1.7h-3.4v11.1c0,1.3,0.2,2.1,1.6,2.2c0.6,0,1.2,0,1.7-0.1v1.7c-0.6,0-1.2,0.1-1.8,0.1
		c-2.7,0-3.6-0.9-3.6-3.7V1134h-2.9v-1.7h2.9v-5h2V1132.3z"/>
	<path fill="#959595" d="M1628.4,1137.4c0.2-3.9,2.9-5.5,6.7-5.5c2.9,0,6.1,0.9,6.1,5.3v8.8c0,0.8,0.4,1.2,1.2,1.2
		c0.2,0,0.5-0.1,0.6-0.1v1.7c-0.4,0.1-0.8,0.1-1.3,0.1c-2,0-2.4-1.2-2.4-2.9h-0.1c-1.4,2.1-2.8,3.4-6,3.4c-3,0-5.5-1.5-5.5-4.8
		c0-4.6,4.5-4.8,8.9-5.3c1.7-0.2,2.6-0.4,2.6-2.2c0-2.7-2-3.4-4.3-3.4c-2.5,0-4.4,1.2-4.4,3.8H1628.4z M1639.2,1139.8L1639.2,1139.8
		c-0.3,0.5-1.2,0.6-1.8,0.7c-3.4,0.6-7.7,0.6-7.7,3.8c0,2,1.8,3.3,3.7,3.3c3.1,0,5.8-2,5.8-5.2V1139.8z"/>
</g>
<g>
	<rect x="142.6" y="1212.2" fill="none" width="768.2" height="223.7"/>
	<path fill="#959595" d="M144.8,1212.2h9.9c5.9,0,10.4,3.7,10.4,11.3c0,6.6-3.4,11.6-10.4,11.6h-9.9V1212.2z M149.8,1230.9h4.5
		c2.9,0,5.7-1.8,5.7-6.8c0-4.6-1.6-7.6-6.6-7.6h-3.6V1230.9z"/>
	<path fill="#959595" d="M353.6,1217c3.5-0.1,5.7-0.2,6.3-4.3h1.6v22.4h-2v-16.6h-5.9V1217z"/>
	<path fill="#959595" d="M384.8,1235.1h-1.9v-3.1h-0.1c-0.9,2.1-3.5,3.6-5.9,3.6c-5,0-7.4-4.1-7.4-8.7c0-4.7,2.4-8.7,7.4-8.7
		c2.5,0,4.9,1.2,5.7,3.6h0.1v-9.5h2V1235.1z M377,1233.9c4.3,0,5.8-3.6,5.8-7c0-3.4-1.5-7-5.8-7c-3.8,0-5.4,3.6-5.4,7
		C371.6,1230.3,373.1,1233.9,377,1233.9z"/>
	<path fill="#959595" d="M479.3,1217c3.5-0.1,5.7-0.2,6.3-4.3h1.6v22.4h-2v-16.6h-5.9V1217z"/>
	<path fill="#959595" d="M494.3,1218.6h2.1l4.2,14.1h0.1l4-14.1h2.3l4,14.1h0.1l4.2-14.1h2.1l-5.3,16.5H510l-4.1-13.9h-0.1l-4,13.9
		h-2.2L494.3,1218.6z"/>
	<path fill="#959595" d="M607.4,1217c3.5-0.1,5.7-0.2,6.3-4.3h1.6v22.4h-2v-16.6h-5.9V1217z"/>
	<path fill="#959595" d="M624,1218.6h1.9v2.8h0.1c1.1-2,2.8-3.3,5.4-3.3c2.2,0,4.1,1.1,4.7,3.2c1-2.2,3.1-3.2,5.2-3.2
		c3.6,0,5.5,1.9,5.5,5.8v11.2h-2V1224c0-2.7-1-4.2-3.9-4.2c-3.5,0-4.5,2.9-4.5,6v9.3h-2v-11.2c0-2.2-0.9-4.1-3.5-4.1
		c-3.5,0-4.9,2.6-4.9,6.1v9.2h-2V1218.6z"/>
	<path fill="#959595" d="M738.4,1228c-0.1,3.6,2,5.9,5.6,5.9c2.9,0,5.7-1.8,5.7-5c0-3.2-2.4-4.7-5.4-4.7h-1.7v-1.7h1.7
		c2.1,0,4.5-1.2,4.5-4.1c0-2.9-2.2-4.2-4.9-4.2c-3.4,0-5.2,2.3-5.1,5.7h-2c0-4.2,2.7-7.4,7.1-7.4c3.5,0,6.9,1.7,6.9,5.7
		c0,2.4-1.4,4.4-3.8,5v0.1c2.9,0.5,4.6,2.6,4.6,5.5c0,4.4-3.6,6.8-7.7,6.8c-4.6,0-8-2.8-7.6-7.6H738.4z"/>
	<path fill="#959595" d="M755.1,1218.6h1.9v2.8h0.1c1.1-2,2.8-3.3,5.4-3.3c2.2,0,4.1,1.1,4.7,3.2c1-2.2,3.1-3.2,5.2-3.2
		c3.6,0,5.5,1.9,5.5,5.8v11.2h-2V1224c0-2.7-1-4.2-3.9-4.2c-3.5,0-4.5,2.9-4.5,6v9.3h-2v-11.2c0-2.2-0.9-4.1-3.5-4.1
		c-3.5,0-4.9,2.6-4.9,6.1v9.2h-2V1218.6z"/>
	<path fill="#959595" d="M892.4,1218.4c-0.4-2.5-2.1-4.2-4.7-4.2c-5.2,0-6.2,6-6.2,10h0.1c1.1-2.2,3.4-3.7,6-3.7
		c4.5,0,7.4,3.1,7.4,7.5c0,4.4-3.2,7.6-7.6,7.6c-5.4,0-7.8-3.2-7.8-11.9c0-2.7,0.7-11.2,8-11.2c3.9,0,6.4,2,6.9,5.9H892.4z
		 M882,1228.1c0,3.2,1.7,5.8,5.6,5.8c3.2,0,5.4-2.7,5.4-5.8c0-3.3-2-5.9-5.4-5.9C884,1222.2,882,1224.8,882,1228.1z"/>
	<path fill="#959595" d="M896.1,1218.6h2.1l5.4,14.1l5.1-14.1h2l-7.2,19c-1.2,2.8-1.8,3.6-4.4,3.6c-0.8,0-1.2,0-1.5-0.2v-1.7
		c0.5,0.1,0.9,0.2,1.4,0.2c1.8,0,2.2-1.1,2.9-2.6l0.7-1.9L896.1,1218.6z"/>
	<path fill="#959595" d="M166.6,1295.5h-5l-3.9-15.6h-0.1l-3.8,15.6h-5.1l-6-22.8h5l3.6,15.6h0.1l4-15.6h4.7l3.9,15.7h0.1l3.7-15.7
		h4.9L166.6,1295.5z"/>
	<path fill="#959595" d="M348.3,1277.4c3.5-0.1,5.7-0.2,6.3-4.3h1.6v22.4h-2v-16.6h-5.9V1277.4z"/>
	<path fill="#959595" d="M363.2,1279h2.1l4.2,14.1h0.1l4-14.1h2.3l4,14.1h0.1l4.2-14.1h2.1l-5.3,16.5h-2.2l-4.1-13.9h-0.1l-4,13.9
		h-2.2L363.2,1279z"/>
	<path fill="#959595" d="M476.4,1277.4c3.5-0.1,5.7-0.2,6.3-4.3h1.6v22.4h-2v-16.6h-5.9V1277.4z"/>
	<path fill="#959595" d="M493,1279h1.9v2.8h0.1c1.1-2,2.8-3.3,5.4-3.3c2.2,0,4.1,1.1,4.7,3.2c1-2.2,3.1-3.2,5.2-3.2
		c3.6,0,5.5,1.9,5.5,5.8v11.2h-2v-11.1c0-2.7-1-4.2-3.9-4.2c-3.5,0-4.5,2.9-4.5,6v9.3h-2v-11.2c0-2.2-0.9-4.1-3.5-4.1
		c-3.5,0-4.9,2.6-4.9,6.1v9.2h-2V1279z"/>
	<path fill="#959595" d="M607.4,1288.4c-0.1,3.6,2,5.9,5.6,5.9c2.9,0,5.7-1.8,5.7-5c0-3.2-2.4-4.7-5.4-4.7h-1.7v-1.7h1.7
		c2.1,0,4.5-1.2,4.5-4.1c0-2.9-2.2-4.2-4.9-4.2c-3.4,0-5.2,2.3-5.1,5.7h-2c0-4.2,2.7-7.4,7.1-7.4c3.5,0,6.9,1.7,6.9,5.7
		c0,2.4-1.4,4.4-3.8,5v0.1c2.9,0.5,4.6,2.6,4.6,5.5c0,4.4-3.6,6.8-7.7,6.8c-4.6,0-8-2.8-7.6-7.6H607.4z"/>
	<path fill="#959595" d="M624,1279h1.9v2.8h0.1c1.1-2,2.8-3.3,5.4-3.3c2.2,0,4.1,1.1,4.7,3.2c1-2.2,3.1-3.2,5.2-3.2
		c3.6,0,5.5,1.9,5.5,5.8v11.2h-2v-11.1c0-2.7-1-4.2-3.9-4.2c-3.5,0-4.5,2.9-4.5,6v9.3h-2v-11.2c0-2.2-0.9-4.1-3.5-4.1
		c-3.5,0-4.9,2.6-4.9,6.1v9.2h-2V1279z"/>
	<path fill="#959595" d="M749.5,1278.8c-0.4-2.5-2.1-4.2-4.7-4.2c-5.2,0-6.2,6-6.2,10h0.1c1.1-2.2,3.4-3.7,6-3.7
		c4.5,0,7.4,3.1,7.4,7.5c0,4.4-3.2,7.6-7.6,7.6c-5.4,0-7.8-3.2-7.8-11.9c0-2.7,0.7-11.2,8-11.2c3.9,0,6.4,2,6.9,5.9H749.5z
		 M739.1,1288.5c0,3.2,1.7,5.8,5.6,5.8c3.2,0,5.4-2.7,5.4-5.8c0-3.3-2-5.9-5.4-5.9C741.1,1282.6,739.1,1285.2,739.1,1288.5z"/>
	<path fill="#959595" d="M755.1,1279h1.9v2.8h0.1c1.1-2,2.8-3.3,5.4-3.3c2.2,0,4.1,1.1,4.7,3.2c1-2.2,3.1-3.2,5.2-3.2
		c3.6,0,5.5,1.9,5.5,5.8v11.2h-2v-11.1c0-2.7-1-4.2-3.9-4.2c-3.5,0-4.5,2.9-4.5,6v9.3h-2v-11.2c0-2.2-0.9-4.1-3.5-4.1
		c-3.5,0-4.9,2.6-4.9,6.1v9.2h-2V1279z"/>
	<path fill="#959595" d="M881.4,1277.4c3.5-0.1,5.7-0.2,6.3-4.3h1.6v22.4h-2v-16.6h-5.9V1277.4z"/>
	<path fill="#959595" d="M896.1,1279h2.1l5.4,14.1l5.1-14.1h2l-7.2,19c-1.2,2.8-1.8,3.6-4.4,3.6c-0.8,0-1.2,0-1.5-0.2v-1.7
		c0.5,0.1,0.9,0.2,1.4,0.2c1.8,0,2.2-1.1,2.9-2.6l0.7-1.9L896.1,1279z"/>
	<path fill="#959595" d="M144.8,1333.1h7.1l5.3,15.7h0.1l5.1-15.7h7.1v22.8h-4.7v-16.2h-0.1l-5.6,16.2h-3.9l-5.6-16h-0.1v16h-4.7
		V1333.1z"/>
	<path fill="#959595" d="M345.4,1337.9c3.5-0.1,5.7-0.2,6.3-4.3h1.6v22.4h-2v-16.6h-5.9V1337.9z"/>
	<path fill="#959595" d="M362,1339.4h1.9v2.8h0.1c1.1-2,2.8-3.3,5.4-3.3c2.2,0,4.1,1.1,4.7,3.2c1-2.2,3.1-3.2,5.2-3.2
		c3.6,0,5.5,1.9,5.5,5.8v11.2h-2v-11.1c0-2.7-1-4.2-3.9-4.2c-3.5,0-4.5,2.9-4.5,6v9.3h-2v-11.2c0-2.2-0.9-4.1-3.5-4.1
		c-3.5,0-4.9,2.6-4.9,6.1v9.2h-2V1339.4z"/>
	<path fill="#959595" d="M476.4,1348.8c-0.1,3.6,2,5.9,5.6,5.9c2.9,0,5.7-1.8,5.7-5c0-3.2-2.4-4.7-5.4-4.7h-1.7v-1.7h1.7
		c2.1,0,4.5-1.2,4.5-4.1c0-2.9-2.2-4.2-4.9-4.2c-3.4,0-5.2,2.3-5.1,5.7h-2c0-4.2,2.7-7.4,7.1-7.4c3.5,0,6.9,1.7,6.9,5.7
		c0,2.4-1.4,4.4-3.8,5v0.1c2.9,0.5,4.6,2.6,4.6,5.5c0,4.4-3.6,6.8-7.7,6.8c-4.6,0-8-2.8-7.6-7.6H476.4z"/>
	<path fill="#959595" d="M493,1339.4h1.9v2.8h0.1c1.1-2,2.8-3.3,5.4-3.3c2.2,0,4.1,1.1,4.7,3.2c1-2.2,3.1-3.2,5.2-3.2
		c3.6,0,5.5,1.9,5.5,5.8v11.2h-2v-11.1c0-2.7-1-4.2-3.9-4.2c-3.5,0-4.5,2.9-4.5,6v9.3h-2v-11.2c0-2.2-0.9-4.1-3.5-4.1
		c-3.5,0-4.9,2.6-4.9,6.1v9.2h-2V1339.4z"/>
	<path fill="#959595" d="M618.5,1339.2c-0.4-2.5-2.1-4.2-4.7-4.2c-5.2,0-6.2,6-6.2,10h0.1c1.1-2.2,3.4-3.7,6-3.7
		c4.5,0,7.4,3.1,7.4,7.5c0,4.4-3.2,7.6-7.6,7.6c-5.4,0-7.8-3.2-7.8-11.9c0-2.7,0.7-11.2,8-11.2c3.9,0,6.4,2,6.9,5.9H618.5z
		 M608,1349c0,3.2,1.7,5.8,5.6,5.8c3.2,0,5.4-2.7,5.4-5.8c0-3.3-2-5.9-5.4-5.9C610.1,1343.1,608,1345.7,608,1349z"/>
	<path fill="#959595" d="M624,1339.4h1.9v2.8h0.1c1.1-2,2.8-3.3,5.4-3.3c2.2,0,4.1,1.1,4.7,3.2c1-2.2,3.1-3.2,5.2-3.2
		c3.6,0,5.5,1.9,5.5,5.8v11.2h-2v-11.1c0-2.7-1-4.2-3.9-4.2c-3.5,0-4.5,2.9-4.5,6v9.3h-2v-11.2c0-2.2-0.9-4.1-3.5-4.1
		c-3.5,0-4.9,2.6-4.9,6.1v9.2h-2V1339.4z"/>
	<path fill="#959595" d="M750.3,1337.9c3.5-0.1,5.7-0.2,6.3-4.3h1.6v22.4h-2v-16.6h-5.9V1337.9z"/>
	<path fill="#959595" d="M765.1,1339.4h2.1l5.4,14.1l5.1-14.1h2l-7.2,19c-1.2,2.8-1.8,3.6-4.4,3.6c-0.8,0-1.2,0-1.5-0.2v-1.7
		c0.5,0.1,0.9,0.2,1.4,0.2c1.8,0,2.2-1.1,2.9-2.6l0.7-1.9L765.1,1339.4z"/>
	<path fill="#959595" d="M894.2,1355.9h-14.8c0.2-6.7,7-8.3,10.8-12.1c1.2-1.2,1.9-2.4,1.9-4.2c0-2.9-2.3-4.6-5-4.6
		c-3.7,0-5.1,2.9-5.1,6.2h-2c-0.1-4.6,2.3-7.9,7.2-7.9c3.9,0,6.9,2.1,6.9,6.3c0,3.7-2.7,6.1-5.6,8c-2.2,1.5-6.2,3.5-6.7,6.5h12.4
		V1355.9z"/>
	<path fill="#959595" d="M896.1,1339.4h2.1l5.4,14.1l5.1-14.1h2l-7.2,19c-1.2,2.8-1.8,3.6-4.4,3.6c-0.8,0-1.2,0-1.5-0.2v-1.7
		c0.5,0.1,0.9,0.2,1.4,0.2c1.8,0,2.2-1.1,2.9-2.6l0.7-1.9L896.1,1339.4z"/>
	<path fill="#959595" d="M150.7,1407.5l-8.4-14h5.7l5.3,9l5.3-9h5.6l-8.5,14.1v8.8h-5V1407.5z"/>
	<path fill="#959595" d="M357.2,1398.3c3.5-0.1,5.7-0.2,6.3-4.3h1.6v22.4h-2v-16.6h-5.9V1398.3z"/>
	<path fill="#959595" d="M371.9,1399.9h2.1l5.4,14.1l5.1-14.1h2l-7.2,19c-1.2,2.8-1.8,3.6-4.4,3.6c-0.8,0-1.2,0-1.5-0.2v-1.7
		c0.5,0.1,0.9,0.2,1.4,0.2c1.8,0,2.2-1.1,2.9-2.6l0.7-1.9L371.9,1399.9z"/>
	<path fill="#959595" d="M501,1416.4h-14.8c0.2-6.7,7-8.3,10.8-12.1c1.2-1.2,1.9-2.4,1.9-4.2c0-2.9-2.3-4.6-5-4.6
		c-3.7,0-5.1,2.9-5.1,6.2h-2c-0.1-4.6,2.3-7.9,7.2-7.9c3.9,0,6.9,2.1,6.9,6.3c0,3.7-2.7,6.1-5.6,8c-2.2,1.5-6.2,3.5-6.7,6.5H501
		V1416.4z"/>
	<path fill="#959595" d="M503,1399.9h2.1l5.4,14.1l5.1-14.1h2l-7.2,19c-1.2,2.8-1.8,3.6-4.4,3.6c-0.8,0-1.2,0-1.5-0.2v-1.7
		c0.5,0.1,0.9,0.2,1.4,0.2c1.8,0,2.2-1.1,2.9-2.6l0.7-1.9L503,1399.9z"/>
	<path fill="#959595" d="M619.3,1410c0.1,3.1,2.4,5.2,5.5,5.2c3.5,0,5.6-2.8,5.6-6.1c0-3.3-2.4-5.8-5.7-5.8c-2,0-3.9,1-5,2.7H618
		l2.2-11.6h11.2v1.9h-9.8l-1.4,7.4l0.1,0.1c1.1-1.3,3-2.1,4.7-2.1c4.6,0,7.5,3.2,7.5,7.7c0,4.4-3.5,7.6-7.8,7.6
		c-4.2,0-7.3-2.6-7.4-6.9H619.3z"/>
	<path fill="#959595" d="M634,1399.9h2.1l5.4,14.1l5.1-14.1h2l-7.2,19c-1.2,2.8-1.8,3.6-4.4,3.6c-0.8,0-1.2,0-1.5-0.2v-1.7
		c0.5,0.1,0.9,0.2,1.4,0.2c1.8,0,2.2-1.1,2.9-2.6l0.7-1.9L634,1399.9z"/>
	<path fill="#959595" d="M732.5,1398.3c3.5-0.1,5.7-0.2,6.3-4.3h1.6v22.4h-2v-16.6h-5.9V1398.3z"/>
	<path fill="#959595" d="M763.9,1405.3c0,5.2-1.3,11.6-7.8,11.6c-6.5,0-7.8-6.3-7.8-11.5c0-5.2,1.3-11.6,7.8-11.6
		C762.6,1393.8,763.9,1400.1,763.9,1405.3z M750.3,1405.3c0,3.9,0.7,9.9,5.8,9.9s5.8-6,5.8-9.9c0-3.9-0.7-9.8-5.8-9.8
		S750.3,1401.4,750.3,1405.3z"/>
	<path fill="#959595" d="M765.1,1399.9h2.1l5.4,14.1l5.1-14.1h2l-7.2,19c-1.2,2.8-1.8,3.6-4.4,3.6c-0.8,0-1.2,0-1.5-0.2v-1.7
		c0.5,0.1,0.9,0.2,1.4,0.2c1.8,0,2.2-1.1,2.9-2.6l0.7-1.9L765.1,1399.9z"/>
	<path fill="#959595" d="M876.4,1416.4h-14.8c0.2-6.7,7-8.3,10.8-12.1c1.2-1.2,1.9-2.4,1.9-4.2c0-2.9-2.3-4.6-5-4.6
		c-3.7,0-5.1,2.9-5.1,6.2h-2c-0.1-4.6,2.3-7.9,7.2-7.9c3.9,0,6.9,2.1,6.9,6.3c0,3.7-2.7,6.1-5.6,8c-2.2,1.5-6.2,3.5-6.7,6.5h12.4
		V1416.4z"/>
	<path fill="#959595" d="M895,1405.3c0,5.2-1.3,11.6-7.8,11.6c-6.5,0-7.8-6.3-7.8-11.5c0-5.2,1.3-11.6,7.8-11.6
		C893.7,1393.8,895,1400.1,895,1405.3z M881.4,1405.3c0,3.9,0.7,9.9,5.8,9.9s5.8-6,5.8-9.9c0-3.9-0.7-9.8-5.8-9.8
		S881.4,1401.4,881.4,1405.3z"/>
	<path fill="#959595" d="M896.1,1399.9h2.1l5.4,14.1l5.1-14.1h2l-7.2,19c-1.2,2.8-1.8,3.6-4.4,3.6c-0.8,0-1.2,0-1.5-0.2v-1.7
		c0.5,0.1,0.9,0.2,1.4,0.2c1.8,0,2.2-1.1,2.9-2.6l0.7-1.9L896.1,1399.9z"/>
</g>
<g>
	<g>
		<path fill="#959595" d="M1625.3,1181.6v75.2h-180.8v-75.2H1625.3 M1626.3,1180.6h-182.8v77.2h182.8V1180.6L1626.3,1180.6z"/>
	</g>
</g>
<g>
	<g>
		<path fill="#959595" d="M1625.3,1280.7v75.2h-180.8v-75.2H1625.3 M1626.3,1279.7h-182.8v77.2h182.8V1279.7L1626.3,1279.7z"/>
	</g>
</g>
<g>
	<path fill="#959595" d="M1162.1,1218.6c0.2-3.9,2.9-5.5,6.7-5.5c2.9,0,6.1,0.9,6.1,5.3v8.8c0,0.8,0.4,1.2,1.2,1.2
		c0.2,0,0.5-0.1,0.6-0.1v1.7c-0.4,0.1-0.8,0.1-1.3,0.1c-2,0-2.4-1.2-2.4-2.9h-0.1c-1.4,2.1-2.8,3.4-6,3.4c-3,0-5.5-1.5-5.5-4.8
		c0-4.6,4.5-4.8,8.9-5.3c1.7-0.2,2.6-0.4,2.6-2.2c0-2.7-2-3.4-4.3-3.4c-2.5,0-4.4,1.2-4.4,3.8H1162.1z M1172.8,1221L1172.8,1221
		c-0.3,0.5-1.2,0.6-1.8,0.7c-3.4,0.6-7.7,0.6-7.7,3.8c0,2,1.8,3.3,3.7,3.3c3.1,0,5.8-2,5.8-5.2V1221z"/>
	<path fill="#959595" d="M1192.3,1230h-1.9v-3h-0.1c-1.1,2.2-3.2,3.5-5.7,3.5c-4.2,0-5.8-2.4-5.8-6.3v-10.7h2v10.8
		c0.1,3,1.2,4.5,4.4,4.5c3.5,0,5-3.3,5-6.6v-8.7h2V1230z"/>
	<path fill="#959595" d="M1199.3,1213.5h3.4v1.7h-3.4v11.1c0,1.3,0.2,2.1,1.6,2.2c0.6,0,1.2,0,1.7-0.1v1.7c-0.6,0-1.2,0.1-1.8,0.1
		c-2.7,0-3.6-0.9-3.6-3.7v-11.3h-2.9v-1.7h2.9v-5h2V1213.5z"/>
	<path fill="#959595" d="M1220.3,1221.8c0,4.7-2.8,8.7-7.8,8.7s-7.8-4-7.8-8.7c0-4.7,2.8-8.7,7.8-8.7S1220.3,1217,1220.3,1221.8z
		 M1206.7,1221.8c0,3.5,1.9,7,5.8,7c3.9,0,5.8-3.5,5.8-7c0-3.5-1.9-7-5.8-7C1208.6,1214.7,1206.7,1218.3,1206.7,1221.8z"/>
</g>
<g>
	<path fill="#959595" d="M1174.1,1308.7h2v22.8h-2V1308.7z"/>
	<path fill="#959595" d="M1194.8,1323.3c0,4.7-2.8,8.7-7.8,8.7s-7.8-4-7.8-8.7s2.8-8.7,7.8-8.7S1194.8,1318.5,1194.8,1323.3z
		 M1181.2,1323.3c0,3.5,1.9,7,5.8,7c3.9,0,5.8-3.5,5.8-7s-1.9-7-5.8-7C1183.1,1316.2,1181.2,1319.8,1181.2,1323.3z"/>
	<path fill="#959595" d="M1211.7,1330.2c0,4.9-1.9,7.9-7.3,7.9c-3.3,0-6.6-1.5-6.8-5h2c0.4,2.4,2.6,3.3,4.8,3.3
		c3.7,0,5.3-2.2,5.3-6.2v-2.2h-0.1c-0.9,2-2.9,3.4-5.2,3.4c-5.3,0-7.5-3.8-7.5-8.5c0-4.5,2.7-8.3,7.5-8.3c2.4,0,4.4,1.5,5.2,3.3h0.1
		v-2.8h2V1330.2z M1209.7,1323.1c0-3.2-1.5-6.8-5.3-6.8c-3.8,0-5.4,3.4-5.4,6.8c0,3.3,1.7,6.6,5.4,6.6
		C1207.9,1329.7,1209.7,1326.5,1209.7,1323.1z"/>
</g>
<g>
	<path fill="#959595" d="M1111,1126h2.4l9,22.8h-2.3l-2.8-7.1h-10.4l-2.8,7.1h-2.3L1111,1126z M1107.6,1139.9h9l-4.4-11.7
		L1107.6,1139.9z"/>
	<path fill="#959595" d="M1128.6,1140.3l-5.9-7.9h2.5l4.7,6.3l4.6-6.3h2.5l-6,7.9l6.4,8.6h-2.6l-5.2-6.9l-5.1,6.9h-2.5
		L1128.6,1140.3z"/>
	<path fill="#959595" d="M1140.7,1141.1c0,2.9,1.6,6.5,5.4,6.5c2.9,0,4.5-1.7,5.2-4.2h2c-0.9,3.7-3,5.9-7.2,5.9
		c-5.2,0-7.5-4-7.5-8.7c0-4.4,2.2-8.7,7.5-8.7c5.3,0,7.4,4.6,7.3,9.3H1140.7z M1151.4,1139.4c-0.1-3-2-5.9-5.2-5.9
		c-3.3,0-5.1,2.9-5.4,5.9H1151.4z"/>
	<path fill="#959595" d="M1166,1137.2c-0.1-2.5-2-3.6-4.3-3.6c-1.8,0-3.9,0.7-3.9,2.8c0,1.8,2,2.4,3.4,2.8l2.7,0.6
		c2.3,0.4,4.7,1.7,4.7,4.6c0,3.6-3.6,5-6.6,5c-3.8,0-6.5-1.8-6.8-5.8h2c0.2,2.7,2.2,4.1,4.9,4.1c1.9,0,4.5-0.8,4.5-3.1
		c0-1.9-1.8-2.6-3.6-3l-2.6-0.6c-2.6-0.7-4.6-1.6-4.6-4.4c0-3.4,3.3-4.6,6.2-4.6c3.3,0,5.9,1.7,6,5.3H1166z"/>
</g>
<g>
	<g>
		<path fill="#959595" d="M1283.8,1181.6v75.2H1103v-75.2H1283.8 M1284.8,1180.6H1102v77.2h182.8V1180.6L1284.8,1180.6z"/>
	</g>
</g>
<g>
	<g>
		<path fill="#959595" d="M1283.8,1280.7v75.2H1103v-75.2H1283.8 M1284.8,1279.7H1102v77.2h182.8V1279.7L1284.8,1279.7z"/>
	</g>
</g>
<g>
	<path fill="#959595" d="M1191,1407.9c0,3.4-1.5,6-5.1,6c-3.6,0-5.1-2.6-5.1-6s1.5-6,5.1-6C1189.6,1401.9,1191,1404.5,1191,1407.9z
		 M1182.6,1408c0,2,0.7,4.6,3.4,4.6c2.7,0,3.4-2.6,3.4-4.6c0-2-0.7-4.6-3.4-4.6C1183.3,1403.3,1182.6,1405.9,1182.6,1408z
		 M1199.2,1401.3h1.5l-14.5,24.3h-1.5L1199.2,1401.3z M1205.1,1418.9c0,3.4-1.5,6-5.1,6c-3.6,0-5.1-2.6-5.1-6s1.5-6,5.1-6
		C1203.6,1412.9,1205.1,1415.5,1205.1,1418.9z M1196.6,1419c0,2,0.7,4.6,3.4,4.6c2.7,0,3.4-2.6,3.4-4.6c0-2-0.7-4.6-3.4-4.6
		C1197.3,1414.3,1196.6,1416.9,1196.6,1419z"/>
</g>
<g>
	<g>
		<path fill="#959595" d="M1283.8,1381.9v75.2H1103v-75.2H1283.8 M1284.8,1380.9H1102v77.2h182.8V1380.9L1284.8,1380.9z"/>
	</g>
</g>
<polyline fill="none" stroke="#959595" stroke-width="2" stroke-miterlimit="10" points="74.6,687.3 145.1,732.6 271.7,744.7 
	286.2,725.3 328.9,730.6 381.2,753.5 464,724.3 536.1,744.7 578.9,687.3 602.4,681.6 624.8,693 698.5,675.3 716.7,687.8 
	736.2,652.4 772.6,657.3 809.6,774.4 832.1,763.9 847,826.5 868.4,831.7 880.6,744.7 903.7,742 940.1,729.4 980.1,742 1013.8,746.8 
	1035.4,728.5 1073.2,727.1 1090.3,693.7 1128,711.1 1147.2,600.6 1183.6,595.7 1202.1,618.7 1239.8,595.7 1277.5,563 1311.5,544.3 
	1354,540.2 1388.7,535.9 1427.3,547.1 1462,535.9 1484.8,549.9 1503.3,505.4 1539,502 1568.7,481 1573.7,618.7 1594.3,612.4 
	1613.7,630.5 1632.2,599.2 1650.8,593.6 1667.9,647.8 1686.4,646.5 1706.3,568.6 1722.7,571.4 1743.4,568.6 1779.7,687.3 "/>
<g>
</g>
<g>
</g>
<g>
</g>
<g>
</g>
<g>
</g>
<g>
</g>
<g>
</g>
<g>
</g>
<g>
</g>
<g>
</g>
<g>
</g>
<g>
</g>
<g>
</g>
<g>
</g>
<g>
</g>
</svg>
