<?xml version="1.0" encoding="utf-8"?>
<!-- Generator: Adobe Illustrator 18.0.0, SVG Export Plug-In . SVG Version: 6.00 Build 0)  -->
<!DOCTYPE svg PUBLIC "-//W3C//DTD SVG 1.1//EN" "http://www.w3.org/Graphics/SVG/1.1/DTD/svg11.dtd">
<svg version="1.1" id="Layer_1" xmlns="http://www.w3.org/2000/svg" xmlns:xlink="http://www.w3.org/1999/xlink" x="0px" y="0px"
	 viewBox="0 0 2084.6 1592.2" enable-background="new 0 0 2084.6 1592.2" xml:space="preserve">
<rect x="74.1" y="1006.4" opacity="0.1" fill="#C2D3D1" width="1705.8" height="585.9"/>
<rect x="74.1" y="126.8" opacity="0.1" fill="#C2D3D1" width="1706.8" height="132.2"/>
<g>
	<path fill="#37474F" d="M1201.2,182h10.8c4.4,0,7.3,1.4,7.3,5.7c0,2.2-1.1,3.8-3.1,4.8c2.8,0.8,4.2,2.9,4.2,5.8
		c0,4.6-3.9,6.6-8.1,6.6h-11.1V182z M1206.2,191.3h5.1c1.8,0,3.1-0.8,3.1-2.7c0-2.2-1.7-2.6-3.5-2.6h-4.7V191.3z M1206.2,201h5.4
		c2,0,3.7-0.6,3.7-3c0-2.3-1.5-3.3-3.6-3.3h-5.5V201z"/>
	<path fill="#37474F" d="M1223.7,182h5v22.8h-5V182z"/>
	<path fill="#37474F" d="M1238.2,186.3h-6.8V182h18.7v4.2h-6.8v18.6h-5V186.3z"/>
	<path fill="#37474F" d="M1268,189.7c-0.3-2.3-2.5-4-5-4c-4.5,0-6.2,3.8-6.2,7.8c0,3.8,1.7,7.6,6.2,7.6c3.1,0,4.8-2.1,5.2-5.1h4.9
		c-0.5,5.7-4.4,9.3-10,9.3c-7.1,0-11.2-5.3-11.2-11.9c0-6.8,4.2-12.1,11.2-12.1c5,0,9.2,2.9,9.9,8.2H1268z"/>
	<path fill="#37474F" d="M1286.7,181.5c7.1,0,11.2,5.3,11.2,12.1c0,6.6-4.2,11.9-11.2,11.9c-7.1,0-11.2-5.3-11.2-11.9
		C1275.4,186.8,1279.6,181.5,1286.7,181.5z M1286.7,201.2c4.5,0,6.2-3.8,6.2-7.6c0-4-1.7-7.8-6.2-7.8s-6.2,3.8-6.2,7.8
		C1280.5,197.4,1282.2,201.2,1286.7,201.2z"/>
	<path fill="#37474F" d="M1301.3,182h5v22.8h-5V182z"/>
	<path fill="#37474F" d="M1310.8,182h5l9.5,15.3h0.1V182h4.7v22.8h-5l-9.5-15.3h-0.1v15.3h-4.7V182z"/>
	<path fill="#37474F" d="M1358.6,189.7c-0.3-2.3-2.5-4-5-4c-4.5,0-6.2,3.8-6.2,7.8c0,3.8,1.7,7.6,6.2,7.6c3.1,0,4.8-2.1,5.2-5.1h4.9
		c-0.5,5.7-4.4,9.3-10,9.3c-7.1,0-11.2-5.3-11.2-11.9c0-6.8,4.2-12.1,11.2-12.1c5,0,9.2,2.9,9.9,8.2H1358.6z"/>
	<path fill="#37474F" d="M1377.3,181.5c7.1,0,11.2,5.3,11.2,12.1c0,6.6-4.2,11.9-11.2,11.9c-7.1,0-11.2-5.3-11.2-11.9
		C1366.1,186.8,1370.3,181.5,1377.3,181.5z M1377.3,201.2c4.5,0,6.2-3.8,6.2-7.6c0-4-1.7-7.8-6.2-7.8s-6.2,3.8-6.2,7.8
		C1371.1,197.4,1372.8,201.2,1377.3,201.2z"/>
	<path fill="#37474F" d="M1392,182h7.1l5.3,15.7h0.1l5.1-15.7h7.1v22.8h-4.7v-16.2h-0.1l-5.6,16.2h-3.9l-5.6-16h-0.1v16h-4.7V182z"
		/>
	<path fill="#37474F" d="M1421,182h10.3c5.7,0,7.9,3.6,7.9,7.3c0,3.7-2.2,7.3-7.9,7.3h-5.3v8.2h-5V182z M1426,192.8h3.9
		c2.3,0,4.4-0.5,4.4-3.4c0-2.9-2.1-3.4-4.4-3.4h-3.9V192.8z"/>
	<path fill="#37474F" d="M1437.9,200h5v4.9h-5V200z"/>
	<path fill="#37474F" d="M1456,182h12.3c4.1,0,6.7,2.8,6.7,6.3c0,2.7-1.1,4.7-3.6,5.7v0.1c2.5,0.6,3.2,3,3.3,5.3
		c0.1,1.4,0.1,4.1,1,5.4h-5c-0.6-1.4-0.5-3.6-0.8-5.5c-0.4-2.4-1.3-3.5-3.8-3.5h-5v8.9h-5V182z M1461,192.4h5.5c2.2,0,3.5-1,3.5-3.3
		c0-2.2-1.2-3.2-3.5-3.2h-5.5V192.4z"/>
	<path fill="#37474F" d="M1479.1,182h5v22.8h-5V182z"/>
	<path fill="#37474F" d="M1492,197.3c0,3,2.4,4.2,5.1,4.2c1.8,0,4.4-0.5,4.4-2.8c0-2.5-3.4-2.9-6.8-3.8c-3.4-0.9-6.8-2.2-6.8-6.5
		c0-4.7,4.4-6.9,8.5-6.9c4.8,0,9.2,2.1,9.2,7.4h-4.9c-0.2-2.8-2.1-3.5-4.5-3.5c-1.6,0-3.5,0.7-3.5,2.6c0,1.8,1.1,2,6.8,3.5
		c1.7,0.4,6.8,1.5,6.8,6.7c0,4.2-3.3,7.3-9.5,7.3c-5.1,0-9.8-2.5-9.7-8.1H1492z"/>
	<path fill="#37474F" d="M1509.3,182h5v9.5l8.9-9.5h6.3l-8.9,9l9.8,13.8h-6.3l-6.9-10.3l-2.9,2.9v7.4h-5V182z"/>
	<path fill="#37474F" d="M1541.3,182h5v22.8h-5V182z"/>
	<path fill="#37474F" d="M1550.8,182h5l9.5,15.3h0.1V182h4.7v22.8h-5l-9.5-15.3h-0.1v15.3h-4.7V182z"/>
	<path fill="#37474F" d="M1574.5,182h9.9c5.9,0,10.4,3.7,10.4,11.3c0,6.6-3.4,11.6-10.4,11.6h-9.9V182z M1579.5,200.7h4.5
		c2.9,0,5.7-1.8,5.7-6.8c0-4.6-1.6-7.6-6.6-7.6h-3.6V200.7z"/>
	<path fill="#37474F" d="M1598.2,182h17.1v4.2h-12.1v4.9h11.1v3.9h-11.1v5.6h12.3v4.2h-17.3V182z"/>
	<path fill="#37474F" d="M1624.5,192.9l-7.4-10.9h5.8l4.5,7.3l4.6-7.3h5.5l-7.3,10.9l8,11.9h-6l-5-7.9l-5.1,7.9h-5.7L1624.5,192.9z"
		/>
	<path fill="#37474F" d="M1656.7,181.5c-2.4,4.5-3.5,9.5-3.5,14.5c0,5.1,1.1,10.1,3.5,14.7h-3.8c-2.6-4.4-4.2-9.4-4.2-14.4
		c0-4.8,1.4-10.8,4.2-14.8H1656.7z"/>
	<path fill="#37474F" d="M1658.6,182h10.8c4.4,0,7.3,1.4,7.3,5.7c0,2.2-1.1,3.8-3.1,4.8c2.8,0.8,4.2,2.9,4.2,5.8
		c0,4.6-3.9,6.6-8.1,6.6h-11.1V182z M1663.7,191.3h5.1c1.8,0,3.1-0.8,3.1-2.7c0-2.2-1.7-2.6-3.5-2.6h-4.7V191.3z M1663.7,201h5.4
		c2,0,3.7-0.6,3.7-3c0-2.3-1.5-3.3-3.6-3.3h-5.5V201z"/>
	<path fill="#37474F" d="M1696.4,189.7c-0.3-2.3-2.5-4-5-4c-4.5,0-6.2,3.8-6.2,7.8c0,3.8,1.7,7.6,6.2,7.6c3.1,0,4.8-2.1,5.2-5.1h4.9
		c-0.5,5.7-4.4,9.3-10,9.3c-7.1,0-11.2-5.3-11.2-11.9c0-6.8,4.2-12.1,11.2-12.1c5,0,9.2,2.9,9.9,8.2H1696.4z"/>
	<path fill="#37474F" d="M1704.9,182h12.3c4.1,0,6.7,2.8,6.7,6.3c0,2.7-1.1,4.7-3.6,5.7v0.1c2.5,0.6,3.2,3,3.3,5.3
		c0.1,1.4,0.1,4.1,1,5.4h-5c-0.6-1.4-0.5-3.6-0.8-5.5c-0.4-2.4-1.3-3.5-3.8-3.5h-5v8.9h-5V182z M1709.9,192.4h5.5
		c2.2,0,3.5-1,3.5-3.3c0-2.2-1.2-3.2-3.5-3.2h-5.5V192.4z"/>
	<path fill="#37474F" d="M1728,182h5v22.8h-5V182z"/>
	<path fill="#37474F" d="M1735,210.7c2.4-4.5,3.5-9.5,3.5-14.5c0-5.1-1.1-10.1-3.5-14.8h3.8c2.6,4.4,4.2,9.4,4.2,14.4
		c0,4.8-1.4,10.8-4.2,14.8H1735z"/>
</g>
<g>
	<g>
		<path fill="#343F3F" d="M97.4,51.5h-11L72,7.2h10l9.9,31.1h0.1l10-31.1h10L97.4,51.5z"/>
		<path fill="#343F3F" d="M124,14.4h-8.8V7.2h8.8V14.4z M115.2,19.4h8.8v32.1h-8.8V19.4z"/>
		<path fill="#343F3F" d="M137.8,41c0.1,3.8,3.3,5.4,6.8,5.4c2.5,0,5.8-1,5.8-4.1c0-2.7-3.7-3.6-10-5c-5.1-1.1-10.2-2.9-10.2-8.6
			c0-8.2,7.1-10.3,13.9-10.3c7,0,13.5,2.4,14.1,10.2h-8.4c-0.2-3.4-2.9-4.3-6-4.3c-2,0-4.9,0.4-4.9,3c0,3.2,5,3.6,10,4.8
			c5.1,1.2,10.2,3,10.2,9c0,8.4-7.3,11.2-14.6,11.2c-7.4,0-14.7-2.8-15.1-11.3H137.8z"/>
		<path fill="#343F3F" d="M194.3,51.5h-8.4V47h-0.2c-2.2,3.6-6.1,5.3-9.8,5.3c-9.4,0-11.7-5.3-11.7-13.2V19.4h8.8v18.1
			c0,5.3,1.5,7.9,5.6,7.9c4.8,0,6.8-2.7,6.8-9.2V19.4h8.8V51.5z"/>
		<path fill="#343F3F" d="M200.6,29.3c0.5-8.2,7.9-10.7,15.1-10.7c6.4,0,14.1,1.4,14.1,9.1v16.7c0,2.9,0.3,5.8,1.1,7.1H222
			c-0.3-1-0.6-2-0.6-3.1c-2.8,2.9-6.9,4-10.8,4c-6.1,0-10.9-3-10.9-9.6c0-7.3,5.5-9,10.9-9.7c5.4-0.8,10.4-0.6,10.4-4.2
			c0-3.8-2.6-4.3-5.7-4.3c-3.3,0-5.5,1.4-5.8,4.8H200.6z M221,35.8c-1.5,1.3-4.6,1.4-7.3,1.9c-2.7,0.6-5.2,1.5-5.2,4.7
			c0,3.3,2.5,4.1,5.4,4.1c6.9,0,7.1-5.5,7.1-7.4V35.8z"/>
		<path fill="#343F3F" d="M236.8,7.2h8.8v44.3h-8.8V7.2z"/>
		<path fill="#343F3F" d="M261.6,14.4h-8.8V7.2h8.8V14.4z M252.8,19.4h8.8v32.1h-8.8V19.4z"/>
		<path fill="#343F3F" d="M275.4,41c0.1,3.8,3.3,5.4,6.8,5.4c2.5,0,5.8-1,5.8-4.1c0-2.7-3.7-3.6-10-5c-5.1-1.1-10.2-2.9-10.2-8.6
			c0-8.2,7.1-10.3,13.9-10.3c7,0,13.5,2.4,14.1,10.2h-8.4c-0.2-3.4-2.9-4.3-6-4.3c-2,0-4.9,0.4-4.9,3c0,3.2,5,3.6,10,4.8
			c5.1,1.2,10.2,3,10.2,9c0,8.4-7.3,11.2-14.6,11.2c-7.4,0-14.7-2.8-15.1-11.3H275.4z"/>
		<path fill="#343F3F" d="M309.1,37.6c0.2,5.6,3,8.1,7.9,8.1c3.5,0,6.4-2.2,6.9-4.2h7.7c-2.5,7.6-7.7,10.8-15,10.8
			c-10.1,0-16.4-6.9-16.4-16.9c0-9.6,6.6-16.9,16.4-16.9c10.9,0,16.2,9.2,15.6,19H309.1z M323.5,32c-0.8-4.5-2.7-6.8-7-6.8
			c-5.6,0-7.2,4.3-7.3,6.8H323.5z"/>
	</g>
</g>
<g>
	<g>
		<path fill="#37474F" d="M3.1,754.4c3.5-0.1,5.7-0.2,6.3-4.3H11v22.4H9v-16.6H3.1V754.4z"/>
		<path fill="#37474F" d="M21,766.1c0.1,3.1,2.4,5.2,5.5,5.2c3.5,0,5.6-2.8,5.6-6.1c0-3.3-2.4-5.8-5.7-5.8c-2,0-3.9,1-5,2.7h-1.7
			l2.2-11.6H33v1.9h-9.8l-1.4,7.4l0.1,0.1c1.1-1.3,3-2.1,4.7-2.1c4.6,0,7.5,3.2,7.5,7.7c0,4.4-3.5,7.6-7.8,7.6
			c-4.2,0-7.3-2.6-7.4-6.9H21z"/>
		<path fill="#37474F" d="M52.3,761.4c0,5.2-1.3,11.6-7.8,11.6c-6.5,0-7.8-6.3-7.8-11.5c0-5.2,1.3-11.6,7.8-11.6
			C51,749.9,52.3,756.2,52.3,761.4z M38.7,761.4c0,3.9,0.7,9.9,5.8,9.9s5.8-6,5.8-9.9c0-3.9-0.7-9.8-5.8-9.8S38.7,757.5,38.7,761.4z
			"/>
	</g>
</g>
<g>
	<g>
		<path fill="#37474F" d="M3.1,996.4c3.5-0.1,5.7-0.2,6.3-4.3H11v22.4H9v-16.6H3.1V996.4z"/>
		<path fill="#37474F" d="M34.5,1003.4c0,5.2-1.3,11.6-7.8,11.6c-6.5,0-7.8-6.3-7.8-11.5c0-5.2,1.3-11.6,7.8-11.6
			C33.2,991.9,34.5,998.2,34.5,1003.4z M20.9,1003.4c0,3.9,0.7,9.9,5.8,9.9s5.8-6,5.8-9.9c0-3.9-0.7-9.8-5.8-9.8
			S20.9,999.5,20.9,1003.4z"/>
		<path fill="#37474F" d="M52.3,1003.4c0,5.2-1.3,11.6-7.8,11.6c-6.5,0-7.8-6.3-7.8-11.5c0-5.2,1.3-11.6,7.8-11.6
			C51,991.9,52.3,998.2,52.3,1003.4z M38.7,1003.4c0,3.9,0.7,9.9,5.8,9.9s5.8-6,5.8-9.9c0-3.9-0.7-9.8-5.8-9.8
			S38.7,999.5,38.7,1003.4z"/>
	</g>
</g>
<g>
	<g>
		<path fill="#8FA3AD" d="M102.4,1053.1h2.2v16.5c0,4.6-1.7,6.8-6.7,6.8c-5.2,0-6.4-3.8-6.4-7.8h2.2c0.1,2-0.1,6,4.4,6
			c3.4,0,4.3-1.7,4.3-5.9V1053.1z"/>
		<path fill="#8FA3AD" d="M108.6,1064.5c0.2-3.9,2.9-5.5,6.7-5.5c2.9,0,6.1,0.9,6.1,5.3v8.8c0,0.8,0.4,1.2,1.2,1.2
			c0.2,0,0.5-0.1,0.6-0.1v1.7c-0.4,0.1-0.8,0.1-1.3,0.1c-2,0-2.4-1.2-2.4-2.9h-0.1c-1.4,2.1-2.8,3.4-6,3.4c-3,0-5.5-1.5-5.5-4.8
			c0-4.6,4.5-4.8,8.9-5.3c1.7-0.2,2.6-0.4,2.6-2.2c0-2.7-2-3.4-4.3-3.4c-2.5,0-4.4,1.2-4.4,3.8H108.6z M119.4,1066.9L119.4,1066.9
			c-0.3,0.5-1.2,0.6-1.8,0.7c-3.4,0.6-7.7,0.6-7.7,3.8c0,2,1.8,3.3,3.7,3.3c3.1,0,5.8-2,5.8-5.2V1066.9z"/>
		<path fill="#8FA3AD" d="M125.4,1059.4h2v2.8h0.1c0.7-2,2.9-3.3,5.3-3.3c4.6,0,6,2.4,6,6.4v10.6h-2v-10.3c0-2.8-0.9-5-4.2-5
			c-3.2,0-5.1,2.4-5.2,5.7v9.6h-2V1059.4z"/>
	</g>
</g>
<g>
	<g>
		<path fill="#37474F" d="M1809.3,813.1c3.5-0.1,5.7-0.2,6.3-4.3h1.6v22.4h-2v-16.6h-5.9V813.1z"/>
		<path fill="#37474F" d="M1827,824.1c-0.1,3.6,2,5.9,5.6,5.9c2.9,0,5.7-1.8,5.7-5c0-3.2-2.4-4.7-5.4-4.7h-1.7v-1.7h1.7
			c2.1,0,4.5-1.2,4.5-4.1c0-2.9-2.2-4.2-4.9-4.2c-3.4,0-5.2,2.3-5.1,5.7h-2c0-4.2,2.7-7.4,7.1-7.4c3.5,0,6.9,1.7,6.9,5.7
			c0,2.4-1.4,4.4-3.8,5v0.1c2.9,0.5,4.6,2.6,4.6,5.5c0,4.4-3.6,6.8-7.7,6.8c-4.6,0-8-2.8-7.6-7.6H1827z"/>
		<path fill="#37474F" d="M1844.8,824.1c-0.1,3.6,2,5.9,5.6,5.9c2.9,0,5.7-1.8,5.7-5c0-3.2-2.4-4.7-5.4-4.7h-1.7v-1.7h1.7
			c2.1,0,4.5-1.2,4.5-4.1c0-2.9-2.2-4.2-4.9-4.2c-3.4,0-5.2,2.3-5.1,5.7h-2c0-4.2,2.7-7.4,7.1-7.4c3.5,0,6.9,1.7,6.9,5.7
			c0,2.4-1.4,4.4-3.8,5v0.1c2.9,0.5,4.6,2.6,4.6,5.5c0,4.4-3.6,6.8-7.7,6.8c-4.6,0-8-2.8-7.6-7.6H1844.8z"/>
	</g>
</g>
<g>
	<g>
		<path fill="#37474F" d="M1822.1,501.5h-14.8c0.2-6.7,7-8.3,10.8-12.1c1.2-1.2,1.9-2.4,1.9-4.2c0-2.9-2.3-4.6-5-4.6
			c-3.7,0-5.1,2.9-5.1,6.2h-2c-0.1-4.6,2.3-7.9,7.2-7.9c3.9,0,6.9,2.1,6.9,6.3c0,3.7-2.7,6.1-5.6,8c-2.2,1.5-6.2,3.5-6.7,6.5h12.4
			V501.5z"/>
		<path fill="#37474F" d="M1840.7,490.4c0,5.2-1.3,11.6-7.8,11.6s-7.8-6.3-7.8-11.5c0-5.2,1.3-11.6,7.8-11.6
			S1840.7,485.2,1840.7,490.4z M1827.1,490.4c0,3.9,0.7,9.9,5.8,9.9s5.8-6,5.8-9.9c0-3.9-0.7-9.8-5.8-9.8S1827.1,486.5,1827.1,490.4
			z"/>
		<path fill="#37474F" d="M1844.9,495.1c0.1,3.1,2.4,5.2,5.5,5.2c3.5,0,5.6-2.8,5.6-6.1c0-3.3-2.4-5.8-5.7-5.8c-2,0-3.9,1-5,2.7
			h-1.7l2.2-11.6h11.2v1.9h-9.8l-1.4,7.4l0.1,0.1c1.1-1.3,3-2.1,4.7-2.1c4.6,0,7.5,3.2,7.5,7.7c0,4.4-3.5,7.6-7.8,7.6
			c-4.2,0-7.3-2.6-7.4-6.9H1844.9z"/>
	</g>
</g>
<g>
	<g>
		<path fill="#37474F" d="M15.9,520.5H1.2c0.2-6.7,7-8.3,10.8-12.1c1.2-1.2,1.9-2.4,1.9-4.2c0-2.9-2.3-4.6-5-4.6
			c-3.7,0-5.1,2.9-5.1,6.2h-2c-0.1-4.6,2.3-7.9,7.2-7.9c3.9,0,6.9,2.1,6.9,6.3c0,3.7-2.7,6.1-5.6,8c-2.2,1.5-6.2,3.5-6.7,6.5h12.4
			V520.5z"/>
		<path fill="#37474F" d="M34.5,509.4c0,5.2-1.3,11.6-7.8,11.6c-6.5,0-7.8-6.3-7.8-11.5c0-5.2,1.3-11.6,7.8-11.6
			C33.2,497.9,34.5,504.2,34.5,509.4z M20.9,509.4c0,3.9,0.7,9.9,5.8,9.9s5.8-6,5.8-9.9c0-3.9-0.7-9.8-5.8-9.8
			S20.9,505.5,20.9,509.4z"/>
		<path fill="#37474F" d="M52.3,509.4c0,5.2-1.3,11.6-7.8,11.6c-6.5,0-7.8-6.3-7.8-11.5c0-5.2,1.3-11.6,7.8-11.6
			C51,497.9,52.3,504.2,52.3,509.4z M38.7,509.4c0,3.9,0.7,9.9,5.8,9.9s5.8-6,5.8-9.9c0-3.9-0.7-9.8-5.8-9.8S38.7,505.5,38.7,509.4z
			"/>
	</g>
</g>
<g>
	<g>
		<path fill="#37474F" d="M15.9,272.5H1.2c0.2-6.7,7-8.3,10.8-12.1c1.2-1.2,1.9-2.4,1.9-4.2c0-2.9-2.3-4.6-5-4.6
			c-3.7,0-5.1,2.9-5.1,6.2h-2c-0.1-4.6,2.3-7.9,7.2-7.9c3.9,0,6.9,2.1,6.9,6.3c0,3.7-2.7,6.1-5.6,8c-2.2,1.5-6.2,3.5-6.7,6.5h12.4
			V272.5z"/>
		<path fill="#37474F" d="M21,266.1c0.1,3.1,2.4,5.2,5.5,5.2c3.5,0,5.6-2.8,5.6-6.1c0-3.3-2.4-5.8-5.7-5.8c-2,0-3.9,1-5,2.7h-1.7
			l2.2-11.6H33v1.9h-9.8l-1.4,7.4l0.1,0.1c1.1-1.3,3-2.1,4.7-2.1c4.6,0,7.5,3.2,7.5,7.7c0,4.4-3.5,7.6-7.8,7.6
			c-4.2,0-7.3-2.6-7.4-6.9H21z"/>
		<path fill="#37474F" d="M52.3,261.4c0,5.2-1.3,11.6-7.8,11.6c-6.5,0-7.8-6.3-7.8-11.5c0-5.2,1.3-11.6,7.8-11.6
			C51,249.9,52.3,256.2,52.3,261.4z M38.7,261.4c0,3.9,0.7,9.9,5.8,9.9s5.8-6,5.8-9.9c0-3.9-0.7-9.8-5.8-9.8S38.7,257.5,38.7,261.4z
			"/>
	</g>
</g>
<g>
	<g>
		<path fill="#8FA3AD" d="M404.9,1047.1c3.5-0.1,5.7-0.2,6.3-4.3h1.6v22.4h-2v-16.6h-5.9V1047.1z"/>
		<path fill="#8FA3AD" d="M431.6,1053.2L431.6,1053.2c2.9,0.6,4.6,2.8,4.6,5.8c0,4.5-3.5,6.8-7.7,6.8c-4.2,0-7.7-2.2-7.7-6.8
			c0.1-2.9,1.8-5.2,4.5-5.7v-0.1c-2.3-0.7-3.6-2.5-3.6-4.9c0-3.8,3.5-5.6,6.8-5.6c3.3,0,6.8,1.8,6.8,5.6
			C435.3,1050.7,433.9,1052.5,431.6,1053.2z M434.2,1058.9c0-3.2-2.7-4.9-5.7-4.9c-3.1-0.1-5.7,1.6-5.7,4.9c0,3.4,2.6,5.1,5.7,5.1
			S434.2,1062.4,434.2,1058.9z M433.3,1048.2c0-2.6-2.1-3.9-4.8-3.9c-2.5,0-4.8,1.3-4.8,3.9c0,3,2.4,4.2,4.8,4.2
			C431,1052.5,433.3,1051.1,433.3,1048.2z"/>
		<path fill="#8FA3AD" d="M745.1,1047.1c3.5-0.1,5.7-0.2,6.3-4.3h1.6v22.4h-2v-16.6h-5.9V1047.1z"/>
		<path fill="#8FA3AD" d="M763.4,1059.8c0.4,2.5,2.1,4.2,4.7,4.2c5.2,0,6.2-6,6.2-10h-0.1c-1.1,2.2-3.4,3.7-6,3.7
			c-4.5,0-7.4-3.1-7.4-7.5c0-4.4,3.2-7.6,7.6-7.6c5.4,0,7.8,3.2,7.8,11.9c0,2.7-0.7,11.2-8,11.2c-3.9,0-6.4-2-6.9-5.9H763.4z
			 M773.8,1050.1c0-3.2-1.7-5.8-5.6-5.8c-3.2,0-5.4,2.7-5.4,5.8c0,3.3,2,5.9,5.4,5.9C771.8,1056,773.8,1053.4,773.8,1050.1z"/>
		<path fill="#8FA3AD" d="M1098,1065.2h-14.8c0.2-6.7,7-8.3,10.8-12.1c1.2-1.2,1.9-2.4,1.9-4.2c0-2.9-2.3-4.6-5-4.6
			c-3.7,0-5.1,2.9-5.1,6.2h-2c-0.1-4.6,2.3-7.9,7.2-7.9c3.9,0,6.9,2.1,6.9,6.3c0,3.7-2.7,6.1-5.6,8c-2.2,1.5-6.2,3.5-6.7,6.5h12.4
			V1065.2z"/>
		<path fill="#8FA3AD" d="M1116.6,1054.1c0,5.2-1.3,11.6-7.8,11.6s-7.8-6.3-7.8-11.5c0-5.2,1.3-11.6,7.8-11.6
			S1116.6,1048.9,1116.6,1054.1z M1103,1054.1c0,3.9,0.7,9.9,5.8,9.9c5.1,0,5.8-6,5.8-9.9c0-3.9-0.7-9.8-5.8-9.8
			C1103.7,1044.3,1103,1050.3,1103,1054.1z"/>
		<path fill="#8FA3AD" d="M1438.2,1065.2h-14.8c0.2-6.7,7-8.3,10.8-12.1c1.2-1.2,1.9-2.4,1.9-4.2c0-2.9-2.3-4.6-5-4.6
			c-3.7,0-5.1,2.9-5.1,6.2h-2c-0.1-4.6,2.3-7.9,7.2-7.9c3.9,0,6.9,2.1,6.9,6.3c0,3.7-2.7,6.1-5.6,8c-2.2,1.5-6.2,3.5-6.7,6.5h12.4
			V1065.2z"/>
		<path fill="#8FA3AD" d="M1443.2,1047.1c3.5-0.1,5.7-0.2,6.3-4.3h1.6v22.4h-2v-16.6h-5.9V1047.1z"/>
	</g>
</g>
<g>
	<g>
		<path fill="#8FA3AD" d="M1780.7,259.5v746H73.7v-746H1780.7 M1781.7,258.5h-0.5H74.1h-1.4v0.5v746v1.5h1.4h1707.1h0.5v-1.5V259
			V258.5L1781.7,258.5z"/>
	</g>
	<line opacity="0.55" fill="none" stroke="#8FA3AD" stroke-miterlimit="10" x1="418.2" y1="257.5" x2="418.2" y2="1025.5"/>
	<line opacity="0.55" fill="none" stroke="#8FA3AD" stroke-miterlimit="10" x1="757.2" y1="257.5" x2="757.2" y2="1025.5"/>
	<line opacity="0.55" fill="none" stroke="#8FA3AD" stroke-miterlimit="10" x1="1099.2" y1="257.5" x2="1099.2" y2="1025.5"/>
	<line opacity="0.55" fill="none" stroke="#8FA3AD" stroke-miterlimit="10" x1="1440.2" y1="257.5" x2="1440.2" y2="1025.5"/>
	<line opacity="0.5" fill="none" stroke="#8FA3AD" stroke-miterlimit="10" x1="1785.7" y1="1005" x2="79.7" y2="1005"/>
	<line opacity="0.35" fill="none" stroke="#8FA3AD" stroke-miterlimit="10" x1="1785.7" y1="954" x2="79.7" y2="954"/>
	<line opacity="0.35" fill="none" stroke="#8FA3AD" stroke-miterlimit="10" x1="1785.7" y1="905" x2="79.7" y2="905"/>
	<line opacity="0.35" fill="none" stroke="#8FA3AD" stroke-miterlimit="10" x1="1785.7" y1="855" x2="79.7" y2="855"/>
	<line opacity="0.35" fill="none" stroke="#8FA3AD" stroke-miterlimit="10" x1="1785.7" y1="806" x2="79.7" y2="806"/>
	<line opacity="0.35" fill="none" stroke="#8FA3AD" stroke-miterlimit="10" x1="1785.7" y1="756" x2="79.7" y2="756"/>
	<line opacity="0.35" fill="none" stroke="#8FA3AD" stroke-miterlimit="10" x1="1785.7" y1="706" x2="79.7" y2="706"/>
	<line opacity="0.35" fill="none" stroke="#8FA3AD" stroke-miterlimit="10" x1="1785.7" y1="657" x2="79.7" y2="657"/>
	<line opacity="0.35" fill="none" stroke="#8FA3AD" stroke-miterlimit="10" x1="1785.7" y1="607" x2="79.7" y2="607"/>
	<line opacity="0.35" fill="none" stroke="#8FA3AD" stroke-miterlimit="10" x1="1785.7" y1="557" x2="79.7" y2="557"/>
	<line opacity="0.35" fill="none" stroke="#8FA3AD" stroke-miterlimit="10" x1="1785.7" y1="506" x2="79.7" y2="506"/>
	<line opacity="0.35" fill="none" stroke="#8FA3AD" stroke-miterlimit="10" x1="1785.7" y1="457" x2="79.7" y2="457"/>
	<line opacity="0.35" fill="none" stroke="#8FA3AD" stroke-miterlimit="10" x1="1785.7" y1="407" x2="79.7" y2="407"/>
	<line opacity="0.35" fill="none" stroke="#8FA3AD" stroke-miterlimit="10" x1="1785.7" y1="358" x2="79.7" y2="358"/>
	<line opacity="0.35" fill="none" stroke="#8FA3AD" stroke-miterlimit="10" x1="1785.7" y1="308" x2="79.7" y2="308"/>
</g>
<g>
	<path fill="#343F3F" d="M593.5,17.9h4.1l10.2,25.9L618,17.9h4.1v29.5h-2.8V22h-0.1l-10.1,25.5h-2.6L596.3,22h-0.1v25.5h-2.8V17.9z"
		/>
	<path fill="#343F3F" d="M627.2,32.7c0.2-5,3.8-7.2,8.6-7.2c3.8,0,7.9,1.2,7.9,6.9v11.3c0,1,0.5,1.6,1.5,1.6c0.3,0,0.6-0.1,0.8-0.2
		v2.2c-0.6,0.1-1,0.2-1.7,0.2c-2.6,0-3.1-1.5-3.1-3.7h-0.1c-1.8,2.8-3.7,4.3-7.8,4.3c-3.9,0-7.2-1.9-7.2-6.2c0-6,5.8-6.2,11.5-6.9
		c2.1-0.2,3.3-0.5,3.3-2.9c0-3.5-2.5-4.4-5.6-4.4c-3.2,0-5.6,1.5-5.7,5H627.2z M641.1,35.8L641.1,35.8c-0.4,0.6-1.6,0.8-2.3,1
		c-4.4,0.8-9.9,0.7-9.9,4.9c0,2.6,2.3,4.2,4.8,4.2c4,0,7.5-2.5,7.4-6.7V35.8z"/>
	<path fill="#343F3F" d="M648.9,17.9h2.6v18.5l11.8-10.3h3.5l-9.1,7.9l9.7,13.4h-3.3l-8.4-11.6l-4.2,3.5v8.1h-2.6V17.9z"/>
	<path fill="#343F3F" d="M671.1,37.5c0,3.8,2,8.4,7,8.4c3.8,0,5.9-2.2,6.7-5.5h2.6c-1.1,4.8-3.9,7.6-9.3,7.6
		c-6.8,0-9.6-5.2-9.6-11.3c0-5.6,2.9-11.3,9.6-11.3c6.9,0,9.6,6,9.4,12H671.1z M684.9,35.3c-0.1-3.9-2.6-7.6-6.8-7.6
		c-4.3,0-6.6,3.7-7,7.6H684.9z"/>
	<path fill="#343F3F" d="M717.6,32.8c-0.7-3.2-2.6-5.1-6-5.1c-5,0-7.5,4.5-7.5,9.1s2.5,9.1,7.5,9.1c3.2,0,5.9-2.5,6.2-6.1h2.6
		c-0.7,5.1-4.1,8.3-8.8,8.3c-6.5,0-10.1-5.2-10.1-11.3c0-6.1,3.6-11.3,10.1-11.3c4.5,0,8.1,2.4,8.6,7.3H717.6z"/>
	<path fill="#343F3F" d="M741.3,47.5h-2.4v-3.8h-0.1c-1.4,2.9-4.2,4.5-7.4,4.5c-5.4,0-7.5-3.1-7.5-8.1V26.1h2.6V40
		c0.1,3.8,1.6,5.9,5.7,5.9c4.5,0,6.4-4.2,6.4-8.6V26.1h2.6V47.5z"/>
	<path fill="#343F3F" d="M759,32.4c-0.1-3.2-2.6-4.7-5.6-4.7c-2.3,0-5,0.9-5,3.7c0,2.3,2.6,3.1,4.4,3.6l3.5,0.8
		c3,0.5,6.1,2.2,6.1,5.9c0,4.6-4.6,6.4-8.6,6.4c-5,0-8.3-2.3-8.8-7.5h2.6c0.2,3.5,2.8,5.3,6.3,5.3c2.4,0,5.8-1.1,5.8-4.1
		c0-2.5-2.3-3.3-4.7-3.9l-3.3-0.7c-3.4-0.9-6-2.1-6-5.7c0-4.3,4.3-6,8-6c4.3,0,7.6,2.2,7.8,6.9H759z"/>
	<path fill="#343F3F" d="M770.2,26.1h4.3v2.2h-4.3v14.4c0,1.7,0.2,2.7,2.1,2.8c0.7,0,1.5,0,2.2-0.1v2.2c-0.8,0-1.5,0.1-2.3,0.1
		c-3.5,0-4.7-1.2-4.6-4.8V28.3h-3.7v-2.2h3.7v-6.4h2.6V26.1z"/>
	<path fill="#343F3F" d="M797.4,36.8c0,6.1-3.6,11.3-10.1,11.3c-6.5,0-10.1-5.2-10.1-11.3c0-6.1,3.6-11.3,10.1-11.3
		C793.9,25.5,797.4,30.7,797.4,36.8z M779.8,36.8c0,4.5,2.5,9.1,7.5,9.1c5,0,7.5-4.5,7.5-9.1s-2.5-9.1-7.5-9.1
		C782.3,27.7,779.8,32.2,779.8,36.8z"/>
	<path fill="#343F3F" d="M801.3,26.1h2.4v3.6h0.1c1.4-2.6,3.6-4.2,7-4.2c2.8,0,5.3,1.4,6.1,4.2c1.3-2.8,4-4.2,6.8-4.2
		c4.7,0,7.1,2.4,7.1,7.5v14.5h-2.6V33.1c0-3.5-1.3-5.4-5-5.4c-4.5,0-5.8,3.7-5.8,7.7v12.1h-2.6V33c0-2.9-1.2-5.3-4.5-5.3
		c-4.5,0-6.3,3.4-6.4,7.9v11.9h-2.6V26.1z"/>
	<path fill="#343F3F" d="M847.2,26.1h2.4v4.1h0.1c1.2-2.9,4.2-4.7,7.6-4.7c6.5,0,9.6,5.2,9.6,11.3s-3.1,11.3-9.6,11.3
		c-3.2,0-6.3-1.6-7.4-4.7h-0.1v11.9h-2.6V26.1z M857.3,27.7c-5.7,0-7.5,4.3-7.5,9.1c0,4.4,1.9,9.1,7.5,9.1c5,0,7-4.7,7-9.1
		S862.3,27.7,857.3,27.7z"/>
	<path fill="#343F3F" d="M871,17.9h2.6v29.5H871V17.9z"/>
	<path fill="#343F3F" d="M897.7,36.8c0,6.1-3.6,11.3-10.1,11.3c-6.5,0-10.1-5.2-10.1-11.3c0-6.1,3.6-11.3,10.1-11.3
		C894.1,25.5,897.7,30.7,897.7,36.8z M880.1,36.8c0,4.5,2.5,9.1,7.5,9.1c5,0,7.5-4.5,7.5-9.1s-2.5-9.1-7.5-9.1
		C882.6,27.7,880.1,32.2,880.1,36.8z"/>
	<path fill="#343F3F" d="M905.7,26.1h4.3v2.2h-4.3v14.4c0,1.7,0.2,2.7,2.1,2.8c0.7,0,1.5,0,2.2-0.1v2.2c-0.8,0-1.5,0.1-2.3,0.1
		c-3.5,0-4.7-1.2-4.6-4.8V28.3h-3.7v-2.2h3.7v-6.4h2.6V26.1z"/>
	<path fill="#343F3F" d="M926.6,32.4c-0.1-3.2-2.6-4.7-5.6-4.7c-2.3,0-5,0.9-5,3.7c0,2.3,2.6,3.1,4.4,3.6l3.5,0.8
		c3,0.5,6.1,2.2,6.1,5.9c0,4.6-4.6,6.4-8.6,6.4c-5,0-8.3-2.3-8.8-7.5h2.6c0.2,3.5,2.8,5.3,6.3,5.3c2.4,0,5.8-1.1,5.8-4.1
		c0-2.5-2.3-3.3-4.7-3.9l-3.3-0.7c-3.4-0.9-6-2.1-6-5.7c0-4.3,4.3-6,8-6c4.3,0,7.6,2.2,7.8,6.9H926.6z"/>
	<path fill="#343F3F" d="M964.3,36.8c0,6.1-3.6,11.3-10.1,11.3c-6.5,0-10.1-5.2-10.1-11.3c0-6.1,3.6-11.3,10.1-11.3
		C960.7,25.5,964.3,30.7,964.3,36.8z M946.7,36.8c0,4.5,2.5,9.1,7.5,9.1c5,0,7.5-4.5,7.5-9.1s-2.5-9.1-7.5-9.1
		C949.2,27.7,946.7,32.2,946.7,36.8z"/>
	<path fill="#343F3F" d="M976.4,28.3h-4.2v19.1h-2.6V28.3H966v-2.2h3.6v-1.9c0-3.7,1-6.2,5.2-6.2c0.7,0,1.4,0,2.2,0.2v2.2
		c-0.7-0.1-1.3-0.2-1.9-0.2c-2.9,0-2.8,1.8-2.9,4.1v1.9h4.2V28.3z"/>
	<path fill="#343F3F" d="M990.1,32.7c0.2-5,3.8-7.2,8.6-7.2c3.8,0,7.9,1.2,7.9,6.9v11.3c0,1,0.5,1.6,1.5,1.6c0.3,0,0.6-0.1,0.8-0.2
		v2.2c-0.6,0.1-1,0.2-1.7,0.2c-2.6,0-3.1-1.5-3.1-3.7h-0.1c-1.8,2.8-3.7,4.3-7.8,4.3c-3.9,0-7.2-1.9-7.2-6.2c0-6,5.8-6.2,11.5-6.9
		c2.1-0.2,3.3-0.5,3.3-2.9c0-3.5-2.5-4.4-5.6-4.4c-3.2,0-5.6,1.5-5.7,5H990.1z M1004,35.8L1004,35.8c-0.4,0.6-1.6,0.8-2.3,1
		c-4.4,0.8-9.9,0.7-9.9,4.9c0,2.6,2.3,4.2,4.8,4.2c4,0,7.5-2.5,7.4-6.7V35.8z"/>
	<path fill="#343F3F" d="M1011.8,26.1h2.6v3.7h0.1c1-2.6,3.8-4.3,6.8-4.3c6,0,7.8,3.1,7.8,8.2v13.7h-2.6V34.1c0-3.7-1.2-6.4-5.4-6.4
		c-4.1,0-6.6,3.1-6.7,7.3v12.4h-2.6V26.1z"/>
	<path fill="#343F3F" d="M1031.6,26.1h2.8l7,18.2l6.6-18.2h2.6l-9.3,24.6c-1.5,3.6-2.4,4.6-5.6,4.6c-1,0-1.6,0-2-0.2V53
		c0.6,0.1,1.2,0.2,1.8,0.2c2.3,0,2.9-1.4,3.7-3.3l0.9-2.4L1031.6,26.1z"/>
	<path fill="#343F3F" d="M1062.3,26.1h2.9l6.7,18.7h0.1l6.6-18.7h2.7l-8,21.3h-2.8L1062.3,26.1z"/>
	<path fill="#343F3F" d="M1083.6,32.7c0.2-5,3.8-7.2,8.6-7.2c3.8,0,7.9,1.2,7.9,6.9v11.3c0,1,0.5,1.6,1.5,1.6c0.3,0,0.6-0.1,0.8-0.2
		v2.2c-0.6,0.1-1,0.2-1.7,0.2c-2.6,0-3.1-1.5-3.1-3.7h-0.1c-1.8,2.8-3.7,4.3-7.8,4.3c-3.9,0-7.2-1.9-7.2-6.2c0-6,5.8-6.2,11.5-6.9
		c2.1-0.2,3.3-0.5,3.3-2.9c0-3.5-2.5-4.4-5.6-4.4c-3.2,0-5.6,1.5-5.7,5H1083.6z M1097.4,35.8L1097.4,35.8c-0.4,0.6-1.6,0.8-2.3,1
		c-4.4,0.8-9.9,0.7-9.9,4.9c0,2.6,2.3,4.2,4.8,4.2c4,0,7.5-2.5,7.4-6.7V35.8z"/>
	<path fill="#343F3F" d="M1105.3,26.1h2.4v5h0.1c1.3-3.4,4.2-5.5,8.1-5.3v2.6c-4.7-0.2-7.9,3.2-7.9,7.6v11.4h-2.6V26.1z"/>
	<path fill="#343F3F" d="M1118.3,17.9h2.6v4.2h-2.6V17.9z M1118.3,26.1h2.6v21.3h-2.6V26.1z"/>
	<path fill="#343F3F" d="M1125.7,32.7c0.2-5,3.8-7.2,8.6-7.2c3.8,0,7.9,1.2,7.9,6.9v11.3c0,1,0.5,1.6,1.5,1.6c0.3,0,0.6-0.1,0.8-0.2
		v2.2c-0.6,0.1-1,0.2-1.7,0.2c-2.6,0-3.1-1.5-3.1-3.7h-0.1c-1.8,2.8-3.7,4.3-7.8,4.3c-3.9,0-7.2-1.9-7.2-6.2c0-6,5.8-6.2,11.4-6.9
		c2.2-0.2,3.3-0.5,3.3-2.9c0-3.5-2.5-4.4-5.6-4.4c-3.2,0-5.6,1.5-5.7,5H1125.7z M1139.6,35.8L1139.6,35.8c-0.4,0.6-1.6,0.8-2.3,1
		c-4.4,0.8-9.9,0.7-9.9,4.9c0,2.6,2.3,4.2,4.8,4.2c4,0,7.5-2.5,7.4-6.7V35.8z"/>
	<path fill="#343F3F" d="M1147.4,17.9h2.6v12.2h0.1c1.1-3.1,4.2-4.7,7.4-4.7c6.5,0,9.6,5.2,9.6,11.3s-3.1,11.3-9.6,11.3
		c-3.4,0-6.4-1.8-7.6-4.7h-0.1v4.1h-2.4V17.9z M1157.5,27.7c-5.5,0-7.5,4.7-7.5,9.1s1.9,9.1,7.5,9.1c5,0,7-4.7,7-9.1
		S1162.4,27.7,1157.5,27.7z"/>
	<path fill="#343F3F" d="M1171.2,17.9h2.6v29.5h-2.6V17.9z"/>
	<path fill="#343F3F" d="M1180.3,37.5c0,3.8,2,8.4,7,8.4c3.8,0,5.9-2.2,6.7-5.5h2.6c-1.1,4.8-3.9,7.6-9.3,7.6
		c-6.8,0-9.6-5.2-9.6-11.3c0-5.6,2.9-11.3,9.6-11.3c6.9,0,9.6,6,9.4,12H1180.3z M1194.1,35.3c-0.1-3.9-2.6-7.6-6.8-7.6
		c-4.3,0-6.6,3.7-7,7.6H1194.1z"/>
	<path fill="#343F3F" d="M1211.8,17.9h2.6v4.2h-2.6V17.9z M1211.8,26.1h2.6v21.3h-2.6V26.1z"/>
	<path fill="#343F3F" d="M1219.3,26.1h2.6v3.7h0.1c1-2.6,3.8-4.3,6.8-4.3c6,0,7.8,3.1,7.8,8.2v13.7h-2.6V34.1c0-3.7-1.2-6.4-5.4-6.4
		c-4.1,0-6.6,3.1-6.7,7.3v12.4h-2.6V26.1z"/>
	<path fill="#343F3F" d="M1253,26.1h2.4v5h0.1c1.3-3.4,4.2-5.5,8.1-5.3v2.6c-4.7-0.2-7.9,3.2-7.9,7.6v11.4h-2.6V26.1z"/>
	<path fill="#343F3F" d="M1266.9,37.5c0,3.8,2,8.4,7,8.4c3.8,0,5.9-2.2,6.7-5.5h2.6c-1.1,4.8-3.9,7.6-9.3,7.6
		c-6.8,0-9.6-5.2-9.6-11.3c0-5.6,2.9-11.3,9.6-11.3c6.9,0,9.6,6,9.4,12H1266.9z M1280.7,35.3c-0.1-3.9-2.6-7.6-6.8-7.6
		c-4.3,0-6.6,3.7-7,7.6H1280.7z"/>
	<path fill="#343F3F" d="M1286.5,32.7c0.2-5,3.8-7.2,8.6-7.2c3.8,0,7.9,1.2,7.9,6.9v11.3c0,1,0.5,1.6,1.5,1.6c0.3,0,0.6-0.1,0.8-0.2
		v2.2c-0.6,0.1-1,0.2-1.7,0.2c-2.6,0-3.1-1.5-3.1-3.7h-0.1c-1.8,2.8-3.7,4.3-7.8,4.3c-3.9,0-7.2-1.9-7.2-6.2c0-6,5.8-6.2,11.5-6.9
		c2.1-0.2,3.3-0.5,3.3-2.9c0-3.5-2.5-4.4-5.6-4.4c-3.2,0-5.6,1.5-5.7,5H1286.5z M1300.4,35.8L1300.4,35.8c-0.4,0.6-1.6,0.8-2.3,1
		c-4.4,0.8-9.9,0.7-9.9,4.9c0,2.6,2.3,4.2,4.8,4.2c4,0,7.5-2.5,7.4-6.7V35.8z"/>
	<path fill="#343F3F" d="M1308.3,17.9h2.6v29.5h-2.6V17.9z"/>
	<path fill="#343F3F" d="M1320,26.1h4.3v2.2h-4.3v14.4c0,1.7,0.2,2.7,2.1,2.8c0.7,0,1.5,0,2.2-0.1v2.2c-0.8,0-1.5,0.1-2.3,0.1
		c-3.5,0-4.7-1.2-4.6-4.8V28.3h-3.7v-2.2h3.7v-6.4h2.6V26.1z"/>
	<path fill="#343F3F" d="M1328.2,17.9h2.6v4.2h-2.6V17.9z M1328.2,26.1h2.6v21.3h-2.6V26.1z"/>
	<path fill="#343F3F" d="M1335.8,26.1h2.4v3.6h0.1c1.4-2.6,3.6-4.2,7-4.2c2.8,0,5.3,1.4,6.1,4.2c1.3-2.8,4-4.2,6.8-4.2
		c4.7,0,7.1,2.4,7.1,7.5v14.5h-2.6V33.1c0-3.5-1.3-5.4-5-5.4c-4.5,0-5.8,3.7-5.8,7.7v12.1h-2.6V33c0-2.9-1.2-5.3-4.5-5.3
		c-4.5,0-6.3,3.4-6.4,7.9v11.9h-2.6V26.1z"/>
	<path fill="#343F3F" d="M1371.7,37.5c0,3.8,2,8.4,7,8.4c3.8,0,5.9-2.2,6.7-5.5h2.6c-1.1,4.8-3.9,7.6-9.3,7.6
		c-6.8,0-9.6-5.2-9.6-11.3c0-5.6,2.9-11.3,9.6-11.3c6.9,0,9.6,6,9.4,12H1371.7z M1385.5,35.3c-0.1-3.9-2.6-7.6-6.8-7.6
		c-4.3,0-6.6,3.7-7,7.6H1385.5z"/>
	<path fill="#343F3F" d="M1401,26.1h2.8l5.5,18.3h0.1l5.2-18.3h2.9l5.2,18.3h0.1l5.5-18.3h2.8l-6.9,21.3h-2.9l-5.2-17.9h-0.1
		l-5.2,17.9h-2.9L1401,26.1z"/>
	<path fill="#343F3F" d="M1433.8,17.9h2.6v4.2h-2.6V17.9z M1433.8,26.1h2.6v21.3h-2.6V26.1z"/>
	<path fill="#343F3F" d="M1445.6,26.1h4.3v2.2h-4.3v14.4c0,1.7,0.2,2.7,2.1,2.8c0.7,0,1.5,0,2.2-0.1v2.2c-0.8,0-1.5,0.1-2.3,0.1
		c-3.5,0-4.7-1.2-4.6-4.8V28.3h-3.7v-2.2h3.7v-6.4h2.6V26.1z"/>
	<path fill="#343F3F" d="M1453.6,17.9h2.6v11.9h0.1c1-2.6,3.8-4.3,6.8-4.3c6,0,7.8,3.1,7.8,8.2v13.7h-2.6V34.1
		c0-3.7-1.2-6.4-5.4-6.4c-4.1,0-6.6,3.1-6.7,7.3v12.4h-2.6V17.9z"/>
	<path fill="#343F3F" d="M1500.1,32.4c-0.1-3.2-2.6-4.7-5.6-4.7c-2.3,0-5,0.9-5,3.7c0,2.3,2.6,3.1,4.4,3.6l3.5,0.8
		c3,0.5,6.1,2.2,6.1,5.9c0,4.6-4.6,6.4-8.6,6.4c-5,0-8.3-2.3-8.8-7.5h2.6c0.2,3.5,2.8,5.3,6.3,5.3c2.4,0,5.8-1.1,5.8-4.1
		c0-2.5-2.3-3.3-4.7-3.9l-3.3-0.7c-3.4-0.9-6-2.1-6-5.7c0-4.3,4.3-6,8-6c4.3,0,7.6,2.2,7.8,6.9H1500.1z"/>
	<path fill="#343F3F" d="M1511.4,26.1h4.3v2.2h-4.3v14.4c0,1.7,0.2,2.7,2.1,2.8c0.7,0,1.5,0,2.2-0.1v2.2c-0.8,0-1.5,0.1-2.3,0.1
		c-3.5,0-4.7-1.2-4.6-4.8V28.3h-3.7v-2.2h3.7v-6.4h2.6V26.1z"/>
	<path fill="#343F3F" d="M1519.5,26.1h2.4v5h0.1c1.3-3.4,4.2-5.5,8.1-5.3v2.6c-4.7-0.2-7.9,3.2-7.9,7.6v11.4h-2.6V26.1z"/>
	<path fill="#343F3F" d="M1533.3,37.5c0,3.8,2,8.4,7,8.4c3.8,0,5.9-2.2,6.7-5.5h2.6c-1.1,4.8-3.9,7.6-9.3,7.6
		c-6.8,0-9.6-5.2-9.6-11.3c0-5.6,2.9-11.3,9.6-11.3c6.9,0,9.6,6,9.4,12H1533.3z M1547.1,35.3c-0.1-3.9-2.6-7.6-6.8-7.6
		c-4.3,0-6.6,3.7-7,7.6H1547.1z"/>
	<path fill="#343F3F" d="M1553,32.7c0.2-5,3.8-7.2,8.6-7.2c3.8,0,7.9,1.2,7.9,6.9v11.3c0,1,0.5,1.6,1.5,1.6c0.3,0,0.6-0.1,0.8-0.2
		v2.2c-0.6,0.1-1,0.2-1.7,0.2c-2.6,0-3.1-1.5-3.1-3.7h-0.1c-1.8,2.8-3.7,4.3-7.8,4.3c-3.9,0-7.2-1.9-7.2-6.2c0-6,5.8-6.2,11.5-6.9
		c2.1-0.2,3.3-0.5,3.3-2.9c0-3.5-2.5-4.4-5.6-4.4c-3.2,0-5.6,1.5-5.7,5H1553z M1566.8,35.8L1566.8,35.8c-0.4,0.6-1.6,0.8-2.3,1
		c-4.4,0.8-9.9,0.7-9.9,4.9c0,2.6,2.3,4.2,4.8,4.2c4,0,7.5-2.5,7.4-6.7V35.8z"/>
	<path fill="#343F3F" d="M1574.7,26.1h2.4v3.6h0.1c1.4-2.6,3.6-4.2,7-4.2c2.8,0,5.3,1.4,6.1,4.2c1.3-2.8,4-4.2,6.8-4.2
		c4.7,0,7.1,2.4,7.1,7.5v14.5h-2.6V33.1c0-3.5-1.3-5.4-5-5.4c-4.5,0-5.8,3.7-5.8,7.7v12.1h-2.6V33c0-2.9-1.2-5.3-4.5-5.3
		c-4.5,0-6.3,3.4-6.4,7.9v11.9h-2.6V26.1z"/>
	<path fill="#343F3F" d="M1609.1,17.9h2.6v4.2h-2.6V17.9z M1609.1,26.1h2.6v21.3h-2.6V26.1z"/>
	<path fill="#343F3F" d="M1616.7,26.1h2.6v3.7h0.1c1-2.6,3.8-4.3,6.8-4.3c6,0,7.8,3.1,7.8,8.2v13.7h-2.6V34.1c0-3.7-1.2-6.4-5.4-6.4
		c-4.1,0-6.6,3.1-6.7,7.3v12.4h-2.6V26.1z"/>
	<path fill="#343F3F" d="M1657,45.7c0,6.4-2.5,10.3-9.5,10.3c-4.3,0-8.5-1.9-8.8-6.4h2.6c0.6,3.1,3.3,4.3,6.2,4.3
		c4.8,0,6.9-2.9,6.9-8.1v-2.9h-0.1c-1.2,2.6-3.7,4.4-6.8,4.4c-6.8,0-9.6-4.9-9.6-11c0-5.9,3.5-10.7,9.6-10.7c3.1,0,5.7,1.9,6.8,4.3
		h0.1v-3.7h2.6V45.7z M1654.4,36.5c0-4.2-1.9-8.8-6.9-8.8c-5,0-7,4.4-7,8.8c0,4.3,2.2,8.5,7,8.5C1652,45,1654.4,40.9,1654.4,36.5z"
		/>
	<path fill="#343F3F" d="M1688.5,32.8c-0.7-3.2-2.6-5.1-6-5.1c-5,0-7.5,4.5-7.5,9.1s2.5,9.1,7.5,9.1c3.2,0,5.9-2.5,6.2-6.1h2.6
		c-0.7,5.1-4.1,8.3-8.8,8.3c-6.5,0-10.1-5.2-10.1-11.3c0-6.1,3.6-11.3,10.1-11.3c4.5,0,8.1,2.4,8.6,7.3H1688.5z"/>
	<path fill="#343F3F" d="M1694.8,17.9h2.6v11.9h0.1c1-2.6,3.8-4.3,6.8-4.3c6,0,7.8,3.1,7.8,8.2v13.7h-2.6V34.1
		c0-3.7-1.2-6.4-5.4-6.4c-4.1,0-6.6,3.1-6.7,7.3v12.4h-2.6V17.9z"/>
	<path fill="#343F3F" d="M1716.8,32.7c0.2-5,3.8-7.2,8.6-7.2c3.8,0,7.9,1.2,7.9,6.9v11.3c0,1,0.5,1.6,1.5,1.6c0.3,0,0.6-0.1,0.8-0.2
		v2.2c-0.6,0.1-1,0.2-1.7,0.2c-2.6,0-3.1-1.5-3.1-3.7h-0.1c-1.8,2.8-3.7,4.3-7.8,4.3c-3.9,0-7.2-1.9-7.2-6.2c0-6,5.8-6.2,11.5-6.9
		c2.1-0.2,3.3-0.5,3.3-2.9c0-3.5-2.5-4.4-5.6-4.4c-3.2,0-5.6,1.5-5.7,5H1716.8z M1730.7,35.8L1730.7,35.8c-0.4,0.6-1.6,0.8-2.3,1
		c-4.4,0.8-9.9,0.7-9.9,4.9c0,2.6,2.3,4.2,4.8,4.2c4,0,7.5-2.5,7.4-6.7V35.8z"/>
	<path fill="#343F3F" d="M1738.5,26.1h2.4v5h0.1c1.3-3.4,4.2-5.5,8.1-5.3v2.6c-4.7-0.2-7.9,3.2-7.9,7.6v11.4h-2.6V26.1z"/>
	<path fill="#343F3F" d="M1755.7,26.1h4.3v2.2h-4.3v14.4c0,1.7,0.2,2.7,2.1,2.8c0.7,0,1.5,0,2.2-0.1v2.2c-0.8,0-1.5,0.1-2.3,0.1
		c-3.5,0-4.7-1.2-4.6-4.8V28.3h-3.7v-2.2h3.7v-6.4h2.6V26.1z"/>
	<path fill="#343F3F" d="M1776.6,32.4c-0.1-3.2-2.6-4.7-5.6-4.7c-2.3,0-5,0.9-5,3.7c0,2.3,2.6,3.1,4.4,3.6l3.5,0.8
		c3,0.5,6.1,2.2,6.1,5.9c0,4.6-4.6,6.4-8.6,6.4c-5,0-8.3-2.3-8.8-7.5h2.6c0.2,3.5,2.8,5.3,6.3,5.3c2.4,0,5.8-1.1,5.8-4.1
		c0-2.5-2.3-3.3-4.7-3.9l-3.3-0.7c-3.4-0.9-6-2.1-6-5.7c0-4.3,4.3-6,8-6c4.3,0,7.6,2.2,7.8,6.9H1776.6z"/>
</g>
<line fill="none" stroke="#8FA3AD" stroke-width="2" stroke-miterlimit="10" stroke-dasharray="20" x1="1568.7" y1="479.5" x2="1785.7" y2="479.5"/>
<line fill="none" stroke="#8FA3AD" stroke-width="2" stroke-miterlimit="10" stroke-dasharray="20" x1="78.7" y1="831.5" x2="1785.7" y2="831.5"/>
<rect x="107" y="156.6" fill="#FFFFFF" stroke="#D2D7D8" stroke-width="2" stroke-miterlimit="10" width="883.7" height="74.9"/>
<g>
	<path fill="#37474F" d="M139.4,197.4c-0.1,4.7,3.3,6.1,7.5,6.1c2.4,0,6-1.3,6-4.6c0-2.6-2.6-3.6-4.7-4.1l-5.1-1.2
		c-2.7-0.7-5.2-2-5.2-5.5c0-2.2,1.4-6.4,7.9-6.4c4.5,0,8.5,2.4,8.4,7.1h-2.2c-0.1-3.5-3-5.2-6.2-5.2c-3,0-5.7,1.2-5.7,4.5
		c0,2.1,1.6,3,3.5,3.5l5.6,1.4c3.2,0.9,5.9,2.3,5.9,6c0,1.6-0.6,6.5-8.7,6.5c-5.4,0-9.4-2.4-9.1-8H139.4z"/>
	<path fill="#37474F" d="M159.4,197.2c0,2.9,1.6,6.5,5.4,6.5c2.9,0,4.5-1.7,5.2-4.2h2c-0.9,3.7-3,5.9-7.2,5.9c-5.2,0-7.5-4-7.5-8.7
		c0-4.4,2.2-8.7,7.5-8.7c5.3,0,7.4,4.6,7.3,9.3H159.4z M170.1,195.5c-0.1-3-2-5.9-5.2-5.9c-3.3,0-5.1,2.9-5.4,5.9H170.1z"/>
	<path fill="#37474F" d="M174.6,193.4c0.2-3.9,2.9-5.5,6.7-5.5c2.9,0,6.1,0.9,6.1,5.3v8.8c0,0.8,0.4,1.2,1.2,1.2
		c0.2,0,0.5-0.1,0.6-0.1v1.7c-0.4,0.1-0.8,0.1-1.3,0.1c-2,0-2.4-1.2-2.4-2.9h-0.1c-1.4,2.1-2.8,3.4-6,3.4c-3,0-5.5-1.5-5.5-4.8
		c0-4.6,4.5-4.8,8.9-5.3c1.7-0.2,2.6-0.4,2.6-2.2c0-2.7-2-3.4-4.3-3.4c-2.5,0-4.4,1.2-4.4,3.8H174.6z M185.4,195.9L185.4,195.9
		c-0.3,0.5-1.2,0.6-1.8,0.7c-3.4,0.6-7.7,0.6-7.7,3.8c0,2,1.8,3.3,3.7,3.3c3.1,0,5.8-2,5.8-5.2V195.9z"/>
	<path fill="#37474F" d="M191.4,188.4h1.9v3.9h0.1c1-2.7,3.3-4.2,6.2-4.1v2c-3.6-0.2-6.1,2.5-6.1,5.9v8.8h-2V188.4z"/>
	<path fill="#37474F" d="M212.6,193.6c-0.5-2.5-2-4-4.7-4c-3.9,0-5.8,3.5-5.8,7c0,3.5,1.9,7,5.8,7c2.5,0,4.5-2,4.8-4.7h2
		c-0.5,4-3.1,6.4-6.8,6.4c-5.1,0-7.8-4-7.8-8.7c0-4.7,2.8-8.7,7.8-8.7c3.5,0,6.2,1.9,6.7,5.7H212.6z"/>
	<path fill="#37474F" d="M217.5,182h2v9.2h0.1c0.7-2,2.9-3.3,5.3-3.3c4.6,0,6,2.4,6,6.4v10.6h-2v-10.3c0-2.8-0.9-5-4.2-5
		c-3.2,0-5.1,2.4-5.2,5.7v9.6h-2V182z"/>
	<path fill="#37474F" d="M250,190.1h-3.3v14.8h-2v-14.8h-2.8v-1.7h2.8v-1.5c0-2.8,0.8-4.8,4-4.8c0.6,0,1.1,0,1.7,0.1v1.7
		c-0.5-0.1-1-0.2-1.5-0.2c-2.2,0-2.2,1.4-2.2,3.2v1.4h3.3V190.1z"/>
	<path fill="#37474F" d="M266.7,196.6c0,4.7-2.8,8.7-7.8,8.7s-7.8-4-7.8-8.7c0-4.7,2.8-8.7,7.8-8.7S266.7,191.9,266.7,196.6z
		 M253.1,196.6c0,3.5,1.9,7,5.8,7c3.9,0,5.8-3.5,5.8-7c0-3.5-1.9-7-5.8-7C255,189.6,253.1,193.1,253.1,196.6z"/>
	<path fill="#37474F" d="M269.7,188.4h1.9v3.9h0.1c1-2.7,3.3-4.2,6.2-4.1v2c-3.6-0.2-6.1,2.5-6.1,5.9v8.8h-2V188.4z"/>
	<path fill="#37474F" d="M288.5,193.4c0.2-3.9,2.9-5.5,6.7-5.5c2.9,0,6.1,0.9,6.1,5.3v8.8c0,0.8,0.4,1.2,1.2,1.2
		c0.2,0,0.5-0.1,0.6-0.1v1.7c-0.4,0.1-0.8,0.1-1.3,0.1c-2,0-2.4-1.2-2.4-2.9h-0.1c-1.4,2.1-2.8,3.4-6,3.4c-3,0-5.5-1.5-5.5-4.8
		c0-4.6,4.5-4.8,8.9-5.3c1.7-0.2,2.6-0.4,2.6-2.2c0-2.7-2-3.4-4.3-3.4c-2.5,0-4.4,1.2-4.4,3.8H288.5z M299.2,195.9L299.2,195.9
		c-0.3,0.5-1.2,0.6-1.8,0.7c-3.4,0.6-7.7,0.6-7.7,3.8c0,2,1.8,3.3,3.7,3.3c3.1,0,5.8-2,5.8-5.2V195.9z"/>
	<path fill="#37474F" d="M312.3,188.4h2.2l5.2,14.5h0.1l5.1-14.5h2.1l-6.2,16.5h-2.1L312.3,188.4z"/>
	<path fill="#37474F" d="M328.8,193.4c0.2-3.9,2.9-5.5,6.7-5.5c2.9,0,6.1,0.9,6.1,5.3v8.8c0,0.8,0.4,1.2,1.2,1.2
		c0.2,0,0.5-0.1,0.6-0.1v1.7c-0.4,0.1-0.8,0.1-1.3,0.1c-2,0-2.4-1.2-2.4-2.9h-0.1c-1.4,2.1-2.8,3.4-6,3.4c-3,0-5.5-1.5-5.5-4.8
		c0-4.6,4.5-4.8,8.9-5.3c1.7-0.2,2.6-0.4,2.6-2.2c0-2.7-2-3.4-4.3-3.4c-2.5,0-4.4,1.2-4.4,3.8H328.8z M339.5,195.9L339.5,195.9
		c-0.3,0.5-1.2,0.6-1.8,0.7c-3.4,0.6-7.7,0.6-7.7,3.8c0,2,1.8,3.3,3.7,3.3c3.1,0,5.8-2,5.8-5.2V195.9z"/>
	<path fill="#37474F" d="M345.6,188.4h1.9v3.9h0.1c1-2.7,3.3-4.2,6.2-4.1v2c-3.6-0.2-6.1,2.5-6.1,5.9v8.8h-2V188.4z"/>
	<path fill="#37474F" d="M355.7,182h2v3.2h-2V182z M355.7,188.4h2v16.5h-2V188.4z"/>
	<path fill="#37474F" d="M361.4,193.4c0.2-3.9,2.9-5.5,6.7-5.5c2.9,0,6.1,0.9,6.1,5.3v8.8c0,0.8,0.4,1.2,1.2,1.2
		c0.2,0,0.5-0.1,0.6-0.1v1.7c-0.4,0.1-0.8,0.1-1.3,0.1c-2,0-2.4-1.2-2.4-2.9h-0.1c-1.4,2.1-2.8,3.4-6,3.4c-3,0-5.5-1.5-5.5-4.8
		c0-4.6,4.5-4.8,8.9-5.3c1.7-0.2,2.6-0.4,2.6-2.2c0-2.7-2-3.4-4.3-3.4c-2.5,0-4.4,1.2-4.4,3.8H361.4z M372.1,195.9L372.1,195.9
		c-0.3,0.5-1.2,0.6-1.8,0.7c-3.4,0.6-7.7,0.6-7.7,3.8c0,2,1.8,3.3,3.7,3.3c3.1,0,5.8-2,5.8-5.2V195.9z"/>
	<path fill="#37474F" d="M378.2,182h2v9.5h0.1c0.9-2.4,3.3-3.6,5.7-3.6c5,0,7.4,4.1,7.4,8.7c0,4.7-2.4,8.7-7.4,8.7
		c-2.7,0-5-1.4-5.9-3.6H380v3.1h-1.9V182z M386,189.6c-4.3,0-5.8,3.6-5.8,7c0,3.4,1.5,7,5.8,7c3.8,0,5.4-3.6,5.4-7
		C391.4,193.2,389.8,189.6,386,189.6z"/>
	<path fill="#37474F" d="M396.6,182h2v22.8h-2V182z"/>
	<path fill="#37474F" d="M403.7,197.2c0,2.9,1.6,6.5,5.4,6.5c2.9,0,4.5-1.7,5.2-4.2h2c-0.9,3.7-3,5.9-7.2,5.9c-5.2,0-7.5-4-7.5-8.7
		c0-4.4,2.2-8.7,7.5-8.7c5.3,0,7.4,4.6,7.3,9.3H403.7z M414.3,195.5c-0.1-3-2-5.9-5.2-5.9c-3.3,0-5.1,2.9-5.4,5.9H414.3z"/>
</g>
<line fill="none" stroke="#D2D7D8" stroke-width="2" stroke-miterlimit="10" x1="963.7" y1="1468.5" x2="187.5" y2="1468.5"/>
<line fill="none" stroke="#D2D7D8" stroke-width="2" stroke-miterlimit="10" x1="963.7" y1="1224.2" x2="187.5" y2="1224.2"/>
<g>
	<g>
		<path fill="#8FA3AD" d="M1500,1372.1v-3.4h2.7v3.4H1500z"/>
		<path fill="#8FA3AD" d="M1505.9,1349.3h2.6l6.5,9.6l6.7-9.6h2.4l-7.8,11.1l8.3,11.7h-2.6l-6.9-10.1l-7,10.1h-2.5l8.2-11.8
			L1505.9,1349.3z"/>
		<path fill="#8FA3AD" d="M1526.4,1349.3h2.2v21h12.8v1.9h-15V1349.3z"/>
		<path fill="#8FA3AD" d="M1544.6,1364.6c-0.1,4.7,3.3,6.1,7.5,6.1c2.4,0,6-1.3,6-4.6c0-2.6-2.6-3.6-4.7-4.1l-5.1-1.2
			c-2.7-0.7-5.2-2-5.2-5.5c0-2.2,1.4-6.4,7.9-6.4c4.5,0,8.5,2.4,8.4,7.1h-2.2c-0.1-3.5-3-5.2-6.2-5.2c-3,0-5.7,1.2-5.7,4.5
			c0,2.1,1.6,3,3.5,3.5l5.6,1.4c3.2,0.9,5.9,2.3,5.9,6c0,1.6-0.6,6.5-8.7,6.5c-5.4,0-9.4-2.4-9.1-8H1544.6z"/>
	</g>
</g>
<g>
	<g>
		<path fill="#8FA3AD" d="M1494,1272.6v-3.4h2.7v3.4H1494z"/>
		<path fill="#8FA3AD" d="M1518.8,1256.7c-0.8-3.5-3.7-5.5-7-5.5c-6,0-8.6,5.1-8.6,10c0,5,2.6,10,8.6,10c4.2,0,6.9-3.3,7.3-7.3h2.2
			c-0.6,5.6-4.2,9.2-9.5,9.2c-7.2,0-10.8-5.7-10.8-11.9c0-6.2,3.6-11.9,10.8-11.9c4.3,0,8.6,2.6,9.2,7.4H1518.8z"/>
		<path fill="#8FA3AD" d="M1525.7,1265.1c-0.1,4.7,3.3,6.1,7.5,6.1c2.4,0,6-1.3,6-4.6c0-2.6-2.6-3.6-4.7-4.1l-5.1-1.2
			c-2.7-0.7-5.2-2-5.2-5.5c0-2.2,1.4-6.4,7.9-6.4c4.5,0,8.5,2.4,8.4,7.1h-2.2c-0.1-3.5-3-5.2-6.2-5.2c-3,0-5.7,1.2-5.7,4.5
			c0,2.1,1.6,3,3.5,3.5l5.6,1.4c3.2,0.9,5.9,2.3,5.9,6c0,1.6-0.6,6.5-8.7,6.5c-5.4,0-9.4-2.4-9.1-8H1525.7z"/>
		<path fill="#8FA3AD" d="M1542.3,1249.8h2.3l7.4,20.4h0.1l7.4-20.4h2.3l-8.5,22.8h-2.5L1542.3,1249.8z"/>
	</g>
</g>
<g>
	<g>
		<path fill="#8FA3AD" d="M186.9,1169.6h10.1c4.1,0,6.8,2.4,6.8,6.5c0,4.1-2.7,6.5-6.8,6.5h-8v9.8h-2.2V1169.6z M189.1,1180.8h7.5
			c3,0,5.1-1.5,5.1-4.7s-2.1-4.7-5.1-4.7h-7.5V1180.8z"/>
		<path fill="#8FA3AD" d="M206.7,1169.6h2v22.8h-2V1169.6z"/>
		<path fill="#8FA3AD" d="M227.4,1184.2c0,4.7-2.8,8.7-7.8,8.7s-7.8-4-7.8-8.7c0-4.7,2.8-8.7,7.8-8.7S227.4,1179.4,227.4,1184.2z
			 M213.8,1184.2c0,3.5,1.9,7,5.8,7c3.9,0,5.8-3.5,5.8-7c0-3.5-1.9-7-5.8-7C215.7,1177.1,213.8,1180.7,213.8,1184.2z"/>
		<path fill="#8FA3AD" d="M233.6,1175.9h3.4v1.7h-3.4v11.1c0,1.3,0.2,2.1,1.6,2.2c0.6,0,1.2,0,1.7-0.1v1.7c-0.6,0-1.2,0.1-1.8,0.1
			c-2.7,0-3.6-0.9-3.6-3.7v-11.3h-2.9v-1.7h2.9v-5h2V1175.9z"/>
		<path fill="#8FA3AD" d="M249.2,1169.6h14.5v1.9h-12.3v8.3h10.9v1.9h-10.9v10.9h-2.2V1169.6z"/>
		<path fill="#8FA3AD" d="M266,1175.9h1.9v3.9h0.1c1-2.7,3.3-4.2,6.2-4.1v2c-3.6-0.2-6.1,2.5-6.1,5.9v8.8h-2V1175.9z"/>
		<path fill="#8FA3AD" d="M276.6,1184.7c0,2.9,1.6,6.5,5.4,6.5c2.9,0,4.5-1.7,5.2-4.2h2c-0.9,3.7-3,5.9-7.2,5.9
			c-5.2,0-7.5-4-7.5-8.7c0-4.4,2.2-8.7,7.5-8.7c5.3,0,7.4,4.6,7.3,9.3H276.6z M287.3,1183c-0.1-3-2-5.9-5.2-5.9
			c-3.3,0-5.1,2.9-5.4,5.9H287.3z"/>
		<path fill="#8FA3AD" d="M306.6,1198.5h-2v-9.2h-0.1c-0.9,2.4-3.3,3.6-5.7,3.6c-5,0-7.4-4.1-7.4-8.7c0-4.7,2.4-8.7,7.4-8.7
			c2.4,0,5,1.5,5.9,3.6h0.1v-3.1h1.9V1198.5z M298.8,1191.2c4.3,0,5.8-3.6,5.8-7c0-3.4-1.5-7-5.8-7c-3.8,0-5.4,3.6-5.4,7
			C293.4,1187.6,294.9,1191.2,298.8,1191.2z"/>
		<path fill="#8FA3AD" d="M323.8,1192.4H322v-3h-0.1c-1.1,2.2-3.2,3.5-5.7,3.5c-4.2,0-5.8-2.4-5.8-6.3v-10.7h2v10.8
			c0.1,3,1.2,4.5,4.4,4.5c3.5,0,5-3.3,5-6.6v-8.7h2V1192.4z"/>
		<path fill="#8FA3AD" d="M328.8,1184.7c0,2.9,1.6,6.5,5.4,6.5c2.9,0,4.5-1.7,5.2-4.2h2c-0.9,3.7-3,5.9-7.2,5.9
			c-5.2,0-7.5-4-7.5-8.7c0-4.4,2.2-8.7,7.5-8.7c5.3,0,7.4,4.6,7.3,9.3H328.8z M339.5,1183c-0.1-3-2-5.9-5.2-5.9
			c-3.3,0-5.1,2.9-5.4,5.9H339.5z"/>
		<path fill="#8FA3AD" d="M344.2,1175.9h2v2.8h0.1c0.7-2,2.9-3.3,5.3-3.3c4.6,0,6,2.4,6,6.4v10.6h-2v-10.3c0-2.8-0.9-5-4.2-5
			c-3.2,0-5.1,2.4-5.2,5.7v9.6h-2V1175.9z"/>
		<path fill="#8FA3AD" d="M373.1,1181.1c-0.5-2.5-2-4-4.7-4c-3.9,0-5.8,3.5-5.8,7c0,3.5,1.9,7,5.8,7c2.5,0,4.5-2,4.8-4.7h2
			c-0.5,4-3.1,6.4-6.8,6.4c-5.1,0-7.8-4-7.8-8.7c0-4.7,2.8-8.7,7.8-8.7c3.5,0,6.2,1.9,6.7,5.7H373.1z"/>
		<path fill="#8FA3AD" d="M376.2,1175.9h2.1l5.4,14.1l5.1-14.1h2l-7.2,19c-1.2,2.8-1.8,3.6-4.4,3.6c-0.8,0-1.2,0-1.5-0.2v-1.7
			c0.5,0.1,0.9,0.2,1.4,0.2c1.8,0,2.2-1.1,2.9-2.6l0.7-1.9L376.2,1175.9z"/>
	</g>
</g>
<g>
	<g>
		<path fill="#8FA3AD" d="M1440.8,1166.4h2.2v9.9h13.6v-9.9h2.2v22.8h-2.2v-11.1H1443v11.1h-2.2V1166.4z"/>
		<path fill="#8FA3AD" d="M1463,1166.4h2v3.2h-2V1166.4z M1463,1172.7h2v16.5h-2V1172.7z"/>
		<path fill="#8FA3AD" d="M1478.8,1177.5c-0.1-2.5-2-3.6-4.3-3.6c-1.8,0-3.9,0.7-3.9,2.8c0,1.8,2,2.4,3.4,2.8l2.7,0.6
			c2.3,0.4,4.7,1.7,4.7,4.6c0,3.6-3.6,5-6.6,5c-3.8,0-6.5-1.8-6.8-5.8h2c0.2,2.7,2.2,4.1,4.9,4.1c1.9,0,4.5-0.8,4.5-3.1
			c0-1.9-1.8-2.6-3.6-3l-2.6-0.6c-2.6-0.7-4.6-1.6-4.6-4.4c0-3.4,3.3-4.6,6.2-4.6c3.3,0,5.9,1.7,6,5.3H1478.8z"/>
		<path fill="#8FA3AD" d="M1487.5,1172.7h3.4v1.7h-3.4v11.1c0,1.3,0.2,2.1,1.6,2.2c0.6,0,1.2,0,1.7-0.1v1.7c-0.6,0-1.2,0.1-1.8,0.1
			c-2.7,0-3.6-0.9-3.6-3.7v-11.3h-2.9v-1.7h2.9v-5h2V1172.7z"/>
		<path fill="#8FA3AD" d="M1508.6,1180.9c0,4.7-2.8,8.7-7.8,8.7s-7.8-4-7.8-8.7c0-4.7,2.8-8.7,7.8-8.7S1508.6,1176.2,1508.6,1180.9z
			 M1495,1180.9c0,3.5,1.9,7,5.8,7c3.9,0,5.8-3.5,5.8-7c0-3.5-1.9-7-5.8-7C1496.9,1173.9,1495,1177.4,1495,1180.9z"/>
		<path fill="#8FA3AD" d="M1511.6,1172.7h1.9v3.9h0.1c1-2.7,3.3-4.2,6.2-4.1v2c-3.6-0.2-6.1,2.5-6.1,5.9v8.8h-2V1172.7z"/>
		<path fill="#8FA3AD" d="M1521.7,1166.4h2v3.2h-2V1166.4z M1521.7,1172.7h2v16.5h-2V1172.7z"/>
		<path fill="#8FA3AD" d="M1539.2,1177.9c-0.5-2.5-2-4-4.7-4c-3.9,0-5.8,3.5-5.8,7c0,3.5,1.9,7,5.8,7c2.5,0,4.5-2,4.8-4.7h2
			c-0.5,4-3.1,6.4-6.8,6.4c-5.1,0-7.8-4-7.8-8.7c0-4.7,2.8-8.7,7.8-8.7c3.5,0,6.2,1.9,6.7,5.7H1539.2z"/>
		<path fill="#8FA3AD" d="M1544,1177.7c0.2-3.9,2.9-5.5,6.7-5.5c2.9,0,6.1,0.9,6.1,5.3v8.8c0,0.8,0.4,1.2,1.2,1.2
			c0.2,0,0.5-0.1,0.6-0.1v1.7c-0.4,0.1-0.8,0.1-1.3,0.1c-2,0-2.4-1.2-2.4-2.9h-0.1c-1.4,2.1-2.8,3.4-6,3.4c-3,0-5.5-1.5-5.5-4.8
			c0-4.6,4.5-4.8,8.9-5.3c1.7-0.2,2.6-0.4,2.6-2.2c0-2.7-2-3.4-4.3-3.4c-2.5,0-4.4,1.2-4.4,3.8H1544z M1554.7,1180.2L1554.7,1180.2
			c-0.3,0.5-1.2,0.6-1.8,0.7c-3.4,0.6-7.7,0.6-7.7,3.8c0,2,1.8,3.3,3.7,3.3c3.1,0,5.8-2,5.8-5.2V1180.2z"/>
		<path fill="#8FA3AD" d="M1560.8,1166.4h2v22.8h-2V1166.4z"/>
		<path fill="#8FA3AD" d="M1576,1166.4h7.9c6.9,0.2,10.5,3.9,10.5,11.4c0,7.5-3.6,11.3-10.5,11.4h-7.9V1166.4z M1578.2,1187.3h4.6
			c6.6,0,9.4-2.8,9.4-9.6c0-6.8-2.8-9.6-9.4-9.6h-4.6V1187.3z"/>
		<path fill="#8FA3AD" d="M1597.3,1177.7c0.2-3.9,2.9-5.5,6.7-5.5c2.9,0,6.1,0.9,6.1,5.3v8.8c0,0.8,0.4,1.2,1.2,1.2
			c0.2,0,0.5-0.1,0.6-0.1v1.7c-0.4,0.1-0.8,0.1-1.3,0.1c-2,0-2.4-1.2-2.4-2.9h-0.1c-1.4,2.1-2.8,3.4-6,3.4c-3,0-5.5-1.5-5.5-4.8
			c0-4.6,4.5-4.8,8.9-5.3c1.7-0.2,2.6-0.4,2.6-2.2c0-2.7-2-3.4-4.3-3.4c-2.5,0-4.4,1.2-4.4,3.8H1597.3z M1608.1,1180.2
			L1608.1,1180.2c-0.3,0.5-1.2,0.6-1.8,0.7c-3.4,0.6-7.7,0.6-7.7,3.8c0,2,1.8,3.3,3.7,3.3c3.1,0,5.8-2,5.8-5.2V1180.2z"/>
		<path fill="#8FA3AD" d="M1617.3,1172.7h3.4v1.7h-3.4v11.1c0,1.3,0.2,2.1,1.6,2.2c0.6,0,1.2,0,1.7-0.1v1.7c-0.6,0-1.2,0.1-1.8,0.1
			c-2.7,0-3.6-0.9-3.6-3.7v-11.3h-2.9v-1.7h2.9v-5h2V1172.7z"/>
		<path fill="#8FA3AD" d="M1623.4,1177.7c0.2-3.9,2.9-5.5,6.7-5.5c2.9,0,6.1,0.9,6.1,5.3v8.8c0,0.8,0.4,1.2,1.2,1.2
			c0.2,0,0.5-0.1,0.6-0.1v1.7c-0.4,0.1-0.8,0.1-1.3,0.1c-2,0-2.4-1.2-2.4-2.9h-0.1c-1.4,2.1-2.8,3.4-6,3.4c-3,0-5.5-1.5-5.5-4.8
			c0-4.6,4.5-4.8,8.9-5.3c1.7-0.2,2.6-0.4,2.6-2.2c0-2.7-2-3.4-4.3-3.4c-2.5,0-4.4,1.2-4.4,3.8H1623.4z M1634.2,1180.2
			L1634.2,1180.2c-0.3,0.5-1.2,0.6-1.8,0.7c-3.4,0.6-7.7,0.6-7.7,3.8c0,2,1.8,3.3,3.7,3.3c3.1,0,5.8-2,5.8-5.2V1180.2z"/>
	</g>
</g>
<g>
	<g>
		<path fill="#8FA3AD" d="M186.8,1251.4h9.9c5.9,0,10.4,3.7,10.4,11.3c0,6.6-3.4,11.6-10.4,11.6h-9.9V1251.4z M191.8,1270.1h4.5
			c2.9,0,5.7-1.8,5.7-6.8c0-4.6-1.6-7.6-6.6-7.6h-3.6V1270.1z"/>
		<path fill="#8FA3AD" d="M395.6,1256.2c3.5-0.1,5.7-0.2,6.3-4.3h1.6v22.4h-2v-16.6h-5.9V1256.2z"/>
		<path fill="#8FA3AD" d="M426.8,1274.3h-1.9v-3.1h-0.1c-0.9,2.1-3.5,3.6-5.9,3.6c-5,0-7.4-4.1-7.4-8.7c0-4.7,2.4-8.7,7.4-8.7
			c2.5,0,4.9,1.2,5.7,3.6h0.1v-9.5h2V1274.3z M419,1273.1c4.3,0,5.8-3.6,5.8-7c0-3.4-1.5-7-5.8-7c-3.8,0-5.4,3.6-5.4,7
			C413.6,1269.5,415.1,1273.1,419,1273.1z"/>
		<path fill="#8FA3AD" d="M521.3,1256.2c3.5-0.1,5.7-0.2,6.3-4.3h1.6v22.4h-2v-16.6h-5.9V1256.2z"/>
		<path fill="#8FA3AD" d="M536.3,1257.8h2.1l4.2,14.1h0.1l4-14.1h2.3l4,14.1h0.1l4.2-14.1h2.1l-5.3,16.5H552l-4.1-13.9h-0.1l-4,13.9
			h-2.2L536.3,1257.8z"/>
		<path fill="#8FA3AD" d="M649.4,1256.2c3.5-0.1,5.7-0.2,6.3-4.3h1.6v22.4h-2v-16.6h-5.9V1256.2z"/>
		<path fill="#8FA3AD" d="M666,1257.8h1.9v2.8h0.1c1.1-2,2.8-3.3,5.4-3.3c2.2,0,4.1,1.1,4.7,3.2c1-2.2,3.1-3.2,5.2-3.2
			c3.6,0,5.5,1.9,5.5,5.8v11.2h-2v-11.1c0-2.7-1-4.2-3.9-4.2c-3.5,0-4.5,2.9-4.5,6v9.3h-2v-11.2c0-2.2-0.9-4.1-3.5-4.1
			c-3.5,0-4.9,2.6-4.9,6.1v9.2h-2V1257.8z"/>
		<path fill="#8FA3AD" d="M780.4,1267.2c-0.1,3.6,2,5.9,5.6,5.9c2.9,0,5.7-1.8,5.7-5c0-3.2-2.4-4.7-5.4-4.7h-1.7v-1.7h1.7
			c2.1,0,4.5-1.2,4.5-4.1c0-2.9-2.2-4.2-4.9-4.2c-3.4,0-5.2,2.3-5.1,5.7h-2c0-4.2,2.7-7.4,7.1-7.4c3.5,0,6.9,1.7,6.9,5.7
			c0,2.4-1.4,4.4-3.8,5v0.1c2.9,0.5,4.6,2.6,4.6,5.5c0,4.4-3.6,6.8-7.7,6.8c-4.6,0-8-2.8-7.6-7.6H780.4z"/>
		<path fill="#8FA3AD" d="M797.1,1257.8h1.9v2.8h0.1c1.1-2,2.8-3.3,5.4-3.3c2.2,0,4.1,1.1,4.7,3.2c1-2.2,3.1-3.2,5.2-3.2
			c3.6,0,5.5,1.9,5.5,5.8v11.2h-2v-11.1c0-2.7-1-4.2-3.9-4.2c-3.5,0-4.5,2.9-4.5,6v9.3h-2v-11.2c0-2.2-0.9-4.1-3.5-4.1
			c-3.5,0-4.9,2.6-4.9,6.1v9.2h-2V1257.8z"/>
		<path fill="#8FA3AD" d="M934.4,1257.6c-0.4-2.5-2.1-4.2-4.7-4.2c-5.2,0-6.2,6-6.2,10h0.1c1.1-2.2,3.4-3.7,6-3.7
			c4.5,0,7.4,3.1,7.4,7.5c0,4.4-3.2,7.6-7.6,7.6c-5.4,0-7.8-3.2-7.8-11.9c0-2.7,0.7-11.2,8-11.2c3.9,0,6.4,2,6.9,5.9H934.4z
			 M924,1267.3c0,3.2,1.7,5.8,5.6,5.8c3.2,0,5.4-2.7,5.4-5.8c0-3.3-2-5.9-5.4-5.9C926,1261.4,924,1264,924,1267.3z"/>
		<path fill="#8FA3AD" d="M938.1,1257.8h2.1l5.4,14.1l5.1-14.1h2l-7.2,19c-1.2,2.8-1.8,3.6-4.4,3.6c-0.8,0-1.2,0-1.5-0.2v-1.7
			c0.5,0.1,0.9,0.2,1.4,0.2c1.8,0,2.2-1.1,2.9-2.6l0.7-1.9L938.1,1257.8z"/>
		<path fill="#8FA3AD" d="M208.6,1330.5h-5l-3.9-15.6h-0.1l-3.8,15.6h-5.1l-6-22.8h5l3.6,15.6h0.1l4-15.6h4.7l3.9,15.7h0.1l3.7-15.7
			h4.9L208.6,1330.5z"/>
		<path fill="#8FA3AD" d="M390.3,1312.5c3.5-0.1,5.7-0.2,6.3-4.3h1.6v22.4h-2v-16.6h-5.9V1312.5z"/>
		<path fill="#8FA3AD" d="M405.2,1314h2.1l4.2,14.1h0.1l4-14.1h2.3l4,14.1h0.1l4.2-14.1h2.1l-5.3,16.5h-2.2l-4.1-13.9h-0.1l-4,13.9
			h-2.2L405.2,1314z"/>
		<path fill="#8FA3AD" d="M518.4,1312.5c3.5-0.1,5.7-0.2,6.3-4.3h1.6v22.4h-2v-16.6h-5.9V1312.5z"/>
		<path fill="#8FA3AD" d="M535,1314h1.9v2.8h0.1c1.1-2,2.8-3.3,5.4-3.3c2.2,0,4.1,1.1,4.7,3.2c1-2.2,3.1-3.2,5.2-3.2
			c3.6,0,5.5,1.9,5.5,5.8v11.2h-2v-11.1c0-2.7-1-4.2-3.9-4.2c-3.5,0-4.5,2.9-4.5,6v9.3h-2v-11.2c0-2.2-0.9-4.1-3.5-4.1
			c-3.5,0-4.9,2.6-4.9,6.1v9.2h-2V1314z"/>
		<path fill="#8FA3AD" d="M649.4,1323.4c-0.1,3.6,2,5.9,5.6,5.9c2.9,0,5.7-1.8,5.7-5c0-3.2-2.4-4.7-5.4-4.7h-1.7v-1.7h1.7
			c2.1,0,4.5-1.2,4.5-4.1c0-2.9-2.2-4.2-4.9-4.2c-3.4,0-5.2,2.3-5.1,5.7h-2c0-4.2,2.7-7.4,7.1-7.4c3.5,0,6.9,1.7,6.9,5.7
			c0,2.4-1.4,4.4-3.8,5v0.1c2.9,0.5,4.6,2.6,4.6,5.5c0,4.4-3.6,6.8-7.7,6.8c-4.6,0-8-2.8-7.6-7.6H649.4z"/>
		<path fill="#8FA3AD" d="M666,1314h1.9v2.8h0.1c1.1-2,2.8-3.3,5.4-3.3c2.2,0,4.1,1.1,4.7,3.2c1-2.2,3.1-3.2,5.2-3.2
			c3.6,0,5.5,1.9,5.5,5.8v11.2h-2v-11.1c0-2.7-1-4.2-3.9-4.2c-3.5,0-4.5,2.9-4.5,6v9.3h-2v-11.2c0-2.2-0.9-4.1-3.5-4.1
			c-3.5,0-4.9,2.6-4.9,6.1v9.2h-2V1314z"/>
		<path fill="#8FA3AD" d="M791.5,1313.8c-0.4-2.5-2.1-4.2-4.7-4.2c-5.2,0-6.2,6-6.2,10h0.1c1.1-2.2,3.4-3.7,6-3.7
			c4.5,0,7.4,3.1,7.4,7.5c0,4.4-3.2,7.6-7.6,7.6c-5.4,0-7.8-3.2-7.8-11.9c0-2.7,0.7-11.2,8-11.2c3.9,0,6.4,2,6.9,5.9H791.5z
			 M781.1,1323.6c0,3.2,1.7,5.8,5.6,5.8c3.2,0,5.4-2.7,5.4-5.8c0-3.3-2-5.9-5.4-5.9C783.1,1317.7,781.1,1320.3,781.1,1323.6z"/>
		<path fill="#8FA3AD" d="M797.1,1314h1.9v2.8h0.1c1.1-2,2.8-3.3,5.4-3.3c2.2,0,4.1,1.1,4.7,3.2c1-2.2,3.1-3.2,5.2-3.2
			c3.6,0,5.5,1.9,5.5,5.8v11.2h-2v-11.1c0-2.7-1-4.2-3.9-4.2c-3.5,0-4.5,2.9-4.5,6v9.3h-2v-11.2c0-2.2-0.9-4.1-3.5-4.1
			c-3.5,0-4.9,2.6-4.9,6.1v9.2h-2V1314z"/>
		<path fill="#8FA3AD" d="M923.4,1312.5c3.5-0.1,5.7-0.2,6.3-4.3h1.6v22.4h-2v-16.6h-5.9V1312.5z"/>
		<path fill="#8FA3AD" d="M938.1,1314h2.1l5.4,14.1l5.1-14.1h2l-7.2,19c-1.2,2.8-1.8,3.6-4.4,3.6c-0.8,0-1.2,0-1.5-0.2v-1.7
			c0.5,0.1,0.9,0.2,1.4,0.2c1.8,0,2.2-1.1,2.9-2.6l0.7-1.9L938.1,1314z"/>
		<path fill="#8FA3AD" d="M186.8,1364h7.1l5.3,15.7h0.1l5.1-15.7h7.1v22.8h-4.7v-16.2h-0.1l-5.6,16.2h-3.9l-5.6-16h-0.1v16h-4.7
			V1364z"/>
		<path fill="#8FA3AD" d="M387.4,1368.7c3.5-0.1,5.7-0.2,6.3-4.3h1.6v22.4h-2v-16.6h-5.9V1368.7z"/>
		<path fill="#8FA3AD" d="M404,1370.3h1.9v2.8h0.1c1.1-2,2.8-3.3,5.4-3.3c2.2,0,4.1,1.1,4.7,3.2c1-2.2,3.1-3.2,5.2-3.2
			c3.6,0,5.5,1.9,5.5,5.8v11.2h-2v-11.1c0-2.7-1-4.2-3.9-4.2c-3.5,0-4.5,2.9-4.5,6v9.3h-2v-11.2c0-2.2-0.9-4.1-3.5-4.1
			c-3.5,0-4.9,2.6-4.9,6.1v9.2h-2V1370.3z"/>
		<path fill="#8FA3AD" d="M518.4,1379.7c-0.1,3.6,2,5.9,5.6,5.9c2.9,0,5.7-1.8,5.7-5c0-3.2-2.4-4.7-5.4-4.7h-1.7v-1.7h1.7
			c2.1,0,4.5-1.2,4.5-4.1c0-2.9-2.2-4.2-4.9-4.2c-3.4,0-5.2,2.3-5.1,5.7h-2c0-4.2,2.7-7.4,7.1-7.4c3.5,0,6.9,1.7,6.9,5.7
			c0,2.4-1.4,4.4-3.8,5v0.1c2.9,0.5,4.6,2.6,4.6,5.5c0,4.4-3.6,6.8-7.7,6.8c-4.6,0-8-2.8-7.6-7.6H518.4z"/>
		<path fill="#8FA3AD" d="M535,1370.3h1.9v2.8h0.1c1.1-2,2.8-3.3,5.4-3.3c2.2,0,4.1,1.1,4.7,3.2c1-2.2,3.1-3.2,5.2-3.2
			c3.6,0,5.5,1.9,5.5,5.8v11.2h-2v-11.1c0-2.7-1-4.2-3.9-4.2c-3.5,0-4.5,2.9-4.5,6v9.3h-2v-11.2c0-2.2-0.9-4.1-3.5-4.1
			c-3.5,0-4.9,2.6-4.9,6.1v9.2h-2V1370.3z"/>
		<path fill="#8FA3AD" d="M660.5,1370.1c-0.4-2.5-2.1-4.2-4.7-4.2c-5.2,0-6.2,6-6.2,10h0.1c1.1-2.2,3.4-3.7,6-3.7
			c4.5,0,7.4,3.1,7.4,7.5c0,4.4-3.2,7.6-7.6,7.6c-5.4,0-7.8-3.2-7.8-11.9c0-2.7,0.7-11.2,8-11.2c3.9,0,6.4,2,6.9,5.9H660.5z
			 M650,1379.8c0,3.2,1.7,5.8,5.6,5.8c3.2,0,5.4-2.7,5.4-5.8c0-3.3-2-5.9-5.4-5.9C652.1,1373.9,650,1376.5,650,1379.8z"/>
		<path fill="#8FA3AD" d="M666,1370.3h1.9v2.8h0.1c1.1-2,2.8-3.3,5.4-3.3c2.2,0,4.1,1.1,4.7,3.2c1-2.2,3.1-3.2,5.2-3.2
			c3.6,0,5.5,1.9,5.5,5.8v11.2h-2v-11.1c0-2.7-1-4.2-3.9-4.2c-3.5,0-4.5,2.9-4.5,6v9.3h-2v-11.2c0-2.2-0.9-4.1-3.5-4.1
			c-3.5,0-4.9,2.6-4.9,6.1v9.2h-2V1370.3z"/>
		<path fill="#8FA3AD" d="M792.3,1368.7c3.5-0.1,5.7-0.2,6.3-4.3h1.6v22.4h-2v-16.6h-5.9V1368.7z"/>
		<path fill="#8FA3AD" d="M807.1,1370.3h2.1l5.4,14.1l5.1-14.1h2l-7.2,19c-1.2,2.8-1.8,3.6-4.4,3.6c-0.8,0-1.2,0-1.5-0.2v-1.7
			c0.5,0.1,0.9,0.2,1.4,0.2c1.8,0,2.2-1.1,2.9-2.6l0.7-1.9L807.1,1370.3z"/>
		<path fill="#8FA3AD" d="M936.2,1386.8h-14.8c0.2-6.7,7-8.3,10.8-12.1c1.2-1.2,1.9-2.4,1.9-4.2c0-2.9-2.3-4.6-5-4.6
			c-3.7,0-5.1,2.9-5.1,6.2h-2c-0.1-4.6,2.3-7.9,7.2-7.9c3.9,0,6.9,2.1,6.9,6.3c0,3.7-2.7,6.1-5.6,8c-2.2,1.5-6.2,3.5-6.7,6.5h12.4
			V1386.8z"/>
		<path fill="#8FA3AD" d="M938.1,1370.3h2.1l5.4,14.1l5.1-14.1h2l-7.2,19c-1.2,2.8-1.8,3.6-4.4,3.6c-0.8,0-1.2,0-1.5-0.2v-1.7
			c0.5,0.1,0.9,0.2,1.4,0.2c1.8,0,2.2-1.1,2.9-2.6l0.7-1.9L938.1,1370.3z"/>
		<path fill="#8FA3AD" d="M192.7,1434.2l-8.4-14h5.7l5.3,9l5.3-9h5.6l-8.5,14.1v8.8h-5V1434.2z"/>
		<path fill="#8FA3AD" d="M399.2,1425c3.5-0.1,5.7-0.2,6.3-4.3h1.6v22.4h-2v-16.6h-5.9V1425z"/>
		<path fill="#8FA3AD" d="M413.9,1426.5h2.1l5.4,14.1l5.1-14.1h2l-7.2,19c-1.2,2.8-1.8,3.6-4.4,3.6c-0.8,0-1.2,0-1.5-0.2v-1.7
			c0.5,0.1,0.9,0.2,1.4,0.2c1.8,0,2.2-1.1,2.9-2.6l0.7-1.9L413.9,1426.5z"/>
		<path fill="#8FA3AD" d="M543,1443.1h-14.8c0.2-6.7,7-8.3,10.8-12.1c1.2-1.2,1.9-2.4,1.9-4.2c0-2.9-2.3-4.6-5-4.6
			c-3.7,0-5.1,2.9-5.1,6.2h-2c-0.1-4.6,2.3-7.9,7.2-7.9c3.9,0,6.9,2.1,6.9,6.3c0,3.7-2.7,6.1-5.6,8c-2.2,1.5-6.2,3.5-6.7,6.5H543
			V1443.1z"/>
		<path fill="#8FA3AD" d="M545,1426.5h2.1l5.4,14.1l5.1-14.1h2l-7.2,19c-1.2,2.8-1.8,3.6-4.4,3.6c-0.8,0-1.2,0-1.5-0.2v-1.7
			c0.5,0.1,0.9,0.2,1.4,0.2c1.8,0,2.2-1.1,2.9-2.6l0.7-1.9L545,1426.5z"/>
		<path fill="#8FA3AD" d="M661.3,1436.7c0.1,3.1,2.4,5.2,5.5,5.2c3.5,0,5.6-2.8,5.6-6.1c0-3.3-2.4-5.8-5.7-5.8c-2,0-3.9,1-5,2.7H660
			l2.2-11.6h11.2v1.9h-9.8l-1.4,7.4l0.1,0.1c1.1-1.3,3-2.1,4.7-2.1c4.6,0,7.5,3.2,7.5,7.7c0,4.4-3.5,7.6-7.8,7.6
			c-4.2,0-7.3-2.6-7.4-6.9H661.3z"/>
		<path fill="#8FA3AD" d="M676,1426.5h2.1l5.4,14.1l5.1-14.1h2l-7.2,19c-1.2,2.8-1.8,3.6-4.4,3.6c-0.8,0-1.2,0-1.5-0.2v-1.7
			c0.5,0.1,0.9,0.2,1.4,0.2c1.8,0,2.2-1.1,2.9-2.6l0.7-1.9L676,1426.5z"/>
		<path fill="#8FA3AD" d="M774.5,1425c3.5-0.1,5.7-0.2,6.3-4.3h1.6v22.4h-2v-16.6h-5.9V1425z"/>
		<path fill="#8FA3AD" d="M805.9,1432c0,5.2-1.3,11.6-7.8,11.6s-7.8-6.3-7.8-11.5c0-5.2,1.3-11.6,7.8-11.6S805.9,1426.8,805.9,1432z
			 M792.3,1432c0,3.9,0.7,9.9,5.8,9.9c5.1,0,5.8-6,5.8-9.9c0-3.9-0.7-9.8-5.8-9.8C793,1422.2,792.3,1428.1,792.3,1432z"/>
		<path fill="#8FA3AD" d="M807.1,1426.5h2.1l5.4,14.1l5.1-14.1h2l-7.2,19c-1.2,2.8-1.8,3.6-4.4,3.6c-0.8,0-1.2,0-1.5-0.2v-1.7
			c0.5,0.1,0.9,0.2,1.4,0.2c1.8,0,2.2-1.1,2.9-2.6l0.7-1.9L807.1,1426.5z"/>
		<path fill="#8FA3AD" d="M902.3,1433.6l-9-13.4h2.6l7.5,11.6l7.5-11.6h2.6l-9,13.4v9.4h-2.2V1433.6z"/>
		<path fill="#8FA3AD" d="M913,1420.2h18.1v1.9h-8v21H921v-21h-8V1420.2z"/>
		<path fill="#8FA3AD" d="M933.2,1420.2h7.9c6.9,0.2,10.5,3.9,10.5,11.4s-3.6,11.3-10.5,11.4h-7.9V1420.2z M935.4,1441.2h4.6
			c6.6,0,9.4-2.8,9.4-9.6s-2.8-9.6-9.4-9.6h-4.6V1441.2z"/>
	</g>
</g>
<g>
	<g>
		<path fill="#D2D7D8" d="M1619.3,1226.2v73.2h-178.8v-73.2H1619.3 M1621.3,1224.2h-182.8v77.2h182.8V1224.2L1621.3,1224.2z"/>
	</g>
</g>
<g>
	<g>
		<path fill="#D2D7D8" d="M1619.3,1325.4v73.2h-178.8v-73.2H1619.3 M1621.3,1323.4h-182.8v77.2h182.8V1323.4L1621.3,1323.4z"/>
	</g>
</g>
<g>
	<g>
		<path fill="#8FA3AD" d="M1157.1,1262.2c0.2-3.9,2.9-5.5,6.7-5.5c2.9,0,6.1,0.9,6.1,5.3v8.8c0,0.8,0.4,1.2,1.2,1.2
			c0.2,0,0.5-0.1,0.6-0.1v1.7c-0.4,0.1-0.8,0.1-1.3,0.1c-2,0-2.4-1.2-2.4-2.9h-0.1c-1.4,2.1-2.8,3.4-6,3.4c-3,0-5.5-1.5-5.5-4.8
			c0-4.6,4.5-4.8,8.9-5.3c1.7-0.2,2.6-0.4,2.6-2.2c0-2.7-2-3.4-4.3-3.4c-2.5,0-4.4,1.2-4.4,3.8H1157.1z M1167.8,1264.6
			L1167.8,1264.6c-0.3,0.5-1.2,0.6-1.8,0.7c-3.4,0.6-7.7,0.6-7.7,3.8c0,2,1.8,3.3,3.7,3.3c3.1,0,5.8-2,5.8-5.2V1264.6z"/>
		<path fill="#8FA3AD" d="M1187.3,1273.6h-1.9v-3h-0.1c-1.1,2.2-3.2,3.5-5.7,3.5c-4.2,0-5.8-2.4-5.8-6.3v-10.7h2v10.8
			c0.1,3,1.2,4.5,4.4,4.5c3.5,0,5-3.3,5-6.6v-8.7h2V1273.6z"/>
		<path fill="#8FA3AD" d="M1194.3,1257.1h3.4v1.7h-3.4v11.1c0,1.3,0.2,2.1,1.6,2.2c0.6,0,1.2,0,1.7-0.1v1.7c-0.6,0-1.2,0.1-1.8,0.1
			c-2.7,0-3.6-0.9-3.6-3.7v-11.3h-2.9v-1.7h2.9v-5h2V1257.1z"/>
		<path fill="#8FA3AD" d="M1215.3,1265.4c0,4.7-2.8,8.7-7.8,8.7s-7.8-4-7.8-8.7c0-4.7,2.8-8.7,7.8-8.7S1215.3,1260.7,1215.3,1265.4z
			 M1201.7,1265.4c0,3.5,1.9,7,5.8,7c3.9,0,5.8-3.5,5.8-7c0-3.5-1.9-7-5.8-7C1203.6,1258.4,1201.7,1261.9,1201.7,1265.4z"/>
	</g>
</g>
<g>
	<g>
		<path fill="#8FA3AD" d="M1169.1,1352.3h2v22.8h-2V1352.3z"/>
		<path fill="#8FA3AD" d="M1189.8,1366.9c0,4.7-2.8,8.7-7.8,8.7s-7.8-4-7.8-8.7c0-4.7,2.8-8.7,7.8-8.7S1189.8,1362.2,1189.8,1366.9z
			 M1176.2,1366.9c0,3.5,1.9,7,5.8,7c3.9,0,5.8-3.5,5.8-7c0-3.5-1.9-7-5.8-7C1178.1,1359.9,1176.2,1363.4,1176.2,1366.9z"/>
		<path fill="#8FA3AD" d="M1206.7,1373.8c0,4.9-1.9,7.9-7.3,7.9c-3.3,0-6.6-1.5-6.8-5h2c0.4,2.4,2.6,3.3,4.8,3.3
			c3.7,0,5.3-2.2,5.3-6.2v-2.2h-0.1c-0.9,2-2.9,3.4-5.2,3.4c-5.3,0-7.5-3.8-7.5-8.5c0-4.5,2.7-8.3,7.5-8.3c2.4,0,4.4,1.5,5.2,3.3
			h0.1v-2.8h2V1373.8z M1204.7,1366.7c0-3.2-1.5-6.8-5.3-6.8c-3.8,0-5.4,3.4-5.4,6.8c0,3.3,1.7,6.6,5.4,6.6
			C1202.9,1373.3,1204.7,1370.1,1204.7,1366.7z"/>
	</g>
</g>
<g>
	<g>
		<path fill="#8FA3AD" d="M1116,1176.5c-0.8-3.5-3.7-5.5-7-5.5c-6,0-8.6,5.1-8.6,10s2.6,10,8.6,10c4.2,0,6.9-3.3,7.3-7.3h2.2
			c-0.6,5.6-4.2,9.2-9.5,9.2c-7.2,0-10.8-5.7-10.8-11.9s3.6-11.9,10.8-11.9c4.3,0,8.6,2.6,9.2,7.4H1116z"/>
		<path fill="#8FA3AD" d="M1121.5,1169.6h2v9.2h0.1c0.7-2,2.9-3.3,5.3-3.3c4.6,0,6,2.4,6,6.4v10.6h-2v-10.3c0-2.8-0.9-5-4.2-5
			c-3.2,0-5.1,2.4-5.2,5.7v9.6h-2V1169.6z"/>
		<path fill="#8FA3AD" d="M1138.5,1181c0.2-3.9,2.9-5.5,6.7-5.5c2.9,0,6.1,0.9,6.1,5.3v8.8c0,0.8,0.4,1.2,1.2,1.2
			c0.2,0,0.5-0.1,0.6-0.1v1.7c-0.4,0.1-0.8,0.1-1.3,0.1c-2,0-2.4-1.2-2.4-2.9h-0.1c-1.4,2.1-2.8,3.4-6,3.4c-3,0-5.5-1.5-5.5-4.8
			c0-4.6,4.5-4.8,8.9-5.3c1.7-0.2,2.6-0.4,2.6-2.2c0-2.7-2-3.4-4.3-3.4c-2.5,0-4.4,1.2-4.4,3.8H1138.5z M1149.2,1183.4
			L1149.2,1183.4c-0.3,0.5-1.2,0.6-1.8,0.7c-3.4,0.6-7.7,0.6-7.7,3.8c0,2,1.8,3.3,3.7,3.3c3.1,0,5.8-2,5.8-5.2V1183.4z"/>
		<path fill="#8FA3AD" d="M1155.3,1175.9h1.9v3.9h0.1c1-2.7,3.3-4.2,6.2-4.1v2c-3.6-0.2-6.1,2.5-6.1,5.9v8.8h-2V1175.9z"/>
		<path fill="#8FA3AD" d="M1168.6,1175.9h3.4v1.7h-3.4v11.1c0,1.3,0.2,2.1,1.6,2.2c0.6,0,1.2,0,1.7-0.1v1.7c-0.6,0-1.2,0.1-1.8,0.1
			c-2.7,0-3.6-0.9-3.6-3.7v-11.3h-2.9v-1.7h2.9v-5h2V1175.9z"/>
		<path fill="#8FA3AD" d="M1185.1,1184.9c-0.1,4.7,3.3,6.1,7.5,6.1c2.4,0,6-1.3,6-4.6c0-2.6-2.6-3.6-4.7-4.1l-5.1-1.2
			c-2.7-0.7-5.2-2-5.2-5.5c0-2.2,1.4-6.4,7.9-6.4c4.5,0,8.5,2.4,8.4,7.1h-2.2c-0.1-3.5-3-5.2-6.2-5.2c-3,0-5.7,1.2-5.7,4.5
			c0,2.1,1.6,3,3.5,3.5l5.6,1.4c3.2,0.9,5.9,2.3,5.9,6c0,1.6-0.6,6.5-8.7,6.5c-5.4,0-9.4-2.4-9.1-8H1185.1z"/>
		<path fill="#8FA3AD" d="M1205.1,1184.7c0,2.9,1.6,6.5,5.4,6.5c2.9,0,4.5-1.7,5.2-4.2h2c-0.9,3.7-3,5.9-7.2,5.9
			c-5.2,0-7.5-4-7.5-8.7c0-4.4,2.2-8.7,7.5-8.7c5.3,0,7.4,4.6,7.3,9.3H1205.1z M1215.8,1183c-0.1-3-2-5.9-5.2-5.9
			c-3.3,0-5.1,2.9-5.4,5.9H1215.8z"/>
		<path fill="#8FA3AD" d="M1223.7,1175.9h3.4v1.7h-3.4v11.1c0,1.3,0.2,2.1,1.6,2.2c0.6,0,1.2,0,1.7-0.1v1.7c-0.6,0-1.2,0.1-1.8,0.1
			c-2.7,0-3.6-0.9-3.6-3.7v-11.3h-2.9v-1.7h2.9v-5h2V1175.9z"/>
		<path fill="#8FA3AD" d="M1233.2,1175.9h3.4v1.7h-3.4v11.1c0,1.3,0.2,2.1,1.6,2.2c0.6,0,1.2,0,1.7-0.1v1.7c-0.6,0-1.2,0.1-1.8,0.1
			c-2.7,0-3.6-0.9-3.6-3.7v-11.3h-2.9v-1.7h2.9v-5h2V1175.9z"/>
		<path fill="#8FA3AD" d="M1239.5,1169.6h2v3.2h-2V1169.6z M1239.5,1175.9h2v16.5h-2V1175.9z"/>
		<path fill="#8FA3AD" d="M1245.3,1175.9h2v2.8h0.1c0.7-2,2.9-3.3,5.3-3.3c4.6,0,6,2.4,6,6.4v10.6h-2v-10.3c0-2.8-0.9-5-4.2-5
			c-3.2,0-5.1,2.4-5.2,5.7v9.6h-2V1175.9z"/>
		<path fill="#8FA3AD" d="M1276.5,1191.1c0,4.9-1.9,7.9-7.3,7.9c-3.3,0-6.6-1.5-6.8-5h2c0.4,2.4,2.6,3.3,4.8,3.3
			c3.7,0,5.3-2.2,5.3-6.2v-2.2h-0.1c-0.9,2-2.9,3.4-5.2,3.4c-5.3,0-7.5-3.8-7.5-8.5c0-4.5,2.7-8.3,7.5-8.3c2.4,0,4.4,1.5,5.2,3.3
			h0.1v-2.8h2V1191.1z M1274.5,1184c0-3.2-1.5-6.8-5.3-6.8c-3.8,0-5.4,3.4-5.4,6.8c0,3.3,1.7,6.6,5.4,6.6
			C1272.6,1190.5,1274.5,1187.3,1274.5,1184z"/>
		<path fill="#8FA3AD" d="M1290.2,1180.8c-0.1-2.5-2-3.6-4.3-3.6c-1.8,0-3.9,0.7-3.9,2.8c0,1.8,2,2.4,3.4,2.8l2.7,0.6
			c2.3,0.4,4.7,1.7,4.7,4.6c0,3.6-3.6,5-6.6,5c-3.8,0-6.5-1.8-6.8-5.8h2c0.2,2.7,2.2,4.1,4.9,4.1c1.9,0,4.5-0.8,4.5-3.1
			c0-1.9-1.8-2.6-3.6-3l-2.6-0.6c-2.6-0.7-4.6-1.6-4.6-4.4c0-3.4,3.3-4.6,6.2-4.6c3.3,0,5.9,1.7,6,5.3H1290.2z"/>
	</g>
</g>
<g>
	<g>
		<path fill="#D2D7D8" d="M1277.8,1226.2v73.2H1099v-73.2H1277.8 M1279.8,1224.2H1097v77.2h182.8V1224.2L1279.8,1224.2z"/>
	</g>
</g>
<g>
	<g>
		<path fill="#D2D7D8" d="M1277.8,1325.4v73.2H1099v-73.2H1277.8 M1279.8,1323.4H1097v77.2h182.8V1323.4L1279.8,1323.4z"/>
	</g>
</g>
<g>
	<g>
		<path fill="#8FA3AD" d="M1186,1451.6c0,3.4-1.5,6-5.1,6c-3.6,0-5.1-2.6-5.1-6s1.5-6,5.1-6C1184.6,1445.5,1186,1448.1,1186,1451.6z
			 M1177.6,1451.6c0,2,0.7,4.6,3.4,4.6c2.7,0,3.4-2.6,3.4-4.6c0-2-0.7-4.6-3.4-4.6C1178.3,1446.9,1177.6,1449.5,1177.6,1451.6z
			 M1194.2,1444.9h1.5l-14.5,24.3h-1.5L1194.2,1444.9z M1200.1,1462.5c0,3.4-1.5,6-5.1,6c-3.6,0-5.1-2.6-5.1-6s1.5-6,5.1-6
			C1198.6,1456.5,1200.1,1459.1,1200.1,1462.5z M1191.6,1462.6c0,2,0.7,4.6,3.4,4.6c2.7,0,3.4-2.6,3.4-4.6c0-2-0.7-4.6-3.4-4.6
			C1192.3,1457.9,1191.6,1460.5,1191.6,1462.6z"/>
	</g>
</g>
<g>
	<g>
		<path fill="#D2D7D8" d="M1277.8,1426.5v73.2H1099v-73.2H1277.8 M1279.8,1424.5H1097v77.2h182.8V1424.5L1279.8,1424.5z"/>
	</g>
</g>
<polyline fill="none" stroke="#8FA3AD" stroke-width="2" stroke-miterlimit="10" points="74.6,686.8 145.1,732.1 271.7,744.2 
	286.2,724.8 328.9,730.1 381.2,753 464,723.8 536.1,744.2 578.9,686.8 602.4,681.1 624.8,692.5 698.5,674.8 716.7,687.3 
	736.2,651.9 772.6,656.8 809.6,773.9 832.1,763.4 847,826 868.4,831.2 880.6,744.2 903.7,741.5 940.1,728.9 980.1,741.5 
	1013.8,746.3 1035.4,728 1073.2,726.6 1090.3,693.2 1128,710.6 1147.2,600.1 1183.6,595.2 1202.1,618.2 1239.8,595.2 1277.5,562.5 
	1311.5,543.8 1354,539.7 1388.7,535.4 1427.3,546.6 1462,535.4 1484.8,549.4 1503.3,504.9 1539,501.5 1568.7,480.5 1573.7,618.2 
	1594.3,611.9 1613.7,630 1632.2,598.7 1650.8,593.1 1667.9,647.3 1686.4,646 1706.3,568.1 1722.7,570.9 1743.4,568.1 1779.7,686.8 
	"/>
<g>
</g>
<g>
</g>
<g>
</g>
<g>
</g>
<g>
</g>
<g>
</g>
<g>
</g>
<g>
</g>
<g>
</g>
<g>
</g>
<g>
</g>
<g>
</g>
<g>
</g>
<g>
</g>
<g>
</g>
</svg>
