<?xml version="1.0" encoding="utf-8"?>
<!-- Generator: Adobe Illustrator 18.0.0, SVG Export Plug-In . SVG Version: 6.00 Build 0)  -->
<!DOCTYPE svg PUBLIC "-//W3C//DTD SVG 1.1//EN" "http://www.w3.org/Graphics/SVG/1.1/DTD/svg11.dtd">
<svg version="1.1" id="Layer_1" xmlns="http://www.w3.org/2000/svg" xmlns:xlink="http://www.w3.org/1999/xlink" x="0px" y="0px"
	 viewBox="0 0 2560 1600" enable-background="new 0 0 2560 1600" xml:space="preserve">
<g>
	<polygon fill="none" points="1512,1179.1 1050.6,1289.2 1050.6,321.2 1512,321.2 	"/>
	<path fill="#959595" d="M1079.5,335.4c0,8.2-5.1,15-13.7,15s-13.7-6.8-13.7-15c0-8.2,5.1-15,13.7-15S1079.5,327.3,1079.5,335.4z
		 M1057.2,335.4c0,5.5,2.6,10.9,8.7,10.9s8.7-5.4,8.7-10.9c0-5.5-2.6-10.9-8.7-10.9S1057.2,330,1057.2,335.4z"/>
	<path fill="#959595" d="M1101.6,349.7h-4.5v-2.9h-0.1c-1.1,2.1-3.6,3.4-5.9,3.4c-5.4,0-7.7-2.7-7.7-8.1V329h4.6v12.7
		c0,3.6,1.5,5,4,5c3.8,0,5.1-2.4,5.1-5.6v-12h4.6V349.7z"/>
	<path fill="#959595" d="M1106.4,329h4.3v4h0.1c0.5-2.2,3.2-4.6,6-4.6c1,0,1.3,0.1,1.7,0.1v4.4c-0.6-0.1-1.3-0.2-2-0.2
		c-3.1,0-5.6,2.5-5.6,7.1v9.8h-4.6V329z"/>
	<path fill="#959595" d="M1131.7,329h4.3v2.8h0.1c1.3-2.4,3.8-3.4,6.4-3.4c6.5,0,9.7,5,9.7,11c0,5.6-2.8,10.8-8.9,10.8
		c-2.6,0-5.5-1-6.9-3.2h-0.1v10.3h-4.6V329z M1141.9,332.1c-3.8,0-5.8,2.9-5.8,7.3c0,4.2,2.1,7.3,5.8,7.3c4.2,0,5.7-3.7,5.7-7.3
		C1147.6,335.6,1145.7,332.1,1141.9,332.1z"/>
	<path fill="#959595" d="M1156,329h4.3v4h0.1c0.5-2.2,3.2-4.6,6-4.6c1,0,1.3,0.1,1.7,0.1v4.4c-0.6-0.1-1.3-0.2-2-0.2
		c-3.1,0-5.6,2.5-5.6,7.1v9.8h-4.6V329z"/>
	<path fill="#959595" d="M1168.4,339.4c0-6.3,3.8-10.9,10.4-10.9s10.4,4.6,10.4,10.9c0,6.4-3.8,10.9-10.4,10.9
		S1168.4,345.7,1168.4,339.4z M1184.7,339.4c0-3.6-1.8-7.3-5.9-7.3s-5.9,3.7-5.9,7.3c0,3.6,1.8,7.3,5.9,7.3S1184.7,343,1184.7,339.4
		z"/>
	<path fill="#959595" d="M1193.2,329h4.3v2.8h0.1c1.3-2.4,3.8-3.4,6.4-3.4c6.5,0,9.7,5,9.7,11c0,5.6-2.8,10.8-8.9,10.8
		c-2.6,0-5.5-1-6.9-3.2h-0.1v10.3h-4.6V329z M1203.4,332.1c-3.8,0-5.8,2.9-5.8,7.3c0,4.2,2.1,7.3,5.8,7.3c4.2,0,5.7-3.7,5.7-7.3
		C1209.1,335.6,1207.2,332.1,1203.4,332.1z"/>
	<path fill="#959595" d="M1217.5,329h4.3v4h0.1c0.5-2.2,3.2-4.6,6-4.6c1,0,1.3,0.1,1.7,0.1v4.4c-0.6-0.1-1.3-0.2-2-0.2
		c-3.1,0-5.6,2.5-5.6,7.1v9.8h-4.6V329z"/>
	<path fill="#959595" d="M1231.7,321.2h4.6v4.3h-4.6V321.2z M1231.7,329h4.6v20.7h-4.6V329z"/>
	<path fill="#959595" d="M1244.8,340.6c0,3.2,1.8,6.1,5.6,6.1c2.6,0,4.2-1.2,5-3.4h4.3c-1,4.5-4.8,7-9.4,7
		c-6.5,0-10.1-4.5-10.1-10.9c0-5.9,3.8-10.9,10-10.9c6.5,0,10.5,5.9,9.8,12.1H1244.8z M1255.5,337.6c-0.2-2.9-2.1-5.5-5.2-5.5
		c-3.2,0-5.3,2.4-5.4,5.5H1255.5z"/>
	<path fill="#959595" d="M1261.4,329h3.4v-6.2h4.6v6.2h4.1v3.4h-4.1v11c0,1.9,0.2,2.8,2.2,2.8c0.6,0,1.3,0,1.9-0.2v3.5
		c-1,0.1-2,0.2-3,0.2c-4.8,0-5.6-1.8-5.7-5.3v-12.2h-3.4V329z"/>
	<path fill="#959595" d="M1294.1,345.1c0,1.1,0.2,1.6,1.1,1.6c0.3,0,0.6,0,1.1-0.1v3.2c-0.7,0.2-2.1,0.5-2.9,0.5
		c-1.8,0-3.2-0.6-3.5-2.5c-1.8,1.8-4.7,2.5-7.2,2.5c-3.7,0-7.1-2-7.1-6c0-5.2,4.1-6,8-6.4c3.3-0.6,6.2-0.2,6.2-2.9
		c0-2.4-2.4-2.8-4.3-2.8c-2.6,0-4.4,1-4.6,3.3h-4.6c0.3-5.3,4.8-6.9,9.4-6.9c4,0,8.3,1.6,8.3,6V345.1z M1289.6,339.4
		c-1.4,0.9-3.6,0.9-5.6,1.2c-2,0.3-3.7,1-3.7,3.4c0,2,2.6,2.6,4.2,2.6c2,0,5.1-1,5.1-3.9V339.4z"/>
	<path fill="#959595" d="M1299.1,329h4.3v4h0.1c0.5-2.2,3.2-4.6,6-4.6c1,0,1.3,0.1,1.7,0.1v4.4c-0.6-0.1-1.3-0.2-2-0.2
		c-3.1,0-5.6,2.5-5.6,7.1v9.8h-4.6V329z"/>
	<path fill="#959595" d="M1310.9,329h5l5.4,15.4h0.1l5.2-15.4h4.8l-8,21.8c-1.5,3.7-2.6,7.1-7.3,7.1c-1.1,0-2.1-0.1-3.2-0.2v-3.8
		c0.7,0.1,1.4,0.3,2.2,0.3c2.1,0,2.6-1.1,3.2-2.9l0.5-1.6L1310.9,329z"/>
	<path fill="#959595" d="M1345,329h4.3v2.9h0.1c1.4-2,3.1-3.4,6.4-3.4c2.5,0,4.9,1.1,5.8,3.4c1.5-2.1,3.5-3.4,6.5-3.4
		c4.4,0,6.9,1.9,6.9,7v14.3h-4.6v-12.1c0-3.3-0.2-5.6-3.8-5.6c-3.1,0-4.4,2-4.4,5.5v12.1h-4.6v-13.3c0-2.8-0.9-4.4-3.6-4.4
		c-2.4,0-4.5,1.9-4.5,5.4v12.3h-4.6V329z"/>
	<path fill="#959595" d="M1378.9,339.4c0-6.3,3.8-10.9,10.4-10.9s10.4,4.6,10.4,10.9c0,6.4-3.8,10.9-10.4,10.9
		S1378.9,345.7,1378.9,339.4z M1395.2,339.4c0-3.6-1.8-7.3-5.9-7.3s-5.9,3.7-5.9,7.3c0,3.6,1.8,7.3,5.9,7.3S1395.2,343,1395.2,339.4
		z"/>
	<path fill="#959595" d="M1423,349.7h-4.3v-2.8h-0.1c-1.2,2.4-3.8,3.4-6.4,3.4c-6.5,0-9.7-4.8-9.7-11c0-7.5,4.4-10.8,9-10.8
		c2.6,0,5.5,1,6.9,3.2h0.1v-10.6h4.6V349.7z M1412.8,346.7c4.1,0,5.8-3.7,5.8-7.3c0-4.6-2.2-7.3-5.7-7.3c-4.3,0-5.8,3.8-5.8,7.5
		C1407.1,343.2,1408.9,346.7,1412.8,346.7z"/>
	<path fill="#959595" d="M1431.5,340.6c0,3.2,1.8,6.1,5.6,6.1c2.6,0,4.2-1.2,5-3.4h4.3c-1,4.5-4.8,7-9.4,7
		c-6.5,0-10.1-4.5-10.1-10.9c0-5.9,3.8-10.9,10-10.9c6.5,0,10.5,5.9,9.8,12.1H1431.5z M1442.2,337.6c-0.2-2.9-2.1-5.5-5.2-5.5
		c-3.2,0-5.3,2.4-5.4,5.5H1442.2z"/>
	<path fill="#959595" d="M1450.3,321.2h4.6v28.6h-4.6V321.2z"/>
	<path fill="#959595" d="M1471.1,321.2h4.6v4.3h-4.6V321.2z M1471.1,329h4.6v20.7h-4.6V329z"/>
	<path fill="#959595" d="M1484.1,343.1c0.2,2.6,2.2,3.6,4.7,3.6c1.7,0,4.7-0.4,4.6-2.7c-0.1-2.4-3.4-2.7-6.8-3.4
		c-3.4-0.7-6.6-1.9-6.6-6.1c0-4.5,4.9-5.9,8.6-5.9c4.2,0,8.1,1.8,8.6,6.4h-4.8c-0.4-2.2-2.2-2.8-4.2-2.8c-1.3,0-3.8,0.3-3.8,2.1
		c0,2.2,3.4,2.6,6.7,3.3c3.3,0.8,6.7,2,6.7,6c0,4.9-5,6.7-9.2,6.7c-5.2,0-9.1-2.3-9.2-7.2H1484.1z"/>
	<path fill="#959595" d="M1056.6,388.6c0,3.2,1.8,6.1,5.6,6.1c2.6,0,4.2-1.2,5-3.4h4.3c-1,4.5-4.8,7-9.4,7
		c-6.5,0-10.1-4.5-10.1-10.9c0-5.9,3.8-10.9,10-10.9c6.5,0,10.5,5.9,9.8,12.1H1056.6z M1067.2,385.6c-0.2-2.9-2.1-5.5-5.2-5.5
		c-3.2,0-5.3,2.4-5.4,5.5H1067.2z"/>
	<path fill="#959595" d="M1075.3,377h4.3v3l0.1,0.1c1.4-2.3,3.7-3.7,6.4-3.7c4.5,0,7.3,2.4,7.3,7v14.2h-4.6v-13
		c-0.1-3.2-1.4-4.6-4-4.6c-3,0-5,2.4-5,5.4v12.2h-4.6V377z"/>
	<path fill="#959595" d="M1117.4,396.6c0,6.2-3.6,9.3-10.2,9.3c-4.2,0-8.8-1.6-9.2-6.4h4.6c0.6,2.6,2.6,3,5,3c3.7,0,5.3-1.9,5.3-5.3
		v-3.2h-0.1c-1.3,2.3-3.6,3.6-6.2,3.6c-6.6,0-9.3-5-9.3-10.9c0-5.6,3.5-10.4,9.4-10.4c2.6,0,5,1.1,6.1,3.4h0.1V377h4.6V396.6z
		 M1112.8,386.9c0-3.6-1.6-6.8-5.6-6.8c-4,0-5.4,3.8-5.4,7.2c0,3.4,1.6,6.8,5.4,6.8C1111.3,394.1,1112.8,390.4,1112.8,386.9z"/>
	<path fill="#959595" d="M1122.1,369.2h4.6v4.3h-4.6V369.2z M1122.1,377h4.6v20.7h-4.6V377z"/>
	<path fill="#959595" d="M1131.6,377h4.3v3l0.1,0.1c1.4-2.3,3.7-3.7,6.4-3.7c4.5,0,7.3,2.4,7.3,7v14.2h-4.6v-13
		c-0.1-3.2-1.4-4.6-4-4.6c-3,0-5,2.4-5,5.4v12.2h-4.6V377z"/>
	<path fill="#959595" d="M1158.1,388.6c0,3.2,1.8,6.1,5.6,6.1c2.6,0,4.2-1.2,5-3.4h4.3c-1,4.5-4.8,7-9.4,7
		c-6.5,0-10.1-4.5-10.1-10.9c0-5.9,3.8-10.9,10-10.9c6.5,0,10.5,5.9,9.8,12.1H1158.1z M1168.8,385.6c-0.2-2.9-2.1-5.5-5.2-5.5
		c-3.2,0-5.3,2.4-5.4,5.5H1168.8z"/>
	<path fill="#959595" d="M1180.4,388.6c0,3.2,1.8,6.1,5.6,6.1c2.6,0,4.2-1.2,5-3.4h4.3c-1,4.5-4.8,7-9.4,7
		c-6.5,0-10.1-4.5-10.1-10.9c0-5.9,3.8-10.9,10-10.9c6.5,0,10.5,5.9,9.8,12.1H1180.4z M1191,385.6c-0.2-2.9-2.1-5.5-5.2-5.5
		c-3.2,0-5.3,2.4-5.4,5.5H1191z"/>
	<path fill="#959595" d="M1199,377h4.3v4h0.1c0.5-2.2,3.2-4.6,6-4.6c1,0,1.3,0.1,1.7,0.1v4.4c-0.6-0.1-1.3-0.2-2-0.2
		c-3.1,0-5.6,2.5-5.6,7.1v9.8h-4.6V377z"/>
	<path fill="#959595" d="M1216,388.6c0,3.2,1.8,6.1,5.6,6.1c2.6,0,4.2-1.2,5-3.4h4.3c-1,4.5-4.8,7-9.4,7c-6.5,0-10.1-4.5-10.1-10.9
		c0-5.9,3.8-10.9,10-10.9c6.5,0,10.5,5.9,9.8,12.1H1216z M1226.6,385.6c-0.2-2.9-2.1-5.5-5.2-5.5c-3.2,0-5.3,2.4-5.4,5.5H1226.6z"/>
	<path fill="#959595" d="M1254.1,397.7h-4.3v-2.8h-0.1c-1.2,2.4-3.8,3.4-6.4,3.4c-6.5,0-9.7-4.8-9.7-11c0-7.5,4.4-10.8,9-10.8
		c2.6,0,5.5,1,6.9,3.2h0.1v-10.6h4.6V397.7z M1243.9,394.7c4.1,0,5.8-3.7,5.8-7.3c0-4.6-2.2-7.3-5.7-7.3c-4.3,0-5.8,3.8-5.8,7.5
		C1238.2,391.2,1240,394.7,1243.9,394.7z"/>
	<path fill="#959595" d="M1268.1,377h3.4v-6.2h4.6v6.2h4.1v3.4h-4.1v11c0,1.9,0.2,2.8,2.2,2.8c0.6,0,1.3,0,1.9-0.2v3.5
		c-1,0.1-2,0.2-3,0.2c-4.8,0-5.6-1.8-5.7-5.3v-12.2h-3.4V377z"/>
	<path fill="#959595" d="M1282.6,387.4c0-6.3,3.8-10.9,10.4-10.9s10.4,4.6,10.4,10.9c0,6.4-3.8,10.9-10.4,10.9
		S1282.6,393.7,1282.6,387.4z M1298.9,387.4c0-3.6-1.8-7.3-5.9-7.3s-5.9,3.7-5.9,7.3c0,3.6,1.8,7.3,5.9,7.3S1298.9,391,1298.9,387.4
		z"/>
	<path fill="#959595" d="M1332.3,384c-0.4-2.5-2.2-3.9-4.7-3.9c-2.4,0-5.7,1.2-5.7,7.5c0,3.4,1.5,7.1,5.5,7.1c2.6,0,4.5-1.8,4.9-4.7
		h4.6c-0.8,5.4-4.2,8.3-9.5,8.3c-6.5,0-10-4.6-10-10.7c0-6.2,3.4-11.1,10.2-11.1c4.8,0,8.9,2.4,9.3,7.5H1332.3z"/>
	<path fill="#959595" d="M1357.9,393.1c0,1.1,0.2,1.6,1.1,1.6c0.3,0,0.6,0,1.1-0.1v3.2c-0.7,0.2-2.1,0.5-2.9,0.5
		c-1.8,0-3.2-0.6-3.5-2.5c-1.8,1.8-4.7,2.5-7.2,2.5c-3.7,0-7.1-2-7.1-6c0-5.2,4.1-6,8-6.4c3.3-0.6,6.2-0.2,6.2-2.9
		c0-2.4-2.4-2.8-4.3-2.8c-2.6,0-4.4,1-4.6,3.3h-4.6c0.3-5.3,4.8-6.9,9.4-6.9c4,0,8.3,1.6,8.3,6V393.1z M1353.3,387.4
		c-1.4,0.9-3.6,0.9-5.6,1.2c-2,0.3-3.7,1-3.7,3.4c0,2,2.6,2.6,4.2,2.6c2,0,5.1-1,5.1-3.9V387.4z"/>
	<path fill="#959595" d="M1363,377h4.3v2.8h0.1c1.3-2.4,3.8-3.4,6.4-3.4c6.5,0,9.7,5,9.7,11c0,5.6-2.8,10.8-8.9,10.8
		c-2.6,0-5.5-1-6.9-3.2h-0.1v10.3h-4.6V377z M1373.2,380.1c-3.8,0-5.8,2.9-5.8,7.3c0,4.2,2.1,7.3,5.8,7.3c4.2,0,5.7-3.7,5.7-7.3
		C1378.9,383.6,1376.9,380.1,1373.2,380.1z"/>
	<path fill="#959595" d="M1385.2,377h3.4v-6.2h4.6v6.2h4.1v3.4h-4.1v11c0,1.9,0.2,2.8,2.2,2.8c0.6,0,1.3,0,1.9-0.2v3.5
		c-1,0.1-2,0.2-3,0.2c-4.8,0-5.6-1.8-5.7-5.3v-12.2h-3.4V377z"/>
	<path fill="#959595" d="M1418.7,397.7h-4.5v-2.9h-0.1c-1.1,2.1-3.6,3.4-5.9,3.4c-5.4,0-7.7-2.7-7.7-8.1V377h4.6v12.7
		c0,3.6,1.5,5,4,5c3.8,0,5.1-2.4,5.1-5.6v-12h4.6V397.7z"/>
	<path fill="#959595" d="M1423.6,377h4.3v4h0.1c0.5-2.2,3.2-4.6,6-4.6c1,0,1.3,0.1,1.7,0.1v4.4c-0.6-0.1-1.3-0.2-2-0.2
		c-3.1,0-5.6,2.5-5.6,7.1v9.8h-4.6V377z"/>
	<path fill="#959595" d="M1440.5,388.6c0,3.2,1.8,6.1,5.6,6.1c2.6,0,4.2-1.2,5-3.4h4.3c-1,4.5-4.8,7-9.4,7
		c-6.5,0-10.1-4.5-10.1-10.9c0-5.9,3.8-10.9,10-10.9c6.5,0,10.5,5.9,9.8,12.1H1440.5z M1451.1,385.6c-0.2-2.9-2.1-5.5-5.2-5.5
		c-3.2,0-5.3,2.4-5.4,5.5H1451.1z"/>
	<path fill="#959595" d="M1053,425h4.3v4h0.1c0.5-2.2,3.2-4.6,6-4.6c1,0,1.3,0.1,1.7,0.1v4.4c-0.6-0.1-1.3-0.2-2-0.2
		c-3.1,0-5.6,2.5-5.6,7.1v9.8h-4.6V425z"/>
	<path fill="#959595" d="M1067.2,417.2h4.6v4.3h-4.6V417.2z M1067.2,425h4.6v20.7h-4.6V425z"/>
	<path fill="#959595" d="M1080.2,439.1c0.2,2.6,2.2,3.6,4.7,3.6c1.7,0,4.7-0.4,4.6-2.7c-0.1-2.4-3.4-2.7-6.8-3.4
		c-3.4-0.7-6.6-1.9-6.6-6.1c0-4.5,4.9-5.9,8.6-5.9c4.2,0,8.1,1.8,8.6,6.4h-4.8c-0.4-2.2-2.2-2.8-4.2-2.8c-1.3,0-3.8,0.3-3.8,2.1
		c0,2.2,3.4,2.6,6.7,3.3c3.3,0.8,6.7,2,6.7,6c0,4.9-5,6.7-9.2,6.7c-5.2,0-9.1-2.3-9.2-7.2H1080.2z"/>
	<path fill="#959595" d="M1097.6,417.2h4.6v16.2l8.2-8.4h5.6l-7.9,7.6l8.7,13.1h-5.6l-6.3-10l-2.7,2.6v7.4h-4.6V417.2z"/>
	<path fill="#959595" d="M1122.4,439.1c0.2,2.6,2.2,3.6,4.7,3.6c1.7,0,4.7-0.4,4.6-2.7c-0.1-2.4-3.4-2.7-6.8-3.4
		c-3.4-0.7-6.6-1.9-6.6-6.1c0-4.5,4.9-5.9,8.6-5.9c4.2,0,8.1,1.8,8.6,6.4h-4.8c-0.4-2.2-2.2-2.8-4.2-2.8c-1.3,0-3.8,0.3-3.8,2.1
		c0,2.2,3.4,2.6,6.7,3.3c3.3,0.8,6.7,2,6.7,6c0,4.9-5,6.7-9.2,6.7c-5.2,0-9.1-2.3-9.2-7.2H1122.4z"/>
	<path fill="#959595" d="M1148.8,425h3.4v-6.2h4.6v6.2h4.1v3.4h-4.1v11c0,1.9,0.2,2.8,2.2,2.8c0.6,0,1.3,0,1.9-0.2v3.5
		c-1,0.1-2,0.2-3,0.2c-4.8,0-5.6-1.8-5.7-5.3v-12.2h-3.4V425z"/>
	<path fill="#959595" d="M1164.2,417.2h4.6v10.6h0.1c1.1-1.9,3.5-3.3,6.2-3.3c4.5,0,7.3,2.4,7.3,7v14.2h-4.6v-13
		c-0.1-3.2-1.4-4.6-4-4.6c-3,0-5,2.4-5,5.4v12.2h-4.6V417.2z"/>
	<path fill="#959595" d="M1204.5,441.1c0,1.1,0.2,1.6,1.1,1.6c0.3,0,0.6,0,1.1-0.1v3.2c-0.7,0.2-2.1,0.5-2.9,0.5
		c-1.8,0-3.2-0.6-3.5-2.5c-1.8,1.8-4.7,2.5-7.2,2.5c-3.7,0-7.1-2-7.1-6c0-5.2,4.1-6,8-6.4c3.3-0.6,6.2-0.2,6.2-2.9
		c0-2.4-2.4-2.8-4.3-2.8c-2.6,0-4.4,1-4.6,3.3h-4.6c0.3-5.3,4.8-6.9,9.4-6.9c4,0,8.3,1.6,8.3,6V441.1z M1199.9,435.4
		c-1.4,0.9-3.6,0.9-5.6,1.2c-2,0.3-3.7,1-3.7,3.4c0,2,2.6,2.6,4.2,2.6c2,0,5.1-1,5.1-3.9V435.4z"/>
	<path fill="#959595" d="M1207.3,425h3.4v-6.2h4.6v6.2h4.1v3.4h-4.1v11c0,1.9,0.2,2.8,2.2,2.8c0.6,0,1.3,0,1.9-0.2v3.5
		c-1,0.1-2,0.2-3,0.2c-4.8,0-5.6-1.8-5.7-5.3v-12.2h-3.4V425z"/>
	<path fill="#959595" d="M1251.1,441.1c0,1.1,0.2,1.6,1.1,1.6c0.3,0,0.6,0,1.1-0.1v3.2c-0.7,0.2-2.1,0.5-2.9,0.5
		c-1.8,0-3.2-0.6-3.5-2.5c-1.8,1.8-4.7,2.5-7.2,2.5c-3.7,0-7.1-2-7.1-6c0-5.2,4.1-6,8-6.4c3.3-0.6,6.2-0.2,6.2-2.9
		c0-2.4-2.4-2.8-4.3-2.8c-2.6,0-4.4,1-4.6,3.3h-4.6c0.3-5.3,4.8-6.9,9.4-6.9c4,0,8.3,1.6,8.3,6V441.1z M1246.6,435.4
		c-1.4,0.9-3.6,0.9-5.6,1.2c-2,0.3-3.7,1-3.7,3.4c0,2,2.6,2.6,4.2,2.6c2,0,5.1-1,5.1-3.9V435.4z"/>
	<path fill="#959595" d="M1256.1,425h4.3v4h0.1c0.5-2.2,3.2-4.6,6-4.6c1,0,1.3,0.1,1.7,0.1v4.4c-0.6-0.1-1.3-0.2-2-0.2
		c-3.1,0-5.6,2.5-5.6,7.1v9.8h-4.6V425z"/>
	<path fill="#959595" d="M1273,436.6c0,3.2,1.8,6.1,5.6,6.1c2.6,0,4.2-1.2,5-3.4h4.3c-1,4.5-4.8,7-9.4,7c-6.5,0-10.1-4.5-10.1-10.9
		c0-5.9,3.8-10.9,10-10.9c6.5,0,10.5,5.9,9.8,12.1H1273z M1283.6,433.6c-0.2-2.9-2.1-5.5-5.2-5.5c-3.2,0-5.3,2.4-5.4,5.5H1283.6z"/>
	<path fill="#959595" d="M1320.9,445.7h-4.5v-2.9h-0.1c-1.1,2.1-3.6,3.4-5.9,3.4c-5.4,0-7.7-2.7-7.7-8.1V425h4.6v12.7
		c0,3.6,1.5,5,4,5c3.8,0,5.1-2.4,5.1-5.6v-12h4.6V445.7z"/>
	<path fill="#959595" d="M1325.8,425h4.3v3l0.1,0.1c1.4-2.3,3.7-3.7,6.4-3.7c4.5,0,7.3,2.4,7.3,7v14.2h-4.6v-13
		c-0.1-3.2-1.4-4.6-4-4.6c-3,0-5,2.4-5,5.4v12.2h-4.6V425z"/>
	<path fill="#959595" d="M1348.8,417.2h4.6v4.3h-4.6V417.2z M1348.8,425h4.6v20.7h-4.6V425z"/>
	<path fill="#959595" d="M1377.8,453.4h-4.6V443h-0.1c-1.4,2.3-4.3,3.2-6.9,3.2c-6.1,0-8.9-5.2-8.9-10.8c0-6,3.2-11,9.7-11
		c2.6,0,5.1,1,6.4,3.4h0.1V425h4.3V453.4z M1367.6,442.7c4,0,5.8-3,5.8-7.3c0-4.5-2-7.3-5.8-7.3c-3.8,0-5.7,3.6-5.7,7.3
		C1361.9,439,1363.5,442.7,1367.6,442.7z"/>
	<path fill="#959595" d="M1400.9,445.7h-4.5v-2.9h-0.1c-1.1,2.1-3.6,3.4-5.9,3.4c-5.4,0-7.7-2.7-7.7-8.1V425h4.6v12.7
		c0,3.6,1.5,5,4,5c3.8,0,5.1-2.4,5.1-5.6v-12h4.6V445.7z"/>
	<path fill="#959595" d="M1409.3,436.6c0,3.2,1.8,6.1,5.6,6.1c2.6,0,4.2-1.2,5-3.4h4.3c-1,4.5-4.8,7-9.4,7
		c-6.5,0-10.1-4.5-10.1-10.9c0-5.9,3.8-10.9,10-10.9c6.5,0,10.5,5.9,9.8,12.1H1409.3z M1419.9,433.6c-0.2-2.9-2.1-5.5-5.2-5.5
		c-3.2,0-5.3,2.4-5.4,5.5H1419.9z"/>
	<path fill="#959595" d="M1437,425h3.4v-6.2h4.6v6.2h4.1v3.4h-4.1v11c0,1.9,0.2,2.8,2.2,2.8c0.6,0,1.3,0,1.9-0.2v3.5
		c-1,0.1-2,0.2-3,0.2c-4.8,0-5.6-1.8-5.7-5.3v-12.2h-3.4V425z"/>
	<path fill="#959595" d="M1451.5,435.4c0-6.3,3.8-10.9,10.4-10.9s10.4,4.6,10.4,10.9c0,6.4-3.8,10.9-10.4,10.9
		S1451.5,441.7,1451.5,435.4z M1467.8,435.4c0-3.6-1.8-7.3-5.9-7.3s-5.9,3.7-5.9,7.3c0,3.6,1.8,7.3,5.9,7.3S1467.8,439,1467.8,435.4
		z"/>
	<path fill="#959595" d="M1051,473h3.4v-6.2h4.6v6.2h4.1v3.4h-4.1v11c0,1.9,0.2,2.8,2.2,2.8c0.6,0,1.3,0,1.9-0.2v3.5
		c-1,0.1-2,0.2-3,0.2c-4.8,0-5.6-1.8-5.7-5.3v-12.2h-3.4V473z"/>
	<path fill="#959595" d="M1066.4,465.2h4.6v10.6h0.1c1.1-1.9,3.5-3.3,6.2-3.3c4.5,0,7.3,2.4,7.3,7v14.2h-4.6v-13
		c-0.1-3.2-1.4-4.6-4-4.6c-3,0-5,2.4-5,5.4v12.2h-4.6V465.2z"/>
	<path fill="#959595" d="M1092.9,484.6c0,3.2,1.8,6.1,5.6,6.1c2.6,0,4.2-1.2,5-3.4h4.3c-1,4.5-4.8,7-9.4,7
		c-6.5,0-10.1-4.5-10.1-10.9c0-5.9,3.8-10.9,10-10.9c6.5,0,10.5,5.9,9.8,12.1H1092.9z M1103.5,481.6c-0.2-2.9-2.1-5.5-5.2-5.5
		c-3.2,0-5.3,2.4-5.4,5.5H1103.5z"/>
	<path fill="#959595" d="M1120.8,473h4.8l4,15.4h0.1l3.9-15.4h4.6l3.7,15.4h0.1l4.2-15.4h4.6l-6.5,20.7h-4.7l-3.8-15.4h-0.1
		l-3.8,15.4h-4.8L1120.8,473z"/>
	<path fill="#959595" d="M1152.8,483.4c0-6.3,3.8-10.9,10.4-10.9s10.4,4.6,10.4,10.9c0,6.4-3.8,10.9-10.4,10.9
		S1152.8,489.7,1152.8,483.4z M1169.2,483.4c0-3.6-1.8-7.3-5.9-7.3s-5.9,3.7-5.9,7.3c0,3.6,1.8,7.3,5.9,7.3S1169.2,487,1169.2,483.4
		z"/>
	<path fill="#959595" d="M1177.5,473h4.3v4h0.1c0.5-2.2,3.2-4.6,6-4.6c1,0,1.3,0.1,1.7,0.1v4.4c-0.6-0.1-1.3-0.2-2-0.2
		c-3.1,0-5.6,2.5-5.6,7.1v9.8h-4.6V473z"/>
	<path fill="#959595" d="M1191.7,465.2h4.6v28.6h-4.6V465.2z"/>
	<path fill="#959595" d="M1220.7,493.7h-4.3v-2.8h-0.1c-1.2,2.4-3.8,3.4-6.4,3.4c-6.5,0-9.7-4.8-9.7-11c0-7.5,4.4-10.8,9-10.8
		c2.6,0,5.5,1,6.9,3.2h0.1v-10.6h4.6V493.7z M1210.5,490.7c4.1,0,5.8-3.7,5.8-7.3c0-4.6-2.2-7.3-5.7-7.3c-4.3,0-5.8,3.8-5.8,7.5
		C1204.8,487.2,1206.6,490.7,1210.5,490.7z"/>
	<path fill="#959595" d="M1226.4,474.1c1.9-0.2,2.4-1.8,2.4-3.6h-2.4v-5.4h5v5.4c0,3.1-1.9,5.5-5,5.9V474.1z"/>
	<path fill="#959595" d="M1237.3,487.1c0.2,2.6,2.2,3.6,4.7,3.6c1.7,0,4.7-0.4,4.6-2.7c-0.1-2.4-3.4-2.7-6.8-3.4
		c-3.4-0.7-6.6-1.9-6.6-6.1c0-4.5,4.9-5.9,8.6-5.9c4.2,0,8.1,1.8,8.6,6.4h-4.8c-0.4-2.2-2.2-2.8-4.2-2.8c-1.3,0-3.8,0.3-3.8,2.1
		c0,2.2,3.4,2.6,6.7,3.3c3.3,0.8,6.7,2,6.7,6c0,4.9-5,6.7-9.2,6.7c-5.2,0-9.1-2.3-9.2-7.2H1237.3z"/>
	<path fill="#959595" d="M1265.8,465.2h4.6v28.6h-4.6V465.2z"/>
	<path fill="#959595" d="M1292.7,489.1c0,1.1,0.2,1.6,1.1,1.6c0.3,0,0.6,0,1.1-0.1v3.2c-0.7,0.2-2.1,0.5-2.9,0.5
		c-1.8,0-3.2-0.6-3.5-2.5c-1.8,1.8-4.7,2.5-7.2,2.5c-3.7,0-7.1-2-7.1-6c0-5.2,4.1-6,8-6.4c3.3-0.6,6.2-0.2,6.2-2.9
		c0-2.4-2.4-2.8-4.3-2.8c-2.6,0-4.4,1-4.6,3.3h-4.6c0.3-5.3,4.8-6.9,9.4-6.9c4,0,8.3,1.6,8.3,6V489.1z M1288.1,483.4
		c-1.4,0.9-3.6,0.9-5.6,1.2c-2,0.3-3.7,1-3.7,3.4c0,2,2.6,2.6,4.2,2.6c2,0,5.1-1,5.1-3.9V483.4z"/>
	<path fill="#959595" d="M1297.6,473h4.3v4h0.1c0.5-2.2,3.2-4.6,6-4.6c1,0,1.3,0.1,1.7,0.1v4.4c-0.6-0.1-1.3-0.2-2-0.2
		c-3.1,0-5.6,2.5-5.6,7.1v9.8h-4.6V473z"/>
	<path fill="#959595" d="M1330.8,492.6c0,6.2-3.6,9.3-10.2,9.3c-4.2,0-8.8-1.6-9.2-6.4h4.6c0.6,2.6,2.6,3,5,3c3.7,0,5.3-1.9,5.3-5.3
		v-3.2h-0.1c-1.3,2.3-3.6,3.6-6.2,3.6c-6.6,0-9.3-5-9.3-10.9c0-5.6,3.5-10.4,9.4-10.4c2.6,0,5,1.1,6.1,3.4h0.1V473h4.6V492.6z
		 M1326.2,482.9c0-3.6-1.6-6.8-5.6-6.8c-4,0-5.4,3.8-5.4,7.2c0,3.4,1.6,6.8,5.4,6.8C1324.7,490.1,1326.2,486.4,1326.2,482.9z"/>
	<path fill="#959595" d="M1339,484.6c0,3.2,1.8,6.1,5.6,6.1c2.6,0,4.2-1.2,5-3.4h4.3c-1,4.5-4.8,7-9.4,7c-6.5,0-10.1-4.5-10.1-10.9
		c0-5.9,3.8-10.9,10-10.9c6.5,0,10.5,5.9,9.8,12.1H1339z M1349.6,481.6c-0.2-2.9-2.1-5.5-5.2-5.5c-3.2,0-5.3,2.4-5.4,5.5H1349.6z"/>
	<path fill="#959595" d="M1361.1,487.1c0.2,2.6,2.2,3.6,4.7,3.6c1.7,0,4.7-0.4,4.6-2.7c-0.1-2.4-3.4-2.7-6.8-3.4
		c-3.4-0.7-6.6-1.9-6.6-6.1c0-4.5,4.9-5.9,8.6-5.9c4.2,0,8.1,1.8,8.6,6.4h-4.8c-0.4-2.2-2.2-2.8-4.2-2.8c-1.3,0-3.8,0.3-3.8,2.1
		c0,2.2,3.4,2.6,6.7,3.3c3.3,0.8,6.7,2,6.7,6c0,4.9-5,6.7-9.2,6.7c-5.2,0-9.1-2.3-9.2-7.2H1361.1z"/>
	<path fill="#959595" d="M1376.3,473h3.4v-6.2h4.6v6.2h4.1v3.4h-4.1v11c0,1.9,0.2,2.8,2.2,2.8c0.6,0,1.3,0,1.9-0.2v3.5
		c-1,0.1-2,0.2-3,0.2c-4.8,0-5.6-1.8-5.7-5.3v-12.2h-3.4V473z"/>
	<path fill="#959595" d="M1067,528c-0.4-2.5-2.2-3.9-4.7-3.9c-2.4,0-5.7,1.2-5.7,7.5c0,3.4,1.5,7.1,5.5,7.1c2.6,0,4.5-1.8,4.9-4.7
		h4.6c-0.8,5.4-4.2,8.3-9.5,8.3c-6.5,0-10-4.6-10-10.7c0-6.2,3.4-11.1,10.2-11.1c4.8,0,8.9,2.4,9.3,7.5H1067z"/>
	<path fill="#959595" d="M1075.3,521h4.3v4h0.1c0.5-2.2,3.2-4.6,6-4.6c1,0,1.3,0.1,1.7,0.1v4.4c-0.6-0.1-1.3-0.2-2-0.2
		c-3.1,0-5.6,2.5-5.6,7.1v9.8h-4.6V521z"/>
	<path fill="#959595" d="M1087.1,521h5l5.4,15.4h0.1l5.2-15.4h4.8l-8,21.8c-1.5,3.7-2.6,7.1-7.3,7.1c-1.1,0-2.1-0.1-3.2-0.2v-3.8
		c0.7,0.1,1.4,0.3,2.2,0.3c2.1,0,2.6-1.1,3.2-2.9l0.5-1.6L1087.1,521z"/>
	<path fill="#959595" d="M1110.2,521h4.3v2.8h0.1c1.3-2.4,3.8-3.4,6.4-3.4c6.5,0,9.7,5,9.7,11c0,5.6-2.8,10.8-8.9,10.8
		c-2.6,0-5.5-1-6.9-3.2h-0.1v10.3h-4.6V521z M1120.4,524.1c-3.8,0-5.8,2.9-5.8,7.3c0,4.2,2.1,7.3,5.8,7.3c4.2,0,5.7-3.7,5.7-7.3
		C1126.1,527.6,1124.2,524.1,1120.4,524.1z"/>
	<path fill="#959595" d="M1132.5,521h3.4v-6.2h4.6v6.2h4.1v3.4h-4.1v11c0,1.9,0.2,2.8,2.2,2.8c0.6,0,1.3,0,1.9-0.2v3.5
		c-1,0.1-2,0.2-3,0.2c-4.8,0-5.6-1.8-5.7-5.3v-12.2h-3.4V521z"/>
	<path fill="#959595" d="M1146.9,531.4c0-6.3,3.8-10.9,10.4-10.9s10.4,4.6,10.4,10.9c0,6.4-3.8,10.9-10.4,10.9
		S1146.9,537.7,1146.9,531.4z M1163.2,531.4c0-3.6-1.8-7.3-5.9-7.3s-5.9,3.7-5.9,7.3c0,3.6,1.8,7.3,5.9,7.3S1163.2,535,1163.2,531.4
		z"/>
	<path fill="#959595" d="M1185.5,528c-0.4-2.5-2.2-3.9-4.7-3.9c-2.4,0-5.7,1.2-5.7,7.5c0,3.4,1.5,7.1,5.5,7.1c2.6,0,4.5-1.8,4.9-4.7
		h4.6c-0.8,5.4-4.2,8.3-9.5,8.3c-6.5,0-10-4.6-10-10.7c0-6.2,3.4-11.1,10.2-11.1c4.8,0,8.9,2.4,9.3,7.5H1185.5z"/>
	<path fill="#959595" d="M1212,541.7h-4.5v-2.9h-0.1c-1.1,2.1-3.6,3.4-5.9,3.4c-5.4,0-7.7-2.7-7.7-8.1V521h4.6v12.7c0,3.6,1.5,5,4,5
		c3.8,0,5.1-2.4,5.1-5.6v-12h4.6V541.7z"/>
	<path fill="#959595" d="M1216.8,521h4.3v4h0.1c0.5-2.2,3.2-4.6,6-4.6c1,0,1.3,0.1,1.7,0.1v4.4c-0.6-0.1-1.3-0.2-2-0.2
		c-3.1,0-5.6,2.5-5.6,7.1v9.8h-4.6V521z"/>
	<path fill="#959595" d="M1230.9,521h4.3v4h0.1c0.5-2.2,3.2-4.6,6-4.6c1,0,1.3,0.1,1.7,0.1v4.4c-0.6-0.1-1.3-0.2-2-0.2
		c-3.1,0-5.6,2.5-5.6,7.1v9.8h-4.6V521z"/>
	<path fill="#959595" d="M1247.8,532.6c0,3.2,1.8,6.1,5.6,6.1c2.6,0,4.2-1.2,5-3.4h4.3c-1,4.5-4.8,7-9.4,7
		c-6.5,0-10.1-4.5-10.1-10.9c0-5.9,3.8-10.9,10-10.9c6.5,0,10.5,5.9,9.8,12.1H1247.8z M1258.4,529.6c-0.2-2.9-2.1-5.5-5.2-5.5
		c-3.2,0-5.3,2.4-5.4,5.5H1258.4z"/>
	<path fill="#959595" d="M1266.5,521h4.3v3l0.1,0.1c1.4-2.3,3.7-3.7,6.4-3.7c4.5,0,7.3,2.4,7.3,7v14.2h-4.6v-13
		c-0.1-3.2-1.4-4.6-4-4.6c-3,0-5,2.4-5,5.4v12.2h-4.6V521z"/>
	<path fill="#959595" d="M1303.4,528c-0.4-2.5-2.2-3.9-4.7-3.9c-2.4,0-5.7,1.2-5.7,7.5c0,3.4,1.5,7.1,5.5,7.1c2.6,0,4.5-1.8,4.9-4.7
		h4.6c-0.8,5.4-4.2,8.3-9.5,8.3c-6.5,0-10-4.6-10-10.7c0-6.2,3.4-11.1,10.2-11.1c4.8,0,8.9,2.4,9.3,7.5H1303.4z"/>
	<path fill="#959595" d="M1309.4,521h5l5.4,15.4h0.1l5.2-15.4h4.8l-8,21.8c-1.5,3.7-2.6,7.1-7.3,7.1c-1.1,0-2.1-0.1-3.2-0.2v-3.8
		c0.7,0.1,1.4,0.3,2.2,0.3c2.1,0,2.6-1.1,3.2-2.9l0.5-1.6L1309.4,521z"/>
	<path fill="#959595" d="M1329.1,536.3h5.6v5.4h-5.6V536.3z"/>
	<path fill="#959595" d="M1052.9,593.9h10.1c4.1,0,6.8,2.4,6.8,6.5c0,4.1-2.7,6.5-6.8,6.5h-8v9.8h-2.2V593.9z M1055.1,605.1h7.5
		c3,0,5.1-1.5,5.1-4.7s-2.1-4.7-5.1-4.7h-7.5V605.1z"/>
	<path fill="#959595" d="M1072.5,605.3c0.2-3.9,2.9-5.5,6.7-5.5c2.9,0,6.1,0.9,6.1,5.3v8.8c0,0.8,0.4,1.2,1.2,1.2
		c0.2,0,0.5-0.1,0.6-0.1v1.7c-0.4,0.1-0.8,0.1-1.3,0.1c-2,0-2.4-1.2-2.4-2.9h-0.1c-1.4,2.1-2.8,3.4-6,3.4c-3,0-5.5-1.5-5.5-4.8
		c0-4.6,4.5-4.8,8.9-5.3c1.7-0.2,2.6-0.4,2.6-2.2c0-2.7-2-3.4-4.3-3.4c-2.5,0-4.4,1.2-4.4,3.8H1072.5z M1083.3,607.7L1083.3,607.7
		c-0.3,0.5-1.2,0.6-1.8,0.7c-3.4,0.6-7.7,0.6-7.7,3.8c0,2,1.8,3.3,3.7,3.3c3.1,0,5.8-2,5.8-5.2V607.7z"/>
	<path fill="#959595" d="M1089.3,600.2h1.9v3.9h0.1c1-2.7,3.3-4.2,6.2-4.1v2c-3.6-0.2-6.1,2.5-6.1,5.9v8.8h-2V600.2z"/>
	<path fill="#959595" d="M1102.6,600.2h3.4v1.7h-3.4V613c0,1.3,0.2,2.1,1.6,2.2c0.6,0,1.2,0,1.7-0.1v1.7c-0.6,0-1.2,0.1-1.8,0.1
		c-2.7,0-3.6-0.9-3.6-3.7v-11.3h-2.9v-1.7h2.9v-5h2V600.2z"/>
	<path fill="#959595" d="M1132.6,608.5c0,4.7-2.8,8.7-7.8,8.7s-7.8-4-7.8-8.7c0-4.7,2.8-8.7,7.8-8.7S1132.6,603.7,1132.6,608.5z
		 M1119,608.5c0,3.5,1.9,7,5.8,7c3.9,0,5.8-3.5,5.8-7c0-3.5-1.9-7-5.8-7C1120.9,601.4,1119,605,1119,608.5z"/>
	<path fill="#959595" d="M1141.9,601.9h-3.3v14.8h-2v-14.8h-2.8v-1.7h2.8v-1.5c0-2.8,0.8-4.8,4-4.8c0.6,0,1.1,0,1.7,0.1v1.7
		c-0.5-0.1-1-0.2-1.5-0.2c-2.2,0-2.2,1.4-2.2,3.2v1.4h3.3V601.9z"/>
	<path fill="#959595" d="M1151.1,600.2h2.1l4.2,14.1h0.1l4-14.1h2.3l4,14.1h0.1l4.2-14.1h2.1l-5.3,16.5h-2.2l-4.1-13.9h-0.1l-4,13.9
		h-2.2L1151.1,600.2z"/>
	<path fill="#959595" d="M1176.4,593.9h2v9.2h0.1c0.7-2,2.9-3.3,5.3-3.3c4.6,0,6,2.4,6,6.4v10.6h-2v-10.3c0-2.8-0.9-5-4.2-5
		c-3.2,0-5.1,2.4-5.2,5.7v9.6h-2V593.9z"/>
	<path fill="#959595" d="M1193.4,605.3c0.2-3.9,2.9-5.5,6.7-5.5c2.9,0,6.1,0.9,6.1,5.3v8.8c0,0.8,0.4,1.2,1.2,1.2
		c0.2,0,0.5-0.1,0.6-0.1v1.7c-0.4,0.1-0.8,0.1-1.3,0.1c-2,0-2.4-1.2-2.4-2.9h-0.1c-1.4,2.1-2.8,3.4-6,3.4c-3,0-5.5-1.5-5.5-4.8
		c0-4.6,4.5-4.8,8.9-5.3c1.7-0.2,2.6-0.4,2.6-2.2c0-2.7-2-3.4-4.3-3.4c-2.5,0-4.4,1.2-4.4,3.8H1193.4z M1204.2,607.7L1204.2,607.7
		c-0.3,0.5-1.2,0.6-1.8,0.7c-3.4,0.6-7.7,0.6-7.7,3.8c0,2,1.8,3.3,3.7,3.3c3.1,0,5.8-2,5.8-5.2V607.7z"/>
	<path fill="#959595" d="M1213.4,600.2h3.4v1.7h-3.4V613c0,1.3,0.2,2.1,1.6,2.2c0.6,0,1.2,0,1.7-0.1v1.7c-0.6,0-1.2,0.1-1.8,0.1
		c-2.7,0-3.6-0.9-3.6-3.7v-11.3h-2.9v-1.7h2.9v-5h2V600.2z"/>
	<path fill="#959595" d="M1228.6,600.2h1.9v2.8h0.1c1.1-2,2.8-3.3,5.4-3.3c2.2,0,4.1,1.1,4.7,3.2c1-2.2,3.1-3.2,5.2-3.2
		c3.6,0,5.5,1.9,5.5,5.8v11.2h-2v-11.1c0-2.7-1-4.2-3.9-4.2c-3.5,0-4.5,2.9-4.5,6v9.3h-2v-11.2c0-2.2-0.9-4.1-3.5-4.1
		c-3.5,0-4.9,2.6-4.9,6.1v9.2h-2V600.2z"/>
	<path fill="#959595" d="M1255.1,605.3c0.2-3.9,2.9-5.5,6.7-5.5c2.9,0,6.1,0.9,6.1,5.3v8.8c0,0.8,0.4,1.2,1.2,1.2
		c0.2,0,0.5-0.1,0.6-0.1v1.7c-0.4,0.1-0.8,0.1-1.3,0.1c-2,0-2.4-1.2-2.4-2.9h-0.1c-1.4,2.1-2.8,3.4-6,3.4c-3,0-5.5-1.5-5.5-4.8
		c0-4.6,4.5-4.8,8.9-5.3c1.7-0.2,2.6-0.4,2.6-2.2c0-2.7-2-3.4-4.3-3.4c-2.5,0-4.4,1.2-4.4,3.8H1255.1z M1265.8,607.7L1265.8,607.7
		c-0.3,0.5-1.2,0.6-1.8,0.7c-3.4,0.6-7.7,0.6-7.7,3.8c0,2,1.8,3.3,3.7,3.3c3.1,0,5.8-2,5.8-5.2V607.7z"/>
	<path fill="#959595" d="M1271.9,593.9h2v14.3l9.2-8h2.7l-7,6.1l7.5,10.4h-2.5l-6.5-9l-3.3,2.7v6.3h-2V593.9z"/>
	<path fill="#959595" d="M1289.1,609c0,2.9,1.6,6.5,5.4,6.5c2.9,0,4.5-1.7,5.2-4.2h2c-0.9,3.7-3,5.9-7.2,5.9c-5.2,0-7.5-4-7.5-8.7
		c0-4.4,2.2-8.7,7.5-8.7c5.3,0,7.4,4.6,7.3,9.3H1289.1z M1299.8,607.3c-0.1-3-2-5.9-5.2-5.9c-3.3,0-5.1,2.9-5.4,5.9H1299.8z"/>
	<path fill="#959595" d="M1314.4,605c-0.1-2.5-2-3.6-4.3-3.6c-1.8,0-3.9,0.7-3.9,2.8c0,1.8,2,2.4,3.4,2.8l2.7,0.6
		c2.3,0.4,4.7,1.7,4.7,4.6c0,3.6-3.6,5-6.6,5c-3.8,0-6.5-1.8-6.8-5.8h2c0.2,2.7,2.2,4.1,4.9,4.1c1.9,0,4.5-0.8,4.5-3.1
		c0-1.9-1.8-2.6-3.6-3l-2.6-0.6c-2.6-0.7-4.6-1.6-4.6-4.4c0-3.4,3.3-4.6,6.2-4.6c3.3,0,5.9,1.7,6,5.3H1314.4z"/>
	<path fill="#959595" d="M1328.8,600.2h1.9v3.9h0.1c1-2.7,3.3-4.2,6.2-4.1v2c-3.6-0.2-6.1,2.5-6.1,5.9v8.8h-2V600.2z"/>
	<path fill="#959595" d="M1338.9,593.9h2v3.2h-2V593.9z M1338.9,600.2h2v16.5h-2V600.2z"/>
	<path fill="#959595" d="M1354.7,605c-0.1-2.5-2-3.6-4.3-3.6c-1.8,0-3.9,0.7-3.9,2.8c0,1.8,2,2.4,3.4,2.8l2.7,0.6
		c2.3,0.4,4.7,1.7,4.7,4.6c0,3.6-3.6,5-6.6,5c-3.8,0-6.5-1.8-6.8-5.8h2c0.2,2.7,2.2,4.1,4.9,4.1c1.9,0,4.5-0.8,4.5-3.1
		c0-1.9-1.8-2.6-3.6-3l-2.6-0.6c-2.6-0.7-4.6-1.6-4.6-4.4c0-3.4,3.3-4.6,6.2-4.6c3.3,0,5.9,1.7,6,5.3H1354.7z"/>
	<path fill="#959595" d="M1360.2,593.9h2v14.3l9.2-8h2.7l-7,6.1l7.5,10.4h-2.5l-6.5-9l-3.3,2.7v6.3h-2V593.9z"/>
	<path fill="#959595" d="M1384.9,605.3c0.2-3.9,2.9-5.5,6.7-5.5c2.9,0,6.1,0.9,6.1,5.3v8.8c0,0.8,0.4,1.2,1.2,1.2
		c0.2,0,0.5-0.1,0.6-0.1v1.7c-0.4,0.1-0.8,0.1-1.3,0.1c-2,0-2.4-1.2-2.4-2.9h-0.1c-1.4,2.1-2.8,3.4-6,3.4c-3,0-5.5-1.5-5.5-4.8
		c0-4.6,4.5-4.8,8.9-5.3c1.7-0.2,2.6-0.4,2.6-2.2c0-2.7-2-3.4-4.3-3.4c-2.5,0-4.4,1.2-4.4,3.8H1384.9z M1395.6,607.7L1395.6,607.7
		c-0.3,0.5-1.2,0.6-1.8,0.7c-3.4,0.6-7.7,0.6-7.7,3.8c0,2,1.8,3.3,3.7,3.3c3.1,0,5.8-2,5.8-5.2V607.7z"/>
	<path fill="#959595" d="M1410.5,593.9h2v9.2h0.1c0.7-2,2.9-3.3,5.3-3.3c4.6,0,6,2.4,6,6.4v10.6h-2v-10.3c0-2.8-0.9-5-4.2-5
		c-3.2,0-5.1,2.4-5.2,5.7v9.6h-2V593.9z"/>
	<path fill="#959595" d="M1427.6,605.3c0.2-3.9,2.9-5.5,6.7-5.5c2.9,0,6.1,0.9,6.1,5.3v8.8c0,0.8,0.4,1.2,1.2,1.2
		c0.2,0,0.5-0.1,0.6-0.1v1.7c-0.4,0.1-0.8,0.1-1.3,0.1c-2,0-2.4-1.2-2.4-2.9h-0.1c-1.4,2.1-2.8,3.4-6,3.4c-3,0-5.5-1.5-5.5-4.8
		c0-4.6,4.5-4.8,8.9-5.3c1.7-0.2,2.6-0.4,2.6-2.2c0-2.7-2-3.4-4.3-3.4c-2.5,0-4.4,1.2-4.4,3.8H1427.6z M1438.3,607.7L1438.3,607.7
		c-0.3,0.5-1.2,0.6-1.8,0.7c-3.4,0.6-7.7,0.6-7.7,3.8c0,2,1.8,3.3,3.7,3.3c3.1,0,5.8-2,5.8-5.2V607.7z"/>
	<path fill="#959595" d="M1445.3,615h11.4v1.7h-13.8v-1.6l10.8-13.2h-10v-1.7h12.6v1.4L1445.3,615z"/>
	<path fill="#959595" d="M1459,605.3c0.2-3.9,2.9-5.5,6.7-5.5c2.9,0,6.1,0.9,6.1,5.3v8.8c0,0.8,0.4,1.2,1.2,1.2
		c0.2,0,0.5-0.1,0.6-0.1v1.7c-0.4,0.1-0.8,0.1-1.3,0.1c-2,0-2.4-1.2-2.4-2.9h-0.1c-1.4,2.1-2.8,3.4-6,3.4c-3,0-5.5-1.5-5.5-4.8
		c0-4.6,4.5-4.8,8.9-5.3c1.7-0.2,2.6-0.4,2.6-2.2c0-2.7-2-3.4-4.3-3.4c-2.5,0-4.4,1.2-4.4,3.8H1459z M1469.7,607.7L1469.7,607.7
		c-0.3,0.5-1.2,0.6-1.8,0.7c-3.4,0.6-7.7,0.6-7.7,3.8c0,2,1.8,3.3,3.7,3.3c3.1,0,5.8-2,5.8-5.2V607.7z"/>
	<path fill="#959595" d="M1475.8,600.2h1.9v3.9h0.1c1-2.7,3.3-4.2,6.2-4.1v2c-3.6-0.2-6.1,2.5-6.1,5.9v8.8h-2V600.2z"/>
	<path fill="#959595" d="M1499.8,616.7h-1.9v-3.1h-0.1c-0.9,2.1-3.5,3.6-5.9,3.6c-5,0-7.4-4.1-7.4-8.7c0-4.7,2.4-8.7,7.4-8.7
		c2.5,0,4.9,1.2,5.7,3.6h0.1v-9.5h2V616.7z M1492,615.5c4.3,0,5.8-3.6,5.8-7c0-3.4-1.5-7-5.8-7c-3.8,0-5.4,3.6-5.4,7
		C1486.6,611.9,1488.2,615.5,1492,615.5z"/>
	<path fill="#959595" d="M1052.6,641.9h2v3.2h-2V641.9z M1052.6,648.2h2v16.5h-2V648.2z"/>
	<path fill="#959595" d="M1068.4,653c-0.1-2.5-2-3.6-4.3-3.6c-1.8,0-3.9,0.7-3.9,2.8c0,1.8,2,2.4,3.4,2.8l2.7,0.6
		c2.3,0.4,4.7,1.7,4.7,4.6c0,3.6-3.6,5-6.6,5c-3.8,0-6.5-1.8-6.8-5.8h2c0.2,2.7,2.2,4.1,4.9,4.1c1.9,0,4.5-0.8,4.5-3.1
		c0-1.9-1.8-2.6-3.6-3l-2.6-0.6c-2.6-0.7-4.6-1.6-4.6-4.4c0-3.4,3.3-4.6,6.2-4.6c3.3,0,5.9,1.7,6,5.3H1068.4z"/>
	<path fill="#959595" d="M1082.8,641.9h2v3.2h-2V641.9z M1082.8,648.2h2v16.5h-2V648.2z"/>
	<path fill="#959595" d="M1091.9,648.2h3.4v1.7h-3.4V661c0,1.3,0.2,2.1,1.6,2.2c0.6,0,1.2,0,1.7-0.1v1.7c-0.6,0-1.2,0.1-1.8,0.1
		c-2.7,0-3.6-0.9-3.6-3.7v-11.3h-2.9v-1.7h2.9v-5h2V648.2z"/>
	<path fill="#959595" d="M1108,653c-0.1-2.5-2-3.6-4.3-3.6c-1.8,0-3.9,0.7-3.9,2.8c0,1.8,2,2.4,3.4,2.8l2.7,0.6
		c2.3,0.4,4.7,1.7,4.7,4.6c0,3.6-3.6,5-6.6,5c-3.8,0-6.5-1.8-6.8-5.8h2c0.2,2.7,2.2,4.1,4.9,4.1c1.9,0,4.5-0.8,4.5-3.1
		c0-1.9-1.8-2.6-3.6-3l-2.6-0.6c-2.6-0.7-4.6-1.6-4.6-4.4c0-3.4,3.3-4.6,6.2-4.6c3.3,0,5.9,1.7,6,5.3H1108z"/>
	<path fill="#959595" d="M1122.4,648.2h1.9v2.8h0.1c1.1-2,2.8-3.3,5.4-3.3c2.2,0,4.1,1.1,4.7,3.2c1-2.2,3.1-3.2,5.2-3.2
		c3.6,0,5.5,1.9,5.5,5.8v11.2h-2v-11.1c0-2.7-1-4.2-3.9-4.2c-3.5,0-4.5,2.9-4.5,6v9.3h-2v-11.2c0-2.2-0.9-4.1-3.5-4.1
		c-3.5,0-4.9,2.6-4.9,6.1v9.2h-2V648.2z"/>
	<path fill="#959595" d="M1162.5,664.7h-1.9v-3h-0.1c-1.1,2.2-3.2,3.5-5.7,3.5c-4.2,0-5.8-2.4-5.8-6.3v-10.7h2V659
		c0.1,3,1.2,4.5,4.4,4.5c3.5,0,5-3.3,5-6.6v-8.7h2V664.7z"/>
	<path fill="#959595" d="M1166.3,641.9h2v22.8h-2V641.9z"/>
	<path fill="#959595" d="M1175.4,648.2h3.4v1.7h-3.4V661c0,1.3,0.2,2.1,1.6,2.2c0.6,0,1.2,0,1.7-0.1v1.7c-0.6,0-1.2,0.1-1.8,0.1
		c-2.7,0-3.6-0.9-3.6-3.7v-11.3h-2.9v-1.7h2.9v-5h2V648.2z"/>
	<path fill="#959595" d="M1181.7,641.9h2v3.2h-2V641.9z M1181.7,648.2h2v16.5h-2V648.2z"/>
	<path fill="#959595" d="M1187.6,656.9V655h8v1.9H1187.6z"/>
	<path fill="#959595" d="M1205.8,649.9h-3.3v14.8h-2v-14.8h-2.8v-1.7h2.8v-1.5c0-2.8,0.8-4.8,4-4.8c0.6,0,1.1,0,1.7,0.1v1.7
		c-0.5-0.1-1-0.2-1.5-0.2c-2.2,0-2.2,1.4-2.2,3.2v1.4h3.3V649.9z"/>
	<path fill="#959595" d="M1207.5,653.3c0.2-3.9,2.9-5.5,6.7-5.5c2.9,0,6.1,0.9,6.1,5.3v8.8c0,0.8,0.4,1.2,1.2,1.2
		c0.2,0,0.5-0.1,0.6-0.1v1.7c-0.4,0.1-0.8,0.1-1.3,0.1c-2,0-2.4-1.2-2.4-2.9h-0.1c-1.4,2.1-2.8,3.4-6,3.4c-3,0-5.5-1.5-5.5-4.8
		c0-4.6,4.5-4.8,8.9-5.3c1.7-0.2,2.6-0.4,2.6-2.2c0-2.7-2-3.4-4.3-3.4c-2.5,0-4.4,1.2-4.4,3.8H1207.5z M1218.3,655.7L1218.3,655.7
		c-0.3,0.5-1.2,0.6-1.8,0.7c-3.4,0.6-7.7,0.6-7.7,3.8c0,2,1.8,3.3,3.7,3.3c3.1,0,5.8-2,5.8-5.2V655.7z"/>
	<path fill="#959595" d="M1236,653.4c-0.5-2.5-2-4-4.7-4c-3.9,0-5.8,3.5-5.8,7c0,3.5,1.9,7,5.8,7c2.5,0,4.5-2,4.8-4.7h2
		c-0.5,4-3.1,6.4-6.8,6.4c-5.1,0-7.8-4-7.8-8.7c0-4.7,2.8-8.7,7.8-8.7c3.5,0,6.2,1.9,6.7,5.7H1236z"/>
	<path fill="#959595" d="M1242.1,657c0,2.9,1.6,6.5,5.4,6.5c2.9,0,4.5-1.7,5.2-4.2h2c-0.9,3.7-3,5.9-7.2,5.9c-5.2,0-7.5-4-7.5-8.7
		c0-4.4,2.2-8.7,7.5-8.7c5.3,0,7.4,4.6,7.3,9.3H1242.1z M1252.8,655.3c-0.1-3-2-5.9-5.2-5.9c-3.3,0-5.1,2.9-5.4,5.9H1252.8z"/>
	<path fill="#959595" d="M1260.7,648.2h3.4v1.7h-3.4V661c0,1.3,0.2,2.1,1.6,2.2c0.6,0,1.2,0,1.7-0.1v1.7c-0.6,0-1.2,0.1-1.8,0.1
		c-2.7,0-3.6-0.9-3.6-3.7v-11.3h-2.9v-1.7h2.9v-5h2V648.2z"/>
	<path fill="#959595" d="M1268.2,657c0,2.9,1.6,6.5,5.4,6.5c2.9,0,4.5-1.7,5.2-4.2h2c-0.9,3.7-3,5.9-7.2,5.9c-5.2,0-7.5-4-7.5-8.7
		c0-4.4,2.2-8.7,7.5-8.7c5.3,0,7.4,4.6,7.3,9.3H1268.2z M1278.9,655.3c-0.1-3-2-5.9-5.2-5.9c-3.3,0-5.1,2.9-5.4,5.9H1278.9z"/>
	<path fill="#959595" d="M1298.2,664.7h-1.9v-3.1h-0.1c-0.9,2.1-3.5,3.6-5.9,3.6c-5,0-7.4-4.1-7.4-8.7c0-4.7,2.4-8.7,7.4-8.7
		c2.5,0,4.9,1.2,5.7,3.6h0.1v-9.5h2V664.7z M1290.3,663.5c4.3,0,5.8-3.6,5.8-7c0-3.4-1.5-7-5.8-7c-3.8,0-5.4,3.6-5.4,7
		C1284.9,659.9,1286.5,663.5,1290.3,663.5z"/>
	<path fill="#959595" d="M1310.9,648.2h2v2.8h0.1c0.7-2,2.9-3.3,5.3-3.3c4.6,0,6,2.4,6,6.4v10.6h-2v-10.3c0-2.8-0.9-5-4.2-5
		c-3.2,0-5.1,2.4-5.2,5.7v9.6h-2V648.2z"/>
	<path fill="#959595" d="M1327.9,653.3c0.2-3.9,2.9-5.5,6.7-5.5c2.9,0,6.1,0.9,6.1,5.3v8.8c0,0.8,0.4,1.2,1.2,1.2
		c0.2,0,0.5-0.1,0.6-0.1v1.7c-0.4,0.1-0.8,0.1-1.3,0.1c-2,0-2.4-1.2-2.4-2.9h-0.1c-1.4,2.1-2.8,3.4-6,3.4c-3,0-5.5-1.5-5.5-4.8
		c0-4.6,4.5-4.8,8.9-5.3c1.7-0.2,2.6-0.4,2.6-2.2c0-2.7-2-3.4-4.3-3.4c-2.5,0-4.4,1.2-4.4,3.8H1327.9z M1338.6,655.7L1338.6,655.7
		c-0.3,0.5-1.2,0.6-1.8,0.7c-3.4,0.6-7.7,0.6-7.7,3.8c0,2,1.8,3.3,3.7,3.3c3.1,0,5.8-2,5.8-5.2V655.7z"/>
	<path fill="#959595" d="M1347.9,648.2h3.4v1.7h-3.4V661c0,1.3,0.2,2.1,1.6,2.2c0.6,0,1.2,0,1.7-0.1v1.7c-0.6,0-1.2,0.1-1.8,0.1
		c-2.7,0-3.6-0.9-3.6-3.7v-11.3h-2.9v-1.7h2.9v-5h2V648.2z"/>
	<path fill="#959595" d="M1367.5,664.7h-1.9v-3h-0.1c-1.1,2.2-3.2,3.5-5.7,3.5c-4.2,0-5.8-2.4-5.8-6.3v-10.7h2V659
		c0.1,3,1.2,4.5,4.4,4.5c3.5,0,5-3.3,5-6.6v-8.7h2V664.7z"/>
	<path fill="#959595" d="M1371.3,648.2h1.9v3.9h0.1c1-2.7,3.3-4.2,6.2-4.1v2c-3.6-0.2-6.1,2.5-6.1,5.9v8.8h-2V648.2z"/>
	<path fill="#959595" d="M1382,657c0,2.9,1.6,6.5,5.4,6.5c2.9,0,4.5-1.7,5.2-4.2h2c-0.9,3.7-3,5.9-7.2,5.9c-5.2,0-7.5-4-7.5-8.7
		c0-4.4,2.2-8.7,7.5-8.7c5.3,0,7.4,4.6,7.3,9.3H1382z M1392.7,655.3c-0.1-3-2-5.9-5.2-5.9c-3.3,0-5.1,2.9-5.4,5.9H1392.7z"/>
	<path fill="#959595" d="M1398.6,664.7v-3.4h2.7v3.4H1398.6z"/>
	<path fill="#959595" d="M1425.2,641.4c7.2,0,10.8,5.7,10.8,11.9c0,6.2-3.6,11.9-10.8,11.9c-7.2,0-10.8-5.7-10.8-11.9
		C1414.4,647.1,1418,641.4,1425.2,641.4z M1425.2,663.3c6,0,8.6-5.1,8.6-10c0-5-2.6-10-8.6-10c-6,0-8.6,5.1-8.6,10
		C1416.6,658.3,1419.1,663.3,1425.2,663.3z"/>
	<path fill="#959595" d="M1452.3,664.7h-1.9v-3h-0.1c-1.1,2.2-3.2,3.5-5.7,3.5c-4.2,0-5.8-2.4-5.8-6.3v-10.7h2V659
		c0.1,3,1.2,4.5,4.4,4.5c3.5,0,5-3.3,5-6.6v-8.7h2V664.7z"/>
	<path fill="#959595" d="M1456.1,648.2h1.9v3.9h0.1c1-2.7,3.3-4.2,6.2-4.1v2c-3.6-0.2-6.1,2.5-6.1,5.9v8.8h-2V648.2z"/>
	<path fill="#959595" d="M1064.2,701.4c-0.5-2.5-2-4-4.7-4c-3.9,0-5.8,3.5-5.8,7c0,3.5,1.9,7,5.8,7c2.5,0,4.5-2,4.8-4.7h2
		c-0.5,4-3.1,6.4-6.8,6.4c-5.1,0-7.8-4-7.8-8.7c0-4.7,2.8-8.7,7.8-8.7c3.5,0,6.2,1.9,6.7,5.7H1064.2z"/>
	<path fill="#959595" d="M1083.9,704.5c0,4.7-2.8,8.7-7.8,8.7s-7.8-4-7.8-8.7c0-4.7,2.8-8.7,7.8-8.7S1083.9,699.7,1083.9,704.5z
		 M1070.3,704.5c0,3.5,1.9,7,5.8,7c3.9,0,5.8-3.5,5.8-7c0-3.5-1.9-7-5.8-7C1072.3,697.4,1070.3,701,1070.3,704.5z"/>
	<path fill="#959595" d="M1087,696.2h1.9v2.8h0.1c1.1-2,2.8-3.3,5.4-3.3c2.2,0,4.1,1.1,4.7,3.2c1-2.2,3.1-3.2,5.2-3.2
		c3.6,0,5.5,1.9,5.5,5.8v11.2h-2v-11.1c0-2.7-1-4.2-3.9-4.2c-3.5,0-4.5,2.9-4.5,6v9.3h-2v-11.2c0-2.2-0.9-4.1-3.5-4.1
		c-3.5,0-4.9,2.6-4.9,6.1v9.2h-2V696.2z"/>
	<path fill="#959595" d="M1113.6,696.2h1.9v3.1h0.1c0.9-2.2,3.2-3.6,5.9-3.6c5,0,7.4,4.1,7.4,8.7c0,4.7-2.4,8.7-7.4,8.7
		c-2.5,0-4.9-1.2-5.7-3.6h-0.1v9.2h-2V696.2z M1121.4,697.4c-4.4,0-5.8,3.3-5.8,7c0,3.4,1.5,7,5.8,7c3.8,0,5.4-3.6,5.4-7
		C1126.8,701,1125.3,697.4,1121.4,697.4z"/>
	<path fill="#959595" d="M1132,696.2h1.9v3.9h0.1c1-2.7,3.3-4.2,6.2-4.1v2c-3.6-0.2-6.1,2.5-6.1,5.9v8.8h-2V696.2z"/>
	<path fill="#959595" d="M1142.7,705c0,2.9,1.6,6.5,5.4,6.5c2.9,0,4.5-1.7,5.2-4.2h2c-0.9,3.7-3,5.9-7.2,5.9c-5.2,0-7.5-4-7.5-8.7
		c0-4.4,2.2-8.7,7.5-8.7c5.3,0,7.4,4.6,7.3,9.3H1142.7z M1153.4,703.3c-0.1-3-2-5.9-5.2-5.9c-3.3,0-5.1,2.9-5.4,5.9H1153.4z"/>
	<path fill="#959595" d="M1158.1,689.9h2v9.2h0.1c0.7-2,2.9-3.3,5.3-3.3c4.6,0,6,2.4,6,6.4v10.6h-2v-10.3c0-2.8-0.9-5-4.2-5
		c-3.2,0-5.1,2.4-5.2,5.7v9.6h-2V689.9z"/>
	<path fill="#959595" d="M1176.5,705c0,2.9,1.6,6.5,5.4,6.5c2.9,0,4.5-1.7,5.2-4.2h2c-0.9,3.7-3,5.9-7.2,5.9c-5.2,0-7.5-4-7.5-8.7
		c0-4.4,2.2-8.7,7.5-8.7c5.3,0,7.4,4.6,7.3,9.3H1176.5z M1187.1,703.3c-0.1-3-2-5.9-5.2-5.9c-3.3,0-5.1,2.9-5.4,5.9H1187.1z"/>
	<path fill="#959595" d="M1191.8,696.2h2v2.8h0.1c0.7-2,2.9-3.3,5.3-3.3c4.6,0,6,2.4,6,6.4v10.6h-2v-10.3c0-2.8-0.9-5-4.2-5
		c-3.2,0-5.1,2.4-5.2,5.7v9.6h-2V696.2z"/>
	<path fill="#959595" d="M1219,701c-0.1-2.5-2-3.6-4.3-3.6c-1.8,0-3.9,0.7-3.9,2.8c0,1.8,2,2.4,3.4,2.8l2.7,0.6
		c2.3,0.4,4.7,1.7,4.7,4.6c0,3.6-3.6,5-6.6,5c-3.8,0-6.5-1.8-6.8-5.8h2c0.2,2.7,2.2,4.1,4.9,4.1c1.9,0,4.5-0.8,4.5-3.1
		c0-1.9-1.8-2.6-3.6-3l-2.6-0.6c-2.6-0.7-4.6-1.6-4.6-4.4c0-3.4,3.3-4.6,6.2-4.6c3.3,0,5.9,1.7,6,5.3H1219z"/>
	<path fill="#959595" d="M1224.5,689.9h2v3.2h-2V689.9z M1224.5,696.2h2v16.5h-2V696.2z"/>
	<path fill="#959595" d="M1228.5,696.2h2.2l5.2,14.5h0.1l5.1-14.5h2.1l-6.2,16.5h-2.1L1228.5,696.2z"/>
	<path fill="#959595" d="M1246.4,705c0,2.9,1.6,6.5,5.4,6.5c2.9,0,4.5-1.7,5.2-4.2h2c-0.9,3.7-3,5.9-7.2,5.9c-5.2,0-7.5-4-7.5-8.7
		c0-4.4,2.2-8.7,7.5-8.7c5.3,0,7.4,4.6,7.3,9.3H1246.4z M1257.1,703.3c-0.1-3-2-5.9-5.2-5.9c-3.3,0-5.1,2.9-5.4,5.9H1257.1z"/>
	<path fill="#959595" d="M1270.7,696.2h1.9v3.9h0.1c1-2.7,3.3-4.2,6.2-4.1v2c-3.6-0.2-6.1,2.5-6.1,5.9v8.8h-2V696.2z"/>
	<path fill="#959595" d="M1280.8,689.9h2v3.2h-2V689.9z M1280.8,696.2h2v16.5h-2V696.2z"/>
	<path fill="#959595" d="M1296.6,701c-0.1-2.5-2-3.6-4.3-3.6c-1.8,0-3.9,0.7-3.9,2.8c0,1.8,2,2.4,3.4,2.8l2.7,0.6
		c2.3,0.4,4.7,1.7,4.7,4.6c0,3.6-3.6,5-6.6,5c-3.8,0-6.5-1.8-6.8-5.8h2c0.2,2.7,2.2,4.1,4.9,4.1c1.9,0,4.5-0.8,4.5-3.1
		c0-1.9-1.8-2.6-3.6-3l-2.6-0.6c-2.6-0.7-4.6-1.6-4.6-4.4c0-3.4,3.3-4.6,6.2-4.6c3.3,0,5.9,1.7,6,5.3H1296.6z"/>
	<path fill="#959595" d="M1302.1,689.9h2v14.3l9.2-8h2.7l-7,6.1l7.5,10.4h-2.5l-6.5-9l-3.3,2.7v6.3h-2V689.9z"/>
	<path fill="#959595" d="M1327,689.9h2v3.2h-2V689.9z M1327,696.2h2v16.5h-2V696.2z"/>
	<path fill="#959595" d="M1332.9,696.2h2v2.8h0.1c0.7-2,2.9-3.3,5.3-3.3c4.6,0,6,2.4,6,6.4v10.6h-2v-10.3c0-2.8-0.9-5-4.2-5
		c-3.2,0-5.1,2.4-5.2,5.7v9.6h-2V696.2z"/>
	<path fill="#959595" d="M1364.6,712.7h-1.9v-3.1h-0.1c-0.9,2.1-3.5,3.6-5.9,3.6c-5,0-7.4-4.1-7.4-8.7c0-4.7,2.4-8.7,7.4-8.7
		c2.5,0,4.9,1.2,5.7,3.6h0.1v-9.5h2V712.7z M1356.8,711.5c4.3,0,5.8-3.6,5.8-7c0-3.4-1.5-7-5.8-7c-3.8,0-5.4,3.6-5.4,7
		C1351.4,707.9,1353,711.5,1356.8,711.5z"/>
	<path fill="#959595" d="M1369.6,705c0,2.9,1.6,6.5,5.4,6.5c2.9,0,4.5-1.7,5.2-4.2h2c-0.9,3.7-3,5.9-7.2,5.9c-5.2,0-7.5-4-7.5-8.7
		c0-4.4,2.2-8.7,7.5-8.7c5.3,0,7.4,4.6,7.3,9.3H1369.6z M1380.3,703.3c-0.1-3-2-5.9-5.2-5.9c-3.3,0-5.1,2.9-5.4,5.9H1380.3z"/>
	<path fill="#959595" d="M1389.6,704.2l-5.9-7.9h2.5l4.7,6.3l4.6-6.3h2.5l-6,7.9l6.4,8.6h-2.6l-5.2-6.9l-5.1,6.9h-2.5L1389.6,704.2z
		"/>
	<path fill="#959595" d="M1409.4,689.9h2v3.2h-2V689.9z M1409.4,696.2h2v16.5h-2V696.2z"/>
	<path fill="#959595" d="M1425.2,701c-0.1-2.5-2-3.6-4.3-3.6c-1.8,0-3.9,0.7-3.9,2.8c0,1.8,2,2.4,3.4,2.8l2.7,0.6
		c2.3,0.4,4.7,1.7,4.7,4.6c0,3.6-3.6,5-6.6,5c-3.8,0-6.5-1.8-6.8-5.8h2c0.2,2.7,2.2,4.1,4.9,4.1c1.9,0,4.5-0.8,4.5-3.1
		c0-1.9-1.8-2.6-3.6-3l-2.6-0.6c-2.6-0.7-4.6-1.6-4.6-4.4c0-3.4,3.3-4.6,6.2-4.6c3.3,0,5.9,1.7,6,5.3H1425.2z"/>
	<path fill="#959595" d="M1439.4,701.3c0.2-3.9,2.9-5.5,6.7-5.5c2.9,0,6.1,0.9,6.1,5.3v8.8c0,0.8,0.4,1.2,1.2,1.2
		c0.2,0,0.5-0.1,0.6-0.1v1.7c-0.4,0.1-0.8,0.1-1.3,0.1c-2,0-2.4-1.2-2.4-2.9h-0.1c-1.4,2.1-2.8,3.4-6,3.4c-3,0-5.5-1.5-5.5-4.8
		c0-4.6,4.5-4.8,8.9-5.3c1.7-0.2,2.6-0.4,2.6-2.2c0-2.7-2-3.4-4.3-3.4c-2.5,0-4.4,1.2-4.4,3.8H1439.4z M1450.1,703.7L1450.1,703.7
		c-0.3,0.5-1.2,0.6-1.8,0.7c-3.4,0.6-7.7,0.6-7.7,3.8c0,2,1.8,3.3,3.7,3.3c3.1,0,5.8-2,5.8-5.2V703.7z"/>
	<path fill="#959595" d="M1052.6,744.2h1.9v2.8h0.1c1.1-2,2.8-3.3,5.4-3.3c2.2,0,4.1,1.1,4.7,3.2c1-2.2,3.1-3.2,5.2-3.2
		c3.6,0,5.5,1.9,5.5,5.8v11.2h-2v-11.1c0-2.7-1-4.2-3.9-4.2c-3.5,0-4.5,2.9-4.5,6v9.3h-2v-11.2c0-2.2-0.9-4.1-3.5-4.1
		c-3.5,0-4.9,2.6-4.9,6.1v9.2h-2V744.2z"/>
	<path fill="#959595" d="M1080.4,753c0,2.9,1.6,6.5,5.4,6.5c2.9,0,4.5-1.7,5.2-4.2h2c-0.9,3.7-3,5.9-7.2,5.9c-5.2,0-7.5-4-7.5-8.7
		c0-4.4,2.2-8.7,7.5-8.7c5.3,0,7.4,4.6,7.3,9.3H1080.4z M1091.1,751.3c-0.1-3-2-5.9-5.2-5.9c-3.3,0-5.1,2.9-5.4,5.9H1091.1z"/>
	<path fill="#959595" d="M1099,744.2h3.4v1.7h-3.4V757c0,1.3,0.2,2.1,1.6,2.2c0.6,0,1.2,0,1.7-0.1v1.7c-0.6,0-1.2,0.1-1.8,0.1
		c-2.7,0-3.6-0.9-3.6-3.7v-11.3h-2.9v-1.7h2.9v-5h2V744.2z"/>
	<path fill="#959595" d="M1105.3,737.9h2v3.2h-2V737.9z M1105.3,744.2h2v16.5h-2V744.2z"/>
	<path fill="#959595" d="M1122.9,749.4c-0.5-2.5-2-4-4.7-4c-3.9,0-5.8,3.5-5.8,7c0,3.5,1.9,7,5.8,7c2.5,0,4.5-2,4.8-4.7h2
		c-0.5,4-3.1,6.4-6.8,6.4c-5.1,0-7.8-4-7.8-8.7c0-4.7,2.8-8.7,7.8-8.7c3.5,0,6.2,1.9,6.7,5.7H1122.9z"/>
	<path fill="#959595" d="M1142.6,752.5c0,4.7-2.8,8.7-7.8,8.7s-7.8-4-7.8-8.7c0-4.7,2.8-8.7,7.8-8.7S1142.6,747.7,1142.6,752.5z
		 M1129,752.5c0,3.5,1.9,7,5.8,7c3.9,0,5.8-3.5,5.8-7c0-3.5-1.9-7-5.8-7C1130.9,745.4,1129,749,1129,752.5z"/>
	<path fill="#959595" d="M1145.6,737.9h2v22.8h-2V737.9z"/>
	<path fill="#959595" d="M1166.3,752.5c0,4.7-2.8,8.7-7.8,8.7s-7.8-4-7.8-8.7c0-4.7,2.8-8.7,7.8-8.7S1166.3,747.7,1166.3,752.5z
		 M1152.7,752.5c0,3.5,1.9,7,5.8,7c3.9,0,5.8-3.5,5.8-7c0-3.5-1.9-7-5.8-7C1154.6,745.4,1152.7,749,1152.7,752.5z"/>
	<path fill="#959595" d="M1182.7,760.7h-1.9v-3h-0.1c-1.1,2.2-3.2,3.5-5.7,3.5c-4.2,0-5.8-2.4-5.8-6.3v-10.7h2V755
		c0.1,3,1.2,4.5,4.4,4.5c3.5,0,5-3.3,5-6.6v-8.7h2V760.7z"/>
	<path fill="#959595" d="M1196.4,749c-0.1-2.5-2-3.6-4.3-3.6c-1.8,0-3.9,0.7-3.9,2.8c0,1.8,2,2.4,3.4,2.8l2.7,0.6
		c2.3,0.4,4.7,1.7,4.7,4.6c0,3.6-3.6,5-6.6,5c-3.8,0-6.5-1.8-6.8-5.8h2c0.2,2.7,2.2,4.1,4.9,4.1c1.9,0,4.5-0.8,4.5-3.1
		c0-1.9-1.8-2.6-3.6-3l-2.6-0.6c-2.6-0.7-4.6-1.6-4.6-4.4c0-3.4,3.3-4.6,6.2-4.6c3.3,0,5.9,1.7,6,5.3H1196.4z"/>
	<path fill="#959595" d="M1210.8,737.9h2v9.5h0.1c0.9-2.4,3.3-3.6,5.7-3.6c5,0,7.4,4.1,7.4,8.7c0,4.7-2.4,8.7-7.4,8.7
		c-2.7,0-5-1.4-5.9-3.6h-0.1v3.1h-1.9V737.9z M1218.6,745.4c-4.3,0-5.8,3.6-5.8,7c0,3.4,1.5,7,5.8,7c3.8,0,5.4-3.6,5.4-7
		C1224,749,1222.4,745.4,1218.6,745.4z"/>
	<path fill="#959595" d="M1229.2,737.9h2v22.8h-2V737.9z"/>
	<path fill="#959595" d="M1236.3,753c0,2.9,1.6,6.5,5.4,6.5c2.9,0,4.5-1.7,5.2-4.2h2c-0.9,3.7-3,5.9-7.2,5.9c-5.2,0-7.5-4-7.5-8.7
		c0-4.4,2.2-8.7,7.5-8.7c5.3,0,7.4,4.6,7.3,9.3H1236.3z M1246.9,751.3c-0.1-3-2-5.9-5.2-5.9c-3.3,0-5.1,2.9-5.4,5.9H1246.9z"/>
	<path fill="#959595" d="M1251.7,744.2h2v2.8h0.1c0.7-2,2.9-3.3,5.3-3.3c4.6,0,6,2.4,6,6.4v10.6h-2v-10.3c0-2.8-0.9-5-4.2-5
		c-3.2,0-5.1,2.4-5.2,5.7v9.6h-2V744.2z"/>
	<path fill="#959595" d="M1283.4,760.7h-1.9v-3.1h-0.1c-0.9,2.1-3.5,3.6-5.9,3.6c-5,0-7.4-4.1-7.4-8.7c0-4.7,2.4-8.7,7.4-8.7
		c2.5,0,4.9,1.2,5.7,3.6h0.1v-9.5h2V760.7z M1275.6,759.5c4.3,0,5.8-3.6,5.8-7c0-3.4-1.5-7-5.8-7c-3.8,0-5.4,3.6-5.4,7
		C1270.2,755.9,1271.7,759.5,1275.6,759.5z"/>
	<path fill="#959595" d="M1310.9,752.5c0,4.7-2.8,8.7-7.8,8.7s-7.8-4-7.8-8.7c0-4.7,2.8-8.7,7.8-8.7S1310.9,747.7,1310.9,752.5z
		 M1297.3,752.5c0,3.5,1.9,7,5.8,7c3.9,0,5.8-3.5,5.8-7c0-3.5-1.9-7-5.8-7C1299.2,745.4,1297.3,749,1297.3,752.5z"/>
	<path fill="#959595" d="M1320.3,745.9h-3.3v14.8h-2v-14.8h-2.8v-1.7h2.8v-1.5c0-2.8,0.8-4.8,4-4.8c0.6,0,1.1,0,1.7,0.1v1.7
		c-0.5-0.1-1-0.2-1.5-0.2c-2.2,0-2.2,1.4-2.2,3.2v1.4h3.3V745.9z"/>
	<path fill="#959595" d="M1337.5,745.9h-3.3v14.8h-2v-14.8h-2.8v-1.7h2.8v-1.5c0-2.8,0.8-4.8,4-4.8c0.6,0,1.1,0,1.7,0.1v1.7
		c-0.5-0.1-1-0.2-1.5-0.2c-2.2,0-2.2,1.4-2.2,3.2v1.4h3.3V745.9z"/>
	<path fill="#959595" d="M1339.2,749.3c0.2-3.9,2.9-5.5,6.7-5.5c2.9,0,6.1,0.9,6.1,5.3v8.8c0,0.8,0.4,1.2,1.2,1.2
		c0.2,0,0.5-0.1,0.6-0.1v1.7c-0.4,0.1-0.8,0.1-1.3,0.1c-2,0-2.4-1.2-2.4-2.9h-0.1c-1.4,2.1-2.8,3.4-6,3.4c-3,0-5.5-1.5-5.5-4.8
		c0-4.6,4.5-4.8,8.9-5.3c1.7-0.2,2.6-0.4,2.6-2.2c0-2.7-2-3.4-4.3-3.4c-2.5,0-4.4,1.2-4.4,3.8H1339.2z M1350,751.7L1350,751.7
		c-0.3,0.5-1.2,0.6-1.8,0.7c-3.4,0.6-7.7,0.6-7.7,3.8c0,2,1.8,3.3,3.7,3.3c3.1,0,5.8-2,5.8-5.2V751.7z"/>
	<path fill="#959595" d="M1367.7,749.4c-0.5-2.5-2-4-4.7-4c-3.9,0-5.8,3.5-5.8,7c0,3.5,1.9,7,5.8,7c2.5,0,4.5-2,4.8-4.7h2
		c-0.5,4-3.1,6.4-6.8,6.4c-5.1,0-7.8-4-7.8-8.7c0-4.7,2.8-8.7,7.8-8.7c3.5,0,6.2,1.9,6.7,5.7H1367.7z"/>
	<path fill="#959595" d="M1375.8,744.2h3.4v1.7h-3.4V757c0,1.3,0.2,2.1,1.6,2.2c0.6,0,1.2,0,1.7-0.1v1.7c-0.6,0-1.2,0.1-1.8,0.1
		c-2.7,0-3.6-0.9-3.6-3.7v-11.3h-2.9v-1.7h2.9v-5h2V744.2z"/>
	<path fill="#959595" d="M1396.9,752.5c0,4.7-2.8,8.7-7.8,8.7s-7.8-4-7.8-8.7c0-4.7,2.8-8.7,7.8-8.7S1396.9,747.7,1396.9,752.5z
		 M1383.3,752.5c0,3.5,1.9,7,5.8,7c3.9,0,5.8-3.5,5.8-7c0-3.5-1.9-7-5.8-7C1385.2,745.4,1383.3,749,1383.3,752.5z"/>
	<path fill="#959595" d="M1399.9,744.2h1.9v3.9h0.1c1-2.7,3.3-4.2,6.2-4.1v2c-3.6-0.2-6.1,2.5-6.1,5.9v8.8h-2V744.2z"/>
	<path fill="#959595" d="M1419.8,749c-0.1-2.5-2-3.6-4.3-3.6c-1.8,0-3.9,0.7-3.9,2.8c0,1.8,2,2.4,3.4,2.8l2.7,0.6
		c2.3,0.4,4.7,1.7,4.7,4.6c0,3.6-3.6,5-6.6,5c-3.8,0-6.5-1.8-6.8-5.8h2c0.2,2.7,2.2,4.1,4.9,4.1c1.9,0,4.5-0.8,4.5-3.1
		c0-1.9-1.8-2.6-3.6-3l-2.6-0.6c-2.6-0.7-4.6-1.6-4.6-4.4c0-3.4,3.3-4.6,6.2-4.6c3.3,0,5.9,1.7,6,5.3H1419.8z"/>
	<path fill="#959595" d="M1437.4,744.2h3.4v1.7h-3.4V757c0,1.3,0.2,2.1,1.6,2.2c0.6,0,1.2,0,1.7-0.1v1.7c-0.6,0-1.2,0.1-1.8,0.1
		c-2.7,0-3.6-0.9-3.6-3.7v-11.3h-2.9v-1.7h2.9v-5h2V744.2z"/>
	<path fill="#959595" d="M1443.7,737.9h2v9.2h0.1c0.7-2,2.9-3.3,5.3-3.3c4.6,0,6,2.4,6,6.4v10.6h-2v-10.3c0-2.8-0.9-5-4.2-5
		c-3.2,0-5.1,2.4-5.2,5.7v9.6h-2V737.9z"/>
	<path fill="#959595" d="M1460.7,749.3c0.2-3.9,2.9-5.5,6.7-5.5c2.9,0,6.1,0.9,6.1,5.3v8.8c0,0.8,0.4,1.2,1.2,1.2
		c0.2,0,0.5-0.1,0.6-0.1v1.7c-0.4,0.1-0.8,0.1-1.3,0.1c-2,0-2.4-1.2-2.4-2.9h-0.1c-1.4,2.1-2.8,3.4-6,3.4c-3,0-5.5-1.5-5.5-4.8
		c0-4.6,4.5-4.8,8.9-5.3c1.7-0.2,2.6-0.4,2.6-2.2c0-2.7-2-3.4-4.3-3.4c-2.5,0-4.4,1.2-4.4,3.8H1460.7z M1471.5,751.7L1471.5,751.7
		c-0.3,0.5-1.2,0.6-1.8,0.7c-3.4,0.6-7.7,0.6-7.7,3.8c0,2,1.8,3.3,3.7,3.3c3.1,0,5.8-2,5.8-5.2V751.7z"/>
	<path fill="#959595" d="M1480.7,744.2h3.4v1.7h-3.4V757c0,1.3,0.2,2.1,1.6,2.2c0.6,0,1.2,0,1.7-0.1v1.7c-0.6,0-1.2,0.1-1.8,0.1
		c-2.7,0-3.6-0.9-3.6-3.7v-11.3h-2.9v-1.7h2.9v-5h2V744.2z"/>
	<path fill="#959595" d="M1062.4,797c-0.1-2.5-2-3.6-4.3-3.6c-1.8,0-3.9,0.7-3.9,2.8c0,1.8,2,2.4,3.4,2.8l2.7,0.6
		c2.3,0.4,4.7,1.7,4.7,4.6c0,3.6-3.6,5-6.6,5c-3.8,0-6.5-1.8-6.8-5.8h2c0.2,2.7,2.2,4.1,4.9,4.1c1.9,0,4.5-0.8,4.5-3.1
		c0-1.9-1.8-2.6-3.6-3l-2.6-0.6c-2.6-0.7-4.6-1.6-4.6-4.4c0-3.4,3.3-4.6,6.2-4.6c3.3,0,5.9,1.7,6,5.3H1062.4z"/>
	<path fill="#959595" d="M1069.1,801c0,2.9,1.6,6.5,5.4,6.5c2.9,0,4.5-1.7,5.2-4.2h2c-0.9,3.7-3,5.9-7.2,5.9c-5.2,0-7.5-4-7.5-8.7
		c0-4.4,2.2-8.7,7.5-8.7c5.3,0,7.4,4.6,7.3,9.3H1069.1z M1079.8,799.3c-0.1-3-2-5.9-5.2-5.9c-3.3,0-5.1,2.9-5.4,5.9H1079.8z"/>
	<path fill="#959595" d="M1084.6,792.2h1.9v3.9h0.1c1-2.7,3.3-4.2,6.2-4.1v2c-3.6-0.2-6.1,2.5-6.1,5.9v8.8h-2V792.2z"/>
	<path fill="#959595" d="M1092.8,792.2h2.2l5.2,14.5h0.1l5.1-14.5h2.1l-6.2,16.5h-2.1L1092.8,792.2z"/>
	<path fill="#959595" d="M1110.6,801c0,2.9,1.6,6.5,5.4,6.5c2.9,0,4.5-1.7,5.2-4.2h2c-0.9,3.7-3,5.9-7.2,5.9c-5.2,0-7.5-4-7.5-8.7
		c0-4.4,2.2-8.7,7.5-8.7c5.3,0,7.4,4.6,7.3,9.3H1110.6z M1121.3,799.3c-0.1-3-2-5.9-5.2-5.9c-3.3,0-5.1,2.9-5.4,5.9H1121.3z"/>
	<path fill="#959595" d="M1135.9,797c-0.1-2.5-2-3.6-4.3-3.6c-1.8,0-3.9,0.7-3.9,2.8c0,1.8,2,2.4,3.4,2.8l2.7,0.6
		c2.3,0.4,4.7,1.7,4.7,4.6c0,3.6-3.6,5-6.6,5c-3.8,0-6.5-1.8-6.8-5.8h2c0.2,2.7,2.2,4.1,4.9,4.1c1.9,0,4.5-0.8,4.5-3.1
		c0-1.9-1.8-2.6-3.6-3l-2.6-0.6c-2.6-0.7-4.6-1.6-4.6-4.4c0-3.4,3.3-4.6,6.2-4.6c3.3,0,5.9,1.7,6,5.3H1135.9z"/>
	<path fill="#959595" d="M1153.5,792.2h3.4v1.7h-3.4V805c0,1.3,0.2,2.1,1.6,2.2c0.6,0,1.2,0,1.7-0.1v1.7c-0.6,0-1.2,0.1-1.8,0.1
		c-2.7,0-3.6-0.9-3.6-3.7v-11.3h-2.9v-1.7h2.9v-5h2V792.2z"/>
	<path fill="#959595" d="M1174.6,800.5c0,4.7-2.8,8.7-7.8,8.7s-7.8-4-7.8-8.7c0-4.7,2.8-8.7,7.8-8.7S1174.6,795.7,1174.6,800.5z
		 M1161,800.5c0,3.5,1.9,7,5.8,7c3.9,0,5.8-3.5,5.8-7c0-3.5-1.9-7-5.8-7C1162.9,793.4,1161,797,1161,800.5z"/>
	<path fill="#959595" d="M1186.5,792.2h1.9v3.1h0.1c0.9-2.2,3.2-3.6,5.9-3.6c5,0,7.4,4.1,7.4,8.7c0,4.7-2.4,8.7-7.4,8.7
		c-2.5,0-4.9-1.2-5.7-3.6h-0.1v9.2h-2V792.2z M1194.3,793.4c-4.4,0-5.8,3.3-5.8,7c0,3.4,1.5,7,5.8,7c3.8,0,5.4-3.6,5.4-7
		C1199.7,797,1198.2,793.4,1194.3,793.4z"/>
	<path fill="#959595" d="M1204.7,797.3c0.2-3.9,2.9-5.5,6.7-5.5c2.9,0,6.1,0.9,6.1,5.3v8.8c0,0.8,0.4,1.2,1.2,1.2
		c0.2,0,0.5-0.1,0.6-0.1v1.7c-0.4,0.1-0.8,0.1-1.3,0.1c-2,0-2.4-1.2-2.4-2.9h-0.1c-1.4,2.1-2.8,3.4-6,3.4c-3,0-5.5-1.5-5.5-4.8
		c0-4.6,4.5-4.8,8.9-5.3c1.7-0.2,2.6-0.4,2.6-2.2c0-2.7-2-3.4-4.3-3.4c-2.5,0-4.4,1.2-4.4,3.8H1204.7z M1215.4,799.7L1215.4,799.7
		c-0.3,0.5-1.2,0.6-1.8,0.7c-3.4,0.6-7.7,0.6-7.7,3.8c0,2,1.8,3.3,3.7,3.3c3.1,0,5.8-2,5.8-5.2V799.7z"/>
	<path fill="#959595" d="M1221.5,785.9h2v3.2h-2V785.9z M1221.5,792.2h2v16.5h-2V792.2z"/>
	<path fill="#959595" d="M1227.4,792.2h2v2.8h0.1c0.7-2,2.9-3.3,5.3-3.3c4.6,0,6,2.4,6,6.4v10.6h-2v-10.3c0-2.8-0.9-5-4.2-5
		c-3.2,0-5.1,2.4-5.2,5.7v9.6h-2V792.2z"/>
	<path fill="#959595" d="M1247.8,792.2h3.4v1.7h-3.4V805c0,1.3,0.2,2.1,1.6,2.2c0.6,0,1.2,0,1.7-0.1v1.7c-0.6,0-1.2,0.1-1.8,0.1
		c-2.7,0-3.6-0.9-3.6-3.7v-11.3h-2.9v-1.7h2.9v-5h2V792.2z"/>
	<path fill="#959595" d="M1266.1,792.2h3.4v1.7h-3.4V805c0,1.3,0.2,2.1,1.6,2.2c0.6,0,1.2,0,1.7-0.1v1.7c-0.6,0-1.2,0.1-1.8,0.1
		c-2.7,0-3.6-0.9-3.6-3.7v-11.3h-2.9v-1.7h2.9v-5h2V792.2z"/>
	<path fill="#959595" d="M1272.4,785.9h2v9.2h0.1c0.7-2,2.9-3.3,5.3-3.3c4.6,0,6,2.4,6,6.4v10.6h-2v-10.3c0-2.8-0.9-5-4.2-5
		c-3.2,0-5.1,2.4-5.2,5.7v9.6h-2V785.9z"/>
	<path fill="#959595" d="M1290.8,801c0,2.9,1.6,6.5,5.4,6.5c2.9,0,4.5-1.7,5.2-4.2h2c-0.9,3.7-3,5.9-7.2,5.9c-5.2,0-7.5-4-7.5-8.7
		c0-4.4,2.2-8.7,7.5-8.7c5.3,0,7.4,4.6,7.3,9.3H1290.8z M1301.5,799.3c-0.1-3-2-5.9-5.2-5.9c-3.3,0-5.1,2.9-5.4,5.9H1301.5z"/>
	<path fill="#959595" d="M1315.1,792.2h1.9v3.1h0.1c0.9-2.2,3.2-3.6,5.9-3.6c5,0,7.4,4.1,7.4,8.7c0,4.7-2.4,8.7-7.4,8.7
		c-2.5,0-4.9-1.2-5.7-3.6h-0.1v9.2h-2V792.2z M1322.9,793.4c-4.4,0-5.8,3.3-5.8,7c0,3.4,1.5,7,5.8,7c3.8,0,5.4-3.6,5.4-7
		C1328.3,797,1326.8,793.4,1322.9,793.4z"/>
	<path fill="#959595" d="M1333.5,785.9h2v3.2h-2V785.9z M1333.5,792.2h2v16.5h-2V792.2z"/>
	<path fill="#959595" d="M1351,797.4c-0.5-2.5-2-4-4.7-4c-3.9,0-5.8,3.5-5.8,7c0,3.5,1.9,7,5.8,7c2.5,0,4.5-2,4.8-4.7h2
		c-0.5,4-3.1,6.4-6.8,6.4c-5.1,0-7.8-4-7.8-8.7c0-4.7,2.8-8.7,7.8-8.7c3.5,0,6.2,1.9,6.7,5.7H1351z"/>
	<path fill="#959595" d="M1359.2,792.2h3.4v1.7h-3.4V805c0,1.3,0.2,2.1,1.6,2.2c0.6,0,1.2,0,1.7-0.1v1.7c-0.6,0-1.2,0.1-1.8,0.1
		c-2.7,0-3.6-0.9-3.6-3.7v-11.3h-2.9v-1.7h2.9v-5h2V792.2z"/>
	<path fill="#959595" d="M1378.9,808.7h-1.9v-3h-0.1c-1.1,2.2-3.2,3.5-5.7,3.5c-4.2,0-5.8-2.4-5.8-6.3v-10.7h2V803
		c0.1,3,1.2,4.5,4.4,4.5c3.5,0,5-3.3,5-6.6v-8.7h2V808.7z"/>
	<path fill="#959595" d="M1382.7,792.2h1.9v3.9h0.1c1-2.7,3.3-4.2,6.2-4.1v2c-3.6-0.2-6.1,2.5-6.1,5.9v8.8h-2V792.2z"/>
	<path fill="#959595" d="M1393.3,801c0,2.9,1.6,6.5,5.4,6.5c2.9,0,4.5-1.7,5.2-4.2h2c-0.9,3.7-3,5.9-7.2,5.9c-5.2,0-7.5-4-7.5-8.7
		c0-4.4,2.2-8.7,7.5-8.7c5.3,0,7.4,4.6,7.3,9.3H1393.3z M1404,799.3c-0.1-3-2-5.9-5.2-5.9c-3.3,0-5.1,2.9-5.4,5.9H1404z"/>
	<path fill="#959595" d="M1417.7,785.9h2v3.2h-2V785.9z M1417.7,792.2h2v16.5h-2V792.2z"/>
	<path fill="#959595" d="M1423.6,792.2h2v2.8h0.1c0.7-2,2.9-3.3,5.3-3.3c4.6,0,6,2.4,6,6.4v10.6h-2v-10.3c0-2.8-0.9-5-4.2-5
		c-3.2,0-5.1,2.4-5.2,5.7v9.6h-2V792.2z"/>
	<path fill="#959595" d="M1449.7,785.9h2v3.2h-2V785.9z M1449.7,792.2h2v16.5h-2V792.2z"/>
	<path fill="#959595" d="M1458.8,792.2h3.4v1.7h-3.4V805c0,1.3,0.2,2.1,1.6,2.2c0.6,0,1.2,0,1.7-0.1v1.7c-0.6,0-1.2,0.1-1.8,0.1
		c-2.7,0-3.6-0.9-3.6-3.7v-11.3h-2.9v-1.7h2.9v-5h2V792.2z"/>
	<path fill="#959595" d="M1474.9,797c-0.1-2.5-2-3.6-4.3-3.6c-1.8,0-3.9,0.7-3.9,2.8c0,1.8,2,2.4,3.4,2.8l2.7,0.6
		c2.3,0.4,4.7,1.7,4.7,4.6c0,3.6-3.6,5-6.6,5c-3.8,0-6.5-1.8-6.8-5.8h2c0.2,2.7,2.2,4.1,4.9,4.1c1.9,0,4.5-0.8,4.5-3.1
		c0-1.9-1.8-2.6-3.6-3l-2.6-0.6c-2.6-0.7-4.6-1.6-4.6-4.4c0-3.4,3.3-4.6,6.2-4.6c3.3,0,5.9,1.7,6,5.3H1474.9z"/>
	<path fill="#959595" d="M1052.6,840.2h1.9v2.8h0.1c1.1-2,2.8-3.3,5.4-3.3c2.2,0,4.1,1.1,4.7,3.2c1-2.2,3.1-3.2,5.2-3.2
		c3.6,0,5.5,1.9,5.5,5.8v11.2h-2v-11.1c0-2.7-1-4.2-3.9-4.2c-3.5,0-4.5,2.9-4.5,6v9.3h-2v-11.2c0-2.2-0.9-4.1-3.5-4.1
		c-3.5,0-4.9,2.6-4.9,6.1v9.2h-2V840.2z"/>
	<path fill="#959595" d="M1092.6,856.7h-1.9v-3h-0.1c-1.1,2.2-3.2,3.5-5.7,3.5c-4.2,0-5.8-2.4-5.8-6.3v-10.7h2V851
		c0.1,3,1.2,4.5,4.4,4.5c3.5,0,5-3.3,5-6.6v-8.7h2V856.7z"/>
	<path fill="#959595" d="M1096.4,833.9h2v22.8h-2V833.9z"/>
	<path fill="#959595" d="M1105.5,840.2h3.4v1.7h-3.4V853c0,1.3,0.2,2.1,1.6,2.2c0.6,0,1.2,0,1.7-0.1v1.7c-0.6,0-1.2,0.1-1.8,0.1
		c-2.7,0-3.6-0.9-3.6-3.7v-11.3h-2.9v-1.7h2.9v-5h2V840.2z"/>
	<path fill="#959595" d="M1111.8,833.9h2v3.2h-2V833.9z M1111.8,840.2h2v16.5h-2V840.2z"/>
	<path fill="#959595" d="M1115.8,840.2h2.2l5.2,14.5h0.1l5.1-14.5h2.1l-6.2,16.5h-2.1L1115.8,840.2z"/>
	<path fill="#959595" d="M1132.3,845.3c0.2-3.9,2.9-5.5,6.7-5.5c2.9,0,6.1,0.9,6.1,5.3v8.8c0,0.8,0.4,1.2,1.2,1.2
		c0.2,0,0.5-0.1,0.6-0.1v1.7c-0.4,0.1-0.8,0.1-1.3,0.1c-2,0-2.4-1.2-2.4-2.9h-0.1c-1.4,2.1-2.8,3.4-6,3.4c-3,0-5.5-1.5-5.5-4.8
		c0-4.6,4.5-4.8,8.9-5.3c1.7-0.2,2.6-0.4,2.6-2.2c0-2.7-2-3.4-4.3-3.4c-2.5,0-4.4,1.2-4.4,3.8H1132.3z M1143.1,847.7L1143.1,847.7
		c-0.3,0.5-1.2,0.6-1.8,0.7c-3.4,0.6-7.7,0.6-7.7,3.8c0,2,1.8,3.3,3.7,3.3c3.1,0,5.8-2,5.8-5.2V847.7z"/>
	<path fill="#959595" d="M1149.1,840.2h1.9v3.9h0.1c1-2.7,3.3-4.2,6.2-4.1v2c-3.6-0.2-6.1,2.5-6.1,5.9v8.8h-2V840.2z"/>
	<path fill="#959595" d="M1159.2,833.9h2v3.2h-2V833.9z M1159.2,840.2h2v16.5h-2V840.2z"/>
	<path fill="#959595" d="M1164.9,845.3c0.2-3.9,2.9-5.5,6.7-5.5c2.9,0,6.1,0.9,6.1,5.3v8.8c0,0.8,0.4,1.2,1.2,1.2
		c0.2,0,0.5-0.1,0.6-0.1v1.7c-0.4,0.1-0.8,0.1-1.3,0.1c-2,0-2.4-1.2-2.4-2.9h-0.1c-1.4,2.1-2.8,3.4-6,3.4c-3,0-5.5-1.5-5.5-4.8
		c0-4.6,4.5-4.8,8.9-5.3c1.7-0.2,2.6-0.4,2.6-2.2c0-2.7-2-3.4-4.3-3.4c-2.5,0-4.4,1.2-4.4,3.8H1164.9z M1175.7,847.7L1175.7,847.7
		c-0.3,0.5-1.2,0.6-1.8,0.7c-3.4,0.6-7.7,0.6-7.7,3.8c0,2,1.8,3.3,3.7,3.3c3.1,0,5.8-2,5.8-5.2V847.7z"/>
	<path fill="#959595" d="M1184.9,840.2h3.4v1.7h-3.4V853c0,1.3,0.2,2.1,1.6,2.2c0.6,0,1.2,0,1.7-0.1v1.7c-0.6,0-1.2,0.1-1.8,0.1
		c-2.7,0-3.6-0.9-3.6-3.7v-11.3h-2.9v-1.7h2.9v-5h2V840.2z"/>
	<path fill="#959595" d="M1192.4,849c0,2.9,1.6,6.5,5.4,6.5c2.9,0,4.5-1.7,5.2-4.2h2c-0.9,3.7-3,5.9-7.2,5.9c-5.2,0-7.5-4-7.5-8.7
		c0-4.4,2.2-8.7,7.5-8.7c5.3,0,7.4,4.6,7.3,9.3H1192.4z M1203.1,847.3c-0.1-3-2-5.9-5.2-5.9c-3.3,0-5.1,2.9-5.4,5.9H1203.1z"/>
	<path fill="#959595" d="M1226.6,845c-0.1-2.5-2-3.6-4.3-3.6c-1.8,0-3.9,0.7-3.9,2.8c0,1.8,2,2.4,3.4,2.8l2.7,0.6
		c2.3,0.4,4.7,1.7,4.7,4.6c0,3.6-3.6,5-6.6,5c-3.8,0-6.5-1.8-6.8-5.8h2c0.2,2.7,2.2,4.1,4.9,4.1c1.9,0,4.5-0.8,4.5-3.1
		c0-1.9-1.8-2.6-3.6-3l-2.6-0.6c-2.6-0.7-4.6-1.6-4.6-4.4c0-3.4,3.3-4.6,6.2-4.6c3.3,0,5.9,1.7,6,5.3H1226.6z"/>
	<path fill="#959595" d="M1232.1,840.2h1.9v3.1h0.1c0.9-2.2,3.2-3.6,5.9-3.6c5,0,7.4,4.1,7.4,8.7c0,4.7-2.4,8.7-7.4,8.7
		c-2.5,0-4.9-1.2-5.7-3.6h-0.1v9.2h-2V840.2z M1239.9,841.4c-4.4,0-5.8,3.3-5.8,7c0,3.4,1.5,7,5.8,7c3.8,0,5.4-3.6,5.4-7
		C1245.3,845,1243.8,841.4,1239.9,841.4z"/>
	<path fill="#959595" d="M1250.5,833.9h2v22.8h-2V833.9z"/>
	<path fill="#959595" d="M1257.6,849c0,2.9,1.6,6.5,5.4,6.5c2.9,0,4.5-1.7,5.2-4.2h2c-0.9,3.7-3,5.9-7.2,5.9c-5.2,0-7.5-4-7.5-8.7
		c0-4.4,2.2-8.7,7.5-8.7c5.3,0,7.4,4.6,7.3,9.3H1257.6z M1268.3,847.3c-0.1-3-2-5.9-5.2-5.9c-3.3,0-5.1,2.9-5.4,5.9H1268.3z"/>
	<path fill="#959595" d="M1273,840.2h2v2.8h0.1c0.7-2,2.9-3.3,5.3-3.3c4.6,0,6,2.4,6,6.4v10.6h-2v-10.3c0-2.8-0.9-5-4.2-5
		c-3.2,0-5.1,2.4-5.2,5.7v9.6h-2V840.2z"/>
	<path fill="#959595" d="M1304.7,856.7h-1.9v-3.1h-0.1c-0.9,2.1-3.5,3.6-5.9,3.6c-5,0-7.4-4.1-7.4-8.7c0-4.7,2.4-8.7,7.4-8.7
		c2.5,0,4.9,1.2,5.7,3.6h0.1v-9.5h2V856.7z M1296.9,855.5c4.3,0,5.8-3.6,5.8-7c0-3.4-1.5-7-5.8-7c-3.8,0-5.4,3.6-5.4,7
		C1291.5,851.9,1293.1,855.5,1296.9,855.5z"/>
	<path fill="#959595" d="M1323.3,848.5c0,4.7-2.8,8.7-7.8,8.7s-7.8-4-7.8-8.7c0-4.7,2.8-8.7,7.8-8.7S1323.3,843.7,1323.3,848.5z
		 M1309.7,848.5c0,3.5,1.9,7,5.8,7c3.9,0,5.8-3.5,5.8-7c0-3.5-1.9-7-5.8-7C1311.7,841.4,1309.7,845,1309.7,848.5z"/>
	<path fill="#959595" d="M1339.7,856.7h-1.9v-3h-0.1c-1.1,2.2-3.2,3.5-5.7,3.5c-4.2,0-5.8-2.4-5.8-6.3v-10.7h2V851
		c0.1,3,1.2,4.5,4.4,4.5c3.5,0,5-3.3,5-6.6v-8.7h2V856.7z"/>
	<path fill="#959595" d="M1343.5,840.2h1.9v3.9h0.1c1-2.7,3.3-4.2,6.2-4.1v2c-3.6-0.2-6.1,2.5-6.1,5.9v8.8h-2V840.2z"/>
	<path fill="#959595" d="M1351.8,856.7v-3.4h2.7v3.4H1351.8z"/>
	<path fill="#959595" d="M1366.5,833.9h2.3l5.2,20h0.1l5.6-20h2.7l5.6,20h0.1l5.2-20h2.2l-6.3,22.8h-2.3l-5.8-20.4h-0.1l-5.8,20.4
		h-2.4L1366.5,833.9z"/>
	<path fill="#959595" d="M1398.1,849c0,2.9,1.6,6.5,5.4,6.5c2.9,0,4.5-1.7,5.2-4.2h2c-0.9,3.7-3,5.9-7.2,5.9c-5.2,0-7.5-4-7.5-8.7
		c0-4.4,2.2-8.7,7.5-8.7c5.3,0,7.4,4.6,7.3,9.3H1398.1z M1408.8,847.3c-0.1-3-2-5.9-5.2-5.9c-3.3,0-5.1,2.9-5.4,5.9H1408.8z"/>
	<path fill="#959595" d="M1422.4,833.9h2v14.3l9.2-8h2.7l-7,6.1l7.5,10.4h-2.5l-6.5-9l-3.3,2.7v6.3h-2V833.9z"/>
	<path fill="#959595" d="M1438.4,840.2h2v2.8h0.1c0.7-2,2.9-3.3,5.3-3.3c4.6,0,6,2.4,6,6.4v10.6h-2v-10.3c0-2.8-0.9-5-4.2-5
		c-3.2,0-5.1,2.4-5.2,5.7v9.6h-2V840.2z"/>
	<path fill="#959595" d="M1470.4,848.5c0,4.7-2.8,8.7-7.8,8.7s-7.8-4-7.8-8.7c0-4.7,2.8-8.7,7.8-8.7S1470.4,843.7,1470.4,848.5z
		 M1456.8,848.5c0,3.5,1.9,7,5.8,7c3.9,0,5.8-3.5,5.8-7c0-3.5-1.9-7-5.8-7C1458.7,841.4,1456.8,845,1456.8,848.5z"/>
	<path fill="#959595" d="M1471.7,840.2h2.1l4.2,14.1h0.1l4-14.1h2.3l4,14.1h0.1l4.2-14.1h2.1l-5.3,16.5h-2.2l-4.1-13.9h-0.1l-4,13.9
		h-2.2L1471.7,840.2z"/>
	<path fill="#959595" d="M1055.8,888.2h3.4v1.7h-3.4V901c0,1.3,0.2,2.1,1.6,2.2c0.6,0,1.2,0,1.7-0.1v1.7c-0.6,0-1.2,0.1-1.8,0.1
		c-2.7,0-3.6-0.9-3.6-3.7v-11.3h-2.9v-1.7h2.9v-5h2V888.2z"/>
	<path fill="#959595" d="M1062,881.9h2v9.2h0.1c0.7-2,2.9-3.3,5.3-3.3c4.6,0,6,2.4,6,6.4v10.6h-2v-10.3c0-2.8-0.9-5-4.2-5
		c-3.2,0-5.1,2.4-5.2,5.7v9.6h-2V881.9z"/>
	<path fill="#959595" d="M1079,893.3c0.2-3.9,2.9-5.5,6.7-5.5c2.9,0,6.1,0.9,6.1,5.3v8.8c0,0.8,0.4,1.2,1.2,1.2
		c0.2,0,0.5-0.1,0.6-0.1v1.7c-0.4,0.1-0.8,0.1-1.3,0.1c-2,0-2.4-1.2-2.4-2.9h-0.1c-1.4,2.1-2.8,3.4-6,3.4c-3,0-5.5-1.5-5.5-4.8
		c0-4.6,4.5-4.8,8.9-5.3c1.7-0.2,2.6-0.4,2.6-2.2c0-2.7-2-3.4-4.3-3.4c-2.5,0-4.4,1.2-4.4,3.8H1079z M1089.8,895.7L1089.8,895.7
		c-0.3,0.5-1.2,0.6-1.8,0.7c-3.4,0.6-7.7,0.6-7.7,3.8c0,2,1.8,3.3,3.7,3.3c3.1,0,5.8-2,5.8-5.2V895.7z"/>
	<path fill="#959595" d="M1099,888.2h3.4v1.7h-3.4V901c0,1.3,0.2,2.1,1.6,2.2c0.6,0,1.2,0,1.7-0.1v1.7c-0.6,0-1.2,0.1-1.8,0.1
		c-2.7,0-3.6-0.9-3.6-3.7v-11.3h-2.9v-1.7h2.9v-5h2V888.2z"/>
	<path fill="#959595" d="M1117.4,888.2h3.4v1.7h-3.4V901c0,1.3,0.2,2.1,1.6,2.2c0.6,0,1.2,0,1.7-0.1v1.7c-0.6,0-1.2,0.1-1.8,0.1
		c-2.7,0-3.6-0.9-3.6-3.7v-11.3h-2.9v-1.7h2.9v-5h2V888.2z"/>
	<path fill="#959595" d="M1123.7,888.2h1.9v3.9h0.1c1-2.7,3.3-4.2,6.2-4.1v2c-3.6-0.2-6.1,2.5-6.1,5.9v8.8h-2V888.2z"/>
	<path fill="#959595" d="M1133.5,893.3c0.2-3.9,2.9-5.5,6.7-5.5c2.9,0,6.1,0.9,6.1,5.3v8.8c0,0.8,0.4,1.2,1.2,1.2
		c0.2,0,0.5-0.1,0.6-0.1v1.7c-0.4,0.1-0.8,0.1-1.3,0.1c-2,0-2.4-1.2-2.4-2.9h-0.1c-1.4,2.1-2.8,3.4-6,3.4c-3,0-5.5-1.5-5.5-4.8
		c0-4.6,4.5-4.8,8.9-5.3c1.7-0.2,2.6-0.4,2.6-2.2c0-2.7-2-3.4-4.3-3.4c-2.5,0-4.4,1.2-4.4,3.8H1133.5z M1144.3,895.7L1144.3,895.7
		c-0.3,0.5-1.2,0.6-1.8,0.7c-3.4,0.6-7.7,0.6-7.7,3.8c0,2,1.8,3.3,3.7,3.3c3.1,0,5.8-2,5.8-5.2V895.7z"/>
	<path fill="#959595" d="M1164.9,904.7h-1.9v-3.1h-0.1c-0.9,2.1-3.5,3.6-5.9,3.6c-5,0-7.4-4.1-7.4-8.7c0-4.7,2.4-8.7,7.4-8.7
		c2.5,0,4.9,1.2,5.7,3.6h0.1v-9.5h2V904.7z M1157.1,903.5c4.3,0,5.8-3.6,5.8-7c0-3.4-1.5-7-5.8-7c-3.8,0-5.4,3.6-5.4,7
		C1151.7,899.9,1153.2,903.5,1157.1,903.5z"/>
	<path fill="#959595" d="M1168.7,881.9h2v3.2h-2V881.9z M1168.7,888.2h2v16.5h-2V888.2z"/>
	<path fill="#959595" d="M1174.6,888.2h2v2.8h0.1c0.7-2,2.9-3.3,5.3-3.3c4.6,0,6,2.4,6,6.4v10.6h-2v-10.3c0-2.8-0.9-5-4.2-5
		c-3.2,0-5.1,2.4-5.2,5.7v9.6h-2V888.2z"/>
	<path fill="#959595" d="M1205.8,903.4c0,4.9-1.9,7.9-7.3,7.9c-3.3,0-6.6-1.5-6.8-5h2c0.4,2.4,2.6,3.3,4.8,3.3
		c3.7,0,5.3-2.2,5.3-6.2v-2.2h-0.1c-0.9,2-2.9,3.4-5.2,3.4c-5.3,0-7.5-3.8-7.5-8.5c0-4.5,2.7-8.3,7.5-8.3c2.4,0,4.4,1.5,5.2,3.3h0.1
		v-2.8h2V903.4z M1203.7,896.3c0-3.2-1.5-6.8-5.3-6.8c-3.8,0-5.4,3.4-5.4,6.8c0,3.3,1.7,6.6,5.4,6.6
		C1201.9,902.8,1203.7,899.6,1203.7,896.3z"/>
	<path fill="#959595" d="M1230.1,893.4c-0.5-2.5-2-4-4.7-4c-3.9,0-5.8,3.5-5.8,7c0,3.5,1.9,7,5.8,7c2.5,0,4.5-2,4.8-4.7h2
		c-0.5,4-3.1,6.4-6.8,6.4c-5.1,0-7.8-4-7.8-8.7c0-4.7,2.8-8.7,7.8-8.7c3.5,0,6.2,1.9,6.7,5.7H1230.1z"/>
	<path fill="#959595" d="M1234.9,893.3c0.2-3.9,2.9-5.5,6.7-5.5c2.9,0,6.1,0.9,6.1,5.3v8.8c0,0.8,0.4,1.2,1.2,1.2
		c0.2,0,0.5-0.1,0.6-0.1v1.7c-0.4,0.1-0.8,0.1-1.3,0.1c-2,0-2.4-1.2-2.4-2.9h-0.1c-1.4,2.1-2.8,3.4-6,3.4c-3,0-5.5-1.5-5.5-4.8
		c0-4.6,4.5-4.8,8.9-5.3c1.7-0.2,2.6-0.4,2.6-2.2c0-2.7-2-3.4-4.3-3.4c-2.5,0-4.4,1.2-4.4,3.8H1234.9z M1245.7,895.7L1245.7,895.7
		c-0.3,0.5-1.2,0.6-1.8,0.7c-3.4,0.6-7.7,0.6-7.7,3.8c0,2,1.8,3.3,3.7,3.3c3.1,0,5.8-2,5.8-5.2V895.7z"/>
	<path fill="#959595" d="M1251.7,888.2h2v2.8h0.1c0.7-2,2.9-3.3,5.3-3.3c4.6,0,6,2.4,6,6.4v10.6h-2v-10.3c0-2.8-0.9-5-4.2-5
		c-3.2,0-5.1,2.4-5.2,5.7v9.6h-2V888.2z"/>
	<path fill="#959595" d="M1277.8,881.9h2v9.5h0.1c0.9-2.4,3.3-3.6,5.7-3.6c5,0,7.4,4.1,7.4,8.7c0,4.7-2.4,8.7-7.4,8.7
		c-2.7,0-5-1.4-5.9-3.6h-0.1v3.1h-1.9V881.9z M1285.6,889.4c-4.3,0-5.8,3.6-5.8,7c0,3.4,1.5,7,5.8,7c3.8,0,5.4-3.6,5.4-7
		C1291,893,1289.4,889.4,1285.6,889.4z"/>
	<path fill="#959595" d="M1297.3,897c0,2.9,1.6,6.5,5.4,6.5c2.9,0,4.5-1.7,5.2-4.2h2c-0.9,3.7-3,5.9-7.2,5.9c-5.2,0-7.5-4-7.5-8.7
		c0-4.4,2.2-8.7,7.5-8.7c5.3,0,7.4,4.6,7.3,9.3H1297.3z M1308,895.3c-0.1-3-2-5.9-5.2-5.9c-3.3,0-5.1,2.9-5.4,5.9H1308z"/>
	<path fill="#959595" d="M1321.5,893.3c0.2-3.9,2.9-5.5,6.7-5.5c2.9,0,6.1,0.9,6.1,5.3v8.8c0,0.8,0.4,1.2,1.2,1.2
		c0.2,0,0.5-0.1,0.6-0.1v1.7c-0.4,0.1-0.8,0.1-1.3,0.1c-2,0-2.4-1.2-2.4-2.9h-0.1c-1.4,2.1-2.8,3.4-6,3.4c-3,0-5.5-1.5-5.5-4.8
		c0-4.6,4.5-4.8,8.9-5.3c1.7-0.2,2.6-0.4,2.6-2.2c0-2.7-2-3.4-4.3-3.4c-2.5,0-4.4,1.2-4.4,3.8H1321.5z M1332.2,895.7L1332.2,895.7
		c-0.3,0.5-1.2,0.6-1.8,0.7c-3.4,0.6-7.7,0.6-7.7,3.8c0,2,1.8,3.3,3.7,3.3c3.1,0,5.8-2,5.8-5.2V895.7z"/>
	<path fill="#959595" d="M1347.2,881.9h2v9.5h0.1c0.9-2.4,3.3-3.6,5.7-3.6c5,0,7.4,4.1,7.4,8.7c0,4.7-2.4,8.7-7.4,8.7
		c-2.7,0-5-1.4-5.9-3.6h-0.1v3.1h-1.9V881.9z M1355,889.4c-4.3,0-5.8,3.6-5.8,7c0,3.4,1.5,7,5.8,7c3.8,0,5.4-3.6,5.4-7
		C1360.4,893,1358.8,889.4,1355,889.4z"/>
	<path fill="#959595" d="M1365.3,893.3c0.2-3.9,2.9-5.5,6.7-5.5c2.9,0,6.1,0.9,6.1,5.3v8.8c0,0.8,0.4,1.2,1.2,1.2
		c0.2,0,0.5-0.1,0.6-0.1v1.7c-0.4,0.1-0.8,0.1-1.3,0.1c-2,0-2.4-1.2-2.4-2.9h-0.1c-1.4,2.1-2.8,3.4-6,3.4c-3,0-5.5-1.5-5.5-4.8
		c0-4.6,4.5-4.8,8.9-5.3c1.7-0.2,2.6-0.4,2.6-2.2c0-2.7-2-3.4-4.3-3.4c-2.5,0-4.4,1.2-4.4,3.8H1365.3z M1376.1,895.7L1376.1,895.7
		c-0.3,0.5-1.2,0.6-1.8,0.7c-3.4,0.6-7.7,0.6-7.7,3.8c0,2,1.8,3.3,3.7,3.3c3.1,0,5.8-2,5.8-5.2V895.7z"/>
	<path fill="#959595" d="M1382.2,881.9h2v22.8h-2V881.9z"/>
	<path fill="#959595" d="M1387.9,893.3c0.2-3.9,2.9-5.5,6.7-5.5c2.9,0,6.1,0.9,6.1,5.3v8.8c0,0.8,0.4,1.2,1.2,1.2
		c0.2,0,0.5-0.1,0.6-0.1v1.7c-0.4,0.1-0.8,0.1-1.3,0.1c-2,0-2.4-1.2-2.4-2.9h-0.1c-1.4,2.1-2.8,3.4-6,3.4c-3,0-5.5-1.5-5.5-4.8
		c0-4.6,4.5-4.8,8.9-5.3c1.7-0.2,2.6-0.4,2.6-2.2c0-2.7-2-3.4-4.3-3.4c-2.5,0-4.4,1.2-4.4,3.8H1387.9z M1398.6,895.7L1398.6,895.7
		c-0.3,0.5-1.2,0.6-1.8,0.7c-3.4,0.6-7.7,0.6-7.7,3.8c0,2,1.8,3.3,3.7,3.3c3.1,0,5.8-2,5.8-5.2V895.7z"/>
	<path fill="#959595" d="M1404.6,888.2h2v2.8h0.1c0.7-2,2.9-3.3,5.3-3.3c4.6,0,6,2.4,6,6.4v10.6h-2v-10.3c0-2.8-0.9-5-4.2-5
		c-3.2,0-5.1,2.4-5.2,5.7v9.6h-2V888.2z"/>
	<path fill="#959595" d="M1433.5,893.4c-0.5-2.5-2-4-4.7-4c-3.9,0-5.8,3.5-5.8,7c0,3.5,1.9,7,5.8,7c2.5,0,4.5-2,4.8-4.7h2
		c-0.5,4-3.1,6.4-6.8,6.4c-5.1,0-7.8-4-7.8-8.7c0-4.7,2.8-8.7,7.8-8.7c3.5,0,6.2,1.9,6.7,5.7H1433.5z"/>
	<path fill="#959595" d="M1438.5,881.9h2v3.2h-2V881.9z M1438.5,888.2h2v16.5h-2V888.2z"/>
	<path fill="#959595" d="M1444.4,888.2h2v2.8h0.1c0.7-2,2.9-3.3,5.3-3.3c4.6,0,6,2.4,6,6.4v10.6h-2v-10.3c0-2.8-0.9-5-4.2-5
		c-3.2,0-5.1,2.4-5.2,5.7v9.6h-2V888.2z"/>
	<path fill="#959595" d="M1475.5,903.4c0,4.9-1.9,7.9-7.3,7.9c-3.3,0-6.6-1.5-6.8-5h2c0.4,2.4,2.6,3.3,4.8,3.3
		c3.7,0,5.3-2.2,5.3-6.2v-2.2h-0.1c-0.9,2-2.9,3.4-5.2,3.4c-5.3,0-7.5-3.8-7.5-8.5c0-4.5,2.7-8.3,7.5-8.3c2.4,0,4.4,1.5,5.2,3.3h0.1
		v-2.8h2V903.4z M1473.5,896.3c0-3.2-1.5-6.8-5.3-6.8c-3.8,0-5.4,3.4-5.4,6.8c0,3.3,1.7,6.6,5.4,6.6
		C1471.7,902.8,1473.5,899.6,1473.5,896.3z"/>
	<path fill="#959595" d="M1052.4,941.3c0.2-3.9,2.9-5.5,6.7-5.5c2.9,0,6.1,0.9,6.1,5.3v8.8c0,0.8,0.4,1.2,1.2,1.2
		c0.2,0,0.5-0.1,0.6-0.1v1.7c-0.4,0.1-0.8,0.1-1.3,0.1c-2,0-2.4-1.2-2.4-2.9h-0.1c-1.4,2.1-2.8,3.4-6,3.4c-3,0-5.5-1.5-5.5-4.8
		c0-4.6,4.5-4.8,8.9-5.3c1.7-0.2,2.6-0.4,2.6-2.2c0-2.7-2-3.4-4.3-3.4c-2.5,0-4.4,1.2-4.4,3.8H1052.4z M1063.1,943.7L1063.1,943.7
		c-0.3,0.5-1.2,0.6-1.8,0.7c-3.4,0.6-7.7,0.6-7.7,3.8c0,2,1.8,3.3,3.7,3.3c3.1,0,5.8-2,5.8-5.2V943.7z"/>
	<path fill="#959595" d="M1080.8,941.4c-0.5-2.5-2-4-4.7-4c-3.9,0-5.8,3.5-5.8,7c0,3.5,1.9,7,5.8,7c2.5,0,4.5-2,4.8-4.7h2
		c-0.5,4-3.1,6.4-6.8,6.4c-5.1,0-7.8-4-7.8-8.7c0-4.7,2.8-8.7,7.8-8.7c3.5,0,6.2,1.9,6.7,5.7H1080.8z"/>
	<path fill="#959595" d="M1089,936.2h3.4v1.7h-3.4V949c0,1.3,0.2,2.1,1.6,2.2c0.6,0,1.2,0,1.7-0.1v1.7c-0.6,0-1.2,0.1-1.8,0.1
		c-2.7,0-3.6-0.9-3.6-3.7v-11.3h-2.9v-1.7h2.9v-5h2V936.2z"/>
	<path fill="#959595" d="M1104.1,929.9h2v9.5h0.1c0.9-2.4,3.3-3.6,5.7-3.6c5,0,7.4,4.1,7.4,8.7c0,4.7-2.4,8.7-7.4,8.7
		c-2.7,0-5-1.4-5.9-3.6h-0.1v3.1h-1.9V929.9z M1111.9,937.4c-4.3,0-5.8,3.6-5.8,7c0,3.4,1.5,7,5.8,7c3.8,0,5.4-3.6,5.4-7
		C1117.4,941,1115.8,937.4,1111.9,937.4z"/>
	<path fill="#959595" d="M1123.7,945c0,2.9,1.6,6.5,5.4,6.5c2.9,0,4.5-1.7,5.2-4.2h2c-0.9,3.7-3,5.9-7.2,5.9c-5.2,0-7.5-4-7.5-8.7
		c0-4.4,2.2-8.7,7.5-8.7c5.3,0,7.4,4.6,7.3,9.3H1123.7z M1134.4,943.3c-0.1-3-2-5.9-5.2-5.9c-3.3,0-5.1,2.9-5.4,5.9H1134.4z"/>
	<path fill="#959595" d="M1142.3,936.2h3.4v1.7h-3.4V949c0,1.3,0.2,2.1,1.6,2.2c0.6,0,1.2,0,1.7-0.1v1.7c-0.6,0-1.2,0.1-1.8,0.1
		c-2.7,0-3.6-0.9-3.6-3.7v-11.3h-2.9v-1.7h2.9v-5h2V936.2z"/>
	<path fill="#959595" d="M1146.9,936.2h2.1l4.2,14.1h0.1l4-14.1h2.3l4,14.1h0.1l4.2-14.1h2.1l-5.3,16.5h-2.2l-4.1-13.9h-0.1l-4,13.9
		h-2.2L1146.9,936.2z"/>
	<path fill="#959595" d="M1173.5,945c0,2.9,1.6,6.5,5.4,6.5c2.9,0,4.5-1.7,5.2-4.2h2c-0.9,3.7-3,5.9-7.2,5.9c-5.2,0-7.5-4-7.5-8.7
		c0-4.4,2.2-8.7,7.5-8.7c5.3,0,7.4,4.6,7.3,9.3H1173.5z M1184.2,943.3c-0.1-3-2-5.9-5.2-5.9c-3.3,0-5.1,2.9-5.4,5.9H1184.2z"/>
	<path fill="#959595" d="M1190.1,945c0,2.9,1.6,6.5,5.4,6.5c2.9,0,4.5-1.7,5.2-4.2h2c-0.9,3.7-3,5.9-7.2,5.9c-5.2,0-7.5-4-7.5-8.7
		c0-4.4,2.2-8.7,7.5-8.7c5.3,0,7.4,4.6,7.3,9.3H1190.1z M1200.8,943.3c-0.1-3-2-5.9-5.2-5.9c-3.3,0-5.1,2.9-5.4,5.9H1200.8z"/>
	<path fill="#959595" d="M1205.5,936.2h2v2.8h0.1c0.7-2,2.9-3.3,5.3-3.3c4.6,0,6,2.4,6,6.4v10.6h-2v-10.3c0-2.8-0.9-5-4.2-5
		c-3.2,0-5.1,2.4-5.2,5.7v9.6h-2V936.2z"/>
	<path fill="#959595" d="M1243.2,941.4c-0.5-2.5-2-4-4.7-4c-3.9,0-5.8,3.5-5.8,7c0,3.5,1.9,7,5.8,7c2.5,0,4.5-2,4.8-4.7h2
		c-0.5,4-3.1,6.4-6.8,6.4c-5.1,0-7.8-4-7.8-8.7c0-4.7,2.8-8.7,7.8-8.7c3.5,0,6.2,1.9,6.7,5.7H1243.2z"/>
	<path fill="#959595" d="M1263,944.5c0,4.7-2.8,8.7-7.8,8.7s-7.8-4-7.8-8.7c0-4.7,2.8-8.7,7.8-8.7S1263,939.7,1263,944.5z
		 M1249.4,944.5c0,3.5,1.9,7,5.8,7c3.9,0,5.8-3.5,5.8-7c0-3.5-1.9-7-5.8-7C1251.3,937.4,1249.4,941,1249.4,944.5z"/>
	<path fill="#959595" d="M1266,936.2h1.9v2.8h0.1c1.1-2,2.8-3.3,5.4-3.3c2.2,0,4.1,1.1,4.7,3.2c1-2.2,3.1-3.2,5.2-3.2
		c3.6,0,5.5,1.9,5.5,5.8v11.2h-2v-11.1c0-2.7-1-4.2-3.9-4.2c-3.5,0-4.5,2.9-4.5,6v9.3h-2v-11.2c0-2.2-0.9-4.1-3.5-4.1
		c-3.5,0-4.9,2.6-4.9,6.1v9.2h-2V936.2z"/>
	<path fill="#959595" d="M1292.6,936.2h1.9v3.1h0.1c0.9-2.2,3.2-3.6,5.9-3.6c5,0,7.4,4.1,7.4,8.7c0,4.7-2.4,8.7-7.4,8.7
		c-2.5,0-4.9-1.2-5.7-3.6h-0.1v9.2h-2V936.2z M1300.5,937.4c-4.4,0-5.8,3.3-5.8,7c0,3.4,1.5,7,5.8,7c3.8,0,5.4-3.6,5.4-7
		C1305.9,941,1304.3,937.4,1300.5,937.4z"/>
	<path fill="#959595" d="M1311,929.9h2v22.8h-2V929.9z"/>
	<path fill="#959595" d="M1318.1,945c0,2.9,1.6,6.5,5.4,6.5c2.9,0,4.5-1.7,5.2-4.2h2c-0.9,3.7-3,5.9-7.2,5.9c-5.2,0-7.5-4-7.5-8.7
		c0-4.4,2.2-8.7,7.5-8.7c5.3,0,7.4,4.6,7.3,9.3H1318.1z M1328.8,943.3c-0.1-3-2-5.9-5.2-5.9c-3.3,0-5.1,2.9-5.4,5.9H1328.8z"/>
	<path fill="#959595" d="M1338.1,944.2l-5.9-7.9h2.5l4.7,6.3l4.6-6.3h2.5l-6,7.9l6.4,8.6h-2.6l-5.2-6.9l-5.1,6.9h-2.5L1338.1,944.2z
		"/>
	<path fill="#959595" d="M1349,929.9h2v3.2h-2V929.9z M1349,936.2h2v16.5h-2V936.2z"/>
	<path fill="#959595" d="M1358.1,936.2h3.4v1.7h-3.4V949c0,1.3,0.2,2.1,1.6,2.2c0.6,0,1.2,0,1.7-0.1v1.7c-0.6,0-1.2,0.1-1.8,0.1
		c-2.7,0-3.6-0.9-3.6-3.7v-11.3h-2.9v-1.7h2.9v-5h2V936.2z"/>
	<path fill="#959595" d="M1362.5,936.2h2.1l5.4,14.1l5.1-14.1h2l-7.2,19c-1.2,2.8-1.8,3.6-4.4,3.6c-0.8,0-1.2,0-1.5-0.2V957
		c0.5,0.1,0.9,0.2,1.4,0.2c1.8,0,2.2-1.1,2.9-2.6l0.7-1.9L1362.5,936.2z"/>
	<path fill="#959595" d="M1387.8,941.3c0.2-3.9,2.9-5.5,6.7-5.5c2.9,0,6.1,0.9,6.1,5.3v8.8c0,0.8,0.4,1.2,1.2,1.2
		c0.2,0,0.5-0.1,0.6-0.1v1.7c-0.4,0.1-0.8,0.1-1.3,0.1c-2,0-2.4-1.2-2.4-2.9h-0.1c-1.4,2.1-2.8,3.4-6,3.4c-3,0-5.5-1.5-5.5-4.8
		c0-4.6,4.5-4.8,8.9-5.3c1.7-0.2,2.6-0.4,2.6-2.2c0-2.7-2-3.4-4.3-3.4c-2.5,0-4.4,1.2-4.4,3.8H1387.8z M1398.6,943.7L1398.6,943.7
		c-0.3,0.5-1.2,0.6-1.8,0.7c-3.4,0.6-7.7,0.6-7.7,3.8c0,2,1.8,3.3,3.7,3.3c3.1,0,5.8-2,5.8-5.2V943.7z"/>
	<path fill="#959595" d="M1404.6,936.2h2v2.8h0.1c0.7-2,2.9-3.3,5.3-3.3c4.6,0,6,2.4,6,6.4v10.6h-2v-10.3c0-2.8-0.9-5-4.2-5
		c-3.2,0-5.1,2.4-5.2,5.7v9.6h-2V936.2z"/>
	<path fill="#959595" d="M1436.4,952.7h-1.9v-3.1h-0.1c-0.9,2.1-3.5,3.6-5.9,3.6c-5,0-7.4-4.1-7.4-8.7c0-4.7,2.4-8.7,7.4-8.7
		c2.5,0,4.9,1.2,5.7,3.6h0.1v-9.5h2V952.7z M1428.5,951.5c4.3,0,5.8-3.6,5.8-7c0-3.4-1.5-7-5.8-7c-3.8,0-5.4,3.6-5.4,7
		C1423.1,947.9,1424.7,951.5,1428.5,951.5z"/>
	<path fill="#959595" d="M1052.6,984.2h1.9v3.1h0.1c0.9-2.2,3.2-3.6,5.9-3.6c5,0,7.4,4.1,7.4,8.7c0,4.7-2.4,8.7-7.4,8.7
		c-2.5,0-4.9-1.2-5.7-3.6h-0.1v9.2h-2V984.2z M1060.4,985.4c-4.4,0-5.8,3.3-5.8,7c0,3.4,1.5,7,5.8,7c3.8,0,5.4-3.6,5.4-7
		C1065.8,989,1064.2,985.4,1060.4,985.4z"/>
	<path fill="#959595" d="M1070.9,984.2h1.9v3.9h0.1c1-2.7,3.3-4.2,6.2-4.1v2c-3.6-0.2-6.1,2.5-6.1,5.9v8.8h-2V984.2z"/>
	<path fill="#959595" d="M1080.8,989.3c0.2-3.9,2.9-5.5,6.7-5.5c2.9,0,6.1,0.9,6.1,5.3v8.8c0,0.8,0.4,1.2,1.2,1.2
		c0.2,0,0.5-0.1,0.6-0.1v1.7c-0.4,0.1-0.8,0.1-1.3,0.1c-2,0-2.4-1.2-2.4-2.9h-0.1c-1.4,2.1-2.8,3.4-6,3.4c-3,0-5.5-1.5-5.5-4.8
		c0-4.6,4.5-4.8,8.9-5.3c1.7-0.2,2.6-0.4,2.6-2.2c0-2.7-2-3.4-4.3-3.4c-2.5,0-4.4,1.2-4.4,3.8H1080.8z M1091.6,991.7L1091.6,991.7
		c-0.3,0.5-1.2,0.6-1.8,0.7c-3.4,0.6-7.7,0.6-7.7,3.8c0,2,1.8,3.3,3.7,3.3c3.1,0,5.8-2,5.8-5.2V991.7z"/>
	<path fill="#959595" d="M1109.3,989.4c-0.5-2.5-2-4-4.7-4c-3.9,0-5.8,3.5-5.8,7c0,3.5,1.9,7,5.8,7c2.5,0,4.5-2,4.8-4.7h2
		c-0.5,4-3.1,6.4-6.8,6.4c-5.1,0-7.8-4-7.8-8.7c0-4.7,2.8-8.7,7.8-8.7c3.5,0,6.2,1.9,6.7,5.7H1109.3z"/>
	<path fill="#959595" d="M1117.4,984.2h3.4v1.7h-3.4V997c0,1.3,0.2,2.1,1.6,2.2c0.6,0,1.2,0,1.7-0.1v1.7c-0.6,0-1.2,0.1-1.8,0.1
		c-2.7,0-3.6-0.9-3.6-3.7v-11.3h-2.9v-1.7h2.9v-5h2V984.2z"/>
	<path fill="#959595" d="M1123.7,977.9h2v3.2h-2V977.9z M1123.7,984.2h2v16.5h-2V984.2z"/>
	<path fill="#959595" d="M1141.3,989.4c-0.5-2.5-2-4-4.7-4c-3.9,0-5.8,3.5-5.8,7c0,3.5,1.9,7,5.8,7c2.5,0,4.5-2,4.8-4.7h2
		c-0.5,4-3.1,6.4-6.8,6.4c-5.1,0-7.8-4-7.8-8.7c0-4.7,2.8-8.7,7.8-8.7c3.5,0,6.2,1.9,6.7,5.7H1141.3z"/>
	<path fill="#959595" d="M1146,989.3c0.2-3.9,2.9-5.5,6.7-5.5c2.9,0,6.1,0.9,6.1,5.3v8.8c0,0.8,0.4,1.2,1.2,1.2
		c0.2,0,0.5-0.1,0.6-0.1v1.7c-0.4,0.1-0.8,0.1-1.3,0.1c-2,0-2.4-1.2-2.4-2.9h-0.1c-1.4,2.1-2.8,3.4-6,3.4c-3,0-5.5-1.5-5.5-4.8
		c0-4.6,4.5-4.8,8.9-5.3c1.7-0.2,2.6-0.4,2.6-2.2c0-2.7-2-3.4-4.3-3.4c-2.5,0-4.4,1.2-4.4,3.8H1146z M1156.8,991.7L1156.8,991.7
		c-0.3,0.5-1.2,0.6-1.8,0.7c-3.4,0.6-7.7,0.6-7.7,3.8c0,2,1.8,3.3,3.7,3.3c3.1,0,5.8-2,5.8-5.2V991.7z"/>
	<path fill="#959595" d="M1162.9,977.9h2v22.8h-2V977.9z"/>
	<path fill="#959595" d="M1168.8,977.9h2v3.2h-2V977.9z M1168.8,984.2h2v16.5h-2V984.2z"/>
	<path fill="#959595" d="M1177.9,984.2h3.4v1.7h-3.4V997c0,1.3,0.2,2.1,1.6,2.2c0.6,0,1.2,0,1.7-0.1v1.7c-0.6,0-1.2,0.1-1.8,0.1
		c-2.7,0-3.6-0.9-3.6-3.7v-11.3h-2.9v-1.7h2.9v-5h2V984.2z"/>
	<path fill="#959595" d="M1182.3,984.2h2.1l5.4,14.1l5.1-14.1h2l-7.2,19c-1.2,2.8-1.8,3.6-4.4,3.6c-0.8,0-1.2,0-1.5-0.2v-1.7
		c0.5,0.1,0.9,0.2,1.4,0.2c1.8,0,2.2-1.1,2.9-2.6l0.7-1.9L1182.3,984.2z"/>
	<path fill="#959595" d="M1197.2,1000.7v-3.4h2.7v3.4H1197.2z"/>
	<path fill="#959595" d="M1211.7,977.9h18.1v1.9h-8v21h-2.2v-21h-8V977.9z"/>
	<path fill="#959595" d="M1231.6,977.9h2v9.2h0.1c0.7-2,2.9-3.3,5.3-3.3c4.6,0,6,2.4,6,6.4v10.6h-2v-10.3c0-2.8-0.9-5-4.2-5
		c-3.2,0-5.1,2.4-5.2,5.7v9.6h-2V977.9z"/>
	<path fill="#959595" d="M1248.6,989.3c0.2-3.9,2.9-5.5,6.7-5.5c2.9,0,6.1,0.9,6.1,5.3v8.8c0,0.8,0.4,1.2,1.2,1.2
		c0.2,0,0.5-0.1,0.6-0.1v1.7c-0.4,0.1-0.8,0.1-1.3,0.1c-2,0-2.4-1.2-2.4-2.9h-0.1c-1.4,2.1-2.8,3.4-6,3.4c-3,0-5.5-1.5-5.5-4.8
		c0-4.6,4.5-4.8,8.9-5.3c1.7-0.2,2.6-0.4,2.6-2.2c0-2.7-2-3.4-4.3-3.4c-2.5,0-4.4,1.2-4.4,3.8H1248.6z M1259.3,991.7L1259.3,991.7
		c-0.3,0.5-1.2,0.6-1.8,0.7c-3.4,0.6-7.7,0.6-7.7,3.8c0,2,1.8,3.3,3.7,3.3c3.1,0,5.8-2,5.8-5.2V991.7z"/>
	<path fill="#959595" d="M1268.6,984.2h3.4v1.7h-3.4V997c0,1.3,0.2,2.1,1.6,2.2c0.6,0,1.2,0,1.7-0.1v1.7c-0.6,0-1.2,0.1-1.8,0.1
		c-2.7,0-3.6-0.9-3.6-3.7v-11.3h-2.9v-1.7h2.9v-5h2V984.2z"/>
	<path fill="#959595" d="M1278.8,977.9v3.4c0,1.9-0.9,3.8-2.8,4.4v-1.4c1.1-0.4,1.6-2,1.5-3h-1.3v-3.4H1278.8z"/>
	<path fill="#959595" d="M1290.1,989c-0.1-2.5-2-3.6-4.3-3.6c-1.8,0-3.9,0.7-3.9,2.8c0,1.8,2,2.4,3.4,2.8l2.7,0.6
		c2.3,0.4,4.7,1.7,4.7,4.6c0,3.6-3.6,5-6.6,5c-3.8,0-6.5-1.8-6.8-5.8h2c0.2,2.7,2.2,4.1,4.9,4.1c1.9,0,4.5-0.8,4.5-3.1
		c0-1.9-1.8-2.6-3.6-3l-2.6-0.6c-2.6-0.7-4.6-1.6-4.6-4.4c0-3.4,3.3-4.6,6.2-4.6c3.3,0,5.9,1.7,6,5.3H1290.1z"/>
	<path fill="#959595" d="M1302.8,984.2h2.1l4.2,14.1h0.1l4-14.1h2.3l4,14.1h0.1l4.2-14.1h2.1l-5.3,16.5h-2.2l-4.1-13.9h-0.1l-4,13.9
		h-2.2L1302.8,984.2z"/>
	<path fill="#959595" d="M1328.2,977.9h2v9.2h0.1c0.7-2,2.9-3.3,5.3-3.3c4.6,0,6,2.4,6,6.4v10.6h-2v-10.3c0-2.8-0.9-5-4.2-5
		c-3.2,0-5.1,2.4-5.2,5.7v9.6h-2V977.9z"/>
	<path fill="#959595" d="M1343.5,984.2h2.1l5.4,14.1l5.1-14.1h2l-7.2,19c-1.2,2.8-1.8,3.6-4.4,3.6c-0.8,0-1.2,0-1.5-0.2v-1.7
		c0.5,0.1,0.9,0.2,1.4,0.2c1.8,0,2.2-1.1,2.9-2.6l0.7-1.9L1343.5,984.2z"/>
	<path fill="#959595" d="M1361.1,997.3v3.4c0,1.9-0.9,3.8-2.8,4.4v-1.4c1.1-0.4,1.5-2,1.5-3h-1.3v-3.4H1361.1z"/>
	<path fill="#959595" d="M1373.4,984.2h2.1l4.2,14.1h0.1l4-14.1h2.3l4,14.1h0.1l4.2-14.1h2.1l-5.3,16.5h-2.2l-4.1-13.9h-0.1l-4,13.9
		h-2.2L1373.4,984.2z"/>
	<path fill="#959595" d="M1399.9,993c0,2.9,1.6,6.5,5.4,6.5c2.9,0,4.5-1.7,5.2-4.2h2c-0.9,3.7-3,5.9-7.2,5.9c-5.2,0-7.5-4-7.5-8.7
		c0-4.4,2.2-8.7,7.5-8.7c5.3,0,7.4,4.6,7.3,9.3H1399.9z M1410.6,991.3c-0.1-3-2-5.9-5.2-5.9c-3.3,0-5.1,2.9-5.4,5.9H1410.6z"/>
	<path fill="#959595" d="M1064.2,1037.4c-0.5-2.5-2-4-4.7-4c-3.9,0-5.8,3.5-5.8,7c0,3.5,1.9,7,5.8,7c2.5,0,4.5-2,4.8-4.7h2
		c-0.5,4-3.1,6.4-6.8,6.4c-5.1,0-7.8-4-7.8-8.7c0-4.7,2.8-8.7,7.8-8.7c3.5,0,6.2,1.9,6.7,5.7H1064.2z"/>
	<path fill="#959595" d="M1083.9,1040.5c0,4.7-2.8,8.7-7.8,8.7s-7.8-4-7.8-8.7c0-4.7,2.8-8.7,7.8-8.7S1083.9,1035.7,1083.9,1040.5z
		 M1070.3,1040.5c0,3.5,1.9,7,5.8,7c3.9,0,5.8-3.5,5.8-7c0-3.5-1.9-7-5.8-7C1072.3,1033.4,1070.3,1037,1070.3,1040.5z"/>
	<path fill="#959595" d="M1087,1032.2h1.9v2.8h0.1c1.1-2,2.8-3.3,5.4-3.3c2.2,0,4.1,1.1,4.7,3.2c1-2.2,3.1-3.2,5.2-3.2
		c3.6,0,5.5,1.9,5.5,5.8v11.2h-2v-11.1c0-2.7-1-4.2-3.9-4.2c-3.5,0-4.5,2.9-4.5,6v9.3h-2v-11.2c0-2.2-0.9-4.1-3.5-4.1
		c-3.5,0-4.9,2.6-4.9,6.1v9.2h-2V1032.2z"/>
	<path fill="#959595" d="M1113.6,1032.2h1.9v3.1h0.1c0.9-2.2,3.2-3.6,5.9-3.6c5,0,7.4,4.1,7.4,8.7c0,4.7-2.4,8.7-7.4,8.7
		c-2.5,0-4.9-1.2-5.7-3.6h-0.1v9.2h-2V1032.2z M1121.4,1033.4c-4.4,0-5.8,3.3-5.8,7c0,3.4,1.5,7,5.8,7c3.8,0,5.4-3.6,5.4-7
		C1126.8,1037,1125.3,1033.4,1121.4,1033.4z"/>
	<path fill="#959595" d="M1145.4,1048.7h-1.9v-3h-0.1c-1.1,2.2-3.2,3.5-5.7,3.5c-4.2,0-5.8-2.4-5.8-6.3v-10.7h2v10.8
		c0.1,3,1.2,4.5,4.4,4.5c3.5,0,5-3.3,5-6.6v-8.7h2V1048.7z"/>
	<path fill="#959595" d="M1152.4,1032.2h3.4v1.7h-3.4v11.1c0,1.3,0.2,2.1,1.6,2.2c0.6,0,1.2,0,1.7-0.1v1.7c-0.6,0-1.2,0.1-1.8,0.1
		c-2.7,0-3.6-0.9-3.6-3.7v-11.3h-2.9v-1.7h2.9v-5h2V1032.2z"/>
	<path fill="#959595" d="M1159.8,1041c0,2.9,1.6,6.5,5.4,6.5c2.9,0,4.5-1.7,5.2-4.2h2c-0.9,3.7-3,5.9-7.2,5.9c-5.2,0-7.5-4-7.5-8.7
		c0-4.4,2.2-8.7,7.5-8.7c5.3,0,7.4,4.6,7.3,9.3H1159.8z M1170.5,1039.3c-0.1-3-2-5.9-5.2-5.9c-3.3,0-5.1,2.9-5.4,5.9H1170.5z"/>
	<path fill="#959595" d="M1187.3,1032.2h3.4v1.7h-3.4v11.1c0,1.3,0.2,2.1,1.6,2.2c0.6,0,1.2,0,1.7-0.1v1.7c-0.6,0-1.2,0.1-1.8,0.1
		c-2.7,0-3.6-0.9-3.6-3.7v-11.3h-2.9v-1.7h2.9v-5h2V1032.2z"/>
	<path fill="#959595" d="M1193.6,1025.9h2v9.2h0.1c0.7-2,2.9-3.3,5.3-3.3c4.6,0,6,2.4,6,6.4v10.6h-2v-10.3c0-2.8-0.9-5-4.2-5
		c-3.2,0-5.1,2.4-5.2,5.7v9.6h-2V1025.9z"/>
	<path fill="#959595" d="M1212,1041c0,2.9,1.6,6.5,5.4,6.5c2.9,0,4.5-1.7,5.2-4.2h2c-0.9,3.7-3,5.9-7.2,5.9c-5.2,0-7.5-4-7.5-8.7
		c0-4.4,2.2-8.7,7.5-8.7c5.3,0,7.4,4.6,7.3,9.3H1212z M1222.7,1039.3c-0.1-3-2-5.9-5.2-5.9c-3.3,0-5.1,2.9-5.4,5.9H1222.7z"/>
	<path fill="#959595" d="M1236.7,1025.9h9.7c3.8,0,7.3,1.3,7.3,5.6c0,2.4-1.6,4.6-4,5.1v0.1c2.9,0.4,4.8,2.6,4.8,5.6
		c0,2.2-0.8,6.5-8.2,6.5h-9.7V1025.9z M1238.9,1035.9h7.5c3.5,0,5.2-1.7,5.2-3.9c0-2.8-1.8-4.3-5.2-4.3h-7.5V1035.9z M1238.9,1046.9
		h7.5c3.2,0,6-1.1,6-4.7c0-2.9-2.2-4.4-6-4.4h-7.5V1046.9z"/>
	<path fill="#959595" d="M1274.7,1032.8c-0.8-3.5-3.7-5.5-7-5.5c-6,0-8.6,5.1-8.6,10c0,5,2.6,10,8.6,10c4.2,0,6.9-3.3,7.3-7.3h2.2
		c-0.6,5.6-4.2,9.2-9.5,9.2c-7.2,0-10.8-5.7-10.8-11.9c0-6.2,3.6-11.9,10.8-11.9c4.3,0,8.6,2.6,9.2,7.4H1274.7z"/>
	<path fill="#959595" d="M1280.6,1025.9h10.5c3.8,0,6.9,1.8,6.9,6c0,2.9-1.5,5.2-4.4,5.8v0.1c3,0.4,3.8,2.4,4,5.2
		c0.1,1.6,0.1,4.7,1.1,5.9h-2.4c-0.5-0.9-0.5-2.6-0.6-3.6c-0.2-3.2-0.4-6.8-4.6-6.6h-8.3v10.1h-2.2V1025.9z M1282.7,1036.7h8.1
		c2.7,0,4.9-1.7,4.9-4.4c0-2.8-1.7-4.5-4.9-4.5h-8.1V1036.7z"/>
	<path fill="#959595" d="M1302.1,1025.9h2.2v22.8h-2.2V1025.9z"/>
	<path fill="#959595" d="M1317.5,1025.9h2v3.2h-2V1025.9z M1317.5,1032.2h2v16.5h-2V1032.2z"/>
	<path fill="#959595" d="M1323.4,1032.2h2v2.8h0.1c0.7-2,2.9-3.3,5.3-3.3c4.6,0,6,2.4,6,6.4v10.6h-2v-10.3c0-2.8-0.9-5-4.2-5
		c-3.2,0-5.1,2.4-5.2,5.7v9.6h-2V1032.2z"/>
	<path fill="#959595" d="M1349.5,1032.2h1.9v3.9h0.1c1-2.7,3.3-4.2,6.2-4.1v2c-3.6-0.2-6.1,2.5-6.1,5.9v8.8h-2V1032.2z"/>
	<path fill="#959595" d="M1360.2,1041c0,2.9,1.6,6.5,5.4,6.5c2.9,0,4.5-1.7,5.2-4.2h2c-0.9,3.7-3,5.9-7.2,5.9c-5.2,0-7.5-4-7.5-8.7
		c0-4.4,2.2-8.7,7.5-8.7c5.3,0,7.4,4.6,7.3,9.3H1360.2z M1370.9,1039.3c-0.1-3-2-5.9-5.2-5.9c-3.3,0-5.1,2.9-5.4,5.9H1370.9z"/>
	<path fill="#959595" d="M1375.4,1037.3c0.2-3.9,2.9-5.5,6.7-5.5c2.9,0,6.1,0.9,6.1,5.3v8.8c0,0.8,0.4,1.2,1.2,1.2
		c0.2,0,0.5-0.1,0.6-0.1v1.7c-0.4,0.1-0.8,0.1-1.3,0.1c-2,0-2.4-1.2-2.4-2.9h-0.1c-1.4,2.1-2.8,3.4-6,3.4c-3,0-5.5-1.5-5.5-4.8
		c0-4.6,4.5-4.8,8.9-5.3c1.7-0.2,2.6-0.4,2.6-2.2c0-2.7-2-3.4-4.3-3.4c-2.5,0-4.4,1.2-4.4,3.8H1375.4z M1386.2,1039.7L1386.2,1039.7
		c-0.3,0.5-1.2,0.6-1.8,0.7c-3.4,0.6-7.7,0.6-7.7,3.8c0,2,1.8,3.3,3.7,3.3c3.1,0,5.8-2,5.8-5.2V1039.7z"/>
	<path fill="#959595" d="M1392.3,1025.9h2v22.8h-2V1025.9z"/>
	<path fill="#959595" d="M1401.3,1032.2h3.4v1.7h-3.4v11.1c0,1.3,0.2,2.1,1.6,2.2c0.6,0,1.2,0,1.7-0.1v1.7c-0.6,0-1.2,0.1-1.8,0.1
		c-2.7,0-3.6-0.9-3.6-3.7v-11.3h-2.9v-1.7h2.9v-5h2V1032.2z"/>
	<path fill="#959595" d="M1407.7,1025.9h2v3.2h-2V1025.9z M1407.7,1032.2h2v16.5h-2V1032.2z"/>
	<path fill="#959595" d="M1413.5,1032.2h1.9v2.8h0.1c1.1-2,2.8-3.3,5.4-3.3c2.2,0,4.1,1.1,4.7,3.2c1-2.2,3.1-3.2,5.2-3.2
		c3.6,0,5.5,1.9,5.5,5.8v11.2h-2v-11.1c0-2.7-1-4.2-3.9-4.2c-3.5,0-4.5,2.9-4.5,6v9.3h-2v-11.2c0-2.2-0.9-4.1-3.5-4.1
		c-3.5,0-4.9,2.6-4.9,6.1v9.2h-2V1032.2z"/>
	<path fill="#959595" d="M1441.4,1041c0,2.9,1.6,6.5,5.4,6.5c2.9,0,4.5-1.7,5.2-4.2h2c-0.9,3.7-3,5.9-7.2,5.9c-5.2,0-7.5-4-7.5-8.7
		c0-4.4,2.2-8.7,7.5-8.7c5.3,0,7.4,4.6,7.3,9.3H1441.4z M1452.1,1039.3c-0.1-3-2-5.9-5.2-5.9c-3.3,0-5.1,2.9-5.4,5.9H1452.1z"/>
	<path fill="#959595" d="M1460.7,1045.3v3.4c0,1.9-0.9,3.8-2.8,4.4v-1.4c1.1-0.4,1.5-2,1.5-3h-1.3v-3.4H1460.7z"/>
	<path fill="#959595" d="M1067.1,1096.7h-1.9v-3.1h-0.1c-0.9,2.1-3.5,3.6-5.9,3.6c-5,0-7.4-4.1-7.4-8.7c0-4.7,2.4-8.7,7.4-8.7
		c2.5,0,4.9,1.2,5.7,3.6h0.1v-9.5h2V1096.7z M1059.3,1095.5c4.3,0,5.8-3.6,5.8-7c0-3.4-1.5-7-5.8-7c-3.8,0-5.4,3.6-5.4,7
		C1053.9,1091.9,1055.4,1095.5,1059.3,1095.5z"/>
	<path fill="#959595" d="M1072.1,1089c0,2.9,1.6,6.5,5.4,6.5c2.9,0,4.5-1.7,5.2-4.2h2c-0.9,3.7-3,5.9-7.2,5.9c-5.2,0-7.5-4-7.5-8.7
		c0-4.4,2.2-8.7,7.5-8.7c5.3,0,7.4,4.6,7.3,9.3H1072.1z M1082.8,1087.3c-0.1-3-2-5.9-5.2-5.9c-3.3,0-5.1,2.9-5.4,5.9H1082.8z"/>
	<path fill="#959595" d="M1087.6,1073.9h2v22.8h-2V1073.9z"/>
	<path fill="#959595" d="M1093.5,1073.9h2v3.2h-2V1073.9z M1093.5,1080.2h2v16.5h-2V1080.2z"/>
	<path fill="#959595" d="M1097.5,1080.2h2.2l5.2,14.5h0.1l5.1-14.5h2.1l-6.2,16.5h-2.1L1097.5,1080.2z"/>
	<path fill="#959595" d="M1115.4,1089c0,2.9,1.6,6.5,5.4,6.5c2.9,0,4.5-1.7,5.2-4.2h2c-0.9,3.7-3,5.9-7.2,5.9c-5.2,0-7.5-4-7.5-8.7
		c0-4.4,2.2-8.7,7.5-8.7c5.3,0,7.4,4.6,7.3,9.3H1115.4z M1126.1,1087.3c-0.1-3-2-5.9-5.2-5.9c-3.3,0-5.1,2.9-5.4,5.9H1126.1z"/>
	<path fill="#959595" d="M1130.8,1080.2h1.9v3.9h0.1c1-2.7,3.3-4.2,6.2-4.1v2c-3.6-0.2-6.1,2.5-6.1,5.9v8.8h-2V1080.2z"/>
	<path fill="#959595" d="M1140.9,1073.9h2v3.2h-2V1073.9z M1140.9,1080.2h2v16.5h-2V1080.2z"/>
	<path fill="#959595" d="M1146.8,1080.2h2v2.8h0.1c0.7-2,2.9-3.3,5.3-3.3c4.6,0,6,2.4,6,6.4v10.6h-2v-10.3c0-2.8-0.9-5-4.2-5
		c-3.2,0-5.1,2.4-5.2,5.7v9.6h-2V1080.2z"/>
	<path fill="#959595" d="M1177.9,1095.4c0,4.9-1.9,7.9-7.3,7.9c-3.3,0-6.6-1.5-6.8-5h2c0.4,2.4,2.6,3.3,4.8,3.3
		c3.7,0,5.3-2.2,5.3-6.2v-2.2h-0.1c-0.9,2-2.9,3.4-5.2,3.4c-5.3,0-7.5-3.8-7.5-8.5c0-4.5,2.7-8.3,7.5-8.3c2.4,0,4.4,1.5,5.2,3.3h0.1
		v-2.8h2V1095.4z M1175.9,1088.3c0-3.2-1.5-6.8-5.3-6.8c-3.8,0-5.4,3.4-5.4,6.8c0,3.3,1.7,6.6,5.4,6.6
		C1174.1,1094.8,1175.9,1091.6,1175.9,1088.3z"/>
	<path fill="#959595" d="M1190.7,1080.2h1.9v2.8h0.1c1.1-2,2.8-3.3,5.4-3.3c2.2,0,4.1,1.1,4.7,3.2c1-2.2,3.1-3.2,5.2-3.2
		c3.6,0,5.5,1.9,5.5,5.8v11.2h-2v-11.1c0-2.7-1-4.2-3.9-4.2c-3.5,0-4.5,2.9-4.5,6v9.3h-2v-11.2c0-2.2-0.9-4.1-3.5-4.1
		c-3.5,0-4.9,2.6-4.9,6.1v9.2h-2V1080.2z"/>
	<path fill="#959595" d="M1230.7,1096.7h-1.9v-3h-0.1c-1.1,2.2-3.2,3.5-5.7,3.5c-4.2,0-5.8-2.4-5.8-6.3v-10.7h2v10.8
		c0.1,3,1.2,4.5,4.4,4.5c3.5,0,5-3.3,5-6.6v-8.7h2V1096.7z"/>
	<path fill="#959595" d="M1234.5,1073.9h2v22.8h-2V1073.9z"/>
	<path fill="#959595" d="M1243.6,1080.2h3.4v1.7h-3.4v11.1c0,1.3,0.2,2.1,1.6,2.2c0.6,0,1.2,0,1.7-0.1v1.7c-0.6,0-1.2,0.1-1.8,0.1
		c-2.7,0-3.6-0.9-3.6-3.7v-11.3h-2.9v-1.7h2.9v-5h2V1080.2z"/>
	<path fill="#959595" d="M1249.9,1073.9h2v3.2h-2V1073.9z M1249.9,1080.2h2v16.5h-2V1080.2z"/>
	<path fill="#959595" d="M1270.3,1096.7h-1.9v-3.1h-0.1c-0.9,2.1-3.5,3.6-5.9,3.6c-5,0-7.4-4.1-7.4-8.7c0-4.7,2.4-8.7,7.4-8.7
		c2.5,0,4.9,1.2,5.7,3.6h0.1v-9.5h2V1096.7z M1262.5,1095.5c4.3,0,5.8-3.6,5.8-7c0-3.4-1.5-7-5.8-7c-3.8,0-5.4,3.6-5.4,7
		C1257.1,1091.9,1258.7,1095.5,1262.5,1095.5z"/>
	<path fill="#959595" d="M1274.2,1073.9h2v3.2h-2V1073.9z M1274.2,1080.2h2v16.5h-2V1080.2z"/>
	<path fill="#959595" d="M1280.1,1080.2h1.9v2.8h0.1c1.1-2,2.8-3.3,5.4-3.3c2.2,0,4.1,1.1,4.7,3.2c1-2.2,3.1-3.2,5.2-3.2
		c3.6,0,5.5,1.9,5.5,5.8v11.2h-2v-11.1c0-2.7-1-4.2-3.9-4.2c-3.5,0-4.5,2.9-4.5,6v9.3h-2v-11.2c0-2.2-0.9-4.1-3.5-4.1
		c-3.5,0-4.9,2.6-4.9,6.1v9.2h-2V1080.2z"/>
	<path fill="#959595" d="M1307.9,1089c0,2.9,1.6,6.5,5.4,6.5c2.9,0,4.5-1.7,5.2-4.2h2c-0.9,3.7-3,5.9-7.2,5.9c-5.2,0-7.5-4-7.5-8.7
		c0-4.4,2.2-8.7,7.5-8.7c5.3,0,7.4,4.6,7.3,9.3H1307.9z M1318.6,1087.3c-0.1-3-2-5.9-5.2-5.9c-3.3,0-5.1,2.9-5.4,5.9H1318.6z"/>
	<path fill="#959595" d="M1323.3,1080.2h2v2.8h0.1c0.7-2,2.9-3.3,5.3-3.3c4.6,0,6,2.4,6,6.4v10.6h-2v-10.3c0-2.8-0.9-5-4.2-5
		c-3.2,0-5.1,2.4-5.2,5.7v9.6h-2V1080.2z"/>
	<path fill="#959595" d="M1350.4,1085c-0.1-2.5-2-3.6-4.3-3.6c-1.8,0-3.9,0.7-3.9,2.8c0,1.8,2,2.4,3.4,2.8l2.7,0.6
		c2.3,0.4,4.7,1.7,4.7,4.6c0,3.6-3.6,5-6.6,5c-3.8,0-6.5-1.8-6.8-5.8h2c0.2,2.7,2.2,4.1,4.9,4.1c1.9,0,4.5-0.8,4.5-3.1
		c0-1.9-1.8-2.6-3.6-3l-2.6-0.6c-2.6-0.7-4.6-1.6-4.6-4.4c0-3.4,3.3-4.6,6.2-4.6c3.3,0,5.9,1.7,6,5.3H1350.4z"/>
	<path fill="#959595" d="M1356,1073.9h2v3.2h-2V1073.9z M1356,1080.2h2v16.5h-2V1080.2z"/>
	<path fill="#959595" d="M1376.6,1088.5c0,4.7-2.8,8.7-7.8,8.7s-7.8-4-7.8-8.7c0-4.7,2.8-8.7,7.8-8.7S1376.6,1083.7,1376.6,1088.5z
		 M1363,1088.5c0,3.5,1.9,7,5.8,7c3.9,0,5.8-3.5,5.8-7c0-3.5-1.9-7-5.8-7C1365,1081.4,1363,1085,1363,1088.5z"/>
	<path fill="#959595" d="M1379.6,1080.2h2v2.8h0.1c0.7-2,2.9-3.3,5.3-3.3c4.6,0,6,2.4,6,6.4v10.6h-2v-10.3c0-2.8-0.9-5-4.2-5
		c-3.2,0-5.1,2.4-5.2,5.7v9.6h-2V1080.2z"/>
	<path fill="#959595" d="M1396.6,1085.3c0.2-3.9,2.9-5.5,6.7-5.5c2.9,0,6.1,0.9,6.1,5.3v8.8c0,0.8,0.4,1.2,1.2,1.2
		c0.2,0,0.5-0.1,0.6-0.1v1.7c-0.4,0.1-0.8,0.1-1.3,0.1c-2,0-2.4-1.2-2.4-2.9h-0.1c-1.4,2.1-2.8,3.4-6,3.4c-3,0-5.5-1.5-5.5-4.8
		c0-4.6,4.5-4.8,8.9-5.3c1.7-0.2,2.6-0.4,2.6-2.2c0-2.7-2-3.4-4.3-3.4c-2.5,0-4.4,1.2-4.4,3.8H1396.6z M1407.4,1087.7L1407.4,1087.7
		c-0.3,0.5-1.2,0.6-1.8,0.7c-3.4,0.6-7.7,0.6-7.7,3.8c0,2,1.8,3.3,3.7,3.3c3.1,0,5.8-2,5.8-5.2V1087.7z"/>
	<path fill="#959595" d="M1413.5,1073.9h2v22.8h-2V1073.9z"/>
	<path fill="#959595" d="M1052.6,1121.9h2v3.2h-2V1121.9z M1052.6,1128.2h2v16.5h-2V1128.2z"/>
	<path fill="#959595" d="M1058.4,1128.2h2v2.8h0.1c0.7-2,2.9-3.3,5.3-3.3c4.6,0,6,2.4,6,6.4v10.6h-2v-10.3c0-2.8-0.9-5-4.2-5
		c-3.2,0-5.1,2.4-5.2,5.7v9.6h-2V1128.2z"/>
	<path fill="#959595" d="M1085.5,1133c-0.1-2.5-2-3.6-4.3-3.6c-1.8,0-3.9,0.7-3.9,2.8c0,1.8,2,2.4,3.4,2.8l2.7,0.6
		c2.3,0.4,4.7,1.7,4.7,4.6c0,3.6-3.6,5-6.6,5c-3.8,0-6.5-1.8-6.8-5.8h2c0.2,2.7,2.2,4.1,4.9,4.1c1.9,0,4.5-0.8,4.5-3.1
		c0-1.9-1.8-2.6-3.6-3l-2.6-0.6c-2.6-0.7-4.6-1.6-4.6-4.4c0-3.4,3.3-4.6,6.2-4.6c3.3,0,5.9,1.7,6,5.3H1085.5z"/>
	<path fill="#959595" d="M1091.1,1121.9h2v3.2h-2V1121.9z M1091.1,1128.2h2v16.5h-2V1128.2z"/>
	<path fill="#959595" d="M1110.9,1143.4c0,4.9-1.9,7.9-7.3,7.9c-3.3,0-6.6-1.5-6.8-5h2c0.4,2.4,2.6,3.3,4.8,3.3
		c3.7,0,5.3-2.2,5.3-6.2v-2.2h-0.1c-0.9,2-2.9,3.4-5.2,3.4c-5.3,0-7.5-3.8-7.5-8.5c0-4.5,2.7-8.3,7.5-8.3c2.4,0,4.4,1.5,5.2,3.3h0.1
		v-2.8h2V1143.4z M1108.9,1136.3c0-3.2-1.5-6.8-5.3-6.8c-3.8,0-5.4,3.4-5.4,6.8c0,3.3,1.7,6.6,5.4,6.6
		C1107.1,1142.8,1108.9,1139.6,1108.9,1136.3z"/>
	<path fill="#959595" d="M1114.7,1121.9h2v9.2h0.1c0.7-2,2.9-3.3,5.3-3.3c4.6,0,6,2.4,6,6.4v10.6h-2v-10.3c0-2.8-0.9-5-4.2-5
		c-3.2,0-5.1,2.4-5.2,5.7v9.6h-2V1121.9z"/>
	<path fill="#959595" d="M1135.1,1128.2h3.4v1.7h-3.4v11.1c0,1.3,0.2,2.1,1.6,2.2c0.6,0,1.2,0,1.7-0.1v1.7c-0.6,0-1.2,0.1-1.8,0.1
		c-2.7,0-3.6-0.9-3.6-3.7v-11.3h-2.9v-1.7h2.9v-5h2V1128.2z"/>
	<path fill="#959595" d="M1153.5,1128.2h3.4v1.7h-3.4v11.1c0,1.3,0.2,2.1,1.6,2.2c0.6,0,1.2,0,1.7-0.1v1.7c-0.6,0-1.2,0.1-1.8,0.1
		c-2.7,0-3.6-0.9-3.6-3.7v-11.3h-2.9v-1.7h2.9v-5h2V1128.2z"/>
	<path fill="#959595" d="M1159.8,1121.9h2v9.2h0.1c0.7-2,2.9-3.3,5.3-3.3c4.6,0,6,2.4,6,6.4v10.6h-2v-10.3c0-2.8-0.9-5-4.2-5
		c-3.2,0-5.1,2.4-5.2,5.7v9.6h-2V1121.9z"/>
	<path fill="#959595" d="M1176.8,1133.3c0.2-3.9,2.9-5.5,6.7-5.5c2.9,0,6.1,0.9,6.1,5.3v8.8c0,0.8,0.4,1.2,1.2,1.2
		c0.2,0,0.5-0.1,0.6-0.1v1.7c-0.4,0.1-0.8,0.1-1.3,0.1c-2,0-2.4-1.2-2.4-2.9h-0.1c-1.4,2.1-2.8,3.4-6,3.4c-3,0-5.5-1.5-5.5-4.8
		c0-4.6,4.5-4.8,8.9-5.3c1.7-0.2,2.6-0.4,2.6-2.2c0-2.7-2-3.4-4.3-3.4c-2.5,0-4.4,1.2-4.4,3.8H1176.8z M1187.5,1135.7L1187.5,1135.7
		c-0.3,0.5-1.2,0.6-1.8,0.7c-3.4,0.6-7.7,0.6-7.7,3.8c0,2,1.8,3.3,3.7,3.3c3.1,0,5.8-2,5.8-5.2V1135.7z"/>
	<path fill="#959595" d="M1196.8,1128.2h3.4v1.7h-3.4v11.1c0,1.3,0.2,2.1,1.6,2.2c0.6,0,1.2,0,1.7-0.1v1.7c-0.6,0-1.2,0.1-1.8,0.1
		c-2.7,0-3.6-0.9-3.6-3.7v-11.3h-2.9v-1.7h2.9v-5h2V1128.2z"/>
	<path fill="#959595" d="M1207,1121.9v3.4c0,1.9-0.9,3.8-2.8,4.4v-1.4c1.1-0.4,1.6-2,1.5-3h-1.3v-3.4H1207z"/>
	<path fill="#959595" d="M1218.3,1133c-0.1-2.5-2-3.6-4.3-3.6c-1.8,0-3.9,0.7-3.9,2.8c0,1.8,2,2.4,3.4,2.8l2.7,0.6
		c2.3,0.4,4.7,1.7,4.7,4.6c0,3.6-3.6,5-6.6,5c-3.8,0-6.5-1.8-6.8-5.8h2c0.2,2.7,2.2,4.1,4.9,4.1c1.9,0,4.5-0.8,4.5-3.1
		c0-1.9-1.8-2.6-3.6-3l-2.6-0.6c-2.6-0.7-4.6-1.6-4.6-4.4c0-3.4,3.3-4.6,6.2-4.6c3.3,0,5.9,1.7,6,5.3H1218.3z"/>
	<path fill="#959595" d="M1232.7,1128.2h1.9v3.1h0.1c0.9-2.2,3.2-3.6,5.9-3.6c5,0,7.4,4.1,7.4,8.7c0,4.7-2.4,8.7-7.4,8.7
		c-2.5,0-4.9-1.2-5.7-3.6h-0.1v9.2h-2V1128.2z M1240.5,1129.4c-4.4,0-5.8,3.3-5.8,7c0,3.4,1.5,7,5.8,7c3.8,0,5.4-3.6,5.4-7
		C1245.9,1133,1244.3,1129.4,1240.5,1129.4z"/>
	<path fill="#959595" d="M1250.9,1133.3c0.2-3.9,2.9-5.5,6.7-5.5c2.9,0,6.1,0.9,6.1,5.3v8.8c0,0.8,0.4,1.2,1.2,1.2
		c0.2,0,0.5-0.1,0.6-0.1v1.7c-0.4,0.1-0.8,0.1-1.3,0.1c-2,0-2.4-1.2-2.4-2.9h-0.1c-1.4,2.1-2.8,3.4-6,3.4c-3,0-5.5-1.5-5.5-4.8
		c0-4.6,4.5-4.8,8.9-5.3c1.7-0.2,2.6-0.4,2.6-2.2c0-2.7-2-3.4-4.3-3.4c-2.5,0-4.4,1.2-4.4,3.8H1250.9z M1261.6,1135.7L1261.6,1135.7
		c-0.3,0.5-1.2,0.6-1.8,0.7c-3.4,0.6-7.7,0.6-7.7,3.8c0,2,1.8,3.3,3.7,3.3c3.1,0,5.8-2,5.8-5.2V1135.7z"/>
	<path fill="#959595" d="M1279.3,1133.4c-0.5-2.5-2-4-4.7-4c-3.9,0-5.8,3.5-5.8,7c0,3.5,1.9,7,5.8,7c2.5,0,4.5-2,4.8-4.7h2
		c-0.5,4-3.1,6.4-6.8,6.4c-5.1,0-7.8-4-7.8-8.7c0-4.7,2.8-8.7,7.8-8.7c3.5,0,6.2,1.9,6.7,5.7H1279.3z"/>
	<path fill="#959595" d="M1284.3,1121.9h2v14.3l9.2-8h2.7l-7,6.1l7.5,10.4h-2.5l-6.5-9l-3.3,2.7v6.3h-2V1121.9z"/>
	<path fill="#959595" d="M1300.1,1133.3c0.2-3.9,2.9-5.5,6.7-5.5c2.9,0,6.1,0.9,6.1,5.3v8.8c0,0.8,0.4,1.2,1.2,1.2
		c0.2,0,0.5-0.1,0.6-0.1v1.7c-0.4,0.1-0.8,0.1-1.3,0.1c-2,0-2.4-1.2-2.4-2.9h-0.1c-1.4,2.1-2.8,3.4-6,3.4c-3,0-5.5-1.5-5.5-4.8
		c0-4.6,4.5-4.8,8.9-5.3c1.7-0.2,2.6-0.4,2.6-2.2c0-2.7-2-3.4-4.3-3.4c-2.5,0-4.4,1.2-4.4,3.8H1300.1z M1310.8,1135.7L1310.8,1135.7
		c-0.3,0.5-1.2,0.6-1.8,0.7c-3.4,0.6-7.7,0.6-7.7,3.8c0,2,1.8,3.3,3.7,3.3c3.1,0,5.8-2,5.8-5.2V1135.7z"/>
	<path fill="#959595" d="M1330.8,1143.4c0,4.9-1.9,7.9-7.3,7.9c-3.3,0-6.6-1.5-6.8-5h2c0.4,2.4,2.6,3.3,4.8,3.3
		c3.7,0,5.3-2.2,5.3-6.2v-2.2h-0.1c-0.9,2-2.9,3.4-5.2,3.4c-5.3,0-7.5-3.8-7.5-8.5c0-4.5,2.7-8.3,7.5-8.3c2.4,0,4.4,1.5,5.2,3.3h0.1
		v-2.8h2V1143.4z M1328.8,1136.3c0-3.2-1.5-6.8-5.3-6.8c-3.8,0-5.4,3.4-5.4,6.8c0,3.3,1.7,6.6,5.4,6.6
		C1327,1142.8,1328.8,1139.6,1328.8,1136.3z"/>
	<path fill="#959595" d="M1335.8,1137c0,2.9,1.6,6.5,5.4,6.5c2.9,0,4.5-1.7,5.2-4.2h2c-0.9,3.7-3,5.9-7.2,5.9c-5.2,0-7.5-4-7.5-8.7
		c0-4.4,2.2-8.7,7.5-8.7c5.3,0,7.4,4.6,7.3,9.3H1335.8z M1346.5,1135.3c-0.1-3-2-5.9-5.2-5.9c-3.3,0-5.1,2.9-5.4,5.9H1346.5z"/>
	<path fill="#959595" d="M1365.8,1144.7h-1.9v-3.1h-0.1c-0.9,2.1-3.5,3.6-5.9,3.6c-5,0-7.4-4.1-7.4-8.7c0-4.7,2.4-8.7,7.4-8.7
		c2.5,0,4.9,1.2,5.7,3.6h0.1v-9.5h2V1144.7z M1358,1143.5c4.3,0,5.8-3.6,5.8-7c0-3.4-1.5-7-5.8-7c-3.8,0-5.4,3.6-5.4,7
		C1352.6,1139.9,1354.1,1143.5,1358,1143.5z"/>
	<path fill="#959595" d="M1378.6,1121.9h2v3.2h-2V1121.9z M1378.6,1128.2h2v16.5h-2V1128.2z"/>
	<path fill="#959595" d="M1384.4,1128.2h2v2.8h0.1c0.7-2,2.9-3.3,5.3-3.3c4.6,0,6,2.4,6,6.4v10.6h-2v-10.3c0-2.8-0.9-5-4.2-5
		c-3.2,0-5.1,2.4-5.2,5.7v9.6h-2V1128.2z"/>
	<path fill="#959595" d="M1404.8,1128.2h3.4v1.7h-3.4v11.1c0,1.3,0.2,2.1,1.6,2.2c0.6,0,1.2,0,1.7-0.1v1.7c-0.6,0-1.2,0.1-1.8,0.1
		c-2.7,0-3.6-0.9-3.6-3.7v-11.3h-2.9v-1.7h2.9v-5h2V1128.2z"/>
	<path fill="#959595" d="M1425.9,1136.5c0,4.7-2.8,8.7-7.8,8.7s-7.8-4-7.8-8.7c0-4.7,2.8-8.7,7.8-8.7S1425.9,1131.7,1425.9,1136.5z
		 M1412.3,1136.5c0,3.5,1.9,7,5.8,7c3.9,0,5.8-3.5,5.8-7c0-3.5-1.9-7-5.8-7C1414.2,1129.4,1412.3,1133,1412.3,1136.5z"/>
	<path fill="#959595" d="M1437.6,1133.3c0.2-3.9,2.9-5.5,6.7-5.5c2.9,0,6.1,0.9,6.1,5.3v8.8c0,0.8,0.4,1.2,1.2,1.2
		c0.2,0,0.5-0.1,0.6-0.1v1.7c-0.4,0.1-0.8,0.1-1.3,0.1c-2,0-2.4-1.2-2.4-2.9h-0.1c-1.4,2.1-2.8,3.4-6,3.4c-3,0-5.5-1.5-5.5-4.8
		c0-4.6,4.5-4.8,8.9-5.3c1.7-0.2,2.6-0.4,2.6-2.2c0-2.7-2-3.4-4.3-3.4c-2.5,0-4.4,1.2-4.4,3.8H1437.6z M1448.4,1135.7L1448.4,1135.7
		c-0.3,0.5-1.2,0.6-1.8,0.7c-3.4,0.6-7.7,0.6-7.7,3.8c0,2,1.8,3.3,3.7,3.3c3.1,0,5.8-2,5.8-5.2V1135.7z"/>
	<path fill="#959595" d="M1062.4,1181c-0.1-2.5-2-3.6-4.3-3.6c-1.8,0-3.9,0.7-3.9,2.8c0,1.8,2,2.4,3.4,2.8l2.7,0.6
		c2.3,0.4,4.7,1.7,4.7,4.6c0,3.6-3.6,5-6.6,5c-3.8,0-6.5-1.8-6.8-5.8h2c0.2,2.7,2.2,4.1,4.9,4.1c1.9,0,4.5-0.8,4.5-3.1
		c0-1.9-1.8-2.6-3.6-3l-2.6-0.6c-2.6-0.7-4.6-1.6-4.6-4.4c0-3.4,3.3-4.6,6.2-4.6c3.3,0,5.9,1.7,6,5.3H1062.4z"/>
	<path fill="#959595" d="M1068,1169.9h2v3.2h-2V1169.9z M1068,1176.2h2v16.5h-2V1176.2z"/>
	<path fill="#959595" d="M1073.8,1176.2h2v2.8h0.1c0.7-2,2.9-3.3,5.3-3.3c4.6,0,6,2.4,6,6.4v10.6h-2v-10.3c0-2.8-0.9-5-4.2-5
		c-3.2,0-5.1,2.4-5.2,5.7v9.6h-2V1176.2z"/>
	<path fill="#959595" d="M1105,1191.4c0,4.9-1.9,7.9-7.3,7.9c-3.3,0-6.6-1.5-6.8-5h2c0.4,2.4,2.6,3.3,4.8,3.3c3.7,0,5.3-2.2,5.3-6.2
		v-2.2h-0.1c-0.9,2-2.9,3.4-5.2,3.4c-5.3,0-7.5-3.8-7.5-8.5c0-4.5,2.7-8.3,7.5-8.3c2.4,0,4.4,1.5,5.2,3.3h0.1v-2.8h2V1191.4z
		 M1103,1184.3c0-3.2-1.5-6.8-5.3-6.8c-3.8,0-5.4,3.4-5.4,6.8c0,3.3,1.7,6.6,5.4,6.6C1101.2,1190.8,1103,1187.6,1103,1184.3z"/>
	<path fill="#959595" d="M1108.9,1169.9h2v22.8h-2V1169.9z"/>
	<path fill="#959595" d="M1115.9,1185c0,2.9,1.6,6.5,5.4,6.5c2.9,0,4.5-1.7,5.2-4.2h2c-0.9,3.7-3,5.9-7.2,5.9c-5.2,0-7.5-4-7.5-8.7
		c0-4.4,2.2-8.7,7.5-8.7c5.3,0,7.4,4.6,7.3,9.3H1115.9z M1126.6,1183.3c-0.1-3-2-5.9-5.2-5.9c-3.3,0-5.1,2.9-5.4,5.9H1126.6z"/>
	<path fill="#959595" d="M1135.2,1189.3v3.4c0,1.9-0.9,3.8-2.8,4.4v-1.4c1.1-0.4,1.5-2,1.5-3h-1.3v-3.4H1135.2z"/>
	<path fill="#959595" d="M1160.8,1181.4c-0.5-2.5-2-4-4.7-4c-3.9,0-5.8,3.5-5.8,7c0,3.5,1.9,7,5.8,7c2.5,0,4.5-2,4.8-4.7h2
		c-0.5,4-3.1,6.4-6.8,6.4c-5.1,0-7.8-4-7.8-8.7c0-4.7,2.8-8.7,7.8-8.7c3.5,0,6.2,1.9,6.7,5.7H1160.8z"/>
	<path fill="#959595" d="M1180.6,1184.5c0,4.7-2.8,8.7-7.8,8.7s-7.8-4-7.8-8.7c0-4.7,2.8-8.7,7.8-8.7S1180.6,1179.7,1180.6,1184.5z
		 M1167,1184.5c0,3.5,1.9,7,5.8,7c3.9,0,5.8-3.5,5.8-7c0-3.5-1.9-7-5.8-7C1168.9,1177.4,1167,1181,1167,1184.5z"/>
	<path fill="#959595" d="M1183.5,1176.2h2v2.8h0.1c0.7-2,2.9-3.3,5.3-3.3c4.6,0,6,2.4,6,6.4v10.6h-2v-10.3c0-2.8-0.9-5-4.2-5
		c-3.2,0-5.1,2.4-5.2,5.7v9.6h-2V1176.2z"/>
	<path fill="#959595" d="M1198.9,1176.2h2.2l5.2,14.5h0.1l5.1-14.5h2.1l-6.2,16.5h-2.1L1198.9,1176.2z"/>
	<path fill="#959595" d="M1216.7,1185c0,2.9,1.6,6.5,5.4,6.5c2.9,0,4.5-1.7,5.2-4.2h2c-0.9,3.7-3,5.9-7.2,5.9c-5.2,0-7.5-4-7.5-8.7
		c0-4.4,2.2-8.7,7.5-8.7c5.3,0,7.4,4.6,7.3,9.3H1216.7z M1227.4,1183.3c-0.1-3-2-5.9-5.2-5.9c-3.3,0-5.1,2.9-5.4,5.9H1227.4z"/>
	<path fill="#959595" d="M1232.1,1176.2h2v2.8h0.1c0.7-2,2.9-3.3,5.3-3.3c4.6,0,6,2.4,6,6.4v10.6h-2v-10.3c0-2.8-0.9-5-4.2-5
		c-3.2,0-5.1,2.4-5.2,5.7v9.6h-2V1176.2z"/>
	<path fill="#959595" d="M1249.4,1169.9h2v3.2h-2V1169.9z M1249.4,1176.2h2v16.5h-2V1176.2z"/>
	<path fill="#959595" d="M1256.5,1185c0,2.9,1.6,6.5,5.4,6.5c2.9,0,4.5-1.7,5.2-4.2h2c-0.9,3.7-3,5.9-7.2,5.9c-5.2,0-7.5-4-7.5-8.7
		c0-4.4,2.2-8.7,7.5-8.7c5.3,0,7.4,4.6,7.3,9.3H1256.5z M1267.1,1183.3c-0.1-3-2-5.9-5.2-5.9c-3.3,0-5.1,2.9-5.4,5.9H1267.1z"/>
	<path fill="#959595" d="M1271.8,1176.2h2v2.8h0.1c0.7-2,2.9-3.3,5.3-3.3c4.6,0,6,2.4,6,6.4v10.6h-2v-10.3c0-2.8-0.9-5-4.2-5
		c-3.2,0-5.1,2.4-5.2,5.7v9.6h-2V1176.2z"/>
	<path fill="#959595" d="M1292.3,1176.2h3.4v1.7h-3.4v11.1c0,1.3,0.2,2.1,1.6,2.2c0.6,0,1.2,0,1.7-0.1v1.7c-0.6,0-1.2,0.1-1.8,0.1
		c-2.7,0-3.6-0.9-3.6-3.7v-11.3h-2.9v-1.7h2.9v-5h2V1176.2z"/>
	<path fill="#959595" d="M1305.6,1176.2h2.2l5.2,14.5h0.1l5.1-14.5h2.1l-6.2,16.5h-2.1L1305.6,1176.2z"/>
	<path fill="#959595" d="M1322.1,1181.3c0.2-3.9,2.9-5.5,6.7-5.5c2.9,0,6.1,0.9,6.1,5.3v8.8c0,0.8,0.4,1.2,1.2,1.2
		c0.2,0,0.5-0.1,0.6-0.1v1.7c-0.4,0.1-0.8,0.1-1.3,0.1c-2,0-2.4-1.2-2.4-2.9h-0.1c-1.4,2.1-2.8,3.4-6,3.4c-3,0-5.5-1.5-5.5-4.8
		c0-4.6,4.5-4.8,8.9-5.3c1.7-0.2,2.6-0.4,2.6-2.2c0-2.7-2-3.4-4.3-3.4c-2.5,0-4.4,1.2-4.4,3.8H1322.1z M1332.8,1183.7L1332.8,1183.7
		c-0.3,0.5-1.2,0.6-1.8,0.7c-3.4,0.6-7.7,0.6-7.7,3.8c0,2,1.8,3.3,3.7,3.3c3.1,0,5.8-2,5.8-5.2V1183.7z"/>
	<path fill="#959595" d="M1338.9,1176.2h1.9v3.9h0.1c1-2.7,3.3-4.2,6.2-4.1v2c-3.6-0.2-6.1,2.5-6.1,5.9v8.8h-2V1176.2z"/>
	<path fill="#959595" d="M1349,1169.9h2v3.2h-2V1169.9z M1349,1176.2h2v16.5h-2V1176.2z"/>
	<path fill="#959595" d="M1354.7,1181.3c0.2-3.9,2.9-5.5,6.7-5.5c2.9,0,6.1,0.9,6.1,5.3v8.8c0,0.8,0.4,1.2,1.2,1.2
		c0.2,0,0.5-0.1,0.6-0.1v1.7c-0.4,0.1-0.8,0.1-1.3,0.1c-2,0-2.4-1.2-2.4-2.9h-0.1c-1.4,2.1-2.8,3.4-6,3.4c-3,0-5.5-1.5-5.5-4.8
		c0-4.6,4.5-4.8,8.9-5.3c1.7-0.2,2.6-0.4,2.6-2.2c0-2.7-2-3.4-4.3-3.4c-2.5,0-4.4,1.2-4.4,3.8H1354.7z M1365.4,1183.7L1365.4,1183.7
		c-0.3,0.5-1.2,0.6-1.8,0.7c-3.4,0.6-7.7,0.6-7.7,3.8c0,2,1.8,3.3,3.7,3.3c3.1,0,5.8-2,5.8-5.2V1183.7z"/>
	<path fill="#959595" d="M1371.5,1169.9h2v9.5h0.1c0.9-2.4,3.3-3.6,5.7-3.6c5,0,7.4,4.1,7.4,8.7c0,4.7-2.4,8.7-7.4,8.7
		c-2.7,0-5-1.4-5.9-3.6h-0.1v3.1h-1.9V1169.9z M1379.3,1177.4c-4.3,0-5.8,3.6-5.8,7c0,3.4,1.5,7,5.8,7c3.8,0,5.4-3.6,5.4-7
		C1384.7,1181,1383.1,1177.4,1379.3,1177.4z"/>
	<path fill="#959595" d="M1389.9,1169.9h2v22.8h-2V1169.9z"/>
	<path fill="#959595" d="M1396.9,1185c0,2.9,1.6,6.5,5.4,6.5c2.9,0,4.5-1.7,5.2-4.2h2c-0.9,3.7-3,5.9-7.2,5.9c-5.2,0-7.5-4-7.5-8.7
		c0-4.4,2.2-8.7,7.5-8.7c5.3,0,7.4,4.6,7.3,9.3H1396.9z M1407.6,1183.3c-0.1-3-2-5.9-5.2-5.9c-3.3,0-5.1,2.9-5.4,5.9H1407.6z"/>
	<path fill="#959595" d="M1413.5,1192.7v-3.4h2.7v3.4H1413.5z"/>
</g>
<g>
</g>
<g>
</g>
<g>
</g>
<g>
</g>
<g>
</g>
<g>
</g>
<g>
</g>
<g>
</g>
<g>
</g>
<g>
</g>
<g>
</g>
<g>
</g>
<g>
</g>
<g>
</g>
<g>
</g>
</svg>
