<?xml version="1.0" encoding="utf-8"?>
<!-- Generator: Adobe Illustrator 18.0.0, SVG Export Plug-In . SVG Version: 6.00 Build 0)  -->
<!DOCTYPE svg PUBLIC "-//W3C//DTD SVG 1.1//EN" "http://www.w3.org/Graphics/SVG/1.1/DTD/svg11.dtd">
<svg version="1.1" id="Layer_1" xmlns="http://www.w3.org/2000/svg" xmlns:xlink="http://www.w3.org/1999/xlink" x="0px" y="0px"
	 viewBox="0 0 282.9 76.9" enable-background="new 0 0 282.9 76.9" xml:space="preserve">
<g>
	<g>
		<path fill="#FFFFFF" d="M13,16.5h9.5v43.2H13V16.5z"/>
		<path fill="#FFFFFF" d="M60.5,30.9c-0.8-5.3-4.6-8.1-9.9-8.1c-4.9,0-11.9,2.6-11.9,15.7c0,7.2,3.2,14.8,11.5,14.8
			c5.5,0,9.4-3.7,10.3-9.9H70c-1.8,11.2-8.7,17.4-19.8,17.4c-13.5,0-21-9.6-21-22.3c0-13,7.1-23.2,21.3-23.2c10,0,18.6,5,19.5,15.6
			H60.5z"/>
		<path fill="#FFFFFF" d="M83.5,40.6c0,6.8,3.7,12.8,11.6,12.8c5.5,0,8.9-2.4,10.5-7.2h9c-2.1,9.4-10.1,14.7-19.6,14.7
			C81.6,60.9,74,51.4,74,38.1c0-12.3,8-22.8,20.9-22.8c13.6,0,22,12.3,20.4,25.3H83.5z M105.8,34.3c-0.3-6-4.4-11.5-10.9-11.5
			c-6.6,0-11.1,5-11.4,11.5H105.8z"/>
		<path fill="#FFFFFF" d="M121.2,0h9.5v22.1h0.2c2.6-4.2,8-6.8,12.9-6.8c13.6,0,20.2,10.4,20.2,23c0,11.6-5.9,22.6-18.6,22.6
			c-5.9,0-12.1-1.4-15-7.1h-0.2v5.9h-9V0z M142.5,22.8c-8,0-12.1,6.1-12.1,15.3c0,8.7,4.4,15.2,12.1,15.2c8.7,0,12-7.7,12-15.2
			C154.5,30.3,150.4,22.8,142.5,22.8z"/>
		<path fill="#FFFFFF" d="M177.8,40.6c0,6.8,3.7,12.8,11.6,12.8c5.5,0,8.9-2.4,10.5-7.2h9c-2.1,9.4-10.1,14.7-19.6,14.7
			c-13.5,0-21.2-9.4-21.2-22.7c0-12.3,8-22.8,20.9-22.8c13.6,0,22,12.3,20.4,25.3H177.8z M200,34.3c-0.3-6-4.4-11.5-10.9-11.5
			c-6.6,0-11.1,5-11.4,11.5H200z"/>
		<path fill="#FFFFFF" d="M215.2,16.5h8.9v8.4h0.2c1.1-4.6,6.8-9.5,12.6-9.5c2.2,0,2.8,0.2,3.6,0.3v9.2c-1.3-0.2-2.8-0.4-4.1-0.4
			c-6.5,0-11.7,5.3-11.7,14.8v20.6h-9.5V16.5z"/>
		<path fill="#FFFFFF" d="M282.9,57.5c0,13-7.6,19.4-21.2,19.4c-8.7,0-18.5-3.3-19.3-13.5h9.5c1.2,5.4,5.5,6.4,10.4,6.4
			c7.7,0,11.1-3.9,11.1-11v-6.6h-0.2c-2.7,4.8-7.6,7.6-13,7.6c-13.7,0-19.4-10.4-19.4-22.7c0-11.6,7.3-21.7,19.6-21.7
			c5.4,0,10.4,2.3,12.8,7.1h0.2v-5.9h9.5V57.5z M273.4,37.1c0-7.4-3.3-14.3-11.6-14.3c-8.4,0-11.4,7.9-11.4,15.1
			c0,7.1,3.4,14.3,11.4,14.3C270.2,52.2,273.4,44.5,273.4,37.1z"/>
	</g>
	<rect x="0" y="0" fill="#FFFFFF" width="35.6" height="9"/>
</g>
<g>
</g>
<g>
</g>
<g>
</g>
<g>
</g>
<g>
</g>
<g>
</g>
<g>
</g>
<g>
</g>
<g>
</g>
<g>
</g>
<g>
</g>
<g>
</g>
<g>
</g>
<g>
</g>
<g>
</g>
</svg>
