<?xml version="1.0" encoding="utf-8"?>
<!-- Generator: Adobe Illustrator 18.0.0, SVG Export Plug-In . SVG Version: 6.00 Build 0)  -->
<!DOCTYPE svg PUBLIC "-//W3C//DTD SVG 1.1//EN" "http://www.w3.org/Graphics/SVG/1.1/DTD/svg11.dtd">
<svg version="1.1" id="Layer_1" xmlns="http://www.w3.org/2000/svg" xmlns:xlink="http://www.w3.org/1999/xlink" x="0px" y="0px"
	 viewBox="0 0 400.2 625" enable-background="new 0 0 400.2 625" xml:space="preserve">
<g>
	<g>
		<path fill="#FFFFFF" d="M0,120.2h133.1v47H0V120.2z M95.8,216.5v254.2H37.1V216.5H95.8z"/>
		<path fill="#FFFFFF" d="M330.9,216.5h59v254.2h-59v-26.6c-24.2,22.6-50.2,33.9-78,33.9c-35.2,0-64.2-12.7-87.2-38.1
			c-22.8-25.9-34.2-58.3-34.2-97.1c0-38.1,11.4-69.9,34.2-95.3c22.8-25.4,51.3-38.1,85.6-38.1c29.6,0,56.1,12.2,79.6,36.5V216.5z
			 M191.5,342.9c0,24.4,6.5,44.2,19.6,59.5c13.4,15.5,30.3,23.2,50.6,23.2c21.8,0,39.3-7.5,52.7-22.4c13.4-15.5,20.1-35.1,20.1-59
			c0-23.8-6.7-43.5-20.1-59c-13.4-15.1-30.8-22.7-52.2-22.7c-20.2,0-37.1,7.7-50.6,23C198.2,300.9,191.5,320.1,191.5,342.9z"/>
	</g>
</g>
<g>
</g>
<g>
</g>
<g>
</g>
<g>
</g>
<g>
</g>
<g>
</g>
<g>
</g>
<g>
</g>
<g>
</g>
<g>
</g>
<g>
</g>
<g>
</g>
<g>
</g>
<g>
</g>
<g>
</g>
</svg>
