<?xml version="1.0" encoding="utf-8"?>
<!-- Generator: Adobe Illustrator 18.0.0, SVG Export Plug-In . SVG Version: 6.00 Build 0)  -->
<!DOCTYPE svg PUBLIC "-//W3C//DTD SVG 1.1//EN" "http://www.w3.org/Graphics/SVG/1.1/DTD/svg11.dtd">
<svg version="1.1" id="Layer_1" xmlns="http://www.w3.org/2000/svg" xmlns:xlink="http://www.w3.org/1999/xlink" x="0px" y="0px"
	 viewBox="0 0 874.9 633.5" enable-background="new 0 0 874.9 633.5" xml:space="preserve">
<g>
	<rect x="0" y="568.7" fill="none" width="874.9" height="64.7"/>
	<path fill="#959595" d="M105.1,568.7h2.9v30h-2.9V568.7z"/>
	<path fill="#959595" d="M153,577.8c-1-4.6-4.8-7.3-9.2-7.3c-7.9,0-11.3,6.6-11.3,13.2c0,6.6,3.4,13.2,11.3,13.2
		c5.5,0,9.1-4.3,9.6-9.6h2.9c-0.8,7.4-5.5,12.1-12.5,12.1c-9.5,0-14.2-7.4-14.2-15.6s4.7-15.6,14.2-15.6c5.7,0,11.3,3.4,12.1,9.7
		H153z"/>
	<path fill="#959595" d="M177.4,568.7h20.7v2.4h-17.9V582H197v2.4h-16.7v11.8h18.1v2.4h-20.9V568.7z"/>
	<path fill="#959595" d="M219.1,568.7h12.7c5,0,9.6,1.8,9.6,7.4c0,3.2-2.1,6-5.2,6.7v0.1c3.9,0.5,6.3,3.4,6.3,7.3
		c0,2.9-1,8.5-10.8,8.5h-12.7V568.7z M222,581.9h9.8c4.6,0,6.8-2.3,6.8-5.1c0-3.7-2.3-5.6-6.8-5.6H222V581.9z M222,596.3h9.8
		c4.2,0,7.9-1.4,7.9-6.2c0-3.8-2.9-5.8-7.9-5.8H222V596.3z"/>
	<path fill="#959595" d="M263.9,568.7h20.7v2.4h-17.9V582h16.7v2.4h-16.7v11.8h18.1v2.4h-20.9V568.7z"/>
	<path fill="#959595" d="M305.6,568.7h13.7c5,0,9.1,2.4,9.1,7.8c0,3.8-2,6.9-5.8,7.6v0.1c3.9,0.5,5,3.2,5.3,6.8
		c0.1,2.1,0.1,6.2,1.4,7.7h-3.2c-0.7-1.2-0.7-3.4-0.8-4.7c-0.3-4.2-0.6-8.9-6-8.7h-10.8v13.3h-2.9V568.7z M308.5,583h10.7
		c3.5,0,6.5-2.2,6.5-5.8s-2.2-6-6.5-6h-10.7V583z"/>
	<path fill="#959595" d="M376.1,598.7H374l-0.4-5.5h-0.1c-2,4.3-6,6.1-10.4,6.1c-9.5,0-14.2-7.4-14.2-15.6s4.7-15.6,14.2-15.6
		c6.3,0,11.4,3.4,12.5,10h-2.9c-0.4-3.4-3.9-7.5-9.7-7.5c-7.9,0-11.3,6.6-11.3,13.2c0,6.6,3.4,13.2,11.3,13.2
		c6.6,0,10.5-4.7,10.4-11h-10.2v-2.4h12.7V598.7z"/>
	<path fill="#959595" d="M435.6,568.7h3.2l11.8,30h-3.1l-3.7-9.3h-13.7l-3.6,9.3h-3.1L435.6,568.7z M431.1,586.9h11.8l-5.8-15.4
		L431.1,586.9z"/>
	<path fill="#959595" d="M470.1,568.7h3.2l17.5,25.4h0.1v-25.4h2.9v30h-3.2L473,573.3h-0.1v25.4h-2.9V568.7z"/>
	<path fill="#959595" d="M525.3,568.7h3.2l11.8,30h-3.1l-3.7-9.3h-13.7l-3.6,9.3h-3.1L525.3,568.7z M520.7,586.9h11.8l-5.8-15.4
		L520.7,586.9z"/>
	<path fill="#959595" d="M559.7,568.7h2.9v27.6h16.8v2.4h-19.7V568.7z"/>
	<path fill="#959595" d="M602.8,586.4L591,568.7h3.4l9.9,15.2l9.8-15.2h3.4l-11.8,17.6v12.4h-2.9V586.4z"/>
	<path fill="#959595" d="M633.7,568.7h23.8v2.4H647v27.6h-2.9v-27.6h-10.5V568.7z"/>
	<path fill="#959595" d="M677.3,568.7h2.9v30h-2.9V568.7z"/>
	<path fill="#959595" d="M725.1,577.8c-1-4.6-4.8-7.3-9.2-7.3c-7.9,0-11.3,6.6-11.3,13.2c0,6.6,3.4,13.2,11.3,13.2
		c5.5,0,9.1-4.3,9.6-9.6h2.9c-0.8,7.4-5.5,12.1-12.5,12.1c-9.5,0-14.2-7.4-14.2-15.6s4.7-15.6,14.2-15.6c5.7,0,11.3,3.4,12.1,9.7
		H725.1z"/>
	<path fill="#959595" d="M750.9,588.8c-0.1,6.2,4.3,8.1,9.8,8.1c3.2,0,7.9-1.7,7.9-6.1c0-3.4-3.4-4.7-6.2-5.4l-6.7-1.6
		c-3.5-0.9-6.8-2.6-6.8-7.2c0-2.9,1.9-8.4,10.3-8.4c5.9,0,11.1,3.2,11.1,9.3h-2.9c-0.2-4.6-3.9-6.9-8.2-6.9c-3.9,0-7.5,1.5-7.5,6
		c0,2.8,2.1,4,4.5,4.6l7.3,1.8c4.2,1.1,7.8,3,7.8,7.9c0,2.1-0.8,8.6-11.5,8.6c-7.1,0-12.3-3.2-12-10.5H750.9z"/>
</g>
<g>
	<path fill="#141B1E" stroke="#000000" stroke-miterlimit="10" d="M237.3,120.7h133.1v47H237.3V120.7z M333.1,217v254.2h-58.7V217
		H333.1z"/>
	<path fill="#141B1E" stroke="#000000" stroke-miterlimit="10" d="M568.2,217h59v254.2h-59v-26.6c-24.2,22.6-50.2,33.9-78,33.9
		c-35.2,0-64.2-12.7-87.2-38.1c-22.8-25.9-34.2-58.3-34.2-97.1c0-38.1,11.4-69.9,34.2-95.3c22.8-25.4,51.3-38.1,85.6-38.1
		c29.6,0,56.1,12.2,79.6,36.5V217z M428.8,343.4c0,24.4,6.5,44.2,19.6,59.5c13.4,15.5,30.3,23.2,50.6,23.2
		c21.7,0,39.3-7.5,52.7-22.4c13.4-15.5,20.1-35.1,20.1-59c0-23.8-6.7-43.5-20.1-59C538.4,270.5,521,263,499.6,263
		c-20.2,0-37.1,7.7-50.6,23C435.5,301.4,428.8,320.6,428.8,343.4z"/>
</g>
<g>
</g>
<g>
</g>
<g>
</g>
<g>
</g>
<g>
</g>
<g>
</g>
<g>
</g>
<g>
</g>
<g>
</g>
<g>
</g>
<g>
</g>
<g>
</g>
<g>
</g>
<g>
</g>
<g>
</g>
</svg>
