<?xml version="1.0" encoding="utf-8"?>
<!-- Generator: Adobe Illustrator 18.0.0, SVG Export Plug-In . SVG Version: 6.00 Build 0)  -->
<!DOCTYPE svg PUBLIC "-//W3C//DTD SVG 1.1//EN" "http://www.w3.org/Graphics/SVG/1.1/DTD/svg11.dtd">
<svg version="1.1" id="Layer_1" xmlns="http://www.w3.org/2000/svg" xmlns:xlink="http://www.w3.org/1999/xlink" x="0px" y="0px"
	 viewBox="0 0 253.2 96.9" enable-background="new 0 0 253.2 96.9" xml:space="preserve">
<g>
	<g>
		<path fill="#FFFFFF" d="M0,18.6h20.6v7.3H0V18.6z M14.9,33.6V73H5.7V33.6H14.9z"/>
		<path fill="#FFFFFF" d="M52.9,35.3v12.1c-2.1-2.5-3.9-4.3-5.6-5.2c-1.6-1-3.5-1.5-5.7-1.5c-3.4,0-6.3,1.2-8.5,3.6
			c-2.3,2.4-3.4,5.4-3.4,9c0,3.7,1.1,6.7,3.3,9.1c2.2,2.4,5,3.6,8.5,3.6c2.2,0,4.1-0.5,5.8-1.4c1.6-0.9,3.5-2.7,5.7-5.3v12
			c-3.7,1.9-7.4,2.9-11.1,2.9c-6.1,0-11.2-2-15.3-5.9c-4.1-4-6.2-8.9-6.2-14.8c0-5.9,2.1-10.8,6.2-14.9c4.2-4,9.3-6.1,15.3-6.1
			C45.8,32.5,49.5,33.4,52.9,35.3z"/>
		<path fill="#FFFFFF" d="M93.5,55.4H65.3c0.2,3.2,1.3,5.8,3.2,7.7c1.9,1.9,4.3,2.8,7.2,2.8c2.3,0,4.1-0.5,5.6-1.6
			c1.5-1.1,3.1-3.1,5-6l7.7,4.3c-1.2,2-2.4,3.8-3.8,5.2s-2.7,2.6-4.2,3.6c-1.5,0.9-3.1,1.6-4.9,2c-1.8,0.4-3.7,0.6-5.7,0.6
			c-5.9,0-10.6-1.9-14.2-5.7c-3.6-3.8-5.3-8.8-5.3-15.1c0-6.2,1.7-11.3,5.2-15.1c3.5-3.8,8.1-5.7,13.8-5.7c5.8,0,10.4,1.8,13.8,5.5
			c3.3,3.7,5,8.8,5,15.3L93.5,55.4z M84.2,48c-1.3-4.9-4.3-7.3-9.2-7.3c-1.1,0-2.1,0.2-3.1,0.5c-1,0.3-1.9,0.8-2.7,1.5
			c-0.8,0.6-1.5,1.4-2,2.3c-0.6,0.9-1,1.9-1.3,3H84.2z"/>
		<path fill="#FFFFFF" d="M108.4,4.6v33.5c3.6-3.8,7.8-5.7,12.4-5.7c5.3,0,9.7,2,13.3,6c3.5,3.9,5.3,8.9,5.3,14.7
			c0,6.1-1.8,11.1-5.3,15.1c-3.5,3.9-8,5.9-13.4,5.9c-4.6,0-8.6-1.8-12.2-5.3V73h-9.1V4.6H108.4z M130.1,53.6c0-3.8-1-6.9-3.1-9.2
			c-2.1-2.4-4.7-3.6-7.8-3.6c-3.3,0-6.1,1.2-8.2,3.5c-2.1,2.3-3.1,5.3-3.1,9.1c0,3.8,1,6.9,3.1,9.2c2.1,2.3,4.7,3.5,8.1,3.5
			c3.2,0,5.8-1.2,7.9-3.5C129,60.1,130.1,57.1,130.1,53.6z"/>
		<path fill="#FFFFFF" d="M180.8,55.4h-28.3c0.2,3.2,1.3,5.8,3.2,7.7c1.9,1.9,4.2,2.8,7.2,2.8c2.3,0,4.1-0.5,5.6-1.6
			c1.5-1.1,3.1-3.1,5-6l7.7,4.3c-1.2,2-2.4,3.8-3.8,5.2s-2.7,2.6-4.2,3.6s-3.1,1.6-4.9,2c-1.8,0.4-3.7,0.6-5.7,0.6
			c-5.9,0-10.6-1.9-14.2-5.7c-3.6-3.8-5.3-8.8-5.3-15.1c0-6.2,1.7-11.3,5.2-15.1c3.5-3.8,8.1-5.7,13.8-5.7c5.8,0,10.4,1.8,13.8,5.5
			c3.3,3.7,5,8.8,5,15.3L180.8,55.4z M171.4,48c-1.3-4.9-4.3-7.3-9.2-7.3c-1.1,0-2.1,0.2-3.1,0.5s-1.9,0.8-2.7,1.5
			c-0.8,0.6-1.5,1.4-2,2.3s-1,1.9-1.3,3H171.4z"/>
		<path fill="#FFFFFF" d="M186.6,33.6h9.1v3.5c1.7-1.8,3.2-3,4.5-3.6c1.3-0.7,2.9-1,4.7-1c2.4,0,4.9,0.8,7.5,2.3l-4.2,8.3
			c-1.7-1.2-3.4-1.9-5.1-1.9c-5,0-7.4,3.8-7.4,11.3V73h-9.1V33.6z"/>
		<path fill="#FFFFFF" d="M251.6,72.1c0,1.9-0.1,3.5-0.2,4.9c-0.1,1.4-0.3,2.7-0.5,3.7c-0.6,3-1.9,5.5-3.8,7.7
			c-3.6,4.1-8.5,6.2-14.7,6.2c-5.3,0-9.6-1.4-13-4.2c-3.5-2.9-5.5-6.9-6.1-12.1h9.1c0.4,1.9,0.9,3.4,1.7,4.5
			c1.9,2.5,4.6,3.7,8.3,3.7c6.7,0,10-4.1,10-12.3v-5.5c-3.6,3.7-7.8,5.5-12.5,5.5c-5.4,0-9.8-1.9-13.2-5.8
			c-3.5-3.9-5.2-8.9-5.2-14.8c0-5.7,1.6-10.6,4.8-14.7c3.5-4.3,8-6.4,13.7-6.4c5,0,9.1,1.8,12.4,5.5v-4.5h9.1V72.1z M242.8,53.4
			c0-3.8-1-6.9-3.1-9.2c-2.1-2.3-4.7-3.5-8-3.5c-3.5,0-6.2,1.3-8.2,3.8c-1.8,2.3-2.7,5.3-2.7,8.9c0,3.6,0.9,6.5,2.7,8.8
			c2,2.5,4.7,3.8,8.2,3.8c3.5,0,6.2-1.3,8.3-3.8C241.9,59.9,242.8,57,242.8,53.4z"/>
	</g>
</g>
<g>
</g>
<g>
</g>
<g>
</g>
<g>
</g>
<g>
</g>
<g>
</g>
<g>
</g>
<g>
</g>
<g>
</g>
<g>
</g>
<g>
</g>
<g>
</g>
<g>
</g>
<g>
</g>
<g>
</g>
</svg>
