<?xml version="1.0" encoding="utf-8"?>
<!-- Generator: Adobe Illustrator 18.0.0, SVG Export Plug-In . SVG Version: 6.00 Build 0)  -->
<!DOCTYPE svg PUBLIC "-//W3C//DTD SVG 1.1//EN" "http://www.w3.org/Graphics/SVG/1.1/DTD/svg11.dtd">
<svg version="1.1" id="Layer_1" xmlns="http://www.w3.org/2000/svg" xmlns:xlink="http://www.w3.org/1999/xlink" x="0px" y="0px"
	 viewBox="0 0 615 236.1" enable-background="new 0 0 615 236.1" xml:space="preserve">
<g>
	<polygon fill="none" points="579.6,447.8 173.6,447.8 173.6,0 608.5,0 733.2,198.5 	"/>
	<path fill="#8FA3AD" d="M190.8,15.6c-0.4-2.6-2.3-4.1-5-4.1c-2.5,0-6,1.3-6,7.9c0,3.6,1.6,7.4,5.8,7.4c2.8,0,4.7-1.8,5.2-5h4.8
		c-0.9,5.6-4.4,8.7-10,8.7c-6.8,0-10.5-4.8-10.5-11.2c0-6.6,3.6-11.7,10.7-11.7c5,0,9.3,2.5,9.8,7.9H190.8z"/>
	<path fill="#8FA3AD" d="M203.2,20.4c0,3.4,1.8,6.4,5.8,6.4c2.8,0,4.5-1.2,5.3-3.6h4.5c-1,4.7-5.1,7.4-9.8,7.4
		c-6.8,0-10.6-4.7-10.6-11.4c0-6.2,4-11.5,10.5-11.5c6.8,0,11,6.2,10.2,12.7H203.2z M214.4,17.3c-0.2-3-2.2-5.8-5.5-5.8
		c-3.3,0-5.6,2.5-5.7,5.8H214.4z"/>
	<path fill="#8FA3AD" d="M222.9,8.3h4.5v3.2l0.1,0.1c1.4-2.4,3.9-3.9,6.8-3.9c4.7,0,7.7,2.5,7.7,7.4V30h-4.8V16.4
		c-0.1-3.4-1.4-4.9-4.2-4.9c-3.2,0-5.3,2.5-5.3,5.7V30h-4.8V8.3z"/>
	<path fill="#8FA3AD" d="M244.8,8.3h3.6V1.8h4.8v6.5h4.3v3.6h-4.3v11.6c0,2,0.2,3,2.3,3c0.7,0,1.3,0,2-0.2V30
		c-1.1,0.1-2.1,0.3-3.1,0.3c-5,0-5.9-1.9-6-5.5V11.9h-3.6V8.3z"/>
	<path fill="#8FA3AD" d="M260.9,8.3h4.5v4.2h0.1c0.5-2.3,3.4-4.8,6.3-4.8c1.1,0,1.4,0.1,1.8,0.1v4.6c-0.7-0.1-1.4-0.2-2.1-0.2
		c-3.3,0-5.9,2.6-5.9,7.4V30h-4.8V8.3z"/>
	<path fill="#8FA3AD" d="M293.9,25.2c0,1.2,0.3,1.6,1.1,1.6c0.3,0,0.7,0,1.2-0.1v3.3c-0.7,0.3-2.2,0.5-3,0.5c-1.9,0-3.3-0.7-3.7-2.6
		c-1.9,1.8-5,2.6-7.5,2.6c-3.9,0-7.4-2.1-7.4-6.3c0-5.4,4.3-6.3,8.4-6.8c3.4-0.6,6.5-0.3,6.5-3.1c0-2.5-2.6-2.9-4.5-2.9
		c-2.7,0-4.6,1.1-4.8,3.4h-4.8c0.3-5.6,5.1-7.2,9.9-7.2c4.2,0,8.7,1.7,8.7,6.3V25.2z M289.1,19.1c-1.5,1-3.8,0.9-5.9,1.3
		c-2.1,0.3-3.9,1.1-3.9,3.6c0,2.1,2.7,2.8,4.4,2.8c2.1,0,5.4-1.1,5.4-4.1V19.1z"/>
	<path fill="#8FA3AD" d="M299.2,0h4.8v30h-4.8V0z"/>
	<path fill="#8FA3AD" d="M309.3,0h4.8v4.5h-4.8V0z M309.3,8.3h4.8V30h-4.8V8.3z"/>
	<path fill="#8FA3AD" d="M322.9,23c0.3,2.8,2.4,3.8,4.9,3.8c1.8,0,5-0.4,4.8-2.9c-0.1-2.5-3.6-2.8-7.1-3.6c-3.5-0.8-7-2-7-6.4
		c0-4.7,5.1-6.2,9.1-6.2c4.5,0,8.5,1.8,9.1,6.7h-5c-0.4-2.3-2.3-2.9-4.4-2.9c-1.4,0-3.9,0.3-3.9,2.2c0,2.4,3.5,2.7,7.1,3.5
		c3.5,0.8,7,2.1,7,6.3c0,5.2-5.2,7.1-9.7,7.1c-5.5,0-9.5-2.4-9.6-7.6H322.9z"/>
	<path fill="#8FA3AD" d="M359.3,25.2c0,1.2,0.3,1.6,1.1,1.6c0.3,0,0.7,0,1.2-0.1v3.3c-0.7,0.3-2.2,0.5-3,0.5c-1.9,0-3.3-0.7-3.7-2.6
		c-1.9,1.8-5,2.6-7.5,2.6c-3.9,0-7.4-2.1-7.4-6.3c0-5.4,4.3-6.3,8.4-6.8c3.4-0.6,6.5-0.3,6.5-3.1c0-2.5-2.6-2.9-4.5-2.9
		c-2.7,0-4.6,1.1-4.8,3.4h-4.8c0.3-5.6,5.1-7.2,9.9-7.2c4.2,0,8.7,1.7,8.7,6.3V25.2z M354.5,19.1c-1.5,1-3.8,0.9-5.9,1.3
		c-2.1,0.3-3.9,1.1-3.9,3.6c0,2.1,2.7,2.8,4.4,2.8c2.1,0,5.4-1.1,5.4-4.1V19.1z"/>
	<path fill="#8FA3AD" d="M362.3,8.3h3.6V1.8h4.8v6.5h4.3v3.6h-4.3v11.6c0,2,0.2,3,2.3,3c0.7,0,1.3,0,2-0.2V30
		c-1.1,0.1-2.1,0.3-3.1,0.3c-5,0-5.9-1.9-6-5.5V11.9h-3.6V8.3z"/>
	<path fill="#8FA3AD" d="M378.6,0h4.8v4.5h-4.8V0z M378.6,8.3h4.8V30h-4.8V8.3z"/>
	<path fill="#8FA3AD" d="M387.6,19.1c0-6.6,4-11.4,11-11.4c7,0,11,4.8,11,11.4c0,6.7-4,11.5-11,11.5
		C391.6,30.6,387.6,25.8,387.6,19.1z M404.7,19.1c0-3.7-1.9-7.6-6.2-7.6c-4.3,0-6.2,3.9-6.2,7.6c0,3.8,1.9,7.7,6.2,7.7
		C402.8,26.8,404.7,22.9,404.7,19.1z"/>
	<path fill="#8FA3AD" d="M413.5,8.3h4.5v3.2l0.1,0.1c1.4-2.4,3.9-3.9,6.8-3.9c4.7,0,7.7,2.5,7.7,7.4V30h-4.8V16.4
		c-0.1-3.4-1.4-4.9-4.2-4.9c-3.2,0-5.3,2.5-5.3,5.7V30h-4.8V8.3z"/>
	<path fill="#8FA3AD" d="M175.6,67.2h2v3.2h-2V67.2z M175.6,73.5h2V90h-2V73.5z"/>
	<path fill="#8FA3AD" d="M191.4,78.3c-0.1-2.5-2-3.6-4.3-3.6c-1.8,0-3.9,0.7-3.9,2.8c0,1.8,2,2.4,3.4,2.8l2.7,0.6
		c2.3,0.4,4.7,1.7,4.7,4.6c0,3.6-3.6,5-6.6,5c-3.8,0-6.5-1.8-6.8-5.8h2c0.2,2.7,2.2,4.1,4.9,4.1c1.9,0,4.5-0.8,4.5-3.1
		c0-1.9-1.8-2.6-3.6-3l-2.6-0.6c-2.6-0.7-4.6-1.6-4.6-4.4c0-3.4,3.3-4.6,6.2-4.6c3.3,0,5.9,1.7,6,5.3H191.4z"/>
	<path fill="#8FA3AD" d="M209,73.5h3.4v1.7H209v11.1c0,1.3,0.2,2.1,1.6,2.2c0.6,0,1.2,0,1.7-0.1v1.7c-0.6,0-1.2,0.1-1.8,0.1
		c-2.7,0-3.6-0.9-3.6-3.7V75.2h-2.9v-1.7h2.9v-5h2V73.5z"/>
	<path fill="#8FA3AD" d="M215.2,67.2h2v9.2h0.1c0.7-2,2.9-3.3,5.3-3.3c4.6,0,6,2.4,6,6.4V90h-2V79.7c0-2.8-0.9-5-4.2-5
		c-3.2,0-5.1,2.4-5.2,5.7V90h-2V67.2z"/>
	<path fill="#8FA3AD" d="M233.6,82.3c0,2.9,1.6,6.5,5.4,6.5c2.9,0,4.5-1.7,5.2-4.2h2c-0.9,3.7-3,5.9-7.2,5.9c-5.2,0-7.5-4-7.5-8.7
		c0-4.4,2.2-8.7,7.5-8.7c5.3,0,7.4,4.6,7.3,9.3H233.6z M244.3,80.6c-0.1-3-2-5.9-5.2-5.9c-3.3,0-5.1,2.9-5.4,5.9H244.3z"/>
	<path fill="#8FA3AD" d="M269.6,78.7c-0.5-2.5-2-4-4.7-4c-3.9,0-5.8,3.5-5.8,7c0,3.5,1.9,7,5.8,7c2.5,0,4.5-2,4.8-4.7h2
		c-0.5,4-3.1,6.4-6.8,6.4c-5.1,0-7.8-4-7.8-8.7c0-4.7,2.8-8.7,7.8-8.7c3.5,0,6.2,1.9,6.7,5.7H269.6z"/>
	<path fill="#8FA3AD" d="M289.3,81.8c0,4.7-2.8,8.7-7.8,8.7s-7.8-4-7.8-8.7c0-4.7,2.8-8.7,7.8-8.7S289.3,77,289.3,81.8z M275.7,81.8
		c0,3.5,1.9,7,5.8,7c3.9,0,5.8-3.5,5.8-7c0-3.5-1.9-7-5.8-7C277.6,74.7,275.7,78.2,275.7,81.8z"/>
	<path fill="#8FA3AD" d="M292.3,73.5h2v2.8h0.1c0.7-2,2.9-3.3,5.3-3.3c4.6,0,6,2.4,6,6.4V90h-2V79.7c0-2.8-0.9-5-4.2-5
		c-3.2,0-5.1,2.4-5.2,5.7V90h-2V73.5z"/>
	<path fill="#8FA3AD" d="M321.1,78.7c-0.5-2.5-2-4-4.7-4c-3.9,0-5.8,3.5-5.8,7c0,3.5,1.9,7,5.8,7c2.5,0,4.5-2,4.8-4.7h2
		c-0.5,4-3.1,6.4-6.8,6.4c-5.1,0-7.8-4-7.8-8.7c0-4.7,2.8-8.7,7.8-8.7c3.5,0,6.2,1.9,6.7,5.7H321.1z"/>
	<path fill="#8FA3AD" d="M327.3,82.3c0,2.9,1.6,6.5,5.4,6.5c2.9,0,4.5-1.7,5.2-4.2h2c-0.9,3.7-3,5.9-7.2,5.9c-5.2,0-7.5-4-7.5-8.7
		c0-4.4,2.2-8.7,7.5-8.7c5.3,0,7.4,4.6,7.3,9.3H327.3z M338,80.6c-0.1-3-2-5.9-5.2-5.9c-3.3,0-5.1,2.9-5.4,5.9H338z"/>
	<path fill="#8FA3AD" d="M342.7,73.5h2v2.8h0.1c0.7-2,2.9-3.3,5.3-3.3c4.6,0,6,2.4,6,6.4V90h-2V79.7c0-2.8-0.9-5-4.2-5
		c-3.2,0-5.1,2.4-5.2,5.7V90h-2V73.5z"/>
	<path fill="#8FA3AD" d="M363.1,73.5h3.4v1.7h-3.4v11.1c0,1.3,0.2,2.1,1.6,2.2c0.6,0,1.2,0,1.7-0.1v1.7c-0.6,0-1.2,0.1-1.8,0.1
		c-2.7,0-3.6-0.9-3.6-3.7V75.2h-2.9v-1.7h2.9v-5h2V73.5z"/>
	<path fill="#8FA3AD" d="M369.4,73.5h1.9v3.9h0.1c1-2.7,3.3-4.2,6.2-4.1v2c-3.6-0.2-6.1,2.5-6.1,5.9V90h-2V73.5z"/>
	<path fill="#8FA3AD" d="M379.3,78.6c0.2-3.9,2.9-5.5,6.7-5.5c2.9,0,6.1,0.9,6.1,5.3v8.8c0,0.8,0.4,1.2,1.2,1.2
		c0.2,0,0.5-0.1,0.6-0.1v1.7c-0.4,0.1-0.8,0.1-1.3,0.1c-2,0-2.4-1.2-2.4-2.9h-0.1c-1.4,2.1-2.8,3.4-6,3.4c-3,0-5.5-1.5-5.5-4.8
		c0-4.6,4.5-4.8,8.9-5.3c1.7-0.2,2.6-0.4,2.6-2.2c0-2.7-2-3.4-4.3-3.4c-2.5,0-4.4,1.2-4.4,3.8H379.3z M390,81L390,81
		c-0.3,0.5-1.2,0.6-1.8,0.7c-3.4,0.6-7.7,0.6-7.7,3.8c0,2,1.8,3.3,3.7,3.3c3.1,0,5.8-2,5.8-5.2V81z"/>
	<path fill="#8FA3AD" d="M399.3,73.5h3.4v1.7h-3.4v11.1c0,1.3,0.2,2.1,1.6,2.2c0.6,0,1.2,0,1.7-0.1v1.7c-0.6,0-1.2,0.1-1.8,0.1
		c-2.7,0-3.6-0.9-3.6-3.7V75.2h-2.9v-1.7h2.9v-5h2V73.5z"/>
	<path fill="#8FA3AD" d="M405.6,67.2h2v3.2h-2V67.2z M405.6,73.5h2V90h-2V73.5z"/>
	<path fill="#8FA3AD" d="M426.2,81.8c0,4.7-2.8,8.7-7.8,8.7s-7.8-4-7.8-8.7c0-4.7,2.8-8.7,7.8-8.7S426.2,77,426.2,81.8z M412.6,81.8
		c0,3.5,1.9,7,5.8,7c3.9,0,5.8-3.5,5.8-7c0-3.5-1.9-7-5.8-7C414.5,74.7,412.6,78.2,412.6,81.8z"/>
	<path fill="#8FA3AD" d="M429.2,73.5h2v2.8h0.1c0.7-2,2.9-3.3,5.3-3.3c4.6,0,6,2.4,6,6.4V90h-2V79.7c0-2.8-0.9-5-4.2-5
		c-3.2,0-5.1,2.4-5.2,5.7V90h-2V73.5z"/>
	<path fill="#8FA3AD" d="M470.1,81.8c0,4.7-2.8,8.7-7.8,8.7c-5.1,0-7.8-4-7.8-8.7c0-4.7,2.8-8.7,7.8-8.7
		C467.3,73,470.1,77,470.1,81.8z M456.5,81.8c0,3.5,1.9,7,5.8,7c3.9,0,5.8-3.5,5.8-7c0-3.5-1.9-7-5.8-7
		C458.4,74.7,456.5,78.2,456.5,81.8z"/>
	<path fill="#8FA3AD" d="M479.5,75.2h-3.3V90h-2V75.2h-2.8v-1.7h2.8V72c0-2.8,0.8-4.8,4-4.8c0.6,0,1.1,0,1.7,0.1V69
		c-0.5-0.1-1-0.2-1.5-0.2c-2.2,0-2.2,1.4-2.2,3.2v1.4h3.3V75.2z"/>
	<path fill="#8FA3AD" d="M490.3,73.5h1.9v3.1h0.1c0.9-2.2,3.2-3.6,5.9-3.6c5,0,7.4,4.1,7.4,8.7c0,4.7-2.4,8.7-7.4,8.7
		c-2.5,0-4.9-1.2-5.7-3.6h-0.1v9.2h-2V73.5z M498.1,74.7c-4.4,0-5.8,3.3-5.8,7c0,3.4,1.5,7,5.8,7c3.8,0,5.4-3.6,5.4-7
		C503.5,78.3,501.9,74.7,498.1,74.7z"/>
	<path fill="#8FA3AD" d="M523.4,81.8c0,4.7-2.8,8.7-7.8,8.7c-5.1,0-7.8-4-7.8-8.7c0-4.7,2.8-8.7,7.8-8.7
		C520.7,73,523.4,77,523.4,81.8z M509.8,81.8c0,3.5,1.9,7,5.8,7c3.9,0,5.8-3.5,5.8-7c0-3.5-1.9-7-5.8-7
		C511.8,74.7,509.8,78.2,509.8,81.8z"/>
	<path fill="#8FA3AD" d="M524.8,73.5h2.1l4.2,14.1h0.1l4-14.1h2.3l4,14.1h0.1l4.2-14.1h2.1L542.7,90h-2.2l-4.1-13.9h-0.1l-4,13.9
		h-2.2L524.8,73.5z"/>
	<path fill="#8FA3AD" d="M551.3,82.3c0,2.9,1.6,6.5,5.4,6.5c2.9,0,4.5-1.7,5.2-4.2h2c-0.9,3.7-3,5.9-7.2,5.9c-5.2,0-7.5-4-7.5-8.7
		c0-4.4,2.2-8.7,7.5-8.7c5.3,0,7.4,4.6,7.3,9.3H551.3z M562,80.6c-0.1-3-2-5.9-5.2-5.9c-3.3,0-5.1,2.9-5.4,5.9H562z"/>
	<path fill="#8FA3AD" d="M566.8,73.5h1.9v3.9h0.1c1-2.7,3.3-4.2,6.2-4.1v2c-3.6-0.2-6.1,2.5-6.1,5.9V90h-2V73.5z"/>
	<path fill="#8FA3AD" d="M585.8,67.2h2v3.2h-2V67.2z M585.8,73.5h2V90h-2V73.5z"/>
	<path fill="#8FA3AD" d="M591.6,73.5h2v2.8h0.1c0.7-2,2.9-3.3,5.3-3.3c4.6,0,6,2.4,6,6.4V90h-2V79.7c0-2.8-0.9-5-4.2-5
		c-3.2,0-5.1,2.4-5.2,5.7V90h-2V73.5z"/>
	<path fill="#8FA3AD" d="M178.7,121.5h3.4v1.7h-3.4v11.1c0,1.3,0.2,2.1,1.6,2.2c0.6,0,1.2,0,1.7-0.1v1.7c-0.6,0-1.2,0.1-1.8,0.1
		c-2.7,0-3.6-0.9-3.6-3.7v-11.3h-2.9v-1.7h2.9v-5h2V121.5z"/>
	<path fill="#8FA3AD" d="M185,115.2h2v9.2h0.1c0.7-2,2.9-3.3,5.3-3.3c4.6,0,6,2.4,6,6.4V138h-2v-10.3c0-2.8-0.9-5-4.2-5
		c-3.2,0-5.1,2.4-5.2,5.7v9.6h-2V115.2z"/>
	<path fill="#8FA3AD" d="M203.4,130.3c0,2.9,1.6,6.5,5.4,6.5c2.9,0,4.5-1.7,5.2-4.2h2c-0.9,3.7-3,5.9-7.2,5.9c-5.2,0-7.5-4-7.5-8.7
		c0-4.4,2.2-8.7,7.5-8.7c5.3,0,7.4,4.6,7.3,9.3H203.4z M214.1,128.6c-0.1-3-2-5.9-5.2-5.9c-3.3,0-5.1,2.9-5.4,5.9H214.1z"/>
	<path fill="#8FA3AD" d="M239.4,126.7c-0.5-2.5-2-4-4.7-4c-3.9,0-5.8,3.5-5.8,7c0,3.5,1.9,7,5.8,7c2.5,0,4.5-2,4.8-4.7h2
		c-0.5,4-3.1,6.4-6.8,6.4c-5.1,0-7.8-4-7.8-8.7c0-4.7,2.8-8.7,7.8-8.7c3.5,0,6.2,1.9,6.7,5.7H239.4z"/>
	<path fill="#8FA3AD" d="M259.1,129.8c0,4.7-2.8,8.7-7.8,8.7c-5.1,0-7.8-4-7.8-8.7c0-4.7,2.8-8.7,7.8-8.7
		C256.3,121,259.1,125,259.1,129.8z M245.5,129.8c0,3.5,1.9,7,5.8,7c3.9,0,5.8-3.5,5.8-7c0-3.5-1.9-7-5.8-7
		C247.4,122.7,245.5,126.2,245.5,129.8z"/>
	<path fill="#8FA3AD" d="M262.1,121.5h1.9v2.8h0.1c1.1-2,2.8-3.3,5.4-3.3c2.2,0,4.1,1.1,4.7,3.2c1-2.2,3.1-3.2,5.2-3.2
		c3.6,0,5.5,1.9,5.5,5.8V138h-2v-11.1c0-2.7-1-4.2-3.9-4.2c-3.5,0-4.5,2.9-4.5,6v9.3h-2v-11.2c0-2.2-0.9-4.1-3.5-4.1
		c-3.5,0-4.9,2.6-4.9,6.1v9.2h-2V121.5z"/>
	<path fill="#8FA3AD" d="M288.8,121.5h1.9v2.8h0.1c1.1-2,2.8-3.3,5.4-3.3c2.2,0,4.1,1.1,4.7,3.2c1-2.2,3.1-3.2,5.2-3.2
		c3.6,0,5.5,1.9,5.5,5.8V138h-2v-11.1c0-2.7-1-4.2-3.9-4.2c-3.5,0-4.5,2.9-4.5,6v9.3h-2v-11.2c0-2.2-0.9-4.1-3.5-4.1
		c-3.5,0-4.9,2.6-4.9,6.1v9.2h-2V121.5z"/>
	<path fill="#8FA3AD" d="M328.8,138h-1.9v-3h-0.1c-1.1,2.2-3.2,3.5-5.7,3.5c-4.2,0-5.8-2.4-5.8-6.3v-10.7h2v10.8
		c0.1,3,1.2,4.5,4.4,4.5c3.5,0,5-3.3,5-6.6v-8.7h2V138z"/>
	<path fill="#8FA3AD" d="M332.6,121.5h2v2.8h0.1c0.7-2,2.9-3.3,5.3-3.3c4.6,0,6,2.4,6,6.4V138h-2v-10.3c0-2.8-0.9-5-4.2-5
		c-3.2,0-5.1,2.4-5.2,5.7v9.6h-2V121.5z"/>
	<path fill="#8FA3AD" d="M349.8,115.2h2v3.2h-2V115.2z M349.8,121.5h2V138h-2V121.5z"/>
	<path fill="#8FA3AD" d="M358.9,121.5h3.4v1.7h-3.4v11.1c0,1.3,0.2,2.1,1.6,2.2c0.6,0,1.2,0,1.7-0.1v1.7c-0.6,0-1.2,0.1-1.8,0.1
		c-2.7,0-3.6-0.9-3.6-3.7v-11.3H354v-1.7h2.9v-5h2V121.5z"/>
	<path fill="#8FA3AD" d="M363.3,121.5h2.1l5.4,14.1l5.1-14.1h2l-7.2,19c-1.2,2.8-1.8,3.6-4.4,3.6c-0.8,0-1.2,0-1.5-0.2v-1.7
		c0.5,0.1,0.9,0.2,1.4,0.2c1.8,0,2.2-1.1,2.9-2.6l0.7-1.9L363.3,121.5z"/>
	<path fill="#8FA3AD" d="M403.7,129.8c0,4.7-2.8,8.7-7.8,8.7s-7.8-4-7.8-8.7c0-4.7,2.8-8.7,7.8-8.7S403.7,125,403.7,129.8z
		 M390.1,129.8c0,3.5,1.9,7,5.8,7c3.9,0,5.8-3.5,5.8-7c0-3.5-1.9-7-5.8-7C392,122.7,390.1,126.2,390.1,129.8z"/>
	<path fill="#8FA3AD" d="M413,123.2h-3.3V138h-2v-14.8H405v-1.7h2.8V120c0-2.8,0.8-4.8,4-4.8c0.6,0,1.1,0,1.7,0.1v1.7
		c-0.5-0.1-1-0.2-1.5-0.2c-2.2,0-2.2,1.4-2.2,3.2v1.4h3.3V123.2z"/>
	<path fill="#8FA3AD" d="M423.9,121.5h1.9v2.8h0.1c1.1-2,2.8-3.3,5.4-3.3c2.2,0,4.1,1.1,4.7,3.2c1-2.2,3.1-3.2,5.2-3.2
		c3.6,0,5.5,1.9,5.5,5.8V138h-2v-11.1c0-2.7-1-4.2-3.9-4.2c-3.5,0-4.5,2.9-4.5,6v9.3h-2v-11.2c0-2.2-0.9-4.1-3.5-4.1
		c-3.5,0-4.9,2.6-4.9,6.1v9.2h-2V121.5z"/>
	<path fill="#8FA3AD" d="M450.6,115.2h2v3.2h-2V115.2z M450.6,121.5h2V138h-2V121.5z"/>
	<path fill="#8FA3AD" d="M456.4,121.5h2v2.8h0.1c0.7-2,2.9-3.3,5.3-3.3c4.6,0,6,2.4,6,6.4V138h-2v-10.3c0-2.8-0.9-5-4.2-5
		c-3.2,0-5.1,2.4-5.2,5.7v9.6h-2V121.5z"/>
	<path fill="#8FA3AD" d="M474.8,130.3c0,2.9,1.6,6.5,5.4,6.5c2.9,0,4.5-1.7,5.2-4.2h2c-0.9,3.7-3,5.9-7.2,5.9c-5.2,0-7.5-4-7.5-8.7
		c0-4.4,2.2-8.7,7.5-8.7c5.3,0,7.4,4.6,7.3,9.3H474.8z M485.5,128.6c-0.1-3-2-5.9-5.2-5.9c-3.3,0-5.1,2.9-5.4,5.9H485.5z"/>
	<path fill="#8FA3AD" d="M490.2,121.5h1.9v3.9h0.1c1-2.7,3.3-4.2,6.2-4.1v2c-3.6-0.2-6.1,2.5-6.1,5.9v8.8h-2V121.5z"/>
	<path fill="#8FA3AD" d="M510.2,126.3c-0.1-2.5-2-3.6-4.3-3.6c-1.8,0-3.9,0.7-3.9,2.8c0,1.8,2,2.4,3.4,2.8l2.7,0.6
		c2.3,0.4,4.7,1.7,4.7,4.6c0,3.6-3.6,5-6.6,5c-3.8,0-6.5-1.8-6.8-5.8h2c0.2,2.7,2.2,4.1,4.9,4.1c1.9,0,4.5-0.8,4.5-3.1
		c0-1.9-1.8-2.6-3.6-3l-2.6-0.6c-2.6-0.7-4.6-1.6-4.6-4.4c0-3.4,3.3-4.6,6.2-4.6c3.3,0,5.9,1.7,6,5.3H510.2z"/>
	<path fill="#8FA3AD" d="M516.9,138v-3.4h2.7v3.4H516.9z"/>
	<path fill="#8FA3AD" d="M531.6,115.2h2.3l5.2,20h0.1l5.6-20h2.7l5.6,20h0.1l5.2-20h2.2l-6.3,22.8h-2.3l-5.8-20.4H546l-5.8,20.4
		h-2.4L531.6,115.2z"/>
	<path fill="#8FA3AD" d="M563.1,130.3c0,2.9,1.6,6.5,5.4,6.5c2.9,0,4.5-1.7,5.2-4.2h2c-0.9,3.7-3,5.9-7.2,5.9c-5.2,0-7.5-4-7.5-8.7
		c0-4.4,2.2-8.7,7.5-8.7c5.3,0,7.4,4.6,7.3,9.3H563.1z M573.8,128.6c-0.1-3-2-5.9-5.2-5.9c-3.3,0-5.1,2.9-5.4,5.9H573.8z"/>
	<path fill="#8FA3AD" d="M175.5,169.5h1.9v2.8h0.1c1.1-2,2.8-3.3,5.4-3.3c2.2,0,4.1,1.1,4.7,3.2c1-2.2,3.1-3.2,5.2-3.2
		c3.6,0,5.5,1.9,5.5,5.8V186h-2v-11.1c0-2.7-1-4.2-3.9-4.2c-3.5,0-4.5,2.9-4.5,6v9.3h-2v-11.2c0-2.2-0.9-4.1-3.5-4.1
		c-3.5,0-4.9,2.6-4.9,6.1v9.2h-2V169.5z"/>
	<path fill="#8FA3AD" d="M203.4,178.3c0,2.9,1.6,6.5,5.4,6.5c2.9,0,4.5-1.7,5.2-4.2h2c-0.9,3.7-3,5.9-7.2,5.9c-5.2,0-7.5-4-7.5-8.7
		c0-4.4,2.2-8.7,7.5-8.7c5.3,0,7.4,4.6,7.3,9.3H203.4z M214.1,176.6c-0.1-3-2-5.9-5.2-5.9c-3.3,0-5.1,2.9-5.4,5.9H214.1z"/>
	<path fill="#8FA3AD" d="M218.6,174.6c0.2-3.9,2.9-5.5,6.7-5.5c2.9,0,6.1,0.9,6.1,5.3v8.8c0,0.8,0.4,1.2,1.2,1.2
		c0.2,0,0.5-0.1,0.6-0.1v1.7c-0.4,0.1-0.8,0.1-1.3,0.1c-2,0-2.4-1.2-2.4-2.9h-0.1c-1.4,2.1-2.8,3.4-6,3.4c-3,0-5.5-1.5-5.5-4.8
		c0-4.6,4.5-4.8,8.9-5.3c1.7-0.2,2.6-0.4,2.6-2.2c0-2.7-2-3.4-4.3-3.4c-2.5,0-4.4,1.2-4.4,3.8H218.6z M229.4,177L229.4,177
		c-0.3,0.5-1.2,0.6-1.8,0.7c-3.4,0.6-7.7,0.6-7.7,3.8c0,2,1.8,3.3,3.7,3.3c3.1,0,5.8-2,5.8-5.2V177z"/>
	<path fill="#8FA3AD" d="M245.3,174.3c-0.1-2.5-2-3.6-4.3-3.6c-1.8,0-3.9,0.7-3.9,2.8c0,1.8,2,2.4,3.4,2.8l2.7,0.6
		c2.3,0.4,4.7,1.7,4.7,4.6c0,3.6-3.6,5-6.6,5c-3.8,0-6.5-1.8-6.8-5.8h2c0.2,2.7,2.2,4.1,4.9,4.1c1.9,0,4.5-0.8,4.5-3.1
		c0-1.9-1.8-2.6-3.6-3l-2.6-0.6c-2.6-0.7-4.6-1.6-4.6-4.4c0-3.4,3.3-4.6,6.2-4.6c3.3,0,5.9,1.7,6,5.3H245.3z"/>
	<path fill="#8FA3AD" d="M264.2,186h-1.9v-3h-0.1c-1.1,2.2-3.2,3.5-5.7,3.5c-4.2,0-5.8-2.4-5.8-6.3v-10.7h2v10.8
		c0.1,3,1.2,4.5,4.4,4.5c3.5,0,5-3.3,5-6.6v-8.7h2V186z"/>
	<path fill="#8FA3AD" d="M268,169.5h1.9v3.9h0.1c1-2.7,3.3-4.2,6.2-4.1v2c-3.6-0.2-6.1,2.5-6.1,5.9v8.8h-2V169.5z"/>
	<path fill="#8FA3AD" d="M278.7,178.3c0,2.9,1.6,6.5,5.4,6.5c2.9,0,4.5-1.7,5.2-4.2h2c-0.9,3.7-3,5.9-7.2,5.9c-5.2,0-7.5-4-7.5-8.7
		c0-4.4,2.2-8.7,7.5-8.7c5.3,0,7.4,4.6,7.3,9.3H278.7z M289.4,176.6c-0.1-3-2-5.9-5.2-5.9c-3.3,0-5.1,2.9-5.4,5.9H289.4z"/>
	<path fill="#8FA3AD" d="M306.2,169.5h3.4v1.7h-3.4v11.1c0,1.3,0.2,2.1,1.6,2.2c0.6,0,1.2,0,1.7-0.1v1.7c-0.6,0-1.2,0.1-1.8,0.1
		c-2.7,0-3.6-0.9-3.6-3.7v-11.3h-2.9v-1.7h2.9v-5h2V169.5z"/>
	<path fill="#8FA3AD" d="M312.4,163.2h2v9.2h0.1c0.7-2,2.9-3.3,5.3-3.3c4.6,0,6,2.4,6,6.4V186h-2v-10.3c0-2.8-0.9-5-4.2-5
		c-3.2,0-5.1,2.4-5.2,5.7v9.6h-2V163.2z"/>
	<path fill="#8FA3AD" d="M329.7,163.2h2v3.2h-2V163.2z M329.7,169.5h2V186h-2V169.5z"/>
	<path fill="#8FA3AD" d="M345.5,174.3c-0.1-2.5-2-3.6-4.3-3.6c-1.8,0-3.9,0.7-3.9,2.8c0,1.8,2,2.4,3.4,2.8l2.7,0.6
		c2.3,0.4,4.7,1.7,4.7,4.6c0,3.6-3.6,5-6.6,5c-3.8,0-6.5-1.8-6.8-5.8h2c0.2,2.7,2.2,4.1,4.9,4.1c1.9,0,4.5-0.8,4.5-3.1
		c0-1.9-1.8-2.6-3.6-3l-2.6-0.6c-2.6-0.7-4.6-1.6-4.6-4.4c0-3.4,3.3-4.6,6.2-4.6c3.3,0,5.9,1.7,6,5.3H345.5z"/>
	<path fill="#8FA3AD" d="M359.9,169.5h1.9v3.9h0.1c1-2.7,3.3-4.2,6.2-4.1v2c-3.6-0.2-6.1,2.5-6.1,5.9v8.8h-2V169.5z"/>
	<path fill="#8FA3AD" d="M370,163.2h2v3.2h-2V163.2z M370,169.5h2V186h-2V169.5z"/>
	<path fill="#8FA3AD" d="M385.8,174.3c-0.1-2.5-2-3.6-4.3-3.6c-1.8,0-3.9,0.7-3.9,2.8c0,1.8,2,2.4,3.4,2.8l2.7,0.6
		c2.3,0.4,4.7,1.7,4.7,4.6c0,3.6-3.6,5-6.6,5c-3.8,0-6.5-1.8-6.8-5.8h2c0.2,2.7,2.2,4.1,4.9,4.1c1.9,0,4.5-0.8,4.5-3.1
		c0-1.9-1.8-2.6-3.6-3l-2.6-0.6c-2.6-0.7-4.6-1.6-4.6-4.4c0-3.4,3.3-4.6,6.2-4.6c3.3,0,5.9,1.7,6,5.3H385.8z"/>
	<path fill="#8FA3AD" d="M391.3,163.2h2v14.3l9.2-8h2.7l-7,6.1l7.5,10.4h-2.5l-6.5-9l-3.3,2.7v6.3h-2V163.2z"/>
	<path fill="#8FA3AD" d="M414.5,169.5h2.1l4.2,14.1h0.1l4-14.1h2.3l4,14.1h0.1l4.2-14.1h2.1l-5.3,16.5h-2.2l-4.1-13.9H426l-4,13.9
		h-2.2L414.5,169.5z"/>
	<path fill="#8FA3AD" d="M439.9,163.2h2v3.2h-2V163.2z M439.9,169.5h2V186h-2V169.5z"/>
	<path fill="#8FA3AD" d="M449,169.5h3.4v1.7H449v11.1c0,1.3,0.2,2.1,1.6,2.2c0.6,0,1.2,0,1.7-0.1v1.7c-0.6,0-1.2,0.1-1.8,0.1
		c-2.7,0-3.6-0.9-3.6-3.7v-11.3h-2.9v-1.7h2.9v-5h2V169.5z"/>
	<path fill="#8FA3AD" d="M455.2,163.2h2v9.2h0.1c0.7-2,2.9-3.3,5.3-3.3c4.6,0,6,2.4,6,6.4V186h-2v-10.3c0-2.8-0.9-5-4.2-5
		c-3.2,0-5.1,2.4-5.2,5.7v9.6h-2V163.2z"/>
	<path fill="#8FA3AD" d="M484.5,169.5h3.4v1.7h-3.4v11.1c0,1.3,0.2,2.1,1.6,2.2c0.6,0,1.2,0,1.7-0.1v1.7c-0.6,0-1.2,0.1-1.8,0.1
		c-2.7,0-3.6-0.9-3.6-3.7v-11.3h-2.9v-1.7h2.9v-5h2V169.5z"/>
	<path fill="#8FA3AD" d="M490.8,163.2h2v9.2h0.1c0.7-2,2.9-3.3,5.3-3.3c4.6,0,6,2.4,6,6.4V186h-2v-10.3c0-2.8-0.9-5-4.2-5
		c-3.2,0-5.1,2.4-5.2,5.7v9.6h-2V163.2z"/>
	<path fill="#8FA3AD" d="M509.2,178.3c0,2.9,1.6,6.5,5.4,6.5c2.9,0,4.5-1.7,5.2-4.2h2c-0.9,3.7-3,5.9-7.2,5.9c-5.2,0-7.5-4-7.5-8.7
		c0-4.4,2.2-8.7,7.5-8.7c5.3,0,7.4,4.6,7.3,9.3H509.2z M519.9,176.6c-0.1-3-2-5.9-5.2-5.9c-3.3,0-5.1,2.9-5.4,5.9H519.9z"/>
	<path fill="#8FA3AD" d="M192.6,218.1c-0.8-3.5-3.7-5.5-7-5.5c-6,0-8.6,5.1-8.6,10c0,5,2.6,10,8.6,10c4.2,0,6.9-3.3,7.3-7.3h2.2
		c-0.6,5.6-4.2,9.2-9.5,9.2c-7.2,0-10.8-5.7-10.8-11.9c0-6.2,3.6-11.9,10.8-11.9c4.3,0,8.6,2.6,9.2,7.4H192.6z"/>
	<path fill="#8FA3AD" d="M199.3,226.3c0,2.9,1.6,6.5,5.4,6.5c2.9,0,4.5-1.7,5.2-4.2h2c-0.9,3.7-3,5.9-7.2,5.9c-5.2,0-7.5-4-7.5-8.7
		c0-4.4,2.2-8.7,7.5-8.7c5.3,0,7.4,4.6,7.3,9.3H199.3z M209.9,224.6c-0.1-3-2-5.9-5.2-5.9c-3.3,0-5.1,2.9-5.4,5.9H209.9z"/>
	<path fill="#8FA3AD" d="M214.6,217.5h2v2.8h0.1c0.7-2,2.9-3.3,5.3-3.3c4.6,0,6,2.4,6,6.4V234h-2v-10.3c0-2.8-0.9-5-4.2-5
		c-3.2,0-5.1,2.4-5.2,5.7v9.6h-2V217.5z"/>
	<path fill="#8FA3AD" d="M235.1,217.5h3.4v1.7h-3.4v11.1c0,1.3,0.2,2.1,1.6,2.2c0.6,0,1.2,0,1.7-0.1v1.7c-0.6,0-1.2,0.1-1.8,0.1
		c-2.7,0-3.6-0.9-3.6-3.7v-11.3h-2.9v-1.7h2.9v-5h2V217.5z"/>
	<path fill="#8FA3AD" d="M241.3,217.5h1.9v3.9h0.1c1-2.7,3.3-4.2,6.2-4.1v2c-3.6-0.2-6.1,2.5-6.1,5.9v8.8h-2V217.5z"/>
	<path fill="#8FA3AD" d="M251.2,222.6c0.2-3.9,2.9-5.5,6.7-5.5c2.9,0,6.1,0.9,6.1,5.3v8.8c0,0.8,0.4,1.2,1.2,1.2
		c0.2,0,0.5-0.1,0.6-0.1v1.7c-0.4,0.1-0.8,0.1-1.3,0.1c-2,0-2.4-1.2-2.4-2.9h-0.1c-1.4,2.1-2.8,3.4-6,3.4c-3,0-5.5-1.5-5.5-4.8
		c0-4.6,4.5-4.8,8.9-5.3c1.7-0.2,2.6-0.4,2.6-2.2c0-2.7-2-3.4-4.3-3.4c-2.5,0-4.4,1.2-4.4,3.8H251.2z M262,225L262,225
		c-0.3,0.5-1.2,0.6-1.8,0.7c-3.4,0.6-7.7,0.6-7.7,3.8c0,2,1.8,3.3,3.7,3.3c3.1,0,5.8-2,5.8-5.2V225z"/>
	<path fill="#8FA3AD" d="M268.1,211.2h2V234h-2V211.2z"/>
	<path fill="#8FA3AD" d="M274,211.2h2v3.2h-2V211.2z M274,217.5h2V234h-2V217.5z"/>
	<path fill="#8FA3AD" d="M289.8,222.3c-0.1-2.5-2-3.6-4.3-3.6c-1.8,0-3.9,0.7-3.9,2.8c0,1.8,2,2.4,3.4,2.8l2.7,0.6
		c2.3,0.4,4.7,1.7,4.7,4.6c0,3.6-3.6,5-6.6,5c-3.8,0-6.5-1.8-6.8-5.8h2c0.2,2.7,2.2,4.1,4.9,4.1c1.9,0,4.5-0.8,4.5-3.1
		c0-1.9-1.8-2.6-3.6-3l-2.6-0.6c-2.6-0.7-4.6-1.6-4.6-4.4c0-3.4,3.3-4.6,6.2-4.6c3.3,0,5.9,1.7,6,5.3H289.8z"/>
	<path fill="#8FA3AD" d="M295.1,222.6c0.2-3.9,2.9-5.5,6.7-5.5c2.9,0,6.1,0.9,6.1,5.3v8.8c0,0.8,0.4,1.2,1.2,1.2
		c0.2,0,0.5-0.1,0.6-0.1v1.7c-0.4,0.1-0.8,0.1-1.3,0.1c-2,0-2.4-1.2-2.4-2.9h-0.1c-1.4,2.1-2.8,3.4-6,3.4c-3,0-5.5-1.5-5.5-4.8
		c0-4.6,4.5-4.8,8.9-5.3c1.7-0.2,2.6-0.4,2.6-2.2c0-2.7-2-3.4-4.3-3.4c-2.5,0-4.4,1.2-4.4,3.8H295.1z M305.8,225L305.8,225
		c-0.3,0.5-1.2,0.6-1.8,0.7c-3.4,0.6-7.7,0.6-7.7,3.8c0,2,1.8,3.3,3.7,3.3c3.1,0,5.8-2,5.8-5.2V225z"/>
	<path fill="#8FA3AD" d="M315.1,217.5h3.4v1.7h-3.4v11.1c0,1.3,0.2,2.1,1.6,2.2c0.6,0,1.2,0,1.7-0.1v1.7c-0.6,0-1.2,0.1-1.8,0.1
		c-2.7,0-3.6-0.9-3.6-3.7v-11.3h-2.9v-1.7h2.9v-5h2V217.5z"/>
	<path fill="#8FA3AD" d="M321.4,211.2h2v3.2h-2V211.2z M321.4,217.5h2V234h-2V217.5z"/>
	<path fill="#8FA3AD" d="M342,225.8c0,4.7-2.8,8.7-7.8,8.7s-7.8-4-7.8-8.7c0-4.7,2.8-8.7,7.8-8.7S342,221,342,225.8z M328.4,225.8
		c0,3.5,1.9,7,5.8,7c3.9,0,5.8-3.5,5.8-7c0-3.5-1.9-7-5.8-7C330.4,218.7,328.4,222.2,328.4,225.8z"/>
	<path fill="#8FA3AD" d="M345,217.5h2v2.8h0.1c0.7-2,2.9-3.3,5.3-3.3c4.6,0,6,2.4,6,6.4V234h-2v-10.3c0-2.8-0.9-5-4.2-5
		c-3.2,0-5.1,2.4-5.2,5.7v9.6h-2V217.5z"/>
	<path fill="#8FA3AD" d="M390.5,235.5l-3.6-2.7c-1.6,1.1-3.6,1.7-5.9,1.7c-7.2,0-10.8-5.7-10.8-11.9c0-6.2,3.6-11.9,10.8-11.9
		c7.2,0,10.8,5.7,10.8,11.9c0,3.5-1.2,6.8-3.5,9.1l3.3,2.5L390.5,235.5z M386.7,230.4c2-1.9,2.9-4.9,2.9-7.8c0-5-2.6-10-8.6-10
		c-6,0-8.6,5.1-8.6,10c0,5,2.6,10,8.6,10c1.7,0,3.1-0.4,4.2-1.1l-3-2.3l1.1-1.4L386.7,230.4z"/>
	<path fill="#8FA3AD" d="M408.2,234h-1.9v-3h-0.1c-1.1,2.2-3.2,3.5-5.7,3.5c-4.2,0-5.8-2.4-5.8-6.3v-10.7h2v10.8
		c0.1,3,1.2,4.5,4.4,4.5c3.5,0,5-3.3,5-6.6v-8.7h2V234z"/>
	<path fill="#8FA3AD" d="M426.8,225.8c0,4.7-2.8,8.7-7.8,8.7s-7.8-4-7.8-8.7c0-4.7,2.8-8.7,7.8-8.7S426.8,221,426.8,225.8z
		 M413.2,225.8c0,3.5,1.9,7,5.8,7c3.9,0,5.8-3.5,5.8-7c0-3.5-1.9-7-5.8-7C415.1,218.7,413.2,222.2,413.2,225.8z"/>
	<path fill="#8FA3AD" d="M433,217.5h3.4v1.7H433v11.1c0,1.3,0.2,2.1,1.6,2.2c0.6,0,1.2,0,1.7-0.1v1.7c-0.6,0-1.2,0.1-1.8,0.1
		c-2.7,0-3.6-0.9-3.6-3.7v-11.3h-2.9v-1.7h2.9v-5h2V217.5z"/>
	<path fill="#8FA3AD" d="M439.3,211.2h2v3.2h-2V211.2z M439.3,217.5h2V234h-2V217.5z"/>
	<path fill="#8FA3AD" d="M446.4,226.3c0,2.9,1.6,6.5,5.4,6.5c2.9,0,4.5-1.7,5.2-4.2h2c-0.9,3.7-3,5.9-7.2,5.9c-5.2,0-7.5-4-7.5-8.7
		c0-4.4,2.2-8.7,7.5-8.7c5.3,0,7.4,4.6,7.3,9.3H446.4z M457.1,224.6c-0.1-3-2-5.9-5.2-5.9c-3.3,0-5.1,2.9-5.4,5.9H457.1z"/>
	<path fill="#8FA3AD" d="M461.8,217.5h2v2.8h0.1c0.7-2,2.9-3.3,5.3-3.3c4.6,0,6,2.4,6,6.4V234h-2v-10.3c0-2.8-0.9-5-4.2-5
		c-3.2,0-5.1,2.4-5.2,5.7v9.6h-2V217.5z"/>
	<path fill="#8FA3AD" d="M482.2,217.5h3.4v1.7h-3.4v11.1c0,1.3,0.2,2.1,1.6,2.2c0.6,0,1.2,0,1.7-0.1v1.7c-0.6,0-1.2,0.1-1.8,0.1
		c-2.7,0-3.6-0.9-3.6-3.7v-11.3h-2.9v-1.7h2.9v-5h2V217.5z"/>
	<path fill="#8FA3AD" d="M489.7,234v-3.4h2.7v3.4H489.7z"/>
</g>
<g opacity="0.5">
	<path fill="#C2D3D1" d="M71.1,107.4H-0.5c0.1-17.2,9-30.3,23.1-39.7c13.6-9.9,31.3-18.1,31.6-34.5c0.1-7.5-3-18.6-17.7-18.6
		c-13.5,0-17.5,11.5-18,26.2H1.4c0-23.2,12.7-40.5,36.1-40.5c25.6,0,33.7,18.7,33.7,32.2c0,16.6-11.4,27-23.4,35.4
		C35.7,76.4,23,82.8,20,92.1h51.1V107.4z"/>
</g>
<line fill="none" stroke="#C2D3D1" stroke-miterlimit="10" x1="123" y1="0" x2="123" y2="236.1"/>
<g>
</g>
<g>
</g>
<g>
</g>
<g>
</g>
<g>
</g>
<g>
</g>
<g>
</g>
<g>
</g>
<g>
</g>
<g>
</g>
<g>
</g>
<g>
</g>
<g>
</g>
<g>
</g>
<g>
</g>
</svg>
