<?xml version="1.0" encoding="utf-8"?>
<!-- Generator: Adobe Illustrator 18.0.0, SVG Export Plug-In . SVG Version: 6.00 Build 0)  -->
<!DOCTYPE svg PUBLIC "-//W3C//DTD SVG 1.1//EN" "http://www.w3.org/Graphics/SVG/1.1/DTD/svg11.dtd">
<svg version="1.1" id="Layer_1" xmlns="http://www.w3.org/2000/svg" xmlns:xlink="http://www.w3.org/1999/xlink" x="0px" y="0px"
	 viewBox="0 0 604.6 224.6" enable-background="new 0 0 604.6 224.6" xml:space="preserve">
<g>
	<g>
		<path fill="#8FA3AD" d="M155.3,23c0.3,2.8,2.4,3.8,4.9,3.8c1.8,0,5-0.4,4.8-2.9c-0.1-2.5-3.6-2.8-7.1-3.6c-3.5-0.8-7-2-7-6.4
			c0-4.7,5.1-6.2,9.1-6.2c4.5,0,8.5,1.8,9.1,6.7h-5c-0.4-2.3-2.3-2.9-4.4-2.9c-1.4,0-3.9,0.3-3.9,2.2c0,2.4,3.5,2.7,7.1,3.5
			c3.5,0.8,7,2.1,7,6.3c0,5.2-5.2,7.1-9.7,7.1c-5.5,0-9.5-2.4-9.6-7.6H155.3z"/>
		<path fill="#8FA3AD" d="M173.6,8.3h4.5v2.9h0.1c1.3-2.5,3.9-3.5,6.7-3.5c6.8,0,10.2,5.2,10.2,11.6c0,5.8-2.9,11.3-9.4,11.3
			c-2.8,0-5.8-1-7.3-3.4h-0.1V38h-4.8V8.3z M184.3,11.5c-4,0-6.1,3.1-6.1,7.7c0,4.4,2.2,7.6,6.1,7.6c4.4,0,6-3.9,6-7.6
			C190.3,15.2,188.2,11.5,184.3,11.5z"/>
		<path fill="#8FA3AD" d="M202.8,20.4c0,3.4,1.8,6.4,5.8,6.4c2.8,0,4.5-1.2,5.3-3.6h4.5c-1,4.7-5.1,7.4-9.8,7.4
			c-6.8,0-10.6-4.7-10.6-11.4c0-6.2,4-11.5,10.5-11.5c6.8,0,11,6.2,10.2,12.7H202.8z M214,17.2c-0.2-3-2.2-5.8-5.5-5.8
			c-3.3,0-5.6,2.5-5.7,5.8H214z"/>
		<path fill="#8FA3AD" d="M237.1,15.5c-0.4-2.6-2.3-4.1-5-4.1c-2.5,0-6,1.3-6,7.9c0,3.6,1.6,7.4,5.8,7.4c2.8,0,4.7-1.8,5.2-5h4.8
			c-0.9,5.6-4.4,8.7-10,8.7c-6.8,0-10.5-4.8-10.5-11.2c0-6.6,3.6-11.7,10.7-11.7c5,0,9.3,2.5,9.8,7.9H237.1z"/>
		<path fill="#8FA3AD" d="M264.9,30h-4.7v-3h-0.1c-1.2,2.2-3.8,3.6-6.2,3.6c-5.7,0-8.1-2.9-8.1-8.5V8.3h4.8v13.3
			c0,3.8,1.6,5.2,4.2,5.2c4,0,5.3-2.6,5.3-5.9V8.3h4.8V30z"/>
		<path fill="#8FA3AD" d="M270,0h4.8v30H270V0z"/>
		<path fill="#8FA3AD" d="M298.2,25.2c0,1.2,0.3,1.6,1.1,1.6c0.3,0,0.7,0,1.2-0.1V30c-0.7,0.3-2.2,0.5-3,0.5c-1.9,0-3.3-0.7-3.7-2.6
			c-1.9,1.8-5,2.6-7.5,2.6c-3.9,0-7.4-2.1-7.4-6.3c0-5.4,4.3-6.3,8.4-6.8c3.4-0.6,6.5-0.3,6.5-3.1c0-2.5-2.6-2.9-4.5-2.9
			c-2.7,0-4.6,1.1-4.8,3.4h-4.8c0.3-5.6,5.1-7.2,9.9-7.2c4.2,0,8.7,1.7,8.7,6.3V25.2z M293.4,19.1c-1.5,1-3.8,0.9-5.9,1.3
			c-2.1,0.3-3.9,1.1-3.9,3.6c0,2.1,2.7,2.8,4.4,2.8c2.1,0,5.4-1.1,5.4-4.1V19.1z"/>
		<path fill="#8FA3AD" d="M301.2,8.3h3.6V1.8h4.8v6.5h4.3v3.6h-4.3v11.6c0,2,0.2,3,2.3,3c0.7,0,1.3,0,2-0.2v3.7
			c-1.1,0.1-2.1,0.3-3.1,0.3c-5,0-5.9-1.9-6-5.5V11.8h-3.6V8.3z"/>
		<path fill="#8FA3AD" d="M317.5,0h4.8v4.5h-4.8V0z M317.5,8.3h4.8V30h-4.8V8.3z"/>
		<path fill="#8FA3AD" d="M326.5,19.1c0-6.6,4-11.4,11-11.4c7,0,11,4.8,11,11.4c0,6.7-4,11.5-11,11.5
			C330.5,30.6,326.5,25.8,326.5,19.1z M343.6,19.1c0-3.7-1.9-7.6-6.2-7.6c-4.3,0-6.2,3.9-6.2,7.6c0,3.8,1.9,7.7,6.2,7.7
			C341.7,26.8,343.6,22.9,343.6,19.1z"/>
		<path fill="#8FA3AD" d="M352.4,8.3h4.5v3.2l0.1,0.1c1.4-2.4,3.9-3.9,6.8-3.9c4.7,0,7.7,2.5,7.7,7.4V30h-4.8V16.3
			c-0.1-3.4-1.4-4.9-4.2-4.9c-3.2,0-5.3,2.5-5.3,5.7V30h-4.8V8.3z"/>
		<path fill="#8FA3AD" d="M151,61.5h1.9v3.9h0.1c1-2.7,3.3-4.2,6.2-4.1v2c-3.6-0.2-6.1,2.5-6.1,5.9V78h-2V61.5z"/>
		<path fill="#8FA3AD" d="M161.7,70.3c0,2.9,1.6,6.5,5.4,6.5c2.9,0,4.5-1.7,5.2-4.2h2c-0.9,3.7-3,5.9-7.2,5.9c-5.2,0-7.5-4-7.5-8.7
			c0-4.4,2.2-8.7,7.5-8.7c5.3,0,7.4,4.6,7.3,9.3H161.7z M172.4,68.6c-0.1-3-2-5.9-5.2-5.9c-3.3,0-5.1,2.9-5.4,5.9H172.4z"/>
		<path fill="#8FA3AD" d="M187,66.3c-0.1-2.5-2-3.6-4.3-3.6c-1.8,0-3.9,0.7-3.9,2.8c0,1.8,2,2.4,3.4,2.8l2.7,0.6
			c2.3,0.4,4.7,1.7,4.7,4.6c0,3.6-3.6,5-6.6,5c-3.8,0-6.5-1.8-6.8-5.8h2c0.2,2.7,2.2,4.1,4.9,4.1c1.9,0,4.5-0.8,4.5-3.1
			c0-1.9-1.8-2.6-3.6-3l-2.6-0.6c-2.6-0.7-4.6-1.6-4.6-4.4c0-3.4,3.3-4.6,6.2-4.6c3.3,0,5.9,1.7,6,5.3H187z"/>
		<path fill="#8FA3AD" d="M205.9,78h-1.9v-3H204c-1.1,2.2-3.2,3.5-5.7,3.5c-4.2,0-5.8-2.4-5.8-6.3V61.5h2v10.8
			c0.1,3,1.2,4.5,4.4,4.5c3.5,0,5-3.3,5-6.6v-8.7h2V78z"/>
		<path fill="#8FA3AD" d="M209.8,55.1h2V78h-2V55.1z"/>
		<path fill="#8FA3AD" d="M218.9,61.5h3.4v1.7h-3.4v11.1c0,1.3,0.2,2.1,1.6,2.2c0.6,0,1.2,0,1.7-0.1v1.7c-0.6,0-1.2,0.1-1.8,0.1
			c-2.7,0-3.6-0.9-3.6-3.7V63.2H214v-1.7h2.9v-5h2V61.5z"/>
		<path fill="#8FA3AD" d="M235,66.3c-0.1-2.5-2-3.6-4.3-3.6c-1.8,0-3.9,0.7-3.9,2.8c0,1.8,2,2.4,3.4,2.8l2.7,0.6
			c2.3,0.4,4.7,1.7,4.7,4.6c0,3.6-3.6,5-6.6,5c-3.8,0-6.5-1.8-6.8-5.8h2c0.2,2.7,2.2,4.1,4.9,4.1c1.9,0,4.5-0.8,4.5-3.1
			c0-1.9-1.8-2.6-3.6-3l-2.6-0.6c-2.6-0.7-4.6-1.6-4.6-4.4c0-3.4,3.3-4.6,6.2-4.6c3.3,0,5.9,1.7,6,5.3H235z"/>
		<path fill="#8FA3AD" d="M249.4,55.1h2v3.2h-2V55.1z M249.4,61.5h2V78h-2V61.5z"/>
		<path fill="#8FA3AD" d="M255.3,61.5h2v2.8h0.1c0.7-2,2.9-3.3,5.3-3.3c4.6,0,6,2.4,6,6.4V78h-2V67.7c0-2.8-0.9-5-4.2-5
			c-3.2,0-5.1,2.4-5.2,5.7V78h-2V61.5z"/>
		<path fill="#8FA3AD" d="M281.4,55.1h2v9.2h0.1c0.7-2,2.9-3.3,5.3-3.3c4.6,0,6,2.4,6,6.4V78h-2V67.7c0-2.8-0.9-5-4.2-5
			c-3.2,0-5.1,2.4-5.2,5.7V78h-2V55.1z"/>
		<path fill="#8FA3AD" d="M299.8,70.3c0,2.9,1.6,6.5,5.4,6.5c2.9,0,4.5-1.7,5.2-4.2h2c-0.9,3.7-3,5.9-7.2,5.9c-5.2,0-7.5-4-7.5-8.7
			c0-4.4,2.2-8.7,7.5-8.7c5.3,0,7.4,4.6,7.3,9.3H299.8z M310.5,68.6c-0.1-3-2-5.9-5.2-5.9c-3.3,0-5.1,2.9-5.4,5.9H310.5z"/>
		<path fill="#8FA3AD" d="M315,66.5c0.2-3.9,2.9-5.5,6.7-5.5c2.9,0,6.1,0.9,6.1,5.3v8.8c0,0.8,0.4,1.2,1.2,1.2
			c0.2,0,0.5-0.1,0.6-0.1v1.7c-0.4,0.1-0.8,0.1-1.3,0.1c-2,0-2.4-1.2-2.4-2.9h-0.1c-1.4,2.1-2.8,3.4-6,3.4c-3,0-5.5-1.5-5.5-4.8
			c0-4.6,4.5-4.8,8.9-5.3c1.7-0.2,2.6-0.4,2.6-2.2c0-2.7-2-3.4-4.3-3.4c-2.5,0-4.4,1.2-4.4,3.8H315z M325.8,69L325.8,69
			c-0.3,0.5-1.2,0.6-1.8,0.7c-3.4,0.6-7.7,0.6-7.7,3.8c0,2,1.8,3.3,3.7,3.3c3.1,0,5.8-2,5.8-5.2V69z"/>
		<path fill="#8FA3AD" d="M330,61.5h2.2l5.2,14.5h0.1l5.1-14.5h2.1L338.5,78h-2.1L330,61.5z"/>
		<path fill="#8FA3AD" d="M344.8,61.5h2.1l5.4,14.1l5.1-14.1h2l-7.2,19c-1.2,2.8-1.8,3.6-4.4,3.6c-0.8,0-1.2,0-1.5-0.2v-1.7
			c0.5,0.1,0.9,0.2,1.4,0.2c1.8,0,2.2-1.1,2.9-2.6l0.7-1.9L344.8,61.5z"/>
		<path fill="#8FA3AD" d="M373.5,61.5h3.4v1.7h-3.4v11.1c0,1.3,0.2,2.1,1.6,2.2c0.6,0,1.2,0,1.7-0.1v1.7c-0.6,0-1.2,0.1-1.8,0.1
			c-2.7,0-3.6-0.9-3.6-3.7V63.2h-2.9v-1.7h2.9v-5h2V61.5z"/>
		<path fill="#8FA3AD" d="M379.8,61.5h1.9v3.9h0.1c1-2.7,3.3-4.2,6.2-4.1v2c-3.6-0.2-6.1,2.5-6.1,5.9V78h-2V61.5z"/>
		<path fill="#8FA3AD" d="M389.7,66.5c0.2-3.9,2.9-5.5,6.7-5.5c2.9,0,6.1,0.9,6.1,5.3v8.8c0,0.8,0.4,1.2,1.2,1.2
			c0.2,0,0.5-0.1,0.6-0.1v1.7c-0.4,0.1-0.8,0.1-1.3,0.1c-2,0-2.4-1.2-2.4-2.9h-0.1c-1.4,2.1-2.8,3.4-6,3.4c-3,0-5.5-1.5-5.5-4.8
			c0-4.6,4.5-4.8,8.9-5.3c1.7-0.2,2.6-0.4,2.6-2.2c0-2.7-2-3.4-4.3-3.4c-2.5,0-4.4,1.2-4.4,3.8H389.7z M400.5,69L400.5,69
			c-0.3,0.5-1.2,0.6-1.8,0.7c-3.4,0.6-7.7,0.6-7.7,3.8c0,2,1.8,3.3,3.7,3.3c3.1,0,5.8-2,5.8-5.2V69z"/>
		<path fill="#8FA3AD" d="M421,78h-1.9v-3.1h-0.1c-0.9,2.1-3.5,3.6-5.9,3.6c-5,0-7.4-4.1-7.4-8.7c0-4.7,2.4-8.7,7.4-8.7
			c2.5,0,4.9,1.2,5.7,3.6h0.1v-9.5h2V78z M413.2,76.8c4.3,0,5.8-3.6,5.8-7c0-3.4-1.5-7-5.8-7c-3.8,0-5.4,3.6-5.4,7
			C407.8,73.2,409.4,76.8,413.2,76.8z"/>
		<path fill="#8FA3AD" d="M424.9,55.1h2v3.2h-2V55.1z M424.9,61.5h2V78h-2V61.5z"/>
		<path fill="#8FA3AD" d="M430.8,61.5h2v2.8h0.1c0.7-2,2.9-3.3,5.3-3.3c4.6,0,6,2.4,6,6.4V78h-2V67.7c0-2.8-0.9-5-4.2-5
			c-3.2,0-5.1,2.4-5.2,5.7V78h-2V61.5z"/>
		<path fill="#8FA3AD" d="M461.9,76.6c0,4.9-1.9,7.9-7.3,7.9c-3.3,0-6.6-1.5-6.8-5h2c0.4,2.4,2.6,3.3,4.8,3.3c3.7,0,5.3-2.2,5.3-6.2
			v-2.2h-0.1c-0.9,2-2.9,3.4-5.2,3.4c-5.3,0-7.5-3.8-7.5-8.5c0-4.5,2.7-8.3,7.5-8.3c2.4,0,4.4,1.5,5.2,3.3h0.1v-2.8h2V76.6z
			 M459.9,69.5c0-3.2-1.5-6.8-5.3-6.8c-3.8,0-5.4,3.4-5.4,6.8c0,3.3,1.7,6.6,5.4,6.6C458.1,76.1,459.9,72.9,459.9,69.5z"/>
		<path fill="#8FA3AD" d="M474.7,61.5h1.9v3.9h0.1c1-2.7,3.3-4.2,6.2-4.1v2c-3.6-0.2-6.1,2.5-6.1,5.9V78h-2V61.5z"/>
		<path fill="#8FA3AD" d="M485.3,70.3c0,2.9,1.6,6.5,5.4,6.5c2.9,0,4.5-1.7,5.2-4.2h2c-0.9,3.7-3,5.9-7.2,5.9c-5.2,0-7.5-4-7.5-8.7
			c0-4.4,2.2-8.7,7.5-8.7c5.3,0,7.4,4.6,7.3,9.3H485.3z M496,68.6c-0.1-3-2-5.9-5.2-5.9c-3.3,0-5.1,2.9-5.4,5.9H496z"/>
		<path fill="#8FA3AD" d="M500.8,55.1h2V78h-2V55.1z"/>
		<path fill="#8FA3AD" d="M506.5,66.5c0.2-3.9,2.9-5.5,6.7-5.5c2.9,0,6.1,0.9,6.1,5.3v8.8c0,0.8,0.4,1.2,1.2,1.2
			c0.2,0,0.5-0.1,0.6-0.1v1.7c-0.4,0.1-0.8,0.1-1.3,0.1c-2,0-2.4-1.2-2.4-2.9h-0.1c-1.4,2.1-2.8,3.4-6,3.4c-3,0-5.5-1.5-5.5-4.8
			c0-4.6,4.5-4.8,8.9-5.3c1.7-0.2,2.6-0.4,2.6-2.2c0-2.7-2-3.4-4.3-3.4c-2.5,0-4.4,1.2-4.4,3.8H506.5z M517.2,69L517.2,69
			c-0.3,0.5-1.2,0.6-1.8,0.7c-3.4,0.6-7.7,0.6-7.7,3.8c0,2,1.8,3.3,3.7,3.3c3.1,0,5.8-2,5.8-5.2V69z"/>
		<path fill="#8FA3AD" d="M526.5,61.5h3.4v1.7h-3.4v11.1c0,1.3,0.2,2.1,1.6,2.2c0.6,0,1.2,0,1.7-0.1v1.7c-0.6,0-1.2,0.1-1.8,0.1
			c-2.7,0-3.6-0.9-3.6-3.7V63.2h-2.9v-1.7h2.9v-5h2V61.5z"/>
		<path fill="#8FA3AD" d="M532.8,55.1h2v3.2h-2V55.1z M532.8,61.5h2V78h-2V61.5z"/>
		<path fill="#8FA3AD" d="M536.8,61.5h2.2l5.2,14.5h0.1l5.1-14.5h2.1L545.3,78h-2.1L536.8,61.5z"/>
		<path fill="#8FA3AD" d="M554.7,70.3c0,2.9,1.6,6.5,5.4,6.5c2.9,0,4.5-1.7,5.2-4.2h2c-0.9,3.7-3,5.9-7.2,5.9c-5.2,0-7.5-4-7.5-8.7
			c0-4.4,2.2-8.7,7.5-8.7c5.3,0,7.4,4.6,7.3,9.3H554.7z M565.4,68.6c-0.1-3-2-5.9-5.2-5.9c-3.3,0-5.1,2.9-5.4,5.9H565.4z"/>
		<path fill="#8FA3AD" d="M154.2,109.5h3.4v1.7h-3.4v11.1c0,1.3,0.2,2.1,1.6,2.2c0.6,0,1.2,0,1.7-0.1v1.7c-0.6,0-1.2,0.1-1.8,0.1
			c-2.7,0-3.6-0.9-3.6-3.7v-11.3h-2.9v-1.7h2.9v-5h2V109.5z"/>
		<path fill="#8FA3AD" d="M175.3,117.7c0,4.7-2.8,8.7-7.8,8.7s-7.8-4-7.8-8.7c0-4.7,2.8-8.7,7.8-8.7S175.3,113,175.3,117.7z
			 M161.7,117.7c0,3.5,1.9,7,5.8,7c3.9,0,5.8-3.5,5.8-7c0-3.5-1.9-7-5.8-7C163.6,110.7,161.7,114.2,161.7,117.7z"/>
		<path fill="#8FA3AD" d="M187.2,109.5h1.9v3.1h0.1c0.9-2.2,3.2-3.6,5.9-3.6c5,0,7.4,4.1,7.4,8.7c0,4.7-2.4,8.7-7.4,8.7
			c-2.5,0-4.9-1.2-5.7-3.6h-0.1v9.2h-2V109.5z M195,110.7c-4.4,0-5.8,3.3-5.8,7c0,3.4,1.5,7,5.8,7c3.8,0,5.4-3.6,5.4-7
			C200.4,114.3,198.9,110.7,195,110.7z"/>
		<path fill="#8FA3AD" d="M205.4,114.5c0.2-3.9,2.9-5.5,6.7-5.5c2.9,0,6.1,0.9,6.1,5.3v8.8c0,0.8,0.4,1.2,1.2,1.2
			c0.2,0,0.5-0.1,0.6-0.1v1.7c-0.4,0.1-0.8,0.1-1.3,0.1c-2,0-2.4-1.2-2.4-2.9h-0.1c-1.4,2.1-2.8,3.4-6,3.4c-3,0-5.5-1.5-5.5-4.8
			c0-4.6,4.5-4.8,8.9-5.3c1.7-0.2,2.6-0.4,2.6-2.2c0-2.7-2-3.4-4.3-3.4c-2.5,0-4.4,1.2-4.4,3.8H205.4z M216.1,117L216.1,117
			c-0.3,0.5-1.2,0.6-1.8,0.7c-3.4,0.6-7.7,0.6-7.7,3.8c0,2,1.8,3.3,3.7,3.3c3.1,0,5.8-2,5.8-5.2V117z"/>
		<path fill="#8FA3AD" d="M220.3,109.5h2.1l5.4,14.1l5.1-14.1h2l-7.2,19c-1.2,2.8-1.8,3.6-4.4,3.6c-0.8,0-1.2,0-1.5-0.2v-1.7
			c0.5,0.1,0.9,0.2,1.4,0.2c1.8,0,2.2-1.1,2.9-2.6l0.7-1.9L220.3,109.5z"/>
		<path fill="#8FA3AD" d="M237,109.5h1.9v2.8h0.1c1.1-2,2.8-3.3,5.4-3.3c2.2,0,4.1,1.1,4.7,3.2c1-2.2,3.1-3.2,5.2-3.2
			c3.6,0,5.5,1.9,5.5,5.8V126h-2v-11.1c0-2.7-1-4.2-3.9-4.2c-3.5,0-4.5,2.9-4.5,6v9.3h-2v-11.2c0-2.2-0.9-4.1-3.5-4.1
			c-3.5,0-4.9,2.6-4.9,6.1v9.2h-2V109.5z"/>
		<path fill="#8FA3AD" d="M264.8,118.3c0,2.9,1.6,6.5,5.4,6.5c2.9,0,4.5-1.7,5.2-4.2h2c-0.9,3.7-3,5.9-7.2,5.9c-5.2,0-7.5-4-7.5-8.7
			c0-4.4,2.2-8.7,7.5-8.7c5.3,0,7.4,4.6,7.3,9.3H264.8z M275.5,116.6c-0.1-3-2-5.9-5.2-5.9c-3.3,0-5.1,2.9-5.4,5.9H275.5z"/>
		<path fill="#8FA3AD" d="M280.2,109.5h2v2.8h0.1c0.7-2,2.9-3.3,5.3-3.3c4.6,0,6,2.4,6,6.4V126h-2v-10.3c0-2.8-0.9-5-4.2-5
			c-3.2,0-5.1,2.4-5.2,5.7v9.6h-2V109.5z"/>
		<path fill="#8FA3AD" d="M300.6,109.5h3.4v1.7h-3.4v11.1c0,1.3,0.2,2.1,1.6,2.2c0.6,0,1.2,0,1.7-0.1v1.7c-0.6,0-1.2,0.1-1.8,0.1
			c-2.7,0-3.6-0.9-3.6-3.7v-11.3h-2.9v-1.7h2.9v-5h2V109.5z"/>
		<path fill="#8FA3AD" d="M314,109.5h2.2l5.2,14.5h0.1l5.1-14.5h2.1l-6.2,16.5h-2.1L314,109.5z"/>
		<path fill="#8FA3AD" d="M345.4,117.7c0,4.7-2.8,8.7-7.8,8.7s-7.8-4-7.8-8.7c0-4.7,2.8-8.7,7.8-8.7S345.4,113,345.4,117.7z
			 M331.8,117.7c0,3.5,1.9,7,5.8,7c3.9,0,5.8-3.5,5.8-7c0-3.5-1.9-7-5.8-7C333.7,110.7,331.8,114.2,331.8,117.7z"/>
		<path fill="#8FA3AD" d="M348.5,103.1h2V126h-2V103.1z"/>
		<path fill="#8FA3AD" d="M367.7,126h-1.9v-3h-0.1c-1.1,2.2-3.2,3.5-5.7,3.5c-4.2,0-5.8-2.4-5.8-6.3v-10.7h2v10.8
			c0.1,3,1.2,4.5,4.4,4.5c3.5,0,5-3.3,5-6.6v-8.7h2V126z"/>
		<path fill="#8FA3AD" d="M371.5,109.5h1.9v2.8h0.1c1.1-2,2.8-3.3,5.4-3.3c2.2,0,4.1,1.1,4.7,3.2c1-2.2,3.1-3.2,5.2-3.2
			c3.6,0,5.5,1.9,5.5,5.8V126h-2v-11.1c0-2.7-1-4.2-3.9-4.2c-3.5,0-4.5,2.9-4.5,6v9.3h-2v-11.2c0-2.2-0.9-4.1-3.5-4.1
			c-3.5,0-4.9,2.6-4.9,6.1v9.2h-2V109.5z"/>
		<path fill="#8FA3AD" d="M399.4,118.3c0,2.9,1.6,6.5,5.4,6.5c2.9,0,4.5-1.7,5.2-4.2h2c-0.9,3.7-3,5.9-7.2,5.9c-5.2,0-7.5-4-7.5-8.7
			c0-4.4,2.2-8.7,7.5-8.7c5.3,0,7.4,4.6,7.3,9.3H399.4z M410.1,116.6c-0.1-3-2-5.9-5.2-5.9c-3.3,0-5.1,2.9-5.4,5.9H410.1z"/>
		<path fill="#8FA3AD" d="M416,126v-3.4h2.7v3.4H416z"/>
		<path fill="#8FA3AD" d="M430.7,103.1h2.3l5.2,20h0.1l5.6-20h2.7l5.6,20h0.1l5.2-20h2.2l-6.3,22.8H451l-5.8-20.4h-0.1l-5.8,20.4
			H437L430.7,103.1z"/>
		<path fill="#8FA3AD" d="M462.2,118.3c0,2.9,1.6,6.5,5.4,6.5c2.9,0,4.5-1.7,5.2-4.2h2c-0.9,3.7-3,5.9-7.2,5.9c-5.2,0-7.5-4-7.5-8.7
			c0-4.4,2.2-8.7,7.5-8.7c5.3,0,7.4,4.6,7.3,9.3H462.2z M472.9,116.6c-0.1-3-2-5.9-5.2-5.9c-3.3,0-5.1,2.9-5.4,5.9H472.9z"/>
		<path fill="#8FA3AD" d="M489.7,109.5h3.4v1.7h-3.4v11.1c0,1.3,0.2,2.1,1.6,2.2c0.6,0,1.2,0,1.7-0.1v1.7c-0.6,0-1.2,0.1-1.8,0.1
			c-2.7,0-3.6-0.9-3.6-3.7v-11.3h-2.9v-1.7h2.9v-5h2V109.5z"/>
		<path fill="#8FA3AD" d="M496,109.5h1.9v3.9h0.1c1-2.7,3.3-4.2,6.2-4.1v2c-3.6-0.2-6.1,2.5-6.1,5.9v8.8h-2V109.5z"/>
		<path fill="#8FA3AD" d="M505.9,114.5c0.2-3.9,2.9-5.5,6.7-5.5c2.9,0,6.1,0.9,6.1,5.3v8.8c0,0.8,0.4,1.2,1.2,1.2
			c0.2,0,0.5-0.1,0.6-0.1v1.7c-0.4,0.1-0.8,0.1-1.3,0.1c-2,0-2.4-1.2-2.4-2.9h-0.1c-1.4,2.1-2.8,3.4-6,3.4c-3,0-5.5-1.5-5.5-4.8
			c0-4.6,4.5-4.8,8.9-5.3c1.7-0.2,2.6-0.4,2.6-2.2c0-2.7-2-3.4-4.3-3.4c-2.5,0-4.4,1.2-4.4,3.8H505.9z M516.6,117L516.6,117
			c-0.3,0.5-1.2,0.6-1.8,0.7c-3.4,0.6-7.7,0.6-7.7,3.8c0,2,1.8,3.3,3.7,3.3c3.1,0,5.8-2,5.8-5.2V117z"/>
		<path fill="#8FA3AD" d="M534.3,114.7c-0.5-2.5-2-4-4.7-4c-3.9,0-5.8,3.5-5.8,7c0,3.5,1.9,7,5.8,7c2.5,0,4.5-2,4.8-4.7h2
			c-0.5,4-3.1,6.4-6.8,6.4c-5.1,0-7.8-4-7.8-8.7c0-4.7,2.8-8.7,7.8-8.7c3.5,0,6.2,1.9,6.7,5.7H534.3z"/>
		<path fill="#8FA3AD" d="M539.3,103.1h2v14.3l9.2-8h2.7l-7,6.1l7.5,10.4h-2.5l-6.5-9l-3.3,2.7v6.3h-2V103.1z"/>
		<path fill="#8FA3AD" d="M154.2,157.5h3.4v1.7h-3.4v11.1c0,1.3,0.2,2.1,1.6,2.2c0.6,0,1.2,0,1.7-0.1v1.7c-0.6,0-1.2,0.1-1.8,0.1
			c-2.7,0-3.6-0.9-3.6-3.7v-11.3h-2.9v-1.7h2.9v-5h2V157.5z"/>
		<path fill="#8FA3AD" d="M160.5,151.1h2v9.2h0.1c0.7-2,2.9-3.3,5.3-3.3c4.6,0,6,2.4,6,6.4V174h-2v-10.3c0-2.8-0.9-5-4.2-5
			c-3.2,0-5.1,2.4-5.2,5.7v9.6h-2V151.1z"/>
		<path fill="#8FA3AD" d="M177.7,151.1h2v3.2h-2V151.1z M177.7,157.5h2V174h-2V157.5z"/>
		<path fill="#8FA3AD" d="M193.5,162.3c-0.1-2.5-2-3.6-4.3-3.6c-1.8,0-3.9,0.7-3.9,2.8c0,1.8,2,2.4,3.4,2.8l2.7,0.6
			c2.3,0.4,4.7,1.7,4.7,4.6c0,3.6-3.6,5-6.6,5c-3.8,0-6.5-1.8-6.8-5.8h2c0.2,2.7,2.2,4.1,4.9,4.1c1.9,0,4.5-0.8,4.5-3.1
			c0-1.9-1.8-2.6-3.6-3l-2.6-0.6c-2.6-0.7-4.6-1.6-4.6-4.4c0-3.4,3.3-4.6,6.2-4.6c3.3,0,5.9,1.7,6,5.3H193.5z"/>
		<path fill="#8FA3AD" d="M207.9,151.1h2v9.5h0.1c0.9-2.4,3.3-3.6,5.7-3.6c5,0,7.4,4.1,7.4,8.7c0,4.7-2.4,8.7-7.4,8.7
			c-2.7,0-5-1.4-5.9-3.6h-0.1v3.1h-1.9V151.1z M215.7,158.7c-4.3,0-5.8,3.6-5.8,7c0,3.4,1.5,7,5.8,7c3.8,0,5.4-3.6,5.4-7
			C221.1,162.3,219.6,158.7,215.7,158.7z"/>
		<path fill="#8FA3AD" d="M226.1,162.5c0.2-3.9,2.9-5.5,6.7-5.5c2.9,0,6.1,0.9,6.1,5.3v8.8c0,0.8,0.4,1.2,1.2,1.2
			c0.2,0,0.5-0.1,0.6-0.1v1.7c-0.4,0.1-0.8,0.1-1.3,0.1c-2,0-2.4-1.2-2.4-2.9h-0.1c-1.4,2.1-2.8,3.4-6,3.4c-3,0-5.5-1.5-5.5-4.8
			c0-4.6,4.5-4.8,8.9-5.3c1.7-0.2,2.6-0.4,2.6-2.2c0-2.7-2-3.4-4.3-3.4c-2.5,0-4.4,1.2-4.4,3.8H226.1z M236.8,165L236.8,165
			c-0.3,0.5-1.2,0.6-1.8,0.7c-3.4,0.6-7.7,0.6-7.7,3.8c0,2,1.8,3.3,3.7,3.3c3.1,0,5.8-2,5.8-5.2V165z"/>
		<path fill="#8FA3AD" d="M242.9,151.1h2V174h-2V151.1z"/>
		<path fill="#8FA3AD" d="M248.6,162.5c0.2-3.9,2.9-5.5,6.7-5.5c2.9,0,6.1,0.9,6.1,5.3v8.8c0,0.8,0.4,1.2,1.2,1.2
			c0.2,0,0.5-0.1,0.6-0.1v1.7c-0.4,0.1-0.8,0.1-1.3,0.1c-2,0-2.4-1.2-2.4-2.9h-0.1c-1.4,2.1-2.8,3.4-6,3.4c-3,0-5.5-1.5-5.5-4.8
			c0-4.6,4.5-4.8,8.9-5.3c1.7-0.2,2.6-0.4,2.6-2.2c0-2.7-2-3.4-4.3-3.4c-2.5,0-4.4,1.2-4.4,3.8H248.6z M259.4,165L259.4,165
			c-0.3,0.5-1.2,0.6-1.8,0.7c-3.4,0.6-7.7,0.6-7.7,3.8c0,2,1.8,3.3,3.7,3.3c3.1,0,5.8-2,5.8-5.2V165z"/>
		<path fill="#8FA3AD" d="M265.4,157.5h2v2.8h0.1c0.7-2,2.9-3.3,5.3-3.3c4.6,0,6,2.4,6,6.4V174h-2v-10.3c0-2.8-0.9-5-4.2-5
			c-3.2,0-5.1,2.4-5.2,5.7v9.6h-2V157.5z"/>
		<path fill="#8FA3AD" d="M294.2,162.7c-0.5-2.5-2-4-4.7-4c-3.9,0-5.8,3.5-5.8,7c0,3.5,1.9,7,5.8,7c2.5,0,4.5-2,4.8-4.7h2
			c-0.5,4-3.1,6.4-6.8,6.4c-5.1,0-7.8-4-7.8-8.7c0-4.7,2.8-8.7,7.8-8.7c3.5,0,6.2,1.9,6.7,5.7H294.2z"/>
		<path fill="#8FA3AD" d="M300.4,166.3c0,2.9,1.6,6.5,5.4,6.5c2.9,0,4.5-1.7,5.2-4.2h2c-0.9,3.7-3,5.9-7.2,5.9c-5.2,0-7.5-4-7.5-8.7
			c0-4.4,2.2-8.7,7.5-8.7c5.3,0,7.4,4.6,7.3,9.3H300.4z M311.1,164.6c-0.1-3-2-5.9-5.2-5.9c-3.3,0-5.1,2.9-5.4,5.9H311.1z"/>
		<path fill="#8FA3AD" d="M323,157.5h2.1l4.2,14.1h0.1l4-14.1h2.3l4,14.1h0.1l4.2-14.1h2.1l-5.3,16.5h-2.2l-4.1-13.9h-0.1l-4,13.9
			h-2.2L323,157.5z"/>
		<path fill="#8FA3AD" d="M348.5,151.1h2v3.2h-2V151.1z M348.5,157.5h2V174h-2V157.5z"/>
		<path fill="#8FA3AD" d="M357.5,157.5h3.4v1.7h-3.4v11.1c0,1.3,0.2,2.1,1.6,2.2c0.6,0,1.2,0,1.7-0.1v1.7c-0.6,0-1.2,0.1-1.8,0.1
			c-2.7,0-3.6-0.9-3.6-3.7v-11.3h-2.9v-1.7h2.9v-5h2V157.5z"/>
		<path fill="#8FA3AD" d="M363.8,151.1h2v9.2h0.1c0.7-2,2.9-3.3,5.3-3.3c4.6,0,6,2.4,6,6.4V174h-2v-10.3c0-2.8-0.9-5-4.2-5
			c-3.2,0-5.1,2.4-5.2,5.7v9.6h-2V151.1z"/>
		<path fill="#8FA3AD" d="M393.1,157.5h3.4v1.7h-3.4v11.1c0,1.3,0.2,2.1,1.6,2.2c0.6,0,1.2,0,1.7-0.1v1.7c-0.6,0-1.2,0.1-1.8,0.1
			c-2.7,0-3.6-0.9-3.6-3.7v-11.3h-2.9v-1.7h2.9v-5h2V157.5z"/>
		<path fill="#8FA3AD" d="M399.3,151.1h2v9.2h0.1c0.7-2,2.9-3.3,5.3-3.3c4.6,0,6,2.4,6,6.4V174h-2v-10.3c0-2.8-0.9-5-4.2-5
			c-3.2,0-5.1,2.4-5.2,5.7v9.6h-2V151.1z"/>
		<path fill="#8FA3AD" d="M417.7,166.3c0,2.9,1.6,6.5,5.4,6.5c2.9,0,4.5-1.7,5.2-4.2h2c-0.9,3.7-3,5.9-7.2,5.9c-5.2,0-7.5-4-7.5-8.7
			c0-4.4,2.2-8.7,7.5-8.7c5.3,0,7.4,4.6,7.3,9.3H417.7z M428.4,164.6c-0.1-3-2-5.9-5.2-5.9c-3.3,0-5.1,2.9-5.4,5.9H428.4z"/>
		<path fill="#8FA3AD" d="M443.5,166.5c-0.1,4.7,3.3,6.1,7.5,6.1c2.4,0,6-1.3,6-4.6c0-2.6-2.6-3.6-4.7-4.1l-5.1-1.2
			c-2.7-0.7-5.2-2-5.2-5.5c0-2.2,1.4-6.4,7.9-6.4c4.5,0,8.5,2.4,8.4,7.1h-2.2c-0.1-3.5-3-5.2-6.2-5.2c-3,0-5.7,1.2-5.7,4.5
			c0,2.1,1.6,3,3.5,3.5l5.6,1.4c3.2,0.9,5.9,2.3,5.9,6c0,1.6-0.6,6.5-8.7,6.5c-5.4,0-9.4-2.4-9.1-8H443.5z"/>
		<path fill="#8FA3AD" d="M462.2,157.5h1.9v3.1h0.1c0.9-2.2,3.2-3.6,5.9-3.6c5,0,7.4,4.1,7.4,8.7c0,4.7-2.4,8.7-7.4,8.7
			c-2.5,0-4.9-1.2-5.7-3.6h-0.1v9.2h-2V157.5z M470,158.7c-4.4,0-5.8,3.3-5.8,7c0,3.4,1.5,7,5.8,7c3.8,0,5.4-3.6,5.4-7
			C475.4,162.3,473.9,158.7,470,158.7z"/>
		<path fill="#8FA3AD" d="M481.8,166.3c0,2.9,1.6,6.5,5.4,6.5c2.9,0,4.5-1.7,5.2-4.2h2c-0.9,3.7-3,5.9-7.2,5.9c-5.2,0-7.5-4-7.5-8.7
			c0-4.4,2.2-8.7,7.5-8.7c5.3,0,7.4,4.6,7.3,9.3H481.8z M492.4,164.6c-0.1-3-2-5.9-5.2-5.9c-3.3,0-5.1,2.9-5.4,5.9H492.4z"/>
		<path fill="#8FA3AD" d="M508.8,162.7c-0.5-2.5-2-4-4.7-4c-3.9,0-5.8,3.5-5.8,7c0,3.5,1.9,7,5.8,7c2.5,0,4.5-2,4.8-4.7h2
			c-0.5,4-3.1,6.4-6.8,6.4c-5.1,0-7.8-4-7.8-8.7c0-4.7,2.8-8.7,7.8-8.7c3.5,0,6.2,1.9,6.7,5.7H508.8z"/>
		<path fill="#8FA3AD" d="M527.2,174h-1.9v-3h-0.1c-1.1,2.2-3.2,3.5-5.7,3.5c-4.2,0-5.8-2.4-5.8-6.3v-10.7h2v10.8
			c0.1,3,1.2,4.5,4.4,4.5c3.5,0,5-3.3,5-6.6v-8.7h2V174z"/>
		<path fill="#8FA3AD" d="M531,151.1h2V174h-2V151.1z"/>
		<path fill="#8FA3AD" d="M536.7,162.5c0.2-3.9,2.9-5.5,6.7-5.5c2.9,0,6.1,0.9,6.1,5.3v8.8c0,0.8,0.4,1.2,1.2,1.2
			c0.2,0,0.5-0.1,0.6-0.1v1.7c-0.4,0.1-0.8,0.1-1.3,0.1c-2,0-2.4-1.2-2.4-2.9h-0.1c-1.4,2.1-2.8,3.4-6,3.4c-3,0-5.5-1.5-5.5-4.8
			c0-4.6,4.5-4.8,8.9-5.3c1.7-0.2,2.6-0.4,2.6-2.2c0-2.7-2-3.4-4.3-3.4c-2.5,0-4.4,1.2-4.4,3.8H536.7z M547.5,165L547.5,165
			c-0.3,0.5-1.2,0.6-1.8,0.7c-3.4,0.6-7.7,0.6-7.7,3.8c0,2,1.8,3.3,3.7,3.3c3.1,0,5.8-2,5.8-5.2V165z"/>
		<path fill="#8FA3AD" d="M556.7,157.5h3.4v1.7h-3.4v11.1c0,1.3,0.2,2.1,1.6,2.2c0.6,0,1.2,0,1.7-0.1v1.7c-0.6,0-1.2,0.1-1.8,0.1
			c-2.7,0-3.6-0.9-3.6-3.7v-11.3h-2.9v-1.7h2.9v-5h2V157.5z"/>
		<path fill="#8FA3AD" d="M563,151.1h2v3.2h-2V151.1z M563,157.5h2V174h-2V157.5z"/>
		<path fill="#8FA3AD" d="M583.7,165.7c0,4.7-2.8,8.7-7.8,8.7s-7.8-4-7.8-8.7c0-4.7,2.8-8.7,7.8-8.7S583.7,161,583.7,165.7z
			 M570.1,165.7c0,3.5,1.9,7,5.8,7c3.9,0,5.8-3.5,5.8-7c0-3.5-1.9-7-5.8-7C572,158.7,570.1,162.2,570.1,165.7z"/>
		<path fill="#8FA3AD" d="M586.7,157.5h2v2.8h0.1c0.7-2,2.9-3.3,5.3-3.3c4.6,0,6,2.4,6,6.4V174h-2v-10.3c0-2.8-0.9-5-4.2-5
			c-3.2,0-5.1,2.4-5.2,5.7v9.6h-2V157.5z"/>
		<path fill="#8FA3AD" d="M151.4,199.1h10.5c3.8,0,6.9,1.8,6.9,6c0,2.9-1.5,5.2-4.4,5.8v0.1c3,0.4,3.8,2.4,4,5.2
			c0.1,1.6,0.1,4.7,1.1,5.9H167c-0.5-0.9-0.5-2.6-0.6-3.6c-0.2-3.2-0.4-6.8-4.6-6.6h-8.3V222h-2.2V199.1z M153.6,210h8.1
			c2.7,0,4.9-1.7,4.9-4.4c0-2.8-1.7-4.5-4.9-4.5h-8.1V210z"/>
		<path fill="#8FA3AD" d="M172.2,210.5c0.2-3.9,2.9-5.5,6.7-5.5c2.9,0,6.1,0.9,6.1,5.3v8.8c0,0.8,0.4,1.2,1.2,1.2
			c0.2,0,0.5-0.1,0.6-0.1v1.7c-0.4,0.1-0.8,0.1-1.3,0.1c-2,0-2.4-1.2-2.4-2.9H183c-1.4,2.1-2.8,3.4-6,3.4c-3,0-5.5-1.5-5.5-4.8
			c0-4.6,4.5-4.8,8.9-5.3c1.7-0.2,2.6-0.4,2.6-2.2c0-2.7-2-3.4-4.3-3.4c-2.5,0-4.4,1.2-4.4,3.8H172.2z M182.9,213L182.9,213
			c-0.3,0.5-1.2,0.6-1.8,0.7c-3.4,0.6-7.7,0.6-7.7,3.8c0,2,1.8,3.3,3.7,3.3c3.1,0,5.8-2,5.8-5.2V213z"/>
		<path fill="#8FA3AD" d="M192.2,205.5h3.4v1.7h-3.4v11.1c0,1.3,0.2,2.1,1.6,2.2c0.6,0,1.2,0,1.7-0.1v1.7c-0.6,0-1.2,0.1-1.8,0.1
			c-2.7,0-3.6-0.9-3.6-3.7v-11.3h-2.9v-1.7h2.9v-5h2V205.5z"/>
		<path fill="#8FA3AD" d="M198.5,199.1h2v3.2h-2V199.1z M198.5,205.5h2V222h-2V205.5z"/>
		<path fill="#8FA3AD" d="M219.2,213.7c0,4.7-2.8,8.7-7.8,8.7s-7.8-4-7.8-8.7c0-4.7,2.8-8.7,7.8-8.7S219.2,209,219.2,213.7z
			 M205.6,213.7c0,3.5,1.9,7,5.8,7c3.9,0,5.8-3.5,5.8-7c0-3.5-1.9-7-5.8-7C207.5,206.7,205.6,210.2,205.6,213.7z"/>
		<path fill="#8FA3AD" d="M223.4,222v-3.4h2.7v3.4H223.4z"/>
	</g>
</g>
<g opacity="0.5">
	<path fill="#C2D3D1" d="M1,17.8C15.4,18,29,13,31.6,0.4h13.9v105H26.8V31.3H1V17.8z"/>
</g>
<line fill="none" stroke="#C2D3D1" stroke-miterlimit="10" x1="98.5" y1="0" x2="98.5" y2="215.9"/>
<g>
</g>
<g>
</g>
<g>
</g>
<g>
</g>
<g>
</g>
<g>
</g>
<g>
</g>
<g>
</g>
<g>
</g>
<g>
</g>
<g>
</g>
<g>
</g>
<g>
</g>
<g>
</g>
<g>
</g>
</svg>
