<?xml version="1.0" encoding="utf-8"?>
<!-- Generator: Adobe Illustrator 18.0.0, SVG Export Plug-In . SVG Version: 6.00 Build 0)  -->
<!DOCTYPE svg PUBLIC "-//W3C//DTD SVG 1.1//EN" "http://www.w3.org/Graphics/SVG/1.1/DTD/svg11.dtd">
<svg version="1.1" id="Layer_1" xmlns="http://www.w3.org/2000/svg" xmlns:xlink="http://www.w3.org/1999/xlink" x="0px" y="0px"
	 viewBox="0 0 517.3 198.4" enable-background="new 0 0 517.3 198.4" xml:space="preserve">
<g>
	<path fill="#8FA3AD" d="M4,6.7h19.4c7.8,0,13.1,2.5,13.1,10.2c0,4-2,6.9-5.6,8.6c5,1.4,7.5,5.3,7.5,10.4c0,8.4-7.1,11.9-14.5,11.9
		H4V6.7z M13,23.3h9.2c3.2,0,5.5-1.4,5.5-4.9c0-3.9-3-4.7-6.2-4.7H13V23.3z M13,40.8h9.7c3.6,0,6.7-1.2,6.7-5.4
		c0-4.2-2.7-5.9-6.5-5.9H13V40.8z"/>
	<path fill="#8FA3AD" d="M44.5,6.7h9v41.1h-9V6.7z"/>
	<path fill="#8FA3AD" d="M70.7,14.3H58.3V6.7H92v7.6H79.7v33.5h-9V14.3z"/>
	<path fill="#8FA3AD" d="M124.2,20.5c-0.6-4.1-4.5-7.2-9-7.2c-8.1,0-11.2,6.9-11.2,14.1c0,6.9,3.1,13.8,11.2,13.8
		c5.5,0,8.6-3.8,9.3-9.2h8.8c-0.9,10.3-8,16.8-18.1,16.8c-12.7,0-20.2-9.5-20.2-21.4c0-12.2,7.5-21.7,20.2-21.7
		c9,0,16.7,5.3,17.8,14.8H124.2z"/>
	<path fill="#8FA3AD" d="M157.9,5.7c12.7,0,20.2,9.5,20.2,21.7c0,11.9-7.5,21.4-20.2,21.4s-20.2-9.5-20.2-21.4
		C137.7,15.2,145.2,5.7,157.9,5.7z M157.9,41.2c8.1,0,11.2-6.9,11.2-13.8c0-7.2-3.1-14.1-11.2-14.1c-8.1,0-11.2,6.9-11.2,14.1
		C146.7,34.3,149.8,41.2,157.9,41.2z"/>
	<path fill="#8FA3AD" d="M184.3,6.7h9v41.1h-9V6.7z"/>
	<path fill="#8FA3AD" d="M201.3,6.7h9l17.2,27.6h0.1V6.7h8.5v41.1h-9l-17.1-27.5h-0.1v27.5h-8.5V6.7z"/>
	<path fill="#8FA3AD" d="M31.4,89.5c-0.6-4.1-4.5-7.2-9-7.2c-8.1,0-11.2,6.9-11.2,14.1c0,6.9,3.1,13.8,11.2,13.8
		c5.5,0,8.6-3.8,9.3-9.2h8.8c-0.9,10.3-8,16.8-18.1,16.8c-12.7,0-20.2-9.5-20.2-21.4c0-12.2,7.5-21.7,20.2-21.7
		c9,0,16.7,5.3,17.8,14.8H31.4z"/>
	<path fill="#8FA3AD" d="M65.1,74.7c12.7,0,20.2,9.5,20.2,21.7c0,11.9-7.5,21.4-20.2,21.4s-20.2-9.5-20.2-21.4
		C44.9,84.2,52.4,74.7,65.1,74.7z M65.1,110.2c8.1,0,11.2-6.9,11.2-13.8c0-7.2-3.1-14.1-11.2-14.1c-8.1,0-11.2,6.9-11.2,14.1
		C53.9,103.3,57,110.2,65.1,110.2z"/>
	<path fill="#8FA3AD" d="M91.5,75.7h12.7l9.6,28.3h0.1l9.1-28.3h12.7v41.1h-8.5V87.7h-0.1l-10.1,29.2h-7L100.1,88H100v28.9h-8.5
		V75.7z"/>
	<path fill="#8FA3AD" d="M143.8,75.7h18.6c10.3,0,14.2,6.5,14.2,13.2c0,6.7-4,13.2-14.2,13.2h-9.5v14.8h-9V75.7z M152.8,95h7
		c4.2,0,8-0.9,8-6.2c0-5.2-3.7-6.2-8-6.2h-7V95z"/>
	<path fill="#8FA3AD" d="M182.2,75.7h22.2c7.4,0,12,5.1,12,11.4c0,4.8-2,8.5-6.5,10.3v0.1c4.4,1.2,5.7,5.5,6,9.6
		c0.2,2.6,0.1,7.4,1.7,9.7h-9c-1.1-2.6-1-6.6-1.4-9.9c-0.6-4.3-2.3-6.2-6.9-6.2h-9v16.1h-9V75.7z M191.3,94.3h9.9
		c4,0,6.2-1.7,6.2-5.9c0-4-2.2-5.7-6.2-5.7h-9.9V94.3z"/>
	<path fill="#8FA3AD" d="M223.8,75.7h30.8v7.6h-21.7v8.8h19.9v7h-19.9v10.1h22.2v7.6h-31.2V75.7z"/>
	<path fill="#8FA3AD" d="M261.2,75.7h9v15.8h16.7V75.7h9v41.1h-9V99.1h-16.7v17.8h-9V75.7z"/>
	<path fill="#8FA3AD" d="M303.9,75.7h30.8v7.6h-21.7v8.8h19.9v7h-19.9v10.1h22.2v7.6h-31.2V75.7z"/>
	<path fill="#8FA3AD" d="M341.2,75.7h9l17.2,27.6h0.1V75.7h8.5v41.1h-9l-17.1-27.5h-0.1v27.5h-8.5V75.7z"/>
	<path fill="#8FA3AD" d="M390.1,103.2c0,5.5,4.3,7.6,9.1,7.6c3.2,0,8-0.9,8-5.1c0-4.4-6.2-5.2-12.2-6.8c-6.1-1.6-12.3-4-12.3-11.7
		c0-8.4,8-12.4,15.4-12.4c8.6,0,16.5,3.7,16.5,13.3h-8.8c-0.3-5-3.8-6.2-8.1-6.2c-2.9,0-6.2,1.2-6.2,4.7c0,3.2,2,3.6,12.3,6.2
		c3,0.8,12.2,2.7,12.2,12c0,7.5-5.9,13.2-17.1,13.2c-9.1,0-17.6-4.5-17.5-14.6H390.1z"/>
	<path fill="#8FA3AD" d="M421.3,75.7h9v41.1h-9V75.7z"/>
	<path fill="#8FA3AD" d="M457.5,116.8h-10.2l-13.4-41.1h9.3l9.2,28.9h0.1l9.3-28.9h9.3L457.5,116.8z"/>
	<path fill="#8FA3AD" d="M474.6,75.7h30.8v7.6h-21.7v8.8h19.9v7h-19.9v10.1h22.2v7.6h-31.2V75.7z"/>
	<path fill="#8FA3AD" d="M4,144.7h22.2c7.4,0,12,5.1,12,11.4c0,4.8-2,8.5-6.5,10.3v0.1c4.4,1.2,5.7,5.5,6,9.6
		c0.2,2.6,0.1,7.4,1.7,9.7h-9c-1.1-2.6-1-6.6-1.4-9.9c-0.6-4.3-2.3-6.2-6.9-6.2h-9v16.1H4V144.7z M13,163.3h9.9c4,0,6.2-1.7,6.2-5.9
		c0-4-2.2-5.7-6.2-5.7H13V163.3z"/>
	<path fill="#8FA3AD" d="M45.6,144.7h9v41.1h-9V144.7z"/>
	<path fill="#8FA3AD" d="M68.8,172.2c0,5.5,4.3,7.6,9.1,7.6c3.2,0,8-0.9,8-5.1c0-4.4-6.2-5.2-12.2-6.8c-6.1-1.6-12.3-4-12.3-11.7
		c0-8.4,8-12.4,15.4-12.4c8.6,0,16.5,3.7,16.5,13.3h-8.8c-0.3-5-3.8-6.2-8.1-6.2c-2.9,0-6.2,1.2-6.2,4.7c0,3.2,2,3.6,12.3,6.2
		c3,0.8,12.2,2.7,12.2,12c0,7.5-5.9,13.2-17.1,13.2c-9.1,0-17.6-4.5-17.5-14.6H68.8z"/>
	<path fill="#8FA3AD" d="M100,144.7h9v17.1l16.1-17.1h11.3l-16.1,16.3l17.6,24.9h-11.4l-12.4-18.5l-5.2,5.2v13.3h-9V144.7z"/>
	<path fill="#8FA3AD" d="M157.6,144.7h9v41.1h-9V144.7z"/>
	<path fill="#8FA3AD" d="M174.6,144.7h9l17.2,27.6h0.1v-27.6h8.5v41.1h-9l-17.1-27.5h-0.1v27.5h-8.5V144.7z"/>
	<path fill="#8FA3AD" d="M217.3,144.7h17.8c10.7,0,18.7,6.7,18.7,20.3c0,11.9-6.1,20.8-18.7,20.8h-17.8V144.7z M226.4,178.2h8.1
		c5.2,0,10.3-3.2,10.3-12.3c0-8.3-2.9-13.6-11.9-13.6h-6.5V178.2z"/>
	<path fill="#8FA3AD" d="M260,144.7h30.8v7.6h-21.7v8.8H289v7h-19.9v10.1h22.2v7.6H260V144.7z"/>
	<path fill="#8FA3AD" d="M307.5,164.3l-13.3-19.6h10.5l8.1,13.1l8.4-13.1h9.9l-13.2,19.7l14.4,21.5h-10.8l-9-14.2l-9.2,14.2H293
		L307.5,164.3z"/>
	<path fill="#8FA3AD" d="M384,144.7h17.4c6.9,0,13.2,2.4,13.2,10.1c0,4.3-2.9,8.3-7.1,9.2v0.1c5.3,0.7,8.7,4.7,8.7,10
		c0,3.9-1.4,11.7-14.8,11.7H384V144.7z M388,162.7h13.5c6.3,0,9.3-3.1,9.3-7c0-5.1-3.2-7.7-9.3-7.7H388V162.7z M388,182.5h13.5
		c5.8,0.1,10.8-1.9,10.8-8.5c0-5.2-4-8-10.8-8H388V182.5z"/>
	<path fill="#8FA3AD" d="M422.5,144.7h28.4v3.3h-24.5v14.9h22.9v3.3h-22.9v16.3h24.8v3.3h-28.7V144.7z"/>
	<path fill="#8FA3AD" d="M452.2,144.7h32.6v3.3h-14.4v37.8h-3.9V148h-14.4V144.7z"/>
	<path fill="#8FA3AD" d="M496.8,144.7h4.4l16.1,41.1h-4.2l-5-12.8h-18.7l-5,12.8h-4.2L496.8,144.7z M490.6,169.7h16.2l-8-21.1
		L490.6,169.7z"/>
</g>
<g>
	<path fill="#8FA3AD" d="M342.6,144.9h13v1.3h-5.7v15.1h-1.6v-15.1h-5.7V144.9z"/>
	<path fill="#8FA3AD" d="M357.2,144.9h2.3l5.7,14.4l5.7-14.4h2.3v16.5h-1.6v-14.2h0l-5.6,14.2h-1.5l-5.6-14.2h0v14.2h-1.6V144.9z"/>
</g>
<g>
</g>
<g>
</g>
<g>
</g>
<g>
</g>
<g>
</g>
<g>
</g>
<g>
</g>
<g>
</g>
<g>
</g>
<g>
</g>
<g>
</g>
<g>
</g>
<g>
</g>
<g>
</g>
<g>
</g>
</svg>
