<?xml version="1.0" encoding="utf-8"?>
<!-- Generator: Adobe Illustrator 18.0.0, SVG Export Plug-In . SVG Version: 6.00 Build 0)  -->
<!DOCTYPE svg PUBLIC "-//W3C//DTD SVG 1.1//EN" "http://www.w3.org/Graphics/SVG/1.1/DTD/svg11.dtd">
<svg version="1.1" id="Layer_1" xmlns="http://www.w3.org/2000/svg" xmlns:xlink="http://www.w3.org/1999/xlink" x="0px" y="0px"
	 viewBox="0 0 733.4 192.5" enable-background="new 0 0 733.4 192.5" xml:space="preserve">
<g>
	<polygon fill="none" points="626.4,447.8 183,447.8 183,0 658.1,0 794.2,198.5 	"/>
	<path fill="#8FA3AD" d="M185.5,0h4.8v11.1h0.1c1.2-2,3.7-3.4,6.5-3.4c4.7,0,7.7,2.5,7.7,7.4V30h-4.8V16.4c-0.1-3.4-1.4-4.9-4.2-4.9
		c-3.2,0-5.3,2.5-5.3,5.7V30h-4.8V0z"/>
	<path fill="#8FA3AD" d="M207.3,8.3h5.3l5.7,16.2h0.1l5.5-16.2h5l-8.4,22.9c-1.6,3.9-2.7,7.4-7.7,7.4c-1.1,0-2.2-0.1-3.3-0.3v-4
		c0.8,0.1,1.5,0.3,2.3,0.3c2.2,0,2.8-1.2,3.4-3l0.5-1.7L207.3,8.3z"/>
	<path fill="#8FA3AD" d="M231.6,8.3h4.5v2.9h0.1c1.3-2.5,3.9-3.5,6.7-3.5c6.8,0,10.2,5.2,10.2,11.6c0,5.8-2.9,11.3-9.4,11.3
		c-2.8,0-5.8-1-7.3-3.4h-0.1V38h-4.8V8.3z M242.3,11.5c-4,0-6.1,3.1-6.1,7.7c0,4.4,2.2,7.6,6.1,7.6c4.4,0,6-3.9,6-7.6
		C248.3,15.2,246.2,11.5,242.3,11.5z"/>
	<path fill="#8FA3AD" d="M260.9,20.4c0,3.4,1.8,6.4,5.8,6.4c2.8,0,4.5-1.2,5.3-3.6h4.5c-1,4.7-5.1,7.4-9.8,7.4
		c-6.8,0-10.6-4.7-10.6-11.4c0-6.2,4-11.5,10.5-11.5c6.8,0,11,6.2,10.2,12.7H260.9z M272,17.3c-0.2-3-2.2-5.8-5.5-5.8
		c-3.3,0-5.6,2.5-5.7,5.8H272z"/>
	<path fill="#8FA3AD" d="M185,67.2h2v3.2h-2V67.2z M185,73.5h2V90h-2V73.5z"/>
	<path fill="#8FA3AD" d="M200.8,78.3c-0.1-2.5-2-3.6-4.3-3.6c-1.8,0-3.9,0.7-3.9,2.8c0,1.8,2,2.4,3.4,2.8l2.7,0.6
		c2.3,0.4,4.7,1.7,4.7,4.6c0,3.6-3.6,5-6.6,5c-3.8,0-6.5-1.8-6.8-5.8h2c0.2,2.7,2.2,4.1,4.9,4.1c1.9,0,4.5-0.8,4.5-3.1
		c0-1.9-1.8-2.6-3.6-3l-2.6-0.6c-2.6-0.7-4.6-1.6-4.6-4.4c0-3.4,3.3-4.6,6.2-4.6c3.3,0,5.9,1.7,6,5.3H200.8z"/>
	<path fill="#8FA3AD" d="M218.4,73.5h3.4v1.7h-3.4v11.1c0,1.3,0.2,2.1,1.6,2.2c0.6,0,1.2,0,1.7-0.1v1.7c-0.6,0-1.2,0.1-1.8,0.1
		c-2.7,0-3.6-0.9-3.6-3.7V75.2h-2.9v-1.7h2.9v-5h2V73.5z"/>
	<path fill="#8FA3AD" d="M224.6,67.2h2v9.2h0.1c0.7-2,2.9-3.3,5.3-3.3c4.6,0,6,2.4,6,6.4V90h-2V79.7c0-2.8-0.9-5-4.2-5
		c-3.2,0-5.1,2.4-5.2,5.7V90h-2V67.2z"/>
	<path fill="#8FA3AD" d="M243,82.3c0,2.9,1.6,6.5,5.4,6.5c2.9,0,4.5-1.7,5.2-4.2h2c-0.9,3.7-3,5.9-7.2,5.9c-5.2,0-7.5-4-7.5-8.7
		c0-4.4,2.2-8.7,7.5-8.7c5.3,0,7.4,4.6,7.3,9.3H243z M253.7,80.6c-0.1-3-2-5.9-5.2-5.9c-3.3,0-5.1,2.9-5.4,5.9H253.7z"/>
	<path fill="#8FA3AD" d="M265.5,73.5h2.2l5.2,14.5h0.1l5.1-14.5h2.1L274,90h-2.1L265.5,73.5z"/>
	<path fill="#8FA3AD" d="M296.9,81.8c0,4.7-2.8,8.7-7.8,8.7s-7.8-4-7.8-8.7c0-4.7,2.8-8.7,7.8-8.7S296.9,77,296.9,81.8z M283.3,81.8
		c0,3.5,1.9,7,5.8,7c3.9,0,5.8-3.5,5.8-7c0-3.5-1.9-7-5.8-7C285.2,74.7,283.3,78.2,283.3,81.8z"/>
	<path fill="#8FA3AD" d="M300,67.2h2V90h-2V67.2z"/>
	<path fill="#8FA3AD" d="M305.6,78.6c0.2-3.9,2.9-5.5,6.7-5.5c2.9,0,6.1,0.9,6.1,5.3v8.8c0,0.8,0.4,1.2,1.2,1.2
		c0.2,0,0.5-0.1,0.6-0.1v1.7c-0.4,0.1-0.8,0.1-1.3,0.1c-2,0-2.4-1.2-2.4-2.9h-0.1c-1.4,2.1-2.8,3.4-6,3.4c-3,0-5.5-1.5-5.5-4.8
		c0-4.6,4.5-4.8,8.9-5.3c1.7-0.2,2.6-0.4,2.6-2.2c0-2.7-2-3.4-4.3-3.4c-2.5,0-4.4,1.2-4.4,3.8H305.6z M316.4,81L316.4,81
		c-0.3,0.5-1.2,0.6-1.8,0.7c-3.4,0.6-7.7,0.6-7.7,3.8c0,2,1.8,3.3,3.7,3.3c3.1,0,5.8-2,5.8-5.2V81z"/>
	<path fill="#8FA3AD" d="M325.6,73.5h3.4v1.7h-3.4v11.1c0,1.3,0.2,2.1,1.6,2.2c0.6,0,1.2,0,1.7-0.1v1.7c-0.6,0-1.2,0.1-1.8,0.1
		c-2.7,0-3.6-0.9-3.6-3.7V75.2h-2.9v-1.7h2.9v-5h2V73.5z"/>
	<path fill="#8FA3AD" d="M332,67.2h2v3.2h-2V67.2z M332,73.5h2V90h-2V73.5z"/>
	<path fill="#8FA3AD" d="M337.9,67.2h2V90h-2V67.2z"/>
	<path fill="#8FA3AD" d="M343.8,67.2h2v3.2h-2V67.2z M343.8,73.5h2V90h-2V73.5z"/>
	<path fill="#8FA3AD" d="M352.9,73.5h3.4v1.7h-3.4v11.1c0,1.3,0.2,2.1,1.6,2.2c0.6,0,1.2,0,1.7-0.1v1.7c-0.6,0-1.2,0.1-1.8,0.1
		c-2.7,0-3.6-0.9-3.6-3.7V75.2H348v-1.7h2.9v-5h2V73.5z"/>
	<path fill="#8FA3AD" d="M357.3,73.5h2.1l5.4,14.1l5.1-14.1h2l-7.2,19c-1.2,2.8-1.8,3.6-4.4,3.6c-0.8,0-1.2,0-1.5-0.2v-1.7
		c0.5,0.1,0.9,0.2,1.4,0.2c1.8,0,2.2-1.1,2.9-2.6l0.7-1.9L357.3,73.5z"/>
	<path fill="#8FA3AD" d="M394.5,78.7c-0.5-2.5-2-4-4.7-4c-3.9,0-5.8,3.5-5.8,7c0,3.5,1.9,7,5.8,7c2.5,0,4.5-2,4.8-4.7h2
		c-0.5,4-3.1,6.4-6.8,6.4c-5.1,0-7.8-4-7.8-8.7c0-4.7,2.8-8.7,7.8-8.7c3.5,0,6.2,1.9,6.7,5.7H394.5z"/>
	<path fill="#8FA3AD" d="M399.3,78.6c0.2-3.9,2.9-5.5,6.7-5.5c2.9,0,6.1,0.9,6.1,5.3v8.8c0,0.8,0.4,1.2,1.2,1.2
		c0.2,0,0.5-0.1,0.6-0.1v1.7c-0.4,0.1-0.8,0.1-1.3,0.1c-2,0-2.4-1.2-2.4-2.9h-0.1c-1.4,2.1-2.8,3.4-6,3.4c-3,0-5.5-1.5-5.5-4.8
		c0-4.6,4.5-4.8,8.9-5.3c1.7-0.2,2.6-0.4,2.6-2.2c0-2.7-2-3.4-4.3-3.4c-2.5,0-4.4,1.2-4.4,3.8H399.3z M410,81L410,81
		c-0.3,0.5-1.2,0.6-1.8,0.7c-3.4,0.6-7.7,0.6-7.7,3.8c0,2,1.8,3.3,3.7,3.3c3.1,0,5.8-2,5.8-5.2V81z"/>
	<path fill="#8FA3AD" d="M429.5,90h-1.9v-3h-0.1c-1.1,2.2-3.2,3.5-5.7,3.5c-4.2,0-5.8-2.4-5.8-6.3V73.5h2v10.8
		c0.1,3,1.2,4.5,4.4,4.5c3.5,0,5-3.3,5-6.6v-8.7h2V90z"/>
	<path fill="#8FA3AD" d="M443.2,78.3c-0.1-2.5-2-3.6-4.3-3.6c-1.8,0-3.9,0.7-3.9,2.8c0,1.8,2,2.4,3.4,2.8L441,81
		c2.3,0.4,4.7,1.7,4.7,4.6c0,3.6-3.6,5-6.6,5c-3.8,0-6.5-1.8-6.8-5.8h2c0.2,2.7,2.2,4.1,4.9,4.1c1.9,0,4.5-0.8,4.5-3.1
		c0-1.9-1.8-2.6-3.6-3l-2.6-0.6c-2.6-0.7-4.6-1.6-4.6-4.4c0-3.4,3.3-4.6,6.2-4.6c3.3,0,5.9,1.7,6,5.3H443.2z"/>
	<path fill="#8FA3AD" d="M449.8,82.3c0,2.9,1.6,6.5,5.4,6.5c2.9,0,4.5-1.7,5.2-4.2h2c-0.9,3.7-3,5.9-7.2,5.9c-5.2,0-7.5-4-7.5-8.7
		c0-4.4,2.2-8.7,7.5-8.7c5.3,0,7.4,4.6,7.3,9.3H449.8z M460.5,80.6c-0.1-3-2-5.9-5.2-5.9c-3.3,0-5.1,2.9-5.4,5.9H460.5z"/>
	<path fill="#8FA3AD" d="M479.8,90h-1.9v-3.1h-0.1c-0.9,2.1-3.5,3.6-5.9,3.6c-5,0-7.4-4.1-7.4-8.7c0-4.7,2.4-8.7,7.4-8.7
		c2.5,0,4.9,1.2,5.7,3.6h0.1v-9.5h2V90z M472,88.8c4.3,0,5.8-3.6,5.8-7c0-3.4-1.5-7-5.8-7c-3.8,0-5.4,3.6-5.4,7
		C466.6,85.2,468.1,88.8,472,88.8z"/>
	<path fill="#8FA3AD" d="M492.5,67.2h2v9.5h0.1c0.9-2.4,3.3-3.6,5.7-3.6c5,0,7.4,4.1,7.4,8.7c0,4.7-2.4,8.7-7.4,8.7
		c-2.7,0-5-1.4-5.9-3.6h-0.1V90h-1.9V67.2z M500.3,74.7c-4.3,0-5.8,3.6-5.8,7c0,3.4,1.5,7,5.8,7c3.8,0,5.4-3.6,5.4-7
		C505.7,78.3,504.2,74.7,500.3,74.7z"/>
	<path fill="#8FA3AD" d="M509,73.5h2.1l5.4,14.1l5.1-14.1h2l-7.2,19c-1.2,2.8-1.8,3.6-4.4,3.6c-0.8,0-1.2,0-1.5-0.2v-1.7
		c0.5,0.1,0.9,0.2,1.4,0.2c1.8,0,2.2-1.1,2.9-2.6l0.7-1.9L509,73.5z"/>
	<path fill="#8FA3AD" d="M544.5,78.3c-0.1-2.5-2-3.6-4.3-3.6c-1.8,0-3.9,0.7-3.9,2.8c0,1.8,2,2.4,3.4,2.8l2.7,0.6
		c2.3,0.4,4.7,1.7,4.7,4.6c0,3.6-3.6,5-6.6,5c-3.8,0-6.5-1.8-6.8-5.8h2c0.2,2.7,2.2,4.1,4.9,4.1c1.9,0,4.5-0.8,4.5-3.1
		c0-1.9-1.8-2.6-3.6-3l-2.6-0.6c-2.6-0.7-4.6-1.6-4.6-4.4c0-3.4,3.3-4.6,6.2-4.6c3.3,0,5.9,1.7,6,5.3H544.5z"/>
	<path fill="#8FA3AD" d="M551.2,82.3c0,2.9,1.6,6.5,5.4,6.5c2.9,0,4.5-1.7,5.2-4.2h2c-0.9,3.7-3,5.9-7.2,5.9c-5.2,0-7.5-4-7.5-8.7
		c0-4.4,2.2-8.7,7.5-8.7c5.3,0,7.4,4.6,7.3,9.3H551.2z M561.9,80.6c-0.1-3-2-5.9-5.2-5.9c-3.3,0-5.1,2.9-5.4,5.9H561.9z"/>
	<path fill="#8FA3AD" d="M566.4,78.6c0.2-3.9,2.9-5.5,6.7-5.5c2.9,0,6.1,0.9,6.1,5.3v8.8c0,0.8,0.4,1.2,1.2,1.2
		c0.2,0,0.5-0.1,0.6-0.1v1.7c-0.4,0.1-0.8,0.1-1.3,0.1c-2,0-2.4-1.2-2.4-2.9h-0.1c-1.4,2.1-2.8,3.4-6,3.4c-3,0-5.5-1.5-5.5-4.8
		c0-4.6,4.5-4.8,8.9-5.3c1.7-0.2,2.6-0.4,2.6-2.2c0-2.7-2-3.4-4.3-3.4c-2.5,0-4.4,1.2-4.4,3.8H566.4z M577.2,81L577.2,81
		c-0.3,0.5-1.2,0.6-1.8,0.7c-3.4,0.6-7.7,0.6-7.7,3.8c0,2,1.8,3.3,3.7,3.3c3.1,0,5.8-2,5.8-5.2V81z"/>
	<path fill="#8FA3AD" d="M583.2,73.5h1.9v3.9h0.1c1-2.7,3.3-4.2,6.2-4.1v2c-3.6-0.2-6.1,2.5-6.1,5.9V90h-2V73.5z"/>
	<path fill="#8FA3AD" d="M604.4,78.7c-0.5-2.5-2-4-4.7-4c-3.9,0-5.8,3.5-5.8,7c0,3.5,1.9,7,5.8,7c2.5,0,4.5-2,4.8-4.7h2
		c-0.5,4-3.1,6.4-6.8,6.4c-5.1,0-7.8-4-7.8-8.7c0-4.7,2.8-8.7,7.8-8.7c3.5,0,6.2,1.9,6.7,5.7H604.4z"/>
	<path fill="#8FA3AD" d="M609.3,67.2h2v9.2h0.1c0.7-2,2.9-3.3,5.3-3.3c4.6,0,6,2.4,6,6.4V90h-2V79.7c0-2.8-0.9-5-4.2-5
		c-3.2,0-5.1,2.4-5.2,5.7V90h-2V67.2z"/>
	<path fill="#8FA3AD" d="M627.7,82.3c0,2.9,1.6,6.5,5.4,6.5c2.9,0,4.5-1.7,5.2-4.2h2c-0.9,3.7-3,5.9-7.2,5.9c-5.2,0-7.5-4-7.5-8.7
		c0-4.4,2.2-8.7,7.5-8.7c5.3,0,7.4,4.6,7.3,9.3H627.7z M638.4,80.6c-0.1-3-2-5.9-5.2-5.9c-3.3,0-5.1,2.9-5.4,5.9H638.4z"/>
	<path fill="#8FA3AD" d="M653,78.3c-0.1-2.5-2-3.6-4.3-3.6c-1.8,0-3.9,0.7-3.9,2.8c0,1.8,2,2.4,3.4,2.8l2.7,0.6
		c2.3,0.4,4.7,1.7,4.7,4.6c0,3.6-3.6,5-6.6,5c-3.8,0-6.5-1.8-6.8-5.8h2c0.2,2.7,2.2,4.1,4.9,4.1c1.9,0,4.5-0.8,4.5-3.1
		c0-1.9-1.8-2.6-3.6-3l-2.6-0.6c-2.6-0.7-4.6-1.6-4.6-4.4c0-3.4,3.3-4.6,6.2-4.6c3.3,0,5.9,1.7,6,5.3H653z"/>
	<path fill="#8FA3AD" d="M662.4,86.6v3.4c0,1.9-0.9,3.8-2.8,4.4V93c1.1-0.4,1.5-2,1.5-3h-1.3v-3.4H662.4z"/>
	<path fill="#8FA3AD" d="M194.8,126.3c-0.1-2.5-2-3.6-4.3-3.6c-1.8,0-3.9,0.7-3.9,2.8c0,1.8,2,2.4,3.4,2.8l2.7,0.6
		c2.3,0.4,4.7,1.7,4.7,4.6c0,3.6-3.6,5-6.6,5c-3.8,0-6.5-1.8-6.8-5.8h2c0.2,2.7,2.2,4.1,4.9,4.1c1.9,0,4.5-0.8,4.5-3.1
		c0-1.9-1.8-2.6-3.6-3l-2.6-0.6c-2.6-0.7-4.6-1.6-4.6-4.4c0-3.4,3.3-4.6,6.2-4.6c3.3,0,5.9,1.7,6,5.3H194.8z"/>
	<path fill="#8FA3AD" d="M200.3,115.2h2v9.2h0.1c0.7-2,2.9-3.3,5.3-3.3c4.6,0,6,2.4,6,6.4V138h-2v-10.3c0-2.8-0.9-5-4.2-5
		c-3.2,0-5.1,2.4-5.2,5.7v9.6h-2V115.2z"/>
	<path fill="#8FA3AD" d="M217.3,126.6c0.2-3.9,2.9-5.5,6.7-5.5c2.9,0,6.1,0.9,6.1,5.3v8.8c0,0.8,0.4,1.2,1.2,1.2
		c0.2,0,0.5-0.1,0.6-0.1v1.7c-0.4,0.1-0.8,0.1-1.3,0.1c-2,0-2.4-1.2-2.4-2.9h-0.1c-1.4,2.1-2.8,3.4-6,3.4c-3,0-5.5-1.5-5.5-4.8
		c0-4.6,4.5-4.8,8.9-5.3c1.7-0.2,2.6-0.4,2.6-2.2c0-2.7-2-3.4-4.3-3.4c-2.5,0-4.4,1.2-4.4,3.8H217.3z M228.1,129L228.1,129
		c-0.3,0.5-1.2,0.6-1.8,0.7c-3.4,0.6-7.7,0.6-7.7,3.8c0,2,1.8,3.3,3.7,3.3c3.1,0,5.8-2,5.8-5.2V129z"/>
	<path fill="#8FA3AD" d="M234.1,121.5h1.9v3.9h0.1c1-2.7,3.3-4.2,6.2-4.1v2c-3.6-0.2-6.1,2.5-6.1,5.9v8.8h-2V121.5z"/>
	<path fill="#8FA3AD" d="M244.2,115.2h2v3.2h-2V115.2z M244.2,121.5h2V138h-2V121.5z"/>
	<path fill="#8FA3AD" d="M250.1,121.5h2v2.8h0.1c0.7-2,2.9-3.3,5.3-3.3c4.6,0,6,2.4,6,6.4V138h-2v-10.3c0-2.8-0.9-5-4.2-5
		c-3.2,0-5.1,2.4-5.2,5.7v9.6h-2V121.5z"/>
	<path fill="#8FA3AD" d="M281.3,136.7c0,4.9-1.9,7.9-7.3,7.9c-3.3,0-6.6-1.5-6.8-5h2c0.4,2.4,2.6,3.3,4.8,3.3c3.7,0,5.3-2.2,5.3-6.2
		v-2.2h-0.1c-0.9,2-2.9,3.4-5.2,3.4c-5.3,0-7.5-3.8-7.5-8.5c0-4.5,2.7-8.3,7.5-8.3c2.4,0,4.4,1.5,5.2,3.3h0.1v-2.8h2V136.7z
		 M279.2,129.6c0-3.2-1.5-6.8-5.3-6.8c-3.8,0-5.4,3.4-5.4,6.8c0,3.3,1.7,6.6,5.4,6.6C277.4,136.1,279.2,132.9,279.2,129.6z"/>
	<path fill="#8FA3AD" d="M289,134.6v3.4c0,1.9-0.9,3.8-2.8,4.4V141c1.1-0.4,1.5-2,1.5-3h-1.3v-3.4H289z"/>
	<path fill="#8FA3AD" d="M302.7,126.6c0.2-3.9,2.9-5.5,6.7-5.5c2.9,0,6.1,0.9,6.1,5.3v8.8c0,0.8,0.4,1.2,1.2,1.2
		c0.2,0,0.5-0.1,0.6-0.1v1.7c-0.4,0.1-0.8,0.1-1.3,0.1c-2,0-2.4-1.2-2.4-2.9h-0.1c-1.4,2.1-2.8,3.4-6,3.4c-3,0-5.5-1.5-5.5-4.8
		c0-4.6,4.5-4.8,8.9-5.3c1.7-0.2,2.6-0.4,2.6-2.2c0-2.7-2-3.4-4.3-3.4c-2.5,0-4.4,1.2-4.4,3.8H302.7z M313.5,129L313.5,129
		c-0.3,0.5-1.2,0.6-1.8,0.7c-3.4,0.6-7.7,0.6-7.7,3.8c0,2,1.8,3.3,3.7,3.3c3.1,0,5.8-2,5.8-5.2V129z"/>
	<path fill="#8FA3AD" d="M319.5,121.5h2v2.8h0.1c0.7-2,2.9-3.3,5.3-3.3c4.6,0,6,2.4,6,6.4V138h-2v-10.3c0-2.8-0.9-5-4.2-5
		c-3.2,0-5.1,2.4-5.2,5.7v9.6h-2V121.5z"/>
	<path fill="#8FA3AD" d="M351.2,138h-1.9v-3.1h-0.1c-0.9,2.1-3.5,3.6-5.9,3.6c-5,0-7.4-4.1-7.4-8.7c0-4.7,2.4-8.7,7.4-8.7
		c2.5,0,4.9,1.2,5.7,3.6h0.1v-9.5h2V138z M343.4,136.8c4.3,0,5.8-3.6,5.8-7c0-3.4-1.5-7-5.8-7c-3.8,0-5.4,3.6-5.4,7
		C338,133.2,339.6,136.8,343.4,136.8z"/>
	<path fill="#8FA3AD" d="M363.9,115.2h2v9.2h0.1c0.7-2,2.9-3.3,5.3-3.3c4.6,0,6,2.4,6,6.4V138h-2v-10.3c0-2.8-0.9-5-4.2-5
		c-3.2,0-5.1,2.4-5.2,5.7v9.6h-2V115.2z"/>
	<path fill="#8FA3AD" d="M380.9,126.6c0.2-3.9,2.9-5.5,6.7-5.5c2.9,0,6.1,0.9,6.1,5.3v8.8c0,0.8,0.4,1.2,1.2,1.2
		c0.2,0,0.5-0.1,0.6-0.1v1.7c-0.4,0.1-0.8,0.1-1.3,0.1c-2,0-2.4-1.2-2.4-2.9h-0.1c-1.4,2.1-2.8,3.4-6,3.4c-3,0-5.5-1.5-5.5-4.8
		c0-4.6,4.5-4.8,8.9-5.3c1.7-0.2,2.6-0.4,2.6-2.2c0-2.7-2-3.4-4.3-3.4c-2.5,0-4.4,1.2-4.4,3.8H380.9z M391.7,129L391.7,129
		c-0.3,0.5-1.2,0.6-1.8,0.7c-3.4,0.6-7.7,0.6-7.7,3.8c0,2,1.8,3.3,3.7,3.3c3.1,0,5.8-2,5.8-5.2V129z"/>
	<path fill="#8FA3AD" d="M407.6,126.3c-0.1-2.5-2-3.6-4.3-3.6c-1.8,0-3.9,0.7-3.9,2.8c0,1.8,2,2.4,3.4,2.8l2.7,0.6
		c2.3,0.4,4.7,1.7,4.7,4.6c0,3.6-3.6,5-6.6,5c-3.8,0-6.5-1.8-6.8-5.8h2c0.2,2.7,2.2,4.1,4.9,4.1c1.9,0,4.5-0.8,4.5-3.1
		c0-1.9-1.8-2.6-3.6-3l-2.6-0.6c-2.6-0.7-4.6-1.6-4.6-4.4c0-3.4,3.3-4.6,6.2-4.6c3.3,0,5.9,1.7,6,5.3H407.6z"/>
	<path fill="#8FA3AD" d="M413.1,115.2h2v9.2h0.1c0.7-2,2.9-3.3,5.3-3.3c4.6,0,6,2.4,6,6.4V138h-2v-10.3c0-2.8-0.9-5-4.2-5
		c-3.2,0-5.1,2.4-5.2,5.7v9.6h-2V115.2z"/>
	<path fill="#8FA3AD" d="M433.5,121.5h3.4v1.7h-3.4v11.1c0,1.3,0.2,2.1,1.6,2.2c0.6,0,1.2,0,1.7-0.1v1.7c-0.6,0-1.2,0.1-1.8,0.1
		c-2.7,0-3.6-0.9-3.6-3.7v-11.3h-2.9v-1.7h2.9v-5h2V121.5z"/>
	<path fill="#8FA3AD" d="M439.6,126.6c0.2-3.9,2.9-5.5,6.7-5.5c2.9,0,6.1,0.9,6.1,5.3v8.8c0,0.8,0.4,1.2,1.2,1.2
		c0.2,0,0.5-0.1,0.6-0.1v1.7c-0.4,0.1-0.8,0.1-1.3,0.1c-2,0-2.4-1.2-2.4-2.9h-0.1c-1.4,2.1-2.8,3.4-6,3.4c-3,0-5.5-1.5-5.5-4.8
		c0-4.6,4.5-4.8,8.9-5.3c1.7-0.2,2.6-0.4,2.6-2.2c0-2.7-2-3.4-4.3-3.4c-2.5,0-4.4,1.2-4.4,3.8H439.6z M450.3,129L450.3,129
		c-0.3,0.5-1.2,0.6-1.8,0.7c-3.4,0.6-7.7,0.6-7.7,3.8c0,2,1.8,3.3,3.7,3.3c3.1,0,5.8-2,5.8-5.2V129z"/>
	<path fill="#8FA3AD" d="M470.3,136.7c0,4.9-1.9,7.9-7.3,7.9c-3.3,0-6.6-1.5-6.8-5h2c0.4,2.4,2.6,3.3,4.8,3.3c3.7,0,5.3-2.2,5.3-6.2
		v-2.2h-0.1c-0.9,2-2.9,3.4-5.2,3.4c-5.3,0-7.5-3.8-7.5-8.5c0-4.5,2.7-8.3,7.5-8.3c2.4,0,4.4,1.5,5.2,3.3h0.1v-2.8h2V136.7z
		 M468.3,129.6c0-3.2-1.5-6.8-5.3-6.8c-3.8,0-5.4,3.4-5.4,6.8c0,3.3,1.7,6.6,5.4,6.6C466.5,136.1,468.3,132.9,468.3,129.6z"/>
	<path fill="#8FA3AD" d="M486.3,121.5h3.4v1.7h-3.4v11.1c0,1.3,0.2,2.1,1.6,2.2c0.6,0,1.2,0,1.7-0.1v1.7c-0.6,0-1.2,0.1-1.8,0.1
		c-2.7,0-3.6-0.9-3.6-3.7v-11.3h-2.9v-1.7h2.9v-5h2V121.5z"/>
	<path fill="#8FA3AD" d="M492.6,121.5h1.9v3.9h0.1c1-2.7,3.3-4.2,6.2-4.1v2c-3.6-0.2-6.1,2.5-6.1,5.9v8.8h-2V121.5z"/>
	<path fill="#8FA3AD" d="M503.2,130.3c0,2.9,1.6,6.5,5.4,6.5c2.9,0,4.5-1.7,5.2-4.2h2c-0.9,3.7-3,5.9-7.2,5.9c-5.2,0-7.5-4-7.5-8.7
		c0-4.4,2.2-8.7,7.5-8.7c5.3,0,7.4,4.6,7.3,9.3H503.2z M513.9,128.6c-0.1-3-2-5.9-5.2-5.9c-3.3,0-5.1,2.9-5.4,5.9H513.9z"/>
	<path fill="#8FA3AD" d="M518.6,121.5h2v2.8h0.1c0.7-2,2.9-3.3,5.3-3.3c4.6,0,6,2.4,6,6.4V138h-2v-10.3c0-2.8-0.9-5-4.2-5
		c-3.2,0-5.1,2.4-5.2,5.7v9.6h-2V121.5z"/>
	<path fill="#8FA3AD" d="M550.4,138h-1.9v-3.1h-0.1c-0.9,2.1-3.5,3.6-5.9,3.6c-5,0-7.4-4.1-7.4-8.7c0-4.7,2.4-8.7,7.4-8.7
		c2.5,0,4.9,1.2,5.7,3.6h0.1v-9.5h2V138z M542.6,136.8c4.3,0,5.8-3.6,5.8-7c0-3.4-1.5-7-5.8-7c-3.8,0-5.4,3.6-5.4,7
		C537.2,133.2,538.7,136.8,542.6,136.8z"/>
	<path fill="#8FA3AD" d="M564.1,126.3c-0.1-2.5-2-3.6-4.3-3.6c-1.8,0-3.9,0.7-3.9,2.8c0,1.8,2,2.4,3.4,2.8l2.7,0.6
		c2.3,0.4,4.7,1.7,4.7,4.6c0,3.6-3.6,5-6.6,5c-3.8,0-6.5-1.8-6.8-5.8h2c0.2,2.7,2.2,4.1,4.9,4.1c1.9,0,4.5-0.8,4.5-3.1
		c0-1.9-1.8-2.6-3.6-3l-2.6-0.6c-2.6-0.7-4.6-1.6-4.6-4.4c0-3.4,3.3-4.6,6.2-4.6c3.3,0,5.9,1.7,6,5.3H564.1z"/>
	<path fill="#8FA3AD" d="M570.8,138v-3.4h2.7v3.4H570.8z"/>
	<path fill="#8FA3AD" d="M585.5,115.2h2.3l5.2,20h0.1l5.6-20h2.7l5.6,20h0.1l5.2-20h2.2l-6.3,22.8h-2.3l-5.8-20.4h-0.1l-5.8,20.4
		h-2.4L585.5,115.2z"/>
	<path fill="#8FA3AD" d="M617,130.3c0,2.9,1.6,6.5,5.4,6.5c2.9,0,4.5-1.7,5.2-4.2h2c-0.9,3.7-3,5.9-7.2,5.9c-5.2,0-7.5-4-7.5-8.7
		c0-4.4,2.2-8.7,7.5-8.7c5.3,0,7.4,4.6,7.3,9.3H617z M627.7,128.6c-0.1-3-2-5.9-5.2-5.9c-3.3,0-5.1,2.9-5.4,5.9H627.7z"/>
	<path fill="#8FA3AD" d="M641.2,126.6c0.2-3.9,2.9-5.5,6.7-5.5c2.9,0,6.1,0.9,6.1,5.3v8.8c0,0.8,0.4,1.2,1.2,1.2
		c0.2,0,0.5-0.1,0.6-0.1v1.7c-0.4,0.1-0.8,0.1-1.3,0.1c-2,0-2.4-1.2-2.4-2.9H652c-1.4,2.1-2.8,3.4-6,3.4c-3,0-5.5-1.5-5.5-4.8
		c0-4.6,4.5-4.8,8.9-5.3c1.7-0.2,2.6-0.4,2.6-2.2c0-2.7-2-3.4-4.3-3.4c-2.5,0-4.4,1.2-4.4,3.8H641.2z M651.9,129L651.9,129
		c-0.3,0.5-1.2,0.6-1.8,0.7c-3.4,0.6-7.7,0.6-7.7,3.8c0,2,1.8,3.3,3.7,3.3c3.1,0,5.8-2,5.8-5.2V129z"/>
	<path fill="#8FA3AD" d="M667.8,126.3c-0.1-2.5-2-3.6-4.3-3.6c-1.8,0-3.9,0.7-3.9,2.8c0,1.8,2,2.4,3.4,2.8l2.7,0.6
		c2.3,0.4,4.7,1.7,4.7,4.6c0,3.6-3.6,5-6.6,5c-3.8,0-6.5-1.8-6.8-5.8h2c0.2,2.7,2.2,4.1,4.9,4.1c1.9,0,4.5-0.8,4.5-3.1
		c0-1.9-1.8-2.6-3.6-3l-2.6-0.6c-2.6-0.7-4.6-1.6-4.6-4.4c0-3.4,3.3-4.6,6.2-4.6c3.3,0,5.9,1.7,6,5.3H667.8z"/>
	<path fill="#8FA3AD" d="M683.2,126.3c-0.1-2.5-2-3.6-4.3-3.6c-1.8,0-3.9,0.7-3.9,2.8c0,1.8,2,2.4,3.4,2.8l2.7,0.6
		c2.3,0.4,4.7,1.7,4.7,4.6c0,3.6-3.6,5-6.6,5c-3.8,0-6.5-1.8-6.8-5.8h2c0.2,2.7,2.2,4.1,4.9,4.1c1.9,0,4.5-0.8,4.5-3.1
		c0-1.9-1.8-2.6-3.6-3l-2.6-0.6c-2.6-0.7-4.6-1.6-4.6-4.4c0-3.4,3.3-4.6,6.2-4.6c3.3,0,5.9,1.7,6,5.3H683.2z"/>
	<path fill="#8FA3AD" d="M689.9,130.3c0,2.9,1.6,6.5,5.4,6.5c2.9,0,4.5-1.7,5.2-4.2h2c-0.9,3.7-3,5.9-7.2,5.9c-5.2,0-7.5-4-7.5-8.7
		c0-4.4,2.2-8.7,7.5-8.7c5.3,0,7.4,4.6,7.3,9.3H689.9z M700.6,128.6c-0.1-3-2-5.9-5.2-5.9c-3.3,0-5.1,2.9-5.4,5.9H700.6z"/>
	<path fill="#8FA3AD" d="M715.2,126.3c-0.1-2.5-2-3.6-4.3-3.6c-1.8,0-3.9,0.7-3.9,2.8c0,1.8,2,2.4,3.4,2.8l2.7,0.6
		c2.3,0.4,4.7,1.7,4.7,4.6c0,3.6-3.6,5-6.6,5c-3.8,0-6.5-1.8-6.8-5.8h2c0.2,2.7,2.2,4.1,4.9,4.1c1.9,0,4.5-0.8,4.5-3.1
		c0-1.9-1.8-2.6-3.6-3l-2.6-0.6c-2.6-0.7-4.6-1.6-4.6-4.4c0-3.4,3.3-4.6,6.2-4.6c3.3,0,5.9,1.7,6,5.3H715.2z"/>
	<path fill="#8FA3AD" d="M730.6,126.3c-0.1-2.5-2-3.6-4.3-3.6c-1.8,0-3.9,0.7-3.9,2.8c0,1.8,2,2.4,3.4,2.8l2.7,0.6
		c2.3,0.4,4.7,1.7,4.7,4.6c0,3.6-3.6,5-6.6,5c-3.8,0-6.5-1.8-6.8-5.8h2c0.2,2.7,2.2,4.1,4.9,4.1c1.9,0,4.5-0.8,4.5-3.1
		c0-1.9-1.8-2.6-3.6-3l-2.6-0.6c-2.6-0.7-4.6-1.6-4.6-4.4c0-3.4,3.3-4.6,6.2-4.6c3.3,0,5.9,1.7,6,5.3H730.6z"/>
	<path fill="#8FA3AD" d="M188.1,169.5h3.4v1.7h-3.4v11.1c0,1.3,0.2,2.1,1.6,2.2c0.6,0,1.2,0,1.7-0.1v1.7c-0.6,0-1.2,0.1-1.8,0.1
		c-2.7,0-3.6-0.9-3.6-3.7v-11.3h-2.9v-1.7h2.9v-5h2V169.5z"/>
	<path fill="#8FA3AD" d="M194.4,163.2h2v9.2h0.1c0.7-2,2.9-3.3,5.3-3.3c4.6,0,6,2.4,6,6.4V186h-2v-10.3c0-2.8-0.9-5-4.2-5
		c-3.2,0-5.1,2.4-5.2,5.7v9.6h-2V163.2z"/>
	<path fill="#8FA3AD" d="M211.6,163.2h2v3.2h-2V163.2z M211.6,169.5h2V186h-2V169.5z"/>
	<path fill="#8FA3AD" d="M227.4,174.3c-0.1-2.5-2-3.6-4.3-3.6c-1.8,0-3.9,0.7-3.9,2.8c0,1.8,2,2.4,3.4,2.8l2.7,0.6
		c2.3,0.4,4.7,1.7,4.7,4.6c0,3.6-3.6,5-6.6,5c-3.8,0-6.5-1.8-6.8-5.8h2c0.2,2.7,2.2,4.1,4.9,4.1c1.9,0,4.5-0.8,4.5-3.1
		c0-1.9-1.8-2.6-3.6-3l-2.6-0.6c-2.6-0.7-4.6-1.6-4.6-4.4c0-3.4,3.3-4.6,6.2-4.6c3.3,0,5.9,1.7,6,5.3H227.4z"/>
	<path fill="#8FA3AD" d="M248.2,171.2h-3.3V186h-2v-14.8h-2.8v-1.7h2.8V168c0-2.8,0.8-4.8,4-4.8c0.6,0,1.1,0,1.7,0.1v1.7
		c-0.5-0.1-1-0.2-1.5-0.2c-2.2,0-2.2,1.4-2.2,3.2v1.4h3.3V171.2z"/>
	<path fill="#8FA3AD" d="M249.9,174.6c0.2-3.9,2.9-5.5,6.7-5.5c2.9,0,6.1,0.9,6.1,5.3v8.8c0,0.8,0.4,1.2,1.2,1.2
		c0.2,0,0.5-0.1,0.6-0.1v1.7c-0.4,0.1-0.8,0.1-1.3,0.1c-2,0-2.4-1.2-2.4-2.9h-0.1c-1.4,2.1-2.8,3.4-6,3.4c-3,0-5.5-1.5-5.5-4.8
		c0-4.6,4.5-4.8,8.9-5.3c1.7-0.2,2.6-0.4,2.6-2.2c0-2.7-2-3.4-4.3-3.4c-2.5,0-4.4,1.2-4.4,3.8H249.9z M260.7,177L260.7,177
		c-0.3,0.5-1.2,0.6-1.8,0.7c-3.4,0.6-7.7,0.6-7.7,3.8c0,2,1.8,3.3,3.7,3.3c3.1,0,5.8-2,5.8-5.2V177z"/>
	<path fill="#8FA3AD" d="M278.4,174.7c-0.5-2.5-2-4-4.7-4c-3.9,0-5.8,3.5-5.8,7c0,3.5,1.9,7,5.8,7c2.5,0,4.5-2,4.8-4.7h2
		c-0.5,4-3.1,6.4-6.8,6.4c-5.1,0-7.8-4-7.8-8.7c0-4.7,2.8-8.7,7.8-8.7c3.5,0,6.2,1.9,6.7,5.7H278.4z"/>
	<path fill="#8FA3AD" d="M286.5,169.5h3.4v1.7h-3.4v11.1c0,1.3,0.2,2.1,1.6,2.2c0.6,0,1.2,0,1.7-0.1v1.7c-0.6,0-1.2,0.1-1.8,0.1
		c-2.7,0-3.6-0.9-3.6-3.7v-11.3h-2.9v-1.7h2.9v-5h2V169.5z"/>
	<path fill="#8FA3AD" d="M307.6,177.8c0,4.7-2.8,8.7-7.8,8.7s-7.8-4-7.8-8.7c0-4.7,2.8-8.7,7.8-8.7S307.6,173,307.6,177.8z
		 M294,177.8c0,3.5,1.9,7,5.8,7c3.9,0,5.8-3.5,5.8-7c0-3.5-1.9-7-5.8-7C295.9,170.7,294,174.2,294,177.8z"/>
	<path fill="#8FA3AD" d="M310.6,169.5h1.9v3.9h0.1c1-2.7,3.3-4.2,6.2-4.1v2c-3.6-0.2-6.1,2.5-6.1,5.9v8.8h-2V169.5z"/>
	<path fill="#8FA3AD" d="M327.9,169.5h2.1l4.2,14.1h0.1l4-14.1h2.3l4,14.1h0.1l4.2-14.1h2.1l-5.3,16.5h-2.2l-4.1-13.9h-0.1l-4,13.9
		h-2.2L327.9,169.5z"/>
	<path fill="#8FA3AD" d="M353.3,163.2h2v3.2h-2V163.2z M353.3,169.5h2V186h-2V169.5z"/>
	<path fill="#8FA3AD" d="M362.4,169.5h3.4v1.7h-3.4v11.1c0,1.3,0.2,2.1,1.6,2.2c0.6,0,1.2,0,1.7-0.1v1.7c-0.6,0-1.2,0.1-1.8,0.1
		c-2.7,0-3.6-0.9-3.6-3.7v-11.3h-2.9v-1.7h2.9v-5h2V169.5z"/>
	<path fill="#8FA3AD" d="M368.6,163.2h2v9.2h0.1c0.7-2,2.9-3.3,5.3-3.3c4.6,0,6,2.4,6,6.4V186h-2v-10.3c0-2.8-0.9-5-4.2-5
		c-3.2,0-5.1,2.4-5.2,5.7v9.6h-2V163.2z"/>
	<path fill="#8FA3AD" d="M397.9,169.5h3.4v1.7h-3.4v11.1c0,1.3,0.2,2.1,1.6,2.2c0.6,0,1.2,0,1.7-0.1v1.7c-0.6,0-1.2,0.1-1.8,0.1
		c-2.7,0-3.6-0.9-3.6-3.7v-11.3H393v-1.7h2.9v-5h2V169.5z"/>
	<path fill="#8FA3AD" d="M404.2,163.2h2v9.2h0.1c0.7-2,2.9-3.3,5.3-3.3c4.6,0,6,2.4,6,6.4V186h-2v-10.3c0-2.8-0.9-5-4.2-5
		c-3.2,0-5.1,2.4-5.2,5.7v9.6h-2V163.2z"/>
	<path fill="#8FA3AD" d="M422.6,178.3c0,2.9,1.6,6.5,5.4,6.5c2.9,0,4.5-1.7,5.2-4.2h2c-0.9,3.7-3,5.9-7.2,5.9c-5.2,0-7.5-4-7.5-8.7
		c0-4.4,2.2-8.7,7.5-8.7c5.3,0,7.4,4.6,7.3,9.3H422.6z M433.3,176.6c-0.1-3-2-5.9-5.2-5.9c-3.3,0-5.1,2.9-5.4,5.9H433.3z"/>
	<path fill="#8FA3AD" d="M447.3,163.2h2.2v9.9H463v-9.9h2.2V186H463V175h-13.6V186h-2.2V163.2z"/>
	<path fill="#8FA3AD" d="M467.6,169.5h2.1l5.4,14.1l5.1-14.1h2l-7.2,19c-1.2,2.8-1.8,3.6-4.4,3.6c-0.8,0-1.2,0-1.5-0.2v-1.7
		c0.5,0.1,0.9,0.2,1.4,0.2c1.8,0,2.2-1.1,2.9-2.6l0.7-1.9L467.6,169.5z"/>
	<path fill="#8FA3AD" d="M484.2,169.5h1.9v3.1h0.1c0.9-2.2,3.2-3.6,5.9-3.6c5,0,7.4,4.1,7.4,8.7c0,4.7-2.4,8.7-7.4,8.7
		c-2.5,0-4.9-1.2-5.7-3.6h-0.1v9.2h-2V169.5z M492,170.7c-4.4,0-5.8,3.3-5.8,7c0,3.4,1.5,7,5.8,7c3.8,0,5.4-3.6,5.4-7
		C497.5,174.3,495.9,170.7,492,170.7z"/>
	<path fill="#8FA3AD" d="M503.8,178.3c0,2.9,1.6,6.5,5.4,6.5c2.9,0,4.5-1.7,5.2-4.2h2c-0.9,3.7-3,5.9-7.2,5.9c-5.2,0-7.5-4-7.5-8.7
		c0-4.4,2.2-8.7,7.5-8.7c5.3,0,7.4,4.6,7.3,9.3H503.8z M514.5,176.6c-0.1-3-2-5.9-5.2-5.9c-3.3,0-5.1,2.9-5.4,5.9H514.5z"/>
	<path fill="#8FA3AD" d="M545.2,170.1c-0.8-3.5-3.7-5.5-7-5.5c-6,0-8.6,5.1-8.6,10c0,5,2.6,10,8.6,10c4.2,0,6.9-3.3,7.3-7.3h2.2
		c-0.6,5.6-4.2,9.2-9.5,9.2c-7.2,0-10.8-5.7-10.8-11.9c0-6.2,3.6-11.9,10.8-11.9c4.3,0,8.6,2.6,9.2,7.4H545.2z"/>
	<path fill="#8FA3AD" d="M565.4,177.8c0,4.7-2.8,8.7-7.8,8.7c-5.1,0-7.8-4-7.8-8.7c0-4.7,2.8-8.7,7.8-8.7
		C562.7,169,565.4,173,565.4,177.8z M551.8,177.8c0,3.5,1.9,7,5.8,7s5.8-3.5,5.8-7c0-3.5-1.9-7-5.8-7S551.8,174.2,551.8,177.8z"/>
	<path fill="#8FA3AD" d="M569.6,178.3c0,2.9,1.6,6.5,5.4,6.5c2.9,0,4.5-1.7,5.2-4.2h2c-0.9,3.7-3,5.9-7.2,5.9c-5.2,0-7.5-4-7.5-8.7
		c0-4.4,2.2-8.7,7.5-8.7c5.3,0,7.4,4.6,7.3,9.3H569.6z M580.3,176.6c-0.1-3-2-5.9-5.2-5.9c-3.3,0-5.1,2.9-5.4,5.9H580.3z"/>
	<path fill="#8FA3AD" d="M591.4,171.2h-3.3V186h-2v-14.8h-2.8v-1.7h2.8V168c0-2.8,0.8-4.8,4-4.8c0.6,0,1.1,0,1.7,0.1v1.7
		c-0.5-0.1-1-0.2-1.5-0.2c-2.2,0-2.2,1.4-2.2,3.2v1.4h3.3V171.2z"/>
	<path fill="#8FA3AD" d="M593.8,171.2H591v-1.7h2.8V168c0-2.8,0.8-4.8,4-4.8c0.6,0,1.1,0,1.7,0.1v1.7c-0.5-0.1-1-0.2-1.5-0.2
		c-2.2,0-2.2,1.4-2.2,3.2v1.4h3.3v1.7h-3.3V186h-2V171.2z M601.1,163.2h2v3.2h-2V163.2z M601.1,169.5h2V186h-2V169.5z"/>
	<path fill="#8FA3AD" d="M618.6,174.7c-0.5-2.5-2-4-4.7-4c-3.9,0-5.8,3.5-5.8,7c0,3.5,1.9,7,5.8,7c2.5,0,4.5-2,4.8-4.7h2
		c-0.5,4-3.1,6.4-6.8,6.4c-5.1,0-7.8-4-7.8-8.7c0-4.7,2.8-8.7,7.8-8.7c3.5,0,6.2,1.9,6.7,5.7H618.6z"/>
	<path fill="#8FA3AD" d="M623.6,163.2h2v3.2h-2V163.2z M623.6,169.5h2V186h-2V169.5z"/>
	<path fill="#8FA3AD" d="M630.7,178.3c0,2.9,1.6,6.5,5.4,6.5c2.9,0,4.5-1.7,5.2-4.2h2c-0.9,3.7-3,5.9-7.2,5.9c-5.2,0-7.5-4-7.5-8.7
		c0-4.4,2.2-8.7,7.5-8.7c5.3,0,7.4,4.6,7.3,9.3H630.7z M641.4,176.6c-0.1-3-2-5.9-5.2-5.9c-3.3,0-5.1,2.9-5.4,5.9H641.4z"/>
	<path fill="#8FA3AD" d="M646.1,169.5h2v2.8h0.1c0.7-2,2.9-3.3,5.3-3.3c4.6,0,6,2.4,6,6.4V186h-2v-10.3c0-2.8-0.9-5-4.2-5
		c-3.2,0-5.1,2.4-5.2,5.7v9.6h-2V169.5z"/>
	<path fill="#8FA3AD" d="M666.5,169.5h3.4v1.7h-3.4v11.1c0,1.3,0.2,2.1,1.6,2.2c0.6,0,1.2,0,1.7-0.1v1.7c-0.6,0-1.2,0.1-1.8,0.1
		c-2.7,0-3.6-0.9-3.6-3.7v-11.3h-2.9v-1.7h2.9v-5h2V169.5z"/>
	<path fill="#8FA3AD" d="M673.9,186v-3.4h2.7v3.4H673.9z"/>
</g>
<g opacity="0.5">
	<path fill="#C2D3D1" d="M34.2,45.9c11.4,0.4,23.2-3.6,23.2-16.5c0-8.8-6.9-14.8-16.3-14.8c-11.8,0-17.7,10.7-17.4,21.4H6.6
		C7.5,15.6,20.2,0.3,41.4,0.3c16.3,0,33.1,9.4,33.1,28c0,10.5-4.8,18.9-14.8,22.5v0.3c11.8,2.4,19,12.8,19,26.2
		c0,19.8-17.1,32.1-37.2,32.1c-24.3,0-36.4-14.7-36.9-36.6h17.1c-0.4,12.8,6.4,22.3,19.8,22.3c11.4,0,20.1-6.8,20.1-18.7
		c0-16.3-13.9-18.4-27.4-17.8V45.9z"/>
</g>
<line fill="none" stroke="#C2D3D1" stroke-miterlimit="10" x1="132.4" y1="0" x2="132.4" y2="187"/>
<g>
</g>
<g>
</g>
<g>
</g>
<g>
</g>
<g>
</g>
<g>
</g>
<g>
</g>
<g>
</g>
<g>
</g>
<g>
</g>
<g>
</g>
<g>
</g>
<g>
</g>
<g>
</g>
<g>
</g>
</svg>
