<?xml version="1.0" encoding="utf-8"?>
<!-- Generator: Adobe Illustrator 18.0.0, SVG Export Plug-In . SVG Version: 6.00 Build 0)  -->
<!DOCTYPE svg PUBLIC "-//W3C//DTD SVG 1.1//EN" "http://www.w3.org/Graphics/SVG/1.1/DTD/svg11.dtd">
<svg version="1.1" id="Layer_1" xmlns="http://www.w3.org/2000/svg" xmlns:xlink="http://www.w3.org/1999/xlink" x="0px" y="0px"
	 viewBox="0 0 1709.1 625" enable-background="new 0 0 1709.1 625" xml:space="preserve">
<rect x="2.5" y="150.8" opacity="5.000000e-02" fill="#959595" width="1706.2" height="434.1"/>
<g>
</g>
<g>
	<g>
		<path fill="#231F20" d="M38.5,223.7c0.4,0.7,0.9,1.3,1.5,1.8c0.6,0.4,1.4,0.8,2.2,0.9c0.9,0.2,1.8,0.3,2.8,0.3
			c0.6,0,1.2-0.1,1.8-0.2c0.7-0.2,1.3-0.4,1.8-0.8s1-0.8,1.4-1.3c0.4-0.6,0.6-1.2,0.6-2c0-0.6-0.1-1.1-0.4-1.6
			c-0.3-0.4-0.6-0.8-1-1.1c-0.4-0.3-0.9-0.5-1.4-0.7c-0.5-0.2-1-0.3-1.5-0.5l-4.8-1.2c-0.6-0.2-1.2-0.4-1.8-0.6
			c-0.6-0.2-1.1-0.6-1.5-1c-0.4-0.4-0.8-0.9-1.1-1.5c-0.3-0.6-0.4-1.3-0.4-2.1c0-0.5,0.1-1.1,0.3-1.8c0.2-0.7,0.6-1.4,1.1-2
			c0.5-0.6,1.3-1.1,2.3-1.6c1-0.4,2.2-0.6,3.7-0.6c1.1,0,2.1,0.1,3,0.4c1,0.3,1.8,0.7,2.5,1.3c0.7,0.6,1.3,1.3,1.7,2.1
			c0.4,0.8,0.6,1.8,0.6,2.9h-2c0-0.8-0.2-1.5-0.6-2.1c-0.3-0.6-0.8-1.1-1.3-1.5c-0.5-0.4-1.1-0.7-1.8-0.9c-0.7-0.2-1.4-0.3-2.2-0.3
			c-0.7,0-1.4,0.1-2,0.2c-0.7,0.2-1.2,0.4-1.7,0.7c-0.5,0.3-0.9,0.8-1.2,1.3s-0.5,1.2-0.5,2c0,0.5,0.1,0.9,0.3,1.3
			c0.2,0.4,0.4,0.7,0.7,0.9c0.3,0.3,0.6,0.5,1,0.6c0.4,0.2,0.8,0.3,1.2,0.4l5.2,1.3c0.8,0.2,1.5,0.4,2.1,0.7
			c0.7,0.3,1.3,0.7,1.8,1.1c0.5,0.4,0.9,1,1.2,1.6s0.4,1.4,0.4,2.2c0,0.2,0,0.6-0.1,1c0,0.4-0.2,0.8-0.4,1.3
			c-0.2,0.4-0.5,0.9-0.8,1.4c-0.4,0.5-0.8,0.9-1.4,1.2s-1.4,0.7-2.3,0.9c-0.9,0.2-2,0.3-3.2,0.3s-2.4-0.1-3.5-0.4
			c-1.1-0.3-2-0.7-2.8-1.3c-0.8-0.6-1.3-1.4-1.8-2.3c-0.4-0.9-0.6-2.1-0.5-3.4h2C38,222.1,38.2,223,38.5,223.7z"/>
		<path fill="#231F20" d="M60.3,212.5v2.9h0.1c0.4-1.1,1.2-1.9,2.1-2.5s2.1-0.9,3.4-0.9c1.2,0,2.2,0.2,3.1,0.7
			c0.9,0.4,1.6,1,2.2,1.8s1,1.6,1.3,2.6c0.3,1,0.4,2,0.4,3.1c0,1.1-0.1,2.1-0.4,3.1c-0.3,1-0.7,1.9-1.3,2.6s-1.3,1.3-2.2,1.8
			c-0.9,0.4-1.9,0.6-3.1,0.6c-0.6,0-1.1-0.1-1.7-0.2c-0.6-0.1-1.1-0.3-1.6-0.6c-0.5-0.3-0.9-0.6-1.3-1c-0.4-0.4-0.7-0.9-0.9-1.5
			h-0.1v8.6h-1.9v-21.2H60.3z M70.7,217.9c-0.2-0.8-0.5-1.5-0.9-2.1c-0.4-0.6-0.9-1.1-1.6-1.5c-0.6-0.4-1.4-0.6-2.3-0.6
			c-1,0-1.9,0.2-2.6,0.5c-0.7,0.4-1.3,0.8-1.7,1.4c-0.4,0.6-0.7,1.3-0.9,2.1c-0.2,0.8-0.3,1.6-0.3,2.5c0,0.8,0.1,1.6,0.3,2.4
			c0.2,0.8,0.5,1.5,0.9,2.1c0.4,0.6,1,1.1,1.7,1.5c0.7,0.4,1.5,0.6,2.5,0.6c0.9,0,1.7-0.2,2.3-0.6c0.6-0.4,1.2-0.9,1.6-1.5
			c0.4-0.6,0.7-1.3,0.9-2.1c0.2-0.8,0.3-1.6,0.3-2.4C71,219.5,70.9,218.7,70.7,217.9z"/>
		<path fill="#231F20" d="M80.2,222.9c0.2,0.7,0.5,1.4,0.9,2c0.4,0.6,0.9,1.1,1.6,1.4c0.6,0.4,1.4,0.6,2.3,0.6
			c1.4,0,2.5-0.4,3.2-1.1c0.8-0.7,1.3-1.7,1.6-2.9h1.9c-0.4,1.8-1.1,3.1-2.2,4.1c-1.1,1-2.6,1.4-4.5,1.4c-1.2,0-2.3-0.2-3.2-0.6
			c-0.9-0.4-1.6-1-2.2-1.8c-0.6-0.8-1-1.6-1.2-2.6c-0.3-1-0.4-2-0.4-3.1c0-1,0.1-2,0.4-3c0.3-1,0.7-1.9,1.2-2.6
			c0.6-0.8,1.3-1.4,2.2-1.9s1.9-0.7,3.2-0.7c1.2,0,2.3,0.2,3.2,0.8c0.9,0.5,1.6,1.2,2.1,2c0.5,0.8,0.9,1.7,1.2,2.8
			c0.2,1,0.3,2.1,0.3,3.2H79.9C79.9,221.5,80,222.2,80.2,222.9z M89.6,217.1c-0.2-0.7-0.6-1.2-1-1.8c-0.4-0.5-0.9-0.9-1.5-1.2
			c-0.6-0.3-1.3-0.5-2-0.5c-0.8,0-1.5,0.2-2.1,0.5c-0.6,0.3-1.1,0.7-1.5,1.2c-0.4,0.5-0.8,1.1-1,1.8c-0.3,0.7-0.4,1.4-0.5,2.1h10
			C89.9,218.5,89.8,217.8,89.6,217.1z"/>
		<path fill="#231F20" d="M106.9,214.7c-0.7-0.7-1.7-1-2.9-1c-0.9,0-1.7,0.2-2.4,0.6s-1.2,0.9-1.7,1.5c-0.5,0.6-0.8,1.3-1,2.1
			c-0.2,0.8-0.3,1.6-0.3,2.4c0,0.8,0.1,1.6,0.3,2.4c0.2,0.8,0.6,1.5,1,2.1c0.4,0.6,1,1.1,1.7,1.5s1.5,0.6,2.4,0.6
			c0.6,0,1.1-0.1,1.7-0.3c0.5-0.2,1-0.5,1.4-0.9c0.4-0.4,0.7-0.9,1-1.4c0.3-0.5,0.4-1.1,0.5-1.8h1.9c-0.3,1.9-1,3.3-2.1,4.4
			s-2.6,1.6-4.3,1.6c-1.2,0-2.2-0.2-3.1-0.6c-0.9-0.4-1.7-1-2.3-1.8c-0.6-0.7-1.1-1.6-1.4-2.6c-0.3-1-0.5-2-0.5-3.2
			c0-1.1,0.2-2.2,0.5-3.2c0.3-1,0.8-1.9,1.4-2.6c0.6-0.7,1.4-1.3,2.3-1.8c0.9-0.4,2-0.7,3.1-0.7c1.7,0,3.1,0.4,4.2,1.3
			c1.2,0.9,1.8,2.2,2.1,4h-1.9C108.1,216.2,107.6,215.3,106.9,214.7z"/>
		<path fill="#231F20" d="M126.8,228v-2.8h-0.1c-0.5,1-1.2,1.8-2.2,2.4c-1,0.5-2,0.8-3.2,0.8c-1,0-1.8-0.1-2.5-0.4
			c-0.7-0.3-1.2-0.7-1.7-1.2c-0.4-0.5-0.7-1.1-0.9-1.8c-0.2-0.7-0.3-1.5-0.3-2.5v-10.1h1.9v10.1c0,1.4,0.4,2.5,1,3.2
			c0.6,0.7,1.7,1.1,3.2,1.1c0.8,0,1.5-0.2,2.1-0.5c0.6-0.3,1.1-0.8,1.4-1.4s0.7-1.2,0.8-2c0.2-0.8,0.3-1.5,0.3-2.3v-8.1h1.9V228
			H126.8z"/>
		<path fill="#231F20" d="M137,206.6V228h-1.9v-21.4H137z"/>
		<path fill="#231F20" d="M144,214.9c0.3-0.7,0.8-1.2,1.3-1.6c0.5-0.4,1.2-0.7,1.9-0.9s1.6-0.3,2.5-0.3c0.7,0,1.4,0.1,2,0.2
			c0.7,0.1,1.3,0.4,1.8,0.7s1,0.9,1.3,1.5c0.3,0.7,0.5,1.5,0.5,2.5v8.2c0,0.8,0.4,1.1,1.1,1.1c0.2,0,0.4,0,0.6-0.1v1.6
			c-0.2,0-0.4,0.1-0.6,0.1c-0.2,0-0.4,0-0.6,0c-0.5,0-0.9-0.1-1.2-0.2c-0.3-0.1-0.5-0.3-0.7-0.6c-0.2-0.2-0.3-0.5-0.3-0.9
			c0-0.3-0.1-0.7-0.1-1.1h-0.1c-0.3,0.5-0.7,0.9-1,1.3c-0.3,0.4-0.7,0.7-1.2,1c-0.4,0.3-0.9,0.5-1.5,0.6c-0.6,0.1-1.2,0.2-2,0.2
			c-0.7,0-1.4-0.1-2-0.3s-1.2-0.4-1.7-0.8s-0.8-0.8-1.1-1.4c-0.3-0.6-0.4-1.2-0.4-2c0-1.1,0.2-1.9,0.7-2.5c0.5-0.6,1.1-1.1,1.9-1.4
			s1.7-0.5,2.7-0.7s2-0.3,3-0.4c0.4,0,0.8-0.1,1.1-0.2c0.3-0.1,0.5-0.2,0.8-0.3c0.2-0.1,0.4-0.4,0.5-0.6c0.1-0.3,0.2-0.6,0.2-1
			c0-0.6-0.1-1.2-0.3-1.6c-0.2-0.4-0.5-0.7-0.9-1s-0.8-0.4-1.3-0.5s-1-0.1-1.6-0.1c-1.2,0-2.2,0.3-2.9,0.9c-0.8,0.6-1.2,1.5-1.2,2.7
			h-1.9C143.5,216.4,143.7,215.6,144,214.9z M153.5,219.6c-0.1,0.2-0.3,0.4-0.7,0.5c-0.3,0.1-0.6,0.2-0.9,0.2
			c-0.8,0.1-1.6,0.3-2.5,0.4c-0.9,0.1-1.6,0.3-2.3,0.5c-0.7,0.2-1.3,0.5-1.7,0.9c-0.5,0.4-0.7,1-0.7,1.8c0,0.5,0.1,0.9,0.3,1.3
			s0.4,0.7,0.8,1c0.3,0.3,0.7,0.5,1.1,0.6s0.8,0.2,1.3,0.2c0.7,0,1.4-0.1,2.1-0.3s1.2-0.5,1.7-1s0.9-0.9,1.2-1.5s0.4-1.3,0.4-2
			L153.5,219.6L153.5,219.6z"/>
		<path fill="#231F20" d="M168.3,212.5v1.6h-3.2v10.4c0,0.6,0.1,1.1,0.3,1.5c0.2,0.4,0.6,0.5,1.3,0.6c0.5,0,1.1,0,1.6-0.1v1.6
			c-0.3,0-0.6,0-0.8,0c-0.3,0-0.6,0-0.8,0c-1.3,0-2.1-0.2-2.6-0.7s-0.7-1.4-0.7-2.7v-10.6h-2.7v-1.6h2.7v-4.6h1.9v4.6H168.3z"/>
		<path fill="#231F20" d="M176,206.6v3h-1.9v-3H176z M176,212.5V228h-1.9v-15.5H176z"/>
		<path fill="#231F20" d="M192.3,212.8c0.9,0.4,1.7,1,2.3,1.8c0.6,0.7,1.1,1.6,1.4,2.6c0.3,1,0.5,2,0.5,3.2c0,1.1-0.2,2.2-0.5,3.2
			s-0.8,1.9-1.4,2.6c-0.6,0.7-1.4,1.3-2.3,1.8c-0.9,0.4-2,0.6-3.1,0.6s-2.2-0.2-3.1-0.6c-0.9-0.4-1.7-1-2.3-1.8
			c-0.6-0.7-1.1-1.6-1.4-2.6c-0.3-1-0.5-2-0.5-3.2c0-1.1,0.2-2.2,0.5-3.2c0.3-1,0.8-1.9,1.4-2.6c0.6-0.7,1.4-1.3,2.3-1.8
			c0.9-0.4,2-0.7,3.1-0.7S191.4,212.3,192.3,212.8z M186.8,214.2c-0.7,0.4-1.2,0.9-1.7,1.5c-0.5,0.6-0.8,1.3-1,2.1
			c-0.2,0.8-0.3,1.6-0.3,2.4c0,0.8,0.1,1.6,0.3,2.4c0.2,0.8,0.6,1.5,1,2.1c0.4,0.6,1,1.1,1.7,1.5s1.5,0.6,2.4,0.6
			c0.9,0,1.7-0.2,2.4-0.6s1.2-0.9,1.7-1.5s0.8-1.3,1-2.1s0.3-1.6,0.3-2.4c0-0.8-0.1-1.6-0.3-2.4c-0.2-0.8-0.6-1.5-1-2.1
			s-1-1.1-1.7-1.5s-1.5-0.6-2.4-0.6C188.3,213.7,187.5,213.9,186.8,214.2z"/>
		<path fill="#231F20" d="M204.2,212.5v2.7h0.1c0.4-0.9,1-1.7,1.9-2.3c0.9-0.6,1.9-0.9,3-0.9c1.1,0,2,0.1,2.7,0.4s1.3,0.7,1.8,1.2
			c0.4,0.5,0.8,1.1,0.9,1.9c0.2,0.7,0.3,1.6,0.3,2.5v10H213v-9.7c0-0.7-0.1-1.3-0.2-1.8c-0.1-0.6-0.3-1.1-0.6-1.5
			c-0.3-0.4-0.7-0.8-1.2-1c-0.5-0.2-1.1-0.4-1.9-0.4c-0.8,0-1.4,0.1-2,0.4c-0.6,0.3-1.1,0.6-1.5,1.1c-0.4,0.5-0.7,1-1,1.7
			c-0.2,0.6-0.4,1.4-0.4,2.1v9h-1.9v-15.5H204.2z"/>
		<path fill="#231F20" d="M46.9,242.6c0.9,0,1.7,0.1,2.5,0.3s1.5,0.6,2.1,1s1.1,1,1.4,1.7c0.3,0.7,0.5,1.5,0.5,2.5
			c0,1.4-0.4,2.5-1.1,3.5s-1.7,1.6-3.1,1.9v0.1c0.7,0.1,1.3,0.3,1.7,0.6c0.5,0.3,0.8,0.6,1.1,1c0.3,0.4,0.5,0.9,0.6,1.5
			c0.1,0.6,0.2,1.1,0.3,1.8c0,0.4,0,0.8,0.1,1.3c0,0.5,0.1,1,0.1,1.6c0.1,0.5,0.2,1,0.3,1.5c0.1,0.5,0.3,0.8,0.5,1.1h-2.2
			c-0.1-0.2-0.2-0.4-0.3-0.7c-0.1-0.3-0.1-0.6-0.1-0.9c0-0.3-0.1-0.6-0.1-0.9c0-0.3,0-0.6-0.1-0.8c0-0.8-0.1-1.5-0.2-2.3
			s-0.3-1.4-0.6-2c-0.3-0.6-0.7-1.1-1.3-1.4c-0.6-0.4-1.3-0.5-2.3-0.5h-7.7v9.5h-2v-21.4H46.9z M46.7,252.8c0.6,0,1.2-0.1,1.8-0.3
			c0.6-0.2,1-0.5,1.5-0.8c0.4-0.4,0.8-0.8,1-1.3c0.2-0.5,0.4-1.1,0.4-1.8c0-1.3-0.4-2.4-1.1-3.1c-0.8-0.8-1.9-1.1-3.5-1.1h-7.6v8.4
			H46.7z"/>
		<path fill="#231F20" d="M60.1,250.9c0.3-0.7,0.8-1.2,1.3-1.6c0.5-0.4,1.2-0.7,1.9-0.9s1.6-0.3,2.5-0.3c0.7,0,1.4,0.1,2,0.2
			c0.7,0.1,1.3,0.4,1.8,0.7s1,0.9,1.3,1.5c0.3,0.7,0.5,1.5,0.5,2.5v8.2c0,0.8,0.4,1.1,1.1,1.1c0.2,0,0.4,0,0.6-0.1v1.6
			c-0.2,0-0.4,0.1-0.6,0.1c-0.2,0-0.4,0-0.6,0c-0.5,0-0.9-0.1-1.2-0.2c-0.3-0.1-0.5-0.3-0.7-0.6c-0.2-0.2-0.3-0.5-0.3-0.9
			c0-0.3-0.1-0.7-0.1-1.1h-0.1c-0.3,0.5-0.7,0.9-1,1.3c-0.3,0.4-0.7,0.7-1.2,1c-0.4,0.3-0.9,0.5-1.5,0.6c-0.6,0.1-1.2,0.2-2,0.2
			c-0.7,0-1.4-0.1-2-0.3s-1.2-0.4-1.7-0.8s-0.8-0.8-1.1-1.4c-0.3-0.6-0.4-1.2-0.4-2c0-1.1,0.2-1.9,0.7-2.5c0.5-0.6,1.1-1.1,1.9-1.4
			s1.7-0.5,2.7-0.7s2-0.3,3-0.4c0.4,0,0.8-0.1,1.1-0.2c0.3-0.1,0.5-0.2,0.8-0.3c0.2-0.1,0.4-0.4,0.5-0.6c0.1-0.3,0.2-0.6,0.2-1
			c0-0.6-0.1-1.2-0.3-1.6c-0.2-0.4-0.5-0.7-0.9-1s-0.8-0.4-1.3-0.5s-1-0.1-1.6-0.1c-1.2,0-2.2,0.3-2.9,0.9c-0.8,0.6-1.2,1.5-1.2,2.7
			h-1.9C59.6,252.4,59.8,251.6,60.1,250.9z M69.6,255.6c-0.1,0.2-0.3,0.4-0.7,0.5c-0.3,0.1-0.6,0.2-0.9,0.2
			c-0.8,0.1-1.6,0.3-2.5,0.4c-0.9,0.1-1.6,0.3-2.3,0.5c-0.7,0.2-1.3,0.5-1.7,0.9c-0.5,0.4-0.7,1-0.7,1.8c0,0.5,0.1,0.9,0.3,1.3
			s0.4,0.7,0.8,1c0.3,0.3,0.7,0.5,1.1,0.6s0.8,0.2,1.3,0.2c0.7,0,1.4-0.1,2.1-0.3s1.2-0.5,1.7-1s0.9-0.9,1.2-1.5s0.4-1.3,0.4-2
			L69.6,255.6L69.6,255.6z"/>
		<path fill="#231F20" d="M84.4,248.5v1.6h-3.2v10.4c0,0.6,0.1,1.1,0.3,1.5c0.2,0.4,0.6,0.5,1.3,0.6c0.5,0,1.1,0,1.6-0.1v1.6
			c-0.3,0-0.6,0-0.8,0c-0.3,0-0.6,0-0.8,0c-1.3,0-2.1-0.2-2.6-0.7s-0.7-1.4-0.7-2.7v-10.6h-2.7v-1.6h2.7v-4.6h1.9v4.6H84.4z"/>
		<path fill="#231F20" d="M92.1,242.6v3h-1.9v-3H92.1z M92.1,248.5V264h-1.9v-15.5H92.1z"/>
		<path fill="#231F20" d="M108.4,248.8c0.9,0.4,1.7,1,2.3,1.8c0.6,0.7,1.1,1.6,1.4,2.6c0.3,1,0.5,2,0.5,3.2c0,1.1-0.2,2.2-0.5,3.2
			s-0.8,1.9-1.4,2.6c-0.6,0.7-1.4,1.3-2.3,1.8c-0.9,0.4-2,0.6-3.1,0.6s-2.2-0.2-3.1-0.6c-0.9-0.4-1.7-1-2.3-1.8
			c-0.6-0.7-1.1-1.6-1.4-2.6c-0.3-1-0.5-2-0.5-3.2c0-1.1,0.2-2.2,0.5-3.2c0.3-1,0.8-1.9,1.4-2.6c0.6-0.7,1.4-1.3,2.3-1.8
			c0.9-0.4,2-0.7,3.1-0.7S107.5,248.3,108.4,248.8z M102.9,250.2c-0.7,0.4-1.2,0.9-1.7,1.5c-0.5,0.6-0.8,1.3-1,2.1
			c-0.2,0.8-0.3,1.6-0.3,2.4c0,0.8,0.1,1.6,0.3,2.4c0.2,0.8,0.6,1.5,1,2.1c0.4,0.6,1,1.1,1.7,1.5s1.5,0.6,2.4,0.6
			c0.9,0,1.7-0.2,2.4-0.6s1.2-0.9,1.7-1.5s0.8-1.3,1-2.1s0.3-1.6,0.3-2.4c0-0.8-0.1-1.6-0.3-2.4c-0.2-0.8-0.6-1.5-1-2.1
			s-1-1.1-1.7-1.5s-1.5-0.6-2.4-0.6C104.4,249.7,103.6,249.9,102.9,250.2z"/>
	</g>
</g>
<g>
	<path fill="#7B807F" d="M40.2,492.7v10.8c0,1,0.1,1.9,0.3,2.6c0.2,0.7,0.6,1.3,1,1.7c0.4,0.4,1,0.8,1.6,1c0.6,0.2,1.4,0.3,2.1,0.3
		c0.8,0,1.5-0.1,2.2-0.3c0.6-0.2,1.2-0.5,1.6-1s0.8-1,1-1.7c0.2-0.7,0.3-1.6,0.3-2.6v-10.8h1.7v11.2c0,0.9-0.1,1.7-0.4,2.6
		c-0.3,0.8-0.7,1.5-1.2,2.1c-0.5,0.6-1.2,1.1-2.1,1.4c-0.9,0.4-1.9,0.5-3.1,0.5c-1.2,0-2.2-0.2-3.1-0.5c-0.9-0.3-1.6-0.8-2.1-1.4
		c-0.5-0.6-0.9-1.3-1.2-2.1c-0.3-0.8-0.4-1.7-0.4-2.6v-11.2H40.2z"/>
	<path fill="#7B807F" d="M65.6,492.7c0.8,0,1.5,0.1,2.1,0.3c0.6,0.2,1.2,0.5,1.6,1c0.5,0.4,0.8,1,1,1.6c0.2,0.6,0.4,1.3,0.4,2.1
		s-0.1,1.5-0.4,2.1c-0.2,0.6-0.6,1.1-1,1.6s-1,0.8-1.6,1c-0.6,0.2-1.3,0.3-2.1,0.3h-6.1v7.5h-1.7v-17.4H65.6z M65.3,501.2
		c1.2,0,2.1-0.3,2.8-0.9c0.7-0.6,1.1-1.5,1.1-2.7c0-1.2-0.4-2.1-1.1-2.7c-0.7-0.6-1.7-0.9-2.8-0.9h-5.7v7.1H65.3z"/>
	<path fill="#7B807F" d="M81.8,492.7c2.7,0.1,4.7,0.8,6,2.2c1.3,1.4,2,3.6,2,6.5c0,2.9-0.7,5.1-2,6.5c-1.3,1.4-3.3,2.2-6,2.2h-6
		v-17.4H81.8z M80.9,508.7c1.3,0,2.3-0.1,3.2-0.4c0.9-0.3,1.6-0.7,2.2-1.3s1-1.3,1.3-2.3c0.3-0.9,0.4-2,0.4-3.3
		c0-1.3-0.1-2.4-0.4-3.3c-0.3-0.9-0.7-1.7-1.3-2.3c-0.6-0.6-1.3-1-2.2-1.3c-0.9-0.3-2-0.4-3.2-0.4h-3.5v14.6H80.9z"/>
	<path fill="#7B807F" d="M101.9,492.7l6.8,17.4h-1.8l-2.1-5.4h-7.9l-2.1,5.4H93l7-17.4H101.9z M104.2,503.3l-3.4-8.9l-3.5,8.9H104.2
		z"/>
	<path fill="#7B807F" d="M123,492.7v1.4h-6.1v16h-1.7v-16h-6.1v-1.4H123z"/>
	<path fill="#7B807F" d="M139.1,492.7v1.4h-10.4v6.3h9.7v1.4h-9.7v6.9h10.5v1.4h-12.2v-17.4H139.1z"/>
	<path fill="#7B807F" d="M150,492.7c2.7,0.1,4.7,0.8,6,2.2c1.3,1.4,2,3.6,2,6.5c0,2.9-0.7,5.1-2,6.5c-1.3,1.4-3.3,2.2-6,2.2h-6
		v-17.4H150z M149.2,508.7c1.3,0,2.3-0.1,3.2-0.4c0.9-0.3,1.6-0.7,2.2-1.3s1-1.3,1.3-2.3c0.3-0.9,0.4-2,0.4-3.3
		c0-1.3-0.1-2.4-0.4-3.3c-0.3-0.9-0.7-1.7-1.3-2.3c-0.6-0.6-1.3-1-2.2-1.3c-0.9-0.3-2-0.4-3.2-0.4h-3.5v14.6H149.2z"/>
	<path fill="#7B807F" d="M41.2,525.5c0.5-0.1,1-0.2,1.4-0.4c0.4-0.2,0.7-0.5,1-1c0.3-0.4,0.5-1,0.6-1.8h1.2v17.1h-1.5v-12.7h-4.5
		v-1.1C40,525.6,40.6,525.6,41.2,525.5z"/>
	<path fill="#7B807F" d="M55.9,526.8v2.1h0.1c0.4-0.8,0.9-1.4,1.6-1.8s1.5-0.7,2.5-0.7c0.8,0,1.6,0.2,2.3,0.6c0.7,0.4,1.1,1,1.4,1.9
		c0.4-0.8,0.9-1.4,1.7-1.9c0.7-0.4,1.5-0.6,2.3-0.6c2.8,0,4.2,1.5,4.2,4.4v8.5h-1.5V531c0-1-0.2-1.8-0.7-2.4
		c-0.4-0.5-1.2-0.8-2.3-0.8c-0.7,0-1.2,0.1-1.7,0.4c-0.4,0.3-0.8,0.6-1,1c-0.3,0.4-0.4,0.9-0.5,1.5c-0.1,0.5-0.2,1.1-0.2,1.7v7.1
		h-1.5v-8.5c0-0.4,0-0.8-0.1-1.2c-0.1-0.4-0.2-0.7-0.4-1c-0.2-0.3-0.5-0.5-0.8-0.7c-0.3-0.2-0.8-0.2-1.2-0.2c-0.7,0-1.2,0.1-1.7,0.4
		c-0.5,0.2-0.9,0.6-1.2,1c-0.3,0.4-0.5,0.9-0.7,1.5s-0.2,1.2-0.2,1.8v7h-1.5v-12.6H55.9z"/>
	<path fill="#7B807F" d="M86.8,528.8c0.3-0.5,0.6-1,1.1-1.3c0.4-0.3,1-0.6,1.6-0.8c0.6-0.2,1.3-0.2,2-0.2c0.6,0,1.1,0.1,1.7,0.2
		c0.6,0.1,1,0.3,1.5,0.6s0.8,0.7,1.1,1.2c0.3,0.5,0.4,1.2,0.4,2.1v6.7c0,0.6,0.3,0.9,0.9,0.9c0.2,0,0.3,0,0.5-0.1v1.3
		c-0.2,0-0.3,0.1-0.5,0.1c-0.1,0-0.3,0-0.5,0c-0.4,0-0.7-0.1-0.9-0.2c-0.2-0.1-0.4-0.3-0.5-0.5c-0.1-0.2-0.2-0.4-0.3-0.7
		c0-0.3-0.1-0.6-0.1-0.9h0c-0.3,0.4-0.6,0.8-0.8,1.1s-0.6,0.6-1,0.8c-0.4,0.2-0.7,0.4-1.2,0.5c-0.4,0.1-1,0.2-1.6,0.2
		c-0.6,0-1.1-0.1-1.6-0.2c-0.5-0.1-1-0.4-1.3-0.7c-0.4-0.3-0.7-0.7-0.9-1.1s-0.3-1-0.3-1.6c0-0.9,0.2-1.6,0.6-2.1
		c0.4-0.5,0.9-0.9,1.6-1.1c0.6-0.3,1.4-0.4,2.2-0.5c0.8-0.1,1.6-0.2,2.5-0.3c0.3,0,0.6-0.1,0.9-0.1s0.4-0.1,0.6-0.3
		c0.2-0.1,0.3-0.3,0.4-0.5c0.1-0.2,0.1-0.5,0.1-0.8c0-0.5-0.1-0.9-0.3-1.3c-0.2-0.3-0.4-0.6-0.7-0.8c-0.3-0.2-0.7-0.3-1-0.4
		c-0.4-0.1-0.8-0.1-1.3-0.1c-1,0-1.8,0.2-2.4,0.7s-0.9,1.2-1,2.2h-1.5C86.4,530,86.5,529.3,86.8,528.8z M94.5,532.6
		c-0.1,0.2-0.3,0.3-0.6,0.4c-0.3,0.1-0.5,0.1-0.7,0.2c-0.7,0.1-1.3,0.2-2,0.3c-0.7,0.1-1.3,0.2-1.9,0.4c-0.6,0.2-1,0.4-1.4,0.8
		c-0.4,0.3-0.5,0.8-0.5,1.4c0,0.4,0.1,0.7,0.2,1c0.2,0.3,0.4,0.6,0.6,0.8c0.3,0.2,0.6,0.4,0.9,0.5c0.3,0.1,0.7,0.2,1.1,0.2
		c0.6,0,1.1-0.1,1.7-0.3c0.5-0.2,1-0.4,1.4-0.8c0.4-0.3,0.7-0.8,1-1.2s0.4-1,0.4-1.7L94.5,532.6L94.5,532.6z"/>
	<path fill="#7B807F" d="M111.9,540.9c-0.2,0.7-0.5,1.4-1,1.9c-0.4,0.5-1,0.9-1.7,1.2c-0.7,0.3-1.6,0.4-2.6,0.4
		c-0.6,0-1.3-0.1-1.9-0.2c-0.6-0.1-1.1-0.4-1.6-0.7s-0.9-0.7-1.2-1.2s-0.5-1.1-0.5-1.7h1.5c0.1,0.5,0.2,0.9,0.5,1.2
		c0.2,0.3,0.5,0.6,0.9,0.8c0.3,0.2,0.7,0.3,1.1,0.4c0.4,0.1,0.8,0.1,1.2,0.1c1.4,0,2.5-0.4,3.1-1.2c0.6-0.8,1-2,1-3.5v-1.7h0
		c-0.4,0.8-0.9,1.4-1.6,1.9c-0.7,0.5-1.5,0.7-2.4,0.7c-1,0-1.9-0.2-2.6-0.5c-0.7-0.3-1.3-0.8-1.8-1.4c-0.5-0.6-0.8-1.3-1-2.1
		c-0.2-0.8-0.3-1.6-0.3-2.5c0-0.9,0.1-1.7,0.4-2.5c0.3-0.8,0.6-1.4,1.1-2s1.1-1,1.8-1.4s1.5-0.5,2.4-0.5c0.5,0,0.9,0.1,1.3,0.2
		c0.4,0.1,0.8,0.3,1.1,0.5s0.6,0.5,0.9,0.8c0.3,0.3,0.5,0.6,0.6,1h0v-2.2h1.5v11.6C112.2,539.3,112.1,540.2,111.9,540.9z
		 M108.4,537.6c0.5-0.3,0.9-0.7,1.3-1.1c0.3-0.5,0.6-1,0.8-1.6s0.3-1.2,0.3-1.9c0-0.6-0.1-1.2-0.2-1.9c-0.1-0.6-0.4-1.2-0.7-1.7
		c-0.3-0.5-0.7-0.9-1.3-1.2c-0.5-0.3-1.1-0.5-1.9-0.5s-1.4,0.2-1.9,0.5c-0.5,0.3-1,0.7-1.3,1.2s-0.6,1-0.7,1.7
		c-0.2,0.6-0.2,1.3-0.2,1.9c0,0.6,0.1,1.3,0.2,1.9c0.2,0.6,0.4,1.1,0.8,1.6c0.3,0.5,0.8,0.8,1.3,1.1c0.5,0.3,1.1,0.4,1.9,0.4
		C107.3,538,107.9,537.9,108.4,537.6z"/>
	<path fill="#7B807F" d="M125.5,527c0.7,0.4,1.4,0.8,1.9,1.4c0.5,0.6,0.9,1.3,1.1,2.1c0.3,0.8,0.4,1.7,0.4,2.6
		c0,0.9-0.1,1.8-0.4,2.6c-0.3,0.8-0.6,1.5-1.1,2.1c-0.5,0.6-1.1,1.1-1.9,1.4c-0.7,0.4-1.6,0.5-2.6,0.5s-1.8-0.2-2.6-0.5
		c-0.7-0.3-1.4-0.8-1.9-1.4c-0.5-0.6-0.9-1.3-1.1-2.1c-0.3-0.8-0.4-1.7-0.4-2.6c0-0.9,0.1-1.8,0.4-2.6c0.3-0.8,0.6-1.5,1.1-2.1
		c0.5-0.6,1.1-1.1,1.9-1.4c0.7-0.4,1.6-0.5,2.6-0.5S124.7,526.7,125.5,527z M121,528.2c-0.6,0.3-1,0.7-1.4,1.2
		c-0.4,0.5-0.6,1.1-0.8,1.7c-0.2,0.6-0.3,1.3-0.3,2c0,0.7,0.1,1.3,0.3,2c0.2,0.6,0.5,1.2,0.8,1.7c0.4,0.5,0.8,0.9,1.4,1.2
		c0.6,0.3,1.2,0.5,1.9,0.5s1.4-0.2,1.9-0.5c0.6-0.3,1-0.7,1.4-1.2c0.4-0.5,0.6-1.1,0.8-1.7c0.2-0.6,0.3-1.3,0.3-2
		c0-0.7-0.1-1.3-0.3-2c-0.2-0.6-0.5-1.2-0.8-1.7s-0.8-0.9-1.4-1.2c-0.6-0.3-1.2-0.5-1.9-0.5S121.6,527.9,121,528.2z"/>
</g>
<g>
	<path fill="#7B807F" d="M465.9,492.7v10.8c0,1,0.1,1.9,0.3,2.6c0.2,0.7,0.6,1.3,1,1.7c0.4,0.4,1,0.8,1.6,1c0.6,0.2,1.4,0.3,2.1,0.3
		c0.8,0,1.5-0.1,2.2-0.3c0.6-0.2,1.2-0.5,1.6-1s0.8-1,1-1.7c0.2-0.7,0.3-1.6,0.3-2.6v-10.8h1.7v11.2c0,0.9-0.1,1.7-0.4,2.6
		c-0.3,0.8-0.7,1.5-1.2,2.1c-0.5,0.6-1.2,1.1-2.1,1.4c-0.9,0.4-1.9,0.5-3.1,0.5c-1.2,0-2.2-0.2-3.1-0.5c-0.9-0.3-1.6-0.8-2.1-1.4
		c-0.5-0.6-0.9-1.3-1.2-2.1c-0.3-0.8-0.4-1.7-0.4-2.6v-11.2H465.9z"/>
	<path fill="#7B807F" d="M491.3,492.7c0.8,0,1.5,0.1,2.1,0.3c0.6,0.2,1.2,0.5,1.6,1c0.5,0.4,0.8,1,1,1.6c0.2,0.6,0.4,1.3,0.4,2.1
		s-0.1,1.5-0.4,2.1c-0.2,0.6-0.6,1.1-1,1.6s-1,0.8-1.6,1c-0.6,0.2-1.3,0.3-2.1,0.3h-6.1v7.5h-1.7v-17.4H491.3z M490.9,501.2
		c1.2,0,2.1-0.3,2.8-0.9c0.7-0.6,1.1-1.5,1.1-2.7c0-1.2-0.4-2.1-1.1-2.7c-0.7-0.6-1.7-0.9-2.8-0.9h-5.7v7.1H490.9z"/>
	<path fill="#7B807F" d="M507.4,492.7c2.7,0.1,4.7,0.8,6,2.2c1.3,1.4,2,3.6,2,6.5c0,2.9-0.7,5.1-2,6.5c-1.3,1.4-3.3,2.2-6,2.2h-6
		v-17.4H507.4z M506.6,508.7c1.3,0,2.3-0.1,3.2-0.4c0.9-0.3,1.6-0.7,2.2-1.3s1-1.3,1.3-2.3c0.3-0.9,0.4-2,0.4-3.3
		c0-1.3-0.1-2.4-0.4-3.3c-0.3-0.9-0.7-1.7-1.3-2.3c-0.6-0.6-1.3-1-2.2-1.3c-0.9-0.3-2-0.4-3.2-0.4h-3.5v14.6H506.6z"/>
	<path fill="#7B807F" d="M527.5,492.7l6.8,17.4h-1.8l-2.1-5.4h-7.9l-2.1,5.4h-1.8l7-17.4H527.5z M529.9,503.3l-3.4-8.9l-3.5,8.9
		H529.9z"/>
	<path fill="#7B807F" d="M548.7,492.7v1.4h-6.1v16h-1.7v-16h-6.1v-1.4H548.7z"/>
	<path fill="#7B807F" d="M564.8,492.7v1.4h-10.4v6.3h9.7v1.4h-9.7v6.9h10.5v1.4h-12.2v-17.4H564.8z"/>
	<path fill="#7B807F" d="M575.7,492.7c2.7,0.1,4.7,0.8,6,2.2c1.3,1.4,2,3.6,2,6.5c0,2.9-0.7,5.1-2,6.5c-1.3,1.4-3.3,2.2-6,2.2h-6
		v-17.4H575.7z M574.9,508.7c1.3,0,2.3-0.1,3.2-0.4c0.9-0.3,1.6-0.7,2.2-1.3s1-1.3,1.3-2.3c0.3-0.9,0.4-2,0.4-3.3
		c0-1.3-0.1-2.4-0.4-3.3c-0.3-0.9-0.7-1.7-1.3-2.3c-0.6-0.6-1.3-1-2.2-1.3c-0.9-0.3-2-0.4-3.2-0.4h-3.5v14.6H574.9z"/>
	<path fill="#7B807F" d="M463.5,539.4c0-0.8,0.2-1.6,0.4-2.2c0.3-0.7,0.6-1.2,1.1-1.8c0.5-0.5,1-1,1.5-1.4s1.2-0.8,1.8-1.2
		c0.6-0.4,1.2-0.8,1.8-1.2c0.6-0.4,1.1-0.9,1.6-1.3c0.5-0.5,0.8-1,1.1-1.5c0.2-0.5,0.4-1.1,0.4-1.8c0-0.6-0.1-1-0.3-1.5
		c-0.2-0.4-0.5-0.8-0.8-1.1c-0.3-0.3-0.8-0.5-1.2-0.7c-0.5-0.2-1-0.2-1.5-0.2c-0.7,0-1.3,0.1-1.8,0.4c-0.5,0.3-0.9,0.6-1.2,1.1
		c-0.3,0.4-0.5,0.9-0.7,1.5c-0.1,0.6-0.2,1.2-0.2,1.8h-1.5c0-0.9,0.1-1.7,0.3-2.4c0.2-0.7,0.6-1.4,1-1.9c0.5-0.5,1-1,1.7-1.3
		c0.7-0.3,1.5-0.5,2.4-0.5c0.7,0,1.4,0.1,2.1,0.3c0.6,0.2,1.2,0.5,1.7,0.9c0.5,0.4,0.9,0.9,1.1,1.5c0.3,0.6,0.4,1.3,0.4,2.1
		c0,0.7-0.1,1.4-0.4,2s-0.6,1.1-1,1.6c-0.4,0.5-0.9,0.9-1.4,1.4c-0.5,0.4-1.1,0.8-1.6,1.2c-0.4,0.3-0.9,0.6-1.4,0.9
		s-1.1,0.7-1.6,1.1s-1,0.9-1.4,1.3s-0.6,1-0.7,1.6h9.5v1.4H463.5z"/>
	<path fill="#7B807F" d="M481.5,526.8v2.1h0.1c0.4-0.8,0.9-1.4,1.6-1.8s1.5-0.7,2.5-0.7c0.8,0,1.6,0.2,2.3,0.6
		c0.7,0.4,1.1,1,1.4,1.9c0.4-0.8,0.9-1.4,1.7-1.9c0.7-0.4,1.5-0.6,2.3-0.6c2.8,0,4.2,1.5,4.2,4.4v8.5H496V531c0-1-0.2-1.8-0.7-2.4
		c-0.4-0.5-1.2-0.8-2.3-0.8c-0.7,0-1.2,0.1-1.7,0.4c-0.4,0.3-0.8,0.6-1,1c-0.3,0.4-0.4,0.9-0.5,1.5c-0.1,0.5-0.2,1.1-0.2,1.7v7.1
		h-1.5v-8.5c0-0.4,0-0.8-0.1-1.2c-0.1-0.4-0.2-0.7-0.4-1c-0.2-0.3-0.5-0.5-0.8-0.7c-0.3-0.2-0.8-0.2-1.2-0.2c-0.7,0-1.2,0.1-1.7,0.4
		c-0.5,0.2-0.9,0.6-1.2,1c-0.3,0.4-0.5,0.9-0.7,1.5s-0.2,1.2-0.2,1.8v7h-1.5v-12.6H481.5z"/>
	<path fill="#7B807F" d="M512.5,528.8c0.3-0.5,0.6-1,1.1-1.3c0.4-0.3,1-0.6,1.6-0.8c0.6-0.2,1.3-0.2,2-0.2c0.6,0,1.1,0.1,1.7,0.2
		c0.6,0.1,1,0.3,1.5,0.6s0.8,0.7,1.1,1.2c0.3,0.5,0.4,1.2,0.4,2.1v6.7c0,0.6,0.3,0.9,0.9,0.9c0.2,0,0.3,0,0.5-0.1v1.3
		c-0.2,0-0.3,0.1-0.5,0.1c-0.1,0-0.3,0-0.5,0c-0.4,0-0.7-0.1-0.9-0.2c-0.2-0.1-0.4-0.3-0.5-0.5c-0.1-0.2-0.2-0.4-0.3-0.7
		c0-0.3-0.1-0.6-0.1-0.9h0c-0.3,0.4-0.6,0.8-0.8,1.1s-0.6,0.6-1,0.8c-0.4,0.2-0.7,0.4-1.2,0.5c-0.4,0.1-1,0.2-1.6,0.2
		c-0.6,0-1.1-0.1-1.6-0.2c-0.5-0.1-1-0.4-1.3-0.7c-0.4-0.3-0.7-0.7-0.9-1.1s-0.3-1-0.3-1.6c0-0.9,0.2-1.6,0.6-2.1
		c0.4-0.5,0.9-0.9,1.6-1.1c0.6-0.3,1.4-0.4,2.2-0.5c0.8-0.1,1.6-0.2,2.5-0.3c0.3,0,0.6-0.1,0.9-0.1s0.4-0.1,0.6-0.3
		c0.2-0.1,0.3-0.3,0.4-0.5c0.1-0.2,0.1-0.5,0.1-0.8c0-0.5-0.1-0.9-0.3-1.3c-0.2-0.3-0.4-0.6-0.7-0.8c-0.3-0.2-0.7-0.3-1-0.4
		c-0.4-0.1-0.8-0.1-1.3-0.1c-1,0-1.8,0.2-2.4,0.7s-0.9,1.2-1,2.2H512C512,530,512.2,529.3,512.5,528.8z M520.2,532.6
		c-0.1,0.2-0.3,0.3-0.6,0.4c-0.3,0.1-0.5,0.1-0.7,0.2c-0.7,0.1-1.3,0.2-2,0.3c-0.7,0.1-1.3,0.2-1.9,0.4c-0.6,0.2-1,0.4-1.4,0.8
		c-0.4,0.3-0.5,0.8-0.5,1.4c0,0.4,0.1,0.7,0.2,1c0.2,0.3,0.4,0.6,0.6,0.8c0.3,0.2,0.6,0.4,0.9,0.5c0.3,0.1,0.7,0.2,1.1,0.2
		c0.6,0,1.1-0.1,1.7-0.3c0.5-0.2,1-0.4,1.4-0.8c0.4-0.3,0.7-0.8,1-1.2s0.4-1,0.4-1.7L520.2,532.6L520.2,532.6z"/>
	<path fill="#7B807F" d="M537.6,540.9c-0.2,0.7-0.5,1.4-1,1.9c-0.4,0.5-1,0.9-1.7,1.2c-0.7,0.3-1.6,0.4-2.6,0.4
		c-0.6,0-1.3-0.1-1.9-0.2c-0.6-0.1-1.1-0.4-1.6-0.7s-0.9-0.7-1.2-1.2s-0.5-1.1-0.5-1.7h1.5c0.1,0.5,0.2,0.9,0.5,1.2
		c0.2,0.3,0.5,0.6,0.9,0.8c0.3,0.2,0.7,0.3,1.1,0.4c0.4,0.1,0.8,0.1,1.2,0.1c1.4,0,2.5-0.4,3.1-1.2c0.6-0.8,1-2,1-3.5v-1.7h0
		c-0.4,0.8-0.9,1.4-1.6,1.9c-0.7,0.5-1.5,0.7-2.4,0.7c-1,0-1.9-0.2-2.6-0.5c-0.7-0.3-1.3-0.8-1.8-1.4c-0.5-0.6-0.8-1.3-1-2.1
		c-0.2-0.8-0.3-1.6-0.3-2.5c0-0.9,0.1-1.7,0.4-2.5c0.3-0.8,0.6-1.4,1.1-2s1.1-1,1.8-1.4s1.5-0.5,2.4-0.5c0.5,0,0.9,0.1,1.3,0.2
		c0.4,0.1,0.8,0.3,1.1,0.5s0.6,0.5,0.9,0.8c0.3,0.3,0.5,0.6,0.6,1h0v-2.2h1.5v11.6C537.9,539.3,537.8,540.2,537.6,540.9z
		 M534.1,537.6c0.5-0.3,0.9-0.7,1.3-1.1c0.3-0.5,0.6-1,0.8-1.6s0.3-1.2,0.3-1.9c0-0.6-0.1-1.2-0.2-1.9c-0.1-0.6-0.4-1.2-0.7-1.7
		c-0.3-0.5-0.7-0.9-1.3-1.2c-0.5-0.3-1.1-0.5-1.9-0.5s-1.4,0.2-1.9,0.5c-0.5,0.3-1,0.7-1.3,1.2s-0.6,1-0.7,1.7
		c-0.2,0.6-0.2,1.3-0.2,1.9c0,0.6,0.1,1.3,0.2,1.9c0.2,0.6,0.4,1.1,0.8,1.6c0.3,0.5,0.8,0.8,1.3,1.1c0.5,0.3,1.1,0.4,1.9,0.4
		C533,538,533.6,537.9,534.1,537.6z"/>
	<path fill="#7B807F" d="M551.2,527c0.7,0.4,1.4,0.8,1.9,1.4c0.5,0.6,0.9,1.3,1.1,2.1c0.3,0.8,0.4,1.7,0.4,2.6
		c0,0.9-0.1,1.8-0.4,2.6c-0.3,0.8-0.6,1.5-1.1,2.1c-0.5,0.6-1.1,1.1-1.9,1.4c-0.7,0.4-1.6,0.5-2.6,0.5s-1.8-0.2-2.6-0.5
		c-0.7-0.3-1.4-0.8-1.9-1.4c-0.5-0.6-0.9-1.3-1.1-2.1c-0.3-0.8-0.4-1.7-0.4-2.6c0-0.9,0.1-1.8,0.4-2.6c0.3-0.8,0.6-1.5,1.1-2.1
		c0.5-0.6,1.1-1.1,1.9-1.4c0.7-0.4,1.6-0.5,2.6-0.5S550.4,526.7,551.2,527z M546.7,528.2c-0.6,0.3-1,0.7-1.4,1.2
		c-0.4,0.5-0.6,1.1-0.8,1.7c-0.2,0.6-0.3,1.3-0.3,2c0,0.7,0.1,1.3,0.3,2c0.2,0.6,0.5,1.2,0.8,1.7c0.4,0.5,0.8,0.9,1.4,1.2
		c0.6,0.3,1.2,0.5,1.9,0.5s1.4-0.2,1.9-0.5c0.6-0.3,1-0.7,1.4-1.2c0.4-0.5,0.6-1.1,0.8-1.7c0.2-0.6,0.3-1.3,0.3-2
		c0-0.7-0.1-1.3-0.3-2c-0.2-0.6-0.5-1.2-0.8-1.7s-0.8-0.9-1.4-1.2c-0.6-0.3-1.2-0.5-1.9-0.5S547.2,527.9,546.7,528.2z"/>
</g>
<g>
	<path fill="#7B807F" d="M890.9,492.7v10.8c0,1,0.1,1.9,0.3,2.6c0.2,0.7,0.6,1.3,1,1.7c0.4,0.4,1,0.8,1.6,1c0.6,0.2,1.4,0.3,2.1,0.3
		c0.8,0,1.5-0.1,2.2-0.3c0.6-0.2,1.2-0.5,1.6-1s0.8-1,1-1.7c0.2-0.7,0.3-1.6,0.3-2.6v-10.8h1.7v11.2c0,0.9-0.1,1.7-0.4,2.6
		c-0.3,0.8-0.7,1.5-1.2,2.1c-0.5,0.6-1.2,1.1-2.1,1.4c-0.9,0.4-1.9,0.5-3.1,0.5c-1.2,0-2.2-0.2-3.1-0.5c-0.9-0.3-1.6-0.8-2.1-1.4
		c-0.5-0.6-0.9-1.3-1.2-2.1c-0.3-0.8-0.4-1.7-0.4-2.6v-11.2H890.9z"/>
	<path fill="#7B807F" d="M916.3,492.7c0.8,0,1.5,0.1,2.1,0.3c0.6,0.2,1.2,0.5,1.6,1c0.5,0.4,0.8,1,1,1.6c0.2,0.6,0.4,1.3,0.4,2.1
		s-0.1,1.5-0.4,2.1c-0.2,0.6-0.6,1.1-1,1.6s-1,0.8-1.6,1c-0.6,0.2-1.3,0.3-2.1,0.3h-6.1v7.5h-1.7v-17.4H916.3z M915.9,501.2
		c1.2,0,2.1-0.3,2.8-0.9c0.7-0.6,1.1-1.5,1.1-2.7c0-1.2-0.4-2.1-1.1-2.7c-0.7-0.6-1.7-0.9-2.8-0.9h-5.7v7.1H915.9z"/>
	<path fill="#7B807F" d="M932.4,492.7c2.7,0.1,4.7,0.8,6,2.2c1.3,1.4,2,3.6,2,6.5c0,2.9-0.7,5.1-2,6.5c-1.3,1.4-3.3,2.2-6,2.2h-6
		v-17.4H932.4z M931.6,508.7c1.3,0,2.3-0.1,3.2-0.4c0.9-0.3,1.6-0.7,2.2-1.3s1-1.3,1.3-2.3c0.3-0.9,0.4-2,0.4-3.3
		c0-1.3-0.1-2.4-0.4-3.3c-0.3-0.9-0.7-1.7-1.3-2.3c-0.6-0.6-1.3-1-2.2-1.3c-0.9-0.3-2-0.4-3.2-0.4h-3.5v14.6H931.6z"/>
	<path fill="#7B807F" d="M952.5,492.7l6.8,17.4h-1.8l-2.1-5.4h-7.9l-2.1,5.4h-1.8l7-17.4H952.5z M954.9,503.3l-3.4-8.9l-3.5,8.9
		H954.9z"/>
	<path fill="#7B807F" d="M973.7,492.7v1.4h-6.1v16h-1.7v-16h-6.1v-1.4H973.7z"/>
	<path fill="#7B807F" d="M989.8,492.7v1.4h-10.4v6.3h9.7v1.4h-9.7v6.9h10.5v1.4h-12.2v-17.4H989.8z"/>
	<path fill="#7B807F" d="M1000.7,492.7c2.7,0.1,4.7,0.8,6,2.2c1.3,1.4,2,3.6,2,6.5c0,2.9-0.7,5.1-2,6.5c-1.3,1.4-3.3,2.2-6,2.2h-6
		v-17.4H1000.7z M999.9,508.7c1.3,0,2.3-0.1,3.2-0.4c0.9-0.3,1.6-0.7,2.2-1.3s1-1.3,1.3-2.3c0.3-0.9,0.4-2,0.4-3.3
		c0-1.3-0.1-2.4-0.4-3.3c-0.3-0.9-0.7-1.7-1.3-2.3c-0.6-0.6-1.3-1-2.2-1.3c-0.9-0.3-2-0.4-3.2-0.4h-3.5v14.6H999.9z"/>
	<path fill="#7B807F" d="M891.8,525.5c0.5-0.1,1-0.2,1.4-0.4c0.4-0.2,0.7-0.5,1-1c0.3-0.4,0.5-1,0.6-1.8h1.2v17.1h-1.5v-12.7H890
		v-1.1C890.7,525.6,891.3,525.6,891.8,525.5z"/>
	<path fill="#7B807F" d="M906.5,526.8v2.1h0.1c0.4-0.8,0.9-1.4,1.6-1.8s1.5-0.7,2.5-0.7c0.8,0,1.6,0.2,2.3,0.6
		c0.7,0.4,1.1,1,1.4,1.9c0.4-0.8,0.9-1.4,1.7-1.9c0.7-0.4,1.5-0.6,2.3-0.6c2.8,0,4.2,1.5,4.2,4.4v8.5H921V531c0-1-0.2-1.8-0.7-2.4
		c-0.4-0.5-1.2-0.8-2.3-0.8c-0.7,0-1.2,0.1-1.7,0.4c-0.4,0.3-0.8,0.6-1,1c-0.3,0.4-0.4,0.9-0.5,1.5c-0.1,0.5-0.2,1.1-0.2,1.7v7.1
		h-1.5v-8.5c0-0.4,0-0.8-0.1-1.2c-0.1-0.4-0.2-0.7-0.4-1c-0.2-0.3-0.5-0.5-0.8-0.7c-0.3-0.2-0.8-0.2-1.2-0.2c-0.7,0-1.2,0.1-1.7,0.4
		c-0.5,0.2-0.9,0.6-1.2,1c-0.3,0.4-0.5,0.9-0.7,1.5s-0.2,1.2-0.2,1.8v7h-1.5v-12.6H906.5z"/>
	<path fill="#7B807F" d="M937.5,528.8c0.3-0.5,0.6-1,1.1-1.3c0.4-0.3,1-0.6,1.6-0.8c0.6-0.2,1.3-0.2,2-0.2c0.6,0,1.1,0.1,1.7,0.2
		c0.6,0.1,1,0.3,1.5,0.6s0.8,0.7,1.1,1.2c0.3,0.5,0.4,1.2,0.4,2.1v6.7c0,0.6,0.3,0.9,0.9,0.9c0.2,0,0.3,0,0.5-0.1v1.3
		c-0.2,0-0.3,0.1-0.5,0.1c-0.1,0-0.3,0-0.5,0c-0.4,0-0.7-0.1-0.9-0.2c-0.2-0.1-0.4-0.3-0.5-0.5c-0.1-0.2-0.2-0.4-0.3-0.7
		c0-0.3-0.1-0.6-0.1-0.9h0c-0.3,0.4-0.6,0.8-0.8,1.1s-0.6,0.6-1,0.8c-0.4,0.2-0.7,0.4-1.2,0.5c-0.4,0.1-1,0.2-1.6,0.2
		c-0.6,0-1.1-0.1-1.6-0.2c-0.5-0.1-1-0.4-1.3-0.7c-0.4-0.3-0.7-0.7-0.9-1.1s-0.3-1-0.3-1.6c0-0.9,0.2-1.6,0.6-2.1
		c0.4-0.5,0.9-0.9,1.6-1.1c0.6-0.3,1.4-0.4,2.2-0.5c0.8-0.1,1.6-0.2,2.5-0.3c0.3,0,0.6-0.1,0.9-0.1s0.4-0.1,0.6-0.3
		c0.2-0.1,0.3-0.3,0.4-0.5c0.1-0.2,0.1-0.5,0.1-0.8c0-0.5-0.1-0.9-0.3-1.3c-0.2-0.3-0.4-0.6-0.7-0.8c-0.3-0.2-0.7-0.3-1-0.4
		c-0.4-0.1-0.8-0.1-1.3-0.1c-1,0-1.8,0.2-2.4,0.7s-0.9,1.2-1,2.2H937C937,530,937.2,529.3,937.5,528.8z M945.2,532.6
		c-0.1,0.2-0.3,0.3-0.6,0.4c-0.3,0.1-0.5,0.1-0.7,0.2c-0.7,0.1-1.3,0.2-2,0.3c-0.7,0.1-1.3,0.2-1.9,0.4c-0.6,0.2-1,0.4-1.4,0.8
		c-0.4,0.3-0.5,0.8-0.5,1.4c0,0.4,0.1,0.7,0.2,1c0.2,0.3,0.4,0.6,0.6,0.8c0.3,0.2,0.6,0.4,0.9,0.5c0.3,0.1,0.7,0.2,1.1,0.2
		c0.6,0,1.1-0.1,1.7-0.3c0.5-0.2,1-0.4,1.4-0.8c0.4-0.3,0.7-0.8,1-1.2s0.4-1,0.4-1.7L945.2,532.6L945.2,532.6z"/>
	<path fill="#7B807F" d="M962.6,540.9c-0.2,0.7-0.5,1.4-1,1.9c-0.4,0.5-1,0.9-1.7,1.2c-0.7,0.3-1.6,0.4-2.6,0.4
		c-0.6,0-1.3-0.1-1.9-0.2c-0.6-0.1-1.1-0.4-1.6-0.7s-0.9-0.7-1.2-1.2s-0.5-1.1-0.5-1.7h1.5c0.1,0.5,0.2,0.9,0.5,1.2
		c0.2,0.3,0.5,0.6,0.9,0.8c0.3,0.2,0.7,0.3,1.1,0.4c0.4,0.1,0.8,0.1,1.2,0.1c1.4,0,2.5-0.4,3.1-1.2c0.6-0.8,1-2,1-3.5v-1.7h0
		c-0.4,0.8-0.9,1.4-1.6,1.9c-0.7,0.5-1.5,0.7-2.4,0.7c-1,0-1.9-0.2-2.6-0.5c-0.7-0.3-1.3-0.8-1.8-1.4c-0.5-0.6-0.8-1.3-1-2.1
		c-0.2-0.8-0.3-1.6-0.3-2.5c0-0.9,0.1-1.7,0.4-2.5c0.3-0.8,0.6-1.4,1.1-2s1.1-1,1.8-1.4s1.5-0.5,2.4-0.5c0.5,0,0.9,0.1,1.3,0.2
		c0.4,0.1,0.8,0.3,1.1,0.5s0.6,0.5,0.9,0.8c0.3,0.3,0.5,0.6,0.6,1h0v-2.2h1.5v11.6C962.9,539.3,962.8,540.2,962.6,540.9z
		 M959.1,537.6c0.5-0.3,0.9-0.7,1.3-1.1c0.3-0.5,0.6-1,0.8-1.6s0.3-1.2,0.3-1.9c0-0.6-0.1-1.2-0.2-1.9c-0.1-0.6-0.4-1.2-0.7-1.7
		c-0.3-0.5-0.7-0.9-1.3-1.2c-0.5-0.3-1.1-0.5-1.9-0.5s-1.4,0.2-1.9,0.5c-0.5,0.3-1,0.7-1.3,1.2s-0.6,1-0.7,1.7
		c-0.2,0.6-0.2,1.3-0.2,1.9c0,0.6,0.1,1.3,0.2,1.9c0.2,0.6,0.4,1.1,0.8,1.6c0.3,0.5,0.8,0.8,1.3,1.1c0.5,0.3,1.1,0.4,1.9,0.4
		C958,538,958.6,537.9,959.1,537.6z"/>
	<path fill="#7B807F" d="M976.2,527c0.7,0.4,1.4,0.8,1.9,1.4c0.5,0.6,0.9,1.3,1.1,2.1c0.3,0.8,0.4,1.7,0.4,2.6
		c0,0.9-0.1,1.8-0.4,2.6c-0.3,0.8-0.6,1.5-1.1,2.1c-0.5,0.6-1.1,1.1-1.9,1.4c-0.7,0.4-1.6,0.5-2.6,0.5s-1.8-0.2-2.6-0.5
		c-0.7-0.3-1.4-0.8-1.9-1.4c-0.5-0.6-0.9-1.3-1.1-2.1c-0.3-0.8-0.4-1.7-0.4-2.6c0-0.9,0.1-1.8,0.4-2.6c0.3-0.8,0.6-1.5,1.1-2.1
		c0.5-0.6,1.1-1.1,1.9-1.4c0.7-0.4,1.6-0.5,2.6-0.5S975.4,526.7,976.2,527z M971.7,528.2c-0.6,0.3-1,0.7-1.4,1.2
		c-0.4,0.5-0.6,1.1-0.8,1.7c-0.2,0.6-0.3,1.3-0.3,2c0,0.7,0.1,1.3,0.3,2c0.2,0.6,0.5,1.2,0.8,1.7c0.4,0.5,0.8,0.9,1.4,1.2
		c0.6,0.3,1.2,0.5,1.9,0.5s1.4-0.2,1.9-0.5c0.6-0.3,1-0.7,1.4-1.2c0.4-0.5,0.6-1.1,0.8-1.7c0.2-0.6,0.3-1.3,0.3-2
		c0-0.7-0.1-1.3-0.3-2c-0.2-0.6-0.5-1.2-0.8-1.7s-0.8-0.9-1.4-1.2c-0.6-0.3-1.2-0.5-1.9-0.5S972.2,527.9,971.7,528.2z"/>
</g>
<g>
	<path fill="#7B807F" d="M1316.9,492.7v10.8c0,1,0.1,1.9,0.3,2.6c0.2,0.7,0.6,1.3,1,1.7c0.4,0.4,1,0.8,1.6,1
		c0.6,0.2,1.4,0.3,2.1,0.3c0.8,0,1.5-0.1,2.2-0.3c0.6-0.2,1.2-0.5,1.6-1s0.8-1,1-1.7c0.2-0.7,0.3-1.6,0.3-2.6v-10.8h1.7v11.2
		c0,0.9-0.1,1.7-0.4,2.6c-0.3,0.8-0.7,1.5-1.2,2.1c-0.5,0.6-1.2,1.1-2.1,1.4c-0.9,0.4-1.9,0.5-3.1,0.5c-1.2,0-2.2-0.2-3.1-0.5
		c-0.9-0.3-1.6-0.8-2.1-1.4c-0.5-0.6-0.9-1.3-1.2-2.1c-0.3-0.8-0.4-1.7-0.4-2.6v-11.2H1316.9z"/>
	<path fill="#7B807F" d="M1342.3,492.7c0.8,0,1.5,0.1,2.1,0.3c0.6,0.2,1.2,0.5,1.6,1c0.5,0.4,0.8,1,1,1.6c0.2,0.6,0.4,1.3,0.4,2.1
		s-0.1,1.5-0.4,2.1c-0.2,0.6-0.6,1.1-1,1.6s-1,0.8-1.6,1c-0.6,0.2-1.3,0.3-2.1,0.3h-6.1v7.5h-1.7v-17.4H1342.3z M1341.9,501.2
		c1.2,0,2.1-0.3,2.8-0.9c0.7-0.6,1.1-1.5,1.1-2.7c0-1.2-0.4-2.1-1.1-2.7c-0.7-0.6-1.7-0.9-2.8-0.9h-5.7v7.1H1341.9z"/>
	<path fill="#7B807F" d="M1358.4,492.7c2.7,0.1,4.7,0.8,6,2.2c1.3,1.4,2,3.6,2,6.5c0,2.9-0.7,5.1-2,6.5c-1.3,1.4-3.3,2.2-6,2.2h-6
		v-17.4H1358.4z M1357.6,508.7c1.3,0,2.3-0.1,3.2-0.4c0.9-0.3,1.6-0.7,2.2-1.3s1-1.3,1.3-2.3c0.3-0.9,0.4-2,0.4-3.3
		c0-1.3-0.1-2.4-0.4-3.3c-0.3-0.9-0.7-1.7-1.3-2.3c-0.6-0.6-1.3-1-2.2-1.3c-0.9-0.3-2-0.4-3.2-0.4h-3.5v14.6H1357.6z"/>
	<path fill="#7B807F" d="M1378.5,492.7l6.8,17.4h-1.8l-2.1-5.4h-7.9l-2.1,5.4h-1.8l7-17.4H1378.5z M1380.9,503.3l-3.4-8.9l-3.5,8.9
		H1380.9z"/>
	<path fill="#7B807F" d="M1399.7,492.7v1.4h-6.1v16h-1.7v-16h-6.1v-1.4H1399.7z"/>
	<path fill="#7B807F" d="M1415.8,492.7v1.4h-10.4v6.3h9.7v1.4h-9.7v6.9h10.5v1.4h-12.2v-17.4H1415.8z"/>
	<path fill="#7B807F" d="M1426.7,492.7c2.7,0.1,4.7,0.8,6,2.2c1.3,1.4,2,3.6,2,6.5c0,2.9-0.7,5.1-2,6.5c-1.3,1.4-3.3,2.2-6,2.2h-6
		v-17.4H1426.7z M1425.9,508.7c1.3,0,2.3-0.1,3.2-0.4c0.9-0.3,1.6-0.7,2.2-1.3s1-1.3,1.3-2.3c0.3-0.9,0.4-2,0.4-3.3
		c0-1.3-0.1-2.4-0.4-3.3c-0.3-0.9-0.7-1.7-1.3-2.3c-0.6-0.6-1.3-1-2.2-1.3c-0.9-0.3-2-0.4-3.2-0.4h-3.5v14.6H1425.9z"/>
	<path fill="#7B807F" d="M1317.8,525.5c0.5-0.1,1-0.2,1.4-0.4c0.4-0.2,0.7-0.5,1-1c0.3-0.4,0.5-1,0.6-1.8h1.2v17.1h-1.5v-12.7h-4.5
		v-1.1C1316.7,525.6,1317.3,525.6,1317.8,525.5z"/>
	<path fill="#7B807F" d="M1332.5,526.8v2.1h0.1c0.4-0.8,0.9-1.4,1.6-1.8s1.5-0.7,2.5-0.7c0.8,0,1.6,0.2,2.3,0.6
		c0.7,0.4,1.1,1,1.4,1.9c0.4-0.8,0.9-1.4,1.7-1.9c0.7-0.4,1.5-0.6,2.3-0.6c2.8,0,4.2,1.5,4.2,4.4v8.5h-1.5V531c0-1-0.2-1.8-0.7-2.4
		c-0.4-0.5-1.2-0.8-2.3-0.8c-0.7,0-1.2,0.1-1.7,0.4c-0.4,0.3-0.8,0.6-1,1c-0.3,0.4-0.4,0.9-0.5,1.5c-0.1,0.5-0.2,1.1-0.2,1.7v7.1
		h-1.5v-8.5c0-0.4,0-0.8-0.1-1.2c-0.1-0.4-0.2-0.7-0.4-1c-0.2-0.3-0.5-0.5-0.8-0.7c-0.3-0.2-0.8-0.2-1.2-0.2c-0.7,0-1.2,0.1-1.7,0.4
		c-0.5,0.2-0.9,0.6-1.2,1c-0.3,0.4-0.5,0.9-0.7,1.5s-0.2,1.2-0.2,1.8v7h-1.5v-12.6H1332.5z"/>
	<path fill="#7B807F" d="M1363.5,528.8c0.3-0.5,0.6-1,1.1-1.3c0.4-0.3,1-0.6,1.6-0.8c0.6-0.2,1.3-0.2,2-0.2c0.6,0,1.1,0.1,1.7,0.2
		c0.6,0.1,1,0.3,1.5,0.6s0.8,0.7,1.1,1.2c0.3,0.5,0.4,1.2,0.4,2.1v6.7c0,0.6,0.3,0.9,0.9,0.9c0.2,0,0.3,0,0.5-0.1v1.3
		c-0.2,0-0.3,0.1-0.5,0.1c-0.1,0-0.3,0-0.5,0c-0.4,0-0.7-0.1-0.9-0.2c-0.2-0.1-0.4-0.3-0.5-0.5c-0.1-0.2-0.2-0.4-0.3-0.7
		c0-0.3-0.1-0.6-0.1-0.9h0c-0.3,0.4-0.6,0.8-0.8,1.1s-0.6,0.6-1,0.8c-0.4,0.2-0.7,0.4-1.2,0.5c-0.4,0.1-1,0.2-1.6,0.2
		c-0.6,0-1.1-0.1-1.6-0.2c-0.5-0.1-1-0.4-1.3-0.7c-0.4-0.3-0.7-0.7-0.9-1.1s-0.3-1-0.3-1.6c0-0.9,0.2-1.6,0.6-2.1
		c0.4-0.5,0.9-0.9,1.6-1.1c0.6-0.3,1.4-0.4,2.2-0.5c0.8-0.1,1.6-0.2,2.5-0.3c0.3,0,0.6-0.1,0.9-0.1s0.4-0.1,0.6-0.3
		c0.2-0.1,0.3-0.3,0.4-0.5c0.1-0.2,0.1-0.5,0.1-0.8c0-0.5-0.1-0.9-0.3-1.3c-0.2-0.3-0.4-0.6-0.7-0.8c-0.3-0.2-0.7-0.3-1-0.4
		c-0.4-0.1-0.8-0.1-1.3-0.1c-1,0-1.8,0.2-2.4,0.7s-0.9,1.2-1,2.2h-1.5C1363,530,1363.2,529.3,1363.5,528.8z M1371.1,532.6
		c-0.1,0.2-0.3,0.3-0.6,0.4c-0.3,0.1-0.5,0.1-0.7,0.2c-0.7,0.1-1.3,0.2-2,0.3c-0.7,0.1-1.3,0.2-1.9,0.4c-0.6,0.2-1,0.4-1.4,0.8
		c-0.4,0.3-0.5,0.8-0.5,1.4c0,0.4,0.1,0.7,0.2,1c0.2,0.3,0.4,0.6,0.6,0.8c0.3,0.2,0.6,0.4,0.9,0.5c0.3,0.1,0.7,0.2,1.1,0.2
		c0.6,0,1.1-0.1,1.7-0.3c0.5-0.2,1-0.4,1.4-0.8c0.4-0.3,0.7-0.8,1-1.2s0.4-1,0.4-1.7L1371.1,532.6L1371.1,532.6z"/>
	<path fill="#7B807F" d="M1388.6,540.9c-0.2,0.7-0.5,1.4-1,1.9c-0.4,0.5-1,0.9-1.7,1.2c-0.7,0.3-1.6,0.4-2.6,0.4
		c-0.6,0-1.3-0.1-1.9-0.2c-0.6-0.1-1.1-0.4-1.6-0.7s-0.9-0.7-1.2-1.2s-0.5-1.1-0.5-1.7h1.5c0.1,0.5,0.2,0.9,0.5,1.2
		c0.2,0.3,0.5,0.6,0.9,0.8c0.3,0.2,0.7,0.3,1.1,0.4c0.4,0.1,0.8,0.1,1.2,0.1c1.4,0,2.5-0.4,3.1-1.2c0.6-0.8,1-2,1-3.5v-1.7h0
		c-0.4,0.8-0.9,1.4-1.6,1.9c-0.7,0.5-1.5,0.7-2.4,0.7c-1,0-1.9-0.2-2.6-0.5c-0.7-0.3-1.3-0.8-1.8-1.4c-0.5-0.6-0.8-1.3-1-2.1
		c-0.2-0.8-0.3-1.6-0.3-2.5c0-0.9,0.1-1.7,0.4-2.5c0.3-0.8,0.6-1.4,1.1-2s1.1-1,1.8-1.4s1.5-0.5,2.4-0.5c0.5,0,0.9,0.1,1.3,0.2
		c0.4,0.1,0.8,0.3,1.1,0.5s0.6,0.5,0.9,0.8c0.3,0.3,0.5,0.6,0.6,1h0v-2.2h1.5v11.6C1388.9,539.3,1388.8,540.2,1388.6,540.9z
		 M1385.1,537.6c0.5-0.3,0.9-0.7,1.3-1.1c0.3-0.5,0.6-1,0.8-1.6s0.3-1.2,0.3-1.9c0-0.6-0.1-1.2-0.2-1.9c-0.1-0.6-0.4-1.2-0.7-1.7
		c-0.3-0.5-0.7-0.9-1.3-1.2c-0.5-0.3-1.1-0.5-1.9-0.5s-1.4,0.2-1.9,0.5c-0.5,0.3-1,0.7-1.3,1.2s-0.6,1-0.7,1.7
		c-0.2,0.6-0.2,1.3-0.2,1.9c0,0.6,0.1,1.3,0.2,1.9c0.2,0.6,0.4,1.1,0.8,1.6c0.3,0.5,0.8,0.8,1.3,1.1c0.5,0.3,1.1,0.4,1.9,0.4
		C1384,538,1384.6,537.9,1385.1,537.6z"/>
	<path fill="#7B807F" d="M1402.2,527c0.7,0.4,1.4,0.8,1.9,1.4c0.5,0.6,0.9,1.3,1.1,2.1c0.3,0.8,0.4,1.7,0.4,2.6
		c0,0.9-0.1,1.8-0.4,2.6c-0.3,0.8-0.6,1.5-1.1,2.1c-0.5,0.6-1.1,1.1-1.9,1.4c-0.7,0.4-1.6,0.5-2.6,0.5s-1.8-0.2-2.6-0.5
		c-0.7-0.3-1.4-0.8-1.9-1.4c-0.5-0.6-0.9-1.3-1.1-2.1c-0.3-0.8-0.4-1.7-0.4-2.6c0-0.9,0.1-1.8,0.4-2.6c0.3-0.8,0.6-1.5,1.1-2.1
		c0.5-0.6,1.1-1.1,1.9-1.4c0.7-0.4,1.6-0.5,2.6-0.5S1401.4,526.7,1402.2,527z M1397.7,528.2c-0.6,0.3-1,0.7-1.4,1.2
		c-0.4,0.5-0.6,1.1-0.8,1.7c-0.2,0.6-0.3,1.3-0.3,2c0,0.7,0.1,1.3,0.3,2c0.2,0.6,0.5,1.2,0.8,1.7c0.4,0.5,0.8,0.9,1.4,1.2
		c0.6,0.3,1.2,0.5,1.9,0.5s1.4-0.2,1.9-0.5c0.6-0.3,1-0.7,1.4-1.2c0.4-0.5,0.6-1.1,0.8-1.7c0.2-0.6,0.3-1.3,0.3-2
		c0-0.7-0.1-1.3-0.3-2c-0.2-0.6-0.5-1.2-0.8-1.7s-0.8-0.9-1.4-1.2c-0.6-0.3-1.2-0.5-1.9-0.5S1398.2,527.9,1397.7,528.2z"/>
</g>
<g>
	<g>
		<path fill="#231F20" d="M891.8,206.6v9.3h12.7v-9.3h2V228h-2v-10.4h-12.7V228h-2v-21.4H891.8z"/>
		<path fill="#231F20" d="M913.8,212.5l5.1,13.2l4.8-13.2h1.9l-6.7,17.8c-0.3,0.7-0.5,1.2-0.8,1.6c-0.2,0.4-0.5,0.8-0.8,1
			c-0.3,0.2-0.6,0.4-1,0.5c-0.4,0.1-0.9,0.2-1.5,0.2c-0.4,0-0.7,0-0.9,0c-0.2,0-0.4,0-0.6-0.1V232c0.2,0,0.4,0.1,0.6,0.1
			c0.2,0,0.4,0,0.6,0c0.4,0,0.8-0.1,1-0.2s0.5-0.3,0.7-0.5s0.4-0.5,0.5-0.8c0.1-0.3,0.3-0.6,0.5-1l0.7-1.7l-6.2-15.4H913.8z"/>
		<path fill="#231F20" d="M932.2,212.5v2.9h0.1c0.4-1.1,1.2-1.9,2.1-2.5s2.1-0.9,3.4-0.9c1.2,0,2.2,0.2,3.1,0.7
			c0.9,0.4,1.6,1,2.2,1.8s1,1.6,1.3,2.6s0.4,2,0.4,3.1c0,1.1-0.1,2.1-0.4,3.1c-0.3,1-0.7,1.9-1.3,2.6s-1.3,1.3-2.2,1.8
			c-0.9,0.4-1.9,0.6-3.1,0.6c-0.6,0-1.1-0.1-1.7-0.2c-0.6-0.1-1.1-0.3-1.6-0.6s-0.9-0.6-1.3-1c-0.4-0.4-0.7-0.9-0.9-1.5h-0.1v8.6
			h-1.9v-21.2H932.2z M942.6,217.9c-0.2-0.8-0.5-1.5-0.9-2.1c-0.4-0.6-0.9-1.1-1.6-1.5c-0.6-0.4-1.4-0.6-2.3-0.6
			c-1,0-1.9,0.2-2.6,0.5c-0.7,0.4-1.3,0.8-1.7,1.4c-0.4,0.6-0.7,1.3-0.9,2.1s-0.3,1.6-0.3,2.5c0,0.8,0.1,1.6,0.3,2.4
			c0.2,0.8,0.5,1.5,0.9,2.1c0.4,0.6,1,1.1,1.7,1.5c0.7,0.4,1.5,0.6,2.5,0.6c0.9,0,1.7-0.2,2.3-0.6c0.6-0.4,1.2-0.9,1.6-1.5
			c0.4-0.6,0.7-1.3,0.9-2.1c0.2-0.8,0.3-1.6,0.3-2.4C942.8,219.5,942.7,218.7,942.6,217.9z"/>
		<path fill="#231F20" d="M952.1,222.9c0.2,0.7,0.5,1.4,0.9,2c0.4,0.6,0.9,1.1,1.6,1.4s1.4,0.6,2.3,0.6c1.4,0,2.5-0.4,3.2-1.1
			c0.8-0.7,1.3-1.7,1.6-2.9h1.9c-0.4,1.8-1.1,3.1-2.2,4.1c-1.1,1-2.6,1.4-4.5,1.4c-1.2,0-2.3-0.2-3.2-0.6c-0.9-0.4-1.6-1-2.2-1.8
			c-0.6-0.8-1-1.6-1.2-2.6c-0.3-1-0.4-2-0.4-3.1c0-1,0.1-2,0.4-3c0.3-1,0.7-1.9,1.2-2.6c0.6-0.8,1.3-1.4,2.2-1.9
			c0.9-0.5,1.9-0.7,3.2-0.7c1.2,0,2.3,0.2,3.2,0.8s1.6,1.2,2.1,2c0.6,0.8,0.9,1.7,1.2,2.8s0.3,2.1,0.3,3.2h-11.9
			C951.8,221.5,951.9,222.2,952.1,222.9z M961.4,217.1c-0.2-0.7-0.6-1.2-1-1.8c-0.4-0.5-0.9-0.9-1.5-1.2c-0.6-0.3-1.3-0.5-2-0.5
			c-0.8,0-1.5,0.2-2.1,0.5c-0.6,0.3-1.1,0.7-1.5,1.2c-0.4,0.5-0.8,1.1-1,1.8s-0.4,1.4-0.5,2.1h10
			C961.8,218.5,961.7,217.8,961.4,217.1z"/>
		<path fill="#231F20" d="M904.6,246.9c-0.4-0.7-0.9-1.2-1.5-1.6c-0.6-0.4-1.2-0.8-1.9-1c-0.7-0.2-1.5-0.3-2.2-0.3
			c-1.4,0-2.6,0.3-3.7,0.8c-1,0.5-1.9,1.3-2.5,2.1c-0.7,0.9-1.1,1.9-1.4,3c-0.3,1.1-0.5,2.3-0.5,3.5c0,1.2,0.2,2.3,0.5,3.4
			c0.3,1.1,0.8,2.1,1.4,3c0.6,0.9,1.5,1.6,2.5,2.1c1,0.5,2.2,0.8,3.7,0.8c1,0,1.9-0.2,2.7-0.5c0.8-0.4,1.5-0.8,2.1-1.5
			s1.1-1.3,1.4-2.2c0.4-0.8,0.6-1.7,0.7-2.7h2c-0.1,1.3-0.4,2.5-0.9,3.6c-0.5,1.1-1.1,2-1.9,2.7c-0.8,0.7-1.7,1.3-2.7,1.7
			c-1,0.4-2.2,0.6-3.4,0.6c-1.7,0-3.2-0.3-4.4-0.9c-1.3-0.6-2.3-1.4-3.2-2.4c-0.8-1-1.5-2.2-1.9-3.5c-0.4-1.3-0.6-2.7-0.6-4.2
			c0-1.5,0.2-2.9,0.6-4.2c0.4-1.3,1.1-2.5,1.9-3.6c0.8-1,1.9-1.8,3.2-2.5c1.3-0.6,2.7-0.9,4.4-0.9c1,0,2,0.2,3,0.5
			c1,0.3,1.8,0.7,2.6,1.3c0.8,0.6,1.5,1.3,2,2.2c0.5,0.9,0.9,1.9,1,3h-2C905.3,248.3,905,247.5,904.6,246.9z"/>
		<path fill="#231F20" d="M923.2,248.7c0.9,0.4,1.7,1,2.3,1.8c0.6,0.7,1.1,1.6,1.4,2.6c0.3,1,0.5,2,0.5,3.2c0,1.1-0.2,2.2-0.5,3.2
			s-0.8,1.9-1.4,2.6c-0.6,0.7-1.4,1.3-2.3,1.8c-0.9,0.4-2,0.6-3.1,0.6s-2.2-0.2-3.1-0.6c-0.9-0.4-1.7-1-2.3-1.8
			c-0.6-0.7-1.1-1.6-1.4-2.6c-0.3-1-0.5-2-0.5-3.2c0-1.1,0.2-2.2,0.5-3.2c0.3-1,0.8-1.9,1.4-2.6c0.6-0.7,1.4-1.3,2.3-1.8
			c0.9-0.4,2-0.7,3.1-0.7S922.3,248.3,923.2,248.7z M917.7,250.2c-0.7,0.4-1.2,0.9-1.7,1.5c-0.5,0.6-0.8,1.3-1,2.1
			c-0.2,0.8-0.3,1.6-0.3,2.4c0,0.8,0.1,1.6,0.3,2.4s0.6,1.5,1,2.1c0.4,0.6,1,1.1,1.7,1.5s1.5,0.6,2.4,0.6s1.7-0.2,2.4-0.6
			s1.2-0.9,1.7-1.5c0.5-0.6,0.8-1.3,1-2.1c0.2-0.8,0.3-1.6,0.3-2.4c0-0.8-0.1-1.6-0.3-2.4c-0.2-0.8-0.6-1.5-1-2.1
			c-0.4-0.6-1-1.1-1.7-1.5s-1.5-0.6-2.4-0.6S918.4,249.9,917.7,250.2z"/>
		<path fill="#231F20" d="M934.6,258.9c0.2,0.7,0.5,1.4,0.9,2c0.4,0.6,0.9,1.1,1.6,1.4s1.4,0.6,2.3,0.6c1.4,0,2.5-0.4,3.2-1.1
			c0.8-0.7,1.3-1.7,1.6-2.9h1.9c-0.4,1.8-1.1,3.1-2.2,4.1c-1.1,1-2.6,1.4-4.5,1.4c-1.2,0-2.3-0.2-3.2-0.6c-0.9-0.4-1.6-1-2.2-1.8
			c-0.6-0.8-1-1.6-1.2-2.6c-0.3-1-0.4-2-0.4-3.1c0-1,0.1-2,0.4-3c0.3-1,0.7-1.9,1.2-2.6c0.6-0.8,1.3-1.4,2.2-1.9
			c0.9-0.5,1.9-0.7,3.2-0.7c1.2,0,2.3,0.2,3.2,0.8s1.6,1.2,2.1,2c0.6,0.8,0.9,1.7,1.2,2.8s0.3,2.1,0.3,3.2h-11.9
			C934.3,257.5,934.4,258.2,934.6,258.9z M944,253.1c-0.2-0.7-0.6-1.2-1-1.8c-0.4-0.5-0.9-0.9-1.5-1.2c-0.6-0.3-1.3-0.5-2-0.5
			c-0.8,0-1.5,0.2-2.1,0.5c-0.6,0.3-1.1,0.7-1.5,1.2c-0.4,0.5-0.8,1.1-1,1.8s-0.4,1.4-0.5,2.1h10C944.3,254.5,944.2,253.8,944,253.1
			z"/>
		<path fill="#231F20" d="M954.7,250.1V264h-1.9v-13.9h-2.6v-1.6h2.6v-1.4c0-0.7,0-1.3,0.1-1.8c0.1-0.6,0.3-1,0.6-1.4
			c0.3-0.4,0.7-0.7,1.2-0.9c0.5-0.2,1.1-0.3,1.9-0.3c0.3,0,0.5,0,0.8,0c0.2,0,0.5,0,0.8,0.1v1.6c-0.3,0-0.5-0.1-0.7-0.1
			s-0.4,0-0.7,0c-0.5,0-0.9,0.1-1.2,0.2c-0.3,0.2-0.5,0.4-0.6,0.6c-0.1,0.3-0.2,0.6-0.2,0.9c0,0.4,0,0.8,0,1.2v1.3h3.1v1.6H954.7z"
			/>
		<path fill="#231F20" d="M964.9,250.1V264h-1.9v-13.9h-2.6v-1.6h2.6v-1.4c0-0.7,0.1-1.3,0.2-1.8s0.3-1,0.6-1.4
			c0.3-0.4,0.7-0.7,1.2-0.9s1.1-0.3,1.9-0.3c0.3,0,0.5,0,0.8,0c0.2,0,0.5,0,0.8,0.1v1.6c-0.3,0-0.5-0.1-0.7-0.1c-0.2,0-0.4,0-0.7,0
			c-0.5,0-0.9,0.1-1.2,0.2s-0.5,0.4-0.6,0.6c-0.1,0.3-0.2,0.6-0.2,0.9s0,0.8,0,1.2v1.3h3.1v1.6H964.9z"/>
		<path fill="#231F20" d="M974.7,242.6v3h-1.9v-3H974.7z M974.7,248.5V264h-1.9v-15.5H974.7z"/>
		<path fill="#231F20" d="M990.8,250.7c-0.7-0.7-1.7-1-2.9-1c-0.9,0-1.7,0.2-2.4,0.6s-1.2,0.9-1.7,1.5c-0.5,0.6-0.8,1.3-1,2.1
			c-0.2,0.8-0.3,1.6-0.3,2.4c0,0.8,0.1,1.6,0.3,2.4s0.6,1.5,1,2.1c0.4,0.6,1,1.1,1.7,1.5s1.5,0.6,2.4,0.6c0.6,0,1.1-0.1,1.7-0.3
			c0.5-0.2,1-0.5,1.4-0.9c0.4-0.4,0.7-0.9,1-1.4s0.4-1.1,0.5-1.8h1.9c-0.3,1.9-1,3.3-2.1,4.4c-1.1,1-2.6,1.6-4.3,1.6
			c-1.2,0-2.2-0.2-3.1-0.6c-0.9-0.4-1.7-1-2.3-1.8c-0.6-0.7-1.1-1.6-1.4-2.6c-0.3-1-0.5-2-0.5-3.2c0-1.1,0.2-2.2,0.5-3.2
			c0.3-1,0.8-1.9,1.4-2.6c0.6-0.7,1.4-1.3,2.3-1.8c0.9-0.4,2-0.7,3.1-0.7c1.7,0,3.1,0.4,4.2,1.3c1.2,0.9,1.8,2.2,2.1,4h-1.9
			C992,252.2,991.5,251.3,990.8,250.7z"/>
		<path fill="#231F20" d="M1001.8,242.6v3h-1.9v-3H1001.8z M1001.8,248.5V264h-1.9v-15.5H1001.8z"/>
		<path fill="#231F20" d="M1009.9,258.9c0.2,0.7,0.5,1.4,0.9,2c0.4,0.6,0.9,1.1,1.6,1.4c0.6,0.4,1.4,0.6,2.3,0.6
			c1.4,0,2.5-0.4,3.2-1.1c0.8-0.7,1.3-1.7,1.6-2.9h1.9c-0.4,1.8-1.1,3.1-2.2,4.1c-1.1,1-2.6,1.4-4.5,1.4c-1.2,0-2.3-0.2-3.2-0.6
			c-0.9-0.4-1.6-1-2.2-1.8s-1-1.6-1.2-2.6c-0.3-1-0.4-2-0.4-3.1c0-1,0.1-2,0.4-3c0.3-1,0.7-1.9,1.2-2.6c0.6-0.8,1.3-1.4,2.2-1.9
			c0.9-0.5,1.9-0.7,3.2-0.7c1.2,0,2.3,0.2,3.2,0.8c0.9,0.5,1.6,1.2,2.1,2c0.5,0.8,0.9,1.7,1.2,2.8c0.2,1,0.3,2.1,0.3,3.2h-11.9
			C1009.6,257.5,1009.7,258.2,1009.9,258.9z M1019.2,253.1c-0.2-0.7-0.6-1.2-1-1.8c-0.4-0.5-0.9-0.9-1.5-1.2c-0.6-0.3-1.3-0.5-2-0.5
			c-0.8,0-1.5,0.2-2.1,0.5c-0.6,0.3-1.1,0.7-1.5,1.2c-0.4,0.5-0.8,1.1-1,1.8c-0.3,0.7-0.4,1.4-0.5,2.1h10
			C1019.6,254.5,1019.5,253.8,1019.2,253.1z"/>
		<path fill="#231F20" d="M1028.9,248.5v2.7h0.1c0.4-0.9,1-1.7,1.9-2.3c0.9-0.6,1.9-0.9,3-0.9c1.1,0,2,0.1,2.7,0.4s1.3,0.7,1.8,1.2
			s0.8,1.1,0.9,1.9c0.2,0.7,0.3,1.6,0.3,2.5v10h-1.9v-9.7c0-0.7-0.1-1.3-0.2-1.8c-0.1-0.6-0.3-1.1-0.6-1.5s-0.7-0.8-1.2-1
			c-0.5-0.2-1.1-0.4-1.9-0.4c-0.8,0-1.4,0.1-2,0.4c-0.6,0.3-1.1,0.6-1.5,1.1c-0.4,0.5-0.7,1-1,1.7c-0.2,0.6-0.4,1.4-0.4,2.1v9h-1.9
			v-15.5H1028.9z"/>
		<path fill="#231F20" d="M1052.3,248.5v1.6h-3.2v10.4c0,0.6,0.1,1.1,0.3,1.5c0.2,0.4,0.6,0.5,1.3,0.6c0.5,0,1.1,0,1.6-0.1v1.6
			c-0.3,0-0.6,0-0.8,0c-0.3,0-0.6,0-0.8,0c-1.3,0-2.1-0.2-2.6-0.7s-0.7-1.4-0.7-2.7v-10.6h-2.7v-1.6h2.7v-4.6h1.9v4.6H1052.3z"/>
	</g>
</g>
<line fill="none" stroke="#D2D7D8" stroke-width="2" stroke-miterlimit="10" x1="1708.6" y1="151.6" x2="2.6" y2="151.6"/>
<line fill="none" stroke="#D2D7D8" stroke-width="2" stroke-miterlimit="10" x1="1708.6" y1="584.9" x2="2.5" y2="584.9"/>
<g>
	<path fill="#959595" d="M62.3,328.6H36c0-3.2,0.8-6,2.3-8.4c1.5-2.4,3.6-4.5,6.2-6.2c1.2-0.9,2.5-1.8,3.9-2.7
		c1.4-0.9,2.6-1.8,3.7-2.8c1.1-1,2.1-2.1,2.8-3.2c0.7-1.2,1.1-2.5,1.2-4c0-0.7-0.1-1.4-0.2-2.2c-0.2-0.8-0.5-1.5-1-2.2
		c-0.5-0.7-1.1-1.2-2-1.7c-0.8-0.5-1.9-0.7-3.3-0.7c-1.2,0-2.3,0.2-3.1,0.7c-0.8,0.5-1.5,1.2-2,2c-0.5,0.9-0.9,1.9-1.1,3
		c-0.2,1.2-0.4,2.4-0.4,3.8h-6.3c0-2.1,0.3-4.1,0.9-5.9c0.6-1.8,1.4-3.4,2.6-4.7s2.5-2.4,4.1-3.1c1.6-0.8,3.5-1.1,5.7-1.1
		c2.3,0,4.3,0.4,5.9,1.2c1.6,0.8,2.8,1.7,3.8,2.9c1,1.2,1.7,2.4,2.1,3.8c0.4,1.4,0.6,2.7,0.6,3.9c0,1.5-0.2,2.9-0.7,4.2
		c-0.5,1.2-1.1,2.4-1.9,3.4s-1.7,2-2.7,2.9c-1,0.9-2.1,1.7-3.2,2.5c-1.1,0.8-2.2,1.5-3.3,2.2c-1.1,0.7-2.1,1.4-3,2.1
		c-0.9,0.7-1.8,1.4-2.4,2.2c-0.7,0.8-1.2,1.5-1.4,2.4h18.7V328.6z"/>
	<path fill="#959595" d="M68.2,321.2h7.6v7.4h-7.6V321.2z"/>
	<path fill="#959595" d="M108.4,319.5h-4.9v9.1h-5.9v-9.1H81.1v-6.2l16.5-23.1h5.9v24.4h4.9V319.5z M85.9,314.5h11.6v-16.9h-0.1
		L85.9,314.5z"/>
	<path fill="#959595" d="M139,319.5H134v9.1h-5.9v-9.1h-16.5v-6.2l16.5-23.1h5.9v24.4h4.9V319.5z M116.4,314.5h11.6v-16.9H128
		L116.4,314.5z"/>
</g>
<g>
	<g>
		<path fill="#677372" d="M263.3,314.6h12.8v-12.8h2.1v12.8H291v2.1h-12.8v12.8h-2.1v-12.8h-12.8V314.6z"/>
		<path fill="#677372" d="M295.2,317.7l18.5-26.2h2.1V318h6.4v1.8h-6.4v9.7h-2.1v-9.7h-18.5V317.7z M313.7,318v-23.6h-0.1L297.3,318
			H313.7z"/>
		<path fill="#677372" d="M330.4,323.8h2.8v5.7h-2.8V323.8z"/>
		<path fill="#677372" d="M343.5,317c-0.1,1.8,0.1,3.3,0.6,4.8c0.5,1.4,1.2,2.6,2.2,3.6c1,1,2.1,1.7,3.5,2.3s3,0.8,4.7,0.8
			c1.4,0,2.7-0.2,4.1-0.6c1.3-0.4,2.5-1,3.5-1.8c1-0.8,1.8-1.8,2.4-2.9c0.6-1.2,0.9-2.5,0.9-4c0-1.8-0.4-3.3-1.1-4.5
			c-0.7-1.2-1.7-2.1-2.9-2.8s-2.6-1.1-4.1-1.3c-1.5-0.2-3.1-0.3-4.6-0.2v-1.8c1.4,0.1,2.8,0,4.2-0.2c1.4-0.2,2.7-0.6,3.8-1.2
			s2.1-1.4,2.8-2.5c0.7-1.1,1.1-2.4,1.1-4.1c0-1.3-0.3-2.5-0.9-3.5s-1.4-1.8-2.4-2.4c-1-0.6-2.1-1.1-3.2-1.4s-2.4-0.5-3.5-0.5
			c-1.6,0-3.1,0.3-4.3,0.8c-1.2,0.5-2.3,1.3-3.1,2.3c-0.8,1-1.5,2.1-1.9,3.4c-0.4,1.3-0.7,2.8-0.8,4.3h-2.1c0-1.9,0.3-3.6,0.9-5.1
			c0.6-1.6,1.4-2.9,2.4-4c1.1-1.1,2.3-2,3.8-2.6c1.5-0.6,3.2-0.9,5.1-0.9c1.5,0,3,0.2,4.5,0.5c1.4,0.4,2.7,0.9,3.8,1.7
			c1.1,0.8,2,1.8,2.7,3c0.7,1.2,1,2.7,1,4.3c0,1.1-0.2,2.2-0.5,3.2c-0.3,1-0.9,1.9-1.5,2.6c-0.7,0.8-1.4,1.4-2.4,1.9
			c-0.9,0.5-1.9,0.8-3,1v0.1c1.3,0.1,2.4,0.5,3.5,1c1,0.5,1.9,1.3,2.6,2.1c0.7,0.9,1.3,1.9,1.6,3s0.6,2.3,0.6,3.6
			c0,1.9-0.3,3.5-1,4.9c-0.7,1.4-1.6,2.6-2.8,3.5c-1.2,0.9-2.5,1.6-4.1,2.1c-1.6,0.5-3.2,0.7-5,0.7c-2.1,0-4-0.3-5.6-0.9
			s-3.1-1.4-4.2-2.6c-1.2-1.1-2-2.5-2.6-4.1c-0.6-1.6-0.8-3.5-0.7-5.6H343.5z"/>
		<path fill="#677372" d="M396.6,310.5c-1.4,0-2.6-0.3-3.8-0.8c-1.1-0.5-2.1-1.2-2.9-2.1c-0.8-0.9-1.4-1.9-1.8-3.1
			c-0.4-1.2-0.6-2.4-0.6-3.8c0-1.4,0.2-2.6,0.6-3.8c0.4-1.2,1-2.2,1.8-3.1c0.8-0.9,1.7-1.6,2.9-2.1c1.1-0.5,2.4-0.8,3.8-0.8
			s2.7,0.2,3.8,0.7c1.1,0.5,2.1,1.2,2.9,2.1s1.4,1.9,1.8,3.1c0.4,1.2,0.6,2.5,0.6,3.9c0,1.3-0.2,2.6-0.6,3.7c-0.4,1.2-1,2.2-1.8,3.1
			c-0.8,0.9-1.8,1.6-2.9,2.1S398,310.5,396.6,310.5z M396.6,308.7c1.1,0,2.1-0.2,3-0.7c0.9-0.4,1.6-1,2.2-1.8
			c0.6-0.8,1.1-1.6,1.4-2.6c0.3-1,0.5-1.9,0.5-2.9c0-1.1-0.1-2.1-0.4-3c-0.3-1-0.7-1.8-1.3-2.6c-0.6-0.7-1.3-1.3-2.2-1.8
			c-0.9-0.4-1.9-0.7-3-0.7c-1.1,0-2.1,0.2-3,0.7c-0.9,0.4-1.6,1-2.2,1.8c-0.6,0.7-1,1.6-1.3,2.6c-0.3,1-0.5,2-0.5,3
			c0,1,0.2,2,0.5,2.9c0.3,1,0.8,1.8,1.4,2.6c0.6,0.8,1.3,1.3,2.2,1.8C394.5,308.4,395.5,308.7,396.6,308.7z M418.4,290.3h2.2
			l-25.6,40.6h-2.2L418.4,290.3z M407.6,320.4c0-1.4,0.2-2.6,0.6-3.8c0.4-1.2,1-2.2,1.8-3.1c0.8-0.9,1.7-1.6,2.9-2.1
			c1.1-0.5,2.4-0.8,3.8-0.8s2.7,0.2,3.8,0.7c1.1,0.5,2.1,1.2,2.9,2.1c0.8,0.9,1.4,1.9,1.8,3.1c0.4,1.2,0.6,2.5,0.6,3.9
			c0,1.3-0.2,2.6-0.6,3.7c-0.4,1.2-1,2.2-1.8,3.1c-0.8,0.9-1.8,1.6-2.9,2.1c-1.1,0.5-2.4,0.8-3.8,0.8c-1.4,0-2.6-0.3-3.8-0.8
			c-1.1-0.5-2.1-1.2-2.9-2.1c-0.8-0.9-1.4-1.9-1.8-3.1C407.8,323,407.6,321.7,407.6,320.4z M409.7,320.4c0,1,0.2,2,0.5,2.9
			c0.3,1,0.8,1.8,1.4,2.6s1.3,1.3,2.2,1.8s1.8,0.7,2.9,0.7c1.1,0,2.1-0.2,3-0.7s1.6-1,2.2-1.8s1.1-1.6,1.4-2.6
			c0.3-1,0.5-1.9,0.5-2.9c0-1.1-0.1-2.1-0.4-3c-0.3-1-0.7-1.8-1.3-2.6c-0.6-0.7-1.3-1.3-2.2-1.8c-0.9-0.4-1.9-0.7-3-0.7
			c-1.1,0-2.1,0.2-3,0.7s-1.6,1-2.2,1.8c-0.6,0.7-1,1.6-1.3,2.6C409.8,318.3,409.7,319.4,409.7,320.4z"/>
	</g>
</g>
<g>
	<g>
		<path fill="#231F20" d="M479.6,210.9c-0.4-0.7-0.9-1.2-1.5-1.6c-0.6-0.4-1.2-0.8-1.9-1c-0.7-0.2-1.5-0.3-2.2-0.3
			c-1.4,0-2.6,0.3-3.7,0.8c-1,0.5-1.9,1.3-2.5,2.1c-0.7,0.9-1.1,1.9-1.4,3c-0.3,1.1-0.5,2.3-0.5,3.5c0,1.2,0.2,2.3,0.5,3.4
			c0.3,1.1,0.8,2.1,1.4,3c0.6,0.9,1.5,1.6,2.5,2.1c1,0.5,2.2,0.8,3.7,0.8c1,0,1.9-0.2,2.7-0.5c0.8-0.4,1.5-0.8,2.1-1.5
			s1.1-1.3,1.4-2.2c0.4-0.8,0.6-1.7,0.7-2.7h2c-0.1,1.3-0.5,2.5-0.9,3.6c-0.5,1.1-1.1,2-1.9,2.7c-0.8,0.7-1.7,1.3-2.7,1.7
			c-1,0.4-2.2,0.6-3.4,0.6c-1.7,0-3.2-0.3-4.4-0.9c-1.3-0.6-2.3-1.4-3.2-2.4c-0.8-1-1.5-2.2-1.9-3.5c-0.4-1.3-0.6-2.7-0.6-4.2
			c0-1.5,0.2-2.9,0.6-4.2c0.4-1.3,1.1-2.5,1.9-3.6c0.8-1,1.9-1.8,3.2-2.5c1.3-0.6,2.7-0.9,4.4-0.9c1,0,2,0.2,3,0.5
			c1,0.3,1.8,0.7,2.6,1.3s1.5,1.3,2,2.2c0.5,0.9,0.9,1.9,1,3h-2C480.3,212.3,480,211.5,479.6,210.9z"/>
		<path fill="#231F20" d="M490,222.9c0.2,0.7,0.5,1.4,0.9,2c0.4,0.6,0.9,1.1,1.6,1.4c0.6,0.4,1.4,0.6,2.3,0.6c1.4,0,2.5-0.4,3.2-1.1
			c0.8-0.7,1.3-1.7,1.6-2.9h1.9c-0.4,1.8-1.1,3.1-2.2,4.1c-1.1,1-2.6,1.4-4.5,1.4c-1.2,0-2.3-0.2-3.2-0.6c-0.9-0.4-1.6-1-2.2-1.8
			c-0.6-0.8-1-1.6-1.2-2.6c-0.3-1-0.4-2-0.4-3.1c0-1,0.1-2,0.4-3c0.3-1,0.7-1.9,1.2-2.6c0.6-0.8,1.3-1.4,2.2-1.9s1.9-0.7,3.2-0.7
			c1.2,0,2.3,0.2,3.2,0.8c0.9,0.5,1.6,1.2,2.1,2c0.5,0.8,0.9,1.7,1.2,2.8c0.2,1,0.3,2.1,0.3,3.2h-11.9
			C489.7,221.5,489.8,222.2,490,222.9z M499.3,217.1c-0.2-0.7-0.6-1.2-1-1.8c-0.4-0.5-0.9-0.9-1.5-1.2c-0.6-0.3-1.3-0.5-2-0.5
			c-0.8,0-1.5,0.2-2.1,0.5c-0.6,0.3-1.1,0.7-1.5,1.2c-0.4,0.5-0.8,1.1-1,1.8c-0.3,0.7-0.4,1.4-0.5,2.1h10
			C499.7,218.5,499.5,217.8,499.3,217.1z"/>
		<path fill="#231F20" d="M509,212.5v2.7h0.1c0.4-0.9,1-1.7,1.9-2.3c0.9-0.6,1.9-0.9,3-0.9c1.1,0,2,0.1,2.7,0.4s1.3,0.7,1.8,1.2
			c0.4,0.5,0.8,1.1,0.9,1.9c0.2,0.7,0.3,1.6,0.3,2.5v10h-1.9v-9.7c0-0.7-0.1-1.3-0.2-1.8c-0.1-0.6-0.3-1.1-0.6-1.5
			c-0.3-0.4-0.7-0.8-1.2-1c-0.5-0.2-1.1-0.4-1.9-0.4c-0.8,0-1.4,0.1-2,0.4c-0.6,0.3-1.1,0.6-1.5,1.1c-0.4,0.5-0.7,1-1,1.7
			c-0.2,0.6-0.4,1.4-0.4,2.1v9h-1.9v-15.5H509z"/>
		<path fill="#231F20" d="M532.4,212.5v1.6h-3.2v10.4c0,0.6,0.1,1.1,0.3,1.5c0.2,0.4,0.6,0.5,1.3,0.6c0.5,0,1.1,0,1.6-0.1v1.6
			c-0.3,0-0.6,0-0.8,0c-0.3,0-0.6,0-0.8,0c-1.3,0-2.1-0.2-2.6-0.7s-0.7-1.4-0.7-2.7v-10.6h-2.7v-1.6h2.7v-4.6h1.9v4.6H532.4z"/>
		<path fill="#231F20" d="M539.9,212.5v3.6h0.1c0.5-1.3,1.2-2.2,2.2-2.9s2.2-1,3.6-0.9v1.9c-0.9,0-1.6,0.1-2.3,0.3
			c-0.7,0.3-1.3,0.7-1.8,1.2s-0.9,1.1-1.2,1.8c-0.3,0.7-0.4,1.4-0.4,2.3v8.2h-1.9v-15.5H539.9z"/>
		<path fill="#231F20" d="M551,214.9c0.3-0.7,0.8-1.2,1.3-1.6c0.5-0.4,1.2-0.7,1.9-0.9s1.6-0.3,2.5-0.3c0.7,0,1.4,0.1,2,0.2
			c0.7,0.1,1.3,0.4,1.8,0.7s1,0.9,1.3,1.5c0.3,0.7,0.5,1.5,0.5,2.5v8.2c0,0.8,0.4,1.1,1.1,1.1c0.2,0,0.4,0,0.6-0.1v1.6
			c-0.2,0-0.4,0.1-0.6,0.1c-0.2,0-0.4,0-0.6,0c-0.5,0-0.9-0.1-1.2-0.2c-0.3-0.1-0.5-0.3-0.7-0.6c-0.2-0.2-0.3-0.5-0.3-0.9
			c0-0.3-0.1-0.7-0.1-1.1h-0.1c-0.3,0.5-0.7,0.9-1,1.3c-0.3,0.4-0.7,0.7-1.2,1c-0.4,0.3-0.9,0.5-1.5,0.6c-0.6,0.1-1.2,0.2-2,0.2
			c-0.7,0-1.4-0.1-2-0.3s-1.2-0.4-1.7-0.8s-0.8-0.8-1.1-1.4c-0.3-0.6-0.4-1.2-0.4-2c0-1.1,0.2-1.9,0.7-2.5c0.5-0.6,1.1-1.1,1.9-1.4
			s1.7-0.5,2.7-0.7s2-0.3,3-0.4c0.4,0,0.8-0.1,1.1-0.2c0.3-0.1,0.5-0.2,0.8-0.3c0.2-0.1,0.4-0.4,0.5-0.6c0.1-0.3,0.2-0.6,0.2-1
			c0-0.6-0.1-1.2-0.3-1.6c-0.2-0.4-0.5-0.7-0.9-1s-0.8-0.4-1.3-0.5s-1-0.1-1.6-0.1c-1.2,0-2.2,0.3-2.9,0.9c-0.8,0.6-1.2,1.5-1.2,2.7
			h-1.9C550.4,216.4,550.6,215.6,551,214.9z M560.4,219.6c-0.1,0.2-0.3,0.4-0.7,0.5c-0.3,0.1-0.6,0.2-0.9,0.2
			c-0.8,0.1-1.6,0.3-2.5,0.4c-0.9,0.1-1.6,0.3-2.3,0.5c-0.7,0.2-1.3,0.5-1.7,0.9c-0.5,0.4-0.7,1-0.7,1.8c0,0.5,0.1,0.9,0.3,1.3
			s0.4,0.7,0.8,1c0.3,0.3,0.7,0.5,1.1,0.6s0.8,0.2,1.3,0.2c0.7,0,1.4-0.1,2.1-0.3s1.2-0.5,1.7-1s0.9-0.9,1.2-1.5s0.4-1.3,0.4-2
			L560.4,219.6L560.4,219.6z"/>
		<path fill="#231F20" d="M571.1,206.6V228h-1.9v-21.4H571.1z"/>
		<path fill="#231F20" d="M579.6,206.6v3h-1.9v-3H579.6z M579.6,212.5V228h-1.9v-15.5H579.6z"/>
		<path fill="#231F20" d="M595.1,215.6c-0.2-0.4-0.5-0.8-0.9-1.1c-0.4-0.3-0.8-0.5-1.3-0.6c-0.5-0.1-1-0.2-1.5-0.2
			c-0.4,0-0.8,0-1.3,0.1c-0.4,0.1-0.8,0.2-1.2,0.5c-0.4,0.2-0.6,0.5-0.9,0.8c-0.2,0.3-0.3,0.8-0.3,1.3c0,0.4,0.1,0.8,0.3,1.1
			c0.2,0.3,0.5,0.5,0.8,0.7c0.3,0.2,0.7,0.4,1,0.5s0.7,0.2,1.1,0.3l2.5,0.6c0.5,0.1,1.1,0.2,1.6,0.4c0.5,0.2,1,0.5,1.4,0.8
			c0.4,0.3,0.7,0.8,1,1.3c0.3,0.5,0.4,1.1,0.4,1.8c0,0.8-0.2,1.6-0.6,2.1s-0.9,1.1-1.5,1.4c-0.6,0.4-1.3,0.6-2,0.8
			c-0.7,0.2-1.5,0.2-2.2,0.2c-1.8,0-3.3-0.4-4.4-1.3c-1.1-0.9-1.8-2.2-1.9-4.1h1.9c0.1,1.3,0.5,2.2,1.4,2.9c0.8,0.7,1.9,1,3.2,1
			c0.5,0,0.9,0,1.4-0.2c0.5-0.1,0.9-0.3,1.4-0.5s0.8-0.5,1-0.9c0.3-0.4,0.4-0.8,0.4-1.4c0-0.5-0.1-0.8-0.3-1.2
			c-0.2-0.3-0.4-0.6-0.8-0.8c-0.3-0.2-0.7-0.4-1.1-0.5c-0.4-0.1-0.8-0.3-1.2-0.4l-2.4-0.5c-0.6-0.2-1.2-0.3-1.7-0.6
			c-0.5-0.2-1-0.5-1.4-0.8c-0.4-0.3-0.7-0.7-0.9-1.1s-0.3-1-0.3-1.7c0-0.8,0.2-1.5,0.5-2c0.3-0.6,0.8-1,1.4-1.4
			c0.6-0.3,1.2-0.6,1.9-0.8c0.7-0.2,1.4-0.2,2.1-0.2c0.8,0,1.5,0.1,2.2,0.3s1.3,0.5,1.8,0.9c0.5,0.4,0.9,0.9,1.2,1.6
			s0.5,1.3,0.5,2.2h-1.9C595.5,216.5,595.4,216,595.1,215.6z"/>
		<path fill="#231F20" d="M604.1,214.9c0.3-0.7,0.8-1.2,1.3-1.6c0.5-0.4,1.2-0.7,1.9-0.9s1.6-0.3,2.5-0.3c0.7,0,1.4,0.1,2,0.2
			c0.7,0.1,1.3,0.4,1.8,0.7s1,0.9,1.3,1.5c0.3,0.7,0.5,1.5,0.5,2.5v8.2c0,0.8,0.4,1.1,1.1,1.1c0.2,0,0.4,0,0.6-0.1v1.6
			c-0.2,0-0.4,0.1-0.6,0.1c-0.2,0-0.4,0-0.6,0c-0.5,0-0.9-0.1-1.2-0.2c-0.3-0.1-0.5-0.3-0.7-0.6c-0.2-0.2-0.3-0.5-0.3-0.9
			c0-0.3-0.1-0.7-0.1-1.1h-0.1c-0.3,0.5-0.7,0.9-1,1.3c-0.3,0.4-0.7,0.7-1.2,1c-0.4,0.3-0.9,0.5-1.5,0.6c-0.6,0.1-1.2,0.2-2,0.2
			c-0.7,0-1.4-0.1-2-0.3s-1.2-0.4-1.7-0.8s-0.8-0.8-1.1-1.4c-0.3-0.6-0.4-1.2-0.4-2c0-1.1,0.2-1.9,0.7-2.5c0.5-0.6,1.1-1.1,1.9-1.4
			s1.7-0.5,2.7-0.7s2-0.3,3-0.4c0.4,0,0.8-0.1,1.1-0.2c0.3-0.1,0.5-0.2,0.8-0.3c0.2-0.1,0.4-0.4,0.5-0.6c0.1-0.3,0.2-0.6,0.2-1
			c0-0.6-0.1-1.2-0.3-1.6c-0.2-0.4-0.5-0.7-0.9-1s-0.8-0.4-1.3-0.5s-1-0.1-1.6-0.1c-1.2,0-2.2,0.3-2.9,0.9c-0.8,0.6-1.2,1.5-1.2,2.7
			h-1.9C603.5,216.4,603.7,215.6,604.1,214.9z M613.5,219.6c-0.1,0.2-0.3,0.4-0.7,0.5c-0.3,0.1-0.6,0.2-0.9,0.2
			c-0.8,0.1-1.6,0.3-2.5,0.4c-0.9,0.1-1.6,0.3-2.3,0.5c-0.7,0.2-1.3,0.5-1.7,0.9c-0.5,0.4-0.7,1-0.7,1.8c0,0.5,0.1,0.9,0.3,1.3
			s0.4,0.7,0.8,1c0.3,0.3,0.7,0.5,1.1,0.6s0.8,0.2,1.3,0.2c0.7,0,1.4-0.1,2.1-0.3s1.2-0.5,1.7-1s0.9-0.9,1.2-1.5s0.4-1.3,0.4-2
			L613.5,219.6L613.5,219.6z"/>
		<path fill="#231F20" d="M628.4,212.5v1.6h-3.2v10.4c0,0.6,0.1,1.1,0.3,1.5c0.2,0.4,0.6,0.5,1.3,0.6c0.5,0,1.1,0,1.6-0.1v1.6
			c-0.3,0-0.6,0-0.8,0c-0.3,0-0.6,0-0.8,0c-1.3,0-2.1-0.2-2.6-0.7s-0.7-1.4-0.7-2.7v-10.6h-2.7v-1.6h2.7v-4.6h1.9v4.6H628.4z"/>
		<path fill="#231F20" d="M636,206.6v3h-1.9v-3H636z M636,212.5V228h-1.9v-15.5H636z"/>
		<path fill="#231F20" d="M652.3,212.8c0.9,0.4,1.7,1,2.3,1.8c0.6,0.7,1.1,1.6,1.4,2.6c0.3,1,0.5,2,0.5,3.2c0,1.1-0.2,2.2-0.5,3.2
			s-0.8,1.9-1.4,2.6c-0.6,0.7-1.4,1.3-2.3,1.8c-0.9,0.4-2,0.6-3.1,0.6s-2.2-0.2-3.1-0.6c-0.9-0.4-1.7-1-2.3-1.8
			c-0.6-0.7-1.1-1.6-1.4-2.6c-0.3-1-0.5-2-0.5-3.2c0-1.1,0.2-2.2,0.5-3.2c0.3-1,0.8-1.9,1.4-2.6c0.6-0.7,1.4-1.3,2.3-1.8
			c0.9-0.4,2-0.7,3.1-0.7S651.4,212.3,652.3,212.8z M646.8,214.2c-0.7,0.4-1.2,0.9-1.7,1.5c-0.5,0.6-0.8,1.3-1,2.1
			c-0.2,0.8-0.3,1.6-0.3,2.4c0,0.8,0.1,1.6,0.3,2.4c0.2,0.8,0.6,1.5,1,2.1c0.4,0.6,1,1.1,1.7,1.5s1.5,0.6,2.4,0.6
			c0.9,0,1.7-0.2,2.4-0.6s1.2-0.9,1.7-1.5s0.8-1.3,1-2.1s0.3-1.6,0.3-2.4c0-0.8-0.1-1.6-0.3-2.4c-0.2-0.8-0.6-1.5-1-2.1
			s-1-1.1-1.7-1.5s-1.5-0.6-2.4-0.6C648.3,213.7,647.5,213.9,646.8,214.2z"/>
		<path fill="#231F20" d="M664.2,212.5v2.7h0.1c0.4-0.9,1-1.7,1.9-2.3c0.9-0.6,1.9-0.9,3-0.9c1.1,0,2,0.1,2.7,0.4s1.3,0.7,1.8,1.2
			c0.4,0.5,0.8,1.1,0.9,1.9c0.2,0.7,0.3,1.6,0.3,2.5v10H673v-9.7c0-0.7-0.1-1.3-0.2-1.8c-0.1-0.6-0.3-1.1-0.6-1.5
			c-0.3-0.4-0.7-0.8-1.2-1c-0.5-0.2-1.1-0.4-1.9-0.4c-0.8,0-1.4,0.1-2,0.4c-0.6,0.3-1.1,0.6-1.5,1.1c-0.4,0.5-0.7,1-1,1.7
			c-0.2,0.6-0.4,1.4-0.4,2.1v9h-1.9v-15.5H664.2z"/>
		<path fill="#231F20" d="M479.3,262.9c-1.5,1-3.3,1.6-5.5,1.6c-1.7,0-3.2-0.3-4.4-0.9c-1.3-0.6-2.3-1.4-3.2-2.4
			c-0.8-1-1.5-2.2-1.9-3.5c-0.4-1.3-0.6-2.7-0.6-4.2c0-1.5,0.2-2.9,0.6-4.2c0.4-1.3,1-2.5,1.9-3.6c0.8-1,1.9-1.8,3.2-2.5
			c1.3-0.6,2.7-0.9,4.4-0.9s3.2,0.3,4.4,0.9c1.3,0.6,2.3,1.4,3.2,2.5c0.8,1,1.5,2.2,1.9,3.6c0.4,1.3,0.6,2.8,0.6,4.2
			c0,1.7-0.3,3.3-0.8,4.7c-0.5,1.5-1.4,2.7-2.4,3.8l3.1,2.3l-1,1.3L479.3,262.9z M481.2,257.3c0.4-1.3,0.6-2.6,0.6-4
			c0-1.2-0.2-2.3-0.5-3.5c-0.3-1.1-0.8-2.1-1.4-3c-0.6-0.9-1.5-1.6-2.5-2.1c-1-0.5-2.2-0.8-3.6-0.8s-2.6,0.3-3.7,0.8
			c-1,0.5-1.9,1.3-2.5,2.1c-0.7,0.9-1.1,1.9-1.4,3c-0.3,1.1-0.5,2.3-0.5,3.5c0,1.2,0.2,2.3,0.5,3.4c0.3,1.1,0.8,2.1,1.4,3
			c0.6,0.9,1.5,1.6,2.5,2.1c1,0.5,2.2,0.8,3.7,0.8c1.5,0,2.8-0.3,4-1l-2.8-2.1l1.1-1.3l3.1,2.4C480,259.7,480.7,258.6,481.2,257.3z"
			/>
		<path fill="#231F20" d="M500.5,264v-2.8h-0.1c-0.5,1-1.2,1.8-2.2,2.4c-1,0.5-2,0.8-3.2,0.8c-1,0-1.8-0.1-2.5-0.4
			c-0.7-0.3-1.2-0.7-1.7-1.2c-0.4-0.5-0.7-1.1-0.9-1.8c-0.2-0.7-0.3-1.5-0.3-2.5v-10.1h1.9v10.1c0,1.4,0.4,2.5,1,3.2
			c0.6,0.7,1.7,1.1,3.2,1.1c0.8,0,1.5-0.2,2.1-0.5c0.6-0.3,1.1-0.8,1.4-1.4s0.7-1.2,0.8-2c0.2-0.8,0.3-1.5,0.3-2.3v-8.1h1.9V264
			H500.5z"/>
		<path fill="#231F20" d="M518.5,248.8c0.9,0.4,1.7,1,2.3,1.8c0.6,0.7,1.1,1.6,1.4,2.6c0.3,1,0.5,2,0.5,3.2c0,1.1-0.2,2.2-0.5,3.2
			s-0.8,1.9-1.4,2.6c-0.6,0.7-1.4,1.3-2.3,1.8c-0.9,0.4-2,0.6-3.1,0.6s-2.2-0.2-3.1-0.6c-0.9-0.4-1.7-1-2.3-1.8
			c-0.6-0.7-1.1-1.6-1.4-2.6c-0.3-1-0.5-2-0.5-3.2c0-1.1,0.2-2.2,0.5-3.2c0.3-1,0.8-1.9,1.4-2.6c0.6-0.7,1.4-1.3,2.3-1.8
			c0.9-0.4,2-0.7,3.1-0.7S517.5,248.3,518.5,248.8z M512.9,250.2c-0.7,0.4-1.2,0.9-1.7,1.5c-0.5,0.6-0.8,1.3-1,2.1
			c-0.2,0.8-0.3,1.6-0.3,2.4c0,0.8,0.1,1.6,0.3,2.4c0.2,0.8,0.6,1.5,1,2.1c0.4,0.6,1,1.1,1.7,1.5s1.5,0.6,2.4,0.6
			c0.9,0,1.7-0.2,2.4-0.6s1.2-0.9,1.7-1.5s0.8-1.3,1-2.1s0.3-1.6,0.3-2.4c0-0.8-0.1-1.6-0.3-2.4c-0.2-0.8-0.6-1.5-1-2.1
			s-1-1.1-1.7-1.5s-1.5-0.6-2.4-0.6C514.4,249.7,513.6,249.9,512.9,250.2z"/>
		<path fill="#231F20" d="M534.6,248.5v1.6h-3.2v10.4c0,0.6,0.1,1.1,0.3,1.5c0.2,0.4,0.6,0.5,1.3,0.6c0.5,0,1.1,0,1.6-0.1v1.6
			c-0.3,0-0.6,0-0.8,0c-0.3,0-0.6,0-0.8,0c-1.3,0-2.1-0.2-2.6-0.7s-0.7-1.4-0.7-2.7v-10.6h-2.7v-1.6h2.7v-4.6h1.9v4.6H534.6z"/>
		<path fill="#231F20" d="M542.3,242.6v3h-1.9v-3H542.3z M542.3,248.5V264h-1.9v-15.5H542.3z"/>
		<path fill="#231F20" d="M550.3,258.9c0.2,0.7,0.5,1.4,0.9,2c0.4,0.6,0.9,1.1,1.6,1.4c0.6,0.4,1.4,0.6,2.3,0.6
			c1.4,0,2.5-0.4,3.2-1.1c0.8-0.7,1.3-1.7,1.6-2.9h1.9c-0.4,1.8-1.1,3.1-2.2,4.1c-1.1,1-2.6,1.4-4.5,1.4c-1.2,0-2.3-0.2-3.2-0.6
			c-0.9-0.4-1.6-1-2.2-1.8c-0.6-0.8-1-1.6-1.2-2.6c-0.3-1-0.4-2-0.4-3.1c0-1,0.1-2,0.4-3c0.3-1,0.7-1.9,1.2-2.6
			c0.6-0.8,1.3-1.4,2.2-1.9s1.9-0.7,3.2-0.7c1.2,0,2.3,0.2,3.2,0.8c0.9,0.5,1.6,1.2,2.1,2c0.5,0.8,0.9,1.7,1.2,2.8
			c0.2,1,0.3,2.1,0.3,3.2H550C550,257.5,550.1,258.2,550.3,258.9z M559.6,253.1c-0.2-0.7-0.6-1.2-1-1.8c-0.4-0.5-0.9-0.9-1.5-1.2
			c-0.6-0.3-1.3-0.5-2-0.5c-0.8,0-1.5,0.2-2.1,0.5c-0.6,0.3-1.1,0.7-1.5,1.2c-0.4,0.5-0.8,1.1-1,1.8c-0.3,0.7-0.4,1.4-0.5,2.1h10
			C560,254.5,559.9,253.8,559.6,253.1z"/>
		<path fill="#231F20" d="M569.3,248.5v2.7h0.1c0.4-0.9,1-1.7,1.9-2.3c0.9-0.6,1.9-0.9,3-0.9c1.1,0,2,0.1,2.7,0.4s1.3,0.7,1.8,1.2
			c0.4,0.5,0.8,1.1,0.9,1.9c0.2,0.7,0.3,1.6,0.3,2.5v10h-1.9v-9.7c0-0.7-0.1-1.3-0.2-1.8c-0.1-0.6-0.3-1.1-0.6-1.5
			c-0.3-0.4-0.7-0.8-1.2-1c-0.5-0.2-1.1-0.4-1.9-0.4c-0.8,0-1.4,0.1-2,0.4c-0.6,0.3-1.1,0.6-1.5,1.1c-0.4,0.5-0.7,1-1,1.7
			c-0.2,0.6-0.4,1.4-0.4,2.1v9h-1.9v-15.5H569.3z"/>
		<path fill="#231F20" d="M592.7,248.5v1.6h-3.2v10.4c0,0.6,0.1,1.1,0.3,1.5c0.2,0.4,0.6,0.5,1.3,0.6c0.5,0,1.1,0,1.6-0.1v1.6
			c-0.3,0-0.6,0-0.8,0c-0.3,0-0.6,0-0.8,0c-1.3,0-2.1-0.2-2.6-0.7s-0.7-1.4-0.7-2.7v-10.6H585v-1.6h2.7v-4.6h1.9v4.6H592.7z"/>
	</g>
</g>
<g>
	<path fill="#959595" d="M462.6,296.5c1.3,0,2.6-0.1,3.8-0.3c1.2-0.2,2.4-0.6,3.4-1.1c1-0.5,1.9-1.2,2.6-2c0.7-0.8,1.2-1.8,1.4-3
		h5.1v38.5H472v-27.1h-9.5V296.5z"/>
	<path fill="#959595" d="M492.1,290.1h26.3v5.2c-2,2.3-3.8,4.6-5.5,7.1c-1.6,2.4-3.1,5-4.3,7.7c-1.2,2.7-2.2,5.6-3,8.7
		c-0.8,3-1.3,6.3-1.5,9.8h-6.9c0.2-3,0.7-6,1.6-9c0.8-3,1.9-5.8,3.2-8.6c1.3-2.8,2.8-5.5,4.5-8c1.7-2.6,3.6-5,5.5-7.2h-19.9V290.1z"
		/>
	<path fill="#959595" d="M534.4,311.2c-1.6,0-3.1-0.3-4.2-0.9c-1.2-0.6-2.1-1.4-2.9-2.4c-0.7-1-1.3-2.1-1.6-3.5
		c-0.3-1.3-0.5-2.7-0.5-4.2c0-1.5,0.2-2.9,0.5-4.2c0.3-1.3,0.9-2.5,1.6-3.5s1.7-1.8,2.9-2.4c1.2-0.6,2.5-0.9,4.1-0.9s3,0.3,4.1,0.9
		c1.2,0.6,2.1,1.4,2.9,2.4c0.8,1,1.3,2.2,1.6,3.5c0.3,1.3,0.5,2.7,0.5,4.2c0,1.5-0.2,2.9-0.5,4.2c-0.3,1.3-0.9,2.5-1.6,3.5
		c-0.7,1-1.7,1.8-2.9,2.4C537.5,311,536.1,311.2,534.4,311.2z M530.2,300.3c0,1,0.1,2,0.2,2.9c0.1,0.9,0.4,1.7,0.7,2.3
		c0.3,0.7,0.8,1.2,1.3,1.6c0.5,0.4,1.2,0.6,2,0.6s1.4-0.2,2-0.6c0.5-0.4,1-0.9,1.3-1.6c0.3-0.7,0.6-1.4,0.7-2.3s0.2-1.9,0.2-2.9
		c0-0.9-0.1-1.8-0.2-2.7c-0.1-0.9-0.4-1.7-0.7-2.4c-0.3-0.7-0.8-1.3-1.3-1.7c-0.5-0.4-1.2-0.6-2.1-0.6s-1.5,0.2-2.1,0.6
		s-1,1-1.3,1.7c-0.3,0.7-0.5,1.5-0.6,2.4C530.2,298.5,530.2,299.4,530.2,300.3z M556.4,288.8h4.2l-21.3,41.1H535L556.4,288.8z
		 M562,329.4c-1.6,0-3.1-0.3-4.2-0.9c-1.2-0.6-2.1-1.4-2.9-2.4c-0.7-1-1.3-2.1-1.6-3.5c-0.3-1.3-0.5-2.7-0.5-4.2
		c0-1.5,0.2-2.9,0.5-4.2c0.3-1.3,0.9-2.5,1.6-3.5s1.7-1.8,2.9-2.4c1.2-0.6,2.5-0.9,4.1-0.9c1.6,0,3,0.3,4.1,0.9
		c1.2,0.6,2.1,1.4,2.9,2.4c0.8,1,1.3,2.2,1.6,3.5c0.3,1.3,0.5,2.7,0.5,4.2c0,1.5-0.2,2.9-0.5,4.2c-0.3,1.3-0.9,2.5-1.6,3.5
		c-0.7,1-1.7,1.8-2.9,2.4C565.1,329.1,563.7,329.4,562,329.4z M557.8,318.4c0,1,0.1,2,0.2,2.9c0.1,0.9,0.4,1.7,0.7,2.3
		c0.3,0.7,0.8,1.2,1.3,1.6c0.5,0.4,1.2,0.6,2,0.6c0.8,0,1.4-0.2,2-0.6c0.5-0.4,1-0.9,1.3-1.6c0.3-0.7,0.6-1.4,0.7-2.3
		s0.2-1.9,0.2-2.9c0-0.9-0.1-1.8-0.2-2.7c-0.1-0.9-0.4-1.7-0.7-2.4c-0.3-0.7-0.8-1.3-1.3-1.7c-0.5-0.4-1.2-0.6-2.1-0.6
		s-1.5,0.2-2.1,0.6c-0.5,0.4-1,1-1.3,1.7c-0.3,0.7-0.5,1.5-0.6,2.4C557.8,316.6,557.8,317.5,557.8,318.4z"/>
</g>
<g>
	<path fill="#959595" d="M896.5,318.9c0.1,1.6,0.7,2.8,1.7,3.8c1,1,2.3,1.5,3.9,1.5c1.7,0,3-0.4,4-1.3c1-0.9,1.8-2,2.3-3.4
		c0.5-1.3,0.9-2.8,1.1-4.3c0.2-1.5,0.4-2.9,0.5-4.2l-0.1-0.1c-0.8,1.5-2,2.6-3.5,3.4c-1.5,0.8-3.1,1.2-4.8,1.2c-1.8,0-3.5-0.3-5-0.9
		s-2.8-1.5-3.8-2.6c-1.1-1.1-1.9-2.5-2.5-4.1s-0.9-3.4-0.9-5.4c0-1.9,0.3-3.6,0.9-5.2s1.4-3,2.6-4.2c1.1-1.2,2.5-2.1,4.2-2.8
		s3.5-1,5.6-1c2.7,0,4.9,0.5,6.7,1.6s3.1,2.5,4.1,4.3c1,1.8,1.7,3.9,2.1,6.4s0.6,5.1,0.6,7.9c0,2.3-0.2,4.6-0.7,7
		c-0.5,2.3-1.3,4.5-2.4,6.4c-1.1,1.9-2.6,3.5-4.5,4.7s-4.1,1.8-6.8,1.8c-1.5,0-3-0.3-4.3-0.8c-1.4-0.5-2.6-1.2-3.6-2.1
		s-1.9-2-2.6-3.3s-1-2.7-1.1-4.3H896.5z M902.5,294.6c-1.1,0-2.1,0.2-3,0.6c-0.8,0.4-1.5,1-2.1,1.7c-0.5,0.7-1,1.6-1.2,2.5
		c-0.3,1-0.4,1.9-0.4,3c0,1.1,0.1,2.1,0.4,3c0.3,1,0.7,1.8,1.2,2.6c0.5,0.7,1.2,1.3,2.1,1.8c0.8,0.5,1.8,0.7,3,0.7
		c1.2,0,2.2-0.2,3.1-0.7s1.6-1,2.2-1.8c0.6-0.8,1-1.6,1.3-2.6c0.3-1,0.4-2,0.4-3c0-1-0.1-2-0.4-3c-0.3-1-0.7-1.8-1.3-2.5
		c-0.6-0.7-1.3-1.3-2.2-1.7S903.6,294.6,902.5,294.6z"/>
</g>
<g>
	<g>
		<path fill="#231F20" d="M1324.9,195.3c0.9,0,1.8,0.1,2.6,0.3s1.6,0.5,2.2,0.9c0.6,0.4,1.1,1,1.5,1.6c0.4,0.7,0.6,1.5,0.6,2.5
			c0,0.6-0.1,1.1-0.3,1.6c-0.2,0.5-0.4,1-0.8,1.4s-0.7,0.8-1.2,1.1c-0.5,0.3-1,0.5-1.5,0.6v0.1c1.4,0.2,2.5,0.7,3.3,1.7
			c0.8,1,1.2,2.1,1.2,3.5c0,0.3,0,0.7-0.1,1.2c-0.1,0.4-0.2,0.9-0.4,1.3s-0.4,0.9-0.8,1.3c-0.3,0.4-0.8,0.8-1.4,1.2
			s-1.3,0.6-2.1,0.8s-1.8,0.3-3,0.3h-9.1v-21.4H1324.9z M1324.9,204.7c0.8,0,1.5-0.1,2.1-0.3c0.6-0.2,1.1-0.4,1.5-0.8
			s0.7-0.7,0.9-1.2c0.2-0.4,0.3-0.9,0.3-1.4c0-2.7-1.6-4-4.8-4h-7v7.6H1324.9z M1324.9,215c0.8,0,1.5-0.1,2.2-0.2s1.3-0.4,1.8-0.7
			s0.9-0.8,1.2-1.4c0.3-0.6,0.4-1.3,0.4-2.1c0-1.4-0.5-2.4-1.5-3.1c-1-0.7-2.4-1-4.2-1h-7v8.5H1324.9z"/>
		<path fill="#231F20" d="M1340.4,195.3v3h-1.9v-3H1340.4z M1340.4,201.3v15.5h-1.9v-15.5H1340.4z"/>
		<path fill="#231F20" d="M1353.1,201.3v1.6h-3.2v10.4c0,0.6,0.1,1.1,0.3,1.5c0.2,0.4,0.6,0.5,1.3,0.6c0.5,0,1.1,0,1.6-0.1v1.6
			c-0.3,0-0.6,0-0.8,0c-0.3,0-0.6,0-0.8,0c-1.3,0-2.1-0.2-2.6-0.7s-0.7-1.4-0.7-2.7v-10.6h-2.7v-1.6h2.7v-4.6h1.9v4.6H1353.1z"/>
		<path fill="#231F20" d="M1368.4,203.4c-0.7-0.7-1.7-1-2.9-1c-0.9,0-1.7,0.2-2.4,0.6s-1.2,0.9-1.7,1.5c-0.5,0.6-0.8,1.3-1,2.1
			c-0.2,0.8-0.3,1.6-0.3,2.4c0,0.8,0.1,1.6,0.3,2.4s0.6,1.5,1,2.1c0.4,0.6,1,1.1,1.7,1.5s1.5,0.6,2.4,0.6c0.6,0,1.1-0.1,1.7-0.3
			c0.5-0.2,1-0.5,1.4-0.9c0.4-0.4,0.7-0.9,1-1.4s0.4-1.1,0.5-1.8h1.9c-0.3,1.9-1,3.3-2.1,4.4c-1.1,1-2.6,1.6-4.3,1.6
			c-1.2,0-2.2-0.2-3.1-0.6c-0.9-0.4-1.7-1-2.3-1.8c-0.6-0.7-1.1-1.6-1.4-2.6c-0.3-1-0.5-2-0.5-3.2c0-1.1,0.2-2.2,0.5-3.2
			c0.3-1,0.8-1.9,1.4-2.6c0.6-0.7,1.4-1.3,2.3-1.8c0.9-0.4,2-0.7,3.1-0.7c1.7,0,3.1,0.4,4.2,1.3c1.2,0.9,1.8,2.2,2.1,4h-1.9
			C1369.5,205,1369.1,204.1,1368.4,203.4z"/>
		<path fill="#231F20" d="M1387.1,201.5c0.9,0.4,1.7,1,2.3,1.8c0.6,0.7,1.1,1.6,1.4,2.6c0.3,1,0.5,2,0.5,3.2c0,1.1-0.2,2.2-0.5,3.2
			s-0.8,1.9-1.4,2.6c-0.6,0.7-1.4,1.3-2.3,1.8c-0.9,0.4-2,0.6-3.1,0.6s-2.2-0.2-3.1-0.6c-0.9-0.4-1.7-1-2.3-1.8
			c-0.6-0.7-1.1-1.6-1.4-2.6c-0.3-1-0.5-2-0.5-3.2c0-1.1,0.2-2.2,0.5-3.2c0.3-1,0.8-1.9,1.4-2.6c0.6-0.7,1.4-1.3,2.3-1.8
			c0.9-0.4,2-0.7,3.1-0.7S1386.2,201,1387.1,201.5z M1381.6,203c-0.7,0.4-1.2,0.9-1.7,1.5c-0.5,0.6-0.8,1.3-1,2.1
			c-0.2,0.8-0.3,1.6-0.3,2.4c0,0.8,0.1,1.6,0.3,2.4s0.6,1.5,1,2.1c0.4,0.6,1,1.1,1.7,1.5s1.5,0.6,2.4,0.6s1.7-0.2,2.4-0.6
			s1.2-0.9,1.7-1.5c0.5-0.6,0.8-1.3,1-2.1c0.2-0.8,0.3-1.6,0.3-2.4c0-0.8-0.1-1.6-0.3-2.4c-0.2-0.8-0.6-1.5-1-2.1
			c-0.4-0.6-1-1.1-1.7-1.5s-1.5-0.6-2.4-0.6S1382.3,202.6,1381.6,203z"/>
		<path fill="#231F20" d="M1399,195.3v3h-1.9v-3H1399z M1399,201.3v15.5h-1.9v-15.5H1399z"/>
		<path fill="#231F20" d="M1407.5,201.3v2.7h0.1c0.4-0.9,1-1.7,1.9-2.3c0.9-0.6,1.9-0.9,3-0.9c1.1,0,2,0.1,2.7,0.4s1.3,0.7,1.8,1.2
			s0.8,1.1,0.9,1.9c0.2,0.7,0.3,1.6,0.3,2.5v10h-1.9v-9.7c0-0.7-0.1-1.3-0.2-1.8c-0.1-0.6-0.3-1.1-0.6-1.5s-0.7-0.8-1.2-1
			c-0.5-0.2-1.1-0.4-1.9-0.4c-0.8,0-1.4,0.1-2,0.4c-0.6,0.3-1.1,0.6-1.5,1.1c-0.4,0.5-0.7,1-1,1.7c-0.2,0.6-0.4,1.4-0.4,2.1v9h-1.9
			v-15.5H1407.5z"/>
		<path fill="#231F20" d="M1451.3,199.6c-0.4-0.7-0.9-1.2-1.5-1.6c-0.6-0.4-1.2-0.8-1.9-1c-0.7-0.2-1.5-0.3-2.2-0.3
			c-1.4,0-2.6,0.3-3.7,0.8c-1,0.5-1.9,1.3-2.5,2.1c-0.7,0.9-1.1,1.9-1.4,3c-0.3,1.1-0.5,2.3-0.5,3.5c0,1.2,0.2,2.3,0.5,3.4
			c0.3,1.1,0.8,2.1,1.4,3c0.6,0.9,1.5,1.6,2.5,2.1c1,0.5,2.2,0.8,3.7,0.8c1,0,1.9-0.2,2.7-0.5c0.8-0.4,1.5-0.8,2.1-1.5
			s1.1-1.3,1.4-2.2c0.4-0.8,0.6-1.7,0.7-2.7h2c-0.1,1.3-0.4,2.5-0.9,3.6c-0.5,1.1-1.1,2-1.9,2.7c-0.8,0.7-1.7,1.3-2.7,1.7
			c-1,0.4-2.2,0.6-3.4,0.6c-1.7,0-3.2-0.3-4.4-0.9c-1.3-0.6-2.3-1.4-3.2-2.4c-0.8-1-1.5-2.2-1.9-3.5c-0.4-1.3-0.6-2.7-0.6-4.2
			c0-1.5,0.2-2.9,0.6-4.2c0.4-1.3,1.1-2.5,1.9-3.6c0.8-1,1.9-1.8,3.2-2.5c1.3-0.6,2.7-0.9,4.4-0.9c1,0,2,0.2,3,0.5
			c1,0.3,1.8,0.7,2.6,1.3c0.8,0.6,1.5,1.3,2,2.2c0.5,0.9,0.9,1.9,1,3h-2C1452,201,1451.7,200.3,1451.3,199.6z"/>
		<path fill="#231F20" d="M1469.9,201.5c0.9,0.4,1.7,1,2.3,1.8c0.6,0.7,1.1,1.6,1.4,2.6c0.3,1,0.5,2,0.5,3.2c0,1.1-0.2,2.2-0.5,3.2
			s-0.8,1.9-1.4,2.6c-0.6,0.7-1.4,1.3-2.3,1.8c-0.9,0.4-2,0.6-3.1,0.6s-2.2-0.2-3.1-0.6c-0.9-0.4-1.7-1-2.3-1.8
			c-0.6-0.7-1.1-1.6-1.4-2.6c-0.3-1-0.5-2-0.5-3.2c0-1.1,0.2-2.2,0.5-3.2c0.3-1,0.8-1.9,1.4-2.6c0.6-0.7,1.4-1.3,2.3-1.8
			c0.9-0.4,2-0.7,3.1-0.7S1469,201,1469.9,201.5z M1464.4,203c-0.7,0.4-1.2,0.9-1.7,1.5c-0.5,0.6-0.8,1.3-1,2.1
			c-0.2,0.8-0.3,1.6-0.3,2.4c0,0.8,0.1,1.6,0.3,2.4s0.6,1.5,1,2.1c0.4,0.6,1,1.1,1.7,1.5s1.5,0.6,2.4,0.6s1.7-0.2,2.4-0.6
			s1.2-0.9,1.7-1.5c0.5-0.6,0.8-1.3,1-2.1c0.2-0.8,0.3-1.6,0.3-2.4c0-0.8-0.1-1.6-0.3-2.4c-0.2-0.8-0.6-1.5-1-2.1
			c-0.4-0.6-1-1.1-1.7-1.5s-1.5-0.6-2.4-0.6S1465.1,202.6,1464.4,203z"/>
		<path fill="#231F20" d="M1481.7,201.3v2.6h0.1c0.5-1,1.2-1.7,2-2.2c0.8-0.5,1.8-0.8,3.1-0.8c1,0,1.9,0.2,2.8,0.8s1.4,1.3,1.7,2.3
			c0.5-1,1.1-1.8,2-2.3s1.9-0.8,2.9-0.8c3.4,0,5.1,1.8,5.1,5.4v10.5h-1.9v-10.4c0-1.3-0.3-2.3-0.8-2.9c-0.5-0.7-1.5-1-2.9-1
			c-0.8,0-1.5,0.2-2,0.5c-0.5,0.3-1,0.7-1.3,1.2c-0.3,0.5-0.5,1.1-0.7,1.8c-0.1,0.7-0.2,1.4-0.2,2.1v8.8h-1.9v-10.5
			c0-0.5-0.1-1-0.2-1.5c-0.1-0.5-0.3-0.9-0.5-1.2s-0.6-0.6-1-0.8c-0.4-0.2-0.9-0.3-1.5-0.3c-0.8,0-1.5,0.1-2.1,0.4
			c-0.6,0.3-1.1,0.7-1.4,1.2c-0.4,0.5-0.6,1.1-0.8,1.8c-0.2,0.7-0.3,1.4-0.3,2.3v8.6h-1.9v-15.5H1481.7z"/>
		<path fill="#231F20" d="M1509.7,201.3v2.9h0.1c0.4-1.1,1.2-1.9,2.1-2.5s2.1-0.9,3.4-0.9c1.2,0,2.2,0.2,3.1,0.7
			c0.9,0.4,1.6,1,2.2,1.8s1,1.6,1.3,2.6c0.3,1,0.4,2,0.4,3.1c0,1.1-0.1,2.1-0.4,3.1c-0.3,1-0.7,1.9-1.3,2.6s-1.3,1.3-2.2,1.8
			c-0.9,0.4-1.9,0.6-3.1,0.6c-0.6,0-1.1-0.1-1.7-0.2s-1.1-0.3-1.6-0.6c-0.5-0.3-0.9-0.6-1.3-1c-0.4-0.4-0.7-0.9-0.9-1.5h-0.1v8.6
			h-1.9v-21.2H1509.7z M1520,206.6c-0.2-0.8-0.5-1.5-0.9-2.1c-0.4-0.6-0.9-1.1-1.6-1.5s-1.4-0.6-2.3-0.6c-1,0-1.9,0.2-2.6,0.5
			c-0.7,0.4-1.3,0.8-1.7,1.4c-0.4,0.6-0.7,1.3-0.9,2.1c-0.2,0.8-0.3,1.6-0.3,2.5c0,0.8,0.1,1.6,0.3,2.4c0.2,0.8,0.5,1.5,0.9,2.1
			c0.4,0.6,1,1.1,1.7,1.5c0.7,0.4,1.5,0.6,2.5,0.6c0.9,0,1.7-0.2,2.3-0.6c0.6-0.4,1.2-0.9,1.6-1.5c0.4-0.6,0.7-1.3,0.9-2.1
			c0.2-0.8,0.3-1.6,0.3-2.4C1520.3,208.2,1520.2,207.4,1520,206.6z"/>
		<path fill="#231F20" d="M1529.9,201.3v3.6h0.1c0.5-1.3,1.2-2.2,2.2-2.9s2.2-1,3.6-0.9v1.9c-0.9,0-1.6,0.1-2.3,0.3
			c-0.7,0.3-1.3,0.7-1.8,1.2s-0.9,1.1-1.2,1.8c-0.3,0.7-0.4,1.4-0.4,2.3v8.2h-1.9v-15.5H1529.9z"/>
		<path fill="#231F20" d="M1541.4,211.6c0.2,0.7,0.5,1.4,0.9,2c0.4,0.6,0.9,1.1,1.6,1.4c0.6,0.4,1.4,0.6,2.3,0.6
			c1.4,0,2.5-0.4,3.2-1.1c0.8-0.7,1.3-1.7,1.6-2.9h1.9c-0.4,1.8-1.1,3.1-2.2,4.1c-1.1,1-2.6,1.4-4.5,1.4c-1.2,0-2.3-0.2-3.2-0.6
			c-0.9-0.4-1.6-1-2.2-1.8s-1-1.6-1.2-2.6c-0.3-1-0.4-2-0.4-3.1c0-1,0.1-2,0.4-3c0.3-1,0.7-1.9,1.2-2.6c0.6-0.8,1.3-1.4,2.2-1.9
			c0.9-0.5,1.9-0.7,3.2-0.7c1.2,0,2.3,0.2,3.2,0.8c0.9,0.5,1.6,1.2,2.1,2c0.5,0.8,0.9,1.7,1.2,2.8c0.2,1,0.3,2.1,0.3,3.2h-11.9
			C1541.2,210.2,1541.3,210.9,1541.4,211.6z M1550.8,205.9c-0.2-0.7-0.6-1.2-1-1.8c-0.4-0.5-0.9-0.9-1.5-1.2c-0.6-0.3-1.3-0.5-2-0.5
			c-0.8,0-1.5,0.2-2.1,0.5c-0.6,0.3-1.1,0.7-1.5,1.2c-0.4,0.5-0.8,1.1-1,1.8c-0.3,0.7-0.4,1.4-0.5,2.1h10
			C1551.2,207.2,1551,206.5,1550.8,205.9z"/>
		<path fill="#231F20" d="M1560.5,195.3v8.6h0.1c0.4-0.9,1-1.7,1.9-2.3c0.9-0.6,1.9-0.9,3-0.9c1.1,0,2,0.1,2.7,0.4s1.3,0.7,1.8,1.2
			c0.4,0.5,0.8,1.1,0.9,1.9c0.2,0.7,0.3,1.6,0.3,2.5v10h-1.9v-9.7c0-0.7-0.1-1.3-0.2-1.8s-0.3-1.1-0.6-1.5c-0.3-0.4-0.7-0.8-1.2-1
			c-0.5-0.2-1.1-0.4-1.9-0.4s-1.4,0.1-2,0.4c-0.6,0.3-1.1,0.6-1.5,1.1c-0.4,0.5-0.7,1-1,1.7c-0.2,0.6-0.4,1.4-0.4,2.1v9h-1.9v-21.4
			H1560.5z"/>
		<path fill="#231F20" d="M1579.1,211.6c0.2,0.7,0.5,1.4,0.9,2c0.4,0.6,0.9,1.1,1.6,1.4s1.4,0.6,2.3,0.6c1.4,0,2.5-0.4,3.2-1.1
			c0.8-0.7,1.3-1.7,1.6-2.9h1.9c-0.4,1.8-1.1,3.1-2.2,4.1c-1.1,1-2.6,1.4-4.5,1.4c-1.2,0-2.3-0.2-3.2-0.6c-0.9-0.4-1.6-1-2.2-1.8
			c-0.6-0.8-1-1.6-1.2-2.6c-0.3-1-0.4-2-0.4-3.1c0-1,0.1-2,0.4-3c0.3-1,0.7-1.9,1.2-2.6c0.6-0.8,1.3-1.4,2.2-1.9
			c0.9-0.5,1.9-0.7,3.2-0.7c1.2,0,2.3,0.2,3.2,0.8s1.6,1.2,2.1,2c0.6,0.8,0.9,1.7,1.2,2.8s0.3,2.1,0.3,3.2h-11.9
			C1578.8,210.2,1578.9,210.9,1579.1,211.6z M1588.5,205.9c-0.2-0.7-0.6-1.2-1-1.8c-0.4-0.5-0.9-0.9-1.5-1.2c-0.6-0.3-1.3-0.5-2-0.5
			c-0.8,0-1.5,0.2-2.1,0.5c-0.6,0.3-1.1,0.7-1.5,1.2c-0.4,0.5-0.8,1.1-1,1.8s-0.4,1.4-0.5,2.1h10
			C1588.8,207.2,1588.7,206.5,1588.5,205.9z"/>
		<path fill="#231F20" d="M1598.2,201.3v2.7h0.1c0.4-0.9,1-1.7,1.9-2.3c0.9-0.6,1.9-0.9,3-0.9c1.1,0,2,0.1,2.7,0.4s1.3,0.7,1.8,1.2
			c0.4,0.5,0.8,1.1,0.9,1.9c0.2,0.7,0.3,1.6,0.3,2.5v10h-1.9v-9.7c0-0.7-0.1-1.3-0.2-1.8s-0.3-1.1-0.6-1.5c-0.3-0.4-0.7-0.8-1.2-1
			c-0.5-0.2-1.1-0.4-1.9-0.4s-1.4,0.1-2,0.4c-0.6,0.3-1.1,0.6-1.5,1.1c-0.4,0.5-0.7,1-1,1.7c-0.2,0.6-0.4,1.4-0.4,2.1v9h-1.9v-15.5
			H1598.2z"/>
		<path fill="#231F20" d="M1624.3,204.3c-0.2-0.4-0.5-0.8-0.9-1.1c-0.4-0.3-0.8-0.5-1.3-0.6c-0.5-0.1-1-0.2-1.5-0.2
			c-0.4,0-0.8,0-1.3,0.1s-0.8,0.2-1.2,0.5c-0.4,0.2-0.6,0.5-0.9,0.8s-0.3,0.8-0.3,1.3c0,0.4,0.1,0.8,0.3,1.1
			c0.2,0.3,0.5,0.5,0.8,0.7c0.3,0.2,0.7,0.4,1.1,0.5c0.4,0.1,0.7,0.2,1.1,0.3l2.5,0.6c0.5,0.1,1.1,0.2,1.6,0.4
			c0.5,0.2,1,0.5,1.4,0.8c0.4,0.3,0.7,0.8,1,1.3s0.4,1.1,0.4,1.8c0,0.8-0.2,1.6-0.6,2.1c-0.4,0.6-0.9,1.1-1.5,1.4
			c-0.6,0.4-1.3,0.6-2,0.8c-0.7,0.2-1.5,0.2-2.2,0.2c-1.8,0-3.3-0.4-4.4-1.3c-1.1-0.9-1.8-2.2-1.9-4.1h1.9c0.1,1.3,0.5,2.2,1.4,2.9
			c0.8,0.7,1.9,1,3.2,1c0.5,0,0.9,0,1.4-0.2c0.5-0.1,0.9-0.3,1.4-0.5s0.8-0.5,1-0.9c0.3-0.4,0.4-0.8,0.4-1.4c0-0.5-0.1-0.8-0.3-1.2
			c-0.2-0.3-0.4-0.6-0.8-0.8c-0.3-0.2-0.7-0.4-1.1-0.5c-0.4-0.1-0.8-0.3-1.2-0.4l-2.4-0.5c-0.6-0.2-1.2-0.3-1.7-0.6
			c-0.5-0.2-1-0.5-1.4-0.8c-0.4-0.3-0.7-0.7-0.9-1.1c-0.2-0.5-0.3-1-0.3-1.7c0-0.8,0.2-1.5,0.5-2s0.8-1,1.4-1.4
			c0.6-0.3,1.2-0.6,1.9-0.8c0.7-0.2,1.4-0.2,2.1-0.2c0.8,0,1.5,0.1,2.2,0.3s1.3,0.5,1.8,0.9s0.9,0.9,1.2,1.6
			c0.3,0.6,0.5,1.3,0.5,2.2h-1.9C1624.7,205.2,1624.5,204.7,1624.3,204.3z"/>
		<path fill="#231F20" d="M1634.8,195.3v3h-1.9v-3H1634.8z M1634.8,201.3v15.5h-1.9v-15.5H1634.8z"/>
		<path fill="#231F20" d="M1641.7,201.3l4.9,13.6h0.1l4.8-13.6h1.9l-5.8,15.5h-2l-6-15.5H1641.7z"/>
		<path fill="#231F20" d="M1659.7,211.6c0.2,0.7,0.5,1.4,0.9,2c0.4,0.6,0.9,1.1,1.6,1.4c0.6,0.4,1.4,0.6,2.3,0.6
			c1.4,0,2.5-0.4,3.2-1.1c0.8-0.7,1.3-1.7,1.6-2.9h1.9c-0.4,1.8-1.1,3.1-2.2,4.1c-1.1,1-2.6,1.4-4.5,1.4c-1.2,0-2.3-0.2-3.2-0.6
			c-0.9-0.4-1.6-1-2.2-1.8s-1-1.6-1.2-2.6c-0.3-1-0.4-2-0.4-3.1c0-1,0.1-2,0.4-3c0.3-1,0.7-1.9,1.2-2.6c0.6-0.8,1.3-1.4,2.2-1.9
			c0.9-0.5,1.9-0.7,3.2-0.7c1.2,0,2.3,0.2,3.2,0.8c0.9,0.5,1.6,1.2,2.1,2c0.5,0.8,0.9,1.7,1.2,2.8c0.2,1,0.3,2.1,0.3,3.2h-11.9
			C1659.4,210.2,1659.5,210.9,1659.7,211.6z M1669,205.9c-0.2-0.7-0.6-1.2-1-1.8c-0.4-0.5-0.9-0.9-1.5-1.2c-0.6-0.3-1.3-0.5-2-0.5
			c-0.8,0-1.5,0.2-2.1,0.5c-0.6,0.3-1.1,0.7-1.5,1.2c-0.4,0.5-0.8,1.1-1,1.8c-0.3,0.7-0.4,1.4-0.5,2.1h10
			C1669.4,207.2,1669.3,206.5,1669,205.9z"/>
		<path fill="#231F20" d="M1325.6,231.3c0.9,0,1.7,0.1,2.5,0.3c0.8,0.2,1.5,0.6,2.1,1s1.1,1,1.4,1.7c0.3,0.7,0.5,1.5,0.5,2.5
			c0,1.4-0.4,2.5-1.1,3.5c-0.7,1-1.7,1.6-3.1,1.9v0.1c0.7,0.1,1.3,0.3,1.7,0.6c0.5,0.3,0.8,0.6,1.1,1c0.3,0.4,0.5,0.9,0.6,1.5
			c0.1,0.6,0.2,1.1,0.3,1.8c0,0.4,0,0.8,0.1,1.3c0,0.5,0.1,1,0.1,1.6c0.1,0.5,0.2,1,0.3,1.5c0.1,0.5,0.3,0.8,0.5,1.1h-2.2
			c-0.1-0.2-0.2-0.4-0.3-0.7c-0.1-0.3-0.1-0.6-0.1-0.9c0-0.3-0.1-0.6-0.1-0.9s0-0.6-0.1-0.8c0-0.8-0.1-1.5-0.2-2.3s-0.3-1.4-0.6-2
			c-0.3-0.6-0.7-1.1-1.3-1.4c-0.6-0.4-1.3-0.5-2.3-0.5h-7.7v9.5h-2v-21.4H1325.6z M1325.5,241.5c0.6,0,1.2-0.1,1.8-0.3
			c0.6-0.2,1-0.5,1.5-0.8c0.4-0.4,0.8-0.8,1-1.3s0.4-1.1,0.4-1.8c0-1.3-0.4-2.4-1.1-3.1c-0.8-0.8-1.9-1.1-3.5-1.1h-7.6v8.4H1325.5z"
			/>
		<path fill="#231F20" d="M1340.4,231.3v3h-1.9v-3H1340.4z M1340.4,237.3v15.5h-1.9v-15.5H1340.4z"/>
		<path fill="#231F20" d="M1355.9,240.3c-0.2-0.4-0.5-0.8-0.9-1.1c-0.4-0.3-0.8-0.5-1.3-0.6s-1-0.2-1.5-0.2c-0.4,0-0.8,0-1.3,0.1
			c-0.4,0.1-0.8,0.2-1.2,0.5s-0.7,0.5-0.9,0.8c-0.2,0.3-0.3,0.8-0.3,1.3c0,0.4,0.1,0.8,0.3,1.1c0.2,0.3,0.5,0.5,0.8,0.7
			c0.3,0.2,0.7,0.4,1,0.5c0.4,0.1,0.7,0.2,1.1,0.3l2.5,0.6c0.5,0.1,1.1,0.2,1.6,0.4s1,0.5,1.4,0.8c0.4,0.3,0.7,0.8,1,1.3
			c0.3,0.5,0.4,1.1,0.4,1.8c0,0.8-0.2,1.6-0.6,2.1c-0.4,0.6-0.9,1.1-1.5,1.4c-0.6,0.4-1.3,0.6-2,0.8s-1.5,0.2-2.2,0.2
			c-1.8,0-3.3-0.4-4.4-1.3c-1.1-0.9-1.8-2.2-1.9-4.1h1.9c0.1,1.3,0.5,2.2,1.4,2.9c0.8,0.7,1.9,1,3.2,1c0.5,0,0.9,0,1.4-0.2
			c0.5-0.1,0.9-0.3,1.4-0.5s0.8-0.5,1-0.9s0.4-0.8,0.4-1.4c0-0.5-0.1-0.8-0.3-1.2c-0.2-0.3-0.4-0.6-0.8-0.8s-0.7-0.4-1.1-0.5
			c-0.4-0.1-0.8-0.3-1.2-0.4l-2.4-0.5c-0.6-0.2-1.2-0.3-1.7-0.6s-1-0.5-1.4-0.8c-0.4-0.3-0.7-0.7-0.9-1.1c-0.2-0.5-0.3-1-0.3-1.7
			c0-0.8,0.2-1.5,0.5-2c0.3-0.6,0.8-1,1.4-1.4c0.6-0.3,1.2-0.6,1.9-0.8c0.7-0.2,1.4-0.2,2.1-0.2c0.8,0,1.5,0.1,2.2,0.3
			s1.3,0.5,1.8,0.9c0.5,0.4,0.9,0.9,1.2,1.6c0.3,0.6,0.5,1.3,0.5,2.2h-1.9C1356.2,241.2,1356.1,240.7,1355.9,240.3z"/>
		<path fill="#231F20" d="M1366.3,231.3v13.4l8.6-7.5h2.5l-6.6,5.7l7,9.8h-2.4l-6.1-8.4l-3.1,2.5v5.9h-1.9v-21.4H1366.3z"/>
		<path fill="#231F20" d="M1396.3,231.3v21.4h-2v-21.4H1396.3z"/>
		<path fill="#231F20" d="M1405.3,237.3v2.7h0.1c0.4-0.9,1-1.7,1.9-2.3c0.9-0.6,1.9-0.9,3-0.9c1.1,0,2,0.1,2.7,0.4s1.3,0.7,1.8,1.2
			s0.8,1.1,0.9,1.9c0.2,0.7,0.3,1.6,0.3,2.5v10h-1.9v-9.7c0-0.7-0.1-1.3-0.2-1.8c-0.1-0.6-0.3-1.1-0.6-1.5s-0.7-0.8-1.2-1
			c-0.5-0.2-1.1-0.4-1.9-0.4c-0.8,0-1.4,0.1-2,0.4c-0.6,0.3-1.1,0.6-1.5,1.1c-0.4,0.5-0.7,1-1,1.7c-0.2,0.6-0.4,1.4-0.4,2.1v9h-1.9
			v-15.5H1405.3z"/>
		<path fill="#231F20" d="M1434.4,252.8v-2.9h-0.1c-0.2,0.5-0.5,1-0.9,1.4c-0.4,0.4-0.8,0.8-1.3,1.1s-1,0.5-1.6,0.7
			s-1.1,0.2-1.7,0.2c-1.2,0-2.2-0.2-3.1-0.6c-0.9-0.4-1.6-1-2.2-1.8s-1-1.6-1.3-2.6c-0.3-1-0.4-2-0.4-3.1c0-1.1,0.1-2.1,0.4-3.1
			c0.3-1,0.7-1.9,1.3-2.6s1.3-1.3,2.2-1.8c0.9-0.4,1.9-0.7,3.1-0.7c0.6,0,1.1,0.1,1.7,0.2c0.6,0.1,1.1,0.4,1.5,0.6
			c0.5,0.3,0.9,0.6,1.3,1.1s0.7,0.9,0.9,1.5h0.1v-8.9h1.9v21.4H1434.4z M1424.1,247.4c0.2,0.8,0.5,1.5,0.9,2.1
			c0.4,0.6,0.9,1.1,1.6,1.5c0.6,0.4,1.4,0.6,2.3,0.6c1,0,1.8-0.2,2.5-0.6c0.7-0.4,1.2-0.9,1.7-1.5c0.4-0.6,0.7-1.3,0.9-2.1
			c0.2-0.8,0.3-1.6,0.3-2.4c0-0.8-0.1-1.6-0.3-2.4c-0.2-0.8-0.5-1.5-0.9-2.1c-0.4-0.6-1-1.1-1.7-1.5c-0.7-0.4-1.5-0.6-2.5-0.6
			c-0.9,0-1.7,0.2-2.3,0.6c-0.6,0.4-1.2,0.9-1.6,1.5c-0.4,0.6-0.7,1.3-0.9,2.1c-0.2,0.8-0.3,1.6-0.3,2.4
			C1423.8,245.8,1423.9,246.6,1424.1,247.4z"/>
		<path fill="#231F20" d="M1444.2,247.6c0.2,0.7,0.5,1.4,0.9,2c0.4,0.6,0.9,1.1,1.6,1.4s1.4,0.6,2.3,0.6c1.4,0,2.5-0.4,3.2-1.1
			c0.8-0.7,1.3-1.7,1.6-2.9h1.9c-0.4,1.8-1.1,3.1-2.2,4.1c-1.1,1-2.6,1.4-4.5,1.4c-1.2,0-2.3-0.2-3.2-0.6c-0.9-0.4-1.6-1-2.2-1.8
			c-0.6-0.8-1-1.6-1.2-2.6c-0.3-1-0.4-2-0.4-3.1c0-1,0.1-2,0.4-3c0.3-1,0.7-1.9,1.2-2.6c0.6-0.8,1.3-1.4,2.2-1.9
			c0.9-0.5,1.9-0.7,3.2-0.7c1.2,0,2.3,0.2,3.2,0.8s1.6,1.2,2.1,2c0.6,0.8,0.9,1.7,1.2,2.8s0.3,2.1,0.3,3.2h-11.9
			C1443.9,246.2,1444,246.9,1444.2,247.6z M1453.5,241.9c-0.2-0.7-0.6-1.2-1-1.8c-0.4-0.5-0.9-0.9-1.5-1.2c-0.6-0.3-1.3-0.5-2-0.5
			c-0.8,0-1.5,0.2-2.1,0.5c-0.6,0.3-1.1,0.7-1.5,1.2c-0.4,0.5-0.8,1.1-1,1.8s-0.4,1.4-0.5,2.1h10
			C1453.9,243.2,1453.7,242.5,1453.5,241.9z"/>
		<path fill="#231F20" d="M1460,237.3h2.4l4.4,5.9l4.3-5.9h2.4l-5.6,7.4l6,8.1h-2.4l-4.9-6.5l-4.8,6.5h-2.3l6-8L1460,237.3z"/>
	</g>
</g>
<g>
	<path fill="#959595" d="M1314.6,296.5c1.3,0,2.6-0.1,3.8-0.3c1.2-0.2,2.4-0.6,3.4-1.1c1-0.5,1.9-1.2,2.6-2c0.7-0.8,1.2-1.8,1.4-3
		h5.1v38.5h-6.9v-27.1h-9.5V296.5z"/>
	<path fill="#959595" d="M1370.6,328.6h-26.3c0-3.2,0.8-6,2.3-8.4c1.5-2.4,3.6-4.5,6.2-6.2c1.2-0.9,2.5-1.8,3.9-2.7
		c1.4-0.9,2.6-1.8,3.7-2.8c1.1-1,2.1-2.1,2.8-3.2c0.7-1.2,1.1-2.5,1.2-4c0-0.7-0.1-1.4-0.2-2.2c-0.2-0.8-0.5-1.5-1-2.2
		c-0.5-0.7-1.1-1.2-2-1.7c-0.8-0.5-1.9-0.7-3.3-0.7c-1.2,0-2.3,0.2-3.1,0.7c-0.8,0.5-1.5,1.2-2,2c-0.5,0.9-0.9,1.9-1.1,3
		c-0.2,1.2-0.4,2.4-0.4,3.8h-6.3c0-2.1,0.3-4.1,0.9-5.9c0.6-1.8,1.4-3.4,2.6-4.7s2.5-2.4,4.1-3.1c1.6-0.8,3.5-1.1,5.7-1.1
		c2.3,0,4.3,0.4,5.9,1.2c1.6,0.8,2.8,1.7,3.8,2.9c1,1.2,1.7,2.4,2.1,3.8c0.4,1.4,0.6,2.7,0.6,3.9c0,1.5-0.2,2.9-0.7,4.2
		c-0.5,1.2-1.1,2.4-1.9,3.4s-1.7,2-2.7,2.9c-1,0.9-2.1,1.7-3.2,2.5c-1.1,0.8-2.2,1.5-3.3,2.2c-1.1,0.7-2.1,1.4-3,2.1
		c-0.9,0.7-1.8,1.4-2.4,2.2c-0.7,0.8-1.2,1.5-1.4,2.4h18.7V328.6z"/>
	<path fill="#959595" d="M1375.7,296.5c1.3,0,2.6-0.1,3.8-0.3c1.2-0.2,2.4-0.6,3.4-1.1c1-0.5,1.9-1.2,2.6-2c0.7-0.8,1.2-1.8,1.4-3
		h5.1v38.5h-6.9v-27.1h-9.5V296.5z"/>
</g>
<g>
	<path fill="#141B1E" stroke="#000000" stroke-miterlimit="10" d="M4.8,7.7h23.9c7.9,0,13,5.5,13,12.2c0,5.2-2.1,9.1-7,11.1v0.1
		c4.8,1.2,6.1,5.9,6.4,10.4c0.2,2.8,0.1,8,1.9,10.5h-9.7c-1.2-2.8-1.1-7.1-1.5-10.6c-0.7-4.6-2.5-6.7-7.4-6.7h-9.7V52H4.8V7.7z
		 M14.5,27.7h10.7c4.3,0,6.7-1.9,6.7-6.3c0-4.3-2.4-6.1-6.7-6.1H14.5V27.7z"/>
	<path fill="#141B1E" stroke="#000000" stroke-miterlimit="10" d="M55.9,38.1c0.2,5.6,3,8.1,7.9,8.1c3.5,0,6.4-2.2,6.9-4.2h7.7
		c-2.5,7.6-7.7,10.8-15,10.8c-10.1,0-16.4-6.9-16.4-16.9c0-9.6,6.6-16.9,16.4-16.9c10.9,0,16.2,9.2,15.6,19H55.9z M70.2,32.5
		c-0.8-4.5-2.7-6.8-7-6.8c-5.6,0-7.2,4.3-7.3,6.8H70.2z"/>
	<path fill="#141B1E" stroke="#000000" stroke-miterlimit="10" d="M83.8,29.8C84.3,21.5,91.7,19,98.9,19c6.4,0,14.1,1.4,14.1,9.1
		v16.7c0,2.9,0.3,5.8,1.1,7.1h-8.9c-0.3-1-0.6-2-0.6-3.1c-2.8,2.9-6.9,4-10.8,4c-6.1,0-10.9-3-10.9-9.6c0-7.3,5.5-9,10.9-9.7
		c5.4-0.8,10.4-0.6,10.4-4.2c0-3.8-2.6-4.3-5.7-4.3c-3.3,0-5.5,1.4-5.8,4.8H83.8z M104.2,36.3c-1.5,1.3-4.6,1.4-7.3,1.9
		c-2.7,0.6-5.2,1.5-5.2,4.7c0,3.3,2.5,4.1,5.4,4.1c6.9,0,7.1-5.5,7.1-7.4V36.3z"/>
	<path fill="#141B1E" stroke="#000000" stroke-miterlimit="10" d="M120,7.7h8.8V52H120V7.7z"/>
	<path fill="#141B1E" stroke="#000000" stroke-miterlimit="10" d="M146.9,19.9h6.4v5.9h-6.4v15.9c0,3,0.7,3.7,3.7,3.7
		c0.9,0,1.8-0.1,2.7-0.2V52c-1.5,0.2-3.4,0.3-5.1,0.3c-5.4,0-10.1-1.2-10.1-7.6V25.8h-5.3v-5.9h5.3v-9.6h8.8V19.9z"/>
	<path fill="#141B1E" stroke="#000000" stroke-miterlimit="10" d="M166.7,14.9h-8.8V7.7h8.8V14.9z M157.9,19.9h8.8V52h-8.8V19.9z"/>
	<path fill="#141B1E" stroke="#000000" stroke-miterlimit="10" d="M173.8,19.9h8.3v4.3h0.1c2.3-3.3,5.6-5.2,9.8-5.2
		c4,0,7.6,1.5,9.4,5.3c1.9-2.8,5.2-5.3,9.7-5.3c6.8,0,11.7,3.2,11.7,11.5V52H214V33.8c0-4.3-0.4-7.8-5.4-7.8c-5,0-5.9,4.1-5.9,8.1
		V52h-8.8V34c0-3.7,0.2-8-5.3-8c-1.7,0-6,1.1-6,7.4V52h-8.8V19.9z"/>
	<path fill="#141B1E" stroke="#000000" stroke-miterlimit="10" d="M237,38.1c0.2,5.6,3,8.1,7.9,8.1c3.5,0,6.4-2.2,6.9-4.2h7.7
		c-2.5,7.6-7.7,10.8-15,10.8c-10.1,0-16.4-6.9-16.4-16.9c0-9.6,6.6-16.9,16.4-16.9c10.9,0,16.2,9.2,15.6,19H237z M251.3,32.5
		c-0.8-4.5-2.7-6.8-7-6.8c-5.6,0-7.2,4.3-7.3,6.8H251.3z"/>
	<path fill="#141B1E" stroke="#000000" stroke-miterlimit="10" d="M283.7,7.7H299c13.3,0.3,20.3,7.6,20.3,22.1s-7,21.8-20.3,22.1
		h-15.3V7.7z M287.9,48.4h9c12.7,0.1,18.2-5.3,18.2-18.5s-5.5-18.6-18.2-18.5h-9V48.4z"/>
	<path fill="#141B1E" stroke="#000000" stroke-miterlimit="10" d="M325.1,29.8c0.4-7.5,5.6-10.7,13-10.7c5.6,0,11.8,1.7,11.8,10.3
		v17c0,1.5,0.7,2.4,2.3,2.4c0.4,0,0.9-0.1,1.2-0.2v3.3c-0.9,0.2-1.5,0.2-2.5,0.2c-4,0-4.6-2.2-4.6-5.6h-0.1
		c-2.7,4.2-5.5,6.5-11.7,6.5c-5.9,0-10.7-2.9-10.7-9.4c0-9,8.7-9.3,17.2-10.3c3.2-0.4,5-0.8,5-4.3c0-5.3-3.8-6.6-8.4-6.6
		c-4.8,0-8.4,2.2-8.6,7.4H325.1z M345.9,34.5h-0.1c-0.5,0.9-2.2,1.2-3.3,1.4c-6.6,1.2-14.9,1.1-14.9,7.4c0,3.9,3.5,6.3,7.1,6.3
		c6,0,11.2-3.8,11.2-10V34.5z"/>
	<path fill="#141B1E" stroke="#000000" stroke-miterlimit="10" d="M363.8,20h6.5v3.3h-6.5v21.6c0,2.5,0.4,4,3.2,4.2
		c1.1,0,2.2-0.1,3.3-0.2v3.3c-1.2,0-2.3,0.1-3.5,0.1c-5.2,0-7-1.7-6.9-7.2V23.3h-5.6V20h5.6v-9.6h3.9V20z"/>
	<path fill="#141B1E" stroke="#000000" stroke-miterlimit="10" d="M375.6,29.8c0.4-7.5,5.6-10.7,13-10.7c5.6,0,11.8,1.7,11.8,10.3
		v17c0,1.5,0.7,2.4,2.3,2.4c0.4,0,0.9-0.1,1.2-0.2v3.3c-0.9,0.2-1.5,0.2-2.5,0.2c-4,0-4.6-2.2-4.6-5.6h-0.1
		c-2.7,4.2-5.5,6.5-11.7,6.5c-5.9,0-10.7-2.9-10.7-9.4c0-9,8.7-9.3,17.2-10.3c3.2-0.4,5-0.8,5-4.3c0-5.3-3.8-6.6-8.4-6.6
		c-4.8,0-8.4,2.2-8.6,7.4H375.6z M396.4,34.5h-0.1c-0.5,0.9-2.2,1.2-3.3,1.4c-6.6,1.2-14.9,1.1-14.9,7.4c0,3.9,3.5,6.3,7.1,6.3
		c6,0,11.2-3.8,11.2-10V34.5z"/>
</g>
<g>
	<path fill="#343F3F" d="M1137.7,18.4h23.4v2.4h-10.3V48h-2.8V20.8h-10.3V18.4z"/>
	<path fill="#343F3F" d="M1159.5,26.6h2.4v5h0.1c1.3-3.4,4.2-5.5,8.1-5.3v2.6c-4.7-0.2-7.9,3.2-7.9,7.6V48h-2.6V26.6z"/>
	<path fill="#343F3F" d="M1172.3,33.2c0.2-5,3.8-7.2,8.6-7.2c3.8,0,7.9,1.2,7.9,6.9v11.3c0,1,0.5,1.6,1.5,1.6c0.3,0,0.6-0.1,0.8-0.2
		v2.2c-0.6,0.1-1,0.2-1.7,0.2c-2.6,0-3.1-1.5-3.1-3.7h-0.1c-1.8,2.8-3.7,4.3-7.8,4.3c-3.9,0-7.2-1.9-7.2-6.2c0-6,5.8-6.2,11.5-6.9
		c2.1-0.2,3.3-0.5,3.3-2.9c0-3.5-2.5-4.4-5.6-4.4c-3.2,0-5.6,1.5-5.7,5H1172.3z M1186.2,36.3L1186.2,36.3c-0.4,0.6-1.6,0.8-2.3,1
		c-4.4,0.8-9.9,0.7-9.9,4.9c0,2.6,2.3,4.2,4.8,4.2c4,0,7.5-2.5,7.4-6.7V36.3z"/>
	<path fill="#343F3F" d="M1209.1,33.3c-0.7-3.2-2.6-5.1-6-5.1c-5,0-7.5,4.5-7.5,9.1s2.5,9.1,7.5,9.1c3.2,0,5.9-2.5,6.2-6.1h2.6
		c-0.7,5.1-4.1,8.3-8.8,8.3c-6.5,0-10.1-5.2-10.1-11.3c0-6.1,3.6-11.3,10.1-11.3c4.5,0,8.1,2.4,8.6,7.3H1209.1z"/>
	<path fill="#343F3F" d="M1215.5,18.4h2.6V37l11.8-10.3h3.5l-9.1,7.9L1234,48h-3.3l-8.4-11.6l-4.2,3.5V48h-2.6V18.4z"/>
	<path fill="#343F3F" d="M1266.7,37.3c0,6.1-3.6,11.3-10.1,11.3s-10.1-5.2-10.1-11.3c0-6.1,3.6-11.3,10.1-11.3
		S1266.7,31.2,1266.7,37.3z M1249.2,37.3c0,4.5,2.5,9.1,7.5,9.1s7.5-4.5,7.5-9.1s-2.5-9.1-7.5-9.1S1249.2,32.7,1249.2,37.3z"/>
	<path fill="#343F3F" d="M1287.9,48h-2.4v-3.8h-0.1c-1.4,2.9-4.2,4.5-7.4,4.5c-5.4,0-7.5-3.1-7.5-8.1V26.6h2.6v13.9
		c0.1,3.8,1.6,5.9,5.7,5.9c4.5,0,6.4-4.2,6.4-8.6V26.6h2.6V48z"/>
	<path fill="#343F3F" d="M1292.8,26.6h2.4v5h0.1c1.3-3.4,4.2-5.5,8.1-5.3v2.6c-4.7-0.2-7.9,3.2-7.9,7.6V48h-2.6V26.6z"/>
	<path fill="#343F3F" d="M1317.3,26.6h2.4v5h0.1c1.3-3.4,4.2-5.5,8.1-5.3v2.6c-4.7-0.2-7.9,3.2-7.9,7.6V48h-2.6V26.6z"/>
	<path fill="#343F3F" d="M1330.4,18.4h2.6v4.2h-2.6V18.4z M1330.4,26.6h2.6V48h-2.6V26.6z"/>
	<path fill="#343F3F" d="M1350.8,32.9c-0.1-3.2-2.6-4.7-5.6-4.7c-2.3,0-5,0.9-5,3.7c0,2.3,2.6,3.1,4.4,3.6l3.5,0.8
		c3,0.5,6.1,2.2,6.1,5.9c0,4.6-4.6,6.4-8.6,6.4c-5,0-8.3-2.3-8.8-7.5h2.6c0.2,3.5,2.8,5.3,6.3,5.3c2.4,0,5.8-1.1,5.8-4.1
		c0-2.5-2.3-3.3-4.7-3.9l-3.3-0.7c-3.4-0.9-6-2.1-6-5.7c0-4.3,4.3-6,8-6c4.3,0,7.6,2.2,7.8,6.9H1350.8z"/>
	<path fill="#343F3F" d="M1357.9,18.4h2.6V37l11.8-10.3h3.5l-9.1,7.9l9.7,13.4h-3.3l-8.4-11.6l-4.2,3.5V48h-2.6V18.4z"/>
	<path fill="#343F3F" d="M1390.1,26.6h2.4v3.6h0.1c1.4-2.6,3.6-4.2,7-4.2c2.8,0,5.3,1.4,6.1,4.2c1.3-2.8,4-4.2,6.8-4.2
		c4.7,0,7.1,2.4,7.1,7.5V48h-2.6V33.6c0-3.5-1.3-5.4-5-5.4c-4.5,0-5.8,3.7-5.8,7.7V48h-2.6V33.5c0-2.9-1.2-5.3-4.5-5.3
		c-4.5,0-6.3,3.4-6.4,7.9V48h-2.6V26.6z"/>
	<path fill="#343F3F" d="M1426,38c0,3.8,2,8.4,7,8.4c3.8,0,5.9-2.2,6.7-5.5h2.6c-1.1,4.8-3.9,7.6-9.3,7.6c-6.8,0-9.6-5.2-9.6-11.3
		c0-5.6,2.9-11.3,9.6-11.3c6.9,0,9.6,6,9.4,12H1426z M1439.8,35.8c-0.1-3.9-2.6-7.6-6.8-7.6c-4.3,0-6.6,3.7-7,7.6H1439.8z"/>
	<path fill="#343F3F" d="M1450.1,26.6h4.3v2.2h-4.3v14.4c0,1.7,0.2,2.7,2.1,2.8c0.7,0,1.5,0,2.2-0.1v2.2c-0.8,0-1.5,0.1-2.3,0.1
		c-3.5,0-4.7-1.2-4.6-4.8V28.8h-3.7v-2.2h3.7v-6.4h2.6V26.6z"/>
	<path fill="#343F3F" d="M1458.2,26.6h2.4v5h0.1c1.3-3.4,4.2-5.5,8.1-5.3v2.6c-4.7-0.2-7.9,3.2-7.9,7.6V48h-2.6V26.6z"/>
	<path fill="#343F3F" d="M1471.2,18.4h2.6v4.2h-2.6V18.4z M1471.2,26.6h2.6V48h-2.6V26.6z"/>
	<path fill="#343F3F" d="M1493.9,33.3c-0.7-3.2-2.6-5.1-6-5.1c-5,0-7.5,4.5-7.5,9.1s2.5,9.1,7.5,9.1c3.2,0,5.9-2.5,6.2-6.1h2.6
		c-0.7,5.1-4.1,8.3-8.8,8.3c-6.5,0-10.1-5.2-10.1-11.3c0-6.1,3.6-11.3,10.1-11.3c4.5,0,8.1,2.4,8.6,7.3H1493.9z"/>
	<path fill="#343F3F" d="M1513.1,32.9c-0.1-3.2-2.6-4.7-5.6-4.7c-2.3,0-5,0.9-5,3.7c0,2.3,2.6,3.1,4.4,3.6l3.5,0.8
		c3,0.5,6.1,2.2,6.1,5.9c0,4.6-4.6,6.4-8.6,6.4c-5,0-8.3-2.3-8.8-7.5h2.6c0.2,3.5,2.8,5.3,6.3,5.3c2.4,0,5.8-1.1,5.8-4.1
		c0-2.5-2.3-3.3-4.7-3.9l-3.3-0.7c-3.4-0.9-6-2.1-6-5.7c0-4.3,4.3-6,8-6c4.3,0,7.6,2.2,7.8,6.9H1513.1z"/>
	<path fill="#343F3F" d="M1531.7,18.4h2.6v4.2h-2.6V18.4z M1531.7,26.6h2.6V48h-2.6V26.6z"/>
	<path fill="#343F3F" d="M1539.3,26.6h2.6v3.7h0.1c1-2.6,3.8-4.3,6.8-4.3c6,0,7.8,3.1,7.8,8.2V48h-2.6V34.6c0-3.7-1.2-6.4-5.4-6.4
		c-4.1,0-6.6,3.1-6.7,7.3V48h-2.6V26.6z"/>
	<path fill="#343F3F" d="M1573,26.6h2.4v5h0.1c1.3-3.4,4.2-5.5,8.1-5.3v2.6c-4.7-0.2-7.9,3.2-7.9,7.6V48h-2.6V26.6z"/>
	<path fill="#343F3F" d="M1586.8,38c0,3.8,2,8.4,7,8.4c3.8,0,5.9-2.2,6.7-5.5h2.6c-1.1,4.8-3.9,7.6-9.3,7.6c-6.8,0-9.6-5.2-9.6-11.3
		c0-5.6,2.9-11.3,9.6-11.3c6.9,0,9.6,6,9.4,12H1586.8z M1600.6,35.8c-0.1-3.9-2.6-7.6-6.8-7.6c-4.3,0-6.6,3.7-7,7.6H1600.6z"/>
	<path fill="#343F3F" d="M1606.5,33.2c0.2-5,3.8-7.2,8.6-7.2c3.8,0,7.9,1.2,7.9,6.9v11.3c0,1,0.5,1.6,1.5,1.6c0.3,0,0.6-0.1,0.8-0.2
		v2.2c-0.6,0.1-1,0.2-1.7,0.2c-2.6,0-3.1-1.5-3.1-3.7h-0.1c-1.8,2.8-3.7,4.3-7.8,4.3c-3.9,0-7.2-1.9-7.2-6.2c0-6,5.8-6.2,11.5-6.9
		c2.1-0.2,3.3-0.5,3.3-2.9c0-3.5-2.5-4.4-5.6-4.4c-3.2,0-5.6,1.5-5.7,5H1606.5z M1620.4,36.3L1620.4,36.3c-0.4,0.6-1.6,0.8-2.3,1
		c-4.4,0.8-9.9,0.7-9.9,4.9c0,2.6,2.3,4.2,4.8,4.2c4,0,7.5-2.5,7.4-6.7V36.3z"/>
	<path fill="#343F3F" d="M1628.2,18.4h2.6V48h-2.6V18.4z"/>
	<path fill="#343F3F" d="M1640,26.6h4.3v2.2h-4.3v14.4c0,1.7,0.2,2.7,2.1,2.8c0.7,0,1.5,0,2.2-0.1v2.2c-0.8,0-1.5,0.1-2.3,0.1
		c-3.5,0-4.7-1.2-4.6-4.8V28.8h-3.7v-2.2h3.7v-6.4h2.6V26.6z"/>
	<path fill="#343F3F" d="M1648.1,18.4h2.6v4.2h-2.6V18.4z M1648.1,26.6h2.6V48h-2.6V26.6z"/>
	<path fill="#343F3F" d="M1655.7,26.6h2.4v3.6h0.1c1.4-2.6,3.6-4.2,7-4.2c2.8,0,5.3,1.4,6.1,4.2c1.3-2.8,4-4.2,6.8-4.2
		c4.7,0,7.1,2.4,7.1,7.5V48h-2.6V33.6c0-3.5-1.3-5.4-5-5.4c-4.5,0-5.8,3.7-5.8,7.7V48h-2.6V33.5c0-2.9-1.2-5.3-4.5-5.3
		c-4.5,0-6.3,3.4-6.4,7.9V48h-2.6V26.6z"/>
	<path fill="#343F3F" d="M1691.7,38c0,3.8,2,8.4,7,8.4c3.8,0,5.9-2.2,6.7-5.5h2.6c-1.1,4.8-3.9,7.6-9.3,7.6c-6.8,0-9.6-5.2-9.6-11.3
		c0-5.6,2.9-11.3,9.6-11.3c6.9,0,9.6,6,9.4,12H1691.7z M1705.5,35.8c-0.1-3.9-2.6-7.6-6.8-7.6c-4.3,0-6.6,3.7-7,7.6H1705.5z"/>
</g>
<polygon fill="#959595" points="253.6,308.1 216.1,329.5 178.6,308.1 "/>
<g>
	<g>
		<path fill="#677372" d="M691.8,313.5h27.5v2.1h-27.5V313.5z"/>
		<path fill="#677372" d="M723,324.7c0.7-1.4,1.6-2.7,2.7-3.8c1.1-1.2,2.3-2.2,3.6-3.2c1.3-1,2.7-1.9,4.1-2.9c1.4-0.9,2.7-1.8,4-2.8
			c1.3-0.9,2.5-1.9,3.5-3s1.9-2.2,2.5-3.5s0.9-2.7,0.9-4.3c0-1.3-0.3-2.4-0.8-3.5s-1.2-1.9-2.1-2.7c-0.9-0.8-1.8-1.3-3-1.7
			c-1.1-0.4-2.3-0.6-3.5-0.6c-1.7,0-3.2,0.3-4.5,0.9c-1.3,0.6-2.3,1.4-3.2,2.5s-1.5,2.3-1.9,3.7c-0.4,1.4-0.6,2.9-0.6,4.6h-2.1
			c0.2-4.6,1.3-8,3.3-10.2c2-2.2,4.9-3.3,8.7-3.3c1.6,0,3.1,0.2,4.6,0.6s2.7,1.1,3.7,1.9c1.1,0.9,1.9,1.9,2.5,3.2
			c0.6,1.3,0.9,2.8,0.9,4.6c0,2.2-0.5,4.2-1.6,5.9c-1,1.7-2.4,3.3-4,4.6c-1.6,1.4-3.3,2.7-5.2,3.9s-3.6,2.4-5.2,3.6
			c-1.6,1.2-3,2.4-4.2,3.7c-1.2,1.3-1.8,2.7-2,4.3H747v2.1h-25.3C721.9,327.7,722.3,326.1,723,324.7z"/>
		<path fill="#677372" d="M756,323.8h2.8v5.7H756V323.8z"/>
		<path fill="#677372" d="M769.2,317.9c0,1.6,0.2,3,0.8,4.3c0.6,1.3,1.3,2.4,2.3,3.3s2.2,1.6,3.5,2.1c1.3,0.5,2.8,0.7,4.3,0.7
			c1.6,0,3.1-0.3,4.4-0.9c1.3-0.6,2.5-1.4,3.4-2.4c1-1,1.7-2.2,2.2-3.6c0.5-1.4,0.8-2.9,0.8-4.4c0-1.5-0.3-3-0.8-4.3
			c-0.5-1.4-1.3-2.5-2.3-3.5c-1-1-2.1-1.8-3.4-2.4c-1.3-0.6-2.7-0.9-4.3-0.9c-2.2,0-4.1,0.4-5.6,1.3c-1.5,0.9-2.9,2.2-4.1,4h-2.1
			l4-19.6h19.2v1.8h-17.5l-3.2,15.1l0.1,0.1c1.1-1.5,2.5-2.7,4.1-3.4s3.4-1.1,5.3-1.1c1.9,0,3.6,0.3,5.2,1c1.6,0.6,2.9,1.5,4.1,2.7
			c1.1,1.1,2,2.5,2.7,4.1c0.6,1.6,1,3.3,1,5.2s-0.3,3.6-0.9,5.2c-0.6,1.6-1.5,3-2.6,4.2s-2.5,2.1-4.1,2.8c-1.6,0.7-3.3,1-5.2,1
			c-1.8,0-3.6-0.3-5.2-0.9c-1.6-0.6-3-1.4-4.2-2.4c-1.2-1-2.1-2.3-2.8-3.8s-0.9-3.2-0.8-5.1H769.2z"/>
	</g>
</g>
<polygon fill="#959595" points="603.6,329.1 641.1,307.8 678.6,329.1 "/>
<g>
	<g>
		<path fill="#677372" d="M1115.8,314.6h12.8v-12.8h2.1v12.8h12.8v2.1h-12.8v12.8h-2.1v-12.8h-12.8V314.6z"/>
		<path fill="#677372" d="M1150.2,317.9c0,1.6,0.2,3,0.8,4.3c0.6,1.3,1.3,2.4,2.3,3.3s2.2,1.6,3.5,2.1c1.3,0.5,2.8,0.7,4.3,0.7
			c1.6,0,3.1-0.3,4.4-0.9c1.3-0.6,2.5-1.4,3.4-2.4c1-1,1.7-2.2,2.2-3.6c0.5-1.4,0.8-2.9,0.8-4.4c0-1.5-0.3-3-0.8-4.3
			c-0.5-1.4-1.3-2.5-2.3-3.5c-1-1-2.1-1.8-3.4-2.4c-1.3-0.6-2.7-0.9-4.3-0.9c-2.2,0-4.1,0.4-5.6,1.3c-1.5,0.9-2.9,2.2-4.1,4h-2.1
			l4-19.6h19.2v1.8h-17.5l-3.2,15.1l0.1,0.1c1.1-1.5,2.5-2.7,4.1-3.4c1.6-0.8,3.4-1.1,5.3-1.1c1.9,0,3.6,0.3,5.2,1
			c1.6,0.6,2.9,1.5,4.1,2.7c1.1,1.1,2,2.5,2.7,4.1c0.6,1.6,1,3.3,1,5.2c0,1.9-0.3,3.6-0.9,5.2c-0.6,1.6-1.5,3-2.6,4.2
			c-1.1,1.2-2.5,2.1-4.1,2.8c-1.6,0.7-3.3,1-5.2,1c-1.8,0-3.6-0.3-5.2-0.9c-1.6-0.6-3-1.4-4.2-2.4c-1.2-1-2.1-2.3-2.8-3.8
			c-0.7-1.5-0.9-3.2-0.8-5.1H1150.2z"/>
		<path fill="#677372" d="M1178.8,318.6c0-2.7,0.7-5,2.2-6.7s3.5-2.8,6.2-3v-0.1c-2.3-0.4-4-1.4-5.2-2.9c-1.2-1.5-1.8-3.3-1.8-5.4
			c0-1.8,0.3-3.3,1-4.5s1.5-2.2,2.6-2.9c1.1-0.7,2.3-1.3,3.7-1.6c1.4-0.3,2.8-0.5,4.3-0.5c1.5,0,2.9,0.2,4.3,0.5s2.7,0.9,3.8,1.6
			c1.1,0.7,2,1.7,2.6,2.9s1,2.7,1,4.5c0,2.1-0.6,3.9-1.8,5.4c-1.2,1.5-2.9,2.4-5.2,2.9v0.1c2.6,0.3,4.7,1.3,6.2,3s2.2,4,2.2,6.7
			c0,2-0.3,3.7-1,5.1c-0.7,1.4-1.6,2.6-2.8,3.6c-1.2,1-2.6,1.7-4.2,2.1c-1.6,0.5-3.3,0.7-5.1,0.7c-1.8,0-3.5-0.2-5.1-0.7
			c-1.6-0.5-3-1.2-4.1-2.1c-1.2-1-2.1-2.2-2.8-3.6S1178.8,320.6,1178.8,318.6z M1180.9,318.6c0,1.7,0.3,3.1,0.9,4.4
			c0.6,1.2,1.4,2.2,2.4,3c1,0.8,2.2,1.4,3.5,1.8c1.3,0.4,2.7,0.6,4.2,0.6c1.5,0,2.9-0.2,4.2-0.6c1.3-0.4,2.5-1,3.5-1.8
			c1-0.8,1.8-1.8,2.4-3c0.6-1.2,0.9-2.7,0.9-4.4c0-1.6-0.3-2.9-0.9-4c-0.6-1.1-1.4-2-2.4-2.7c-1-0.7-2.2-1.2-3.5-1.6
			c-1.3-0.3-2.7-0.5-4.2-0.5c-1.5,0-2.9,0.2-4.2,0.5c-1.3,0.3-2.5,0.9-3.5,1.6c-1,0.7-1.8,1.6-2.4,2.7
			C1181.2,315.7,1180.9,317,1180.9,318.6z M1192,307.9c1.2,0,2.4-0.1,3.5-0.4c1.2-0.3,2.2-0.7,3.1-1.3c0.9-0.6,1.6-1.4,2.2-2.3
			c0.5-1,0.8-2.1,0.8-3.5c0-1.4-0.3-2.6-0.8-3.6c-0.5-1-1.2-1.8-2.1-2.4c-0.9-0.6-1.9-1-3.1-1.3c-1.2-0.3-2.4-0.4-3.6-0.4
			s-2.4,0.1-3.6,0.4c-1.2,0.3-2.2,0.7-3.1,1.3c-0.9,0.6-1.6,1.4-2.1,2.4c-0.5,1-0.8,2.2-0.8,3.6c0,1.4,0.3,2.5,0.8,3.5
			c0.5,1,1.3,1.7,2.2,2.3c0.9,0.6,1.9,1,3.1,1.3C1189.6,307.8,1190.7,307.9,1192,307.9z"/>
		<path fill="#677372" d="M1233.8,310.5c-1.4,0-2.6-0.3-3.8-0.8c-1.1-0.5-2.1-1.2-2.9-2.1c-0.8-0.9-1.4-1.9-1.8-3.1
			c-0.4-1.2-0.6-2.4-0.6-3.8c0-1.4,0.2-2.6,0.6-3.8c0.4-1.2,1-2.2,1.8-3.1c0.8-0.9,1.7-1.6,2.9-2.1c1.1-0.5,2.4-0.8,3.8-0.8
			s2.7,0.2,3.8,0.7c1.1,0.5,2.1,1.2,2.9,2.1c0.8,0.9,1.4,1.9,1.8,3.1c0.4,1.2,0.6,2.5,0.6,3.9c0,1.3-0.2,2.6-0.6,3.7s-1,2.2-1.8,3.1
			c-0.8,0.9-1.8,1.6-2.9,2.1S1235.2,310.5,1233.8,310.5z M1233.8,308.7c1.1,0,2.1-0.2,3-0.7c0.9-0.4,1.6-1,2.2-1.8
			c0.6-0.8,1.1-1.6,1.4-2.6c0.3-1,0.5-1.9,0.5-2.9c0-1.1-0.1-2.1-0.4-3c-0.3-1-0.7-1.8-1.3-2.6c-0.6-0.7-1.3-1.3-2.2-1.8
			c-0.9-0.4-1.9-0.7-3-0.7c-1.1,0-2.1,0.2-3,0.7c-0.9,0.4-1.6,1-2.2,1.8c-0.6,0.7-1,1.6-1.3,2.6c-0.3,1-0.5,2-0.5,3
			c0,1,0.2,2,0.5,2.9c0.3,1,0.8,1.8,1.4,2.6c0.6,0.8,1.3,1.3,2.2,1.8C1231.7,308.4,1232.7,308.7,1233.8,308.7z M1255.6,290.3h2.2
			l-25.6,40.6h-2.2L1255.6,290.3z M1244.8,320.4c0-1.4,0.2-2.6,0.6-3.8c0.4-1.2,1-2.2,1.8-3.1c0.8-0.9,1.7-1.6,2.9-2.1
			s2.4-0.8,3.8-0.8s2.7,0.2,3.8,0.7c1.1,0.5,2.1,1.2,2.9,2.1c0.8,0.9,1.4,1.9,1.8,3.1c0.4,1.2,0.6,2.5,0.6,3.9
			c0,1.3-0.2,2.6-0.6,3.7c-0.4,1.2-1,2.2-1.8,3.1c-0.8,0.9-1.8,1.6-2.9,2.1c-1.1,0.5-2.4,0.8-3.8,0.8c-1.4,0-2.6-0.3-3.8-0.8
			c-1.1-0.5-2.1-1.2-2.9-2.1c-0.8-0.9-1.4-1.9-1.8-3.1C1245,323,1244.8,321.7,1244.8,320.4z M1246.9,320.4c0,1,0.2,2,0.5,2.9
			s0.8,1.8,1.4,2.6c0.6,0.8,1.3,1.3,2.2,1.8s1.8,0.7,2.9,0.7c1.1,0,2.1-0.2,3-0.7s1.6-1,2.2-1.8c0.6-0.8,1.1-1.6,1.4-2.6
			c0.3-1,0.5-1.9,0.5-2.9c0-1.1-0.1-2.1-0.4-3.1c-0.3-1-0.7-1.8-1.3-2.6c-0.6-0.7-1.3-1.3-2.2-1.8c-0.9-0.4-1.9-0.7-3-0.7
			c-1.1,0-2.1,0.2-3,0.7s-1.6,1-2.2,1.8c-0.6,0.7-1,1.6-1.3,2.6C1247.1,318.3,1246.9,319.4,1246.9,320.4z"/>
	</g>
</g>
<polygon fill="#959595" points="1030.6,329.1 1068.1,307.8 1105.6,329.1 "/>
<g>
	<g>
		<path fill="#677372" d="M1542.6,314.6h12.8v-12.8h2.1v12.8h12.8v2.1h-12.8v12.8h-2.1v-12.8h-12.8V314.6z"/>
		<path fill="#677372" d="M1574.5,317.7l18.5-26.2h2.1V318h6.4v1.8h-6.4v9.7h-2.1v-9.7h-18.5V317.7z M1593,318v-23.6h-0.1
			l-16.3,23.6H1593z"/>
		<path fill="#677372" d="M1630.1,310.5c-1.4,0-2.6-0.3-3.8-0.8c-1.1-0.5-2.1-1.2-2.9-2.1c-0.8-0.9-1.4-1.9-1.8-3.1
			c-0.4-1.2-0.6-2.4-0.6-3.8c0-1.4,0.2-2.6,0.6-3.8c0.4-1.2,1-2.2,1.8-3.1c0.8-0.9,1.7-1.6,2.9-2.1c1.1-0.5,2.4-0.8,3.8-0.8
			s2.7,0.2,3.8,0.7c1.1,0.5,2.1,1.2,2.9,2.1c0.8,0.9,1.4,1.9,1.8,3.1c0.4,1.2,0.6,2.5,0.6,3.9c0,1.3-0.2,2.6-0.6,3.7
			c-0.4,1.2-1,2.2-1.8,3.1c-0.8,0.9-1.8,1.6-2.9,2.1S1631.5,310.5,1630.1,310.5z M1630,308.7c1.1,0,2.1-0.2,3-0.7
			c0.9-0.4,1.6-1,2.2-1.8c0.6-0.8,1.1-1.6,1.4-2.6c0.3-1,0.5-1.9,0.5-2.9c0-1.1-0.1-2.1-0.4-3c-0.3-1-0.7-1.8-1.3-2.6
			c-0.6-0.7-1.3-1.3-2.2-1.8c-0.9-0.4-1.9-0.7-3-0.7c-1.1,0-2.1,0.2-3,0.7c-0.9,0.4-1.6,1-2.2,1.8c-0.6,0.7-1,1.6-1.3,2.6
			c-0.3,1-0.5,2-0.5,3c0,1,0.2,2,0.5,2.9c0.3,1,0.8,1.8,1.4,2.6c0.6,0.8,1.3,1.3,2.2,1.8C1628,308.4,1629,308.7,1630,308.7z
			 M1651.9,290.3h2.2l-25.6,40.6h-2.2L1651.9,290.3z M1641.1,320.4c0-1.4,0.2-2.6,0.6-3.8c0.4-1.2,1-2.2,1.8-3.1
			c0.8-0.9,1.7-1.6,2.9-2.1c1.1-0.5,2.4-0.8,3.8-0.8s2.7,0.2,3.8,0.7c1.1,0.5,2.1,1.2,2.9,2.1c0.8,0.9,1.4,1.9,1.8,3.1
			c0.4,1.2,0.6,2.5,0.6,3.9c0,1.3-0.2,2.6-0.6,3.7c-0.4,1.2-1,2.2-1.8,3.1c-0.8,0.9-1.8,1.6-2.9,2.1c-1.1,0.5-2.4,0.8-3.8,0.8
			c-1.4,0-2.6-0.3-3.8-0.8c-1.1-0.5-2.1-1.2-2.9-2.1c-0.8-0.9-1.4-1.9-1.8-3.1C1641.3,323,1641.1,321.7,1641.1,320.4z M1643.2,320.4
			c0,1,0.2,2,0.5,2.9c0.3,1,0.8,1.8,1.4,2.6s1.3,1.3,2.2,1.8s1.8,0.7,2.9,0.7c1.1,0,2.1-0.2,3-0.7s1.6-1,2.2-1.8s1.1-1.6,1.4-2.6
			c0.3-1,0.5-1.9,0.5-2.9c0-1.1-0.1-2.1-0.4-3c-0.3-1-0.7-1.8-1.3-2.6c-0.6-0.7-1.3-1.3-2.2-1.8c-0.9-0.4-1.9-0.7-3-0.7
			c-1.1,0-2.1,0.2-3,0.7s-1.6,1-2.2,1.8c-0.6,0.7-1,1.6-1.3,2.6C1643.3,318.3,1643.2,319.4,1643.2,320.4z"/>
	</g>
</g>
<polygon fill="#959595" points="1454.6,329.1 1492.1,307.8 1529.6,329.1 "/>
<g>
</g>
<g>
</g>
<g>
</g>
<g>
</g>
<g>
</g>
<g>
</g>
<g>
</g>
<g>
</g>
<g>
</g>
<g>
</g>
<g>
</g>
<g>
</g>
<g>
</g>
<g>
</g>
<g>
</g>
</svg>
