<?xml version="1.0" encoding="utf-8"?>
<!-- Generator: Adobe Illustrator 18.0.0, SVG Export Plug-In . SVG Version: 6.00 Build 0)  -->
<!DOCTYPE svg PUBLIC "-//W3C//DTD SVG 1.1//EN" "http://www.w3.org/Graphics/SVG/1.1/DTD/svg11.dtd">
<svg version="1.1" id="Layer_1" xmlns="http://www.w3.org/2000/svg" xmlns:xlink="http://www.w3.org/1999/xlink" x="0px" y="0px"
	 viewBox="0 0 2080.7 1080.1" enable-background="new 0 0 2080.7 1080.1" xml:space="preserve">
<g>
	<path fill="#FFFFFF" d="M1059.7,333.6c-1,0-2-0.3-3-0.8l-74.9-42.6l-3-5.2v-85.3l3-5.2l74.9-42.6h5.9l74.9,42.6
		c2.9,1.6,3.9,5.3,2.2,8.2c-1.6,2.9-5.3,3.9-8.2,2.2l-71.9-40.9l-68.9,39.2v78.3l71.8,40.9c2.9,1.6,3.9,5.3,2.2,8.2
		C1063.8,332.5,1061.8,333.6,1059.7,333.6z"/>
	<path fill="#9AB1B9" d="M538.8,551.1c-0.3,0-0.6,0-1-0.1c-3.3-0.5-5.5-3.6-5-6.9l21.9-136.6c0.5-3.3,3.6-5.5,6.9-5
		c3.3,0.5,5.5,3.6,5,6.9l-21.9,136.6C544.2,549,541.7,551.1,538.8,551.1z"/>
	<path fill="#9AB1B9" d="M1434,554.2c-3,0-5.6-2.2-6-5.3l-12.7-106.1c-0.4-3.3,2-6.3,5.2-6.7c3.3-0.4,6.3,2,6.7,5.2l12.7,106.1
		c0.4,3.3-2,6.3-5.2,6.7C1434.4,554.2,1434.2,554.2,1434,554.2z"/>
	<path fill="none" stroke="#9AB1B9" stroke-width="12" stroke-linecap="round" stroke-miterlimit="10" d="M1352.8,697.6"/>
	<path fill="none" stroke="#9AB1B9" stroke-width="12" stroke-linecap="round" stroke-miterlimit="10" d="M679.1,741.8"/>
	<path fill="none" stroke="#9AB1B9" stroke-width="12" stroke-linecap="round" stroke-miterlimit="10" d="M903.6,692"/>
	<path fill="#9AB1B9" d="M679.1,747.8c-1.1,0-2.3-0.3-3.3-1l-77.5-51.6V592.4c0-3.3,2.7-6,6-6c3.3,0,6,2.7,6,6v96.4l72.2,48
		c2.8,1.8,3.5,5.6,1.7,8.3C682.9,746.9,681,747.8,679.1,747.8z"/>
	<path fill="#9AB1B9" d="M604.2,695.2c-3.3,0-6-2.7-6-6v-96.4l-59.5-39.6c-2.8-1.8-3.5-5.6-1.7-8.3c1.8-2.8,5.6-3.5,8.3-1.7
		l64.9,43.2v102.9C610.2,692.5,607.5,695.2,604.2,695.2z"/>
	<path fill="none" stroke="#9AB1B9" stroke-width="12" stroke-linecap="round" stroke-miterlimit="10" d="M1053.4,991.5"/>
	<path fill="none" stroke="#9AB1B9" stroke-width="12" stroke-linecap="round" stroke-miterlimit="10" d="M1277.9,745.2"/>
	<path fill="none" stroke="#9AB1B9" stroke-width="12" stroke-linecap="round" stroke-miterlimit="10" d="M903.6,991.5"/>
	<path fill="none" stroke="#9AB1B9" stroke-width="12" stroke-linecap="round" stroke-miterlimit="10" d="M753.9,891.8"/>
	<path fill="#9AB1B9" d="M753.9,897.8c-1.1,0-2.3-0.3-3.3-1l-77.5-51.6V742.4c0-3.3,2.7-6,6-6s6,2.7,6,6v96.4l72.2,48
		c2.8,1.8,3.5,5.6,1.7,8.3C757.8,896.9,755.9,897.8,753.9,897.8z"/>
	<path fill="none" stroke="#9AB1B9" stroke-width="12" stroke-linecap="round" stroke-miterlimit="10" d="M978.5,842"/>
	<path fill="none" stroke="#9AB1B9" stroke-width="12" stroke-linecap="round" stroke-miterlimit="10" d="M903.6,991.5"/>
	<path fill="none" stroke="#9AB1B9" stroke-width="12" stroke-linecap="round" stroke-miterlimit="10" d="M753.9,891.8"/>
	<path fill="#9AB1B9" d="M679.1,845.2c-3.3,0-6-2.7-6-6v-96.4l-72.2-48c-2.8-1.8-3.5-5.6-1.7-8.3s5.6-3.5,8.3-1.7l77.5,51.6v102.9
		C685.1,842.5,682.4,845.2,679.1,845.2z"/>
	<path fill="#9AB1B9" d="M1239.1,834.7c-0.9,0-1.7-0.2-2.6-0.6c-3-1.4-4.3-5-2.8-8l38.8-81.2c1.4-3,5-4.3,8-2.8c3,1.4,4.3,5,2.8,8
		l-38.8,81.2C1243.5,833.4,1241.4,834.7,1239.1,834.7z"/>
	<path fill="#9AB1B9" d="M1153.6,932.6c-0.4,0-0.8,0-1.3-0.1c-3.2-0.7-5.3-3.9-4.6-7.1l19.6-90.9c0.7-3.2,3.9-5.3,7.1-4.6
		c3.2,0.7,5.3,3.9,4.6,7.1l-19.6,90.9C1158.8,930.7,1156.4,932.6,1153.6,932.6z"/>
	<path fill="#9AB1B9" d="M1053.4,997.5c-2,0-3.9-1-5-2.7c-1.8-2.8-1-6.5,1.8-8.3l100.2-64.8c2.8-1.8,6.5-1,8.3,1.8s1,6.5-1.8,8.3
		l-100.2,64.8C1055.6,997.1,1054.5,997.5,1053.4,997.5z"/>
	<path fill="none" stroke="#9AB1B9" stroke-width="12" stroke-linecap="round" stroke-miterlimit="10" d="M565.1,715.8"/>
	<path fill="#9AB1B9" d="M1362.3,697.6c-0.9,0-1.8-0.2-2.7-0.6c-3-1.5-4.2-5.1-2.7-8.1l71.8-143.4c1.5-3,5.1-4.2,8.1-2.7
		c3,1.5,4.2,5.1,2.7,8.1l-71.8,143.4C1366.6,696.4,1364.5,697.6,1362.3,697.6z"/>
	<path fill="#9AB1B9" d="M1173.2,841.7c-3,0-5.6-2.3-6-5.4c-0.3-3.3,2-6.2,5.3-6.6l65.9-7c3.3-0.3,6.3,2,6.6,5.3
		c0.3,3.3-2,6.2-5.3,6.6l-65.9,7C1173.7,841.7,1173.4,841.7,1173.2,841.7z"/>
	<path fill="#9AB1B9" d="M903.6,997.5c-1.1,0-2.3-0.3-3.3-1l-149.7-99.6c-2.8-1.8-3.5-5.6-1.7-8.3c1.8-2.8,5.6-3.5,8.3-1.7
		L907,986.5c2.8,1.8,3.5,5.6,1.7,8.3C907.5,996.5,905.6,997.5,903.6,997.5z"/>
	<path fill="none" stroke="#9AB1B9" stroke-width="12" stroke-linecap="round" stroke-miterlimit="10" d="M978.5,842"/>
	<path fill="#9AB1B9" d="M978.5,1047.3c-1.9,0-3.8-0.9-5-2.7c-1.8-2.8-1.1-6.5,1.7-8.3l74.9-49.8c2.8-1.8,6.5-1.1,8.3,1.7
		c1.8,2.8,1.1,6.5-1.7,8.3l-74.9,49.8C980.8,1046.9,979.7,1047.3,978.5,1047.3z"/>
	<path fill="#9AB1B9" d="M978.5,1047.3c-1.1,0-2.3-0.3-3.3-1l-74.9-49.8c-2.8-1.8-3.5-5.6-1.7-8.3c1.8-2.8,5.6-3.5,8.3-1.7
		l74.9,49.8c2.8,1.8,3.5,5.6,1.7,8.3C982.3,1046.3,980.4,1047.3,978.5,1047.3z"/>
	<path fill="#9AB1B9" d="M1277.9,753.5c-1.9,0-3.9-0.9-5-2.7c-1.8-2.8-1.1-6.5,1.7-8.3l84.4-55.9c2.8-1.8,6.5-1.1,8.3,1.7
		c1.8,2.8,1.1,6.5-1.7,8.3l-84.4,55.9C1280.2,753.1,1279.1,753.5,1277.9,753.5z"/>
	<path fill="none" stroke="#9AB1B9" stroke-width="12" stroke-linecap="round" stroke-miterlimit="10" d="M828.8,842"/>
	<path fill="none" stroke="#9AB1B9" stroke-width="12" stroke-linecap="round" stroke-miterlimit="10" d="M1053.4,598"/>
	<path fill="none" stroke="#9AB1B9" stroke-width="12" stroke-linecap="round" stroke-miterlimit="10" d="M1053.4,991.5"/>
	<path fill="none" stroke="#9AB1B9" stroke-width="12" stroke-linecap="round" stroke-miterlimit="10" d="M978.5,842"/>
	<path fill="none" stroke="#9AB1B9" stroke-width="12" stroke-linecap="round" stroke-miterlimit="10" d="M828.8,842"/>
	<path fill="none" stroke="#9AB1B9" stroke-width="12" stroke-linecap="round" stroke-miterlimit="10" d="M978.5,842"/>
	<path opacity="0.5" fill="#FFFFFF" d="M760.3,411.5c-3.3,0-6-2.7-6-6v-85.7l77.9-44.4c2.9-1.6,6.5-0.6,8.2,2.2
		c1.6,2.9,0.6,6.5-2.2,8.2l-71.8,40.9v78.8C766.3,408.8,763.6,411.5,760.3,411.5z"/>
	<path opacity="0.5" fill="#FFFFFF" d="M913,411.5c-2.1,0-4.2-1.1-5.3-3.1c-1.6-2.9-0.5-6.6,2.4-8.2l68.7-37.9v-81.7
		c0-3.3,2.7-6,6-6s6,2.7,6,6v88.8l-74.9,41.3C915,411.3,914,411.5,913,411.5z"/>
	<path opacity="0.5" fill="#FFFFFF" d="M1209.4,410.2c-3.3,0-6-2.7-6-6v-79.6l77.9-44.4c2.9-1.6,6.5-0.6,8.2,2.2
		c1.6,2.9,0.6,6.5-2.2,8.2l-71.8,40.9v72.7C1215.4,407.5,1212.7,410.2,1209.4,410.2z"/>
	<path fill="none" stroke="#B3C6CB" stroke-width="12" stroke-linecap="round" stroke-miterlimit="10" d="M1059.7,328.1"/>
	<path fill="#FFFFFF" d="M910,160.7c-3.3,0-6-2.7-6-6V71.8c0-3.3,2.7-6,6-6s6,2.7,6,6v82.9C916,158,913.3,160.7,910,160.7z"/>
	<path fill="none" stroke="#FFFFFF" stroke-width="12" stroke-linecap="round" stroke-miterlimit="10" d="M685.4,282.6"/>
	<path fill="none" stroke="#FFFFFF" stroke-width="12" stroke-linecap="round" stroke-linejoin="bevel" stroke-miterlimit="10" d="
		M1059.7,71.8"/>
	<path fill="none" stroke="#FFFFFF" stroke-width="12" stroke-linecap="round" stroke-miterlimit="10" d="M1209.4,157.1"/>
	<path fill="#FFFFFF" d="M1284.3,291c-3.3,0-6-2.7-6-6v-81.8l-71.8-40.9c-2.9-1.6-3.9-5.3-2.2-8.2c1.6-2.9,5.3-3.9,8.2-2.2
		l77.9,44.4V285C1290.3,288.3,1287.6,291,1284.3,291z"/>
	<path fill="#FFFFFF" d="M984.8,291c-3.3,0-6-2.7-6-6v-85.3c0-3.3,2.7-6,6-6s6,2.7,6,6V285C990.8,288.3,988.2,291,984.8,291z"/>
	<path fill="none" stroke="#FFFFFF" stroke-width="12" stroke-linecap="round" stroke-linejoin="bevel" stroke-miterlimit="10" d="
		M1059.7,71.8"/>
	<path fill="none" stroke="#FFFFFF" stroke-width="12" stroke-linecap="round" stroke-miterlimit="10" d="M1209.4,157.1"/>
	<path fill="#FFFFFF" d="M1359.1,336c-1,0-2-0.3-3-0.8l-77.9-44.4v-88.8c0-3.3,2.7-6,6-6s6,2.7,6,6v81.8l71.8,40.9
		c2.9,1.6,3.9,5.3,2.2,8.2C1363.2,334.9,1361.2,336,1359.1,336z"/>
	<path fill="#FFFFFF" d="M685.4,286.6c-1,0-2-0.2-2.9-0.8c-2.9-1.6-3.9-5.3-2.3-8.2l38.8-69.5c1.6-2.9,5.3-3.9,8.2-2.3
		c2.9,1.6,3.9,5.3,2.3,8.2l-38.8,69.5C689.6,285.5,687.5,286.6,685.4,286.6z"/>
	<path fill="#FFFFFF" d="M790.1,211.1c-0.5,0-1-0.1-1.5-0.2c-3.2-0.8-5.2-4.1-4.3-7.3l19.6-77.8c0.8-3.2,4.1-5.2,7.3-4.3
		c3.2,0.8,5.2,4.1,4.3,7.3l-19.6,77.8C795.2,209.3,792.8,211.1,790.1,211.1z"/>
	<path fill="#9AB1B9" d="M1421.3,448c-1,0-2.1-0.3-3-0.8l-62.2-36.8c-2.9-1.7-3.8-5.4-2.1-8.2c1.7-2.9,5.4-3.8,8.2-2.1l62.2,36.8
		c2.9,1.7,3.8,5.4,2.1,8.2C1425.3,447,1423.3,448,1421.3,448z"/>
	<path fill="#FFFFFF" d="M809.8,133.3c-2.1,0-4.2-1.1-5.3-3.1c-1.6-2.9-0.6-6.6,2.3-8.2l100.2-55.5c2.9-1.6,6.5-0.6,8.2,2.3
		c1.6,2.9,0.6,6.6-2.3,8.2l-100.2,55.5C811.7,133,810.7,133.3,809.8,133.3z"/>
	<path fill="#FFFFFF" d="M1359.1,411.3c-3.3,0-6-2.7-6-6v-73.7l-71.8-40.9c-2.9-1.6-3.9-5.3-2.2-8.2s5.3-3.9,8.2-2.2l77.9,44.4v80.7
		C1365.1,408.6,1362.4,411.3,1359.1,411.3z"/>
	<path fill="none" stroke="#FFFFFF" stroke-width="12" stroke-linecap="round" stroke-miterlimit="10" d="M1398.3,307.7"/>
	<path fill="#FFFFFF" d="M563.7,411.5c-1,0-2-0.3-3-0.8c-2.9-1.6-3.9-5.3-2.2-8.2l46.9-82.2c1.6-2.9,5.3-3.9,8.2-2.2
		c2.9,1.6,3.9,5.3,2.2,8.2l-46.9,82.2C567.8,410.4,565.8,411.5,563.7,411.5z"/>
	<path fill="none" stroke="#FFFFFF" stroke-width="12" stroke-linecap="round" stroke-miterlimit="10" d="M515,387.2"/>
	<path fill="#FFFFFF" d="M724.2,217.1c-3.1,0-5.7-2.3-6-5.5c-0.3-3.3,2.1-6.2,5.4-6.5l65.9-6c3.3-0.3,6.2,2.1,6.5,5.4
		c0.3,3.3-2.1,6.2-5.4,6.5l-65.9,6C724.6,217.1,724.4,217.1,724.2,217.1z"/>
	<path fill="#FFFFFF" d="M1209.4,163.1c-1,0-2-0.3-3-0.8L1056.7,77c-2.9-1.6-3.9-5.3-2.2-8.2c1.6-2.9,5.3-3.9,8.2-2.2l149.7,85.3
		c2.9,1.6,3.9,5.3,2.2,8.2C1213.5,162,1211.5,163.1,1209.4,163.1z"/>
	<path fill="none" stroke="#FFFFFF" stroke-width="12" stroke-linecap="round" stroke-miterlimit="10" d="M984.8,199.7"/>
	<path opacity="0.5" fill="#FFFFFF" d="M1059.7,411.5c-3.3,0-6-2.7-6-6v-77.9c0-3.3,2.7-6,6-6s6,2.7,6,6v77.9
		C1065.7,408.8,1063,411.5,1059.7,411.5z"/>
	<rect x="439" y="399.5" fill="#FFFFFF" width="1096.5" height="12"/>
	<path fill="#FFFFFF" d="M910,77.8c-2.1,0-4.1-1.1-5.2-3c-1.6-2.9-0.6-6.5,2.2-8.2l74.9-42.6c2.9-1.6,6.5-0.6,8.2,2.2
		c1.6,2.9,0.6,6.5-2.2,8.2L913,77C912,77.5,911,77.8,910,77.8z"/>
	<path fill="#FFFFFF" d="M1059.7,77.8c-1,0-2-0.3-3-0.8l-74.9-42.6c-2.9-1.6-3.9-5.3-2.2-8.2s5.3-3.9,8.2-2.2l74.9,42.6
		c2.9,1.6,3.9,5.3,2.2,8.2C1063.8,76.7,1061.8,77.8,1059.7,77.8z"/>
	<path fill="#FFFFFF" d="M610.6,329.3c-2.1,0-4.1-1.1-5.2-3c-1.6-2.9-0.6-6.5,2.2-8.2l74.9-42.6c2.9-1.6,6.5-0.6,8.2,2.2
		c1.6,2.9,0.6,6.5-2.2,8.2l-74.9,42.6C612.6,329,611.6,329.3,610.6,329.3z"/>
	<path opacity="0.5" fill="#FFFFFF" d="M835.1,286.6c-1.1,0-2.1-0.3-3.1-0.9c-2.8-1.7-3.7-5.4-2-8.2L904.9,154
		c1.7-2.8,5.4-3.7,8.2-2c2.8,1.7,3.7,5.4,2,8.2l-74.9,123.5C839.1,285.6,837.2,286.6,835.1,286.6z"/>
	<path opacity="0.5" fill="#FFFFFF" d="M1209.4,334.1c-2.1,0-4.1-1.1-5.2-3l-74.9-128.4c-1.7-2.9-0.7-6.5,2.2-8.2
		c2.9-1.7,6.5-0.7,8.2,2.2l74.9,128.4c1.7,2.9,0.7,6.5-2.2,8.2C1211.5,333.8,1210.4,334.1,1209.4,334.1z"/>
	<path fill="none" stroke="#FFFFFF" stroke-width="12" stroke-linecap="round" stroke-miterlimit="10" d="M910,451.2"/>
	<path fill="none" stroke="#FFFFFF" stroke-width="12" stroke-linecap="round" stroke-miterlimit="10" d="M910,408.5"/>
	<path fill="#FFFFFF" d="M984.8,205.7c-1,0-2-0.3-3-0.8L904,160.6V71.8c0-3.3,2.7-6,6-6s6,2.7,6,6v81.8l71.8,40.9
		c2.9,1.6,3.9,5.3,2.2,8.2C988.9,204.6,986.9,205.7,984.8,205.7z"/>
	<path fill="#FFFFFF" d="M1059.7,333.6c-1,0-2-0.3-3-0.8l-74.9-42.6c-2.9-1.6-3.9-5.3-2.2-8.2c1.6-2.9,5.3-3.9,8.2-2.2l74.9,42.6
		c2.9,1.6,3.9,5.3,2.2,8.2C1063.8,332.5,1061.8,333.6,1059.7,333.6z"/>
</g>
<g>
	<rect x="473.4" y="497" fill="none" width="1030.1" height="76.4"/>
	<path fill="#37474F" d="M569.7,497h5.3l5.4,22.9h0.1l6-22.9h5.4l5.9,22.9h0.1l5.6-22.9h5.3l-8.3,30h-5.3l-6-22.9h-0.1L583,527h-5.4
		L569.7,497z"/>
	<path fill="#37474F" d="M614.6,517.4c0,3.4,1.8,6.4,5.8,6.4c2.8,0,4.5-1.2,5.3-3.6h4.5c-1,4.7-5.1,7.4-9.8,7.4
		c-6.8,0-10.6-4.7-10.6-11.4c0-6.2,4-11.5,10.5-11.5c6.8,0,11,6.2,10.2,12.7H614.6z M625.7,514.2c-0.2-3-2.2-5.8-5.5-5.8
		c-3.3,0-5.6,2.5-5.7,5.8H625.7z"/>
	<path fill="#37474F" d="M646,497h4.8v11.1h0.1c1.3-2.1,4-3.4,6.5-3.4c6.8,0,10.2,5.2,10.2,11.6c0,5.8-2.9,11.3-9.4,11.3
		c-2.9,0-6.1-0.7-7.5-3.6h-0.1v3H646V497z M656.7,508.5c-4,0-6.1,3.1-6.1,7.7c0,4.4,2.2,7.6,6.1,7.6c4.4,0,6-3.9,6-7.6
		C662.7,512.2,660.6,508.5,656.7,508.5z"/>
	<path fill="#37474F" d="M671.5,505.3h4.5v4.2h0.1c0.5-2.3,3.4-4.8,6.3-4.8c1.1,0,1.4,0.1,1.8,0.1v4.6c-0.7-0.1-1.4-0.2-2.1-0.2
		c-3.3,0-5.9,2.6-5.9,7.4V527h-4.8V505.3z"/>
	<path fill="#37474F" d="M686.4,497h4.8v4.5h-4.8V497z M686.4,505.3h4.8V527h-4.8V505.3z"/>
	<path fill="#37474F" d="M696.4,505.3h4.5v3.2l0.1,0.1c1.4-2.4,3.9-3.9,6.8-3.9c4.7,0,7.7,2.5,7.7,7.4V527h-4.8v-13.7
		c-0.1-3.4-1.4-4.9-4.2-4.9c-3.2,0-5.3,2.5-5.3,5.7V527h-4.8V505.3z"/>
	<path fill="#37474F" d="M740.6,525.9c0,6.5-3.8,9.7-10.7,9.7c-4.4,0-9.3-1.7-9.7-6.8h4.8c0.6,2.7,2.8,3.2,5.2,3.2
		c3.9,0,5.6-2,5.6-5.5v-3.3h-0.1c-1.3,2.4-3.8,3.8-6.5,3.8c-6.9,0-9.7-5.2-9.7-11.4c0-5.8,3.7-10.9,9.8-10.9c2.7,0,5.2,1.1,6.4,3.6
		h0.1v-3h4.8V525.9z M735.8,515.7c0-3.7-1.7-7.2-5.8-7.2c-4.2,0-5.7,3.9-5.7,7.6c0,3.6,1.7,7.2,5.7,7.2
		C734.2,523.2,735.8,519.3,735.8,515.7z"/>
	<path fill="#37474F" d="M757.1,505.3h4.5v4.2h0.1c0.5-2.3,3.4-4.8,6.3-4.8c1.1,0,1.4,0.1,1.8,0.1v4.6c-0.7-0.1-1.4-0.2-2.1-0.2
		c-3.3,0-5.9,2.6-5.9,7.4V527h-4.8V505.3z"/>
	<path fill="#37474F" d="M772,497h4.8v4.5H772V497z M772,505.3h4.8V527H772V505.3z"/>
	<path fill="#37474F" d="M802.1,525.9c0,6.5-3.8,9.7-10.7,9.7c-4.4,0-9.3-1.7-9.7-6.8h4.8c0.6,2.7,2.8,3.2,5.2,3.2
		c3.9,0,5.6-2,5.6-5.5v-3.3h-0.1c-1.3,2.4-3.8,3.8-6.5,3.8c-6.9,0-9.7-5.2-9.7-11.4c0-5.8,3.7-10.9,9.8-10.9c2.7,0,5.2,1.1,6.4,3.6
		h0.1v-3h4.8V525.9z M797.3,515.7c0-3.7-1.7-7.2-5.8-7.2c-4.2,0-5.7,3.9-5.7,7.6c0,3.6,1.7,7.2,5.7,7.2
		C795.7,523.2,797.3,519.3,797.3,515.7z"/>
	<path fill="#37474F" d="M805.9,516.1c0-6.6,4-11.4,11-11.4s11,4.8,11,11.4c0,6.7-4,11.5-11,11.5S805.9,522.8,805.9,516.1z
		 M823.1,516.1c0-3.7-1.9-7.6-6.2-7.6s-6.2,3.9-6.2,7.6c0,3.8,1.9,7.7,6.2,7.7S823.1,519.9,823.1,516.1z"/>
	<path fill="#37474F" d="M850.9,527h-4.7v-3h-0.1c-1.2,2.2-3.8,3.6-6.2,3.6c-5.7,0-8.1-2.9-8.1-8.5v-13.8h4.8v13.3
		c0,3.8,1.6,5.2,4.2,5.2c4,0,5.3-2.6,5.3-5.9v-12.6h4.8V527z"/>
	<path fill="#37474F" d="M855.9,505.3h4.5v4.2h0.1c0.5-2.3,3.4-4.8,6.3-4.8c1.1,0,1.4,0.1,1.8,0.1v4.6c-0.7-0.1-1.4-0.2-2.1-0.2
		c-3.3,0-5.9,2.6-5.9,7.4V527h-4.8V505.3z"/>
	<path fill="#37474F" d="M880.2,505.3h3.6v-6.5h4.8v6.5h4.3v3.6h-4.3v11.6c0,2,0.2,3,2.3,3c0.7,0,1.3,0,2-0.2v3.7
		c-1.1,0.1-2.1,0.3-3.1,0.3c-5,0-5.9-1.9-6-5.5v-12.8h-3.6V505.3z"/>
	<path fill="#37474F" d="M895.4,516.1c0-6.6,4-11.4,11-11.4s11,4.8,11,11.4c0,6.7-4,11.5-11,11.5S895.4,522.8,895.4,516.1z
		 M912.5,516.1c0-3.7-1.9-7.6-6.2-7.6s-6.2,3.9-6.2,7.6c0,3.8,1.9,7.7,6.2,7.7S912.5,519.9,912.5,516.1z"/>
	<path fill="#FFFFFF" d="M947.6,512.5c-0.4-2.6-2.3-4.1-5-4.1c-2.5,0-6,1.3-6,7.9c0,3.6,1.6,7.4,5.8,7.4c2.8,0,4.7-1.8,5.2-5h4.8
		c-0.9,5.6-4.4,8.7-10,8.7c-6.8,0-10.5-4.8-10.5-11.2c0-6.6,3.6-11.7,10.7-11.7c5,0,9.3,2.5,9.8,7.9H947.6z"/>
	<path fill="#FFFFFF" d="M956.3,505.3h4.5v4.2h0.1c0.5-2.3,3.4-4.8,6.3-4.8c1.1,0,1.4,0.1,1.8,0.1v4.6c-0.7-0.1-1.4-0.2-2.1-0.2
		c-3.3,0-5.9,2.6-5.9,7.4V527h-4.8V505.3z"/>
	<path fill="#FFFFFF" d="M968.7,505.3h5.3l5.7,16.2h0.1l5.5-16.2h5l-8.4,22.9c-1.6,3.9-2.7,7.4-7.7,7.4c-1.1,0-2.2-0.1-3.3-0.3v-4
		c0.8,0.1,1.5,0.3,2.3,0.3c2.2,0,2.8-1.2,3.4-3l0.5-1.7L968.7,505.3z"/>
	<path fill="#FFFFFF" d="M993,505.3h4.5v2.9h0.1c1.3-2.5,3.9-3.5,6.7-3.5c6.8,0,10.2,5.2,10.2,11.6c0,5.8-2.9,11.3-9.4,11.3
		c-2.8,0-5.8-1-7.3-3.4h-0.1V535H993V505.3z M1003.7,508.5c-4,0-6.1,3.1-6.1,7.7c0,4.4,2.2,7.6,6.1,7.6c4.4,0,6-3.9,6-7.6
		C1009.7,512.2,1007.7,508.5,1003.7,508.5z"/>
	<path fill="#FFFFFF" d="M1016.4,505.3h3.6v-6.5h4.8v6.5h4.3v3.6h-4.3v11.6c0,2,0.2,3,2.3,3c0.7,0,1.3,0,2-0.2v3.7
		c-1.1,0.1-2.1,0.3-3.1,0.3c-5,0-5.9-1.9-6-5.5v-12.8h-3.6V505.3z"/>
	<path fill="#FFFFFF" d="M1031.5,516.1c0-6.6,4-11.4,11-11.4c7,0,11,4.8,11,11.4c0,6.7-4,11.5-11,11.5
		C1035.5,527.6,1031.5,522.8,1031.5,516.1z M1048.7,516.1c0-3.7-1.9-7.6-6.2-7.6c-4.3,0-6.2,3.9-6.2,7.6c0,3.8,1.9,7.7,6.2,7.7
		C1046.8,523.8,1048.7,519.9,1048.7,516.1z"/>
	<path fill="#FFFFFF" d="M1072.1,512.5c-0.4-2.6-2.3-4.1-5-4.1c-2.5,0-6,1.3-6,7.9c0,3.6,1.6,7.4,5.8,7.4c2.8,0,4.7-1.8,5.2-5h4.8
		c-0.9,5.6-4.4,8.7-10,8.7c-6.8,0-10.5-4.8-10.5-11.2c0-6.6,3.6-11.7,10.7-11.7c5,0,9.3,2.5,9.8,7.9H1072.1z"/>
	<path fill="#FFFFFF" d="M1099.9,527h-4.7v-3h-0.1c-1.2,2.2-3.8,3.6-6.2,3.6c-5.7,0-8.1-2.9-8.1-8.5v-13.8h4.8v13.3
		c0,3.8,1.6,5.2,4.2,5.2c4,0,5.3-2.6,5.3-5.9v-12.6h4.8V527z"/>
	<path fill="#FFFFFF" d="M1104.9,505.3h4.5v4.2h0.1c0.5-2.3,3.4-4.8,6.3-4.8c1.1,0,1.4,0.1,1.8,0.1v4.6c-0.7-0.1-1.4-0.2-2.1-0.2
		c-3.3,0-5.9,2.6-5.9,7.4V527h-4.8V505.3z"/>
	<path fill="#FFFFFF" d="M1119.7,505.3h4.5v4.2h0.1c0.5-2.3,3.4-4.8,6.3-4.8c1.1,0,1.4,0.1,1.8,0.1v4.6c-0.7-0.1-1.4-0.2-2.1-0.2
		c-3.3,0-5.9,2.6-5.9,7.4V527h-4.8V505.3z"/>
	<path fill="#FFFFFF" d="M1137.5,517.4c0,3.4,1.8,6.4,5.8,6.4c2.8,0,4.5-1.2,5.3-3.6h4.5c-1,4.7-5.1,7.4-9.8,7.4
		c-6.8,0-10.6-4.7-10.6-11.4c0-6.2,4-11.5,10.5-11.5c6.8,0,11,6.2,10.2,12.7H1137.5z M1148.6,514.2c-0.2-3-2.2-5.8-5.5-5.8
		c-3.3,0-5.6,2.5-5.7,5.8H1148.6z"/>
	<path fill="#FFFFFF" d="M1157.1,505.3h4.5v3.2l0.1,0.1c1.4-2.4,3.9-3.9,6.8-3.9c4.7,0,7.7,2.5,7.7,7.4V527h-4.8v-13.7
		c-0.1-3.4-1.4-4.9-4.2-4.9c-3.2,0-5.3,2.5-5.3,5.7V527h-4.8V505.3z"/>
	<path fill="#FFFFFF" d="M1195.8,512.5c-0.4-2.6-2.3-4.1-5-4.1c-2.5,0-6,1.3-6,7.9c0,3.6,1.6,7.4,5.8,7.4c2.8,0,4.7-1.8,5.2-5h4.8
		c-0.9,5.6-4.4,8.7-10,8.7c-6.8,0-10.5-4.8-10.5-11.2c0-6.6,3.6-11.7,10.7-11.7c5,0,9.3,2.5,9.8,7.9H1195.8z"/>
	<path fill="#FFFFFF" d="M1202.1,505.3h5.3l5.7,16.2h0.1l5.5-16.2h5l-8.4,22.9c-1.6,3.9-2.7,7.4-7.7,7.4c-1.1,0-2.2-0.1-3.3-0.3v-4
		c0.8,0.1,1.5,0.3,2.3,0.3c2.2,0,2.8-1.2,3.4-3l0.5-1.7L1202.1,505.3z"/>
	<path fill="#37474F" d="M1256.2,522.2c0,1.2,0.3,1.6,1.1,1.6c0.3,0,0.7,0,1.2-0.1v3.3c-0.7,0.3-2.2,0.5-3,0.5
		c-1.9,0-3.3-0.7-3.7-2.6c-1.9,1.8-5,2.6-7.5,2.6c-3.9,0-7.4-2.1-7.4-6.3c0-5.4,4.3-6.3,8.4-6.8c3.4-0.6,6.5-0.3,6.5-3.1
		c0-2.5-2.6-2.9-4.5-2.9c-2.7,0-4.6,1.1-4.8,3.4h-4.8c0.3-5.6,5.1-7.2,9.9-7.2c4.2,0,8.7,1.7,8.7,6.3V522.2z M1251.4,516.1
		c-1.5,1-3.8,0.9-5.9,1.3c-2.1,0.3-3.9,1.1-3.9,3.6c0,2.1,2.7,2.8,4.4,2.8c2.1,0,5.4-1.1,5.4-4.1V516.1z"/>
	<path fill="#37474F" d="M1261.4,505.3h4.5v3.2l0.1,0.1c1.4-2.4,3.9-3.9,6.8-3.9c4.7,0,7.7,2.5,7.7,7.4V527h-4.8v-13.7
		c-0.1-3.4-1.4-4.9-4.2-4.9c-3.2,0-5.3,2.5-5.3,5.7V527h-4.8V505.3z"/>
	<path fill="#37474F" d="M1303.7,522.2c0,1.2,0.3,1.6,1.1,1.6c0.3,0,0.7,0,1.2-0.1v3.3c-0.7,0.3-2.2,0.5-3,0.5
		c-1.9,0-3.3-0.7-3.7-2.6c-1.9,1.8-5,2.6-7.5,2.6c-3.9,0-7.4-2.1-7.4-6.3c0-5.4,4.3-6.3,8.4-6.8c3.4-0.6,6.5-0.3,6.5-3.1
		c0-2.5-2.6-2.9-4.5-2.9c-2.7,0-4.6,1.1-4.8,3.4h-4.8c0.3-5.6,5.1-7.2,9.9-7.2c4.2,0,8.7,1.7,8.7,6.3V522.2z M1298.9,516.1
		c-1.5,1-3.8,0.9-5.9,1.3c-2.1,0.3-3.9,1.1-3.9,3.6c0,2.1,2.7,2.8,4.4,2.8c2.1,0,5.4-1.1,5.4-4.1V516.1z"/>
	<path fill="#37474F" d="M1308.9,497h4.8v30h-4.8V497z"/>
	<path fill="#37474F" d="M1316.5,505.3h5.3l5.7,16.2h0.1l5.5-16.2h5l-8.4,22.9c-1.6,3.9-2.7,7.4-7.7,7.4c-1.1,0-2.2-0.1-3.3-0.3v-4
		c0.8,0.1,1.5,0.3,2.3,0.3c2.2,0,2.8-1.2,3.4-3l0.5-1.7L1316.5,505.3z"/>
	<path fill="#37474F" d="M1338.6,505.3h3.6v-6.5h4.8v6.5h4.3v3.6h-4.3v11.6c0,2,0.2,3,2.3,3c0.7,0,1.3,0,2-0.2v3.7
		c-1.1,0.1-2.1,0.3-3.1,0.3c-5,0-5.9-1.9-6-5.5v-12.8h-3.6V505.3z"/>
	<path fill="#37474F" d="M1354.9,497h4.8v4.5h-4.8V497z M1354.9,505.3h4.8V527h-4.8V505.3z"/>
	<path fill="#37474F" d="M1379.5,512.5c-0.4-2.6-2.3-4.1-5-4.1c-2.5,0-6,1.3-6,7.9c0,3.6,1.6,7.4,5.8,7.4c2.8,0,4.7-1.8,5.2-5h4.8
		c-0.9,5.6-4.4,8.7-10,8.7c-6.8,0-10.5-4.8-10.5-11.2c0-6.6,3.6-11.7,10.7-11.7c5,0,9.3,2.5,9.8,7.9H1379.5z"/>
	<path fill="#37474F" d="M1391.8,520c0.3,2.8,2.4,3.8,4.9,3.8c1.8,0,5-0.4,4.8-2.9c-0.1-2.5-3.6-2.8-7.1-3.6c-3.5-0.8-7-2-7-6.4
		c0-4.7,5.1-6.2,9.1-6.2c4.5,0,8.5,1.8,9.1,6.7h-5c-0.4-2.3-2.3-2.9-4.4-2.9c-1.4,0-3.9,0.3-3.9,2.2c0,2.4,3.5,2.7,7.1,3.5
		c3.5,0.8,7,2.1,7,6.3c0,5.2-5.2,7.1-9.7,7.1c-5.5,0-9.5-2.4-9.6-7.6H1391.8z"/>
</g>
<rect x="12.4" y="268.1" fill="#8FA3AD" width="2068.3" height="72.6"/>
<g>
	<path fill="#37474F" d="M137.1,313.4c0,7.6,5.9,10.6,12.6,10.6c4.4,0,11.1-1.3,11.1-7.1c0-6.2-8.6-7.2-17-9.4
		c-8.5-2.2-17-5.5-17-16.2c0-11.7,11-17.3,21.4-17.3c11.9,0,22.9,5.2,22.9,18.4H159c-0.4-6.9-5.3-8.6-11.3-8.6c-4,0-8.6,1.7-8.6,6.5
		c0,4.4,2.7,5,17,8.6c4.2,1,17,3.7,17,16.6c0,10.5-8.2,18.3-23.8,18.3c-12.6,0-24.5-6.2-24.3-20.3H137.1z"/>
	<path fill="#37474F" d="M185.3,275.2H211c14.2,0,19.8,9,19.8,18.3s-5.5,18.3-19.8,18.3h-13.2v20.5h-12.6V275.2z M197.8,302.1h9.8
		c5.8,0,11-1.3,11-8.6s-5.2-8.6-11-8.6h-9.8V302.1z"/>
	<path fill="#37474F" d="M269,273.8c17.7,0,28.1,13.2,28.1,30.2c0,16.5-10.4,29.7-28.1,29.7c-17.7,0-28.1-13.2-28.1-29.7
		C241,287,251.4,273.8,269,273.8z M269,323.1c11.3,0,15.5-9.6,15.5-19.1c0-10-4.2-19.6-15.5-19.6s-15.5,9.6-15.5,19.6
		C253.5,313.5,257.8,323.1,269,323.1z"/>
	<path fill="#37474F" d="M323.1,285.8H306v-10.6h46.8v10.6h-17.1v46.6h-12.6V285.8z"/>
	<path fill="#37474F" d="M406.8,275.2h12.9l21.4,57.1h-13l-4.3-12.7h-21.4l-4.5,12.7h-12.7L406.8,275.2z M405.6,310.2h14.8l-7.2-21
		H413L405.6,310.2z"/>
	<path fill="#37474F" d="M450.8,275.2h12.5l23.8,38.3h0.2v-38.3H499v57.1h-12.6l-23.8-38.2h-0.2v38.2h-11.8V275.2z"/>
	<path fill="#37474F" d="M541.9,275.2h12.6v57.1h-12.6V275.2z"/>
	<path fill="#37474F" d="M608.4,294.4c-0.8-5.7-6.2-10-12.5-10c-11.3,0-15.5,9.6-15.5,19.6c0,9.5,4.2,19.1,15.5,19.1
		c7.7,0,12-5.3,13-12.8H621c-1.3,14.2-11.1,23.4-25.1,23.4c-17.7,0-28.1-13.2-28.1-29.7c0-17,10.4-30.2,28.1-30.2
		c12.6,0,23.1,7.4,24.6,20.6H608.4z"/>
	<path fill="#37474F" d="M634.4,275.2h42.7v10.6H647V298h27.7v9.8H647v14h30.8v10.6h-43.4V275.2z"/>
	<path fill="#37474F" d="M691,275.2h26.9c10.9,0,18.2,3.5,18.2,14.2c0,5.6-2.8,9.5-7.8,11.9c7,2,10.5,7.4,10.5,14.5
		c0,11.6-9.8,16.6-20.2,16.6H691V275.2z M703.6,298.3h12.7c4.4,0,7.7-2,7.7-6.8c0-5.4-4.2-6.6-8.6-6.6h-11.8V298.3z M703.6,322.6
		H717c5,0,9.3-1.6,9.3-7.5c0-5.8-3.7-8.2-9-8.2h-13.7V322.6z"/>
	<path fill="#37474F" d="M752.1,275.2h42.7v10.6h-30.2V298h27.7v9.8h-27.7v14h30.8v10.6h-43.4V275.2z"/>
	<path fill="#37474F" d="M808.8,275.2h30.8c10.2,0,16.7,7.1,16.7,15.8c0,6.7-2.7,11.8-9,14.3v0.2c6.2,1.6,7.9,7.6,8.3,13.4
		c0.2,3.6,0.2,10.3,2.4,13.5h-12.6c-1.5-3.6-1.4-9.1-2-13.7c-0.9-6-3.2-8.6-9.5-8.6h-12.6v22.3h-12.6V275.2z M821.3,301h13.8
		c5.6,0,8.6-2.4,8.6-8.2c0-5.5-3-7.9-8.6-7.9h-13.8V301z"/>
	<path fill="#37474F" d="M912.6,325.8c-4.4,5.7-10.2,7.8-15.7,7.8c-17.7,0-28.1-13.2-28.1-29.7c0-17,10.4-30.2,28.1-30.2
		c11.7,0,22.7,7.2,24.1,20.2h-12c-1.4-6.3-6.2-9.6-12.1-9.6c-11.3,0-15.5,9.6-15.5,19.6c0,9.5,4.2,19.1,15.5,19.1
		c8.2,0,12.9-4.4,13.6-12.3h-12.6v-9.4h24v30.9h-8L912.6,325.8z"/>
	<path fill="#37474F" d="M990.9,275.2h40.2v10.6h-27.6V299h23.9v9.8h-23.9v23.6h-12.6V275.2z"/>
	<path fill="#37474F" d="M1043.2,275.2h30.8c10.2,0,16.7,7.1,16.7,15.8c0,6.7-2.7,11.8-9,14.3v0.2c6.2,1.6,7.9,7.6,8.3,13.4
		c0.2,3.6,0.2,10.3,2.4,13.5h-12.6c-1.5-3.6-1.4-9.1-2-13.7c-0.9-6-3.2-8.6-9.5-8.6h-12.6v22.3h-12.6V275.2z M1055.7,301h13.8
		c5.6,0,8.6-2.4,8.6-8.2c0-5.5-3-7.9-8.6-7.9h-13.8V301z"/>
	<path fill="#37474F" d="M1131.3,273.8c17.7,0,28.1,13.2,28.1,30.2c0,16.5-10.4,29.7-28.1,29.7c-17.7,0-28.1-13.2-28.1-29.7
		C1103.3,287,1113.7,273.8,1131.3,273.8z M1131.3,323.1c11.3,0,15.5-9.6,15.5-19.1c0-10-4.2-19.6-15.5-19.6s-15.5,9.6-15.5,19.6
		C1115.8,313.5,1120.1,323.1,1131.3,323.1z"/>
	<path fill="#37474F" d="M1172.8,275.2h17.7l13.4,39.3h0.2l12.6-39.3h17.7v57.1h-11.8v-40.5h-0.2l-14,40.5h-9.7l-14-40.1h-0.2v40.1
		h-11.8V275.2z"/>
	<path fill="#37474F" d="M1292.8,275.2h12.9l21.4,57.1h-13l-4.3-12.7h-21.4l-4.5,12.7h-12.7L1292.8,275.2z M1291.6,310.2h14.8
		l-7.2-21h-0.2L1291.6,310.2z"/>
	<path fill="#37474F" d="M1363.8,275.2h17.7l13.4,39.3h0.2l12.6-39.3h17.7v57.1h-11.8v-40.5h-0.2l-14,40.5h-9.7l-14-40.1h-0.2v40.1
		h-11.8V275.2z"/>
	<path fill="#37474F" d="M1441.2,275.2h12.6v57.1h-12.6V275.2z"/>
	<path fill="#37474F" d="M1469.6,275.2h12.6v46.6h27.8v10.6h-40.4V275.2z"/>
	<path fill="#37474F" d="M1521.8,275.2h42.7v10.6h-30.2V298h27.7v9.8h-27.7v14h30.8v10.6h-43.4V275.2z"/>
	<path fill="#37474F" d="M1621.1,275.2h12.9l21.4,57.1h-13l-4.3-12.7h-21.4l-4.5,12.7h-12.7L1621.1,275.2z M1619.9,310.2h14.8
		l-7.2-21h-0.2L1619.9,310.2z"/>
	<path fill="#37474F" d="M1718.1,332.3h-12.5l-9.7-38.9h-0.2l-9.5,38.9h-12.7l-15.1-57.1h12.6l9,38.9h0.2l9.9-38.9h11.8l9.8,39.4
		h0.2l9.4-39.4h12.3L1718.1,332.3z"/>
	<path fill="#37474F" d="M1758.1,275.2h12.9l21.4,57.1h-13l-4.3-12.7h-21.4l-4.5,12.7h-12.7L1758.1,275.2z M1756.9,310.2h14.8
		l-7.2-21h-0.2L1756.9,310.2z"/>
	<path fill="#37474F" d="M1811,310.1l-21-34.9h14.2l13.4,22.6l13.3-22.6h14l-21.2,35.2v21.9H1811V310.1z"/>
</g>
<g>
</g>
<g>
</g>
<g>
</g>
<g>
</g>
<g>
</g>
<g>
</g>
<g>
</g>
<g>
</g>
<g>
</g>
<g>
</g>
<g>
</g>
<g>
</g>
<g>
</g>
<g>
</g>
<g>
</g>
</svg>
