<?xml version="1.0" encoding="utf-8"?>
<!-- Generator: Adobe Illustrator 18.0.0, SVG Export Plug-In . SVG Version: 6.00 Build 0)  -->
<!DOCTYPE svg PUBLIC "-//W3C//DTD SVG 1.1//EN" "http://www.w3.org/Graphics/SVG/1.1/DTD/svg11.dtd">
<svg version="1.1" id="Layer_1" xmlns="http://www.w3.org/2000/svg" xmlns:xlink="http://www.w3.org/1999/xlink" x="0px" y="0px"
	 viewBox="0 0 786.9 866.9" enable-background="new 0 0 786.9 866.9" xml:space="preserve">
<g>
	<g opacity="0.5">
		<path fill="#959595" d="M332.3,480.4c-0.3-40.7,25.7-67.5,66.4-67.5c33.7,0,60.3,20.2,60.3,55.9c0,26-12.2,35.7-24.3,45.9
			c-14.1,11.9-24.3,20.2-24.3,46.7h-29.9c0-32.4,6.9-43.4,21.6-56.1c11.9-10.2,22.4-16.9,22.4-35.4c0-22.4-17.1-30.7-27.1-30.7
			c-22.7,0-33.5,16.3-33.5,41.2H332.3z M376.3,580.5h37.1v34.6h-37.1V580.5z"/>
	</g>
	<g>
		<polyline fill="#959595" points="466.1,255.8 402,219.3 402,146.4 466.1,109.9 530.1,146.4 		"/>
		<line fill="#959595" stroke="#959595" stroke-miterlimit="10" x1="41.7" y1="322.5" x2="23.2" y2="444.6"/>
		<line fill="#959595" stroke="#959595" stroke-miterlimit="10" x1="775.5" y1="353.7" x2="786.3" y2="444.6"/>
		<path fill="#959595" stroke="#959595" stroke-miterlimit="10" d="M716.9,572.4"/>
		<path fill="#959595" stroke="#959595" stroke-miterlimit="10" d="M140.4,610.3"/>
		<path fill="#959595" stroke="#959595" stroke-miterlimit="10" d="M332.6,567.6"/>
		<polygon fill="#959595" points="141,693.6 141,693.6 76.6,565.2 23.3,444.6 76.4,480 140.4,608.3 140.4,608.3 204.7,736.2 		"/>
		<path fill="#959595" stroke="#959595" stroke-miterlimit="10" d="M460.7,823.8"/>
		<path fill="#959595" stroke="#959595" stroke-miterlimit="10" d="M652.8,613.1"/>
		<path fill="#959595" stroke="#959595" stroke-miterlimit="10" d="M332.6,823.8"/>
		<path fill="#959595" stroke="#959595" stroke-miterlimit="10" d="M204.5,738.6"/>
		<path fill="#959595" stroke="#959595" stroke-miterlimit="10" d="M396.6,696"/>
		<path fill="#959595" stroke="#959595" stroke-miterlimit="10" d="M332.6,823.8"/>
		<path fill="#959595" stroke="#959595" stroke-miterlimit="10" d="M204.5,738.6"/>
		<polygon fill="#959595" stroke="#959595" stroke-miterlimit="10" points="140.4,608.3 140.4,608.3 140.4,608.3 		"/>
		<line fill="#959595" stroke="#959595" stroke-miterlimit="10" x1="652.8" y1="615.1" x2="619.6" y2="684.6"/>
		<line fill="#959595" stroke="#959595" stroke-miterlimit="10" x1="563.2" y1="690.6" x2="546.4" y2="768.4"/>
		<line fill="#959595" stroke="#959595" stroke-miterlimit="10" x1="546.4" y1="768.4" x2="460.7" y2="823.8"/>
		<path fill="#959595" stroke="#959595" stroke-miterlimit="10" d="M42.9,588"/>
		<line fill="#959595" stroke="#959595" stroke-miterlimit="10" x1="786.5" y1="444.6" x2="725" y2="567.2"/>
		<line fill="#959595" stroke="#959595" stroke-miterlimit="10" x1="619.6" y1="684.6" x2="563.2" y2="690.6"/>
		<line fill="#959595" stroke="#959595" stroke-miterlimit="10" x1="332.6" y1="823.8" x2="204.5" y2="736.2"/>
		<path fill="#959595" stroke="#959595" stroke-miterlimit="10" d="M396.6,696"/>
		<line fill="#959595" stroke="#959595" stroke-miterlimit="10" x1="460.7" y1="823.8" x2="396.6" y2="866.5"/>
		<line fill="#959595" stroke="#959595" stroke-miterlimit="10" x1="396.6" y1="866.5" x2="332.6" y2="823.8"/>
		<line fill="#959595" stroke="#959595" stroke-miterlimit="10" x1="652.8" y1="615.1" x2="726" y2="565.2"/>
		<path fill="#959595" stroke="#959595" stroke-miterlimit="10" d="M268.5,696"/>
		<path fill="#959595" stroke="#959595" stroke-miterlimit="10" d="M460.7,487.2"/>
		<path fill="#959595" stroke="#959595" stroke-miterlimit="10" d="M460.7,823.8"/>
		<path fill="#959595" stroke="#959595" stroke-miterlimit="10" d="M396.6,696"/>
		<path fill="#959595" stroke="#959595" stroke-miterlimit="10" d="M268.5,696"/>
		<path fill="#959595" stroke="#959595" stroke-miterlimit="10" d="M396.6,696"/>
		<polyline opacity="0.5" fill="#959595" stroke="#000000" stroke-miterlimit="10" points="209.9,322.5 209.9,252.1 273.9,215.6 		
			"/>
		<polyline opacity="0.5" fill="#959595" stroke="#000000" stroke-miterlimit="10" points="402,219.5 402,289.8 340.6,322.5 		"/>
		<polyline opacity="0.5" fill="#959595" stroke="#000000" stroke-miterlimit="10" points="594.2,321.4 594.2,256.2 658.2,219.7 		
			"/>
		<path fill="#959595" stroke="#959595" stroke-miterlimit="10" d="M466.1,256.2"/>
		<path fill="#959595" stroke="#959595" stroke-miterlimit="10" d="M145.8,217.3"/>
		<path fill="#959595" stroke="#959595" stroke-miterlimit="10" d="M466.1,36.9"/>
		<path fill="#959595" stroke="#959595" stroke-miterlimit="10" d="M594.2,109.9"/>
		<polygon fill="#959595" points="722,256.2 722,322.3 658.1,219.7 594.1,109.9 658,146.4 		"/>
		<line fill="#959595" stroke="#959595" stroke-miterlimit="10" x1="402" y1="219.3" x2="402" y2="146.4"/>
		<path fill="#959595" stroke="#959595" stroke-miterlimit="10" d="M466.1,36.9"/>
		<path fill="#959595" stroke="#959595" stroke-miterlimit="10" d="M594.2,109.9"/>
		<line fill="#959595" stroke="#959595" stroke-miterlimit="10" x1="145.8" y1="215.6" x2="179" y2="156.1"/>
		<line fill="#959595" stroke="#959595" stroke-miterlimit="10" x1="235.4" y1="151" x2="252.2" y2="84.4"/>
		<line fill="#959595" stroke="#959595" stroke-miterlimit="10" x1="252.2" y1="84.4" x2="338" y2="36.9"/>
		<path fill="#959595" stroke="#959595" stroke-miterlimit="10" d="M755.8,238.8"/>
		<line fill="#959595" stroke="#959595" stroke-miterlimit="10" x1="41.7" y1="322.5" x2="81.8" y2="252.1"/>
		<path fill="#959595" stroke="#959595" stroke-miterlimit="10" d="M0,306.8"/>
		<line fill="#959595" stroke="#959595" stroke-miterlimit="10" x1="179" y1="156.1" x2="235.4" y2="151"/>
		<line fill="#959595" stroke="#959595" stroke-miterlimit="10" x1="466.1" y1="36.9" x2="594.2" y2="109.9"/>
		<path fill="#959595" stroke="#959595" stroke-miterlimit="10" d="M402,146.4"/>
		<line opacity="0.5" fill="#959595" stroke="#959595" stroke-miterlimit="10" x1="466.1" y1="255.8" x2="466.1" y2="322.5"/>
		<line fill="#959595" stroke="#959595" stroke-miterlimit="10" x1="775.5" y1="353.7" x2="722.3" y2="322.3"/>
		<line fill="#959595" stroke="#959595" stroke-miterlimit="10" x1="41.7" y1="322.5" x2="722.3" y2="322.5"/>
		<line fill="#959595" stroke="#959595" stroke-miterlimit="10" x1="338" y1="36.9" x2="402" y2="0.4"/>
		<line fill="#959595" stroke="#959595" stroke-miterlimit="10" x1="402" y1="0.4" x2="466.1" y2="36.9"/>
		<line fill="#959595" stroke="#959595" stroke-miterlimit="10" x1="145.8" y1="215.6" x2="81.8" y2="252.1"/>
		<line opacity="0.5" fill="#959595" stroke="#959595" stroke-miterlimit="10" x1="273.9" y1="215.6" x2="338" y2="109.9"/>
		<line opacity="0.5" fill="#959595" stroke="#959595" stroke-miterlimit="10" x1="594.2" y1="256.2" x2="530.1" y2="146.4"/>
		<path fill="#959595" stroke="#959595" stroke-miterlimit="10" d="M338,361.5"/>
		<path fill="#959595" stroke="#959595" stroke-miterlimit="10" d="M338,325.1"/>
		<polyline fill="#959595" points="402,146.4 338,109.9 338,36.9 		"/>
		<line fill="#959595" stroke="#959595" stroke-miterlimit="10" x1="402" y1="219.3" x2="466.1" y2="255.8"/>
	</g>
</g>
<g>
</g>
<g>
</g>
<g>
</g>
<g>
</g>
<g>
</g>
<g>
</g>
<g>
</g>
<g>
</g>
<g>
</g>
<g>
</g>
<g>
</g>
<g>
</g>
<g>
</g>
<g>
</g>
<g>
</g>
</svg>
