<?xml version="1.0" encoding="utf-8"?>
<!-- Generator: Adobe Illustrator 18.0.0, SVG Export Plug-In . SVG Version: 6.00 Build 0)  -->
<!DOCTYPE svg PUBLIC "-//W3C//DTD SVG 1.1//EN" "http://www.w3.org/Graphics/SVG/1.1/DTD/svg11.dtd">
<svg version="1.1" id="Layer_1" xmlns="http://www.w3.org/2000/svg" xmlns:xlink="http://www.w3.org/1999/xlink" x="0px" y="0px"
	 viewBox="0 0 619.9 249" enable-background="new 0 0 619.9 249" xml:space="preserve">
<g>
	<g>
	</g>
	<g>
		<polygon fill="none" points="591,266.7 185,266.7 185,6.9 619.9,6.9 616.4,120.6 		"/>
		<path fill="#959595" d="M208.5,16.4c-0.9-3.4-3.1-6-7.5-6c-6.4,0-9.1,5.7-9.1,11.4c0,5.8,2.7,11.4,9.1,11.4c4.7,0,7.2-3.5,7.6-7.9
			h5.1c-0.4,7.2-5.5,12.1-12.8,12.1c-9,0-14.4-7.1-14.4-15.7c0-8.6,5.4-15.7,14.4-15.7c6.8,0,12.1,3.8,12.7,10.2H208.5z"/>
		<path fill="#959595" d="M221.6,27.2c0,3.4,1.8,6.4,5.8,6.4c2.8,0,4.5-1.2,5.3-3.6h4.5c-1,4.7-5.1,7.4-9.8,7.4
			c-6.8,0-10.6-4.7-10.6-11.4c0-6.2,4-11.5,10.5-11.5c6.8,0,11,6.2,10.2,12.7H221.6z M232.8,24.1c-0.2-3-2.2-5.8-5.5-5.8
			c-3.3,0-5.6,2.5-5.7,5.8H232.8z"/>
		<path fill="#959595" d="M241.2,15.1h4.5v3.2l0.1,0.1c1.4-2.4,3.9-3.9,6.8-3.9c4.7,0,7.7,2.5,7.7,7.4v14.9h-4.8V23.2
			c-0.1-3.4-1.4-4.9-4.2-4.9c-3.2,0-5.3,2.5-5.3,5.7v12.8h-4.8V15.1z"/>
		<path fill="#959595" d="M263.1,15.1h3.6V8.6h4.8v6.5h4.3v3.6h-4.3v11.6c0,2,0.2,3,2.3,3c0.7,0,1.3,0,2-0.2v3.7
			c-1.1,0.1-2.1,0.3-3.1,0.3c-5,0-5.9-1.9-6-5.5V18.7h-3.6V15.1z"/>
		<path fill="#959595" d="M279.3,15.1h4.5v4.2h0.1c0.5-2.3,3.4-4.8,6.3-4.8c1.1,0,1.4,0.1,1.8,0.1v4.6c-0.7-0.1-1.4-0.2-2.1-0.2
			c-3.3,0-5.9,2.6-5.9,7.4v10.3h-4.8V15.1z"/>
		<path fill="#959595" d="M312.3,32c0,1.2,0.3,1.6,1.1,1.6c0.3,0,0.7,0,1.2-0.1v3.3c-0.7,0.3-2.2,0.5-3,0.5c-1.9,0-3.3-0.7-3.7-2.6
			c-1.9,1.8-5,2.6-7.5,2.6c-3.9,0-7.4-2.1-7.4-6.3c0-5.4,4.3-6.3,8.4-6.8c3.4-0.6,6.5-0.3,6.5-3.1c0-2.5-2.6-2.9-4.5-2.9
			c-2.7,0-4.6,1.1-4.8,3.4h-4.8c0.3-5.6,5.1-7.2,9.9-7.2c4.2,0,8.7,1.7,8.7,6.3V32z M307.5,26c-1.5,1-3.8,0.9-5.9,1.3
			c-2.1,0.3-3.9,1.1-3.9,3.6c0,2.1,2.7,2.8,4.4,2.8c2.1,0,5.4-1.1,5.4-4.1V26z"/>
		<path fill="#959595" d="M317.6,6.9h4.8v30h-4.8V6.9z"/>
		<path fill="#959595" d="M327.7,6.9h4.8v4.5h-4.8V6.9z M327.7,15.1h4.8v21.7h-4.8V15.1z"/>
		<path fill="#959595" d="M341.3,29.9c0.3,2.8,2.4,3.8,4.9,3.8c1.8,0,5-0.4,4.8-2.9c-0.1-2.5-3.6-2.8-7.1-3.6c-3.5-0.8-7-2-7-6.4
			c0-4.7,5.1-6.2,9.1-6.2c4.5,0,8.5,1.8,9.1,6.7h-5c-0.4-2.3-2.3-2.9-4.4-2.9c-1.4,0-3.9,0.3-3.9,2.2c0,2.4,3.5,2.7,7.1,3.5
			c3.5,0.8,7,2.1,7,6.3c0,5.2-5.2,7.1-9.7,7.1c-5.5,0-9.5-2.4-9.6-7.6H341.3z"/>
		<path fill="#959595" d="M377.7,32c0,1.2,0.3,1.6,1.1,1.6c0.3,0,0.7,0,1.2-0.1v3.3c-0.7,0.3-2.2,0.5-3,0.5c-1.9,0-3.3-0.7-3.7-2.6
			c-1.9,1.8-5,2.6-7.5,2.6c-3.9,0-7.4-2.1-7.4-6.3c0-5.4,4.3-6.3,8.4-6.8c3.4-0.6,6.5-0.3,6.5-3.1c0-2.5-2.6-2.9-4.5-2.9
			c-2.7,0-4.6,1.1-4.8,3.4h-4.8c0.3-5.6,5.1-7.2,9.9-7.2c4.2,0,8.7,1.7,8.7,6.3V32z M372.9,26c-1.5,1-3.8,0.9-5.9,1.3
			c-2.1,0.3-3.9,1.1-3.9,3.6c0,2.1,2.7,2.8,4.4,2.8c2.1,0,5.4-1.1,5.4-4.1V26z"/>
		<path fill="#959595" d="M380.7,15.1h3.6V8.6h4.8v6.5h4.3v3.6h-4.3v11.6c0,2,0.2,3,2.3,3c0.7,0,1.3,0,2-0.2v3.7
			c-1.1,0.1-2.1,0.3-3.1,0.3c-5,0-5.9-1.9-6-5.5V18.7h-3.6V15.1z"/>
		<path fill="#959595" d="M397,6.9h4.8v4.5H397V6.9z M397,15.1h4.8v21.7H397V15.1z"/>
		<path fill="#959595" d="M405.9,26c0-6.6,4-11.4,11-11.4c7,0,11,4.8,11,11.4c0,6.7-4,11.5-11,11.5C409.9,37.4,405.9,32.7,405.9,26z
			 M423.1,26c0-3.7-1.9-7.6-6.2-7.6c-4.3,0-6.2,3.9-6.2,7.6c0,3.8,1.9,7.7,6.2,7.7C421.2,33.7,423.1,29.8,423.1,26z"/>
		<path fill="#959595" d="M431.9,15.1h4.5v3.2l0.1,0.1c1.4-2.4,3.9-3.9,6.8-3.9c4.7,0,7.7,2.5,7.7,7.4v14.9h-4.8V23.2
			c-0.1-3.4-1.4-4.9-4.2-4.9c-3.2,0-5.3,2.5-5.3,5.7v12.8h-4.8V15.1z"/>
		<path fill="#959595" d="M187,62h2v3.2h-2V62z M187,68.3h2v16.5h-2V68.3z"/>
		<path fill="#959595" d="M202.8,73.2c-0.1-2.5-2-3.6-4.3-3.6c-1.8,0-3.9,0.7-3.9,2.8c0,1.8,2,2.4,3.4,2.8l2.7,0.6
			c2.3,0.4,4.7,1.7,4.7,4.6c0,3.6-3.6,5-6.6,5c-3.8,0-6.5-1.8-6.8-5.8h2c0.2,2.7,2.2,4.1,4.9,4.1c1.9,0,4.5-0.8,4.5-3.1
			c0-1.9-1.8-2.6-3.6-3l-2.6-0.6c-2.6-0.7-4.6-1.6-4.6-4.4c0-3.4,3.3-4.6,6.2-4.6c3.3,0,5.9,1.7,6,5.3H202.8z"/>
		<path fill="#959595" d="M220.4,68.3h3.4V70h-3.4v11.1c0,1.3,0.2,2.1,1.6,2.2c0.6,0,1.2,0,1.7-0.1V85c-0.6,0-1.2,0.1-1.8,0.1
			c-2.7,0-3.6-0.9-3.6-3.7V70h-2.9v-1.7h2.9v-5h2V68.3z"/>
		<path fill="#959595" d="M226.6,62h2v9.2h0.1c0.7-2,2.9-3.3,5.3-3.3c4.6,0,6,2.4,6,6.4v10.6h-2V74.6c0-2.8-0.9-5-4.2-5
			c-3.2,0-5.1,2.4-5.2,5.7v9.6h-2V62z"/>
		<path fill="#959595" d="M245,77.1c0,2.9,1.6,6.5,5.4,6.5c2.9,0,4.5-1.7,5.2-4.2h2c-0.9,3.7-3,5.9-7.2,5.9c-5.2,0-7.5-4-7.5-8.7
			c0-4.4,2.2-8.7,7.5-8.7c5.3,0,7.4,4.6,7.3,9.3H245z M255.7,75.4c-0.1-3-2-5.9-5.2-5.9c-3.3,0-5.1,2.9-5.4,5.9H255.7z"/>
		<path fill="#959595" d="M281,73.5c-0.5-2.5-2-4-4.7-4c-3.9,0-5.8,3.5-5.8,7c0,3.5,1.9,7,5.8,7c2.5,0,4.5-2,4.8-4.7h2
			c-0.5,4-3.1,6.4-6.8,6.4c-5.1,0-7.8-4-7.8-8.7c0-4.7,2.8-8.7,7.8-8.7c3.5,0,6.2,1.9,6.7,5.7H281z"/>
		<path fill="#959595" d="M300.7,76.6c0,4.7-2.8,8.7-7.8,8.7s-7.8-4-7.8-8.7c0-4.7,2.8-8.7,7.8-8.7S300.7,71.9,300.7,76.6z
			 M287.1,76.6c0,3.5,1.9,7,5.8,7c3.9,0,5.8-3.5,5.8-7c0-3.5-1.9-7-5.8-7C289,69.6,287.1,73.1,287.1,76.6z"/>
		<path fill="#959595" d="M303.7,68.3h2v2.8h0.1c0.7-2,2.9-3.3,5.3-3.3c4.6,0,6,2.4,6,6.4v10.6h-2V74.6c0-2.8-0.9-5-4.2-5
			c-3.2,0-5.1,2.4-5.2,5.7v9.6h-2V68.3z"/>
		<path fill="#959595" d="M332.5,73.5c-0.5-2.5-2-4-4.7-4c-3.9,0-5.8,3.5-5.8,7c0,3.5,1.9,7,5.8,7c2.5,0,4.5-2,4.8-4.7h2
			c-0.5,4-3.1,6.4-6.8,6.4c-5.1,0-7.8-4-7.8-8.7c0-4.7,2.8-8.7,7.8-8.7c3.5,0,6.2,1.9,6.7,5.7H332.5z"/>
		<path fill="#959595" d="M338.7,77.1c0,2.9,1.6,6.5,5.4,6.5c2.9,0,4.5-1.7,5.2-4.2h2c-0.9,3.7-3,5.9-7.2,5.9c-5.2,0-7.5-4-7.5-8.7
			c0-4.4,2.2-8.7,7.5-8.7c5.3,0,7.4,4.6,7.3,9.3H338.7z M349.4,75.4c-0.1-3-2-5.9-5.2-5.9c-3.3,0-5.1,2.9-5.4,5.9H349.4z"/>
		<path fill="#959595" d="M354.1,68.3h2v2.8h0.1c0.7-2,2.9-3.3,5.3-3.3c4.6,0,6,2.4,6,6.4v10.6h-2V74.6c0-2.8-0.9-5-4.2-5
			c-3.2,0-5.1,2.4-5.2,5.7v9.6h-2V68.3z"/>
		<path fill="#959595" d="M374.5,68.3h3.4V70h-3.4v11.1c0,1.3,0.2,2.1,1.6,2.2c0.6,0,1.2,0,1.7-0.1V85c-0.6,0-1.2,0.1-1.8,0.1
			c-2.7,0-3.6-0.9-3.6-3.7V70h-2.9v-1.7h2.9v-5h2V68.3z"/>
		<path fill="#959595" d="M380.8,68.3h1.9v3.9h0.1c1-2.7,3.3-4.2,6.2-4.1v2c-3.6-0.2-6.1,2.5-6.1,5.9v8.8h-2V68.3z"/>
		<path fill="#959595" d="M390.7,73.4c0.2-3.9,2.9-5.5,6.7-5.5c2.9,0,6.1,0.9,6.1,5.3v8.8c0,0.8,0.4,1.2,1.2,1.2
			c0.2,0,0.5-0.1,0.6-0.1v1.7c-0.4,0.1-0.8,0.1-1.3,0.1c-2,0-2.4-1.2-2.4-2.9h-0.1c-1.4,2.1-2.8,3.4-6,3.4c-3,0-5.5-1.5-5.5-4.8
			c0-4.6,4.5-4.8,8.9-5.3c1.7-0.2,2.6-0.4,2.6-2.2c0-2.7-2-3.4-4.3-3.4c-2.5,0-4.4,1.2-4.4,3.8H390.7z M401.4,75.8L401.4,75.8
			c-0.3,0.5-1.2,0.6-1.8,0.7c-3.4,0.6-7.7,0.6-7.7,3.8c0,2,1.8,3.3,3.7,3.3c3.1,0,5.8-2,5.8-5.2V75.8z"/>
		<path fill="#959595" d="M410.7,68.3h3.4V70h-3.4v11.1c0,1.3,0.2,2.1,1.6,2.2c0.6,0,1.2,0,1.7-0.1V85c-0.6,0-1.2,0.1-1.8,0.1
			c-2.7,0-3.6-0.9-3.6-3.7V70h-2.9v-1.7h2.9v-5h2V68.3z"/>
		<path fill="#959595" d="M417,62h2v3.2h-2V62z M417,68.3h2v16.5h-2V68.3z"/>
		<path fill="#959595" d="M437.6,76.6c0,4.7-2.8,8.7-7.8,8.7s-7.8-4-7.8-8.7c0-4.7,2.8-8.7,7.8-8.7S437.6,71.9,437.6,76.6z
			 M424,76.6c0,3.5,1.9,7,5.8,7c3.9,0,5.8-3.5,5.8-7c0-3.5-1.9-7-5.8-7C425.9,69.6,424,73.1,424,76.6z"/>
		<path fill="#959595" d="M440.6,68.3h2v2.8h0.1c0.7-2,2.9-3.3,5.3-3.3c4.6,0,6,2.4,6,6.4v10.6h-2V74.6c0-2.8-0.9-5-4.2-5
			c-3.2,0-5.1,2.4-5.2,5.7v9.6h-2V68.3z"/>
		<path fill="#959595" d="M481.5,76.6c0,4.7-2.8,8.7-7.8,8.7s-7.8-4-7.8-8.7c0-4.7,2.8-8.7,7.8-8.7S481.5,71.9,481.5,76.6z
			 M467.9,76.6c0,3.5,1.9,7,5.8,7c3.9,0,5.8-3.5,5.8-7c0-3.5-1.9-7-5.8-7C469.8,69.6,467.9,73.1,467.9,76.6z"/>
		<path fill="#959595" d="M490.9,70h-3.3v14.8h-2V70h-2.8v-1.7h2.8v-1.5c0-2.8,0.8-4.8,4-4.8c0.6,0,1.1,0,1.7,0.1v1.7
			c-0.5-0.1-1-0.2-1.5-0.2c-2.2,0-2.2,1.4-2.2,3.2v1.4h3.3V70z"/>
		<path fill="#959595" d="M501.7,68.3h1.9v3.1h0.1c0.9-2.2,3.2-3.6,5.9-3.6c5,0,7.4,4.1,7.4,8.7c0,4.7-2.4,8.7-7.4,8.7
			c-2.5,0-4.9-1.2-5.7-3.6h-0.1V91h-2V68.3z M509.5,69.6c-4.4,0-5.8,3.3-5.8,7c0,3.4,1.5,7,5.8,7c3.8,0,5.4-3.6,5.4-7
			C514.9,73.2,513.3,69.6,509.5,69.6z"/>
		<path fill="#959595" d="M534.8,76.6c0,4.7-2.8,8.7-7.8,8.7s-7.8-4-7.8-8.7c0-4.7,2.8-8.7,7.8-8.7S534.8,71.9,534.8,76.6z
			 M521.2,76.6c0,3.5,1.9,7,5.8,7c3.9,0,5.8-3.5,5.8-7c0-3.5-1.9-7-5.8-7C523.2,69.6,521.2,73.1,521.2,76.6z"/>
		<path fill="#959595" d="M536.2,68.3h2.1l4.2,14.1h0.1l4-14.1h2.3l4,14.1h0.1l4.2-14.1h2.1l-5.3,16.5h-2.2L547.8,71h-0.1l-4,13.9
			h-2.2L536.2,68.3z"/>
		<path fill="#959595" d="M562.7,77.1c0,2.9,1.6,6.5,5.4,6.5c2.9,0,4.5-1.7,5.2-4.2h2c-0.9,3.7-3,5.9-7.2,5.9c-5.2,0-7.5-4-7.5-8.7
			c0-4.4,2.2-8.7,7.5-8.7c5.3,0,7.4,4.6,7.3,9.3H562.7z M573.4,75.4c-0.1-3-2-5.9-5.2-5.9c-3.3,0-5.1,2.9-5.4,5.9H573.4z"/>
		<path fill="#959595" d="M578.2,68.3h1.9v3.9h0.1c1-2.7,3.3-4.2,6.2-4.1v2c-3.6-0.2-6.1,2.5-6.1,5.9v8.8h-2V68.3z"/>
		<path fill="#959595" d="M201.7,124.6c0,4.7-2.8,8.7-7.8,8.7s-7.8-4-7.8-8.7c0-4.7,2.8-8.7,7.8-8.7S201.7,119.9,201.7,124.6z
			 M188.1,124.6c0,3.5,1.9,7,5.8,7c3.9,0,5.8-3.5,5.8-7c0-3.5-1.9-7-5.8-7C190,117.6,188.1,121.1,188.1,124.6z"/>
		<path fill="#959595" d="M202.9,116.3h2.2l5.2,14.5h0.1l5.1-14.5h2.1l-6.2,16.5h-2.1L202.9,116.3z"/>
		<path fill="#959595" d="M220.7,125.1c0,2.9,1.6,6.5,5.4,6.5c2.9,0,4.5-1.7,5.2-4.2h2c-0.9,3.7-3,5.9-7.2,5.9c-5.2,0-7.5-4-7.5-8.7
			c0-4.4,2.2-8.7,7.5-8.7c5.3,0,7.4,4.6,7.3,9.3H220.7z M231.4,123.4c-0.1-3-2-5.9-5.2-5.9c-3.3,0-5.1,2.9-5.4,5.9H231.4z"/>
		<path fill="#959595" d="M236.2,116.3h1.9v3.9h0.1c1-2.7,3.3-4.2,6.2-4.1v2c-3.6-0.2-6.1,2.5-6.1,5.9v8.8h-2V116.3z"/>
		<path fill="#959595" d="M269.1,131.5c0,4.9-1.9,7.9-7.3,7.9c-3.3,0-6.6-1.5-6.8-5h2c0.4,2.4,2.6,3.3,4.8,3.3
			c3.7,0,5.3-2.2,5.3-6.2v-2.2H267c-0.9,2-2.9,3.4-5.2,3.4c-5.3,0-7.5-3.8-7.5-8.5c0-4.5,2.7-8.3,7.5-8.3c2.4,0,4.4,1.5,5.2,3.3h0.1
			v-2.8h2V131.5z M267.1,124.4c0-3.2-1.5-6.8-5.3-6.8c-3.8,0-5.4,3.4-5.4,6.8c0,3.3,1.7,6.6,5.4,6.6
			C265.2,131,267.1,127.8,267.1,124.4z"/>
		<path fill="#959595" d="M273,110h2v22.8h-2V110z"/>
		<path fill="#959595" d="M293.6,124.6c0,4.7-2.8,8.7-7.8,8.7s-7.8-4-7.8-8.7c0-4.7,2.8-8.7,7.8-8.7S293.6,119.9,293.6,124.6z
			 M280,124.6c0,3.5,1.9,7,5.8,7c3.9,0,5.8-3.5,5.8-7c0-3.5-1.9-7-5.8-7C282,117.6,280,121.1,280,124.6z"/>
		<path fill="#959595" d="M296.6,110h2v9.5h0.1c0.9-2.4,3.3-3.6,5.7-3.6c5,0,7.4,4.1,7.4,8.7c0,4.7-2.4,8.7-7.4,8.7
			c-2.7,0-5-1.4-5.9-3.6h-0.1v3.1h-1.9V110z M304.4,117.6c-4.3,0-5.8,3.6-5.8,7c0,3.4,1.5,7,5.8,7c3.8,0,5.4-3.6,5.4-7
			C309.9,121.2,308.3,117.6,304.4,117.6z"/>
		<path fill="#959595" d="M314.8,121.4c0.2-3.9,2.9-5.5,6.7-5.5c2.9,0,6.1,0.9,6.1,5.3v8.8c0,0.8,0.4,1.2,1.2,1.2
			c0.2,0,0.5-0.1,0.6-0.1v1.7c-0.4,0.1-0.8,0.1-1.3,0.1c-2,0-2.4-1.2-2.4-2.9h-0.1c-1.4,2.1-2.8,3.4-6,3.4c-3,0-5.5-1.5-5.5-4.8
			c0-4.6,4.5-4.8,8.9-5.3c1.7-0.2,2.6-0.4,2.6-2.2c0-2.7-2-3.4-4.3-3.4c-2.5,0-4.4,1.2-4.4,3.8H314.8z M325.6,123.8L325.6,123.8
			c-0.3,0.5-1.2,0.6-1.8,0.7c-3.4,0.6-7.7,0.6-7.7,3.8c0,2,1.8,3.3,3.7,3.3c3.1,0,5.8-2,5.8-5.2V123.8z"/>
		<path fill="#959595" d="M331.6,110h2v22.8h-2V110z"/>
		<path fill="#959595" d="M346.5,110h2v3.2h-2V110z M346.5,116.3h2v16.5h-2V116.3z"/>
		<path fill="#959595" d="M352.3,116.3h2v2.8h0.1c0.7-2,2.9-3.3,5.3-3.3c4.6,0,6,2.4,6,6.4v10.6h-2v-10.3c0-2.8-0.9-5-4.2-5
			c-3.2,0-5.1,2.4-5.2,5.7v9.6h-2V116.3z"/>
		<path fill="#959595" d="M375.9,118h-3.3v14.8h-2V118h-2.8v-1.7h2.8v-1.5c0-2.8,0.8-4.8,4-4.8c0.6,0,1.1,0,1.7,0.1v1.7
			c-0.5-0.1-1-0.2-1.5-0.2c-2.2,0-2.2,1.4-2.2,3.2v1.4h3.3V118z"/>
		<path fill="#959595" d="M377.8,116.3h1.9v3.9h0.1c1-2.7,3.3-4.2,6.2-4.1v2c-3.6-0.2-6.1,2.5-6.1,5.9v8.8h-2V116.3z"/>
		<path fill="#959595" d="M387.7,121.4c0.2-3.9,2.9-5.5,6.7-5.5c2.9,0,6.1,0.9,6.1,5.3v8.8c0,0.8,0.4,1.2,1.2,1.2
			c0.2,0,0.5-0.1,0.6-0.1v1.7c-0.4,0.1-0.8,0.1-1.3,0.1c-2,0-2.4-1.2-2.4-2.9h-0.1c-1.4,2.1-2.8,3.4-6,3.4c-3,0-5.5-1.5-5.5-4.8
			c0-4.6,4.5-4.8,8.9-5.3c1.7-0.2,2.6-0.4,2.6-2.2c0-2.7-2-3.4-4.3-3.4c-2.5,0-4.4,1.2-4.4,3.8H387.7z M398.5,123.8L398.5,123.8
			c-0.3,0.5-1.2,0.6-1.8,0.7c-3.4,0.6-7.7,0.6-7.7,3.8c0,2,1.8,3.3,3.7,3.3c3.1,0,5.8-2,5.8-5.2V123.8z"/>
		<path fill="#959595" d="M414.4,121.2c-0.1-2.5-2-3.6-4.3-3.6c-1.8,0-3.9,0.7-3.9,2.8c0,1.8,2,2.4,3.4,2.8l2.7,0.6
			c2.3,0.4,4.7,1.7,4.7,4.6c0,3.6-3.6,5-6.6,5c-3.8,0-6.5-1.8-6.8-5.8h2c0.2,2.7,2.2,4.1,4.9,4.1c1.9,0,4.5-0.8,4.5-3.1
			c0-1.9-1.8-2.6-3.6-3l-2.6-0.6c-2.6-0.7-4.6-1.6-4.6-4.4c0-3.4,3.3-4.6,6.2-4.6c3.3,0,5.9,1.7,6,5.3H414.4z"/>
		<path fill="#959595" d="M423.1,116.3h3.4v1.7h-3.4v11.1c0,1.3,0.2,2.1,1.6,2.2c0.6,0,1.2,0,1.7-0.1v1.7c-0.6,0-1.2,0.1-1.8,0.1
			c-2.7,0-3.6-0.9-3.6-3.7V118h-2.9v-1.7h2.9v-5h2V116.3z"/>
		<path fill="#959595" d="M429.4,116.3h1.9v3.9h0.1c1-2.7,3.3-4.2,6.2-4.1v2c-3.6-0.2-6.1,2.5-6.1,5.9v8.8h-2V116.3z"/>
		<path fill="#959595" d="M452.8,132.9H451v-3h-0.1c-1.1,2.2-3.2,3.5-5.7,3.5c-4.2,0-5.8-2.4-5.8-6.3v-10.7h2v10.8
			c0.1,3,1.2,4.5,4.4,4.5c3.5,0,5-3.3,5-6.6v-8.7h2V132.9z"/>
		<path fill="#959595" d="M468.3,121.5c-0.5-2.5-2-4-4.7-4c-3.9,0-5.8,3.5-5.8,7c0,3.5,1.9,7,5.8,7c2.5,0,4.5-2,4.8-4.7h2
			c-0.5,4-3.1,6.4-6.8,6.4c-5.1,0-7.8-4-7.8-8.7c0-4.7,2.8-8.7,7.8-8.7c3.5,0,6.2,1.9,6.7,5.7H468.3z"/>
		<path fill="#959595" d="M476.4,116.3h3.4v1.7h-3.4v11.1c0,1.3,0.2,2.1,1.6,2.2c0.6,0,1.2,0,1.7-0.1v1.7c-0.6,0-1.2,0.1-1.8,0.1
			c-2.7,0-3.6-0.9-3.6-3.7V118h-2.9v-1.7h2.9v-5h2V116.3z"/>
		<path fill="#959595" d="M496.1,132.9h-1.9v-3h-0.1c-1.1,2.2-3.2,3.5-5.7,3.5c-4.2,0-5.8-2.4-5.8-6.3v-10.7h2v10.8
			c0.1,3,1.2,4.5,4.4,4.5c3.5,0,5-3.3,5-6.6v-8.7h2V132.9z"/>
		<path fill="#959595" d="M499.9,116.3h1.9v3.9h0.1c1-2.7,3.3-4.2,6.2-4.1v2c-3.6-0.2-6.1,2.5-6.1,5.9v8.8h-2V116.3z"/>
		<path fill="#959595" d="M510.6,125.1c0,2.9,1.6,6.5,5.4,6.5c2.9,0,4.5-1.7,5.2-4.2h2c-0.9,3.7-3,5.9-7.2,5.9c-5.2,0-7.5-4-7.5-8.7
			c0-4.4,2.2-8.7,7.5-8.7c5.3,0,7.4,4.6,7.3,9.3H510.6z M521.3,123.4c-0.1-3-2-5.9-5.2-5.9c-3.3,0-5.1,2.9-5.4,5.9H521.3z"/>
		<path fill="#959595" d="M527.2,132.9v-3.4h2.7v3.4H527.2z"/>
		<path fill="#959595" d="M541.9,110h2.3l5.2,20h0.1l5.6-20h2.7l5.6,20h0.1l5.2-20h2.2l-6.3,22.8h-2.3l-5.8-20.4h-0.1l-5.8,20.4
			h-2.4L541.9,110z"/>
		<path fill="#959595" d="M573.4,125.1c0,2.9,1.6,6.5,5.4,6.5c2.9,0,4.5-1.7,5.2-4.2h2c-0.9,3.7-3,5.9-7.2,5.9c-5.2,0-7.5-4-7.5-8.7
			c0-4.4,2.2-8.7,7.5-8.7c5.3,0,7.4,4.6,7.3,9.3H573.4z M584.1,123.4c-0.1-3-2-5.9-5.2-5.9c-3.3,0-5.1,2.9-5.4,5.9H584.1z"/>
		<path fill="#959595" d="M186.9,164.3h1.9v2.8h0.1c1.1-2,2.8-3.3,5.4-3.3c2.2,0,4.1,1.1,4.7,3.2c1-2.2,3.1-3.2,5.2-3.2
			c3.6,0,5.5,1.9,5.5,5.8v11.2h-2v-11.1c0-2.7-1-4.2-3.9-4.2c-3.5,0-4.5,2.9-4.5,6v9.3h-2v-11.2c0-2.2-0.9-4.1-3.5-4.1
			c-3.5,0-4.9,2.6-4.9,6.1v9.2h-2V164.3z"/>
		<path fill="#959595" d="M214.8,173.1c0,2.9,1.6,6.5,5.4,6.5c2.9,0,4.5-1.7,5.2-4.2h2c-0.9,3.7-3,5.9-7.2,5.9c-5.2,0-7.5-4-7.5-8.7
			c0-4.4,2.2-8.7,7.5-8.7c5.3,0,7.4,4.6,7.3,9.3H214.8z M225.5,171.4c-0.1-3-2-5.9-5.2-5.9c-3.3,0-5.1,2.9-5.4,5.9H225.5z"/>
		<path fill="#959595" d="M230,169.4c0.2-3.9,2.9-5.5,6.7-5.5c2.9,0,6.1,0.9,6.1,5.3v8.8c0,0.8,0.4,1.2,1.2,1.2
			c0.2,0,0.5-0.1,0.6-0.1v1.7c-0.4,0.1-0.8,0.1-1.3,0.1c-2,0-2.4-1.2-2.4-2.9h-0.1c-1.4,2.1-2.8,3.4-6,3.4c-3,0-5.5-1.5-5.5-4.8
			c0-4.6,4.5-4.8,8.9-5.3c1.7-0.2,2.6-0.4,2.6-2.2c0-2.7-2-3.4-4.3-3.4c-2.5,0-4.4,1.2-4.4,3.8H230z M240.8,171.8L240.8,171.8
			c-0.3,0.5-1.2,0.6-1.8,0.7c-3.4,0.6-7.7,0.6-7.7,3.8c0,2,1.8,3.3,3.7,3.3c3.1,0,5.8-2,5.8-5.2V171.8z"/>
		<path fill="#959595" d="M256.7,169.2c-0.1-2.5-2-3.6-4.3-3.6c-1.8,0-3.9,0.7-3.9,2.8c0,1.8,2,2.4,3.4,2.8l2.7,0.6
			c2.3,0.4,4.7,1.7,4.7,4.6c0,3.6-3.6,5-6.6,5c-3.8,0-6.5-1.8-6.8-5.8h2c0.2,2.7,2.2,4.1,4.9,4.1c1.9,0,4.5-0.8,4.5-3.1
			c0-1.9-1.8-2.6-3.6-3l-2.6-0.6c-2.6-0.7-4.6-1.6-4.6-4.4c0-3.4,3.3-4.6,6.2-4.6c3.3,0,5.9,1.7,6,5.3H256.7z"/>
		<path fill="#959595" d="M275.6,180.9h-1.9v-3h-0.1c-1.1,2.2-3.2,3.5-5.7,3.5c-4.2,0-5.8-2.4-5.8-6.3v-10.7h2v10.8
			c0.1,3,1.2,4.5,4.4,4.5c3.5,0,5-3.3,5-6.6v-8.7h2V180.9z"/>
		<path fill="#959595" d="M279.4,164.3h1.9v3.9h0.1c1-2.7,3.3-4.2,6.2-4.1v2c-3.6-0.2-6.1,2.5-6.1,5.9v8.8h-2V164.3z"/>
		<path fill="#959595" d="M290.1,173.1c0,2.9,1.6,6.5,5.4,6.5c2.9,0,4.5-1.7,5.2-4.2h2c-0.9,3.7-3,5.9-7.2,5.9c-5.2,0-7.5-4-7.5-8.7
			c0-4.4,2.2-8.7,7.5-8.7c5.3,0,7.4,4.6,7.3,9.3H290.1z M300.8,171.4c-0.1-3-2-5.9-5.2-5.9c-3.3,0-5.1,2.9-5.4,5.9H300.8z"/>
		<path fill="#959595" d="M317.6,164.3h3.4v1.7h-3.4v11.1c0,1.3,0.2,2.1,1.6,2.2c0.6,0,1.2,0,1.7-0.1v1.7c-0.6,0-1.2,0.1-1.8,0.1
			c-2.7,0-3.6-0.9-3.6-3.7V166h-2.9v-1.7h2.9v-5h2V164.3z"/>
		<path fill="#959595" d="M323.8,158h2v9.2h0.1c0.7-2,2.9-3.3,5.3-3.3c4.6,0,6,2.4,6,6.4v10.6h-2v-10.3c0-2.8-0.9-5-4.2-5
			c-3.2,0-5.1,2.4-5.2,5.7v9.6h-2V158z"/>
		<path fill="#959595" d="M341.1,158h2v3.2h-2V158z M341.1,164.3h2v16.5h-2V164.3z"/>
		<path fill="#959595" d="M356.9,169.2c-0.1-2.5-2-3.6-4.3-3.6c-1.8,0-3.9,0.7-3.9,2.8c0,1.8,2,2.4,3.4,2.8l2.7,0.6
			c2.3,0.4,4.7,1.7,4.7,4.6c0,3.6-3.6,5-6.6,5c-3.8,0-6.5-1.8-6.8-5.8h2c0.2,2.7,2.2,4.1,4.9,4.1c1.9,0,4.5-0.8,4.5-3.1
			c0-1.9-1.8-2.6-3.6-3l-2.6-0.6c-2.6-0.7-4.6-1.6-4.6-4.4c0-3.4,3.3-4.6,6.2-4.6c3.3,0,5.9,1.7,6,5.3H356.9z"/>
		<path fill="#959595" d="M371.3,164.3h1.9v3.9h0.1c1-2.7,3.3-4.2,6.2-4.1v2c-3.6-0.2-6.1,2.5-6.1,5.9v8.8h-2V164.3z"/>
		<path fill="#959595" d="M381.4,158h2v3.2h-2V158z M381.4,164.3h2v16.5h-2V164.3z"/>
		<path fill="#959595" d="M397.2,169.2c-0.1-2.5-2-3.6-4.3-3.6c-1.8,0-3.9,0.7-3.9,2.8c0,1.8,2,2.4,3.4,2.8l2.7,0.6
			c2.3,0.4,4.7,1.7,4.7,4.6c0,3.6-3.6,5-6.6,5c-3.8,0-6.5-1.8-6.8-5.8h2c0.2,2.7,2.2,4.1,4.9,4.1c1.9,0,4.5-0.8,4.5-3.1
			c0-1.9-1.8-2.6-3.6-3l-2.6-0.6c-2.6-0.7-4.6-1.6-4.6-4.4c0-3.4,3.3-4.6,6.2-4.6c3.3,0,5.9,1.7,6,5.3H397.2z"/>
		<path fill="#959595" d="M402.7,158h2v14.3l9.2-8h2.7l-7,6.1l7.5,10.4h-2.5l-6.5-9l-3.3,2.7v6.3h-2V158z"/>
		<path fill="#959595" d="M425.9,164.3h2.1l4.2,14.1h0.1l4-14.1h2.3l4,14.1h0.1l4.2-14.1h2.1l-5.3,16.5h-2.2l-4.1-13.9h-0.1l-4,13.9
			h-2.2L425.9,164.3z"/>
		<path fill="#959595" d="M451.3,158h2v3.2h-2V158z M451.3,164.3h2v16.5h-2V164.3z"/>
		<path fill="#959595" d="M460.4,164.3h3.4v1.7h-3.4v11.1c0,1.3,0.2,2.1,1.6,2.2c0.6,0,1.2,0,1.7-0.1v1.7c-0.6,0-1.2,0.1-1.8,0.1
			c-2.7,0-3.6-0.9-3.6-3.7V166h-2.9v-1.7h2.9v-5h2V164.3z"/>
		<path fill="#959595" d="M466.6,158h2v9.2h0.1c0.7-2,2.9-3.3,5.3-3.3c4.6,0,6,2.4,6,6.4v10.6h-2v-10.3c0-2.8-0.9-5-4.2-5
			c-3.2,0-5.1,2.4-5.2,5.7v9.6h-2V158z"/>
		<path fill="#959595" d="M495.9,164.3h3.4v1.7h-3.4v11.1c0,1.3,0.2,2.1,1.6,2.2c0.6,0,1.2,0,1.7-0.1v1.7c-0.6,0-1.2,0.1-1.8,0.1
			c-2.7,0-3.6-0.9-3.6-3.7V166H491v-1.7h2.9v-5h2V164.3z"/>
		<path fill="#959595" d="M502.2,158h2v9.2h0.1c0.7-2,2.9-3.3,5.3-3.3c4.6,0,6,2.4,6,6.4v10.6h-2v-10.3c0-2.8-0.9-5-4.2-5
			c-3.2,0-5.1,2.4-5.2,5.7v9.6h-2V158z"/>
		<path fill="#959595" d="M520.6,173.1c0,2.9,1.6,6.5,5.4,6.5c2.9,0,4.5-1.7,5.2-4.2h2c-0.9,3.7-3,5.9-7.2,5.9c-5.2,0-7.5-4-7.5-8.7
			c0-4.4,2.2-8.7,7.5-8.7c5.3,0,7.4,4.6,7.3,9.3H520.6z M531.3,171.4c-0.1-3-2-5.9-5.2-5.9c-3.3,0-5.1,2.9-5.4,5.9H531.3z"/>
		<path fill="#959595" d="M204,212.9c-0.8-3.5-3.7-5.5-7-5.5c-6,0-8.6,5.1-8.6,10c0,5,2.6,10,8.6,10c4.2,0,6.9-3.3,7.3-7.3h2.2
			c-0.6,5.6-4.2,9.2-9.5,9.2c-7.2,0-10.8-5.7-10.8-11.9c0-6.2,3.6-11.9,10.8-11.9c4.3,0,8.6,2.6,9.2,7.4H204z"/>
		<path fill="#959595" d="M210.7,221.1c0,2.9,1.6,6.5,5.4,6.5c2.9,0,4.5-1.7,5.2-4.2h2c-0.9,3.7-3,5.9-7.2,5.9c-5.2,0-7.5-4-7.5-8.7
			c0-4.4,2.2-8.7,7.5-8.7c5.3,0,7.4,4.6,7.3,9.3H210.7z M221.3,219.4c-0.1-3-2-5.9-5.2-5.9c-3.3,0-5.1,2.9-5.4,5.9H221.3z"/>
		<path fill="#959595" d="M226,212.3h2v2.8h0.1c0.7-2,2.9-3.3,5.3-3.3c4.6,0,6,2.4,6,6.4v10.6h-2v-10.3c0-2.8-0.9-5-4.2-5
			c-3.2,0-5.1,2.4-5.2,5.7v9.6h-2V212.3z"/>
		<path fill="#959595" d="M246.5,212.3h3.4v1.7h-3.4v11.1c0,1.3,0.2,2.1,1.6,2.2c0.6,0,1.2,0,1.7-0.1v1.7c-0.6,0-1.2,0.1-1.8,0.1
			c-2.7,0-3.6-0.9-3.6-3.7V214h-2.9v-1.7h2.9v-5h2V212.3z"/>
		<path fill="#959595" d="M252.7,212.3h1.9v3.9h0.1c1-2.7,3.3-4.2,6.2-4.1v2c-3.6-0.2-6.1,2.5-6.1,5.9v8.8h-2V212.3z"/>
		<path fill="#959595" d="M262.6,217.4c0.2-3.9,2.9-5.5,6.7-5.5c2.9,0,6.1,0.9,6.1,5.3v8.8c0,0.8,0.4,1.2,1.2,1.2
			c0.2,0,0.5-0.1,0.6-0.1v1.7c-0.4,0.1-0.8,0.1-1.3,0.1c-2,0-2.4-1.2-2.4-2.9h-0.1c-1.4,2.1-2.8,3.4-6,3.4c-3,0-5.5-1.5-5.5-4.8
			c0-4.6,4.5-4.8,8.9-5.3c1.7-0.2,2.6-0.4,2.6-2.2c0-2.7-2-3.4-4.3-3.4c-2.5,0-4.4,1.2-4.4,3.8H262.6z M273.4,219.8L273.4,219.8
			c-0.3,0.5-1.2,0.6-1.8,0.7c-3.4,0.6-7.7,0.6-7.7,3.8c0,2,1.8,3.3,3.7,3.3c3.1,0,5.8-2,5.8-5.2V219.8z"/>
		<path fill="#959595" d="M279.5,206h2v22.8h-2V206z"/>
		<path fill="#959595" d="M285.4,206h2v3.2h-2V206z M285.4,212.3h2v16.5h-2V212.3z"/>
		<path fill="#959595" d="M301.1,217.2c-0.1-2.5-2-3.6-4.3-3.6c-1.8,0-3.9,0.7-3.9,2.8c0,1.8,2,2.4,3.4,2.8l2.7,0.6
			c2.3,0.4,4.7,1.7,4.7,4.6c0,3.6-3.6,5-6.6,5c-3.8,0-6.5-1.8-6.8-5.8h2c0.2,2.7,2.2,4.1,4.9,4.1c1.9,0,4.5-0.8,4.5-3.1
			c0-1.9-1.8-2.6-3.6-3l-2.6-0.6c-2.6-0.7-4.6-1.6-4.6-4.4c0-3.4,3.3-4.6,6.2-4.6c3.3,0,5.9,1.7,6,5.3H301.1z"/>
		<path fill="#959595" d="M306.5,217.4c0.2-3.9,2.9-5.5,6.7-5.5c2.9,0,6.1,0.9,6.1,5.3v8.8c0,0.8,0.4,1.2,1.2,1.2
			c0.2,0,0.5-0.1,0.6-0.1v1.7c-0.4,0.1-0.8,0.1-1.3,0.1c-2,0-2.4-1.2-2.4-2.9h-0.1c-1.4,2.1-2.8,3.4-6,3.4c-3,0-5.5-1.5-5.5-4.8
			c0-4.6,4.5-4.8,8.9-5.3c1.7-0.2,2.6-0.4,2.6-2.2c0-2.7-2-3.4-4.3-3.4c-2.5,0-4.4,1.2-4.4,3.8H306.5z M317.2,219.8L317.2,219.8
			c-0.3,0.5-1.2,0.6-1.8,0.7c-3.4,0.6-7.7,0.6-7.7,3.8c0,2,1.8,3.3,3.7,3.3c3.1,0,5.8-2,5.8-5.2V219.8z"/>
		<path fill="#959595" d="M326.5,212.3h3.4v1.7h-3.4v11.1c0,1.3,0.2,2.1,1.6,2.2c0.6,0,1.2,0,1.7-0.1v1.7c-0.6,0-1.2,0.1-1.8,0.1
			c-2.7,0-3.6-0.9-3.6-3.7V214h-2.9v-1.7h2.9v-5h2V212.3z"/>
		<path fill="#959595" d="M332.8,206h2v3.2h-2V206z M332.8,212.3h2v16.5h-2V212.3z"/>
		<path fill="#959595" d="M353.4,220.6c0,4.7-2.8,8.7-7.8,8.7s-7.8-4-7.8-8.7c0-4.7,2.8-8.7,7.8-8.7S353.4,215.9,353.4,220.6z
			 M339.8,220.6c0,3.5,1.9,7,5.8,7c3.9,0,5.8-3.5,5.8-7c0-3.5-1.9-7-5.8-7C341.8,213.6,339.8,217.1,339.8,220.6z"/>
		<path fill="#959595" d="M356.4,212.3h2v2.8h0.1c0.7-2,2.9-3.3,5.3-3.3c4.6,0,6,2.4,6,6.4v10.6h-2v-10.3c0-2.8-0.9-5-4.2-5
			c-3.2,0-5.1,2.4-5.2,5.7v9.6h-2V212.3z"/>
		<path fill="#959595" d="M401.9,230.3l-3.6-2.7c-1.6,1.1-3.6,1.7-5.9,1.7c-7.2,0-10.8-5.7-10.8-11.9c0-6.2,3.6-11.9,10.8-11.9
			c7.2,0,10.8,5.7,10.8,11.9c0,3.5-1.2,6.8-3.5,9.1l3.3,2.5L401.9,230.3z M398.1,225.2c2-1.9,2.9-4.9,2.9-7.8c0-5-2.6-10-8.6-10
			c-6,0-8.6,5.1-8.6,10c0,5,2.6,10,8.6,10c1.7,0,3.1-0.4,4.2-1.1l-3-2.3l1.1-1.4L398.1,225.2z"/>
		<path fill="#959595" d="M419.6,228.9h-1.9v-3h-0.1c-1.1,2.2-3.2,3.5-5.7,3.5c-4.2,0-5.8-2.4-5.8-6.3v-10.7h2v10.8
			c0.1,3,1.2,4.5,4.4,4.5c3.5,0,5-3.3,5-6.6v-8.7h2V228.9z"/>
		<path fill="#959595" d="M438.2,220.6c0,4.7-2.8,8.7-7.8,8.7s-7.8-4-7.8-8.7c0-4.7,2.8-8.7,7.8-8.7S438.2,215.9,438.2,220.6z
			 M424.6,220.6c0,3.5,1.9,7,5.8,7c3.9,0,5.8-3.5,5.8-7c0-3.5-1.9-7-5.8-7C426.5,213.6,424.6,217.1,424.6,220.6z"/>
		<path fill="#959595" d="M444.4,212.3h3.4v1.7h-3.4v11.1c0,1.3,0.2,2.1,1.6,2.2c0.6,0,1.2,0,1.7-0.1v1.7c-0.6,0-1.2,0.1-1.8,0.1
			c-2.7,0-3.6-0.9-3.6-3.7V214h-2.9v-1.7h2.9v-5h2V212.3z"/>
		<path fill="#959595" d="M450.7,206h2v3.2h-2V206z M450.7,212.3h2v16.5h-2V212.3z"/>
		<path fill="#959595" d="M457.8,221.1c0,2.9,1.6,6.5,5.4,6.5c2.9,0,4.5-1.7,5.2-4.2h2c-0.9,3.7-3,5.9-7.2,5.9c-5.2,0-7.5-4-7.5-8.7
			c0-4.4,2.2-8.7,7.5-8.7c5.3,0,7.4,4.6,7.3,9.3H457.8z M468.5,219.4c-0.1-3-2-5.9-5.2-5.9c-3.3,0-5.1,2.9-5.4,5.9H468.5z"/>
		<path fill="#959595" d="M473.2,212.3h2v2.8h0.1c0.7-2,2.9-3.3,5.3-3.3c4.6,0,6,2.4,6,6.4v10.6h-2v-10.3c0-2.8-0.9-5-4.2-5
			c-3.2,0-5.1,2.4-5.2,5.7v9.6h-2V212.3z"/>
		<path fill="#959595" d="M493.6,212.3h3.4v1.7h-3.4v11.1c0,1.3,0.2,2.1,1.6,2.2c0.6,0,1.2,0,1.7-0.1v1.7c-0.6,0-1.2,0.1-1.8,0.1
			c-2.7,0-3.6-0.9-3.6-3.7V214h-2.9v-1.7h2.9v-5h2V212.3z"/>
		<path fill="#959595" d="M501.1,228.9v-3.4h2.7v3.4H501.1z"/>
	</g>
	<g opacity="0.5">
		<path fill="#959595" d="M77.5,116.3H5.8C6,99,14.8,86,28.9,76.5C42.6,66.6,60.3,58.4,60.6,42c0.1-7.5-3-18.6-17.7-18.6
			c-13.5,0-17.5,11.5-18,26.2H7.8c0-23.2,12.7-40.5,36.1-40.5c25.6,0,33.7,18.7,33.7,32.2c0,16.6-11.4,27-23.4,35.4
			C42.1,85.2,29.4,91.7,26.4,101h51.1V116.3z"/>
	</g>
	<line fill="#959595" stroke="#C2D3D1" stroke-miterlimit="10" x1="134.4" y1="6.8" x2="134.4" y2="242.8"/>
</g>
<g>
</g>
<g>
</g>
<g>
</g>
<g>
</g>
<g>
</g>
<g>
</g>
<g>
</g>
<g>
</g>
<g>
</g>
<g>
</g>
<g>
</g>
<g>
</g>
<g>
</g>
<g>
</g>
<g>
</g>
</svg>
