<?xml version="1.0" encoding="utf-8"?>
<!-- Generator: Adobe Illustrator 18.0.0, SVG Export Plug-In . SVG Version: 6.00 Build 0)  -->
<!DOCTYPE svg PUBLIC "-//W3C//DTD SVG 1.1//EN" "http://www.w3.org/Graphics/SVG/1.1/DTD/svg11.dtd">
<svg version="1.1" id="Layer_1" xmlns="http://www.w3.org/2000/svg" xmlns:xlink="http://www.w3.org/1999/xlink" x="0px" y="0px"
	 viewBox="0 0 619.9 249" enable-background="new 0 0 619.9 249" xml:space="preserve">
<g>
	<g>
	</g>
	<g>
		<polygon fill="none" points="587.6,262.8 181.6,262.8 181.6,3 616.5,3 613,116.7 		"/>
		<path fill="#959595" d="M184.7,3h7.4l8.3,23.5h0.1L208.6,3h7.3v30h-5V9.9h-0.1L202.5,33h-4.3l-8.3-23.1h-0.1V33h-5V3z"/>
		<path fill="#959595" d="M239.7,28.2c0,1.2,0.3,1.6,1.1,1.6c0.3,0,0.7,0,1.2-0.1v3.3c-0.7,0.3-2.2,0.5-3,0.5
			c-1.9,0-3.3-0.7-3.7-2.6c-1.9,1.8-5,2.6-7.5,2.6c-3.9,0-7.4-2.1-7.4-6.3c0-5.4,4.3-6.3,8.4-6.8c3.4-0.6,6.5-0.3,6.5-3.1
			c0-2.5-2.6-2.9-4.5-2.9c-2.7,0-4.6,1.1-4.8,3.4h-4.8c0.3-5.6,5.1-7.2,9.9-7.2c4.2,0,8.7,1.7,8.7,6.3V28.2z M234.9,22.1
			c-1.5,1-3.8,0.9-5.9,1.3c-2.1,0.3-3.9,1.1-3.9,3.6c0,2.1,2.7,2.8,4.4,2.8c2.1,0,5.4-1.1,5.4-4.1V22.1z"/>
		<path fill="#959595" d="M244.8,11.3h4.5v4.2h0.1c0.5-2.3,3.4-4.8,6.3-4.8c1.1,0,1.4,0.1,1.8,0.1v4.6c-0.7-0.1-1.4-0.2-2.1-0.2
			c-3.3,0-5.9,2.6-5.9,7.4V33h-4.8V11.3z"/>
		<path fill="#959595" d="M259.7,3h4.8v17.1l8.7-8.8h5.9l-8.3,8l9.1,13.7H274l-6.6-10.5l-2.9,2.8V33h-4.8V3z"/>
		<path fill="#959595" d="M285.9,23.4c0,3.4,1.8,6.4,5.8,6.4c2.8,0,4.5-1.2,5.3-3.6h4.5c-1,4.7-5.1,7.4-9.8,7.4
			c-6.8,0-10.6-4.7-10.6-11.4c0-6.2,4-11.5,10.5-11.5c6.8,0,11,6.2,10.2,12.7H285.9z M297.1,20.3c-0.2-3-2.2-5.8-5.5-5.8
			c-3.3,0-5.6,2.5-5.7,5.8H297.1z"/>
		<path fill="#959595" d="M303.3,11.3h3.6V4.8h4.8v6.5h4.3v3.6h-4.3v11.6c0,2,0.2,3,2.3,3c0.7,0,1.3,0,2-0.2V33
			c-1.1,0.1-2.1,0.3-3.1,0.3c-5,0-5.9-1.9-6-5.5V14.9h-3.6V11.3z"/>
		<path fill="#959595" d="M329,11.3h3.6V9.5c0-5.5,2.9-6.5,6-6.5c1.5,0,2.6,0.1,3.4,0.3v3.7c-0.6-0.2-1.3-0.3-2.2-0.3
			c-1.3,0-2.4,0.5-2.4,2.3v2.2h4.1v3.6h-4.1V33h-4.8V14.9H329V11.3z"/>
		<path fill="#959595" d="M344.4,11.3h4.5v4.2h0.1c0.5-2.3,3.4-4.8,6.3-4.8c1.1,0,1.4,0.1,1.8,0.1v4.6c-0.7-0.1-1.4-0.2-2.1-0.2
			c-3.3,0-5.9,2.6-5.9,7.4V33h-4.8V11.3z"/>
		<path fill="#959595" d="M359.3,3h4.8v4.5h-4.8V3z M359.3,11.3h4.8V33h-4.8V11.3z"/>
		<path fill="#959595" d="M384,18.6c-0.4-2.6-2.3-4.1-5-4.1c-2.5,0-6,1.3-6,7.9c0,3.6,1.6,7.4,5.8,7.4c2.8,0,4.7-1.8,5.2-5h4.8
			c-0.9,5.6-4.4,8.7-10,8.7c-6.8,0-10.5-4.8-10.5-11.2c0-6.6,3.6-11.7,10.7-11.7c5,0,9.3,2.5,9.8,7.9H384z"/>
		<path fill="#959595" d="M390.5,11.3h3.6V4.8h4.8v6.5h4.3v3.6h-4.3v11.6c0,2,0.2,3,2.3,3c0.7,0,1.3,0,2-0.2V33
			c-1.1,0.1-2.1,0.3-3.1,0.3c-5,0-5.9-1.9-6-5.5V14.9h-3.6V11.3z"/>
		<path fill="#959595" d="M406.8,3h4.8v4.5h-4.8V3z M406.8,11.3h4.8V33h-4.8V11.3z"/>
		<path fill="#959595" d="M415.8,22.1c0-6.6,4-11.4,11-11.4c7,0,11,4.8,11,11.4c0,6.7-4,11.5-11,11.5
			C419.8,33.6,415.8,28.8,415.8,22.1z M432.9,22.1c0-3.7-1.9-7.6-6.2-7.6c-4.3,0-6.2,3.9-6.2,7.6c0,3.8,1.9,7.7,6.2,7.7
			C431,29.8,432.9,25.9,432.9,22.1z"/>
		<path fill="#959595" d="M441.7,11.3h4.5v3.2l0.1,0.1c1.4-2.4,3.9-3.9,6.8-3.9c4.7,0,7.7,2.5,7.7,7.4V33H456V19.4
			c-0.1-3.4-1.4-4.9-4.2-4.9c-3.2,0-5.3,2.5-5.3,5.7V33h-4.8V11.3z"/>
		<path fill="#959595" d="M183.6,58.2h2v3.2h-2V58.2z M183.6,64.5h2V81h-2V64.5z"/>
		<path fill="#959595" d="M199.4,69.3c-0.1-2.5-2-3.6-4.3-3.6c-1.8,0-3.9,0.7-3.9,2.8c0,1.8,2,2.4,3.4,2.8l2.7,0.6
			c2.3,0.4,4.7,1.7,4.7,4.6c0,3.6-3.6,5-6.6,5c-3.8,0-6.5-1.8-6.8-5.8h2c0.2,2.7,2.2,4.1,4.9,4.1c1.9,0,4.5-0.8,4.5-3.1
			c0-1.9-1.8-2.6-3.6-3l-2.6-0.6c-2.6-0.7-4.6-1.6-4.6-4.4c0-3.4,3.3-4.6,6.2-4.6c3.3,0,5.9,1.7,6,5.3H199.4z"/>
		<path fill="#959595" d="M217,64.5h3.4v1.7H217v11.1c0,1.3,0.2,2.1,1.6,2.2c0.6,0,1.2,0,1.7-0.1v1.7c-0.6,0-1.2,0.1-1.8,0.1
			c-2.7,0-3.6-0.9-3.6-3.7V66.2h-2.9v-1.7h2.9v-5h2V64.5z"/>
		<path fill="#959595" d="M223.2,58.2h2v9.2h0.1c0.7-2,2.9-3.3,5.3-3.3c4.6,0,6,2.4,6,6.4V81h-2V70.7c0-2.8-0.9-5-4.2-5
			c-3.2,0-5.1,2.4-5.2,5.7V81h-2V58.2z"/>
		<path fill="#959595" d="M241.6,73.3c0,2.9,1.6,6.5,5.4,6.5c2.9,0,4.5-1.7,5.2-4.2h2c-0.9,3.7-3,5.9-7.2,5.9c-5.2,0-7.5-4-7.5-8.7
			c0-4.4,2.2-8.7,7.5-8.7c5.3,0,7.4,4.6,7.3,9.3H241.6z M252.3,71.6c-0.1-3-2-5.9-5.2-5.9c-3.3,0-5.1,2.9-5.4,5.9H252.3z"/>
		<path fill="#959595" d="M277.6,69.7c-0.5-2.5-2-4-4.7-4c-3.9,0-5.8,3.5-5.8,7c0,3.5,1.9,7,5.8,7c2.5,0,4.5-2,4.8-4.7h2
			c-0.5,4-3.1,6.4-6.8,6.4c-5.1,0-7.8-4-7.8-8.7c0-4.7,2.8-8.7,7.8-8.7c3.5,0,6.2,1.9,6.7,5.7H277.6z"/>
		<path fill="#959595" d="M297.3,72.8c0,4.7-2.8,8.7-7.8,8.7s-7.8-4-7.8-8.7c0-4.7,2.8-8.7,7.8-8.7S297.3,68,297.3,72.8z
			 M283.7,72.8c0,3.5,1.9,7,5.8,7c3.9,0,5.8-3.5,5.8-7c0-3.5-1.9-7-5.8-7C285.6,65.7,283.7,69.2,283.7,72.8z"/>
		<path fill="#959595" d="M310.2,69.3c-0.1-2.5-2-3.6-4.3-3.6c-1.8,0-3.9,0.7-3.9,2.8c0,1.8,2,2.4,3.4,2.8l2.7,0.6
			c2.3,0.4,4.7,1.7,4.7,4.6c0,3.6-3.6,5-6.6,5c-3.8,0-6.5-1.8-6.8-5.8h2c0.2,2.7,2.2,4.1,4.9,4.1c1.9,0,4.5-0.8,4.5-3.1
			c0-1.9-1.8-2.6-3.6-3l-2.6-0.6c-2.6-0.7-4.6-1.6-4.6-4.4c0-3.4,3.3-4.6,6.2-4.6c3.3,0,5.9,1.7,6,5.3H310.2z"/>
		<path fill="#959595" d="M318.9,64.5h3.4v1.7h-3.4v11.1c0,1.3,0.2,2.1,1.6,2.2c0.6,0,1.2,0,1.7-0.1v1.7c-0.6,0-1.2,0.1-1.8,0.1
			c-2.7,0-3.6-0.9-3.6-3.7V66.2H314v-1.7h2.9v-5h2V64.5z"/>
		<path fill="#959595" d="M333.9,69.6c0.2-3.9,2.9-5.5,6.7-5.5c2.9,0,6.1,0.9,6.1,5.3v8.8c0,0.8,0.4,1.2,1.2,1.2
			c0.2,0,0.5-0.1,0.6-0.1v1.7c-0.4,0.1-0.8,0.1-1.3,0.1c-2,0-2.4-1.2-2.4-2.9h-0.1c-1.4,2.1-2.8,3.4-6,3.4c-3,0-5.5-1.5-5.5-4.8
			c0-4.6,4.5-4.8,8.9-5.3c1.7-0.2,2.6-0.4,2.6-2.2c0-2.7-2-3.4-4.3-3.4c-2.5,0-4.4,1.2-4.4,3.8H333.9z M344.6,72L344.6,72
			c-0.3,0.5-1.2,0.6-1.8,0.7c-3.4,0.6-7.7,0.6-7.7,3.8c0,2,1.8,3.3,3.7,3.3c3.1,0,5.8-2,5.8-5.2V72z"/>
		<path fill="#959595" d="M360.6,69.3c-0.1-2.5-2-3.6-4.3-3.6c-1.8,0-3.9,0.7-3.9,2.8c0,1.8,2,2.4,3.4,2.8l2.7,0.6
			c2.3,0.4,4.7,1.7,4.7,4.6c0,3.6-3.6,5-6.6,5c-3.8,0-6.5-1.8-6.8-5.8h2c0.2,2.7,2.2,4.1,4.9,4.1c1.9,0,4.5-0.8,4.5-3.1
			c0-1.9-1.8-2.6-3.6-3l-2.6-0.6c-2.6-0.7-4.6-1.6-4.6-4.4c0-3.4,3.3-4.6,6.2-4.6c3.3,0,5.9,1.7,6,5.3H360.6z"/>
		<path fill="#959595" d="M376,69.3c-0.1-2.5-2-3.6-4.3-3.6c-1.8,0-3.9,0.7-3.9,2.8c0,1.8,2,2.4,3.4,2.8l2.7,0.6
			c2.3,0.4,4.7,1.7,4.7,4.6c0,3.6-3.6,5-6.6,5c-3.8,0-6.5-1.8-6.8-5.8h2c0.2,2.7,2.2,4.1,4.9,4.1c1.9,0,4.5-0.8,4.5-3.1
			c0-1.9-1.8-2.6-3.6-3l-2.6-0.6c-2.6-0.7-4.6-1.6-4.6-4.4c0-3.4,3.3-4.6,6.2-4.6c3.3,0,5.9,1.7,6,5.3H376z"/>
		<path fill="#959595" d="M396.2,72.8c0,4.7-2.8,8.7-7.8,8.7s-7.8-4-7.8-8.7c0-4.7,2.8-8.7,7.8-8.7S396.2,68,396.2,72.8z
			 M382.6,72.8c0,3.5,1.9,7,5.8,7c3.9,0,5.8-3.5,5.8-7c0-3.5-1.9-7-5.8-7C384.6,65.7,382.6,69.2,382.6,72.8z"/>
		<path fill="#959595" d="M410.9,69.7c-0.5-2.5-2-4-4.7-4c-3.9,0-5.8,3.5-5.8,7c0,3.5,1.9,7,5.8,7c2.5,0,4.5-2,4.8-4.7h2
			c-0.5,4-3.1,6.4-6.8,6.4c-5.1,0-7.8-4-7.8-8.7c0-4.7,2.8-8.7,7.8-8.7c3.5,0,6.2,1.9,6.7,5.7H410.9z"/>
		<path fill="#959595" d="M415.9,58.2h2v3.2h-2V58.2z M415.9,64.5h2V81h-2V64.5z"/>
		<path fill="#959595" d="M421.6,69.6c0.2-3.9,2.9-5.5,6.7-5.5c2.9,0,6.1,0.9,6.1,5.3v8.8c0,0.8,0.4,1.2,1.2,1.2
			c0.2,0,0.5-0.1,0.6-0.1v1.7c-0.4,0.1-0.8,0.1-1.3,0.1c-2,0-2.4-1.2-2.4-2.9h-0.1c-1.4,2.1-2.8,3.4-6,3.4c-3,0-5.5-1.5-5.5-4.8
			c0-4.6,4.5-4.8,8.9-5.3c1.7-0.2,2.6-0.4,2.6-2.2c0-2.7-2-3.4-4.3-3.4c-2.5,0-4.4,1.2-4.4,3.8H421.6z M432.3,72L432.3,72
			c-0.3,0.5-1.2,0.6-1.8,0.7c-3.4,0.6-7.7,0.6-7.7,3.8c0,2,1.8,3.3,3.7,3.3c3.1,0,5.8-2,5.8-5.2V72z"/>
		<path fill="#959595" d="M441.6,64.5h3.4v1.7h-3.4v11.1c0,1.3,0.2,2.1,1.6,2.2c0.6,0,1.2,0,1.7-0.1v1.7c-0.6,0-1.2,0.1-1.8,0.1
			c-2.7,0-3.6-0.9-3.6-3.7V66.2h-2.9v-1.7h2.9v-5h2V64.5z"/>
		<path fill="#959595" d="M449,73.3c0,2.9,1.6,6.5,5.4,6.5c2.9,0,4.5-1.7,5.2-4.2h2c-0.9,3.7-3,5.9-7.2,5.9c-5.2,0-7.5-4-7.5-8.7
			c0-4.4,2.2-8.7,7.5-8.7c5.3,0,7.4,4.6,7.3,9.3H449z M459.7,71.6c-0.1-3-2-5.9-5.2-5.9c-3.3,0-5.1,2.9-5.4,5.9H459.7z"/>
		<path fill="#959595" d="M479,81h-1.9v-3.1h-0.1c-0.9,2.1-3.5,3.6-5.9,3.6c-5,0-7.4-4.1-7.4-8.7c0-4.7,2.4-8.7,7.4-8.7
			c2.5,0,4.9,1.2,5.7,3.6h0.1v-9.5h2V81z M471.2,79.8c4.3,0,5.8-3.6,5.8-7c0-3.4-1.5-7-5.8-7c-3.8,0-5.4,3.6-5.4,7
			C465.8,76.2,467.3,79.8,471.2,79.8z"/>
		<path fill="#959595" d="M490.1,64.5h2.1l4.2,14.1h0.1l4-14.1h2.3l4,14.1h0.1l4.2-14.1h2.1L508,81h-2.2l-4.1-13.9h-0.1l-4,13.9
			h-2.2L490.1,64.5z"/>
		<path fill="#959595" d="M515.5,58.2h2v3.2h-2V58.2z M515.5,64.5h2V81h-2V64.5z"/>
		<path fill="#959595" d="M524.6,64.5h3.4v1.7h-3.4v11.1c0,1.3,0.2,2.1,1.6,2.2c0.6,0,1.2,0,1.7-0.1v1.7c-0.6,0-1.2,0.1-1.8,0.1
			c-2.7,0-3.6-0.9-3.6-3.7V66.2h-2.9v-1.7h2.9v-5h2V64.5z"/>
		<path fill="#959595" d="M530.8,58.2h2v9.2h0.1c0.7-2,2.9-3.3,5.3-3.3c4.6,0,6,2.4,6,6.4V81h-2V70.7c0-2.8-0.9-5-4.2-5
			c-3.2,0-5.1,2.4-5.2,5.7V81h-2V58.2z"/>
		<path fill="#959595" d="M183.5,112.5h1.9v2.8h0.1c1.1-2,2.8-3.3,5.4-3.3c2.2,0,4.1,1.1,4.7,3.2c1-2.2,3.1-3.2,5.2-3.2
			c3.6,0,5.5,1.9,5.5,5.8V129h-2v-11.1c0-2.7-1-4.2-3.9-4.2c-3.5,0-4.5,2.9-4.5,6v9.3h-2v-11.2c0-2.2-0.9-4.1-3.5-4.1
			c-3.5,0-4.9,2.6-4.9,6.1v9.2h-2V112.5z"/>
		<path fill="#959595" d="M210,117.6c0.2-3.9,2.9-5.5,6.7-5.5c2.9,0,6.1,0.9,6.1,5.3v8.8c0,0.8,0.4,1.2,1.2,1.2
			c0.2,0,0.5-0.1,0.6-0.1v1.7c-0.4,0.1-0.8,0.1-1.3,0.1c-2,0-2.4-1.2-2.4-2.9h-0.1c-1.4,2.1-2.8,3.4-6,3.4c-3,0-5.5-1.5-5.5-4.8
			c0-4.6,4.5-4.8,8.9-5.3c1.7-0.2,2.6-0.4,2.6-2.2c0-2.7-2-3.4-4.3-3.4c-2.5,0-4.4,1.2-4.4,3.8H210z M220.8,120L220.8,120
			c-0.3,0.5-1.2,0.6-1.8,0.7c-3.4,0.6-7.7,0.6-7.7,3.8c0,2,1.8,3.3,3.7,3.3c3.1,0,5.8-2,5.8-5.2V120z"/>
		<path fill="#959595" d="M226.8,106.2h2v14.3l9.2-8h2.7l-7,6.1l7.5,10.4h-2.5l-6.5-9l-3.3,2.7v6.3h-2V106.2z"/>
		<path fill="#959595" d="M242.8,106.2h2v3.2h-2V106.2z M242.8,112.5h2V129h-2V112.5z"/>
		<path fill="#959595" d="M248.7,112.5h2v2.8h0.1c0.7-2,2.9-3.3,5.3-3.3c4.6,0,6,2.4,6,6.4V129h-2v-10.3c0-2.8-0.9-5-4.2-5
			c-3.2,0-5.1,2.4-5.2,5.7v9.6h-2V112.5z"/>
		<path fill="#959595" d="M279.9,127.7c0,4.9-1.9,7.9-7.3,7.9c-3.3,0-6.6-1.5-6.8-5h2c0.4,2.4,2.6,3.3,4.8,3.3
			c3.7,0,5.3-2.2,5.3-6.2v-2.2h-0.1c-0.9,2-2.9,3.4-5.2,3.4c-5.3,0-7.5-3.8-7.5-8.5c0-4.5,2.7-8.3,7.5-8.3c2.4,0,4.4,1.5,5.2,3.3
			h0.1v-2.8h2V127.7z M277.8,120.6c0-3.2-1.5-6.8-5.3-6.8c-3.8,0-5.4,3.4-5.4,6.8c0,3.3,1.7,6.6,5.4,6.6
			C276,127.1,277.8,123.9,277.8,120.6z"/>
		<path fill="#959595" d="M295.8,112.5h3.4v1.7h-3.4v11.1c0,1.3,0.2,2.1,1.6,2.2c0.6,0,1.2,0,1.7-0.1v1.7c-0.6,0-1.2,0.1-1.8,0.1
			c-2.7,0-3.6-0.9-3.6-3.7v-11.3h-2.9v-1.7h2.9v-5h2V112.5z"/>
		<path fill="#959595" d="M302.1,112.5h1.9v3.9h0.1c1-2.7,3.3-4.2,6.2-4.1v2c-3.6-0.2-6.1,2.5-6.1,5.9v8.8h-2V112.5z"/>
		<path fill="#959595" d="M312,117.6c0.2-3.9,2.9-5.5,6.7-5.5c2.9,0,6.1,0.9,6.1,5.3v8.8c0,0.8,0.4,1.2,1.2,1.2
			c0.2,0,0.5-0.1,0.6-0.1v1.7c-0.4,0.1-0.8,0.1-1.3,0.1c-2,0-2.4-1.2-2.4-2.9h-0.1c-1.4,2.1-2.8,3.4-6,3.4c-3,0-5.5-1.5-5.5-4.8
			c0-4.6,4.5-4.8,8.9-5.3c1.7-0.2,2.6-0.4,2.6-2.2c0-2.7-2-3.4-4.3-3.4c-2.5,0-4.4,1.2-4.4,3.8H312z M322.7,120L322.7,120
			c-0.3,0.5-1.2,0.6-1.8,0.7c-3.4,0.6-7.7,0.6-7.7,3.8c0,2,1.8,3.3,3.7,3.3c3.1,0,5.8-2,5.8-5.2V120z"/>
		<path fill="#959595" d="M328.7,112.5h2v2.8h0.1c0.7-2,2.9-3.3,5.3-3.3c4.6,0,6,2.4,6,6.4V129h-2v-10.3c0-2.8-0.9-5-4.2-5
			c-3.2,0-5.1,2.4-5.2,5.7v9.6h-2V112.5z"/>
		<path fill="#959595" d="M355.8,117.3c-0.1-2.5-2-3.6-4.3-3.6c-1.8,0-3.9,0.7-3.9,2.8c0,1.8,2,2.4,3.4,2.8l2.7,0.6
			c2.3,0.4,4.7,1.7,4.7,4.6c0,3.6-3.6,5-6.6,5c-3.8,0-6.5-1.8-6.8-5.8h2c0.2,2.7,2.2,4.1,4.9,4.1c1.9,0,4.5-0.8,4.5-3.1
			c0-1.9-1.8-2.6-3.6-3l-2.6-0.6c-2.6-0.7-4.6-1.6-4.6-4.4c0-3.4,3.3-4.6,6.2-4.6c3.3,0,5.9,1.7,6,5.3H355.8z"/>
		<path fill="#959595" d="M361.1,117.6c0.2-3.9,2.9-5.5,6.7-5.5c2.9,0,6.1,0.9,6.1,5.3v8.8c0,0.8,0.4,1.2,1.2,1.2
			c0.2,0,0.5-0.1,0.6-0.1v1.7c-0.4,0.1-0.8,0.1-1.3,0.1c-2,0-2.4-1.2-2.4-2.9H372c-1.4,2.1-2.8,3.4-6,3.4c-3,0-5.5-1.5-5.5-4.8
			c0-4.6,4.5-4.8,8.9-5.3c1.7-0.2,2.6-0.4,2.6-2.2c0-2.7-2-3.4-4.3-3.4c-2.5,0-4.4,1.2-4.4,3.8H361.1z M371.9,120L371.9,120
			c-0.3,0.5-1.2,0.6-1.8,0.7c-3.4,0.6-7.7,0.6-7.7,3.8c0,2,1.8,3.3,3.7,3.3c3.1,0,5.8-2,5.8-5.2V120z"/>
		<path fill="#959595" d="M389.6,117.7c-0.5-2.5-2-4-4.7-4c-3.9,0-5.8,3.5-5.8,7c0,3.5,1.9,7,5.8,7c2.5,0,4.5-2,4.8-4.7h2
			c-0.5,4-3.1,6.4-6.8,6.4c-5.1,0-7.8-4-7.8-8.7c0-4.7,2.8-8.7,7.8-8.7c3.5,0,6.2,1.9,6.7,5.7H389.6z"/>
		<path fill="#959595" d="M397.7,112.5h3.4v1.7h-3.4v11.1c0,1.3,0.2,2.1,1.6,2.2c0.6,0,1.2,0,1.7-0.1v1.7c-0.6,0-1.2,0.1-1.8,0.1
			c-2.7,0-3.6-0.9-3.6-3.7v-11.3h-2.9v-1.7h2.9v-5h2V112.5z"/>
		<path fill="#959595" d="M404.1,106.2h2v3.2h-2V106.2z M404.1,112.5h2V129h-2V112.5z"/>
		<path fill="#959595" d="M424.7,120.8c0,4.7-2.8,8.7-7.8,8.7s-7.8-4-7.8-8.7c0-4.7,2.8-8.7,7.8-8.7S424.7,116,424.7,120.8z
			 M411.1,120.8c0,3.5,1.9,7,5.8,7c3.9,0,5.8-3.5,5.8-7c0-3.5-1.9-7-5.8-7C413,113.7,411.1,117.2,411.1,120.8z"/>
		<path fill="#959595" d="M427.7,112.5h2v2.8h0.1c0.7-2,2.9-3.3,5.3-3.3c4.6,0,6,2.4,6,6.4V129h-2v-10.3c0-2.8-0.9-5-4.2-5
			c-3.2,0-5.1,2.4-5.2,5.7v9.6h-2V112.5z"/>
		<path fill="#959595" d="M454.8,117.3c-0.1-2.5-2-3.6-4.3-3.6c-1.8,0-3.9,0.7-3.9,2.8c0,1.8,2,2.4,3.4,2.8l2.7,0.6
			c2.3,0.4,4.7,1.7,4.7,4.6c0,3.6-3.6,5-6.6,5c-3.8,0-6.5-1.8-6.8-5.8h2c0.2,2.7,2.2,4.1,4.9,4.1c1.9,0,4.5-0.8,4.5-3.1
			c0-1.9-1.8-2.6-3.6-3l-2.6-0.6c-2.6-0.7-4.6-1.6-4.6-4.4c0-3.4,3.3-4.6,6.2-4.6c3.3,0,5.9,1.7,6,5.3H454.8z"/>
		<path fill="#959595" d="M461.5,129v-3.4h2.7v3.4H461.5z"/>
		<path fill="#959595" d="M476.2,106.2h2.3l5.2,20h0.1l5.6-20h2.7l5.6,20h0.1l5.2-20h2.2l-6.3,22.8h-2.3l-5.8-20.4h-0.1l-5.8,20.4
			h-2.4L476.2,106.2z"/>
		<path fill="#959595" d="M507.7,121.3c0,2.9,1.6,6.5,5.4,6.5c2.9,0,4.5-1.7,5.2-4.2h2c-0.9,3.7-3,5.9-7.2,5.9c-5.2,0-7.5-4-7.5-8.7
			c0-4.4,2.2-8.7,7.5-8.7c5.3,0,7.4,4.6,7.3,9.3H507.7z M518.4,119.6c-0.1-3-2-5.9-5.2-5.9c-3.3,0-5.1,2.9-5.4,5.9H518.4z"/>
		<path fill="#959595" d="M183.5,154.2h2v9.5h0.1c0.9-2.4,3.3-3.6,5.7-3.6c5,0,7.4,4.1,7.4,8.7c0,4.7-2.4,8.7-7.4,8.7
			c-2.7,0-5-1.4-5.9-3.6h-0.1v3.1h-1.9V154.2z M191.4,161.7c-4.3,0-5.8,3.6-5.8,7c0,3.4,1.5,7,5.8,7c3.8,0,5.4-3.6,5.4-7
			C196.8,165.3,195.2,161.7,191.4,161.7z"/>
		<path fill="#959595" d="M203.1,169.3c0,2.9,1.6,6.5,5.4,6.5c2.9,0,4.5-1.7,5.2-4.2h2c-0.9,3.7-3,5.9-7.2,5.9c-5.2,0-7.5-4-7.5-8.7
			c0-4.4,2.2-8.7,7.5-8.7c5.3,0,7.4,4.6,7.3,9.3H203.1z M213.8,167.6c-0.1-3-2-5.9-5.2-5.9c-3.3,0-5.1,2.9-5.4,5.9H213.8z"/>
		<path fill="#959595" d="M218.5,160.5h2v2.8h0.1c0.7-2,2.9-3.3,5.3-3.3c4.6,0,6,2.4,6,6.4V177h-2v-10.3c0-2.8-0.9-5-4.2-5
			c-3.2,0-5.1,2.4-5.2,5.7v9.6h-2V160.5z"/>
		<path fill="#959595" d="M247.4,165.7c-0.5-2.5-2-4-4.7-4c-3.9,0-5.8,3.5-5.8,7c0,3.5,1.9,7,5.8,7c2.5,0,4.5-2,4.8-4.7h2
			c-0.5,4-3.1,6.4-6.8,6.4c-5.1,0-7.8-4-7.8-8.7c0-4.7,2.8-8.7,7.8-8.7c3.5,0,6.2,1.9,6.7,5.7H247.4z"/>
		<path fill="#959595" d="M252.3,154.2h2v9.2h0.1c0.7-2,2.9-3.3,5.3-3.3c4.6,0,6,2.4,6,6.4V177h-2v-10.3c0-2.8-0.9-5-4.2-5
			c-3.2,0-5.1,2.4-5.2,5.7v9.6h-2V154.2z"/>
		<path fill="#959595" d="M269.5,160.5h1.9v2.8h0.1c1.1-2,2.8-3.3,5.4-3.3c2.2,0,4.1,1.1,4.7,3.2c1-2.2,3.1-3.2,5.2-3.2
			c3.6,0,5.5,1.9,5.5,5.8V177h-2v-11.1c0-2.7-1-4.2-3.9-4.2c-3.5,0-4.5,2.9-4.5,6v9.3h-2v-11.2c0-2.2-0.9-4.1-3.5-4.1
			c-3.5,0-4.9,2.6-4.9,6.1v9.2h-2V160.5z"/>
		<path fill="#959595" d="M296,165.6c0.2-3.9,2.9-5.5,6.7-5.5c2.9,0,6.1,0.9,6.1,5.3v8.8c0,0.8,0.4,1.2,1.2,1.2
			c0.2,0,0.5-0.1,0.6-0.1v1.7c-0.4,0.1-0.8,0.1-1.3,0.1c-2,0-2.4-1.2-2.4-2.9h-0.1c-1.4,2.1-2.8,3.4-6,3.4c-3,0-5.5-1.5-5.5-4.8
			c0-4.6,4.5-4.8,8.9-5.3c1.7-0.2,2.6-0.4,2.6-2.2c0-2.7-2-3.4-4.3-3.4c-2.5,0-4.4,1.2-4.4,3.8H296z M306.7,168L306.7,168
			c-0.3,0.5-1.2,0.6-1.8,0.7c-3.4,0.6-7.7,0.6-7.7,3.8c0,2,1.8,3.3,3.7,3.3c3.1,0,5.8-2,5.8-5.2V168z"/>
		<path fill="#959595" d="M312.8,160.5h1.9v3.9h0.1c1-2.7,3.3-4.2,6.2-4.1v2c-3.6-0.2-6.1,2.5-6.1,5.9v8.8h-2V160.5z"/>
		<path fill="#959595" d="M322.8,154.2h2v14.3l9.2-8h2.7l-7,6.1l7.5,10.4h-2.5l-6.5-9l-3.3,2.7v6.3h-2V154.2z"/>
		<path fill="#959595" d="M350.9,160.5h3.4v1.7h-3.4v11.1c0,1.3,0.2,2.1,1.6,2.2c0.6,0,1.2,0,1.7-0.1v1.7c-0.6,0-1.2,0.1-1.8,0.1
			c-2.7,0-3.6-0.9-3.6-3.7v-11.3H346v-1.7h2.9v-5h2V160.5z"/>
		<path fill="#959595" d="M357.2,154.2h2v9.2h0.1c0.7-2,2.9-3.3,5.3-3.3c4.6,0,6,2.4,6,6.4V177h-2v-10.3c0-2.8-0.9-5-4.2-5
			c-3.2,0-5.1,2.4-5.2,5.7v9.6h-2V154.2z"/>
		<path fill="#959595" d="M374.4,154.2h2v3.2h-2V154.2z M374.4,160.5h2V177h-2V160.5z"/>
		<path fill="#959595" d="M390.2,165.3c-0.1-2.5-2-3.6-4.3-3.6c-1.8,0-3.9,0.7-3.9,2.8c0,1.8,2,2.4,3.4,2.8l2.7,0.6
			c2.3,0.4,4.7,1.7,4.7,4.6c0,3.6-3.6,5-6.6,5c-3.8,0-6.5-1.8-6.8-5.8h2c0.2,2.7,2.2,4.1,4.9,4.1c1.9,0,4.5-0.8,4.5-3.1
			c0-1.9-1.8-2.6-3.6-3l-2.6-0.6c-2.6-0.7-4.6-1.6-4.6-4.4c0-3.4,3.3-4.6,6.2-4.6c3.3,0,5.9,1.7,6,5.3H390.2z"/>
		<path fill="#959595" d="M402.9,160.5h2.1l4.2,14.1h0.1l4-14.1h2.3l4,14.1h0.1l4.2-14.1h2.1l-5.3,16.5h-2.2l-4.1-13.9h-0.1l-4,13.9
			h-2.2L402.9,160.5z"/>
		<path fill="#959595" d="M428.3,154.2h2v3.2h-2V154.2z M428.3,160.5h2V177h-2V160.5z"/>
		<path fill="#959595" d="M437.4,160.5h3.4v1.7h-3.4v11.1c0,1.3,0.2,2.1,1.6,2.2c0.6,0,1.2,0,1.7-0.1v1.7c-0.6,0-1.2,0.1-1.8,0.1
			c-2.7,0-3.6-0.9-3.6-3.7v-11.3h-2.9v-1.7h2.9v-5h2V160.5z"/>
		<path fill="#959595" d="M443.7,154.2h2v9.2h0.1c0.7-2,2.9-3.3,5.3-3.3c4.6,0,6,2.4,6,6.4V177h-2v-10.3c0-2.8-0.9-5-4.2-5
			c-3.2,0-5.1,2.4-5.2,5.7v9.6h-2V154.2z"/>
		<path fill="#959595" d="M473,160.5h3.4v1.7H473v11.1c0,1.3,0.2,2.1,1.6,2.2c0.6,0,1.2,0,1.7-0.1v1.7c-0.6,0-1.2,0.1-1.8,0.1
			c-2.7,0-3.6-0.9-3.6-3.7v-11.3h-2.9v-1.7h2.9v-5h2V160.5z"/>
		<path fill="#959595" d="M479.2,154.2h2v9.2h0.1c0.7-2,2.9-3.3,5.3-3.3c4.6,0,6,2.4,6,6.4V177h-2v-10.3c0-2.8-0.9-5-4.2-5
			c-3.2,0-5.1,2.4-5.2,5.7v9.6h-2V154.2z"/>
		<path fill="#959595" d="M497.6,169.3c0,2.9,1.6,6.5,5.4,6.5c2.9,0,4.5-1.7,5.2-4.2h2c-0.9,3.7-3,5.9-7.2,5.9c-5.2,0-7.5-4-7.5-8.7
			c0-4.4,2.2-8.7,7.5-8.7c5.3,0,7.4,4.6,7.3,9.3H497.6z M508.3,167.6c-0.1-3-2-5.9-5.2-5.9c-3.3,0-5.1,2.9-5.4,5.9H508.3z"/>
		<path fill="#959595" d="M539,161.1c-0.8-3.5-3.7-5.5-7-5.5c-6,0-8.6,5.1-8.6,10c0,5,2.6,10,8.6,10c4.2,0,6.9-3.3,7.3-7.3h2.2
			c-0.6,5.6-4.2,9.2-9.5,9.2c-7.2,0-10.8-5.7-10.8-11.9c0-6.2,3.6-11.9,10.8-11.9c4.3,0,8.6,2.6,9.2,7.4H539z"/>
		<path fill="#959595" d="M559.3,168.8c0,4.7-2.8,8.7-7.8,8.7s-7.8-4-7.8-8.7c0-4.7,2.8-8.7,7.8-8.7S559.3,164,559.3,168.8z
			 M545.7,168.8c0,3.5,1.9,7,5.8,7c3.9,0,5.8-3.5,5.8-7c0-3.5-1.9-7-5.8-7C547.6,161.7,545.7,165.2,545.7,168.8z"/>
		<path fill="#959595" d="M572.1,165.3c-0.1-2.5-2-3.6-4.3-3.6c-1.8,0-3.9,0.7-3.9,2.8c0,1.8,2,2.4,3.4,2.8l2.7,0.6
			c2.3,0.4,4.7,1.7,4.7,4.6c0,3.6-3.6,5-6.6,5c-3.8,0-6.5-1.8-6.8-5.8h2c0.2,2.7,2.2,4.1,4.9,4.1c1.9,0,4.5-0.8,4.5-3.1
			c0-1.9-1.8-2.6-3.6-3l-2.6-0.6c-2.6-0.7-4.6-1.6-4.6-4.4c0-3.4,3.3-4.6,6.2-4.6c3.3,0,5.9,1.7,6,5.3H572.1z"/>
		<path fill="#959595" d="M580.9,160.5h3.4v1.7h-3.4v11.1c0,1.3,0.2,2.1,1.6,2.2c0.6,0,1.2,0,1.7-0.1v1.7c-0.6,0-1.2,0.1-1.8,0.1
			c-2.7,0-3.6-0.9-3.6-3.7v-11.3H576v-1.7h2.9v-5h2V160.5z"/>
		<path fill="#959595" d="M200.6,209.1c-0.8-3.5-3.7-5.5-7-5.5c-6,0-8.6,5.1-8.6,10c0,5,2.6,10,8.6,10c4.2,0,6.9-3.3,7.3-7.3h2.2
			c-0.6,5.6-4.2,9.2-9.5,9.2c-7.2,0-10.8-5.7-10.8-11.9c0-6.2,3.6-11.9,10.8-11.9c4.3,0,8.6,2.6,9.2,7.4H200.6z"/>
		<path fill="#959595" d="M220.9,216.8c0,4.7-2.8,8.7-7.8,8.7s-7.8-4-7.8-8.7c0-4.7,2.8-8.7,7.8-8.7S220.9,212,220.9,216.8z
			 M207.3,216.8c0,3.5,1.9,7,5.8,7c3.9,0,5.8-3.5,5.8-7c0-3.5-1.9-7-5.8-7C209.2,209.7,207.3,213.2,207.3,216.8z"/>
		<path fill="#959595" d="M225,217.3c0,2.9,1.6,6.5,5.4,6.5c2.9,0,4.5-1.7,5.2-4.2h2c-0.9,3.7-3,5.9-7.2,5.9c-5.2,0-7.5-4-7.5-8.7
			c0-4.4,2.2-8.7,7.5-8.7c5.3,0,7.4,4.6,7.3,9.3H225z M235.7,215.6c-0.1-3-2-5.9-5.2-5.9c-3.3,0-5.1,2.9-5.4,5.9H235.7z"/>
		<path fill="#959595" d="M246.8,210.2h-3.3V225h-2v-14.8h-2.8v-1.7h2.8V207c0-2.8,0.8-4.8,4-4.8c0.6,0,1.1,0,1.7,0.1v1.7
			c-0.5-0.1-1-0.2-1.5-0.2c-2.2,0-2.2,1.4-2.2,3.2v1.4h3.3V210.2z"/>
		<path fill="#959595" d="M249.3,210.2h-2.8v-1.7h2.8V207c0-2.8,0.8-4.8,4-4.8c0.6,0,1.1,0,1.7,0.1v1.7c-0.5-0.1-1-0.2-1.5-0.2
			c-2.2,0-2.2,1.4-2.2,3.2v1.4h3.3v1.7h-3.3V225h-2V210.2z M256.5,202.2h2v3.2h-2V202.2z M256.5,208.5h2V225h-2V208.5z"/>
		<path fill="#959595" d="M274,213.7c-0.5-2.5-2-4-4.7-4c-3.9,0-5.8,3.5-5.8,7c0,3.5,1.9,7,5.8,7c2.5,0,4.5-2,4.8-4.7h2
			c-0.5,4-3.1,6.4-6.8,6.4c-5.1,0-7.8-4-7.8-8.7c0-4.7,2.8-8.7,7.8-8.7c3.5,0,6.2,1.9,6.7,5.7H274z"/>
		<path fill="#959595" d="M279,202.2h2v3.2h-2V202.2z M279,208.5h2V225h-2V208.5z"/>
		<path fill="#959595" d="M286.1,217.3c0,2.9,1.6,6.5,5.4,6.5c2.9,0,4.5-1.7,5.2-4.2h2c-0.9,3.7-3,5.9-7.2,5.9c-5.2,0-7.5-4-7.5-8.7
			c0-4.4,2.2-8.7,7.5-8.7c5.3,0,7.4,4.6,7.3,9.3H286.1z M296.8,215.6c-0.1-3-2-5.9-5.2-5.9c-3.3,0-5.1,2.9-5.4,5.9H296.8z"/>
		<path fill="#959595" d="M301.5,208.5h2v2.8h0.1c0.7-2,2.9-3.3,5.3-3.3c4.6,0,6,2.4,6,6.4V225h-2v-10.3c0-2.8-0.9-5-4.2-5
			c-3.2,0-5.1,2.4-5.2,5.7v9.6h-2V208.5z"/>
		<path fill="#959595" d="M321.9,208.5h3.4v1.7h-3.4v11.1c0,1.3,0.2,2.1,1.6,2.2c0.6,0,1.2,0,1.7-0.1v1.7c-0.6,0-1.2,0.1-1.8,0.1
			c-2.7,0-3.6-0.9-3.6-3.7v-11.3H317v-1.7h2.9v-5h2V208.5z"/>
		<path fill="#959595" d="M329.4,225v-3.4h2.7v3.4H329.4z"/>
	</g>
	<g opacity="0.5">
		<path fill="#959595" d="M37.8,50.9C49.2,51.4,61,47.3,61,34.4c0-8.8-6.9-14.8-16.3-14.8C32.8,19.6,27,30.2,27.3,41H10.2
			C11.1,20.6,23.8,5.3,45,5.3c16.3,0,33.1,9.4,33.1,28c0,10.5-4.8,18.9-14.8,22.5v0.3c11.8,2.4,19,12.8,19,26.2
			c0,19.8-17.1,32.1-37.2,32.1c-24.3,0-36.4-14.7-36.9-36.6h17.1c-0.4,12.8,6.5,22.3,19.8,22.3c11.4,0,20.1-6.8,20.1-18.7
			c0-16.3-13.9-18.4-27.4-17.8V50.9z"/>
	</g>
	<line fill="#959595" stroke="#C2D3D1" stroke-miterlimit="10" x1="134" y1="3" x2="134" y2="239"/>
</g>
<g>
</g>
<g>
</g>
<g>
</g>
<g>
</g>
<g>
</g>
<g>
</g>
<g>
</g>
<g>
</g>
<g>
</g>
<g>
</g>
<g>
</g>
<g>
</g>
<g>
</g>
<g>
</g>
<g>
</g>
</svg>
