<?xml version="1.0" encoding="utf-8"?>
<!-- Generator: Adobe Illustrator 18.0.0, SVG Export Plug-In . SVG Version: 6.00 Build 0)  -->
<!DOCTYPE svg PUBLIC "-//W3C//DTD SVG 1.1//EN" "http://www.w3.org/Graphics/SVG/1.1/DTD/svg11.dtd">
<svg version="1.1" id="Layer_1" xmlns="http://www.w3.org/2000/svg" xmlns:xlink="http://www.w3.org/1999/xlink" x="0px" y="0px"
	 viewBox="0 0 563.4 247.2" enable-background="new 0 0 563.4 247.2" xml:space="preserve">
<g>
	<g>
		<g>
			<path fill="#959595" d="M162.7,31.1c0,4.6,3.4,6.4,7.6,6.4c4.6,0,6.3-2.3,6.3-4.5c0-2.3-1.3-3.2-2.5-3.7
				c-2.1-0.8-4.8-1.3-8.9-2.5c-5.1-1.4-6.6-4.5-6.6-7.6c0-6,5.5-8.8,11-8.8c6.3,0,11.5,3.3,11.5,9.6h-5.3c-0.3-3.9-2.9-5.3-6.5-5.3
				c-2.4,0-5.5,0.9-5.5,3.9c0,2.1,1.4,3.3,3.6,3.9c0.5,0.1,7.1,1.8,8.7,2.3c3.9,1.2,5.8,4.5,5.8,7.6c0,6.7-6,9.4-11.9,9.4
				c-6.8,0-12.4-3.3-12.5-10.7H162.7z"/>
			<path fill="#959595" d="M186,19.4h4.5v2.9h0.1c1.3-2.5,3.9-3.5,6.7-3.5c6.8,0,10.2,5.2,10.2,11.6c0,5.8-2.9,11.3-9.4,11.3
				c-2.8,0-5.8-1-7.3-3.4h-0.1v10.8H186V19.4z M196.7,22.6c-4,0-6.1,3.1-6.1,7.7c0,4.4,2.2,7.6,6.1,7.6c4.4,0,6-3.9,6-7.6
				C202.7,26.3,200.6,22.6,196.7,22.6z"/>
			<path fill="#959595" d="M215.2,31.5c0,3.4,1.8,6.4,5.8,6.4c2.8,0,4.5-1.2,5.3-3.6h4.5c-1,4.7-5.1,7.4-9.8,7.4
				c-6.8,0-10.6-4.7-10.6-11.4c0-6.2,4-11.5,10.5-11.5c6.8,0,11,6.2,10.2,12.7H215.2z M226.4,28.3c-0.2-3-2.2-5.8-5.5-5.8
				c-3.3,0-5.6,2.5-5.7,5.8H226.4z"/>
			<path fill="#959595" d="M249.5,26.6c-0.4-2.6-2.3-4.1-5-4.1c-2.5,0-6,1.3-6,7.9c0,3.6,1.6,7.4,5.8,7.4c2.8,0,4.7-1.8,5.2-5h4.8
				c-0.9,5.6-4.4,8.7-10,8.7c-6.8,0-10.5-4.8-10.5-11.2c0-6.6,3.6-11.7,10.7-11.7c5,0,9.3,2.5,9.8,7.9H249.5z"/>
			<path fill="#959595" d="M277.3,41.1h-4.7v-3h-0.1c-1.2,2.2-3.8,3.6-6.2,3.6c-5.7,0-8.1-2.9-8.1-8.5V19.4h4.8v13.3
				c0,3.8,1.6,5.2,4.2,5.2c4,0,5.3-2.6,5.3-5.9V19.4h4.8V41.1z"/>
			<path fill="#959595" d="M282.4,11.1h4.8v30h-4.8V11.1z"/>
			<path fill="#959595" d="M310.6,36.3c0,1.2,0.3,1.6,1.1,1.6c0.3,0,0.7,0,1.2-0.1v3.3c-0.7,0.3-2.2,0.5-3,0.5
				c-1.9,0-3.3-0.7-3.7-2.6c-1.9,1.8-5,2.6-7.5,2.6c-3.9,0-7.4-2.1-7.4-6.3c0-5.4,4.3-6.3,8.4-6.8c3.4-0.6,6.5-0.3,6.5-3.1
				c0-2.5-2.6-2.9-4.5-2.9c-2.7,0-4.6,1.1-4.8,3.4h-4.8c0.3-5.6,5.1-7.2,9.9-7.2c4.2,0,8.7,1.7,8.7,6.3V36.3z M305.8,30.2
				c-1.5,1-3.8,0.9-5.9,1.3c-2.1,0.3-3.9,1.1-3.9,3.6c0,2.1,2.7,2.8,4.4,2.8c2.1,0,5.4-1.1,5.4-4.1V30.2z"/>
			<path fill="#959595" d="M313.6,19.4h3.6v-6.5h4.8v6.5h4.3v3.6H322v11.6c0,2,0.2,3,2.3,3c0.7,0,1.3,0,2-0.2v3.7
				c-1.1,0.1-2.1,0.3-3.1,0.3c-5,0-5.9-1.9-6-5.5V22.9h-3.6V19.4z"/>
			<path fill="#959595" d="M329.9,11.1h4.8v4.5h-4.8V11.1z M329.9,19.4h4.8v21.7h-4.8V19.4z"/>
			<path fill="#959595" d="M338.9,30.2c0-6.6,4-11.4,11-11.4c7,0,11,4.8,11,11.4c0,6.7-4,11.5-11,11.5
				C342.9,41.7,338.9,36.9,338.9,30.2z M356,30.2c0-3.7-1.9-7.6-6.2-7.6c-4.3,0-6.2,3.9-6.2,7.6c0,3.8,1.9,7.7,6.2,7.7
				C354.1,37.9,356,34,356,30.2z"/>
			<path fill="#959595" d="M364.8,19.4h4.5v3.2l0.1,0.1c1.4-2.4,3.9-3.9,6.8-3.9c4.7,0,7.7,2.5,7.7,7.4v14.9h-4.8V27.4
				c-0.1-3.4-1.4-4.9-4.2-4.9c-3.2,0-5.3,2.5-5.3,5.7v12.8h-4.8V19.4z"/>
			<path fill="#959595" d="M158,72.6h1.9v3.9h0.1c1-2.7,3.3-4.2,6.2-4.1v2c-3.6-0.2-6.1,2.5-6.1,5.9v8.8h-2V72.6z"/>
			<path fill="#959595" d="M168.7,81.4c0,2.9,1.6,6.5,5.4,6.5c2.9,0,4.5-1.7,5.2-4.2h2c-0.9,3.7-3,5.9-7.2,5.9c-5.2,0-7.5-4-7.5-8.7
				c0-4.4,2.2-8.7,7.5-8.7c5.3,0,7.4,4.6,7.3,9.3H168.7z M179.4,79.7c-0.1-3-2-5.9-5.2-5.9c-3.3,0-5.1,2.9-5.4,5.9H179.4z"/>
			<path fill="#959595" d="M194,77.4c-0.1-2.5-2-3.6-4.3-3.6c-1.8,0-3.9,0.7-3.9,2.8c0,1.8,2,2.4,3.4,2.8l2.7,0.6
				c2.3,0.4,4.7,1.7,4.7,4.6c0,3.6-3.6,5-6.6,5c-3.8,0-6.5-1.8-6.8-5.8h2c0.2,2.7,2.2,4.1,4.9,4.1c1.9,0,4.5-0.8,4.5-3.1
				c0-1.9-1.8-2.6-3.6-3l-2.6-0.6c-2.6-0.7-4.6-1.6-4.6-4.4c0-3.4,3.3-4.6,6.2-4.6c3.3,0,5.9,1.7,6,5.3H194z"/>
			<path fill="#959595" d="M212.9,89.1H211v-3H211c-1.1,2.2-3.2,3.5-5.7,3.5c-4.2,0-5.8-2.4-5.8-6.3V72.6h2v10.8
				c0.1,3,1.2,4.5,4.4,4.5c3.5,0,5-3.3,5-6.6v-8.7h2V89.1z"/>
			<path fill="#959595" d="M216.7,66.2h2v22.8h-2V66.2z"/>
			<path fill="#959595" d="M225.8,72.6h3.4v1.7h-3.4v11.1c0,1.3,0.2,2.1,1.6,2.2c0.6,0,1.2,0,1.7-0.1v1.7c-0.6,0-1.2,0.1-1.8,0.1
				c-2.7,0-3.6-0.9-3.6-3.7V74.3h-2.9v-1.7h2.9v-5h2V72.6z"/>
			<path fill="#959595" d="M242,77.4c-0.1-2.5-2-3.6-4.3-3.6c-1.8,0-3.9,0.7-3.9,2.8c0,1.8,2,2.4,3.4,2.8l2.7,0.6
				c2.3,0.4,4.7,1.7,4.7,4.6c0,3.6-3.6,5-6.6,5c-3.8,0-6.5-1.8-6.8-5.8h2c0.2,2.7,2.2,4.1,4.9,4.1c1.9,0,4.5-0.8,4.5-3.1
				c0-1.9-1.8-2.6-3.6-3l-2.6-0.6c-2.6-0.7-4.6-1.6-4.6-4.4c0-3.4,3.3-4.6,6.2-4.6c3.3,0,5.9,1.7,6,5.3H242z"/>
			<path fill="#959595" d="M256.4,66.2h2v3.2h-2V66.2z M256.4,72.6h2v16.5h-2V72.6z"/>
			<path fill="#959595" d="M262.3,72.6h2v2.8h0.1c0.7-2,2.9-3.3,5.3-3.3c4.6,0,6,2.4,6,6.4v10.6h-2V78.8c0-2.8-0.9-5-4.2-5
				c-3.2,0-5.1,2.4-5.2,5.7v9.6h-2V72.6z"/>
			<path fill="#959595" d="M288.4,66.2h2v9.2h0.1c0.7-2,2.9-3.3,5.3-3.3c4.6,0,6,2.4,6,6.4v10.6h-2V78.8c0-2.8-0.9-5-4.2-5
				c-3.2,0-5.1,2.4-5.2,5.7v9.6h-2V66.2z"/>
			<path fill="#959595" d="M306.8,81.4c0,2.9,1.6,6.5,5.4,6.5c2.9,0,4.5-1.7,5.2-4.2h2c-0.9,3.7-3,5.9-7.2,5.9c-5.2,0-7.5-4-7.5-8.7
				c0-4.4,2.2-8.7,7.5-8.7c5.3,0,7.4,4.6,7.3,9.3H306.8z M317.4,79.7c-0.1-3-2-5.9-5.2-5.9c-3.3,0-5.1,2.9-5.4,5.9H317.4z"/>
			<path fill="#959595" d="M322,77.6c0.2-3.9,2.9-5.5,6.7-5.5c2.9,0,6.1,0.9,6.1,5.3v8.8c0,0.8,0.4,1.2,1.2,1.2
				c0.2,0,0.5-0.1,0.6-0.1V89c-0.4,0.1-0.8,0.1-1.3,0.1c-2,0-2.4-1.2-2.4-2.9h-0.1c-1.4,2.1-2.8,3.4-6,3.4c-3,0-5.5-1.5-5.5-4.8
				c0-4.6,4.5-4.8,8.9-5.3c1.7-0.2,2.6-0.4,2.6-2.2c0-2.7-2-3.4-4.3-3.4c-2.5,0-4.4,1.2-4.4,3.8H322z M332.7,80.1L332.7,80.1
				c-0.3,0.5-1.2,0.6-1.8,0.7c-3.4,0.6-7.7,0.6-7.7,3.8c0,2,1.8,3.3,3.7,3.3c3.1,0,5.8-2,5.8-5.2V80.1z"/>
			<path fill="#959595" d="M336.9,72.6h2.2l5.2,14.5h0.1l5.1-14.5h2.1l-6.2,16.5h-2.1L336.9,72.6z"/>
			<path fill="#959595" d="M351.7,72.6h2.1l5.4,14.1l5.1-14.1h2l-7.2,19c-1.2,2.8-1.8,3.6-4.4,3.6c-0.8,0-1.2,0-1.5-0.2v-1.7
				c0.5,0.1,0.9,0.2,1.4,0.2c1.8,0,2.2-1.1,2.9-2.6l0.7-1.9L351.7,72.6z"/>
			<path fill="#959595" d="M380.5,72.6h3.4v1.7h-3.4v11.1c0,1.3,0.2,2.1,1.6,2.2c0.6,0,1.2,0,1.7-0.1v1.7c-0.6,0-1.2,0.1-1.8,0.1
				c-2.7,0-3.6-0.9-3.6-3.7V74.3h-2.9v-1.7h2.9v-5h2V72.6z"/>
			<path fill="#959595" d="M386.8,72.6h1.9v3.9h0.1c1-2.7,3.3-4.2,6.2-4.1v2c-3.6-0.2-6.1,2.5-6.1,5.9v8.8h-2V72.6z"/>
			<path fill="#959595" d="M396.7,77.6c0.2-3.9,2.9-5.5,6.7-5.5c2.9,0,6.1,0.9,6.1,5.3v8.8c0,0.8,0.4,1.2,1.2,1.2
				c0.2,0,0.5-0.1,0.6-0.1V89c-0.4,0.1-0.8,0.1-1.3,0.1c-2,0-2.4-1.2-2.4-2.9h-0.1c-1.4,2.1-2.8,3.4-6,3.4c-3,0-5.5-1.5-5.5-4.8
				c0-4.6,4.5-4.8,8.9-5.3c1.7-0.2,2.6-0.4,2.6-2.2c0-2.7-2-3.4-4.3-3.4c-2.5,0-4.4,1.2-4.4,3.8H396.7z M407.4,80.1L407.4,80.1
				c-0.3,0.5-1.2,0.6-1.8,0.7c-3.4,0.6-7.7,0.6-7.7,3.8c0,2,1.8,3.3,3.7,3.3c3.1,0,5.8-2,5.8-5.2V80.1z"/>
			<path fill="#959595" d="M428,89.1h-1.9V86h-0.1c-0.9,2.1-3.5,3.6-5.9,3.6c-5,0-7.4-4.1-7.4-8.7c0-4.7,2.4-8.7,7.4-8.7
				c2.5,0,4.9,1.2,5.7,3.6h0.1v-9.5h2V89.1z M420.2,87.9c4.3,0,5.8-3.6,5.8-7c0-3.4-1.5-7-5.8-7c-3.8,0-5.4,3.6-5.4,7
				C414.8,84.3,416.4,87.9,420.2,87.9z"/>
			<path fill="#959595" d="M431.9,66.2h2v3.2h-2V66.2z M431.9,72.6h2v16.5h-2V72.6z"/>
			<path fill="#959595" d="M437.7,72.6h2v2.8h0.1c0.7-2,2.9-3.3,5.3-3.3c4.6,0,6,2.4,6,6.4v10.6h-2V78.8c0-2.8-0.9-5-4.2-5
				c-3.2,0-5.1,2.4-5.2,5.7v9.6h-2V72.6z"/>
			<path fill="#959595" d="M468.9,87.8c0,4.9-1.9,7.9-7.3,7.9c-3.3,0-6.6-1.5-6.8-5h2c0.4,2.4,2.6,3.3,4.8,3.3
				c3.7,0,5.3-2.2,5.3-6.2v-2.2h-0.1c-0.9,2-2.9,3.4-5.2,3.4c-5.3,0-7.5-3.8-7.5-8.5c0-4.5,2.7-8.3,7.5-8.3c2.4,0,4.4,1.5,5.2,3.3
				h0.1v-2.8h2V87.8z M466.9,80.6c0-3.2-1.5-6.8-5.3-6.8c-3.8,0-5.4,3.4-5.4,6.8c0,3.3,1.7,6.6,5.4,6.6
				C465.1,87.2,466.9,84,466.9,80.6z"/>
			<path fill="#959595" d="M156.2,120.6h2.2l5.2,14.5h0.1l5.1-14.5h2.1l-6.2,16.5h-2.1L156.2,120.6z"/>
			<path fill="#959595" d="M187.6,128.8c0,4.7-2.8,8.7-7.8,8.7s-7.8-4-7.8-8.7c0-4.7,2.8-8.7,7.8-8.7S187.6,124.1,187.6,128.8z
				 M174,128.8c0,3.5,1.9,7,5.8,7c3.9,0,5.8-3.5,5.8-7c0-3.5-1.9-7-5.8-7C175.9,121.8,174,125.3,174,128.8z"/>
			<path fill="#959595" d="M190.7,114.2h2v22.8h-2V114.2z"/>
			<path fill="#959595" d="M209.9,137.1h-1.9v-3H208c-1.1,2.2-3.2,3.5-5.7,3.5c-4.2,0-5.8-2.4-5.8-6.3v-10.7h2v10.8
				c0.1,3,1.2,4.5,4.4,4.5c3.5,0,5-3.3,5-6.6v-8.7h2V137.1z"/>
			<path fill="#959595" d="M213.7,120.6h1.9v2.8h0.1c1.1-2,2.8-3.3,5.4-3.3c2.2,0,4.1,1.1,4.7,3.2c1-2.2,3.1-3.2,5.2-3.2
				c3.6,0,5.5,1.9,5.5,5.8v11.2h-2V126c0-2.7-1-4.2-3.9-4.2c-3.5,0-4.5,2.9-4.5,6v9.3h-2v-11.2c0-2.2-0.9-4.1-3.5-4.1
				c-3.5,0-4.9,2.6-4.9,6.1v9.2h-2V120.6z"/>
			<path fill="#959595" d="M241.6,129.4c0,2.9,1.6,6.5,5.4,6.5c2.9,0,4.5-1.7,5.2-4.2h2c-0.9,3.7-3,5.9-7.2,5.9
				c-5.2,0-7.5-4-7.5-8.7c0-4.4,2.2-8.7,7.5-8.7c5.3,0,7.4,4.6,7.3,9.3H241.6z M252.3,127.7c-0.1-3-2-5.9-5.2-5.9
				c-3.3,0-5.1,2.9-5.4,5.9H252.3z"/>
			<path fill="#959595" d="M265.9,120.6h1.9v3.9h0.1c1-2.7,3.3-4.2,6.2-4.1v2c-3.6-0.2-6.1,2.5-6.1,5.9v8.8h-2V120.6z"/>
			<path fill="#959595" d="M276.6,129.4c0,2.9,1.6,6.5,5.4,6.5c2.9,0,4.5-1.7,5.2-4.2h2c-0.9,3.7-3,5.9-7.2,5.9
				c-5.2,0-7.5-4-7.5-8.7c0-4.4,2.2-8.7,7.5-8.7c5.3,0,7.4,4.6,7.3,9.3H276.6z M287.3,127.7c-0.1-3-2-5.9-5.2-5.9
				c-3.3,0-5.1,2.9-5.4,5.9H287.3z"/>
			<path fill="#959595" d="M292,114.2h2v22.8h-2V114.2z"/>
			<path fill="#959595" d="M297.7,125.6c0.2-3.9,2.9-5.5,6.7-5.5c2.9,0,6.1,0.9,6.1,5.3v8.8c0,0.8,0.4,1.2,1.2,1.2
				c0.2,0,0.5-0.1,0.6-0.1v1.7c-0.4,0.1-0.8,0.1-1.3,0.1c-2,0-2.4-1.2-2.4-2.9h-0.1c-1.4,2.1-2.8,3.4-6,3.4c-3,0-5.5-1.5-5.5-4.8
				c0-4.6,4.5-4.8,8.9-5.3c1.7-0.2,2.6-0.4,2.6-2.2c0-2.7-2-3.4-4.3-3.4c-2.5,0-4.4,1.2-4.4,3.8H297.7z M308.5,128.1L308.5,128.1
				c-0.3,0.5-1.2,0.6-1.8,0.7c-3.4,0.6-7.7,0.6-7.7,3.8c0,2,1.8,3.3,3.7,3.3c3.1,0,5.8-2,5.8-5.2V128.1z"/>
			<path fill="#959595" d="M317.7,120.6h3.4v1.7h-3.4v11.1c0,1.3,0.2,2.1,1.6,2.2c0.6,0,1.2,0,1.7-0.1v1.7c-0.6,0-1.2,0.1-1.8,0.1
				c-2.7,0-3.6-0.9-3.6-3.7v-11.3h-2.9v-1.7h2.9v-5h2V120.6z"/>
			<path fill="#959595" d="M324,114.2h2v3.2h-2V114.2z M324,120.6h2v16.5h-2V120.6z"/>
			<path fill="#959595" d="M328.1,120.6h2.2l5.2,14.5h0.1l5.1-14.5h2.1l-6.2,16.5h-2.1L328.1,120.6z"/>
			<path fill="#959595" d="M345.9,129.4c0,2.9,1.6,6.5,5.4,6.5c2.9,0,4.5-1.7,5.2-4.2h2c-0.9,3.7-3,5.9-7.2,5.9
				c-5.2,0-7.5-4-7.5-8.7c0-4.4,2.2-8.7,7.5-8.7c5.3,0,7.4,4.6,7.3,9.3H345.9z M356.6,127.7c-0.1-3-2-5.9-5.2-5.9
				c-3.3,0-5.1,2.9-5.4,5.9H356.6z"/>
			<path fill="#959595" d="M373.4,120.6h3.4v1.7h-3.4v11.1c0,1.3,0.2,2.1,1.6,2.2c0.6,0,1.2,0,1.7-0.1v1.7c-0.6,0-1.2,0.1-1.8,0.1
				c-2.7,0-3.6-0.9-3.6-3.7v-11.3h-2.9v-1.7h2.9v-5h2V120.6z"/>
			<path fill="#959595" d="M394.5,128.8c0,4.7-2.8,8.7-7.8,8.7s-7.8-4-7.8-8.7c0-4.7,2.8-8.7,7.8-8.7S394.5,124.1,394.5,128.8z
				 M380.9,128.8c0,3.5,1.9,7,5.8,7c3.9,0,5.8-3.5,5.8-7c0-3.5-1.9-7-5.8-7C382.8,121.8,380.9,125.3,380.9,128.8z"/>
			<path fill="#959595" d="M406.4,120.6h1.9v3.1h0.1c0.9-2.2,3.2-3.6,5.9-3.6c5,0,7.4,4.1,7.4,8.7c0,4.7-2.4,8.7-7.4,8.7
				c-2.5,0-4.9-1.2-5.7-3.6h-0.1v9.2h-2V120.6z M414.2,121.8c-4.4,0-5.8,3.3-5.8,7c0,3.4,1.5,7,5.8,7c3.8,0,5.4-3.6,5.4-7
				C419.6,125.4,418,121.8,414.2,121.8z"/>
			<path fill="#959595" d="M424.6,125.6c0.2-3.9,2.9-5.5,6.7-5.5c2.9,0,6.1,0.9,6.1,5.3v8.8c0,0.8,0.4,1.2,1.2,1.2
				c0.2,0,0.5-0.1,0.6-0.1v1.7c-0.4,0.1-0.8,0.1-1.3,0.1c-2,0-2.4-1.2-2.4-2.9h-0.1c-1.4,2.1-2.8,3.4-6,3.4c-3,0-5.5-1.5-5.5-4.8
				c0-4.6,4.5-4.8,8.9-5.3c1.7-0.2,2.6-0.4,2.6-2.2c0-2.7-2-3.4-4.3-3.4c-2.5,0-4.4,1.2-4.4,3.8H424.6z M435.3,128.1L435.3,128.1
				c-0.3,0.5-1.2,0.6-1.8,0.7c-3.4,0.6-7.7,0.6-7.7,3.8c0,2,1.8,3.3,3.7,3.3c3.1,0,5.8-2,5.8-5.2V128.1z"/>
			<path fill="#959595" d="M439.5,120.6h2.1l5.4,14.1l5.1-14.1h2l-7.2,19c-1.2,2.8-1.8,3.6-4.4,3.6c-0.8,0-1.2,0-1.5-0.2v-1.7
				c0.5,0.1,0.9,0.2,1.4,0.2c1.8,0,2.2-1.1,2.9-2.6l0.7-1.9L439.5,120.6z"/>
			<path fill="#959595" d="M456.2,120.6h1.9v2.8h0.1c1.1-2,2.8-3.3,5.4-3.3c2.2,0,4.1,1.1,4.7,3.2c1-2.2,3.1-3.2,5.2-3.2
				c3.6,0,5.5,1.9,5.5,5.8v11.2h-2V126c0-2.7-1-4.2-3.9-4.2c-3.5,0-4.5,2.9-4.5,6v9.3h-2v-11.2c0-2.2-0.9-4.1-3.5-4.1
				c-3.5,0-4.9,2.6-4.9,6.1v9.2h-2V120.6z"/>
			<path fill="#959595" d="M484,129.4c0,2.9,1.6,6.5,5.4,6.5c2.9,0,4.5-1.7,5.2-4.2h2c-0.9,3.7-3,5.9-7.2,5.9c-5.2,0-7.5-4-7.5-8.7
				c0-4.4,2.2-8.7,7.5-8.7c5.3,0,7.4,4.6,7.3,9.3H484z M494.7,127.7c-0.1-3-2-5.9-5.2-5.9c-3.3,0-5.1,2.9-5.4,5.9H494.7z"/>
			<path fill="#959595" d="M499.4,120.6h2v2.8h0.1c0.7-2,2.9-3.3,5.3-3.3c4.6,0,6,2.4,6,6.4v10.6h-2v-10.3c0-2.8-0.9-5-4.2-5
				c-3.2,0-5.1,2.4-5.2,5.7v9.6h-2V120.6z"/>
			<path fill="#959595" d="M519.8,120.6h3.4v1.7h-3.4v11.1c0,1.3,0.2,2.1,1.6,2.2c0.6,0,1.2,0,1.7-0.1v1.7c-0.6,0-1.2,0.1-1.8,0.1
				c-2.7,0-3.6-0.9-3.6-3.7v-11.3h-2.9v-1.7h2.9v-5h2V120.6z"/>
			<path fill="#959595" d="M536,125.4c-0.1-2.5-2-3.6-4.3-3.6c-1.8,0-3.9,0.7-3.9,2.8c0,1.8,2,2.4,3.4,2.8l2.7,0.6
				c2.3,0.4,4.7,1.7,4.7,4.6c0,3.6-3.6,5-6.6,5c-3.8,0-6.5-1.8-6.8-5.8h2c0.2,2.7,2.2,4.1,4.9,4.1c1.9,0,4.5-0.8,4.5-3.1
				c0-1.9-1.8-2.6-3.6-3l-2.6-0.6c-2.6-0.7-4.6-1.6-4.6-4.4c0-3.4,3.3-4.6,6.2-4.6c3.3,0,5.9,1.7,6,5.3H536z"/>
			<path fill="#959595" d="M542.7,137.1v-3.4h2.7v3.4H542.7z"/>
			<path fill="#959595" d="M156.1,162.2h2.3l5.2,20h0.1l5.6-20h2.7l5.6,20h0.1l5.2-20h2.2l-6.3,22.8h-2.3l-5.8-20.4h-0.1l-5.8,20.4
				h-2.4L156.1,162.2z"/>
			<path fill="#959595" d="M187.7,177.4c0,2.9,1.6,6.5,5.4,6.5c2.9,0,4.5-1.7,5.2-4.2h2c-0.9,3.7-3,5.9-7.2,5.9
				c-5.2,0-7.5-4-7.5-8.7c0-4.4,2.2-8.7,7.5-8.7c5.3,0,7.4,4.6,7.3,9.3H187.7z M198.3,175.7c-0.1-3-2-5.9-5.2-5.9
				c-3.3,0-5.1,2.9-5.4,5.9H198.3z"/>
			<path fill="#959595" d="M215.2,168.6h3.4v1.7h-3.4v11.1c0,1.3,0.2,2.1,1.6,2.2c0.6,0,1.2,0,1.7-0.1v1.7c-0.6,0-1.2,0.1-1.8,0.1
				c-2.7,0-3.6-0.9-3.6-3.7v-11.3h-2.9v-1.7h2.9v-5h2V168.6z"/>
			<path fill="#959595" d="M221.4,168.6h1.9v3.9h0.1c1-2.7,3.3-4.2,6.2-4.1v2c-3.6-0.2-6.1,2.5-6.1,5.9v8.8h-2V168.6z"/>
			<path fill="#959595" d="M231.3,173.6c0.2-3.9,2.9-5.5,6.7-5.5c2.9,0,6.1,0.9,6.1,5.3v8.8c0,0.8,0.4,1.2,1.2,1.2
				c0.2,0,0.5-0.1,0.6-0.1v1.7c-0.4,0.1-0.8,0.1-1.3,0.1c-2,0-2.4-1.2-2.4-2.9h-0.1c-1.4,2.1-2.8,3.4-6,3.4c-3,0-5.5-1.5-5.5-4.8
				c0-4.6,4.5-4.8,8.9-5.3c1.7-0.2,2.6-0.4,2.6-2.2c0-2.7-2-3.4-4.3-3.4c-2.5,0-4.4,1.2-4.4,3.8H231.3z M242.1,176.1L242.1,176.1
				c-0.3,0.5-1.2,0.6-1.8,0.7c-3.4,0.6-7.7,0.6-7.7,3.8c0,2,1.8,3.3,3.7,3.3c3.1,0,5.8-2,5.8-5.2V176.1z"/>
			<path fill="#959595" d="M259.8,173.8c-0.5-2.5-2-4-4.7-4c-3.9,0-5.8,3.5-5.8,7c0,3.5,1.9,7,5.8,7c2.5,0,4.5-2,4.8-4.7h2
				c-0.5,4-3.1,6.4-6.8,6.4c-5.1,0-7.8-4-7.8-8.7c0-4.7,2.8-8.7,7.8-8.7c3.5,0,6.2,1.9,6.7,5.7H259.8z"/>
			<path fill="#959595" d="M264.7,162.2h2v14.3l9.2-8h2.7l-7,6.1l7.5,10.4h-2.5l-6.5-9l-3.3,2.7v6.3h-2V162.2z"/>
			<path fill="#959595" d="M292.8,168.6h3.4v1.7h-3.4v11.1c0,1.3,0.2,2.1,1.6,2.2c0.6,0,1.2,0,1.7-0.1v1.7c-0.6,0-1.2,0.1-1.8,0.1
				c-2.7,0-3.6-0.9-3.6-3.7v-11.3h-2.9v-1.7h2.9v-5h2V168.6z"/>
			<path fill="#959595" d="M299.1,162.2h2v9.2h0.1c0.7-2,2.9-3.3,5.3-3.3c4.6,0,6,2.4,6,6.4v10.6h-2v-10.3c0-2.8-0.9-5-4.2-5
				c-3.2,0-5.1,2.4-5.2,5.7v9.6h-2V162.2z"/>
			<path fill="#959595" d="M316.3,162.2h2v3.2h-2V162.2z M316.3,168.6h2v16.5h-2V168.6z"/>
			<path fill="#959595" d="M332.1,173.4c-0.1-2.5-2-3.6-4.3-3.6c-1.8,0-3.9,0.7-3.9,2.8c0,1.8,2,2.4,3.4,2.8l2.7,0.6
				c2.3,0.4,4.7,1.7,4.7,4.6c0,3.6-3.6,5-6.6,5c-3.8,0-6.5-1.8-6.8-5.8h2c0.2,2.7,2.2,4.1,4.9,4.1c1.9,0,4.5-0.8,4.5-3.1
				c0-1.9-1.8-2.6-3.6-3l-2.6-0.6c-2.6-0.7-4.6-1.6-4.6-4.4c0-3.4,3.3-4.6,6.2-4.6c3.3,0,5.9,1.7,6,5.3H332.1z"/>
			<path fill="#959595" d="M346.5,162.2h2v9.5h0.1c0.9-2.4,3.3-3.6,5.7-3.6c5,0,7.4,4.1,7.4,8.7c0,4.7-2.4,8.7-7.4,8.7
				c-2.7,0-5-1.4-5.9-3.6h-0.1v3.1h-1.9V162.2z M354.3,169.8c-4.3,0-5.8,3.6-5.8,7c0,3.4,1.5,7,5.8,7c3.8,0,5.4-3.6,5.4-7
				C359.7,173.4,358.1,169.8,354.3,169.8z"/>
			<path fill="#959595" d="M364.7,173.6c0.2-3.9,2.9-5.5,6.7-5.5c2.9,0,6.1,0.9,6.1,5.3v8.8c0,0.8,0.4,1.2,1.2,1.2
				c0.2,0,0.5-0.1,0.6-0.1v1.7c-0.4,0.1-0.8,0.1-1.3,0.1c-2,0-2.4-1.2-2.4-2.9h-0.1c-1.4,2.1-2.8,3.4-6,3.4c-3,0-5.5-1.5-5.5-4.8
				c0-4.6,4.5-4.8,8.9-5.3c1.7-0.2,2.6-0.4,2.6-2.2c0-2.7-2-3.4-4.3-3.4c-2.5,0-4.4,1.2-4.4,3.8H364.7z M375.4,176.1L375.4,176.1
				c-0.3,0.5-1.2,0.6-1.8,0.7c-3.4,0.6-7.7,0.6-7.7,3.8c0,2,1.8,3.3,3.7,3.3c3.1,0,5.8-2,5.8-5.2V176.1z"/>
			<path fill="#959595" d="M381.5,162.2h2v22.8h-2V162.2z"/>
			<path fill="#959595" d="M387.2,173.6c0.2-3.9,2.9-5.5,6.7-5.5c2.9,0,6.1,0.9,6.1,5.3v8.8c0,0.8,0.4,1.2,1.2,1.2
				c0.2,0,0.5-0.1,0.6-0.1v1.7c-0.4,0.1-0.8,0.1-1.3,0.1c-2,0-2.4-1.2-2.4-2.9H398c-1.4,2.1-2.8,3.4-6,3.4c-3,0-5.5-1.5-5.5-4.8
				c0-4.6,4.5-4.8,8.9-5.3c1.7-0.2,2.6-0.4,2.6-2.2c0-2.7-2-3.4-4.3-3.4c-2.5,0-4.4,1.2-4.4,3.8H387.2z M398,176.1L398,176.1
				c-0.3,0.5-1.2,0.6-1.8,0.7c-3.4,0.6-7.7,0.6-7.7,3.8c0,2,1.8,3.3,3.7,3.3c3.1,0,5.8-2,5.8-5.2V176.1z"/>
			<path fill="#959595" d="M404,168.6h2v2.8h0.1c0.7-2,2.9-3.3,5.3-3.3c4.6,0,6,2.4,6,6.4v10.6h-2v-10.3c0-2.8-0.9-5-4.2-5
				c-3.2,0-5.1,2.4-5.2,5.7v9.6h-2V168.6z"/>
			<path fill="#959595" d="M432.8,173.8c-0.5-2.5-2-4-4.7-4c-3.9,0-5.8,3.5-5.8,7c0,3.5,1.9,7,5.8,7c2.5,0,4.5-2,4.8-4.7h2
				c-0.5,4-3.1,6.4-6.8,6.4c-5.1,0-7.8-4-7.8-8.7c0-4.7,2.8-8.7,7.8-8.7c3.5,0,6.2,1.9,6.7,5.7H432.8z"/>
			<path fill="#959595" d="M439,177.4c0,2.9,1.6,6.5,5.4,6.5c2.9,0,4.5-1.7,5.2-4.2h2c-0.9,3.7-3,5.9-7.2,5.9c-5.2,0-7.5-4-7.5-8.7
				c0-4.4,2.2-8.7,7.5-8.7c5.3,0,7.4,4.6,7.3,9.3H439z M449.7,175.7c-0.1-3-2-5.9-5.2-5.9c-3.3,0-5.1,2.9-5.4,5.9H449.7z"/>
			<path fill="#959595" d="M461.6,168.6h2.1l4.2,14.1h0.1l4-14.1h2.3l4,14.1h0.1l4.2-14.1h2.1l-5.3,16.5h-2.2l-4.1-13.9h-0.1
				l-4,13.9h-2.2L461.6,168.6z"/>
			<path fill="#959595" d="M487,162.2h2v3.2h-2V162.2z M487,168.6h2v16.5h-2V168.6z"/>
			<path fill="#959595" d="M496.1,168.6h3.4v1.7h-3.4v11.1c0,1.3,0.2,2.1,1.6,2.2c0.6,0,1.2,0,1.7-0.1v1.7c-0.6,0-1.2,0.1-1.8,0.1
				c-2.7,0-3.6-0.9-3.6-3.7v-11.3h-2.9v-1.7h2.9v-5h2V168.6z"/>
			<path fill="#959595" d="M502.4,162.2h2v9.2h0.1c0.7-2,2.9-3.3,5.3-3.3c4.6,0,6,2.4,6,6.4v10.6h-2v-10.3c0-2.8-0.9-5-4.2-5
				c-3.2,0-5.1,2.4-5.2,5.7v9.6h-2V162.2z"/>
			<path fill="#959595" d="M161.2,216.6h3.4v1.7h-3.4v11.1c0,1.3,0.2,2.1,1.6,2.2c0.6,0,1.2,0,1.7-0.1v1.7c-0.6,0-1.2,0.1-1.8,0.1
				c-2.7,0-3.6-0.9-3.6-3.7v-11.3h-2.9v-1.7h2.9v-5h2V216.6z"/>
			<path fill="#959595" d="M167.5,210.2h2v9.2h0.1c0.7-2,2.9-3.3,5.3-3.3c4.6,0,6,2.4,6,6.4v10.6h-2v-10.3c0-2.8-0.9-5-4.2-5
				c-3.2,0-5.1,2.4-5.2,5.7v9.6h-2V210.2z"/>
			<path fill="#959595" d="M185.9,225.4c0,2.9,1.6,6.5,5.4,6.5c2.9,0,4.5-1.7,5.2-4.2h2c-0.9,3.7-3,5.9-7.2,5.9
				c-5.2,0-7.5-4-7.5-8.7c0-4.4,2.2-8.7,7.5-8.7c5.3,0,7.4,4.6,7.3,9.3H185.9z M196.5,223.7c-0.1-3-2-5.9-5.2-5.9
				c-3.3,0-5.1,2.9-5.4,5.9H196.5z"/>
			<path fill="#959595" d="M211.6,225.6c-0.1,4.7,3.3,6.1,7.5,6.1c2.4,0,6-1.3,6-4.6c0-2.6-2.6-3.6-4.7-4.1l-5.1-1.2
				c-2.7-0.7-5.2-2-5.2-5.5c0-2.2,1.4-6.4,7.9-6.4c4.5,0,8.5,2.4,8.4,7.1h-2.2c-0.1-3.5-3-5.2-6.2-5.2c-3,0-5.7,1.2-5.7,4.5
				c0,2.1,1.6,3,3.5,3.5l5.6,1.4c3.2,0.9,5.9,2.3,5.9,6c0,1.6-0.6,6.5-8.7,6.5c-5.4,0-9.4-2.4-9.1-8H211.6z"/>
			<path fill="#959595" d="M230.3,216.6h1.9v3.1h0.1c0.9-2.2,3.2-3.6,5.9-3.6c5,0,7.4,4.1,7.4,8.7c0,4.7-2.4,8.7-7.4,8.7
				c-2.5,0-4.9-1.2-5.7-3.6h-0.1v9.2h-2V216.6z M238.1,217.8c-4.4,0-5.8,3.3-5.8,7c0,3.4,1.5,7,5.8,7c3.8,0,5.4-3.6,5.4-7
				C243.6,221.4,242,217.8,238.1,217.8z"/>
			<path fill="#959595" d="M249.9,225.4c0,2.9,1.6,6.5,5.4,6.5c2.9,0,4.5-1.7,5.2-4.2h2c-0.9,3.7-3,5.9-7.2,5.9
				c-5.2,0-7.5-4-7.5-8.7c0-4.4,2.2-8.7,7.5-8.7c5.3,0,7.4,4.6,7.3,9.3H249.9z M260.6,223.7c-0.1-3-2-5.9-5.2-5.9
				c-3.3,0-5.1,2.9-5.4,5.9H260.6z"/>
			<path fill="#959595" d="M277,221.8c-0.5-2.5-2-4-4.7-4c-3.9,0-5.8,3.5-5.8,7c0,3.5,1.9,7,5.8,7c2.5,0,4.5-2,4.8-4.7h2
				c-0.5,4-3.1,6.4-6.8,6.4c-5.1,0-7.8-4-7.8-8.7c0-4.7,2.8-8.7,7.8-8.7c3.5,0,6.2,1.9,6.7,5.7H277z"/>
			<path fill="#959595" d="M295.3,233.1h-1.9v-3h-0.1c-1.1,2.2-3.2,3.5-5.7,3.5c-4.2,0-5.8-2.4-5.8-6.3v-10.7h2v10.8
				c0.1,3,1.2,4.5,4.4,4.5c3.5,0,5-3.3,5-6.6v-8.7h2V233.1z"/>
			<path fill="#959595" d="M299.1,210.2h2v22.8h-2V210.2z"/>
			<path fill="#959595" d="M304.8,221.6c0.2-3.9,2.9-5.5,6.7-5.5c2.9,0,6.1,0.9,6.1,5.3v8.8c0,0.8,0.4,1.2,1.2,1.2
				c0.2,0,0.5-0.1,0.6-0.1v1.7c-0.4,0.1-0.8,0.1-1.3,0.1c-2,0-2.4-1.2-2.4-2.9h-0.1c-1.4,2.1-2.8,3.4-6,3.4c-3,0-5.5-1.5-5.5-4.8
				c0-4.6,4.5-4.8,8.9-5.3c1.7-0.2,2.6-0.4,2.6-2.2c0-2.7-2-3.4-4.3-3.4c-2.5,0-4.4,1.2-4.4,3.8H304.8z M315.6,224.1L315.6,224.1
				c-0.3,0.5-1.2,0.6-1.8,0.7c-3.4,0.6-7.7,0.6-7.7,3.8c0,2,1.8,3.3,3.7,3.3c3.1,0,5.8-2,5.8-5.2V224.1z"/>
			<path fill="#959595" d="M324.8,216.6h3.4v1.7h-3.4v11.1c0,1.3,0.2,2.1,1.6,2.2c0.6,0,1.2,0,1.7-0.1v1.7c-0.6,0-1.2,0.1-1.8,0.1
				c-2.7,0-3.6-0.9-3.6-3.7v-11.3h-2.9v-1.7h2.9v-5h2V216.6z"/>
			<path fill="#959595" d="M331.1,210.2h2v3.2h-2V210.2z M331.1,216.6h2v16.5h-2V216.6z"/>
			<path fill="#959595" d="M351.8,224.8c0,4.7-2.8,8.7-7.8,8.7s-7.8-4-7.8-8.7c0-4.7,2.8-8.7,7.8-8.7S351.8,220.1,351.8,224.8z
				 M338.2,224.8c0,3.5,1.9,7,5.8,7c3.9,0,5.8-3.5,5.8-7c0-3.5-1.9-7-5.8-7C340.1,217.8,338.2,221.3,338.2,224.8z"/>
			<path fill="#959595" d="M354.8,216.6h2v2.8h0.1c0.7-2,2.9-3.3,5.3-3.3c4.6,0,6,2.4,6,6.4v10.6h-2v-10.3c0-2.8-0.9-5-4.2-5
				c-3.2,0-5.1,2.4-5.2,5.7v9.6h-2V216.6z"/>
			<path fill="#959595" d="M381.3,210.2h10.5c3.8,0,6.9,1.8,6.9,6c0,2.9-1.5,5.2-4.4,5.8v0.1c3,0.4,3.8,2.4,4,5.2
				c0.1,1.6,0.1,4.7,1.1,5.9h-2.4c-0.5-0.9-0.5-2.6-0.6-3.6c-0.2-3.2-0.4-6.8-4.6-6.6h-8.3v10.1h-2.2V210.2z M383.5,221.1h8.1
				c2.7,0,4.9-1.7,4.9-4.4c0-2.8-1.7-4.5-4.9-4.5h-8.1V221.1z"/>
			<path fill="#959595" d="M402,221.6c0.2-3.9,2.9-5.5,6.7-5.5c2.9,0,6.1,0.9,6.1,5.3v8.8c0,0.8,0.4,1.2,1.2,1.2
				c0.2,0,0.5-0.1,0.6-0.1v1.7c-0.4,0.1-0.8,0.1-1.3,0.1c-2,0-2.4-1.2-2.4-2.9h-0.1c-1.4,2.1-2.8,3.4-6,3.4c-3,0-5.5-1.5-5.5-4.8
				c0-4.6,4.5-4.8,8.9-5.3c1.7-0.2,2.6-0.4,2.6-2.2c0-2.7-2-3.4-4.3-3.4c-2.5,0-4.4,1.2-4.4,3.8H402z M412.8,224.1L412.8,224.1
				c-0.3,0.5-1.2,0.6-1.8,0.7c-3.4,0.6-7.7,0.6-7.7,3.8c0,2,1.8,3.3,3.7,3.3c3.1,0,5.8-2,5.8-5.2V224.1z"/>
			<path fill="#959595" d="M422,216.6h3.4v1.7H422v11.1c0,1.3,0.2,2.1,1.6,2.2c0.6,0,1.2,0,1.7-0.1v1.7c-0.6,0-1.2,0.1-1.8,0.1
				c-2.7,0-3.6-0.9-3.6-3.7v-11.3h-2.9v-1.7h2.9v-5h2V216.6z"/>
			<path fill="#959595" d="M428.4,210.2h2v3.2h-2V210.2z M428.4,216.6h2v16.5h-2V216.6z"/>
			<path fill="#959595" d="M449,224.8c0,4.7-2.8,8.7-7.8,8.7s-7.8-4-7.8-8.7c0-4.7,2.8-8.7,7.8-8.7S449,220.1,449,224.8z
				 M435.4,224.8c0,3.5,1.9,7,5.8,7c3.9,0,5.8-3.5,5.8-7c0-3.5-1.9-7-5.8-7C437.3,217.8,435.4,221.3,435.4,224.8z"/>
			<path fill="#959595" d="M453.2,233.1v-3.4h2.7v3.4H453.2z"/>
		</g>
	</g>
	<g opacity="0.5">
		<path fill="#959595" d="M7.9,36.9c14.4,0.2,28-4.8,30.6-17.4h13.9v105H33.7V50.4H7.9V36.9z"/>
	</g>
	<line fill="#959595" stroke="#C2D3D1" stroke-miterlimit="10" x1="105.5" y1="19.1" x2="105.5" y2="235"/>
</g>
<g>
</g>
<g>
</g>
<g>
</g>
<g>
</g>
<g>
</g>
<g>
</g>
<g>
</g>
<g>
</g>
<g>
</g>
<g>
</g>
<g>
</g>
<g>
</g>
<g>
</g>
<g>
</g>
<g>
</g>
</svg>
